<svg id="Layer_1" data-name="Layer 1" xmlns="http://www.w3.org/2000/svg" viewBox="0 0 2000 2000">
    <defs>
        <style>
            .cls-1 {
                fill: #e74a3e;
            }
            
            .cls-2 {
                fill: #181818;
            }
        </style>
    </defs>
    <title>Icons-Business-And-Finance</title>
	<rect x="466.262" y="1306.898" class="cls-1" width="71.43" height="71.43"/>
	<rect x="323.398" y="1306.898" class="cls-1" width="71.43" height="71.43"/>
	<rect x="180.5" y="1306.898" class="cls-1" width="71.43" height="71.43"/>
	<rect x="1748" y="1306.898" class="cls-1" width="71.43" height="71.43"/>
	<rect x="1605.199" y="1306.898" class="cls-1" width="71.43" height="71.43"/>
	<rect x="1462.301" y="1306.898" class="cls-1" width="71.43" height="71.43"/>
	<path class="cls-1" d="M1702.803,444.129h116.646v-71.43h-615.393c-16.955-97.279-102-171.469-204.057-171.469
		c-102.051,0-187.102,74.182-204.057,171.469H180.5v71.43h116.751L41.152,887.692l61.858,35.715l256.103-443.57l256.16,443.668
		l61.858-35.715L420.975,444.129h374.984c7.774,44.476,29.779,84.126,61.143,114.056V1584.48H459.113
		c-36.23,0-70.32,14.129-95.961,39.77c-25.641,25.633-39.762,59.711-39.762,95.961v78.559h1353.211v-0.004h0.012v-78.559
		c0-36.227-14.109-70.316-39.75-95.988c-25.641-25.617-59.719-39.738-95.969-39.738H1142.84V558.245
		c31.396-29.938,53.424-69.611,61.202-114.116h374.931l-256.221,443.687l61.861,35.724l256.286-443.797l256.161,443.671
		l61.848-35.709L1702.803,444.129z M1000,272.66c74.828,0,135.711,60.879,135.711,135.711c0,74.84-60.883,135.719-135.711,135.719
		c-74.832,0-135.711-60.887-135.711-135.719S925.172,272.66,1000,272.66z M1586.332,1674.73c12.16,12.148,18.84,28.297,18.84,45.469
		v7.141H394.832v-7.141c0-17.172,6.688-33.32,18.828-45.461c12.148-12.137,28.289-18.828,45.449-18.828h1081.773
		C1558.063,1655.91,1574.203,1662.602,1586.332,1674.73z M1071.398,1584.48H928.531V602.797
		c22.288,8.221,46.363,12.715,71.469,12.715c25.079,0,49.131-4.484,71.398-12.687V1584.48z"/>
	<rect x="964.301" y="372.699" class="cls-1" width="71.43" height="71.43"/>
	<path class="cls-2"d="M1281.77,883.48c0,198.379,160.719,359.129,359.121,359.129c198.371,0,359.109-160.738,359.109-359.129
		H1281.77z"/>
	<path class="cls-2"d="M359.109,1242.609c198.379,0,359.121-160.738,359.121-359.129H0
		C0,1081.859,160.73,1242.609,359.109,1242.609z"/>
</svg>
