<svg id="Layer_1" data-name="Layer 1" xmlns="http://www.w3.org/2000/svg" viewBox="0 0 2000 2000">
    <defs>
        <style>
            .cls-1 {
                fill: #e74a3e;
            }
            
            .cls-2 {
                fill: #181818;
            }
        </style>
    </defs>
    <title>Icons-Business-And-Finance</title>
	<path class="cls-2"d="M184,464v1312h1632V464H184z M600,1280H440V960h160V1280z M1560,1280h-160V960h160V1280z"/>
	<path class="cls-1" d="M1455.992,280.031v-88.023c0-40.598-15.813-78.77-44.512-107.488C1382.762,55.809,1344.59,40,1304,40H696
		c-40.59,0-78.762,15.813-107.5,44.512C559.82,113.23,544,151.398,544,192v88.031H0v440c0,117.41,45.73,227.891,128.828,311.172
		c73.598,73.584,168.698,117.877,271.172,127.041V1320h240v-160h720v160h240v-161.756c102.474-9.164,197.576-53.46,271.191-127.072
		C1954.25,947.941,2000,837.441,2000,720.031v-440H1455.992z M624,192c0-19.238,7.477-37.309,21.078-50.91
		C658.691,127.5,676.77,120,696,120h608c19.23,0,37.309,7.5,50.91,21.09C1368.52,154.691,1376,172.762,1376,192v88.031H624V192z
		 M560,1240h-80v-240h80V1240z M1520,1240h-80v-240h80V1240z M1920,720.031c0,96.059-37.449,186.5-105.41,254.609
		c-58.457,58.461-133.516,94.293-214.59,103.185V920h-240v160H640V920H400v157.824c-81.065-8.895-156.139-44.729-214.578-103.152
		C117.441,906.531,80,816.09,80,720.031v-360h1840V720.031z"/>
	<path class="cls-1" d="M1920,1760c0,32.051-12.48,62.18-35.141,84.84c-22.668,22.68-52.809,35.16-84.859,35.16H200
		c-32.051,0-62.191-12.48-84.84-35.141C92.488,1822.191,80,1792.051,80,1760v-640H0v640c0,53.41,20.801,103.621,58.578,141.441
		C96.379,1939.199,146.59,1960,200,1960h1600c53.41,0,103.621-20.801,141.441-58.57c37.758-37.809,58.559-88.02,58.559-141.43v-640
		h-80V1760z"/>
</svg>
