<svg id="Layer_1" data-name="Layer 1" xmlns="http://www.w3.org/2000/svg" viewBox="0 0 2000 2000">
    <defs>
        <style>
            .cls-1 {
                fill: #e74a3e;
            }
            
            .cls-2 {
                fill: #181818;
            }
        </style>
    </defs>
    <title>Icons-Business-And-Finance</title>
	<rect x="958.301" y="370.801" class="cls-1" width="83.328" height="116.672"/>
	<rect x="370.801" y="958.301" class="cls-1" width="116.672" height="83.328"/>
	<rect x="958.301" y="1512.5" class="cls-1" width="83.328" height="116.668"/>
	<rect x="1512.5" y="958.301" class="cls-1" width="116.668" height="83.328"/>
	<path class="cls-1" d="M1233.944,655.366c-66.735-45.443-147.29-72.034-233.944-72.034
		c-229.762,0-416.672,186.918-416.672,416.668c0,229.762,186.922,416.672,416.672,416.672c229.762,0,416.672-186.91,416.668-416.672
		c0-86.661-26.595-167.221-72.044-233.959l100.267-210.979L1233.944,655.366z M1333.328,1000
		c0,183.809-149.52,333.328-333.328,333.328c-183.797,0-333.328-149.52-333.328-333.328c0-183.797,149.527-333.328,333.328-333.328
		c51.015,0,99.379,11.534,142.647,32.105L841.859,841.801l87.441,87.449c39.059-39.051,102.371-39.031,141.418,0.012
		c39.039,39.051,39.039,102.352,0.012,141.41l87.52,87.531l142.976-300.844C1321.796,900.626,1333.328,948.989,1333.328,1000z"/>
	<path class="cls-2"d="M1000,0C447.719,0,0,447.719,0,1000c0,552.289,447.719,1000,1000,1000s1000-447.711,1000-1000
		C2000,447.719,1552.281,0,1000,0z M1000,1766.672c-423.371,0-766.672-343.262-766.672-766.672
		c0-423.398,343.289-766.672,766.672-766.672c423.371,0,766.668,343.262,766.668,766.672
		C1766.672,1423.41,1423.371,1766.672,1000,1766.672z"/>
	<path class="cls-2"d="M929.289,1070.672c-39.059-39.031-39.059-102.359,0-141.41c0,0,0,0,0-0.012l-87.441-87.449l-286.75,603.031
		l603.141-286.621l-87.508-87.539C1031.672,1109.73,968.34,1109.73,929.289,1070.672z"/>
<path class="cls-1" d="M997.826,1808.328c-445.719,0-808.328-362.609-808.328-808.328s362.617-808.332,808.328-808.332
	c445.719,0,808.328,362.621,808.328,808.328C1806.154,1445.719,1443.545,1808.328,997.826,1808.328z M997.826,275
	c-399.77,0-725,325.23-725,725c0,399.781,325.23,725,725,725c399.781,0,725-325.219,725-725
	C1722.826,600.23,1397.607,275,997.826,275z"/>
</svg>
