<svg id="Layer_1" data-name="Layer 1" xmlns="http://www.w3.org/2000/svg" viewBox="0 0 2000 2000">
    <defs>
        <style>
            .cls-1 {
                fill: #e74a3e;
            }
            
            .cls-2 {
                fill: #181818;
            }
        </style>
    </defs>
    <title>Icons-Business-And-Finance</title>
	<rect x="319.039" y="676.602" class="cls-2"width="939.199" height="423.301"/>
	<path class="cls-1" d="M1954.898,1078.41h-78.27v686.781h-31.309V336.289l-78.25-78.258V195.82h-78.27V258l-78.289,78.289V2000
		h234.809v-156.539h109.578V1078.41z M1767.051,1765.191h-78.27v-647.629h78.27V1765.191z M1727.922,329.559l39.129,39.141v670.602
		h-78.27V368.699L1727.922,329.559z M1767.051,1921.73h-78.27v-78.27h78.27V1921.73z"/>
	<path class="cls-1" d="M45.102,0v2000h1487.137h0.004V336.352L1195.922,0H45.102z M1218.852,133.61l179.731,179.749h-179.731
		V133.61z M123.371,1921.73V78.273H1140.59v313.355h313.391V1921.73H123.371z"/>
	<rect x="287.73" y="313.398" class="cls-1" width="500.898" height="78.27"/>
	<rect x="279.91" y="1217.301" class="cls-1" width="1017.5" height="78.27"/>
	<rect x="279.91" y="1373.801" class="cls-1" width="1017.5" height="78.27"/>
	<rect x="279.91" y="1530.398" class="cls-1" width="1017.5" height="78.27"/>
	<rect x="279.91" y="1686.898" class="cls-1" width="1017.5" height="78.27"/>
	<path class="cls-1" d="M279.91,676.609v39.141v423.27h39.129v0.051h939.199v-0.051h39.191V715.75v-39.141V469.898H279.91V676.609z
		 M984.398,715.75v345h-156.59v-345H984.398z M827.809,637.48v-89.309h156.59v89.309H827.809z M749.539,1060.75H358.18v-345h391.359
		V1060.75z M1219.16,1060.75h-156.492v-345h156.492V1060.75z M1219.16,637.48h-156.492v-89.309h156.492V637.48z M358.18,548.172
		h391.359v89.309H358.18V548.172z"/>
</svg>
