<svg id="Layer_1" data-name="Layer 1" xmlns="http://www.w3.org/2000/svg" viewBox="0 0 2000 2000">
    <defs>
        <style>
            .cls-1 {
                fill: #e74a3e;
            }
            
            .cls-2 {
                fill: #181818;
            }
        </style>
    </defs>
    <title>Icons-Business-And-Finance</title>
	<polygon class="cls-2"points="1314.27,973.699 999.91,1918.051 685.48,973.699 	"/>
	<polygon class="cls-2"points="55.672,973.699 449.371,580.461 685.48,973.699 	"/>
	<polygon class="cls-2"points="1944.328,973.699 1550.352,580.461 1314.27,973.699 	"/>
	<path class="cls-1" d="M1566.641,541.121H433.102L0,973.691l999.91,1000L2000,973.672L1566.641,541.121z M1259.689,1013.09
		l-259.783,780.375L740.073,1013.09H1259.689z M767.182,934.398l232.705-290.938l232.582,290.938H767.182z M1081.745,619.82h399.081
		L1309.68,904.922L1081.745,619.82z M690.044,904.866L518.899,619.82h399.138L690.044,904.866z M615.969,934.359H150.745
		l290.807-290.47L615.969,934.359z M657.109,1013.051l252.845,759.402l-759.289-759.402H657.109z M1342.648,1013.051h506.7
		L1089.84,1772.5L1342.648,1013.051z M1383.783,934.359l174.394-290.479l291.026,290.479H1383.783z"/>
	<rect x="960.602" y="26.309" class="cls-1" width="78.691" height="236.078"/>
	
		<rect x="1202.789" y="74.508" transform="matrix(0.9238 0.3828 -0.3828 0.9238 168.3253 -460.8301)" class="cls-1" width="78.686" height="236.087"/>
	
		<rect x="1408.159" y="211.644" transform="matrix(0.7071 0.7071 -0.7071 0.7071 657.1011 -926.9784)" class="cls-1" width="78.679" height="236.096"/>
	
		<rect x="639.807" y="153.18" transform="matrix(0.3827 0.9239 -0.9239 0.3827 645.7021 -581.3198)" class="cls-1" width="236.104" height="78.694"/>
	
		<rect x="434.505" y="290.289" transform="matrix(0.707 0.7072 -0.7072 0.707 395.0103 -294.1824)" class="cls-1" width="236.076" height="78.687"/>
</svg>
