<svg id="Layer_1" data-name="Layer 1" xmlns="http://www.w3.org/2000/svg" viewBox="0 0 2000 2000">
    <defs>
        <style>
            .cls-1 {
                fill: #e74a3e;
            }
            
            .cls-2 {
                fill: #181818;
            }
        </style>
    </defs>
    <title>Icons-Business-And-Finance</title>
<path class="cls-1" d="M1188.66,641.223V223.301h3.211c61.527,0,111.578-50.109,111.566-111.719
	c0-61.527-50.047-111.578-111.578-111.578H808.27c-61.598,0-111.719,50.047-111.719,111.578
	c0,61.609,50.117,111.719,111.719,111.719h3.09v417.91c-298.082,83.879-503.91,354.051-503.91,666.25
	C307.449,1689.34,618.129,2000,1000,2000s692.551-310.66,692.551-692.527C1692.551,995.262,1486.719,725.102,1188.66,641.223z
	 M808.27,154.332c-23.57,0-42.75-19.18-42.75-42.75c0-23.5,19.18-42.621,42.75-42.621h383.59c23.512,0,42.621,19.121,42.621,42.621
	c0,23.57-19.109,42.75-42.621,42.75h-3.199v-0.031H811.359v0.031H808.27z M999.988,1931.031
	c-343.84,0-623.578-279.719-623.578-623.57c0-289.332,196.352-538.57,477.48-606.09l26.43-6.34V582.359h61.09v-68.961h-61.09
	v-50.836h61.09v-68.961h-61.09V342.91h61.09v-68.961h-61.09v-50.648h239.355v471.75l26.43,6.34
	c281.121,67.5,477.461,316.719,477.461,606.07C1623.566,1651.301,1343.84,1931.031,999.988,1931.031z"/>
<path class="cls-2"d="M1000,845.391c-255.172,0-462.07,206.922-462.07,462.07c0,255.07,206.898,462.07,462.07,462.07
	c255.07,0,462.07-207,462.07-462.07C1462.07,1052.309,1255.07,845.398,1000,845.391z M1115.145,1480.203
	c-21.722,21.751-50.164,34.201-80.684,35.515v35.29H965.5v-35.293c-30.54-1.332-58.932-13.802-80.453-35.434
	c-22.871-22.961-35.488-53.43-35.488-85.75h68.961c0,13.961,5.48,27.129,15.41,37.102c9.789,9.84,22.941,15.238,37.039,15.238
	h58.102c14.109,0,27.289-5.43,37.129-15.27c9.82-9.93,15.289-23.141,15.289-37.07c0-14.102-5.422-27.281-15.25-37.109
	c-10-9.969-23.211-15.48-37.172-15.48h-58.102c-32.391,0-62.891-12.66-85.871-35.648c-22.871-22.711-35.551-53.262-35.551-85.922
	c0-32.398,12.648-62.852,35.59-85.781c21.63-21.619,49.999-34.077,80.367-35.413V1064h68.961v35.175
	c30.341,1.321,58.745,13.764,80.473,35.388c22.949,23.121,35.52,53.539,35.52,85.809h-68.961c0-13.949-5.461-27.109-15.359-37.07
	c-9.82-9.801-23.059-15.27-37.059-15.27h-58.102c-13.988,0-27.172,5.449-37.078,15.359c-9.922,9.891-15.371,23.031-15.371,36.98
	c0,14.141,5.43,27.289,15.27,37.078c10.051,10.051,23.211,15.531,37.18,15.531h58.102c32.309,0,62.82,12.648,85.879,35.621
	c22.91,22.898,35.512,53.41,35.512,85.941C1150.465,1426.742,1137.926,1457.164,1115.145,1480.203z"/>
</svg>
