<svg id="Layer_1" data-name="Layer 1" xmlns="http://www.w3.org/2000/svg" viewBox="0 0 2000 2000">
    <defs>
        <style>
            .cls-1 {
                fill: #e74a3e;
            }
            
            .cls-2 {
                fill: #181818;
            }
        </style>
    </defs>
    <title>Icons-Business-And-Finance</title>
	<path class="cls-2"d="M1426.076,1413.205h-279.868v-130.679c-47.16-10.102-96.019-15.52-146.21-15.52
		c-160.67,0-308.458,54.629-426.074,146.198h133.628c37.469,0,74.878,14.301,103.39,42.808
		c28.57,28.578,42.852,65.988,42.852,103.397v146.21H488.245c-37.429,0-74.819-14.262-103.397-42.809
		c-2.75-2.762-5.238-5.68-7.762-8.59c-45.769,92.69-71.589,196.947-71.589,307.298h1389.018
		C1694.503,1738.534,1589.383,1540.294,1426.076,1413.205z"/>
	<path class="cls-2"d="M478.073,816.867h1043.889c0-88.999,72.12-161.077,161.119-161.077V320.669
		c-89.007,0-161.127-72.113-161.127-161.092H478.073c0,88.968-72.147,161.088-161.119,161.088V655.79
		C405.922,655.79,478.073,727.868,478.073,816.867z M1000.002,272.837c118.897,0,215.377,96.429,215.377,215.389
		c0,118.948-96.479,215.389-215.377,215.389c-118.96,0-215.389-96.44-215.389-215.389
		C784.613,369.266,881.042,272.837,1000.002,272.837z"/>
	<path class="cls-1" d="M1842.65,0H157.338v976.459h804.164v946.624H159.229v76.921h1681.585v-76.921h-802.391V976.459h804.227V0z
		 M1765.732,899.542H234.259V76.921h1531.473V899.542z"/>
	<rect x="1415.596" y="449.777" class="cls-1" width="76.909" height="76.921"/>
	<rect x="507.456" y="449.777" class="cls-1" width="76.921" height="76.921"/>
	<path class="cls-1" d="M1000.002,742.071c139.956,0,253.846-113.866,253.849-253.838c0-139.979-113.889-253.849-253.849-253.849
		c-139.972,0-253.85,113.87-253.85,253.849C746.152,628.201,860.034,742.071,1000.002,742.071z M1000.002,311.306
		c97.565,0,176.916,79.37,176.92,176.92c0,97.542-79.358,176.92-176.92,176.92s-176.92-79.37-176.92-176.92
		S902.433,311.306,1000.002,311.306z"/>
	<path class="cls-1" d="M1107.759,1267.007v184.659h404.008c49.257,0,95.616-19.18,130.62-54.082
		c34.847-34.949,54.038-81.308,54.038-130.577V1082.29h-403.957c-49.382,0-95.761,19.23-130.601,54.109
		C1126.978,1171.258,1107.759,1217.648,1107.759,1267.007z M1184.684,1267.019c0-28.8,11.199-55.858,31.578-76.218
		c20.34-20.371,47.409-31.57,76.198-31.57h327.036v107.788c0,28.742-11.211,55.813-31.52,76.171
		c-20.402,20.359-47.473,31.559-76.21,31.559h-327.083V1267.019z"/>
	<path class="cls-1" d="M892.253,1744.093v-184.678c0-49.309-19.199-95.679-54.12-130.608
		c-34.891-34.859-81.25-54.07-130.589-54.07H303.579v184.678c0,49.309,19.211,95.68,54.089,130.589
		c34.887,34.891,81.25,54.09,130.577,54.09H892.253z M380.508,1559.414v-107.748l327.04-0.001c28.777,0,55.858,11.211,76.198,31.539
		c20.367,20.379,31.578,47.441,31.578,76.21v107.749H488.249c-28.78,0-55.851-11.211-76.19-31.53
		C391.719,1615.246,380.508,1588.184,380.508,1559.414z"/>
</svg>
