<svg id="Layer_1" data-name="Layer 1" xmlns="http://www.w3.org/2000/svg" viewBox="0 0 2000 2000">
    <defs>
        <style>
            .cls-1 {
                fill: #e74a3e;
            }
            
            .cls-2 {
                fill: #181818;
            }
        </style>
    </defs>
    <title>Icons-Business-And-Finance</title>
	<polygon class="cls-2"points="0,839.059 303,1142.07 905.629,539.328 602.629,236.309 	"/>
	<polygon class="cls-2"points="1397.398,236.328 1094.441,539.352 1697,1142.129 2000,839.109 	"/>
	<path class="cls-1" d="M1591.025,1035.879l-150.259,150.471L1251.07,996.543l-25.109,25.121
		c-26.828,26.832-62.508,41.621-100.449,41.621s-73.609-14.77-100.43-41.609l-40.461-40.461l-152.629,152.629
		c-8.148,8.129-18.832,12.59-30.07,12.59h-0.012h-0.012c-11.238,0-21.91-4.461-30.059-12.59
		c-7.949-7.91-12.328-18.492-12.328-29.781c0-11.281,4.477-22.063,12.398-30.121l428.496-428.551l-50.219-50.211L999.981,745.406
		L849.88,595.199l-50.241,50.207L949.76,795.634l-228.303,228.334c-21.27,21.672-32.961,50.113-32.961,80.102
		c0,30.32,11.797,58.762,33.238,80.102c21.559,21.469,50.031,33.301,80.16,33.301c0.047,0,0.047,0,0.078,0
		c30.133,0,58.59-11.832,80.211-33.352l102.77-102.77c38.891,34.25,88.281,52.969,140.57,52.969c0.02,0,0.02,0,0.031,0
		c44.898,0,87.668-13.789,123.469-39.379l194.84,194.941c7.879,7.77,12.211,18.27,12.199,29.691
		c0.012,11.379-4.398,22.039-12.449,30.109c-15.813,15.84-43.953,15.82-59.781-0.031l-50.27,50.191
		c7.938,7.949,12.309,18.59,12.309,29.969c0,11.371-4.348,22-12.309,29.93c-7.98,7.988-18.641,12.387-30.051,12.398h-0.031
		c-11.379,0-21.938-4.359-29.719-12.25l-50.578,49.871c8.148,8.25,12.629,19,12.629,30.289c0,11.238-4.41,21.832-12.422,29.82
		c-16.301,16.289-44.109,16.031-60.07,0.051l-50.242,50.215c8.078,8.07,12.512,18.699,12.5,30.02
		c0.012,11.297-4.418,21.969-12.539,30.078c-16,16.047-43.809,15.809-59.898-0.031l-6.911-6.914
		c7.871-15.59,12.031-32.985,12.024-51.102c-0.02-30.781-11.898-59.391-33.34-80.461c-20.766-20.585-47.929-32.259-76.834-33.071
		c-0.828-28.822-12.422-56.008-33.158-77.128c-20.621-20.493-47.82-32.109-76.932-32.919c-0.785-28.983-12.528-56.216-33.083-76.851
		c-20.446-20.785-47.749-32.562-77.177-33.397c-0.778-29.248-12.509-56.518-33.225-77.079c-21.551-21.441-50-33.25-80.16-33.25
		c-17.93,0-35.286,4.2-50.993,12.167L409.116,1035.92l-50.23,50.216l154.146,154.189c-7.938,15.652-12.141,33.086-12.141,51.194
		c0,30.168,11.711,58.648,33.211,80.43c20.706,20.521,47.905,32.156,76.933,32.97c0.798,29.157,12.571,56.444,33.083,76.839
		c20.512,20.821,47.829,32.612,77.2,33.38c0.773,29.133,12.465,56.383,33.194,77.101c20.798,20.637,47.992,32.349,76.913,33.161
		c0.818,29.219,12.586,56.478,33.259,77.022c21.457,21.422,49.867,33.238,80.059,33.25h0.02c17.931,0,35.352-4.243,51.14-12.267
		l7.2,7.208c21.648,21.309,50.109,33.059,80.168,33.078c30.25-0.02,58.68-11.852,79.988-33.285c20.75-20.719,32.512-48,33.281-77
		c29-0.793,56.25-12.531,77.02-33.262c20.723-20.688,32.449-47.938,33.211-77.039c29.141-0.82,56.379-12.527,76.969-33.148
		c20.641-20.578,32.32-47.828,33.09-77.02c29.223-0.789,56.461-12.469,77.012-33.09c21.461-21.461,33.25-50,33.211-80.281
		c0.039-30.551-11.828-59.07-33.199-80.102l-2.882-2.883l150.309-150.521L1591.025,1035.879z M834.691,1594.716
		c-0.002,0.008-0.003,0.015-0.005,0.022l0.005-4.809V1594.716z M571.91,1291.52c0-11.297,4.359-21.887,12.32-29.828
		c8.211-8.152,18.898-12.621,30.16-12.621c11.219,0,21.871,4.469,30.039,12.609c7.941,7.871,12.301,18.473,12.301,29.801
		c0,11.332-4.434,22.063-12.512,30.211l-0.352,0.352c-7.949,7.68-18.406,11.898-29.578,11.898h-0.031
		c-11.348,0-22.051-4.422-29.859-12.16C576.332,1313.629,571.91,1302.891,571.91,1291.52z M682.012,1401.781
		c-0.012-11.19,4.395-21.768,12.389-29.807c0.038-0.037,0.077-0.073,0.115-0.111l1.011-1.011
		c15.961-15.22,43.449-14.825,58.934,0.909c8.102,8.121,12.551,18.762,12.551,29.941c-0.02,11.075-4.355,21.584-12.269,29.639
		c-0.093,0.093-0.189,0.183-0.282,0.275l-1.491,1.512c-15.674,14.537-42.815,14.463-58.498-1.477
		C686.453,1423.672,682.012,1413.063,682.012,1401.781z M792.297,1512.059c0.012-11.271,4.38-21.936,12.304-30.08
		c0.067-0.067,0.136-0.133,0.204-0.201l0.749-0.769c15.749-14.886,43.829-14.498,58.986,0.581c8.102,8.25,12.57,19.059,12.57,30.41
		c0,11.281-4.363,21.859-12.352,29.82c-8.18,8.117-18.859,12.578-30.07,12.578h-0.051c-11.219,0-21.91-4.469-30.02-12.488
		C796.676,1533.957,792.297,1523.348,792.297,1512.059z M914.789,1652.098c-7.988-7.938-12.398-18.59-12.398-29.969
		c0-11.352,4.41-21.941,12.57-30.051c8.07-8.027,18.668-12.449,29.879-12.449c11.238,0,21.922,4.43,30.168,12.641
		c7.871,7.719,12.199,18.367,12.211,29.949c0.008,11.391-4.34,21.949-12.141,29.66C958.211,1668.406,931,1668.27,914.789,1652.098z"
		/>
	
		<rect x="1655.856" y="950.301" transform="matrix(0.7071 -0.7071 0.7071 0.7071 -201.6891 1484.6948)" class="cls-1" width="71.019" height="71.02"/>
	
		<rect x="273.227" y="950.185" transform="matrix(0.7072 -0.707 0.707 0.7072 -606.4964 506.8765)" class="cls-1" width="71.018" height="71.031"/>
</svg>
