<svg id="Layer_1" data-name="Layer 1" xmlns="http://www.w3.org/2000/svg" viewBox="0 0 2000 2000">
    <defs>
        <style>
            .cls-1 {
                fill: #e74a3e;
            }
            
            .cls-2 {
                fill: #181818;
            }
        </style>
    </defs>
    <title>Icons-Business-And-Finance</title><g>
	<path class="cls-2"d="M1000,1474.422c-176.012,0-318.621,142.609-318.621,318.609h637.238
		C1318.621,1617.031,1176.02,1474.422,1000,1474.422z"/>
	<circle class="cls-2"cx="1000" cy="1193.5" r="63.711"/>
	<path class="cls-2"d="M1000,870.141c215.109,0,389.441-174.328,389.441-389.441c-107.5,107.641-281.953,107.641-389.441,0
		c-107.5-107.461-281.941-107.461-389.441,0C610.559,695.809,784.898,870.141,1000,870.141z"/>
<path class="cls-1" d="M1608.918,1756.008h-43.199v-227.316c0-237.801-148.109-446.34-364.32-528.629
	c215.969-82.051,364.32-290.762,364.32-528.75V243.988h43.203c32.566,0,63.219-12.668,86.324-35.734
	c23.008-23.07,35.68-53.68,35.68-86.23c0-32.613-12.68-63.25-35.699-86.262C1672.168,12.699,1641.527,0,1608.918,0H391.09
	c-32.609,0-63.25,12.699-86.309,35.754c-23.031,23.023-35.711,53.652-35.711,86.262c0,32.539,12.68,63.172,35.738,86.301
	c23.07,23,53.711,35.672,86.281,35.672h43.18v227.32c0,237.719,148.109,446.277,364.371,528.629
	c-215.98,82.051-364.371,290.801-364.371,528.75v227.32h-43.18c-32.57,0-63.211,12.672-86.34,35.75
	c-23,23.059-35.68,53.68-35.68,86.219c0,32.613,12.68,63.242,35.711,86.262C327.84,1987.289,358.48,2000,391.09,2000h1217.832
	c32.598,0,63.25-12.711,86.293-35.75c23.02-23.02,35.711-53.66,35.711-86.27c0-32.551-12.66-63.16-35.738-86.281
	C1672.137,1768.688,1641.496,1756.008,1608.918,1756.008z M357.199,155.93c-9.063-9.07-14.051-21.121-14.051-33.91
	c0-12.832,4.969-24.859,14-33.891C366.23,79.07,378.27,74.07,391.09,74.07c0,0,1217.84,0,1217.836-0.004
	c12.82,0,24.859,4.988,33.93,14.059c9.043,9.031,14.012,21.07,14.012,33.891c0,12.793-4.992,24.82-13.98,33.852
	c-9.082,9.063-21.152,14.051-33.961,14.051H391.098C378.277,169.918,366.211,164.93,357.199,155.93z M508.34,1528.68
	c0-236.242,168.301-439.391,399.871-482.98l1.809-0.34l-0.129-0.551c18.828-6.5,31.969-24.469,31.969-44.82
	c0-20.371-13.121-38.34-31.941-44.82l0.102-0.551l-1.488-0.289C676.641,910.676,508.34,707.547,508.34,471.297V243.988h983.305
	v227.324c0,236.332-168.309,439.453-401.43,483.262h-0.031c-0.078,0.027-0.16,0.027-0.25,0.059l0.121,0.578
	c-18.813,6.48-31.922,24.418-31.922,44.789c0,20.75,13.629,39.012,33.039,45.172l-0.059,0.441
	c232.09,43.488,400.539,246.672,400.539,483.09v227.305H508.352h-0.012V1528.68z M1642.832,1911.871
	c-9.059,9.07-21.102,14.059-33.91,14.059H391.094c-12.82,0-24.863-4.988-33.941-14.059c-9.02-9.039-14-21.07-14-33.891
	c0-12.793,4.988-24.852,13.969-33.852c9.09-9.063,21.148-14.051,33.969-14.051l1217.836,0.004c12.82,0,24.887,4.988,33.898,13.988
	c9.051,9.09,14.039,21.129,14.039,33.91C1656.863,1890.813,1651.891,1902.84,1642.832,1911.871z"/>
</svg>
