<svg id="Layer_1" data-name="Layer 1" xmlns="http://www.w3.org/2000/svg" viewBox="0 0 2000 2000">
    <defs>
        <style>
            .cls-1 {
                fill: #e74a3e;
            }
            
            .cls-2 {
                fill: #181818;
            }
        </style>
    </defs>
    <title>Icons-Business-And-Finance</title>
<rect x="639.871" y="560.5" class="cls-2"width="1039.102" height="329.879"/>
	<path class="cls-1" d="M1743.961,0l-116.898,116.91L1510.172,0L1393.23,116.91L1276.352,0L1159.43,116.91L1042.52,0
		l-116.91,116.91L808.711,0l-116.91,116.91L574.879,0L418.281,156.578v364.203H99.461v1280.117
		c0,53.18,20.699,103.172,58.328,140.801c37.609,37.602,87.598,58.301,140.77,58.301h1402.91c53.191,0,103.18-20.699,140.785-58.332
		c37.578-37.629,58.289-87.621,58.289-140.77V156.578L1743.961,0z M383.23,1885.578c-22.621,22.609-52.691,35.07-84.672,35.07v0.016
		c-31.979-0.001-62.048-12.462-84.668-35.051c-22.629-22.652-35.09-52.73-35.09-84.711V600.121h239.48v1200.766
		C418.281,1832.867,405.82,1862.949,383.23,1885.578z M1821.211,1800.887c0,31.98-12.457,62.051-35.059,84.711
		c-22.621,22.59-52.691,35.051-84.672,35.051H457.648c25.941-34.328,39.98-75.969,39.98-119.75V189.441l77.25-77.238
		l116.922,116.898l116.941-116.91L925.641,229.09l116.898-116.898l116.914,116.898l116.898-116.898L1393.23,229.09l116.93-116.898
		l116.91,116.898l116.902-116.898l77.238,77.238V1800.887z"/>
	<rect x="639.871" y="350.199" class="cls-1" width="1039.102" height="79.352"/>
	<rect x="639.871" y="1021.301" class="cls-1" width="450.699" height="79.352"/>
	<rect x="639.871" y="1191.898" class="cls-1" width="450.699" height="79.352"/>
	<rect x="639.871" y="1362.602" class="cls-1" width="450.699" height="79.352"/>
	<rect x="639.871" y="1533.199" class="cls-1" width="450.699" height="79.34"/>
	<rect x="639.871" y="1703.801" class="cls-1" width="450.699" height="79.34"/>
	<rect x="1228.199" y="1021.301" class="cls-1" width="450.699" height="79.352"/>
	<rect x="1228.199" y="1191.898" class="cls-1" width="450.699" height="79.352"/>
	<rect x="1228.199" y="1362.602" class="cls-1" width="450.699" height="79.352"/>
	<rect x="1228.199" y="1533.199" class="cls-1" width="450.699" height="79.34"/>
	<rect x="1228.199" y="1703.801" class="cls-1" width="450.699" height="79.34"/>
</svg>
