<svg id="Layer_1" data-name="Layer 1" xmlns="http://www.w3.org/2000/svg" viewBox="0 0 2000 2000">
    <defs>
        <style>
            .cls-1 {
                fill: #e74a3e;
            }
            
            .cls-2 {
                fill: #181818;
            }
        </style>
    </defs>
    <title>Icons-Business-And-Finance</title>
<path class="cls-2"d="M1210.914,641.5c0,116.5-94.48,210.941-210.93,210.941c-116.512,0-210.898-94.441-210.898-210.941
	c0-116.469,94.379-210.93,210.898-210.93C1116.434,430.578,1210.914,525.031,1210.914,641.5z"/>
	<path class="cls-1" d="M1114.504,1023.75c166.41-49.969,284.48-206.391,284.48-382.25c0-220-179-398.988-399-398.988
		c-220.031,0-399.031,178.988-399.031,398.988c0,175.859,118.098,332.262,284.539,382.25V2000h229.012v-66.203h237.641v-202.488
		h-118.781v-62.148h118.781v-202.52h-237.641V1023.75z M1281.977,1536.809v62.172h-118.781v202.5h118.781v62.141h-237.641v66.199
		h-88.66v-0.004h0.008V968.527l-27.469-6.109c-148.957-33.172-257.078-168.129-257.078-320.91
		c0-181.309,147.523-328.809,328.852-328.809s328.828,147.5,328.828,328.809c0,152.789-108.082,287.762-257.012,320.91
		l-27.469,6.109v568.281H1281.977z"/>
	<rect x="964.906" class="cls-1" width="70.199" height="138.789"/>
	
		<rect x="711.587" y="77.792" transform="matrix(0.3826 0.9239 -0.9239 0.3826 586.4731 -651.8614)" class="cls-1" width="138.795" height="70.198"/>
	
		<rect x="525.956" y="201.942" transform="matrix(0.707 0.7072 -0.7072 0.707 342.0738 -351.5911)" class="cls-1" width="138.807" height="70.198"/>
	
		<rect x="401.974" y="387.542" transform="matrix(0.9238 0.3828 -0.3828 0.9238 197.6984 -148.2506)" class="cls-1" width="138.782" height="70.197"/>
	<rect x="358.477" y="606.5" class="cls-1" width="138.781" height="70.199"/>
	
		<rect x="402.039" y="825.397" transform="matrix(0.9238 -0.3828 0.3828 0.9238 -293.4962 246.0148)" class="cls-1" width="138.781" height="70.197"/>
	
		<rect x="560.392" y="976.732" transform="matrix(-0.7071 -0.7071 0.7071 -0.7071 276.8512 2206.908)" class="cls-1" width="70.198" height="138.768"/>
	
		<rect x="1183.905" y="43.555" transform="matrix(0.924 0.3825 -0.3825 0.924 135.8899 -457.6578)" class="cls-1" width="70.206" height="138.791"/>
	
		<rect x="1369.442" y="167.661" transform="matrix(0.7071 0.7071 -0.7071 0.7071 579.0061 -923.7277)" class="cls-1" width="70.198" height="138.796"/>
	
		<rect x="1459.115" y="387.448" transform="matrix(-0.9238 0.3828 -0.3828 -0.9238 3102.3545 227.7734)" class="cls-1" width="138.801" height="70.198"/>
	<rect x="1502.703" y="606.398" class="cls-1" width="138.82" height="70.199"/>
	
		<rect x="1459.076" y="825.398" transform="matrix(-0.9239 -0.3826 0.3826 -0.9239 2611.4214 2240.3108)" class="cls-1" width="138.787" height="70.197"/>
	
		<rect x="1335.072" y="1011.021" transform="matrix(-0.7072 -0.707 0.707 -0.7072 1658.1541 2778.9309)" class="cls-1" width="138.846" height="70.198"/>
</svg>
