<svg id="Layer_1" data-name="Layer 1" xmlns="http://www.w3.org/2000/svg" viewBox="0 0 2000 2000">
    <defs>
        <style>
            .cls-1 {
                fill: #e74a3e;
            }
            
            .cls-2 {
                fill: #181818;
            }
        </style>
    </defs>
    <title>Icons-Business-And-Finance</title>
<path class="cls-2"d="M1000.002,230.422c-276.912,0-501.394,224.481-501.394,501.394c0,276.913,224.481,501.393,501.394,501.393
	s501.394-224.48,501.394-501.393C1501.396,454.904,1276.914,230.422,1000.002,230.422z M953.861,918.14L742.043,706.313
	l54.391-54.378l157.428,157.436l249.705-249.768l54.391,54.391L953.861,918.14z"/>
	<path class="cls-1" d="M1000.002,0C600.096,0,274.735,325.356,274.739,725.286c0,250.446,130.999,484.604,343.396,616.474v246.146
		h763.723v-246.157c212.389-131.858,343.407-366.028,343.407-616.475C1725.265,325.356,1399.908,0,1000.002,0z M1324.136,1286.679
		l-19.199,11.109v213.197H695.063h-0.012v-213.197l-19.199-11.109C475.874,1170.941,351.656,955.83,351.656,725.274
		c0-357.508,290.846-648.354,648.342-648.354s648.346,290.845,648.346,648.354
		C1648.344,955.842,1524.122,1170.949,1324.136,1286.679z"/>
	<rect x="618.135" y="1648.383" class="cls-1" width="763.691" height="76.921"/>
	<rect x="618.135" y="1785.682" class="cls-1" width="763.691" height="76.921"/>
	<rect x="844.801" y="1923.083" class="cls-1" width="310.395" height="76.921"/>
</svg>
