<svg id="Layer_1" data-name="Layer 1" xmlns="http://www.w3.org/2000/svg" viewBox="0 0 2000 2000">
    <defs>
        <style>
            .cls-1 {
                fill: #e74a3e;
            }
            
            .cls-2 {
                fill: #181818;
            }
        </style>
    </defs>
    <title>Icons-Business-And-Finance</title>
<path class="cls-2"d="M1627.945,604.648H372.074c0,107.051-86.762,193.809-193.809,193.809v403.121
	c107.051,0,193.809,86.73,193.809,193.809h1255.871c0-107.082,86.762-193.809,193.801-193.809V798.461
	C1714.703,798.461,1627.945,711.691,1627.945,604.648z M1000.004,1310.109c-171.23,0-310.09-138.852-310.09-310.09
	c0-171.219,138.859-310.09,310.09-310.09c171.25,0,310.09,138.879,310.09,310.09
	C1310.094,1171.262,1171.254,1310.109,1000.004,1310.109z"/>
	<path class="cls-1" d="M30.965,457.352V1542.68h1938.07V457.352H30.965z M1891.523,1465.16H108.496V534.879h1783.027V1465.16z"/>
	<path class="cls-1" d="M977.785,1038.781h44.441c7.461,0,14.473,2.918,19.781,8.199c5.18,5.172,8.031,12.133,8.031,19.621
		c0,7.527-2.879,14.59-8,19.719c-5.313,5.281-12.352,8.211-19.801,8.211h-44.441c-7.453,0-14.461-2.91-19.672-8.109
		c-5.281-5.301-8.191-12.34-8.191-19.82h-77.52c0,28.16,10.918,54.621,30.879,74.641c15.961,15.896,36.098,26.075,57.91,29.509
		v46.312h77.52v-46.297c21.842-3.421,42.032-13.623,58.113-29.645c19.801-19.891,30.699-46.371,30.699-74.531
		c0-28.219-10.93-54.688-30.801-74.488c-19.941-19.891-46.398-30.852-74.52-30.852h-44.441c-7.441,0-14.461-2.91-19.781-8.219
		c-5.23-5.211-8.09-12.172-8.09-19.641s2.91-14.488,8.09-19.699c5.32-5.281,12.332-8.191,19.781-8.191h44.438
		c7.453,0,14.492,2.93,19.691,8.09c5.242,5.25,8.121,12.289,8.121,19.801h77.52c0-28.148-10.898-54.598-30.828-74.609
		c-15.988-15.926-36.154-26.102-57.992-29.517v-46.366h-77.52v46.38c-21.819,3.432-41.978,13.622-58.02,29.601
		c-19.852,19.934-30.781,46.391-30.781,74.512c0,28.23,10.973,54.703,30.852,74.512
		C923.184,1027.813,949.656,1038.781,977.785,1038.781z"/>
	<rect x="1457.105" y="961.199" class="cls-1" width="217.07" height="77.52"/>
	<rect x="325.797" y="961.199" class="cls-1" width="217.07" height="77.52"/>
	<path class="cls-1" d="M1000.004,77.52c160.76,0,313.571,51.718,439.451,147.27h-82.85v77.52h224.828V77.488h-77.527v99.284
		C1361.379,62.223,1185.475,0,1000.004,0c-215.34,0-417.77,83.871-570.059,236.141l54.809,54.809
		C622.387,153.32,805.387,77.52,1000.004,77.52z"/>
	<path class="cls-1" d="M1000.004,1922.488c-160.776,0-313.588-51.704-439.458-147.25h82.848v-77.52H418.586v224.82h77.52v-99.282
		C638.611,1937.793,814.508,2000,1000.004,2000c215.352,0,417.801-83.852,570.059-236.109l-54.809-54.801
		C1377.645,1846.707,1194.664,1922.488,1000.004,1922.488z"/>
	<rect x="1116.305" y="1697.699" class="cls-1" width="77.52" height="77.52"/>
	<rect x="961.203" y="1697.699" class="cls-1" width="77.52" height="77.52"/>
	<rect x="806.203" y="1697.699" class="cls-1" width="77.52" height="77.52"/>
	<rect x="1116.305" y="224.789" class="cls-1" width="77.52" height="77.52"/>
	<rect x="961.203" y="224.789" class="cls-1" width="77.52" height="77.52"/>
	<rect x="806.203" y="224.789" class="cls-1" width="77.52" height="77.52"/>
</svg>
