<svg id="Layer_1" data-name="Layer 1" xmlns="http://www.w3.org/2000/svg" viewBox="0 0 2000 2000">
    <defs>
        <style>
            .cls-1 {
                fill: #e74a3e;
            }
            
            .cls-2 {
                fill: #181818;
            }
        </style>
    </defs>
    <title>Icons-Business-And-Finance</title>
<path class="cls-2"d="M1201.398,1504.645c0-210.641,170.699-381.32,381.32-381.32c30.711,0,60.531,3.711,89.141,10.57
	c-11.129-222.469-130.398-416.27-306.191-530.379c-46.66,157.922-192.66,273.172-365.672,273.172
	c-173.039,0-319.039-115.25-365.66-273.172c-175.82,114.109-295.059,307.91-306.191,530.41c28.609-6.859,58.43-10.602,89.148-10.602
	c210.609,0,381.32,170.699,381.32,381.32c0,101.711-39.91,194.051-104.801,262.43c91.852,47.051,195.859,73.75,306.199,73.75
	c110.309,0,214.328-26.699,306.191-73.781C1241.301,1698.695,1201.398,1606.355,1201.398,1504.645z"/>
	<path class="cls-1" d="M1000,640.246c79.879,0,144.871-64.992,144.871-144.879c0-79.898-64.992-144.898-144.871-144.898
		c-79.898,0-144.898,65-144.898,144.898C855.102,575.258,920.102,640.246,1000,640.246z M1000,422.406
		c40.211,0,72.93,32.73,72.93,72.961c0,40.219-32.719,72.93-72.93,72.93c-40.23,0-72.961-32.711-72.961-72.93
		C927.039,455.137,959.77,422.406,1000,422.406z"/>
	<path class="cls-1" d="M1582.711,1359.746c-79.898,0-144.91,65-144.91,144.898c0,79.883,65.012,144.871,144.91,144.871
		c79.891,0,144.879-64.992,144.871-144.871C1727.582,1424.746,1662.59,1359.746,1582.711,1359.746z M1582.711,1577.574
		c-40.242,0-72.961-32.719-72.961-72.93c0-40.242,32.73-72.961,72.961-72.961c40.219,0,72.93,32.723,72.93,72.961
		C1655.641,1544.863,1622.922,1577.574,1582.711,1577.574z"/>
	<path class="cls-1" d="M417.289,1359.746c-79.891,0-144.879,65-144.879,144.898c0,79.883,64.988,144.871,144.879,144.871
		c79.902,0,144.902-64.992,144.898-144.871C562.188,1424.746,497.188,1359.746,417.289,1359.746z M417.289,1577.574
		c-40.219,0-72.93-32.719-72.93-72.93c0-40.242,32.711-72.961,72.93-72.961c40.23,0,72.961,32.723,72.961,72.961
		C490.25,1544.863,457.52,1577.574,417.289,1577.574z"/>
	<path class="cls-1" d="M1190.679,1236.651l-154.729-89.336V968.703H964v178.689l-154.676,89.323l35.983,62.312l154.741-89.36
		l154.655,89.293L1190.679,1236.651z M1000.053,1168.043l-0.056,0.097l-0.056-0.097H1000.053z"/>
	<path class="cls-1" d="M1000,912.656c230.09,0,417.289-187.203,417.289-417.293S1230.09,78.074,1000,78.074
		S582.711,265.277,582.711,495.367S769.91,912.656,1000,912.656z M849.021,805.912c4.67-10.842,11.345-20.73,19.858-29.244
		c17.711-17.711,41.23-27.461,66.23-27.461h129.648c25.082,0,48.66,9.75,66.371,27.461c8.504,8.509,15.179,18.397,19.85,29.245
		c-45.636,22.279-96.87,34.802-150.979,34.802S894.657,828.191,849.021,805.912z M1000,150.023
		c190.418,0,345.34,154.918,345.34,345.34c0,110.397-52.076,208.857-132.947,272.123c-7.817-15.266-18.017-29.304-30.404-41.697
		c-31.297-31.301-72.93-48.539-117.238-48.539H935.102c-44.219,0-85.801,17.25-117.09,48.539
		c-12.391,12.395-22.591,26.431-30.407,41.693C706.735,704.217,654.66,605.757,654.66,495.363
		C654.66,304.945,809.578,150.023,1000,150.023z"/>
	<path class="cls-1" d="M1582.711,1087.344c-230.082,0-417.289,187.203-417.289,417.293s187.199,417.289,417.289,417.289
		S2000,1734.734,2000,1504.645S1812.793,1087.344,1582.711,1087.344z M1431.772,1815.206c4.676-10.869,11.366-20.78,19.896-29.296
		c17.68-17.684,41.207-27.422,66.219-27.422h129.648c25.012,0,48.531,9.73,66.211,27.41c8.562,8.58,15.257,18.486,19.912,29.3
		c-45.629,22.269-96.853,34.786-150.947,34.786C1528.619,1849.984,1477.398,1837.471,1431.772,1815.206z M1795.084,1776.771
		c-7.811-15.233-18.028-29.277-30.467-41.725c-31.281-31.289-72.852-48.52-117.09-48.52h-129.648
		c-44.23,0-85.809,17.23-117.09,48.52c-12.411,12.396-22.623,26.447-30.445,41.736c-80.892-63.262-132.984-161.729-132.984-272.139
		c0-190.418,154.934-345.34,345.352-345.34s345.34,154.922,345.34,345.34C1928.051,1615.047,1875.965,1713.51,1795.084,1776.771z"/>
	<path class="cls-1" d="M417.289,1087.355C187.199,1087.355,0,1274.555,0,1504.645c0,230.07,187.199,417.25,417.289,417.25
		s417.289-187.18,417.289-417.25C834.578,1274.566,647.379,1087.355,417.289,1087.355z M266.356,1815.179
		c4.654-10.804,11.343-20.704,19.894-29.272c17.691-17.684,41.219-27.422,66.23-27.422h129.641c25.012,0,48.539,9.73,66.23,27.422
		c8.508,8.513,15.188,18.415,19.861,29.276c-45.622,22.26-96.837,34.771-150.924,34.771
		C363.199,1849.953,311.98,1837.44,266.356,1815.179z M629.645,1776.762c-7.818-15.281-18.024-29.326-30.426-41.719
		c-31.281-31.289-72.863-48.52-117.102-48.52H352.477c-44.23,0-85.82,17.23-117.109,48.531
		c-12.425,12.435-22.636,26.472-30.443,41.7c-80.886-63.257-132.975-161.715-132.975-272.11c0-190.418,154.918-345.34,345.34-345.34
		s345.34,154.922,345.34,345.34C762.629,1615.045,710.536,1713.506,629.645,1776.762z"/>
</svg>
