<svg id="Layer_1" data-name="Layer 1" xmlns="http://www.w3.org/2000/svg" viewBox="0 0 2000 2000">
    <defs>
        <style>
            .cls-1 {
                fill: #e74a3e;
            }
            
            .cls-2 {
                fill: #181818;
            }
        </style>
    </defs>
    <title>Icons-Business-And-Finance</title>
<path class="cls-1" d="M1797.891,1443.322v-306.471H1040v-223.16h757.891V75.781H202.109v837.91H960v223.16H202.109v306.471
	C87.579,1462.445,0,1562.231,0,1682.09c0,133.52,108.609,242.129,242.109,242.129c133.492,0,242.109-108.609,242.109-242.129
	c0-119.857-87.586-219.643-202.109-238.767v-226.472H960v226.471c-114.531,19.123-202.109,118.909-202.109,238.768
	c0,133.52,108.609,242.129,242.109,242.129s242.109-108.609,242.109-242.129c0-119.858-87.578-219.645-202.109-238.768v-226.471
	h677.891v226.471c-114.531,19.123-202.109,118.909-202.109,238.768c0,133.52,108.609,242.129,242.109,242.129
	S2000,1815.609,2000,1682.09C2000,1562.231,1912.422,1462.445,1797.891,1443.322z M282.109,155.781h1435.781v677.91H282.109V155.781
	z M404.219,1682.09c0,89.398-72.719,162.129-162.109,162.129S80,1771.48,80,1682.09c0-89.379,72.719-162.09,162.109-162.09
	S404.219,1592.711,404.219,1682.09z M1162.109,1682.09c0,89.398-72.719,162.129-162.109,162.129s-162.109-72.738-162.109-162.129
	c0-89.379,72.719-162.09,162.109-162.09S1162.109,1592.711,1162.109,1682.09z M1757.891,1844.219
	c-89.398,0-162.109-72.738-162.109-162.129c0-89.379,72.719-162.09,162.109-162.09c89.398,0,162.109,72.711,162.109,162.09
	C1920,1771.48,1847.289,1844.219,1757.891,1844.219z"/>
<path class="cls-2"d="M370.102,243.781V745.68h1259.801V243.781H370.102z M880,534.699h-80v-80h80V534.699z M1040,534.699h-80v-80
	h80V534.699z M1200,534.699h-80v-80h80V534.699z"/>
</svg>
