<svg id="Layer_1" data-name="Layer 1" xmlns="http://www.w3.org/2000/svg" viewBox="0 0 2000 2000">
    <defs>
        <style>
            .cls-1 {
                fill: #e74a3e;
            }
            
            .cls-2 {
                fill: #181818;
            }
        </style>
    </defs>
    <title>Icons-Business-And-Finance</title>
	<polygon class="cls-2"points="1616.32,199.371 1616.32,1847.641 383.68,1847.641 383.68,199.371 231.32,199.371 231.32,2000 
		1768.68,2000 1768.68,199.371 	"/>
	<rect x="525.301" y="588.711" class="cls-2"width="233.461" height="233.461"/>
	<rect x="1241.199" y="588.711" class="cls-2"width="233.461" height="233.461"/>
	<rect x="525.301" y="1429.199" class="cls-2"width="233.461" height="233.469"/>
	<rect x="1241.199" y="1429.199" class="cls-2"width="233.461" height="233.469"/>
	<path class="cls-2"d="M1474.699,970H525.301v311.301h949.398V970z M883.32,1164.621H805.5v-77.82h77.82V1164.621z
		 M1038.922,1164.621h-77.82v-77.82h77.82V1164.621z M1194.52,1164.621h-77.82v-77.82h77.82V1164.621z"/>
	<path class="cls-1" d="M1116.73,1429.172h-77.809v-147.871h-77.82v147.871H883.27V1507H758.75v77.82h124.52v77.82h233.461v-77.82
		h124.5V1507h-124.5V1429.172z M1038.91,1584.809h-77.82v-77.82h77.82V1584.809z"/>
	<path class="cls-1" d="M1116.73,588.711H883.27V666.5H758.75v77.82h124.52v77.852h77.832V970.07h77.82V822.172h77.809V744.32
		h124.5V666.5h-124.5V588.711z M1038.91,744.352h-77.82v-77.82h77.82V744.352z"/>
	<path class="cls-1" d="M1265.988,121.602h-110.227C1138.313,51.828,1075.113,0,1000.012,0
		c-75.09,0-138.301,51.828-155.742,121.602h-110.23l-389.27-0.07v1765.02H1655.23V121.531L1265.988,121.602z M772.93,199.41h144.398
		V160.5c0-45.613,37.113-82.691,82.691-82.691s82.68,37.09,82.68,82.691v38.91h144.391v165.391H772.93V199.41z M1577.41,1808.73
		H422.59V199.359l272.531,0.044v243.217h609.789V199.404l272.5-0.044V1808.73z"/>
</svg>
