<svg id="Layer_1" data-name="Layer 1" xmlns="http://www.w3.org/2000/svg" viewBox="0 0 2000 2000">
    <defs>
        <style>
            .cls-1 {
                fill: #e74a3e;
            }
            
            .cls-2 {
                fill: #181818;
            }
        </style>
    </defs>
    <title>Icons-Business-And-Finance</title>
	<path class="cls-2" d="M1361.371,246.02c-216.25,0.031-392.172,175.949-392.172,392.148c0,216.238,175.922,392.191,392.18,392.219
		c216.211,0,392.129-175.941,392.129-392.191S1577.594,246.02,1361.371,246.02z"/>
	<path class="cls-2" d="M1361.371,0C1008.93,0.031,723.18,285.75,723.18,638.172c0,0.206,0.004,0.411,0.004,0.617v588.91
		l163.24-163.251c116.833,130.098,286.329,211.945,474.947,211.962c352.422,0,638.152-285.789,638.148-638.211
		C1999.52,285.719,1713.793,0,1361.371,0z M1361.371,1108.832h-0.02c-259.48-0.039-470.578-211.18-470.578-470.66
		c0-259.449,211.102-470.559,470.578-470.59c259.5,0,470.59,211.121,470.59,470.621S1620.852,1108.832,1361.371,1108.832z"/>
	<path class="cls-1" d="M1178.164,1469.73c-17.52-17.461-40.852-27.051-65.66-27.051c-24.859,0-48.219,9.59-65.879,27.121
		l-76.039,76.16c-9.973,9.949-25.73,14.98-46.852,14.98c-66.641,0.02-187.934-54.02-308.672-174.789
		c-72.461-72.457-127.949-152.387-156.211-225.059c-23.52-60.449-24.852-109.219-3.57-130.488l75.98-76.109
		c17.59-17.5,27.27-40.867,27.27-65.809c0-25-9.711-48.379-27.211-65.66l-232.949-232.93c-17.512-17.699-40.91-27.449-65.91-27.449
		c-24.98,0-48.391,9.75-65.73,27.289l-76.129,76.051c-191.59,191.652-68.32,615.051,280.641,963.941
		C599.523,1858.172,875.965,2000,1092.703,2000c100.148,0,183.988-30.918,242.441-89.379l76.121-76.09
		c17.559-17.5,27.219-40.883,27.219-65.781c0-24.941-9.66-48.32-27.191-65.781L1178.164,1469.73z M1355.844,1779.055l-76.172,76.129
		c-44.051,44.063-106.949,66.391-186.969,66.391c-196.691,0-451.902-132.992-666.012-347.082
		C119.434,1267.281-9.066,876.641,146.063,721.461l76.27-76.211c1.551-1.551,4.922-4.172,10.141-4.172
		c4.988,0,8.27,2.262,10.301,4.32l233.262,233.266c1.531,1.5,4.07,4.813,4.07,10.051c0,5.297-2.598,8.68-4.238,10.309l-76.031,76.16
		c-45.25,45.211-50.25,121.34-14.078,214.359c32.121,82.598,93.852,172.117,173.852,252.078
		c121.961,122,261.48,197.793,364.09,197.762c0.02,0,0.031,0,0.031,0c42.09,0,77.48-13.109,102.32-37.988l75.961-76.039
		c1.941-1.93,5.32-4.219,10.48-4.219c5.32,0,8.762,2.629,10.262,4.129l233.121,233.211c1.559,1.559,4.18,4.957,4.18,10.289
		C1360.055,1774.066,1357.434,1777.465,1355.844,1779.055z"/>
	<rect x="1165.301" y="598.98" class="cls-1" width="78.43" height="78.43"/>
	<rect x="1322.102" y="598.98" class="cls-1" width="78.43" height="78.43"/>
	<rect x="1479.004" y="598.98" class="cls-1" width="78.441" height="78.43"/>
</svg>
