<svg id="Layer_1" data-name="Layer 1" xmlns="http://www.w3.org/2000/svg" viewBox="0 0 2000 2000">
    <defs>
        <style>
            .cls-1 {
                fill: #e74a3e;
            }
            
            .cls-2 {
                fill: #181818;
            }
        </style>
    </defs>
    <title>Icons-Business-And-Finance</title>
	<path class="cls-2"d="M931.512,0C411.852,36.02,0,470,0,998.629c0,243.949,86.949,474.512,245.75,656.82l685.762-685.738V0z"/>
	<path class="cls-1" d="M344.559,1754.27C526.859,1913.07,757.422,2000,1001.371,2000C1530,2000,1963.98,1588.148,2000,1068.512
		h-969.711L344.559,1754.27z M1906.281,1151.832c-73.52,435.469-454.961,764.84-904.91,764.84
		c-191.441,0-377.129-59.762-531.641-169.73l595.09-595.109H1906.281z"/>
	<path class="cls-1" d="M1782.539,928.77l186.5-186.48c-8.078-30.43-17.578-60.25-28.371-89.488L1664.699,928.77H1782.539z"/>
	<path class="cls-1" d="M1347.59,928.77l485.828-485.809c-15.672-23.398-32.289-46.078-49.82-68.031l-553.836,553.84H1347.59z"/>
	<path class="cls-1" d="M2000,928.77c-2.461-35.48-6.98-70.41-13.059-104.789L1882.152,928.77H2000z"/>
	<path class="cls-1" d="M1565.063,928.77l346.539-346.508c-12.219-26.609-25.59-52.57-39.988-77.871L1447.23,928.77H1565.063z"/>
	<path class="cls-1" d="M1071.23,335.297l275.969-275.969c-29.23-10.789-59.039-20.301-89.48-28.371L1071.23,217.469V335.297z"/>
	<path class="cls-1" d="M1071.223,770.25l553.828-553.84c-21.941-17.539-44.629-34.148-68.02-49.82l-485.809,485.82V770.25z"/>
	<path class="cls-1" d="M1071.23,552.762l424.379-424.383c-25.289-14.422-51.25-27.762-77.859-39.969l-346.52,346.512V552.762z"/>
	<path class="cls-1" d="M1737.719,321.191c-18.809-20.441-38.48-40.102-58.922-58.922l-607.586,607.59v58.922h58.93
		L1737.719,321.191z"/>
	<path class="cls-1" d="M1071.219,0v117.84l104.789-104.789C1141.629,6.98,1106.711,2.449,1071.219,0z"/>
</svg>
