<svg id="Layer_1" data-name="Layer 1" xmlns="http://www.w3.org/2000/svg" viewBox="0 0 2000 2000">
    <defs>
        <style>
            .cls-1 {
                fill: #e74a3e;
            }
            
            .cls-2 {
                fill: #181818;
            }
        </style>
    </defs>
    <title>Icons-Business-And-Finance</title>
	<path class="cls-2"d="M877.327,917.677c0,139.554-113.266,252.819-252.843,252.819c-139.564,0-252.842-113.266-252.842-252.819
	c0-139.744,113.277-252.85,252.842-252.85v252.85H877.327L877.327,917.677z"/>
	<path class="cls-1" d="M1969.295,1335.048h-91.415V207.152H1268.23v-76.118h-228.632V0h-79.196v131.034H731.77v76.118H122.144
		v1127.896H30.698v231.632h625.119l-227.25,393.597l68.584,39.599l250.112-433.195h213.139v413.45h79.196v-413.45h213.247
		l250.092,433.297l68.592-39.59l-227.241-393.707h625.007V1335.048z M810.978,210.23h378.057v73.208H810.978V210.23z M201.34,286.36
		H731.77v76.286h536.461V286.36h530.441v1048.621H201.34V286.36z M1890.098,1487.477H109.902v-73.217h1780.195V1487.477z"/>
	<path class="cls-1" d="M725.629,523.789h-39.928v332.66h332.679v-39.933C1018.38,655.112,887.045,523.789,725.629,523.789z
		 M765.538,776.612V607.368c85.454,16.28,152.963,83.806,169.231,169.244H765.538z"/>
	<rect x="1228.591" y="524.082" class="cls-1" width="399.747" height="79.196"/>
	<rect x="1228.591" y="666.675" class="cls-1" width="399.747" height="79.208"/>
	<rect x="1228.591" y="809.251" class="cls-1" width="399.747" height="79.208"/>
	<rect x="1228.591" y="951.863" class="cls-1" width="399.747" height="79.208"/>
	<rect x="1228.591" y="1094.357" class="cls-1" width="199.872" height="79.208"/>
</svg>
