<svg id="Layer_1" data-name="Layer 1" xmlns="http://www.w3.org/2000/svg" viewBox="0 0 2000 2000">
    <defs>
        <style>
            .cls-1 {
                fill: #e74a3e;
            }
            
            .cls-2 {
                fill: #181818;
            }
        </style>
    </defs>
    <title>Icons-Business-And-Finance</title>
	<path class="cls-2"d="M1414.719,446.832c-186.301,0-337.852,151.5-337.852,337.672c0,186.359,151.551,337.91,337.852,337.91
		c186.359,0,337.93-151.551,337.93-337.91C1752.648,598.332,1601.09,446.832,1414.719,446.832z"/>
	<path class="cls-2"d="M270.328,424.914c-45.949,0-83.32,37.34-83.32,83.238c0,45.961,37.371,83.352,83.32,83.352
		c45.969,0,83.359-37.391,83.359-83.352C353.699,462.266,316.301,424.914,270.328,424.914z"/>
	<path class="cls-2"d="M270.328,237.836C121.102,237.836,0,358.977,0,508.176c0,62.281,22.641,118.051,55.969,164.801
		c214.359,300.441,214.359,300.441,214.359,300.441s0,0,214.43-300.469c33.41-46.75,55.988-102.648,55.988-164.781
		C540.75,358.977,419.762,237.836,270.328,237.836z M270.328,668.484c-88.391,0-160.301-71.922-160.301-160.328
		c0-88.34,71.91-160.219,160.301-160.219c88.41,0,160.34,71.879,160.34,160.219C430.672,596.566,358.75,668.484,270.328,668.484z"/>
	<path class="cls-1" d="M1414.691,199.336c-322.68,0-585.191,262.52-585.191,585.199c0,123.941,40.5,243.57,120.379,355.602
		l464.813,651.43l464.898-651.473c78.781-110.34,120.41-233.289,120.41-355.559C2000,461.844,1737.43,199.336,1414.691,199.336z
		 M1816.949,1095.363l-402.262,563.691l-402.148-563.609c-70.367-98.719-106.059-203.332-106.059-310.91
		c0-280.238,227.98-508.219,508.211-508.219c280.297,0,508.34,227.98,508.336,508.219
		C1923.027,892.191,1887.34,996.773,1816.949,1095.363z"/>
	<path class="cls-1" d="M92.59,1631.496l-69.469,33.129c13.059,27.402,31.012,51.789,53.34,72.48l52.32-56.469
		C113.621,1666.598,101.441,1650.055,92.59,1631.496z"/>
	<path class="cls-1" d="M180.539,1712.945l-27.699,71.809c27.367,10.559,56.23,15.91,85.789,15.91h2.391v-76.988h-2.391
		C218.578,1723.676,199.027,1720.074,180.539,1712.945z"/>
	<path class="cls-1" d="M210.75,1325.023l8.898,76.461c6.25-0.73,12.633-1.09,18.98-1.094h52.512v-76.969h-52.512
		C229.32,1323.422,219.941,1323.965,210.75,1325.023z"/>
	<rect x="230.891" y="1077.105" class="cls-1" width="76" height="76.969"/>
	<polygon class="cls-1" points="317.012,1800.664 392.988,1800.664 392.992,1800.664 392.992,1723.684 317.012,1723.684 	"/>
	<path class="cls-1" d="M826,1297.594c7.34-18.758,11.078-38.547,11.078-58.855c0-13.211-1.633-26.383-4.781-39.102l-74.711,18.57
		c1.672,6.68,2.512,13.598,2.512,20.559c0,10.617-1.941,20.957-5.77,30.738L826,1297.594z"/>
	<path class="cls-1" d="M780.73,1116.113c-25.602-22-56.852-35.258-90.391-38.328l-7.039,76.648
		c17.52,1.602,33.859,8.539,47.27,20.051L780.73,1116.113z"/>
	<path class="cls-1" d="M161.57,1419.875l-36.73-67.66c-26.668,14.5-50.09,33.691-69.59,57.07l59.129,49.301
		C127.609,1442.727,143.488,1429.703,161.57,1419.875z"/>
	<path class="cls-1" d="M76.98,1562.047c0-17.141,2.66-34.02,7.91-50.129l-73.219-23.82C3.941,1511.918,0,1536.809,0,1562.047
		c0,5.156,0.148,10.258,0.48,15.328l76.828-4.867C77.102,1569.047,76.98,1565.566,76.98,1562.047z"/>
	<rect x="620.969" y="1723.684" class="cls-1" width="75.98" height="76.98"/>
	<rect x="924.922" y="1723.684" class="cls-1" width="76" height="76.98"/>
	<rect x="772.941" y="1723.684" class="cls-1" width="76" height="76.98"/>
	<rect x="1076.898" y="1723.684" class="cls-1" width="75.98" height="76.98"/>
	<path class="cls-1" d="M675.41,1323.426h-4.328v76.969h4.34c31.707,0,62.43-9.219,88.836-26.637l-42.379-64.262
		C708.082,1318.617,692.012,1323.426,675.41,1323.426z"/>
	<rect x="382.891" y="1077.105" class="cls-1" width="75.98" height="76.969"/>
	<rect x="534.859" y="1077.105" class="cls-1" width="75.98" height="76.969"/>
	<rect x="367.129" y="1323.426" class="cls-1" width="75.988" height="76.969"/>
	<rect x="468.98" y="1723.684" class="cls-1" width="76" height="76.98"/>
	<rect x="519.102" y="1323.426" class="cls-1" width="76" height="76.969"/>
</svg>
