<svg id="Layer_1" data-name="Layer 1" xmlns="http://www.w3.org/2000/svg" viewBox="0 0 2000 2000">
    <defs>
        <style>
            .cls-1 {
                fill: #e74a3e;
            }
            
            .cls-2 {
                fill: #181818;
            }
        </style>
    </defs>
    <title>Icons-Business-And-Finance</title>
<path class="cls-2" d="M1800,1000c-0.002-441.799-358.2-799.984-800-799.984v679.988c66.25,0,120,53.738,120,120
	c0,21.859-5.941,42.289-16.148,59.949l588.891,339.988c68.09-117.691,107.262-254.211,107.262-399.941H1800z"/>
	<path class="cls-1" d="M1000,0.016C448.59,0.016,0,448.613,0,1000.004s448.59,999.98,1000,999.98s1000-448.594,1000-999.98
		S1551.41,0.016,1000,0.016z M1000,1919.984c-507.281,0-920-412.691-920-919.98c0-507.277,412.719-919.988,920-919.988
		c507.289,0,920,412.707,920,919.988S1507.289,1919.984,1000,1919.984z"/>
	
		<rect x="1332.036" y="299.698" transform="matrix(-0.866 -0.5 0.5 -0.866 2382.4082 1349.7224)" class="cls-1" width="79.998" height="111.954"/>
	<rect x="960" y="200.004" class="cls-1" width="80" height="112"/>
	
		<rect x="571.985" y="315.686" transform="matrix(0.5 0.866 -0.866 0.5 622.0126 -366.0022)" class="cls-1" width="111.986" height="79.998"/>
	
		<rect x="299.72" y="588.031" transform="matrix(-0.866 -0.5 0.5 -0.866 349.7472 1349.7759)" class="cls-1" width="111.986" height="79.998"/>
	<rect x="200" y="960.004" class="cls-1" width="111.988" height="80"/>
	
		<rect x="315.684" y="1316.003" transform="matrix(-0.5 -0.866 0.866 -0.5 -654.6342 2366.0269)" class="cls-1" width="79.998" height="111.966"/>
	
		<rect x="588.006" y="1588.307" transform="matrix(-0.866 -0.5 0.5 -0.866 349.696 3382.293)" class="cls-1" width="79.998" height="111.974"/>
	<rect x="960" y="1688.004" class="cls-1" width="80" height="111.961"/>
	
		<rect x="1315.929" y="1604.278" transform="matrix(-0.5 -0.866 0.866 -0.5 633.9094 3654.5369)" class="cls-1" width="111.966" height="79.998"/>
	
		<rect x="1588.403" y="1331.947" transform="matrix(-0.866 -0.5001 0.5001 -0.866 2382.3032 3382.3691)" class="cls-1" width="111.988" height="80.007"/>
	<rect x="1688" y="960.004" class="cls-1" width="111.961" height="80"/>
	
		<rect x="1604.326" y="572.018" transform="matrix(0.5 0.866 -0.866 0.5 1366.0038 -1110.0266)" class="cls-1" width="79.998" height="111.955"/>
	<path class="cls-1" d="M1424,1040.004v-80h-269.063c-14.504-56.139-58.797-100.433-114.937-114.937V576.004h-80v269.063
		c-68.929,17.809-120,80.524-120,154.937c0,88.219,71.781,160,160,160c74.412,0,137.128-51.071,154.937-120H1424z M1000,1080.004
		c-44.109,0-80-35.891-80-80s35.891-80,80-80s80,35.891,80,80S1044.109,1080.004,1000,1080.004z"/>
</svg>
