<svg id="Layer_1" data-name="Layer 1" xmlns="http://www.w3.org/2000/svg" viewBox="0 0 2000 2000">
    <defs>
        <style>
            .cls-1 {
                fill: #e74a3e;
            }
            
            .cls-2 {
                fill: #181818;
            }
        </style>
    </defs>
    <title>Icons-Business-And-Finance</title>
	<path class="cls-2" d="M1011.781,403.875c-261.148,0-473.609,212.41-473.609,473.559c0,261.191,212.461,473.621,473.609,473.621
		c261.059,0,473.648-212.43,473.648-473.621C1485.43,616.285,1272.84,403.875,1011.781,403.875z M1011.781,1196.727
		c-176.051,0-319.262-143.238-319.262-319.289c0-176.031,143.211-319.262,319.262-319.262c176.07,0,319.277,143.23,319.289,319.262
		C1331.07,1053.496,1187.852,1196.727,1011.781,1196.727z"/>
	<path class="cls-2" d="M1011.77,712.273c-91.25,0-165.191,73.934-165.191,165.16s73.941,165.238,165.191,165.238
		c91.262,0,165.141-74.008,165.141-165.238C1176.91,786.207,1103.039,712.285,1011.77,712.273z"/>
	<path class="cls-1" d="M1952.84,993.523l47.16-47.137l-68.93-68.953l68.91-68.91l-47.141-47.129l-82.697,82.711h-24.67
	l35.578-35.582l-47.121-47.129l-82.711,82.711h-46.238c-17.449-367.282-321.692-660.711-693.199-660.711
	c-371.526,0-675.788,293.429-693.238,660.711H127.598l35.582-35.582l-47.129-47.129L0,877.434l116.039,116.09l47.152-47.137
	l-35.605-35.621h190.957c10.37,218.266,122.013,410.445,288.867,530.476v375.364h66.66v-121.539h675.43v121.539h66.66V1441.22
	c166.826-120.03,278.452-312.197,288.82-530.454h46.228l82.722,82.758l47.141-47.137l-35.605-35.621h24.667L1952.84,993.523z
	 M1349.5,1628.406H674.07v-144.72c100.01,55.94,215.204,87.849,337.711,87.849c122.51,0,237.707-31.913,337.719-87.863V1628.406z
	 M1011.781,1504.879c-345.938,0-627.379-281.461-627.379-627.441c0-345.93,281.438-627.371,627.379-627.371
	c334.73,0,609.074,263.533,626.459,594.039h-626.439v66.66h626.44C1620.86,1241.313,1346.514,1504.879,1011.781,1504.879z"/>
</svg>
