<svg id="Layer_1" data-name="Layer 1" xmlns="http://www.w3.org/2000/svg" viewBox="0 0 2000 2000">
    <defs>
        <style>
            .cls-1 {
                fill: #e74a3e;
            }
            
            .cls-2 {
                fill: #181818;
            }
        </style>
    </defs>	
    <title>Office-And-Business</title>
	<rect x="1730.805" y="312.801" class="cls-2" width="161.5" height="366.672"/>
	<rect x="453.805" y="38.461" class="cls-2" width="1276.898" height="641"/>
	<rect x="453.805" y="1320.5" class="cls-2" width="1276.898" height="641"/>
	<path class="cls-1" d="M1892.305,1183.32V816.672h-123.059V0H492.297h-76.91H107.695v2000h307.691h76.91h1276.949v-312.809
		h123.059V1320.52h-123.059V1183.32H1892.305z M415.375,1923.078H184.613V76.922h230.762V1923.078z M1815.395,893.578v212.82
		h-46.148v-212.82H1815.395z M1692.305,1923.078H492.297V76.922h1200.008V1923.078z M1815.395,1397.441v212.82h-46.148v-212.82
		H1815.395z"/>
	<rect x="879.875" y="811.602" class="cls-1" width="424.828" height="76.922"/>
	<rect x="684.605" y="961.5" class="cls-1" width="815.398" height="76.922"/>
	<rect x="684.605" y="1111.5" class="cls-1" width="815.398" height="76.922"/>
	<rect x="261.504" y="480.801" class="cls-1" width="76.922" height="76.922"/>
	<rect x="261.504" y="641" class="cls-1" width="76.922" height="76.922"/>
	<rect x="261.504" y="801.301" class="cls-1" width="76.922" height="76.922"/>
	<rect x="261.504" y="961.5" class="cls-1" width="76.922" height="76.922"/>
	<rect x="261.504" y="1121.801" class="cls-1" width="76.922" height="76.922"/>
	<rect x="261.504" y="1282.102" class="cls-1" width="76.922" height="76.91"/>
	<rect x="261.504" y="1442.301" class="cls-1" width="76.922" height="76.91"/>
</svg>
