<svg id="Layer_1" data-name="Layer 1" xmlns="http://www.w3.org/2000/svg" viewBox="0 0 2000 2000">
    <defs>
        <style>
            .cls-1 {
                fill: #e74a3e;
            }
            
            .cls-2 {
                fill: #181818;
            }
        </style>
    </defs>	
    <title>Office-And-Business</title>
	<path class="cls-2" d="M241.398,1489.176H687.68v-1275H241.398V1489.176z M368.891,341.676H560.09v510H368.891V341.676z
		 M464.508,1170.473c52.84,0,95.621,42.801,95.621,95.621c0,52.781-42.781,95.641-95.621,95.641s-95.629-42.859-95.629-95.641
		C368.879,1213.273,411.668,1170.473,464.508,1170.473z"/>
	<path class="cls-2" d="M776.898,1489.176h446.219v-1275H776.898V1489.176z M904.398,341.676h191.301v510H904.398V341.676z
		 M1000,1170.473c52.77,0.012,95.629,42.801,95.629,95.621c0,52.781-42.852,95.641-95.629,95.641
		c-52.84,0-95.641-42.859-95.641-95.641C904.359,1213.273,947.16,1170.473,1000,1170.473z"/>
	<path class="cls-2" d="M1312.398,214.176v1275h446.281v-1275H1312.398z M1535.543,1361.734c-52.898,0-95.68-42.859-95.68-95.641
		c0-52.82,42.781-95.621,95.68-95.621c52.785,0.012,95.578,42.801,95.578,95.621
		C1631.121,1318.875,1588.332,1361.734,1535.543,1361.734z M1631.199,851.676h-191.301v-510h191.301V851.676z"/>
	<path class="cls-1" d="M594.621,886.195v-579H334.41v579h260.199H594.621z M525.66,817.234H403.371V376.176H525.66V817.234z"/>
	<path class="cls-1" d="M464.512,1396.227c71.738,0,130.098-58.371,130.102-130.129c0-71.742-58.363-130.102-130.102-130.102
		c-71.75,0-130.102,58.363-130.102,130.102C334.41,1337.855,392.762,1396.227,464.512,1396.227z M464.512,1204.953
		c33.719,0,61.137,27.422,61.141,61.141c0,33.711-27.422,61.16-61.141,61.16s-61.141-27.449-61.141-61.16
		C403.371,1232.375,430.793,1204.953,464.512,1204.953z"/>
	<rect x="430" y="947.375" class="cls-1" width="68.961" height="127.5"/>
	<path class="cls-1" d="M1130.098,307.195H869.879v579h260.219V307.195z M1061.141,817.234H938.84V376.176h122.301V817.234z"/>
	<path class="cls-1" d="M1000,1396.227c71.738,0,130.109-58.371,130.109-130.129c0-71.742-58.371-130.102-130.109-130.102
		c-71.762,0-130.121,58.363-130.121,130.102C869.879,1337.855,928.25,1396.227,1000,1396.227z M1000,1204.953
		c33.719,0,61.141,27.422,61.141,61.141c0,33.711-27.422,61.16-61.141,61.16c-33.711,0-61.16-27.449-61.16-61.16
		C938.84,1232.375,966.289,1204.953,1000,1204.953z"/>
	<rect x="965.5" y="947.375" class="cls-1" width="68.961" height="127.5"/>
	<path class="cls-1" d="M1665.609,307.195h-260.219v579h260.219V307.195z M1596.641,817.234h-122.289V376.176h122.289V817.234z"/>
	<path class="cls-1" d="M1535.551,1396.227c71.73,0,130.059-58.371,130.059-130.129c0-71.742-58.328-130.102-130.059-130.102
		c-71.781,0-130.172,58.363-130.172,130.102C1405.379,1337.855,1463.77,1396.227,1535.551,1396.227z M1535.551,1204.953
		c33.688,0,61.078,27.422,61.078,61.141c0,33.711-27.387,61.16-61.078,61.16c-33.75,0-61.199-27.449-61.199-61.16
		C1474.352,1232.375,1501.801,1204.953,1535.551,1204.953z"/>
	<rect x="1501.102" y="947.375" class="cls-1" width="68.961" height="127.5"/>
	<path class="cls-1" d="M2000,1489.215H0v234.488h206.891v62.121h68.961v-62.121h1448.25v62.121h68.961v-62.121H2000V1489.215z
		 M1931.031,1654.746H68.961v-96.551h1862.07V1654.746z"/>
</svg>
