<svg id="Layer_1" data-name="Layer 1" xmlns="http://www.w3.org/2000/svg" viewBox="0 0 2000 2000">
    <defs>
        <style>
            .cls-1 {
                fill: #e74a3e;
            }
            
            .cls-2 {
                fill: #181818;
            }
        </style>
    </defs>	
    <title>Office-And-Business</title>
	<rect y="460" class="cls-2" width="386.012" height="1360"/>
	<rect x="546.012" y="460" class="cls-2" width="907.988" height="1360"/>
	<rect x="1613.988" y="460" class="cls-2" width="386.012" height="1360"/>
	<polygon class="cls-1" points="2000,1100 1693.988,1100 1693.988,980 1374,980 1374,1100 626,1100 626,980 306.012,980 
		306.012,1100 0,1100 0,1180 306.012,1180 306.012,1300.012 386.012,1300.012 386.012,1060 546,1060 546,1300.012 626,1300.012 
		626,1180 1374,1180 1374,1300.012 1454,1300.012 1454,1060 1613.988,1060 1613.988,1300.012 1693.988,1300.012 1693.988,1180 
		2000,1180 	"/>
	<polygon class="cls-1" points="720.012,260.012 1279.988,260.012 1279.988,460 1360.012,460 1360.012,180 640.012,180 
		640.012,460 720.012,460 	"/>
</svg>
