<svg id="Layer_1" data-name="Layer 1" xmlns="http://www.w3.org/2000/svg" viewBox="0 0 2000 2000">
    <defs>
        <style>
            .cls-1 {
                fill: #e74a3e;
            }
            
            .cls-2 {
                fill: #181818;
            }
        </style>
    </defs>	
    <title>Office-And-Business</title>
	<path class="cls-2" d="M384.621,192.301v415.391h1230.801V192.301H384.621z M1307.699,492.309H692.301V346.141h76.918v69.25
		h461.563v-69.25h76.918V492.309z"/>
	<path class="cls-2" d="M384.621,1130.789h1230.801V715.398H384.621V1130.789z M692.301,869.238h76.918v69.223h461.563v-69.223
		h76.918v146.141H692.301V869.238z"/>
	<path class="cls-2" d="M384.621,1653.891h1230.801V1238.5H384.621V1653.891z M692.301,1392.301h76.918v69.238h461.563v-69.238
		h76.918v146.18H692.301V1392.301z"/>
<path class="cls-1" d="M1807.699,0H192.301v1846.16h192.32V2000h1230.758v-153.84h192.32V0z M1538.461,1923.078H461.539v-76.918
	h1076.922V1923.078z M1730.781,1769.238H269.219V76.922h1461.563V1769.238z"/>
</svg>
