<svg id="Layer_1" data-name="Layer 1" xmlns="http://www.w3.org/2000/svg" viewBox="0 0 2000 2000">
    <defs>
        <style>
            .cls-1 {
                fill: #e74a3e;
            }
            
            .cls-2 {
                fill: #181818;
            }
        </style>
    </defs>	
    <title>Office-And-Business</title>
	<path class="cls-2" d="M1566.27,357.477c-75.031,0-135.852,60.82-135.852,135.852c0,98.57-80.211,178.77-178.781,178.77V251.68
	c0-64.43-24.543-128.828-73.684-177.969C1128.793,24.578,1064.406,0,999.996,0S871.195,24.578,822.035,73.711
	c-49.16,49.148-73.738,113.539-73.738,177.98V363.25c-0.005,0-0.01,0-0.016,0c-98.52,0-178.719-80.172-178.719-178.711
	c0-75.031-60.797-135.852-135.828-135.852c-75.043,0-135.852,60.82-135.852,135.852c0,248.359,202.07,450.41,450.41,450.41
	c0.001,0,0.002,0,0.004,0v481.852h503.34v-173c248.398,0,450.477-202.102,450.484-450.473
	C1702.121,418.297,1641.301,357.477,1566.27,357.477z M999.984,158.496c-24.879,0-48.301,9.691-65.91,27.289
	c-17.59,17.602-27.289,40.988-27.289,65.891v105.102h0.008v0.004h-75.469V251.68c0-45.039,17.539-87.422,49.391-119.262
	c31.871-31.871,74.211-49.41,119.27-49.41V158.496z"/>
	<path class="cls-1" d="M840.797,1879.25h159.176v-75.469h-159.18c-50.109,0-97.219-19.508-132.648-54.93
		c-35.41-35.422-54.922-82.531-54.922-132.621h-75.469c0,70.27,27.359,136.309,77.031,185.98
		C704.457,1851.879,770.535,1879.25,840.797,1879.25z"/>
	<path class="cls-1" d="M1621.574,1079.066H378.336v232.762h78.648v304.398c0,102.512,39.941,198.883,112.43,271.352
		C641.902,1960.078,738.293,2000,840.793,2000h318.41c102.512,0,198.883-39.922,271.301-112.395
		c72.5-72.418,112.422-168.801,112.422-271.379v-304.398h78.648V1079.066z M1467.469,1616.227c0,82.398-32.051,159.828-90.301,218
		c-58.199,58.23-135.609,90.301-217.961,90.301h-318.41c-82.352,0-159.781-32.07-218.012-90.32
		c-58.242-58.211-90.32-135.652-90.32-217.98v-304.398h935.004V1616.227z M1546.105,1236.359h-3.18v-0.004H456.984v0.004h-3.18
		v-81.828h1092.301V1236.359z"/>
</svg>
