<svg id="Layer_1" data-name="Layer 1" xmlns="http://www.w3.org/2000/svg" viewBox="0 0 2000 2000">
    <defs>
        <style>
            .cls-1 {
                fill: #e74a3e;
            }
            
            .cls-2 {
                fill: #181818;
            }
        </style>
    </defs>	
    <title>Office-And-Business</title>
	<path class="cls-2" d="M192.3,1547.534h769.226V778.319H192.3V1547.534z M604.246,983.4h76.922v108.979
		c0,8.539,3.32,16.59,9.371,22.641c6.102,6.078,14.141,9.43,22.691,9.43h79.065V983.42h76.922v141.03h0.012v76.922h-0.012v141.065
		h-76.922v-141.069h-79.081c-29.148,0-56.512-11.371-77.078-31.961c-20.559-20.531-31.891-47.891-31.891-77.02V983.4z
		 M284.607,1233.469c0-29.237,11.328-56.64,31.93-77.171c20.602-20.559,47.961-31.891,77.039-31.891h46.94
		c8.57,0,16.621-3.309,22.672-9.371c6.051-6.039,9.398-14.129,9.398-22.671c0-8.559-3.352-16.648-9.43-22.73
		c-6.012-6.02-14.059-9.34-22.629-9.34h-46.94c-8.59,0-16.641,3.32-22.691,9.371c-6.051,6.02-9.371,14.059-9.371,22.71h-76.918
		c0-29.198,11.328-56.601,31.93-77.147c20.559-20.531,47.93-31.828,77.039-31.828h46.94c29.102,0,56.461,11.301,77.02,31.859
		c20.629,20.648,31.961,48.031,31.961,77.121c0,29.089-11.328,56.46-31.93,77.058c-20.602,20.602-47.961,31.891-77.059,31.891
		h-46.94c-8.551,0-16.609,3.352-22.691,9.43c-6.051,6.012-9.371,14.059-9.371,22.71v32.031h33.281v0.016h154.722v76.91H356.35
		v-0.008h-33.281c-21.25,0-38.461-17.238-38.461-38.461V1233.469z"/>
	<rect y="355.162" class="cls-2" width="1999.988" height="307.697"/>
	<rect x="1038.494" y="778.319" class="cls-1" width="76.929" height="76.922"/>
	<rect x="1176.892" y="778.319" class="cls-1" width="76.921" height="76.922"/>
	<rect x="1038.494" y="916.721" class="cls-1" width="76.929" height="76.922"/>
	<rect x="1176.892" y="916.721" class="cls-1" width="76.921" height="76.922"/>
	<rect x="1315.391" y="916.721" class="cls-1" width="76.922" height="76.922"/>
	<rect x="1453.792" y="916.721" class="cls-1" width="76.91" height="76.922"/>
	<rect x="1592.291" y="916.721" class="cls-1" width="76.922" height="76.922"/>
	<rect x="1730.689" y="916.721" class="cls-1" width="76.929" height="76.922"/>
	<rect x="1038.494" y="1055.221" class="cls-1" width="76.929" height="76.909"/>
	<rect x="1176.892" y="1055.221" class="cls-1" width="76.921" height="76.909"/>
	<rect x="1315.391" y="1055.221" class="cls-1" width="76.922" height="76.909"/>
	<rect x="1453.792" y="1055.221" class="cls-1" width="76.91" height="76.909"/>
	<rect x="1592.291" y="1055.221" class="cls-1" width="76.922" height="76.909"/>
	<rect x="1730.689" y="1055.221" class="cls-1" width="76.929" height="76.909"/>
	<rect x="1038.494" y="1193.618" class="cls-1" width="76.929" height="76.921"/>
	<rect x="1176.892" y="1193.618" class="cls-1" width="76.921" height="76.921"/>
	<rect x="1315.391" y="1193.618" class="cls-1" width="76.922" height="76.921"/>
	<rect x="1453.792" y="1193.618" class="cls-1" width="76.91" height="76.921"/>
	<rect x="1592.291" y="1193.618" class="cls-1" width="76.922" height="76.921"/>
	<rect x="1730.689" y="1193.618" class="cls-1" width="76.929" height="76.921"/>
	<rect x="1038.494" y="1332.117" class="cls-1" width="76.929" height="76.91"/>
	<rect x="1176.892" y="1332.117" class="cls-1" width="76.921" height="76.91"/>
	<rect x="1315.391" y="1332.117" class="cls-1" width="76.922" height="76.91"/>
	<rect x="1453.792" y="1332.117" class="cls-1" width="76.91" height="76.91"/>
	<rect x="1592.291" y="1332.117" class="cls-1" width="76.922" height="76.91"/>
	<rect x="1730.689" y="1332.117" class="cls-1" width="76.929" height="76.91"/>
	<rect x="1038.494" y="1470.616" class="cls-1" width="76.929" height="76.922"/>
	<rect x="1176.892" y="1470.616" class="cls-1" width="76.921" height="76.922"/>
	<rect x="1315.391" y="1470.616" class="cls-1" width="76.922" height="76.922"/>
	<rect x="1453.792" y="1470.616" class="cls-1" width="76.91" height="76.922"/>
	<rect x="1592.291" y="1470.616" class="cls-1" width="76.922" height="76.922"/>
	<path class="cls-1" d="M1923.059,720.563v750.022H1730.74v192.261H76.921V720.563H0v1019.213h1785.15l214.85-214.87V720.563
		H1923.059z M1868.628,1547.507l-60.947,60.938v-60.938H1868.628z"/>
	<rect x="192.3" y="260.225" class="cls-1" width="76.941" height="261.499"/>
	<rect x="1730.689" y="260.225" class="cls-1" width="76.929" height="261.499"/>
</svg>
