<svg id="Layer_1" data-name="Layer 1" xmlns="http://www.w3.org/2000/svg" viewBox="0 0 2000 2000">
    <defs>
        <style>
            .cls-1 {
                fill: #e74a3e;
            }
            
            .cls-2 {
                fill: #181818;
            }
        </style>
    </defs>	
    <title>Office-And-Business</title>
	<polygon class="cls-2" points="223.301,217.77 41.82,217.77 41.82,2000 1312.129,2000 1312.129,1818.52 223.301,1818.52 	"/>
	<rect x="404.77" y="468.449" class="cls-2" width="943.699" height="707.699"/>
	<path class="cls-1" d="M1958.18,1127.219h-72.578v655.012h-29.043V420.891l-72.57-72.57v-57.719h-72.59v57.659l-72.617,72.63V2000
		h217.77h0.008v-145.191h101.621V1127.219z M1783.961,1782.23h-72.59v-618.742h72.59V1782.23z M1747.66,414.672l36.301,36.289
		v639.938h-72.59V450.961L1747.66,414.672z M1783.961,1927.41h-72.59v-72.602h72.59V1927.41z"/>
	<path class="cls-1" d="M1254.289,0H186.988v1854.809H1566.18V311.93L1254.289,0z M1275.559,123.934l166.676,166.688h-166.676
		V123.934z M259.59,1782.23V72.602h943.379v290.609h290.641v1419.02H259.59z"/>
	<rect x="404.77" y="1281.398" class="cls-1" width="943.699" height="72.59"/>
	<rect x="404.77" y="1422.898" class="cls-1" width="943.699" height="72.609"/>
	<rect x="404.77" y="1564.5" class="cls-1" width="943.699" height="72.59"/>
	<rect x="404.77" y="290.602" class="cls-1" width="471.801" height="72.59"/>
	<path class="cls-1" d="M1348.438,468.449H404.77v707.68h943.668V468.449z M816.161,822.318l-338.79,253.976V568.226
		L816.161,822.318z M562.086,541.039h629.286L876.656,776.967L562.086,541.039z M876.644,867.681l314.477,235.858H562.022
		L876.644,867.681z M937.14,822.33l338.692-253.903v507.923L937.14,822.33z"/>
</svg>
