<svg id="Layer_1" data-name="Layer 1" xmlns="http://www.w3.org/2000/svg" viewBox="0 0 2000 2000">
    <defs>
        <style>
            .cls-1 {
                fill: #e74a3e;
            }
            
            .cls-2 {
                fill: #181818;
            }
        </style>
    </defs>	
    <title>Office-And-Business</title>
	<polygon class="cls-2" points="1000.066,1406.73 165.715,850.539 165.734,1962.961 1834.363,1962.961 1834.363,850.539 	"/>
	<path class="cls-2" d="M1060.504,433h-538v537.961h538V433z M680.375,739.07h-74.07V665h74.07V739.07z M828.477,739.07h-74.07V665
		h74.07V739.07z M976.695,739.07h-74.09V665h74.09V739.07z"/>
	<path class="cls-1" d="M1662.816,691.704V300.109L1362.734,0H337.266v691.599l-208.59,139.12V2000h1742.648V830.719
		L1662.816,691.704z M1066.665,1406.658l730.589-486.562v973.651L1066.665,1406.658z M1234.023,1206.199h-468.03l-120.936-80.629
		h710.033L1234.023,1206.199z M1122.746,1280.309l-122.864,81.825l-122.731-81.825H1122.746z M1384.434,126.463l151.877,151.896
		h-151.877V126.463z M1767.8,850.712l-104.983,69.917V780.711L1767.8,850.712z M1310.363,74.09v278.359h278.391v617.505
		L1466.31,1051.5H533.959l-122.623-81.754V74.09H1310.363z M337.266,920.363l-104.771-69.852l104.771-69.876V920.363z
		 M202.746,919.707L1711.989,1925.93H202.746V919.707z"/>
	<rect x="1134.504" y="896.898" class="cls-1" width="343.102" height="74.07"/>
	<rect x="1134.504" y="742.301" class="cls-1" width="343.102" height="74.07"/>
	<rect x="1134.504" y="587.641" class="cls-1" width="343.102" height="74.07"/>
	<rect x="1134.504" y="433" class="cls-1" width="343.102" height="74.07"/>
	<rect x="522.504" y="278.359" class="cls-1" width="538" height="74.09"/>
</svg>
