<svg id="Layer_1" data-name="Layer 1" xmlns="http://www.w3.org/2000/svg" viewBox="0 0 2000 2000">
    <defs>
        <style>
            .cls-1 {
                fill: #e74a3e;
            }
            
            .cls-2 {
                fill: #181818;
            }
        </style>
    </defs>	
    <title>Office-And-Business</title>
	<polygon class="cls-2" points="1119.738,442.516 1119.738,592.184 880.27,592.184 880.27,442.516 1.02,442.516 1.02,741.844 
		1999,741.844 1999,442.516 	"/>
	<path class="cls-2" d="M1011.199,1134.672h796.898V895.203h-796.898V1134.672z M1147.801,976.504h523.801v76.852h-523.801V976.504
		z"/>
	<polygon class="cls-1" points="1923.148,818.547 1923.148,1743.547 76.84,1743.547 76.84,818.547 0,818.547 0,1820.395 
		2000,1820.395 2000,818.547 	"/>
	<path class="cls-1" d="M305.09,1495.574c0-31.801,12.387-61.66,34.988-84.199c22.449-22.508,52.352-34.898,84.16-34.898H619.09
		c31.66,0,61.641,12.449,84.301,34.949c22.508,22.477,34.898,52.367,34.898,84.148v133.012h76.84l0.008-133.02
		c0-52.301-20.391-101.512-57.512-138.602c-37.25-36.969-86.441-57.328-138.531-57.328H424.242
		c-52.371,0-101.582,20.418-138.48,57.398c-37.113,37-57.512,86.188-57.512,138.539v133.012h76.84V1495.574z"/>
	<path class="cls-1" d="M521.691,1270.406c103.637,0,187.98-84.383,187.98-188.09c0-103.719-84.34-188.09-187.98-188.09
		c-103.719,0-188.07,84.371-188.07,188.09C333.621,1186.027,417.973,1270.406,521.691,1270.406z M521.691,971.074
		c61.289,0,111.137,49.902,111.141,111.238c0,61.34-49.852,111.238-111.141,111.238c-61.332,0-111.23-49.898-111.23-111.238
		C410.461,1020.965,460.363,971.074,521.691,971.074z"/>
	<rect x="483.199" y="1551.703" class="cls-1" width="76.84" height="76.852"/>
	<rect x="483.199" y="1421.805" class="cls-1" width="76.84" height="76.84"/>
	<rect x="1011.199" y="1223.504" class="cls-1" width="796.898" height="76.84"/>
	<rect x="1011.199" y="1388.105" class="cls-1" width="796.898" height="76.84"/>
	<rect x="1011.199" y="1552.703" class="cls-1" width="432.102" height="76.871"/>
	<path class="cls-1" d="M1158.148,630.609h0.012V337.75c0-42.262-16.469-81.953-46.328-111.852
		c-29.879-29.84-69.59-46.289-111.828-46.289s-81.957,16.449-111.828,46.309c-29.867,29.879-46.328,69.578-46.328,111.828v292.859
		h316.301V630.609z M1081.313,553.754H918.691v0.004h-0.008v-216c0-21.711,8.461-42.152,23.82-57.48
		c15.371-15.359,35.789-23.82,57.5-23.82c21.727,0,42.129,8.449,57.488,23.801c15.359,15.34,23.82,35.777,23.82,57.488V553.754z"/>
	<circle class="cls-1" cx="1000" cy="337.746" r="38.422"/>
</svg>
