<svg id="Layer_1" data-name="Layer 1" xmlns="http://www.w3.org/2000/svg" viewBox="0 0 2000 2000">
    <defs>
        <style>
            .cls-1 {
                fill: #e74a3e;
            }
            
            .cls-2 {
                fill: #181818;
            }
        </style>
    </defs>	
    <title>Office-And-Business</title>
	<path class="cls-2" d="M1196.18,824.066c-35.282,0-64.001,28.72-64.001,64.021v63.989h64.001c35.321,0,64.032-28.7,64.032-63.989
		C1260.212,852.786,1231.501,824.066,1196.18,824.066z"/>
	<path class="cls-2" d="M802.219,824.055c-35.282,0-64.021,28.72-64.021,64.021c0,35.289,28.738,63.989,64.021,63.989h64.013
		v-63.989C866.231,852.778,837.513,824.055,802.219,824.055z"/>
	<path class="cls-2" d="M999.203,159.854c-347.237,0-629.724,282.486-629.724,629.724c0,176.253,74.822,345.745,205.325,465.048
		l1.148,1.012c3.988,3.301,7.988,6.852,12.07,10.41l3.949,3.422c89.74,81.83,141.202,198.152,141.202,319.206h532.01
		c0-121.284,51.579-237.583,141.515-319.206c5.301-4.789,10.602-9.57,16.781-14.828
		c130.573-119.338,205.457-288.861,205.457-465.056C1628.926,442.337,1346.433,159.854,999.203,159.854z M999.203,256.724v68.962
		c-123.682-0.008-240.103,48.31-327.826,136.053l-48.783-48.763C723.365,312.225,857.118,256.724,999.203,256.724z
		 M1196.18,1021.039h-64.001v567.621h-68.975v-567.621h-128.01v567.621h-68.963v-567.621h-64.009
		c-73.33,0-132.983-59.63-132.983-132.951c0-73.33,59.649-132.983,132.983-132.983c73.322,0,132.972,59.649,132.972,132.983v63.989
		h128.014v-63.989c0-73.33,59.649-132.983,132.972-132.983c73.329,0,133.003,59.649,133.003,132.983
		C1329.183,961.397,1269.509,1021.039,1196.18,1021.039z"/>
	<path class="cls-1" d="M685.088,1623.094h46.501v56.74h-46.501v68.981h46.501v56.618h-46.501v68.963h628.203v-68.963h-46.329
		v-56.618h46.329v-68.981h-46.329v-56.74h46.329v-68.962H685.088V1623.094z M800.551,1623.094H1198v56.74H800.551V1623.094z
		 M800.551,1748.815H1198v56.618H800.551V1748.815z"/>
	<rect x="859.63" y="1931.038" class="cls-1" width="279.205" height="68.962"/>
	<path class="cls-1" d="M322.854,542.476l-64.782-23.642c-8.152,22.271-15.352,45.212-21.441,68.201l66.673,17.648
		C308.85,583.723,315.432,562.792,322.854,542.476z"/>
	<path class="cls-1" d="M329.144,1053.31l-64.173,25.231c8.68,22.082,18.508,44.051,29.18,65.282l61.622-30.954
		C346.022,1093.482,337.073,1073.438,329.144,1053.31z"/>
	<path class="cls-1" d="M1033.806,69.751l3.172-68.888c-23.673-1.102-47.771-1.152-71.443-0.121l2.969,68.9
		C990.145,68.712,1012.133,68.74,1033.806,69.751z"/>
	<path class="cls-1" d="M289.51,668.423l-68.001-11.512c-3.949,23.333-6.868,47.212-8.719,70.912l68.763,5.352
		C283.232,711.525,285.912,689.725,289.51,668.423z"/>
	<path class="cls-1" d="M279.431,798.453l-68.962,0.82c0.297,23.832,1.66,47.833,4.059,71.372l68.603-7.02
		C280.931,842.134,279.693,820.215,279.431,798.453z"/>
	<path class="cls-1" d="M292.67,928.187l-67.693,13.172c4.543,23.32,10.223,46.72,16.872,69.521l66.2-19.301
		C301.998,970.789,296.818,949.456,292.67,928.187z"/>
	<path class="cls-1" d="M1718.639,735.425l68.791-5.109c-1.77-23.782-4.621-47.653-8.52-70.982l-68.021,11.34
		C1714.428,691.924,1717.029,713.705,1718.639,735.425z"/>
	<path class="cls-1" d="M903.502,75.365l-9.148-68.353c-23.532,3.152-47.2,7.422-70.342,12.692l15.302,67.24
		C860.423,82.123,882.033,78.232,903.502,75.365z"/>
	<path class="cls-1" d="M1697.299,606.852l66.7-17.43c-5.988-22.942-13.109-45.931-21.199-68.283l-64.872,23.442
		C1685.311,564.979,1691.811,585.941,1697.299,606.852z"/>
	<path class="cls-1" d="M776.469,104.311l-21.38-65.591c-22.59,7.371-45.103,15.859-66.942,25.25l27.262,63.353
		C735.339,118.741,755.858,111.002,776.469,104.311z"/>
	<path class="cls-1" d="M378.484,424.66l-59.432-34.98c-12.059,20.461-23.301,41.731-33.43,63.2l62.36,29.431
		C357.233,462.728,367.491,443.337,378.484,424.66z"/>
	<path class="cls-1" d="M1652.997,484.311l62.462-29.243c-10.039-21.449-21.219-42.759-33.23-63.31l-59.561,34.789
		C1633.625,445.29,1643.825,464.739,1652.997,484.311z"/>
	<path class="cls-1" d="M1178.461,20.262c-23.091-5.344-46.751-9.684-70.322-12.922l-9.379,68.341
		c21.52,2.941,43.11,6.91,64.149,11.77L1178.461,20.262z"/>
	<path class="cls-1" d="M1574.055,1225.234l54.91,41.739c14.364-18.891,28.021-38.668,40.669-58.81l-58.47-36.61
		C1599.664,1189.934,1587.164,1207.984,1574.055,1225.234z"/>
	<path class="cls-1" d="M329.144,1206.215c12.527,20.142,26.141,39.97,40.469,58.931l55.044-41.591
		c-13.07-17.32-25.512-35.41-36.961-53.782L329.144,1206.215z"/>
	<path class="cls-1" d="M1643.278,1114.76l61.521,31.161c10.688-21.11,20.57-43.048,29.38-65.142l-64.079-25.501
		C1662.048,1075.471,1653.04,1095.49,1643.278,1114.76z"/>
	<path class="cls-1" d="M1720.557,800.68c-0.34,21.727-1.648,43.649-3.898,65.149l68.592,7.199
		c2.469-23.531,3.91-47.532,4.277-71.298L1720.557,800.68z"/>
	<path class="cls-1" d="M1691.357,993.629l66.142,19.52c6.72-22.801,12.45-46.169,17.06-69.478l-67.65-13.352
		C1702.709,951.538,1697.486,972.847,1691.357,993.629z"/>
	<path class="cls-1" d="M1496.885,175.894l-43.431,53.603c16.821,13.637,33.239,28.208,48.81,43.329l48.071-49.462
		C1533.296,206.816,1515.326,190.836,1496.885,175.894z"/>
	<path class="cls-1" d="M1643.368,331.717c-13.759-19.301-28.599-38.231-44.06-56.251l-52.321,44.923
		c14.129,16.469,27.661,33.75,40.239,51.38L1643.368,331.717z"/>
	<path class="cls-1" d="M358.042,329.788l56.032,40.2c12.629-17.622,26.231-34.84,40.38-51.263l-52.173-45.079
		C386.742,291.615,371.852,310.498,358.042,329.788z"/>
	<path class="cls-1" d="M451.403,221.723l47.923,49.603c15.578-15.09,32.048-29.622,48.919-43.212l-43.282-53.692
		C486.506,189.281,468.474,205.211,451.403,221.723z"/>
	<path class="cls-1" d="M562.616,132.124l38.231,57.38c18.059-12.032,36.86-23.36,55.903-33.688l-32.923-60.622
		C602.988,106.502,582.387,118.924,562.616,132.124z"/>
	<path class="cls-1" d="M1225.715,105.01c20.595,6.789,41.103,14.602,60.924,23.211l27.449-63.271
		c-21.723-9.43-44.192-18-66.763-25.43L1225.715,105.01z"/>
	<path class="cls-1" d="M1345.233,156.882c18.989,10.372,37.751,21.77,55.739,33.841l38.454-57.275
		c-19.7-13.219-40.282-25.708-61.11-37.079L1345.233,156.882z"/>
</svg>
