<svg id="Layer_1" data-name="Layer 1" xmlns="http://www.w3.org/2000/svg" viewBox="0 0 2000 2000">
    <defs>
        <style>
            .cls-1 {
                fill: #e74a3e;
            }
            
            .cls-2 {
                fill: #181818;
            }
        </style>
    </defs>	
    <title>Office-And-Business</title>
	<path class="cls-2" d="M1672.504,1735.48c-37.02-37.109-85.668-55.66-134.309-55.66H968.324c-48.66,0-97.332,18.551-134.371,55.66
		c-37.059,37.07-55.629,85.719-55.629,134.32v94.988h949.859v-94.988C1728.184,1821.191,1709.613,1772.551,1672.504,1735.48z"/>
	<polygon class="cls-2" points="1437.934,144.699 1068.574,144.699 849.555,829.711 1656.895,829.711 	"/>
	<path class="cls-1" d="M1697.422,1710.613c-42.449-42.563-99.008-66.012-159.219-66.012h-26.211v-57.203h-70.398v57.203h-353.708
	l-555.069-555.069c15.797-24.854,24.96-54.318,24.96-85.884c0-31.56-9.161-61.018-24.953-85.868l369.899-370.004l-101.4,317.146
	h124.172v245.391h70.398V864.922h88.91c16.303,78.03,85.644,136.84,168.492,136.84c82.767,0,152.062-58.81,168.354-136.84h283.474
	l-241.488-755.43h-72.57V0h-275.68v109.492h-72.531l-93.327,291.895l-466.49,466.623c-24.853-15.785-54.31-24.939-85.863-24.939
	c-88.539,0-160.578,72.027-160.578,160.578s72.039,160.59,160.578,160.59c31.55,0,61.003-9.154,85.854-24.937l505.3,505.3h-19.993
	c-60.23,0-116.793,23.449-159.281,65.98c-42.52,42.527-65.93,99.078-65.93,159.219V2000h1020.27h0.008v-130.195
	C1763.402,1809.633,1739.961,1753.082,1697.422,1710.613z M1185.805,70.422h134.84v39.066h-134.84V70.422z M1253.297,931.34
	c-43.705,0-81.054-27.682-95.416-66.418h190.701C1334.241,903.658,1296.947,931.34,1253.297,931.34z M1094.277,179.91h21.109h275.68
	h21.16l196.461,614.59H897.766L1094.277,179.91z M307.016,1003.66c0-49.699,40.449-90.16,90.16-90.16s90.16,40.461,90.16,90.16
	c0,49.719-40.441,90.148-90.16,90.148C347.465,1093.809,307.016,1053.379,307.016,1003.66z M1692.957,1929.578H813.535v-59.781
	c0-41.32,16.078-80.191,45.328-109.441c29.191-29.227,68.063-45.328,109.461-45.328h569.871c41.379,0,80.211,16.102,109.41,45.371
	c29.25,29.199,45.352,68.07,45.352,109.398V1929.578z"/>
</svg>
