<svg id="Layer_1" data-name="Layer 1" xmlns="http://www.w3.org/2000/svg" viewBox="0 0 2000 2000">
    <defs>
        <style>
            .cls-1 {
                fill: #e74a3e;
            }
            
            .cls-2 {
                fill: #181818;
            }
        </style>
    </defs>	
    <title>Office-And-Business</title>
	<path class="cls-2" d="M518.781,403.496v639.84h962.5v-639.84H518.781z M896.563,939.855h-68.961v-68.961h68.961V939.855z
	 M1034.461,939.855H965.5v-68.961h68.961V939.855z M1172.359,939.855h-68.961v-68.961h68.961V939.855z"/>
	<polygon class="cls-1" points="2000,1124.695 1786.211,1124.695 1786.211,1193.656 1931.039,1193.656 1931.039,1265.125 
		1820.691,1265.125 1820.691,1265.094 1611.25,1265.094 1611.25,1265.125 388.719,1265.125 388.719,1265.094 179.309,1265.094 
		179.309,1265.125 68.969,1265.125 68.969,1193.656 213.801,1193.656 213.801,1124.695 0,1124.695 0,1334.086 179.309,1334.086 
		179.309,1722.965 248.289,1722.965 248.289,1334.086 319.762,1334.086 319.762,1722.965 388.719,1722.965 388.719,1334.086 
		1611.25,1334.086 1611.25,1722.965 1680.211,1722.965 1680.211,1334.086 1751.738,1334.086 1751.738,1722.965 1820.691,1722.965 
		1820.691,1334.086 2000,1334.086 	"/>
	<path class="cls-1" d="M361.301,1193.656h1277.398c22.57,0,43.973-8.832,60.145-24.793c16.309-16.008,25.289-37.508,25.289-60.629
		v-99.398h-116.523v-659.16c0-18.781-7.559-37.371-21.609-51.82c-13.961-13.422-32.063-20.82-51.012-20.82H465.027
		c-19.211,0-37.969,7.789-51.43,21.328c-13.48,13.539-21.219,32.25-21.219,51.301v659.172H275.852v99.398
		c0,22.559,9.172,44.582,25.16,60.48C317.23,1184.785,338.652,1193.656,361.301,1193.656z M461.328,1008.832V349.66
		c0-0.449,0.109-1.609,1.148-2.66c0.93-0.93,2.168-0.988,2.539-0.988h1069.961c0.523,0,1.59,0,2.352,0.691
		c0.961,0.992,1.301,2.23,1.301,2.961v659.172H461.34v-0.004H461.328z M344.82,1077.785h47.559h1215.223h0.008h47.578v30.449
		c0,2.531-0.609,7.441-4.699,11.461c-3.27,3.219-7.449,4.988-11.789,4.988H361.301c-4.27,0-8.551-1.801-11.711-4.93
		c-3.031-2.988-4.77-7.211-4.77-11.52V1077.785z"/>
</svg>
