<svg id="Layer_1" data-name="Layer 1" xmlns="http://www.w3.org/2000/svg" viewBox="0 0 2000 2000">
    <defs>
        <style>
            .cls-1 {
                fill: #e74a3e;
            }
            
            .cls-2 {
                fill: #181818;
            }
        </style>
    </defs>	
    <title>Office-And-Business</title>
	<path class="cls-2" d="M1343.527,842.898c-30.387-30.387-70.277-45.648-110.059-45.648H999.938v0.004H766.352
	c-39.82,0-79.559,15.258-109.98,45.648c-30.551,30.32-45.711,70.18-45.711,110.059v233.551h389.277h0.004h389.418V952.957
	C1389.359,913.09,1374.027,873.219,1343.527,842.898z"/>
	<path class="cls-1" d="M1424.43,1151.422V952.961c0-51.02-19.949-98.938-56.09-134.859
	c-36.051-36.063-83.957-55.941-134.879-55.941h-198.453v-64.531c0-17.168,6.75-33.418,19.07-45.809
	c11.832-11.949,28.441-18.789,45.621-18.789h189.82c36.48,0,70.41-14.16,95.211-39.5c25.23-25.121,39.711-59.832,39.711-95.23
	c0-35.879-14.07-69.699-39.449-95.051c-25.242-25.66-59.121-39.789-95.461-39.789H710.34c-17.23,0-33.531-6.75-45.852-18.949
	c-12.09-12.051-18.762-28.23-18.762-45.621c0-17.219,6.723-33.418,18.801-45.59c12.219-12.188,28.488-18.898,45.809-18.898h189.859
	c35.621,0,70.359-14.383,95.301-39.422c25.492-25.539,39.531-59.41,39.531-95.359V0h-70.191v99.633
	c0,17.238-6.75,33.5-19.039,45.828c-11.883,11.91-28.523,18.77-45.602,18.77H710.336c-36.039,0-69.918,13.992-95.449,39.48
	c-25.367,25.473-39.328,59.273-39.328,95.172c0,36.211,14.012,70.082,39.48,95.41c25.602,25.367,59.441,39.328,95.301,39.328
	h579.191c17.359,0,33.488,6.688,45.629,19.039c12.313,12.293,19.102,28.5,19.102,45.621c0,16.859-6.941,33.438-19.371,45.828
	c-11.832,12.082-27.922,18.73-45.371,18.73h-189.82c-35.77,0-70.598,14.441-95.449,39.531c-25.41,25.582-39.422,59.402-39.422,95.23
	v64.563H766.34c-50.852,0-98.711,19.859-134.691,55.828c-36.168,35.867-56.078,83.82-56.078,134.969v268.641h0.004v354.047
	c0,113.313,44.117,219.922,124.289,300.191c80.25,80.078,186.809,124.16,300.078,124.16c113.418,0,219.969-44.102,300.016-124.168
	c80.277-80.27,124.488-186.891,124.488-300.18v-424.23H1424.43z M1233.469,832.34c32.18,0,62.449,12.57,85.32,35.461
	c22.871,22.73,35.48,52.961,35.48,85.16v198.461h-319.25V832.34H1233.469z M681.168,867.73C704,844.918,734.25,832.34,766.34,832.34
	h198.492v319.082H645.738V952.969C645.738,920.672,658.297,890.43,681.168,867.73z M1354.281,1575.652
	c0,94.547-36.922,183.539-103.941,250.559c-66.797,66.801-155.727,103.609-250.398,103.609c-94.559,0-183.52-36.801-250.48-103.609
	c-66.871-67-103.711-155.969-103.711-250.559v-354.051h319.082h70.188h319.262V1575.652z"/>
</svg>
