<svg id="Layer_1" data-name="Layer 1" xmlns="http://www.w3.org/2000/svg" viewBox="0 0 2000 2000">
    <defs>
        <style>
            .cls-1 {
                fill: #e74a3e;
            }
            
            .cls-2 {
                fill: #181818;
            }
        </style>
    </defs>	
    <title>Office-And-Business</title>
	<path class="cls-2" d="M1373.914,1103.453c-28.52-28.531-65.891-42.781-103.281-42.781h-541.27
		c-37.379,0-74.77,14.242-103.289,42.781c-28.5,28.5-42.77,65.898-42.77,103.289v86.148h833.371v-86.148
		C1416.676,1169.352,1402.434,1131.965,1373.914,1103.453z"/>
	<path class="cls-2" d="M635.121,929.621h729.723c12.629,0,25.148-5.262,34.102-15.488c8.961-10.219,12.48-23.359,10.789-35.859
		l-96.188-713.012c-4.711-34.949-21.609-68.441-50.25-93.48c-28.629-25.031-64.078-37.289-99.359-37.289H836.039
		c-35.27,0-70.699,12.262-99.359,37.289c-28.641,25.039-45.539,58.539-50.25,93.48L590.23,878.273
		c-1.699,12.5,1.828,25.629,10.781,35.859C609.953,924.352,622.48,929.621,635.121,929.621z"/>
	<path class="cls-1" d="M999.996,1796.672c-56.07,0-101.68,45.609-101.68,101.648c0,56.07,45.609,101.68,101.68,101.68
		c56.059,0,101.68-45.609,101.68-101.68C1101.676,1842.281,1056.055,1796.672,999.996,1796.672z M999.996,1931.031
		c-18.031,0-32.711-14.68-32.711-32.711s14.68-32.691,32.711-32.691c18.027,0,32.711,14.672,32.711,32.691
		S1018.027,1931.031,999.996,1931.031z"/>
	<path class="cls-1" d="M583.305,1796.672c-56.07,0-101.68,45.609-101.68,101.648c0,56.07,45.609,101.68,101.68,101.68
		c56.059,0,101.68-45.609,101.68-101.68C684.984,1842.281,639.363,1796.672,583.305,1796.672z M583.305,1931.031
		c-18.031,0-32.711-14.68-32.711-32.711s14.68-32.691,32.711-32.691s32.711,14.672,32.711,32.691S601.336,1931.031,583.305,1931.031
		z"/>
	<path class="cls-1" d="M1416.684,1796.672c-56.039,0-101.648,45.609-101.648,101.648c0,56.07,45.609,101.68,101.648,101.68
		c56.07,0,101.68-45.609,101.68-101.68C1518.363,1842.281,1472.754,1796.672,1416.684,1796.672z M1416.684,1931.031
		c-18.031,0-32.691-14.68-32.691-32.711s14.66-32.691,32.691-32.691c18.051,0,32.711,14.672,32.711,32.691
		S1434.734,1931.031,1416.684,1931.031z"/>
	<rect x="965.496" y="723.398" class="cls-1" width="68.961" height="68.961"/>
	<rect x="965.496" y="585.5" class="cls-1" width="68.961" height="68.961"/>
	<rect x="965.496" y="447.559" class="cls-1" width="68.961" height="68.98"/>
	<rect x="965.496" y="309.629" class="cls-1" width="68.961" height="68.961"/>
	<rect x="965.496" y="171.699" class="cls-1" width="68.961" height="68.961"/>
	<path class="cls-1" d="M1733.703,814.832c0-69.512-56.539-126.051-126.039-126.051c-69.508,0-126.059,56.539-126.059,126.051
		v70.879h91.57v179.262c0,29.77-11.613,57.809-32.691,78.879c-21.09,21.102-49.102,32.691-78.891,32.691h-12.931
		c-6.146-36.762-23.49-70.623-50.366-97.48c-34.121-34.109-79.449-52.879-127.66-52.879h-168.961v-62.082h263.188
		c22.992,0,44.891-9.93,60.074-27.266c15.141-17.328,22.09-40.359,19-63.199l-96.191-713c-6.031-44.5-27.961-85.27-61.762-114.809
		C1252.215,16.281,1208.855,0,1163.945,0H836.047c-44.871,0-88.23,16.281-122.066,45.836
		c-33.77,29.539-55.699,70.309-61.711,114.828l-96.191,712.969c-3.102,22.797,3.816,45.84,18.988,63.219
		c15.148,17.32,37.051,27.25,60.07,27.25h263.18v62.082H729.367c-48.223,0-93.563,18.77-127.691,52.879
		c-26.857,26.888-44.197,60.732-50.345,97.477h-12.917c-29.809,0-57.832-11.602-78.91-32.66
		c-21.09-21.109-32.691-49.141-32.691-78.91V885.711h91.57v-70.879c0-69.512-56.551-126.051-126.039-126.051
		c-69.52,0-126.059,56.539-126.059,126.051v70.879h91.566v179.258c0,48.211,18.781,93.563,52.891,127.672
		c34.113,34.082,79.453,52.891,127.672,52.891h10.41v81.84h349.492v116.59h67.18v124.527H729.363
		c-48.223,0-93.563,18.781-127.691,52.891c-34.082,34.102-52.852,79.441-52.852,127.641h68.961c0-29.809,11.621-57.82,32.672-78.879
		c21.082-21.109,49.09-32.691,78.91-32.691h236.133v111.602h68.961v-111.602h236.176c29.809,0,57.84,11.59,78.898,32.66
		c21.07,21.102,32.672,49.109,32.672,78.91h68.961c0-48.199-18.77-93.559-52.871-127.68c-34.102-34.07-79.449-52.852-127.66-52.852
		h-236.176v-124.527h67.219v-116.59h349.488h0.004v-81.84h10.426c48.203,0,93.551-18.813,127.66-52.887
		c34.102-34.121,52.891-79.473,52.891-127.672V885.711h91.559V814.832z M325.289,814.82c0-36.98,30.078-67.059,67.059-67.059
		c36.961,0,67.039,30.078,67.039,67.059v11.879H325.289V814.82z M635.133,895.129c-1.859,0-5.348-0.5-8.148-3.691
		c-2.809-3.219-2.809-6.727-2.57-8.578l96.199-712.988c3.781-27.961,17.531-53.582,38.762-72.121
		c21.25-18.563,48.48-28.781,76.672-28.781c0,0,327.887,0,327.891,0c28.207,0,55.43,10.223,76.648,28.781
		c21.238,18.543,35.008,44.16,38.789,72.121l96.207,712.988c0.23,1.832,0.23,5.34-2.559,8.551c-2.828,3.219-6.332,3.719-8.16,3.719
		H635.133z M967.297,964.102h65.406v62.082h-65.406V964.102z M1032.703,1374.988h-65.406v-47.617h65.406V1374.988z
		 M1382.195,1258.41h-764.41h-0.004v-51.672c0-29.809,11.621-57.852,32.672-78.91c21.082-21.082,49.121-32.691,78.91-32.691h541.262
		c29.801,0,57.82,11.621,78.91,32.691c21.059,21.07,32.66,49.082,32.66,78.91V1258.41z M1674.715,826.699h-134.102l0.004-11.879
		c0-36.98,30.078-67.059,67.059-67.059c36.969,0,67.039,30.078,67.039,67.059V826.699z"/>
</svg>
