<svg id="Layer_1" data-name="Layer 1" xmlns="http://www.w3.org/2000/svg" viewBox="0 0 2000 2000">
    <defs>
        <style>
            .cls-1 {
                fill: #e74a3e;
            }
            
            .cls-2 {
                fill: #181818;
            }
        </style>
    </defs>	
    <title>Office-And-Business</title>
	<path class="cls-2" d="M1925.332,1691.559V920.449c0-42.418-34.711-77.109-77.109-77.109H151.773
	c-42.391,0-77.102,34.688-77.102,77.109v771.109c0,42.398,34.703,77.109,77.102,77.109h1696.453
	c42.398,0,77.109-34.711,77.109-77.109H1925.332z M444.805,1128.66H336.863v-107.961h107.941V1128.66z M660.746,1128.66H552.805
	v-107.961h107.941V1128.66z"/>
	<path class="cls-1" d="M1848.223,804.789h-308.426V245.602L1294.203,0H460.227v804.789H151.773
		c-63.789,0-115.66,51.871-115.66,115.66v771.109c0,63.781,51.871,115.66,115.66,115.66h239.051v-77.109H151.773
		c-21.25,0-38.551-17.289-38.551-38.551v-346.949h1773.555v346.961c0,21.262-17.281,38.551-38.551,38.551h-239.039v77.109h239.039
		c63.777,0,115.668-51.891,115.656-115.672V920.449C1963.883,856.668,1912.004,804.789,1848.223,804.789z M1316.785,131.632
		l91.323,91.329h-91.323V131.632z M537.336,77.109h702.348v222.969h222.992v504.711h-925.34V77.109z M113.223,1267.5V920.449
		c0-21.262,17.301-38.551,38.551-38.551h1696.453c21.262,0,38.551,17.281,38.551,38.551V1267.5H113.223z"/>
	<rect x="638.004" y="368.43" class="cls-1" width="724" height="77.109"/>
	<rect x="638.004" y="513.801" class="cls-1" width="724" height="77.109"/>
	<rect x="638.004" y="659.32" class="cls-1" width="724" height="77.129"/>
	<rect x="638.004" y="222.961" class="cls-1" width="362" height="77.121"/>
	<polygon class="cls-1" points="1771.086,1575.91 1771.086,1498.801 228.887,1498.801 228.887,1575.91 460.203,1575.91 
		460.203,2000 537.313,2000 537.313,1575.91 603.406,1575.91 603.406,2000 680.527,2000 680.527,1575.91 746.703,1575.91 
		746.703,2000 823.813,2000 823.813,1575.91 889.844,1575.91 889.844,2000 966.953,2000 966.953,1575.91 1033.105,1575.91 
		1033.105,2000 1110.215,2000 1110.215,1575.91 1176.203,1575.91 1176.203,2000 1253.324,2000 1253.324,1575.91 1319.406,1575.91 
		1319.406,2000 1396.508,2000 1396.508,1575.91 1462.703,1575.91 1462.703,2000 1539.832,2000 1539.832,1575.91 	"/>
</svg>
