<svg id="Layer_1" data-name="Layer 1" xmlns="http://www.w3.org/2000/svg" viewBox="0 0 2000 2000">
    <defs>
        <style>
            .cls-1 {
                fill: #e74a3e;
            }
            
            .cls-2 {
                fill: #181818;
            }
        </style>
    </defs>	
    <title>Office-And-Business</title>
	<path class="cls-2" d="M338.318,306.418v779.612h1323.398V306.418H338.318z M1367.349,844.557l-212.034-212.065L950.049,837.726
	l-52.664-52.645L792.08,890.393L669.5,767.813L486.025,951.279l-50.848-50.859L669.5,666.129L792.08,788.67l105.305-105.292
	l52.664,52.645l205.266-205.234l212.034,212.077l146.606-146.59l50.859,50.867L1367.349,844.557z"/>
	<rect x="424.64" y="385.521" class="cls-1" width="339.864" height="71.916"/>
	<rect x="424.64" y="525.749" class="cls-1" width="169.929" height="71.916"/>
	<path class="cls-1" d="M1890.387,0H109.613v227.283h77.666v1009.783h582.584v155.327h156.824l-436.535,563.234l56.858,44.067
		l416.986-538.012v516.064h71.916v-516.225l417.052,538.408l56.857-44.041l-436.485-563.497h156.78v-155.327h582.576h0.012V227.283
		h77.682V0z M1158.213,1320.489H841.787v-83.423h316.426V1320.489z M1740.777,1165.142h-510.66H769.863H259.211V227.283h1481.566
		V1165.142z M1818.463,155.367h-5.758H187.279h-5.761V71.936h1636.945V155.367z"/>
</svg>
