<svg id="Layer_1" data-name="Layer 1" xmlns="http://www.w3.org/2000/svg" viewBox="0 0 2000 2000">
    <defs>
        <style>
            .cls-1 {
                fill: #e74a3e;
            }
            
            .cls-2 {
                fill: #181818;
            }
        </style>
    </defs>	
    <title>Office-And-Business</title>
	<path class="cls-2" d="M496.233,1192.489h1007.545c0-180.026-94.326-337.761-236.232-426.849V234.123h71.396
	c25.511,0,51.038-9.691,70.487-29.148c19.378-19.46,29.077-44.87,29.077-70.389c0-25.421-9.699-50.959-29.077-70.307
	c-19.449-19.449-44.98-29.191-70.487-29.191H661.03c-25.409,0-50.94,9.738-70.299,29.191c-19.449,19.359-29.19,44.889-29.19,70.307
	c0,25.519,9.737,50.928,29.19,70.389c19.358,19.449,44.89,29.148,70.299,29.148h71.588v531.498
	C590.7,854.729,496.233,1012.463,496.233,1192.489z"/>
	<path class="cls-1" d="M1538.855,1192.493c0-185.046-93.746-348.601-236.232-445.672V269.212h36.319
	c36.026,0,69.866-14,95.35-39.468c25.339-25.44,39.3-59.237,39.3-95.158c0-35.999-13.992-69.78-39.37-95.119
	C1408.785,14.031,1374.945,0,1338.935,0H661.03C625,0,591.212,14.058,565.993,39.397c-25.491,25.37-39.53,59.17-39.53,95.189
	c0,35.94,14.008,69.748,39.397,95.138c25.32,25.457,59.132,39.487,95.17,39.487h36.507v477.524
	c-142.574,97.062-236.393,260.661-236.393,445.757v35.077h335.882v149.234h167.973V2000h70.197v-623.195h167.75V1227.57h335.909
	V1192.493z M661.038,199.046c-17.238,0-33.366-6.68-45.487-18.871c-12.199-12.199-18.91-28.378-18.91-45.577
	c0-17.218,6.688-33.339,18.969-45.569c12.094-12.141,28.21-18.852,45.421-18.852c0,0,677.912,0,677.908,0.004
	c17.249,0,33.491,6.73,45.71,18.949c12.09,12.07,18.77,28.237,18.77,45.467s-6.699,33.44-18.789,45.569
	c-12.18,12.168-28.402,18.879-45.69,18.879h-36.315v-0.012H697.537v0.012H661.038z M767.707,269.212h464.746v437.155
	c-70.408-33.807-149.243-52.759-232.424-52.759c-83.138,0-161.938,18.932-232.322,52.703V269.212z M1132.764,1306.627h-265.57
	v-79.057h265.57V1306.627z M532.623,1157.4c17.988-242.143,220.752-433.63,467.418-433.63c246.623,0,449.348,191.487,467.348,433.63
	H532.623z"/>
</svg>
