<svg id="Layer_1" data-name="Layer 1" xmlns="http://www.w3.org/2000/svg" viewBox="0 0 2000 2000">
    <defs>
        <style>
            .cls-1 {
                fill: #e74a3e;
            }
            
            .cls-2 {
                fill: #181818;
            }
        </style>
    </defs>	
    <title>Office-And-Business</title>
	<rect x="215.625" y="40" class="cls-2" width="256" height="1920"/>
	<polygon class="cls-2" points="903.625,371.25 903.605,1623.699 1239.965,1623.699 1239.984,371.25 1071.805,539.422 	"/>
	<polygon class="cls-2" points="1546.926,99.102 1447.996,198.051 1447.996,1762.129 1645.844,1762.129 1645.844,198.051 	"/>
	<path class="cls-1" d="M175.625,2000h560V0h-560V2000z M255.625,80h400v80H535.594v80h120.031v80H535.594v80h120.031v80H535.594
		v80h120.031v80H535.594v80h120.031v80H535.594v80h120.031v80H535.594v80h120.031v80H535.594v79.988h120.031V1280H535.594v80
		h120.031v80H535.594v80h120.031v80H535.594v79.988h120.031V1760H535.594v80h120.031v80h-400V80z"/>
	<path class="cls-1" d="M1274.62,351.26l0.017-0.01L1071.766,0.02L868.984,351.25l0.008,0.005
		c-3.442,5.958-5.368,12.819-5.368,19.995l-0.011,1212.43h0v39.71c-0.001,0.104-0.008,0.206-0.008,0.31v138.43
		c0,0.104,0.007,0.205,0.008,0.309v29.402c0,55.566,21.648,107.859,60.988,147.238c39.352,39.293,91.582,60.922,147.102,60.922
		h0.082c55.59,0,107.859-21.629,147.191-60.949c39.34-39.383,61.008-91.68,60.949-147.211l0.017-88.66l0.022-79.48
		c0-0.101-0.007-0.201-0.008-0.302l0.008-39.718h-0.007l0.019-1212.43C1279.977,364.076,1278.057,357.216,1274.62,351.26z
		 M1109.71,225.621l80.292,139.04l-118.205,118.198L953.616,364.678l80.289-139.057H1109.71z M1199.965,1583.68h-88.172V556.005
		l88.191-88.185L1199.965,1583.68z M943.637,467.82l88.156,88.167V1583.68h-88.188L943.637,467.82z M943.605,1663.691h256.348
		l-0.014,58.438H943.605V1663.691z M1071.754,1919.992l-0.059,40v-40c-34.168,0-66.34-13.332-90.539-37.48
		c-21.757-21.803-34.739-50.037-37.139-80.383h255.503c-2.373,30.322-15.358,58.546-37.138,80.344
		C1138.184,1906.664,1106.023,1919.992,1071.754,1919.992z"/>
	<path class="cls-1" d="M1824.375,980.09h-80v742.039h-58.52V181.48l-98.961-98.98V0h-80v82.572l-98.902,98.908V2000h277.852h0.012
		v-197.871h138.52V980.09z M1605.848,1722.129H1488v-702.027h117.848V1722.129z M1546.93,155.68l58.918,58.922v725.5H1488v-725.5
		L1546.93,155.68z M1605.848,1920H1488v-117.871h117.848V1920z"/>
</svg>
