<svg id="Layer_1" data-name="Layer 1" xmlns="http://www.w3.org/2000/svg" viewBox="0 0 2000 2000">
    <defs>
        <style>
            .cls-1 {
                fill: #e74a3e;
            }
            
            .cls-2 {
                fill: #181818;
            }
        </style>
    </defs>	
    <title>Office-And-Business</title>
	<path class="cls-2" d="M579.982,926.489V2000h882.406V926.489H579.982z M1344.72,1521.995h-264.713v-323.503h264.713V1521.995z"/>
	<path class="cls-1" d="M1594.699,1161.781h-132.353v73.531h132.353c9.809,0,19.031,3.801,26,10.762
		c6.934,6.949,10.762,16.199,10.762,26.001v382.331c0,9.813-3.832,19.063-10.801,26.032c-6.941,6.93-16.16,10.73-25.961,10.73
		h-132.353v73.56h132.353c29.492,0,57.18-11.5,77.989-32.349c20.801-20.848,32.301-48.527,32.301-77.989v-382.332
		c0-29.461-11.5-57.141-32.301-77.949C1651.879,1173.242,1624.188,1161.781,1594.699,1161.781z"/>
	<rect x="1175.605" y="926.489" class="cls-1" width="73.531" height="272.104"/>
	<path class="cls-1" d="M216.006,139.7h634.193c37.321,0,72.442-14.539,98.764-40.91c26.41-26.368,40.941-61.47,40.941-98.79
		h-73.532c0,17.68-6.887,34.301-19.398,46.801c-12.48,12.5-29.098,19.379-46.771,19.379H216.006
		c-37.32,0-72.391,14.532-98.782,40.922c-26.402,26.367-40.941,61.469-40.941,98.79s14.531,72.403,40.941,98.763
		c26.391,26.391,61.462,40.922,98.782,40.922h422.785c17.668,0,34.29,6.879,46.79,19.398c12.5,12.488,19.391,29.098,19.391,46.79
		c0,17.68-6.887,34.289-19.398,46.809c-12.48,12.489-29.098,19.36-46.771,19.36h-174.63c-37.313,0-72.392,14.539-98.782,40.93
		c-26.392,26.367-40.923,61.47-40.923,98.79s14.531,72.403,40.923,98.763c26.391,26.41,61.473,40.942,98.782,40.942h329.042
		c17.688,0,34.301,6.867,46.789,19.398c12.508,12.469,19.38,29.078,19.38,46.77V926.47h73.531V823.543
		c0-37.32-14.539-72.423-40.91-98.763c-26.36-26.391-61.462-40.961-98.802-40.961H464.169c-17.669,0-34.29-6.879-46.79-19.38
		c-12.52-12.488-19.391-29.098-19.391-46.77c0-17.688,6.871-34.309,19.391-46.809c12.5-12.493,29.117-19.372,46.79-19.372h174.63
		c37.321,0,72.442-14.551,98.763-40.93c26.411-26.371,40.942-61.454,40.942-98.782c0-37.321-14.531-72.423-40.923-98.763
		c-26.34-26.41-61.461-40.961-98.782-40.961H216.006c-17.668,0-34.289-6.891-46.79-19.391c-12.52-12.481-19.391-29.098-19.391-46.77
		c0-17.68,6.871-34.301,19.391-46.801C181.717,146.599,198.334,139.7,216.006,139.7z"/>
	<path class="cls-1" d="M1296.415,724.792c-26.359-26.391-61.47-40.961-98.79-40.961h-93.739c-17.68,0-34.289-6.879-46.809-19.38
		c-12.513-12.488-19.392-29.098-19.392-46.77c0-17.688,6.871-34.309,19.392-46.809c12.52-12.493,29.129-19.372,46.809-19.372
		h586.396c37.32,0,72.442-14.551,98.771-40.93c26.391-26.371,40.922-61.454,40.922-98.782c0-37.321-14.531-72.423-40.891-98.763
		c-26.359-26.41-61.481-40.961-98.802-40.961H1370.42c-17.68,0-34.294-6.891-46.782-19.391
		c-12.508-12.481-19.379-29.098-19.379-46.77c0-17.68,6.859-34.301,19.379-46.801c12.493-12.492,29.103-19.391,46.782-19.391h134.2
		V66.18h-134.2c-37.302,0-72.372,14.532-98.763,40.922c-26.399,26.367-40.931,61.469-40.931,98.79s14.531,72.403,40.931,98.763
		c26.391,26.391,61.473,40.922,98.763,40.922h319.862c17.68,0,34.294,6.879,46.782,19.398c12.508,12.488,19.379,29.098,19.379,46.79
		c0,17.68-6.859,34.289-19.379,46.809c-12.492,12.489-29.103,19.36-46.782,19.36h-586.396c-37.328,0-72.399,14.539-98.79,40.93
		c-26.41,26.367-40.941,61.47-40.941,98.79s14.531,72.403,40.941,98.763c26.391,26.41,61.47,40.942,98.79,40.942h93.739
		c17.668,0,34.289,6.867,46.77,19.398c12.513,12.469,19.392,29.078,19.392,46.77V926.47h73.531l-0.003-102.915
		C1337.314,786.234,1322.774,751.132,1296.415,724.792z"/>
	<path class="cls-1" d="M1850.178,617.646c0,17.668-6.859,34.29-19.379,46.79c-12.492,12.492-29.102,19.371-46.781,19.371h-206.471
		c-37.348,0-72.431,14.57-98.79,40.93c-26.399,26.368-40.931,61.47-40.931,98.79h73.532c0-17.691,6.871-34.301,19.418-46.805
		c12.45-12.5,29.071-19.371,46.771-19.371h206.471c37.301,0,72.371-14.532,98.771-40.923c26.391-26.383,40.922-61.461,40.922-98.782
		H1850.178z"/>
</svg>
