<svg id="Layer_1" data-name="Layer 1" xmlns="http://www.w3.org/2000/svg" viewBox="0 0 2000 2000">
    <defs>
        <style>
            .cls-1 {
                fill: #e74a3e;
            }
            
            .cls-2 {
                fill: #181818;
            }
        </style>
    </defs>	
    <title>Office-And-Business</title>
	<path class="cls-2" d="M1800,239.586H715.992c0.443,4.109,0.676,8.278,0.676,12.5v1254.168h0.004
	c0,64.18-52.5,116.668-116.68,116.668H383.328c-64.18,0-116.672-52.488-116.672-116.668V252.086c0-4.222,0.233-8.391,0.676-12.5H200
	c-110,0-200,90.012-200,200v1266.668c0,110,90,199.988,200,199.988h1600c109.988,0,200-89.988,200-199.988V439.586
	C2000,329.598,1909.988,239.586,1800,239.586z M975,489.586h808.301v333.301H975V489.586z M1488.84,1697.934h-219.441v-83.328
	h219.441V1697.934z M1825.043,1697.934h-219.441v-83.328h219.441V1697.934z"/>
	<path class="cls-1" d="M599.988,93.758h-216.66C296.012,93.758,225,164.777,225,252.086v1254.172
		c0,87.297,71.008,158.328,158.328,158.328h66.66v41.672c0,64.332-52.34,116.66-116.648,116.66H200
		c-64.344,0-116.672-52.332-116.672-116.66v-1050H0v1050c0,110.277,89.719,199.988,200,199.988h133.34
		c110.281,0,199.988-89.711,200-199.988v-41.672h66.648c87.313,0,158.352-71.031,158.352-158.328V252.086
		C758.34,164.777,687.297,93.758,599.988,93.758z M675.008,1506.258c0,41.352-33.66,75-75.02,75h-216.66c-41.352,0-75-33.648-75-75
		V252.086c0-41.359,33.648-75,75-75h216.66c41.359,0,75.02,33.641,75.02,75V1506.258z"/>
	<rect x="933.301" y="1031.203" class="cls-1" width="219.43" height="83.352"/>
	<rect x="1269.398" y="1031.203" class="cls-1" width="219.441" height="83.352"/>
	<rect x="1605.602" y="1031.203" class="cls-1" width="219.441" height="83.352"/>
	<rect x="933.301" y="1225.703" class="cls-1" width="219.441" height="83.328"/>
	<rect x="1269.398" y="1225.703" class="cls-1" width="219.441" height="83.328"/>
	<rect x="1605.602" y="1225.703" class="cls-1" width="219.441" height="83.328"/>
	<rect x="933.301" y="1420.105" class="cls-1" width="219.43" height="83.328"/>
	<rect x="1269.398" y="1420.105" class="cls-1" width="219.441" height="83.328"/>
	<rect x="1605.602" y="1420.105" class="cls-1" width="219.441" height="83.328"/>
	<rect x="933.301" y="1614.605" class="cls-1" width="219.43" height="83.328"/>
	<path class="cls-1" d="M1825.012,447.914H933.34v416.672h891.672V447.914z M1741.68,781.254h-725V531.242h725V781.254z"/>
	<rect x="1575" y="614.605" class="cls-1" width="83.332" height="83.328"/>
	<rect x="1408.301" y="614.605" class="cls-1" width="83.352" height="83.328"/>
	<rect x="1241.699" y="614.605" class="cls-1" width="83.328" height="83.328"/>
</svg>
