<svg id="Layer_1" data-name="Layer 1" xmlns="http://www.w3.org/2000/svg" viewBox="0 0 2000 2000">
    <defs>
        <style>
            .cls-1 {
                fill: #e74a3e;
            }
            
            .cls-2 {
                fill: #181818;
            }
        </style>
    </defs>	
    <title>Office-And-Business</title>
	<polygon class="cls-2" points="1060.496,930.289 1163.074,698.941 999.996,588.57 836.887,698.969 939.566,930.289 
	723.516,1678.172 1000.023,2000 1276.477,1678.199 "/>
	<path class="cls-1" d="M1516.816,0H483.176l-54.582,207.57l175.664,691.211l395.738-267.859l395.719,267.859l175.691-691.211
	L1516.816,0z M1321.229,172.641H678.704L588.047,70.191h823.825L1321.229,172.641z M1259.119,242.84L999.99,535.718L740.823,242.84
	H1259.119z M501.066,207.871l26.37-100.242l419.728,474.322L647.656,784.672L501.066,207.871z M1352.316,784.672l-299.503-202.729
	l419.716-474.382l26.389,100.311L1352.316,784.672z"/>
</svg>
