<svg id="Layer_1" data-name="Layer 1" xmlns="http://www.w3.org/2000/svg" viewBox="0 0 2000 2000">
    <defs>
        <style>
            .cls-1 {
                fill: #e74a3e;
            }
            
            .cls-2 {
                fill: #181818;
            }
        </style>
    </defs>
    <title>Icons-Analytics-And-Investment</title>
	<rect class="cls-2" x="554.798" y="856.198" width="335.467" height="817.796"/>
	<rect class="cls-2" x="1109.692" y="1178.798" width="335.468" height="495.196"/>
	<rect class="cls-2" x="1664.592" y="671.5" width="335.408" height="1002.494"/>
	<rect class="cls-2" y="1426.398" width="335.467" height="247.6"/>
	<path class="cls-1" fill="#242D3C" d="M167.729,1023.939c92.507,0,167.737-75.25,167.737-167.741c0-31.875-8.94-61.703-24.443-87.108
		l324.437-324.437c25.408,15.506,55.237,24.449,87.113,24.449c31.874,0,61.698-8.938,87.101-24.434l324.459,324.46
		c-15.49,25.399-24.423,55.215-24.423,87.082c0,92.491,75.242,167.729,167.729,167.729c92.492,0,167.741-75.25,167.73-167.729
		c0-31.907-8.96-61.762-24.491-87.184l324.48-324.389c25.414,15.516,55.255,24.466,87.148,24.466
		c92.468,0,167.679-75.242,167.679-167.729c0-92.487-75.219-167.737-167.679-167.737c-92.491,0-167.729,75.246-167.729,167.737
		c0,31.888,8.945,61.723,24.456,87.133l-324.501,324.409c-25.402-15.497-55.224-24.434-87.094-24.434
		c-31.916,0-61.775,8.962-87.201,24.498L865.822,388.559c15.532-25.423,24.491-55.277,24.49-87.186
		c0-92.499-75.238-167.749-167.737-167.749c-92.469,0-167.729,75.25-167.729,167.749c0,31.899,8.955,61.745,24.478,87.161
		L254.907,712.951c-25.419-15.526-55.271-24.482-87.177-24.482C75.23,688.469,0,763.706,0,856.198
		C0,948.689,75.23,1023.939,167.729,1023.939z M1832.31,213.015c48.698,0,88.3,39.628,88.288,88.351
		c0,48.723-39.597,88.351-88.288,88.351c-48.723,0-88.351-39.628-88.351-88.351C1743.959,252.643,1783.591,213.015,1832.31,213.015z
		 M1277.441,767.858c48.723,0,88.352,39.633,88.352,88.34c0,48.723-39.629,88.351-88.352,88.351
		c-48.722,0-88.351-39.632-88.351-88.351C1189.091,807.487,1228.724,767.858,1277.441,767.858z M722.574,213.003
		c48.722,0,88.351,39.64,88.351,88.358c0,48.723-39.629,88.351-88.351,88.351c-48.723,0-88.352-39.632-88.352-88.351
		C634.223,252.643,673.855,213.003,722.574,213.003z M167.729,767.858c48.73,0,88.347,39.633,88.351,88.34
		c0,48.723-39.629,88.351-88.351,88.351c-48.723,0-88.351-39.632-88.351-88.351C79.378,807.487,119.011,767.858,167.729,767.858z"/>
	<rect class="cls-1" x="7.691" y="1786.993" width="1984.688" height="79.379"/>
</svg>
