<svg id="Layer_1" data-name="Layer 1" xmlns="http://www.w3.org/2000/svg" viewBox="0 0 2000 2000">
    <defs>
        <style>
            .cls-1 {
                fill: #e74a3e;
            }
            
            .cls-2 {
                fill: #181818;
            }
        </style>
    </defs>
    <title>Icons-Analytics-And-Investment</title>
	<path class="cls-1" d="M1853.52,1533.535V981.318h-67.328v552.217h-48.293V981.318h-67.34v552.217H527.949V1404.36h-67.34v129.175
		h-48.316V1404.36h-67.332v129.175h-146.5v97.801c0,26.188,10.191,50.77,28.73,69.289c18.539,18.391,43.07,28.52,69.059,28.52
		h1605.898c26.07,0,50.633-10.141,69.18-28.59c18.492-18.438,28.672-43.02,28.672-69.219v-97.801H1853.52z M1932.648,1631.348
		c0,8.18-3.16,15.82-8.859,21.5c-5.797,5.781-13.5,8.961-21.648,8.961H296.25c-8.109,0-15.789-3.203-21.551-8.922
		c-5.742-5.719-8.891-13.359-8.891-21.539v-30.461h79.152h115.648h1277.289h115.621h0.02h79.109V1631.348z"/>
	<path class="cls-1" d="M1338.129,1430.875c77.949,0,141.402-63.43,141.41-141.422c0-77.98-63.449-141.41-141.41-141.41
		c-77.973,0-141.422,63.43-141.422,141.41C1196.707,1367.445,1260.16,1430.875,1338.129,1430.875z M1338.129,1215.387
		c40.84,0,74.07,33.238,74.07,74.07c0,40.84-33.219,74.078-74.07,74.078c-40.859,0-74.078-33.238-74.078-74.078
		C1264.051,1248.625,1297.27,1215.387,1338.129,1215.387z"/>
	<path class="cls-1" d="M614.801,499.816c63.121,0,114.488-51.352,114.48-114.48c0-63.129-51.359-114.48-114.48-114.48
		s-114.48,51.352-114.48,114.48C500.32,448.457,551.68,499.816,614.801,499.816z M614.801,338.203c26,0,47.141,21.152,47.141,47.141
		c0,25.992-21.152,47.141-47.141,47.141c-25.98,0-47.129-21.152-47.129-47.141C567.672,359.352,588.813,338.203,614.801,338.203z"/>
	<polygon class="cls-1" points="527.949,945.314 527.949,796.344 1032.322,796.344 1032.322,728.996 460.609,728.996 
		460.609,945.314 	"/>
	<path class="cls-1" d="M412.293,695.141c0-2.672,0.738-6.621,4.379-10.262c3.57-3.59,7.801-4.129,10-4.129h605.65v-67.344H426.668
		c-21.918,0-42.457,8.551-57.719,23.98c-15.469,15.461-23.988,35.969-23.988,57.75v250.177h67.332V695.141z"/>
	<path class="cls-2" d="M0,895.605v538.719h799.82V895.605H0z M534.5,1098.504h67.34v151.961H534.5V1098.504z M422.301,1051.105
		h67.34v199.309h-67.34V1051.105z M310.199,1167.406h67.34v82.988h-67.34V1167.406z M198.039,1116.703h67.34v133.73h-67.34V1116.703z
		 M85.922,1210.703h67.34v39.719h-67.34V1210.703z M713.891,1358.047H85.922v-67.34h627.969V1358.047z M713.941,1250.395h-67.34
		V994.504h67.34V1250.395z"/>
	<path class="cls-2" d="M959.5,345.895v681.699H2000V345.895H959.5z M1872.199,689.285h-67.34v-40.86l-125.809,125.79
		L1559.5,654.637l-159.461,159.488L1280.41,694.504l-135.648,135.652l-47.621-47.609l183.238-183.281l119.641,119.621l159.48-159.5
		l119.551,119.609l78.183-78.16h-40.843v-67.34h155.809V689.285z"/>
</svg>
