<svg id="Layer_1" data-name="Layer 1" xmlns="http://www.w3.org/2000/svg" viewBox="0 0 2000 2000">
    <defs>
        <style>
            .cls-1 {
                fill: #e74a3e;
            }
            
            .cls-2 {
                fill: #181818;
            }
        </style>
    </defs>
    <title>Icons-Analytics-And-Investment</title>
	<path class="cls-1" d="M1860.133,1283.651l-183.758-661.626V506.941h-74.07v71.681l-402.836-107.976
		c0.373-4.981,0.566-10.012,0.566-15.087c0-97.631-70.32-179.123-162.953-196.546V74.07h111.113V0H851.906v74.07h111.098V259.01
		c-63.178,11.878-115.981,53.551-143.174,109.832L397.723,255.7v-91.552h-74.078v115.173L139.839,940.873l71.355,19.825
		l149.537-538.211l149.464,538.151l71.345-19.815L413.75,336.689l386.858,103.694c-0.378,5.01-0.572,10.07-0.572,15.176
		c0,97.629,70.328,179.13,162.969,196.548v977.522H666.695v148.141H518.555V2000h962.961v-222.23h-148.148v-148.141h-296.285V652.104
		c63.201-11.888,116.018-53.594,143.197-109.909l413.368,110.799l-175.233,630.697l71.355,19.826L1639.308,765.3l149.47,538.168
		L1860.133,1283.651z M360.665,284.121l-0.014-0.004h0.029L360.665,284.121z M1407.434,1851.859v74.07H592.625v-74.07h74.07h666.668
		h0.004H1407.434z M1259.297,1777.77H740.773v-74.07h518.523V1777.77z M1000.035,581.48c-69.449,0-125.93-56.492-125.93-125.922
		s56.488-125.93,125.93-125.93s125.93,56.496,125.93,125.93S1069.484,581.48,1000.035,581.48z"/>
	<path class="cls-2" d="M1000.031,388.887c-36.832,0-66.672,29.832-66.672,66.672c0,36.813,29.852,66.672,66.672,66.672
		c36.781,0,66.672-29.863,66.672-66.672C1066.703,418.719,1036.816,388.891,1000.031,388.887z"/>
	<path class="cls-2" d="M360.684,1235.961c171.789,0,311.109-139.27,311.109-311.109H49.574
		C49.574,1096.703,188.855,1235.961,360.684,1235.961z"/>
	<path class="cls-2" d="M1328.215,1267.648c0,171.82,139.281,311.109,311.109,311.109c171.77,0,311.102-139.301,311.102-311.109
		H1328.215z"/>
</svg>
