<svg id="Layer_1" data-name="Layer 1" xmlns="http://www.w3.org/2000/svg" viewBox="0 0 2000 2000">
    <defs>
        <style>
            .cls-1 {
                fill: #e74a3e;
            }
            
            .cls-2 {
                fill: #181818;
            }
        </style>
    </defs>
    <title>Icons-Analytics-And-Investment</title>
	<path class="cls-1" d="M1804.453,721.031C1804.453,323.449,1481.023,0,1083.477,0C685.863,0,362.395,323.449,362.395,720.836
		l-0.398,76.289l-166.449,487.012h195.629l34.672,436.441l345.262-31.719l38.18,309.672l71.98-8.871l-46.789-379.43l-342.141,31.441
		l-34.16-430.031h-161.23l137.5-402.281l0.449-88.34c0-357.602,290.949-648.512,648.57-648.512
		c357.57,0,648.469,290.91,648.469,648.512c0,71.852-11.73,142.512-35.262,211.211l-155,509.02l92.129,558.75l71.551-11.777
		l-89.379-542.031l149.688-491.629C1791.395,879.473,1804.453,800.891,1804.453,721.031z"/>
	<path class="cls-2" d="M1590.805,720.961c0-76.133-51.34-140.23-121.25-159.973c35.539-63.359,26.539-145.031-27.398-198.82
		c-53.961-53.961-135.449-62.941-198.828-27.559c-19.73-69.91-83.828-121.09-160.109-121.09s-140.379,51.191-160.109,121.09
		c-63.379-35.379-144.879-26.398-198.828,27.559c-53.82,53.789-62.941,135.449-27.422,198.82
		c-69.91,19.738-121.23,83.84-121.23,159.98c0,91.941,74.539,166.48,166.488,166.48h276.852c91.941,0,166.48,74.539,166.48,166.48
		v940.18h72.512v-940.18c0-91.949,74.398-166.48,166.352-166.48c45.969,0,87.602-18.711,117.762-48.738
		C1572.246,808.539,1590.805,766.93,1590.805,720.961z M974.406,686.91h-72.512v-72.512h72.512V686.91z M1119.508,686.91h-72.512
		v-72.512h72.512V686.91z M1264.508,686.91h-72.512v-72.512h72.512V686.91z"/>
</svg>
