<svg id="Layer_1" data-name="Layer 1" xmlns="http://www.w3.org/2000/svg" viewBox="0 0 2000 2000">
    <defs>
        <style>
            .cls-1 {
                fill: #e74a3e;
            }
            
            .cls-2 {
                fill: #181818;
            }
        </style>
    </defs>
    <title>Icons-Analytics-And-Investment</title>
	<rect x="209.852" y="1015.602" class="cls-2" width="1580.301" height="984.398"/>
	<polygon class="cls-2" points="1348.93,0 651.012,0.051 651,331.102 1348.93,331.051 	"/>
	<rect x="468.77" y="1015.602" class="cls-1" width="71.43" height="984.398"/>
	<rect x="1459.77" y="1015.602" class="cls-1" width="71.43" height="984.398"/>
	<path class="cls-1" d="M1346.277,789.988c-18.868-18.897-43.533-29.801-69.892-31.029l0.083-427.912h-71.441l-0.102,524.379
		c0.051,6.352-2.48,12.391-7.18,17.09c-4.57,4.602-10.68,7.141-17.25,7.141c-0.02,0-0.031,0-0.031,0
		c-6.453,0-12.531-2.52-17.281-7.309c-4.609-4.566-7.141-10.629-7.141-17.078l-71.43-0.059c0,6.512-2.559,12.652-7.18,17.281
		c-9.328,9.316-25.371,9.109-34.59-0.012c-4.641-4.641-7.16-10.711-7.121-17.07l-71.43-0.441c-0.031,3.891-0.988,11.371-7.27,17.621
		c-6.137,6.148-13.367,7.07-17.148,7.07c-0.008,0-0.008,0-0.02,0c-6.641,0-12.82-2.539-17.371-7.07
		c-4.621-4.652-7.172-10.832-7.172-17.441h-71.43c0,3.813-0.922,11.113-7.172,17.352c-4.609,4.602-10.758,7.141-17.43,7.141
		c-0.031,0-0.039,0-0.07,0c-6.5,0-12.57-2.488-17.172-7.109c-4.59-4.57-7.152-10.809-7.191-17.309l0.102-228.211l-71.43-0.02
		l-0.029,65.707c-24.115-12.814-40.584-38.195-40.584-67.359c0-19.98,8.293-39.711,23.102-54.539
		c5.121-5.281,10.141-10.031,13.141-12.461c46.68-37.781,75.68-102.73,75.68-169.52v-57.77h-71.43v57.766
		c0,45.082-19.313,89.82-49.121,113.941c-7.121,5.73-15.289,13.922-19.16,17.91c-27.75,27.73-43.648,65.891-43.648,104.66
		c0,61.604,37.924,114.505,91.638,136.614c-18.55,4.585-35.574,14.155-49.427,28.027c-20.09,20.059-31.148,46.66-31.148,74.898
		v150.781h71.43V864.867c0-9.137,3.617-17.797,10.219-24.398c6.375-6.373,13.385-8.936,19.249-9.809l-0.011,24.774
		c0.172,25.699,10.18,49.73,28.102,67.59c18.012,18.098,42.031,28.059,67.59,28.059c0.063,0,0.16,0,0.262,0
		c22.211,0,43.242-7.461,60.172-21.16c16.992,13.711,38.082,21.141,60.32,21.18c22.219,0,43.258-7.488,60.148-21.219
		c17.09,13.758,38.129,21.238,60.219,21.238c22.121,0,43.121-7.5,60.156-21.273c16.957,13.781,37.949,21.262,60.059,21.262
		c0.031,0,0.059,0,0.09,0c25.723,0,49.852-10.051,67.852-28.199c18.211-18.242,28.148-42.363,27.98-67.691l0.005-24.583
		c7.268,1.07,14.021,4.467,19.397,9.853c6.582,6.578,10.211,15.238,10.211,24.379v150.781h71.418V864.867
		C1377.398,836.629,1366.336,810.02,1346.277,789.988z"/>
	<rect x="723.57" y="188.359" class="cls-1" width="71.43" height="71.352"/>
</svg>
