<svg id="Layer_1" data-name="Layer 1" xmlns="http://www.w3.org/2000/svg" viewBox="0 0 2000 2000">
    <defs>
        <style>
            .cls-1 {
                fill: #e74a3e;
            }
            
            .cls-2 {
                fill: #181818;
            }
        </style>
    </defs>
    <title>Icons-Analytics-And-Investment</title>
	<rect x="503.398" y="1213.898" class="cls-2" width="71.461" height="71.461"/>
	<rect x="682" y="1213.898" class="cls-2" width="71.461" height="71.461"/>
	<path class="cls-2" d="M503.398,713.699v214.379h607.41V713.699H503.398z M753.461,856.66H682v-71.461h71.461V856.66z
		 M896.359,856.66h-71.461v-71.461h71.461V856.66z M1039.262,856.66h-71.461v-71.461h71.461V856.66z"/>
	<rect x="860.602" y="1213.898" class="cls-1" width="71.461" height="71.461"/>
	<rect x="1039.301" y="1213.898" class="cls-1" width="71.461" height="71.461"/>
	<rect x="503.398" y="1392.602" class="cls-1" width="71.461" height="71.461"/>
	<rect x="682" y="1392.602" class="cls-1" width="71.461" height="71.461"/>
	<rect x="860.602" y="1392.602" class="cls-1" width="71.461" height="71.461"/>
	<rect x="1039.301" y="1392.602" class="cls-1" width="71.461" height="71.461"/>
	<rect x="503.398" y="1571.199" class="cls-1" width="71.461" height="71.461"/>
	<rect x="682" y="1571.199" class="cls-1" width="71.461" height="71.461"/>
	<rect x="860.602" y="1571.199" class="cls-1" width="71.461" height="71.461"/>
	<rect x="1039.301" y="1571.199" class="cls-1" width="71.461" height="71.461"/>
	<rect x="503.398" y="1749.898" class="cls-1" width="71.461" height="71.461"/>
	<rect x="682" y="1749.898" class="cls-1" width="71.461" height="71.461"/>
	<rect x="860.602" y="1749.898" class="cls-1" width="250.102" height="71.461"/>
	<path class="cls-1" d="M1675.301,1200.539h-71.461v585.082h-28.586V556l-71.492-71.492V427.73h-71.461v56.84l-71.43,71.43v1444
		h214.379h0.004v-142.922h100.047V1200.539z M1503.789,1785.621h-71.461v-553.859h71.461V1785.621z M1503.789,1160.301h-71.461
		V585.59l35.73-35.73l35.73,35.73V1160.301z M1503.789,1928.539h-71.461v-71.461h71.461V1928.539z"/>
	<path class="cls-1" d="M1171.5,117.91L1053.621,0l-82.199,82.18L889.25,0l-82.191,82.18L724.879,0l-82.18,82.18L560.52,0
		L442.602,117.91v417.148H324.699v500.223v71.469V2000h964.711h0.008v-893.25v-71.469V535.059H1171.5V117.91z M514.059,147.5
		l46.449-46.449l82.18,82.18l82.18-82.18l82.18,82.18l82.191-82.18l82.172,82.18l82.18-82.18l46.461,46.449v387.559H514.07h-0.012
		V147.5z M1217.961,1928.539H396.16V1106.75h821.801V1928.539z M1217.961,606.52v428.762H396.16V606.52h46.441H1171.5H1217.961z"/>
	<rect x="574.801" y="244.559" class="cls-1" width="464.5" height="71.461"/>
	<rect x="574.801" y="387.48" class="cls-1" width="232.301" height="71.461"/>
</svg>
