<svg id="Layer_1" data-name="Layer 1" xmlns="http://www.w3.org/2000/svg" viewBox="0 0 2000 2000">
    <defs>
        <style>
            .cls-1 {
                fill: #e74a3e;
            }
            
            .cls-2 {
                fill: #181818;
            }
        </style>
    </defs>
    <title>Icons-Analytics-And-Investment</title>
	<path class="cls-2" d="M1184.474,456.216c-174.37,0-315.779,141.397-315.779,315.799s141.401,315.8,315.779,315.8
		c174.358,0,315.787-141.41,315.787-315.8C1500.261,597.617,1358.844,456.216,1184.474,456.216z M1138.087,727.117
		c6.328,6.359,14.691,9.809,23.602,9.809h45.629c27.609,0,53.589,10.762,73.19,30.289c19.57,19.64,30.309,45.62,30.309,73.218
		c0,27.52-10.711,53.512-30.18,73.129c-16.861,16.734-38.146,26.969-61.046,29.669v20.435h-70.199v-20.432
		c-22.967-2.696-44.24-12.934-60.878-29.528c-19.57-19.629-30.32-45.621-30.32-73.27h70.179c0,8.941,3.461,17.34,9.762,23.66
		c6.25,6.219,14.641,9.691,23.551,9.691h45.629c8.891,0,17.289-3.5,23.711-9.84c6.109-6.18,9.629-14.602,9.629-23.512
		c0-8.898-3.488-17.27-9.77-23.57c-6.301-6.281-14.691-9.762-23.57-9.762h-45.629c-27.691,0-53.699-10.789-73.218-30.371
		c-19.488-19.429-30.262-45.429-30.262-73.147c0-27.73,10.75-53.738,30.289-73.262c16.684-16.592,37.944-26.836,60.897-29.537
		v-20.38h70.199v20.38c22.882,2.699,44.133,12.914,60.812,29.423c19.68,19.789,30.422,45.781,30.422,73.371h-70.171
		c0-8.922-3.488-17.34-9.809-23.691c-6.23-6.148-14.641-9.66-23.531-9.66h-45.629c-8.922,0-17.301,3.48-23.629,9.789
		c-6.219,6.219-9.68,14.59-9.68,23.559C1128.376,712.52,1131.837,720.867,1138.087,727.117z"/>
	<path class="cls-2" d="M0,1798.7h404.1V978.104H0V1798.7z M263.749,1604.701h70.199v70.199h-70.199V1604.701z"/>
	<path class="cls-1" d="M1974.684,1250.134l-1.059-1.398c-18.891-25-46.25-41.891-77.031-47.59
		c-30.741-5.73-62.339,0.25-88.96,16.781l-269.621,167.82c-7.515-60.719-59.418-107.872-122.11-107.872H964.256l-152.499-97.589
		c-39.828-25.5-83.007-45.129-128.288-58.359c-45.309-13.27-92.27-20.02-139.569-20.02H404.1v70.18h139.784
		c40.612,0,80.929,5.793,119.851,17.191c38.918,11.383,75.988,28.242,110.198,50.12l169.78,108.648h472.178
		c29.16,0,52.87,23.742,52.87,52.91c0,29.167-23.71,52.897-52.87,52.897h-461.92c-67.858,0-123.077,55.219-123.077,123.058h70.171
		c0-29.171,23.73-52.882,52.91-52.882h461.928c30.039,0,57.596-10.831,78.986-28.786l349.804-217.729
		c11.68-7.262,25.601-9.859,39.089-7.371c13.547,2.492,25.547,9.922,33.828,20.891l1.059,1.398c9,11.898,12.73,26.559,10.512,41.309
		c-2.172,14.5-9.813,27.23-21.551,35.941l-660.375,432.716c-24.261,15.379-51.101,24.699-79.69,27.668
		c-28.613,2.992-56.801-0.629-82.922-10.359l-536.305-215.019H404.1v70.172h130.698l524.517,210.28
		c28.757,10.738,58.499,16.108,88.788,16.108c8.852,0,17.762-0.441,26.73-1.374c39.473-4.137,76.472-16.969,110.421-38.488
		l661.609-433.528l1.32-0.898c27.488-19.871,45.391-49.309,50.41-82.84C2003.613,1310.574,1995.133,1277.211,1974.684,1250.134z"/>
	<rect x="887.694" y="346.689" class="cls-1" width="70.198" height="105.261"/>
	<rect x="1315.793" y="216.87" class="cls-1" width="70.199" height="161.397"/>
	<rect x="1149.392" y="98.75" class="cls-1" width="70.199" height="231.6"/>
</svg>
