<svg id="Layer_1" data-name="Layer 1" xmlns="http://www.w3.org/2000/svg" viewBox="0 0 2000 2000">
    <defs>
        <style>
            .cls-1 {
                fill: #e74a3e;
            }
            
            .cls-2 {
                fill: #181818;
            }
        </style>
    </defs>
    <title>Icons-Analytics-And-Investment</title>
	<rect x="493.898" y="548.25" class="cls-2"" width="864.199" height="399.641"/>
	<path class="cls-1" d="M2000,1072.16h-73.68v631.121h-27.133V388.941l-72.008-72.016V260h-73.68v56.918l-72.051,72.012v1532.082
		h217.73h0.008v-144.063H2000V1072.16z M1790.309,384.277l35.191,35.172v615.852h-70.383V419.469L1790.309,384.277z M1825.5,1108.98
		v594.301h-70.383V1108.98H1825.5z M1825.5,1847.32h-70.371h-0.012v-70.371h70.383V1847.32z"/>
	<path class="cls-1" d="M241,78.988V1390.84h73.68V152.672h934.352v288.367h288.379v1406.223h-436.359v73.68h510.039v-1532
		L1301.141,78.988H241z M1322.711,204.769l162.597,162.583h-162.597V204.769z"/>
	<rect x="493.898" y="367.352" class="cls-1" width="432.102" height="73.68"/>
	<rect x="493.898" y="1055.102" class="cls-1" width="864.199" height="73.68"/>
	<rect x="493.898" y="1199.102" class="cls-1" width="864.199" height="73.68"/>
	<rect x="926.102" y="1343.199" class="cls-1" width="432.102" height="73.68"/>
	<path class="cls-1" d="M823.012,1483.895c-59.671,0-113.828,24.051-153.309,62.957c-25.972-37.988-69.63-62.973-119.012-62.973
		c-49.515,0-93.277,25.117-119.223,63.277c-39.51-39.086-93.799-63.262-153.628-63.262c-107.951,0-197.851,78.677-215.417,181.707H0
		v73.68h62.419c17.556,103.041,107.458,181.73,215.421,181.73c120.512,0,218.57-98.043,218.57-218.559
		c0-28.786-5.607-56.285-15.768-81.479c3.52-35.559,33.582-63.416,70.049-63.416c36.131,0,65.963,27.352,69.935,62.438
		c-10.41,25.458-16.165,53.296-16.165,82.457c0,120.52,98.039,218.559,218.551,218.559c107.969,0,197.872-78.691,215.432-181.73
		h62.584v-73.68h-62.588C1020.872,1562.58,930.972,1483.895,823.012,1483.895z M277.84,1847.316
		c-79.871,0-144.859-64.98-144.859-144.879c0-79.891,64.988-144.879,144.859-144.879c79.898,0,144.891,64.992,144.891,144.879
		C422.73,1782.336,357.738,1847.316,277.84,1847.316z M823.012,1847.316c-79.883,0-144.871-64.98-144.871-144.879
		c0-79.891,64.992-144.879,144.871-144.879s144.867,64.992,144.871,144.879C967.883,1782.336,902.895,1847.316,823.012,1847.316z"/>
</svg>
