<svg id="Layer_1" data-name="Layer 1" xmlns="http://www.w3.org/2000/svg" viewBox="0 0 2000 2000">
    <defs>
        <style>
            .cls-1 {
                fill: #e74a3e;
            }
            
            .cls-2 {
                fill: #181818;
            }
        </style>
    </defs>
    <title>Icons-Analytics-And-Investment</title>
	<path class="cls-1" d="M1188.66,641.223V223.301h3.211c61.527,0,111.578-50.109,111.566-111.719
		c0-61.527-50.047-111.578-111.578-111.578H808.27c-61.598,0-111.719,50.047-111.719,111.578
		c0,61.609,50.117,111.719,111.719,111.719h3.09v417.91c-298.082,83.898-503.91,354.051-503.91,666.25
		C307.449,1689.34,618.129,2000,1000,2000s692.551-310.66,692.551-692.527C1692.551,995.262,1486.719,725.102,1188.66,641.223z
		 M808.27,154.332c-23.57,0-42.75-19.18-42.75-42.75c0-23.492,19.18-42.621,42.75-42.621h383.59
		c23.512,0,42.621,19.133,42.621,42.621c0,23.57-19.109,42.75-42.621,42.75h-3.199v-0.031H811.359v0.031H808.27z M999.988,1931.031
		c-343.84,0-623.578-279.742-623.578-623.57c0-289.332,196.352-538.57,477.48-606.09l26.43-6.34V582.359h61.09v-68.961h-61.09
		v-50.836h61.09v-68.961h-61.09V342.91h61.09v-68.961h-61.09v-50.648h239.355v471.75l26.43,6.34
		c281.121,67.5,477.461,316.719,477.461,606.07C1623.566,1651.281,1343.84,1931.031,999.988,1931.031z"/>
	<path class="cls-1" d="M1014.68,1340.629l-331,331c84.91,73.852,195.711,118.59,316.969,118.59
		c255.578,0,464.762-198.359,482.109-449.59H1014.68z M1000.641,1721.262c-74.73,0-147.602-20.23-211.148-57.922l253.762-253.738
		h358.84C1356.059,1589.27,1192.109,1721.262,1000.641,1721.262z"/>
	<path class="cls-2" d="M517.238,1306.809c0,121.25,44.809,232.031,118.641,316.91l330.93-330.941V824.699
		C715.68,842.09,517.238,1051.27,517.238,1306.809z"/>
	<path class="cls-2" d="M1034.512,824.699v448.27h448.238C1466.129,1033.027,1274.43,841.32,1034.512,824.699z"/>
</svg>
