<svg id="Layer_1" data-name="Layer 1" xmlns="http://www.w3.org/2000/svg" viewBox="0 0 2000 2000">
    <defs>
        <style>
            .cls-1 {
                fill: #e74a3e;
            }
            
            .cls-2 {
                fill: #181818;
            }
        </style>
    </defs>
    <title>Icons-Analytics-And-Investment</title>
	<polygon class="cls-2" points="711.434,515.93 711.434,646.59 999.996,935.172 1288.605,646.59 1288.605,515.93 	"/>
	<polygon class="cls-2" points="711.434,1733.281 1288.605,1733.281 999.996,1444.699 	"/>
	<polygon class="cls-1" points="1458.254,266.711 1381.336,266.711 1381.336,684.961 1060.996,1005.262 1381.336,1325.539 
		1381.336,1733.281 1458.254,1733.281 1458.254,1293.66 1169.797,1005.262 1458.254,716.828 	"/>
	<polygon class="cls-1" points="541.773,1733.281 618.703,1733.281 618.703,1325.531 938.953,1005.262 618.703,684.98 
		618.703,266.711 541.773,266.711 541.773,716.828 830.184,1005.262 541.773,1293.672 	"/>
	<rect x="1532.996" y="266.711" class="cls-1" width="76.922" height="1466.602"/>
	<rect x="390.094" y="266.711" class="cls-1" width="76.922" height="1466.602"/>
	<path class="cls-1" d="M258.926,0v208.121h1482.141h0.008V0H258.926z M1664.145,131.191H335.844v-54.27h1328.301V131.191z"/>
	<path class="cls-1" d="M258.926,2000h1482.141h0.008v-208.121H258.926V2000z M335.844,1868.809h1328.301v54.27H335.844V1868.809z"/>
</svg>
