<svg id="Layer_1" data-name="Layer 1" xmlns="http://www.w3.org/2000/svg" viewBox="0 0 2000 2000">
    <defs>
        <style>
            .cls-1 {
                fill: #e74a3e;
            }
            
            .cls-2 {
                fill: #181818;
            }
        </style>
    </defs>
    <title>Icons-Analytics-And-Investment</title>
	<path class="cls-2" d="M705.566,861.496H385.238v157.633c0,40.32,15.41,80.648,46.172,111.422
		c30.789,30.789,71.09,46.18,111.449,46.18h320.309v-157.602c0-40.359-15.379-80.691-46.18-111.461
		C786.227,876.879,745.898,861.496,705.566,861.496z"/>
	<path class="cls-2" d="M1614.734,1019.129V861.496h-320.309c-40.34,0-80.66,15.383-111.449,46.172
		c-30.77,30.77-46.18,71.102-46.18,111.461v157.602h320.34c40.34,0,80.66-15.391,111.43-46.18
		c30.793-30.773,46.172-71.102,46.172-111.422H1614.734z"/>
	<path class="cls-2" d="M617.191,596.059h765.52c0-65.262,53.07-118.199,118.289-118.199V232.141
		c-65.23,0-118.289-52.941-118.289-118.18h-765.52c0,65.25-52.828,118.18-118.129,118.18v245.719
		C564.363,477.859,617.191,530.789,617.191,596.059z M1000,160.848c107.25,0,194.02,86.949,194.02,194.16
		c0,107.191-86.77,194.141-194.02,194.141c-107.191,0-194.129-86.949-194.129-194.141C805.871,247.797,892.801,160.848,1000,160.848
		z"/>
	<path class="cls-1" d="M1614.98,710.012V0H385.02v710.012H965.5v618.219H385.02v195.871h111.836L650.512,2000h698.957
		l153.7-475.898h111.812V1328.23h-580.52V710.012H1614.98z M1299.281,1931.039h-598.57l-131.383-406.93h861.363L1299.281,1931.039z
		 M1546.02,1455.141h-20.578H474.59h-20.602v-57.941H1546.02V1455.141z M453.988,68.961H1546.02v572.078H453.988V68.961z"/>
	<path class="cls-1" d="M984.461,296.555h31.109c3.191,0,6.383,1.332,8.441,3.352c2.25,2.27,3.398,5.148,3.398,8.57h68.961
		c0-21.668-8.328-41.969-23.77-57.488c-10.756-10.551-23.896-17.773-38.141-21.171v-15.438H965.5v15.46
		c-14.277,3.434-27.511,10.76-38.578,21.661c-15.027,15.379-23.328,35.621-23.328,56.98c0,21.613,8.352,41.922,23.75,57.441
		c15.391,15.191,35.68,23.57,57.129,23.57h31.109c3.141,0,6.313,1.352,8.641,3.641c2.633,2.609,3.191,6,3.191,8.379
		c0,3.43-1.137,6.32-3.078,8.27c-2.383,2.332-5.582,3.66-8.762,3.66h-31.109c-2.289,0-5.66-0.617-8.25-3.148
		c-2.352-2.422-3.66-5.531-3.66-8.781h-68.961c0,21.387,8.289,41.637,23.809,57.488c10.729,10.548,23.856,17.769,38.098,21.172
		v15.39h68.961v-15.385c14.266-3.415,27.476-10.697,38.449-21.462c15.133-15.207,23.461-35.539,23.461-57.219
		c0-21.91-8.398-42.289-23.699-57.449c-15.41-15.18-35.672-23.531-57.102-23.531h-31.109c-2.25,0-5.582-0.633-8.41-3.422
		c-3.039-3.07-3.5-6.723-3.5-8.621c0-2.289,0.641-5.66,3.191-8.289C978.801,297.184,982.172,296.555,984.461,296.555z"/>
	<rect x="1265.199" y="320.5" class="cls-1" width="132.43" height="68.961"/>
	<rect x="602.398" y="320.5" class="cls-1" width="132.301" height="68.961"/>
</svg>
