<svg id="Layer_1" data-name="Layer 1" xmlns="http://www.w3.org/2000/svg" viewBox="0 0 2000 2000">
    <defs>
        <style>
            .cls-1 {
                fill: #e74a3e;
            }
            
            .cls-2 {
                fill: #181818;
            }
        </style>
    </defs>
    <title>Icons-Analytics-And-Investment</title>
	<rect x="1533.102" y="444.5" class="cls-2" width="205.629" height="912.5"/>
	<rect x="261.199" y="444.5" class="cls-2" width="205.641" height="912.5"/>
	<path class="cls-2" d="M605.102,817.648h789.84v-380.5h-789.84V817.648z M934.039,551.211l131.922,76.16l-131.922,76.168V551.211z
		"/>
	<polygon class="cls-1" points="1295.68,1802.328 1219.52,1802.328 1219.52,1923.801 780.449,1923.801 780.449,1802.328 
		704.289,1802.328 704.289,1923.801 595.398,1923.801 595.398,1999.961 704.289,1999.961 704.289,2000 1295.68,2000 
		1295.68,1999.961 1404.66,1999.961 1404.66,1923.801 1295.68,1923.801 	"/>
	<path class="cls-1" d="M1884.844,298.832c-18.75-18.98-43.891-29.441-70.801-29.441h-242.824V126.91L1444.219,0l-88.75,88.828
		L1266.57,0.031l-88.891,88.797L1088.961,0l-88.93,88.852l-88.84-88.84l-88.922,88.84L733.43,0l-88.84,88.852l-88.93-88.84
		L428.781,126.93v142.461H185.969c-26.922,0-52.059,10.461-70.66,29.27c-18.871,18.871-29.27,43.969-29.27,70.641V1532.16h0.012
		v106.141c0,26.777,10.418,51.887,29.18,70.578c18.77,18.891,43.879,29.301,70.699,29.301h1628.121
		c26.84,0,51.949-10.41,70.539-29.121c18.941-18.871,29.371-43.969,29.371-70.75V1532.16h0.004V369.313
		C1913.965,342.641,1903.563,317.543,1884.844,298.832z M169.352,352.352c5.828-5.922,12.91-6.801,16.629-6.801h242.801v1011.43
		h76.16V158.469l50.758-50.758l88.922,88.84l88.809-88.832l88.809,88.832l88.922-88.84l88.84,88.84l88.898-88.832l88.691,88.84
		l88.98-88.859l88.93,88.859l88.75-88.84l50.809,50.762v1198.5h76.16V345.551h242.824c3.711,0,10.77,0.883,16.789,6.961
		c4.5,4.5,6.969,10.469,6.969,16.789V1456H162.211V369.313C162.211,362.98,164.68,357.012,169.352,352.352z M1837.793,1638.309
		c0,6.359-2.473,12.281-7.102,16.93c-5.871,5.922-12.949,6.781-16.641,6.781H185.93c-3.699,0-10.77-0.859-16.82-6.961
		c-4.438-4.441-6.898-10.379-6.898-16.75V1532.16h1675.582V1638.309z"/>
	<rect x="605.102" y="269.352" class="cls-1" width="789.84" height="76.16"/>
	<rect x="605.102" y="909.199" class="cls-1" width="342.602" height="76.16"/>
	<rect x="605.102" y="1038.801" class="cls-1" width="342.602" height="76.16"/>
	<rect x="605.102" y="1168.5" class="cls-1" width="342.602" height="76.16"/>
	<rect x="1052.398" y="909.199" class="cls-1" width="342.602" height="76.16"/>
	<rect x="1052.398" y="1038.801" class="cls-1" width="342.602" height="76.16"/>
	<rect x="1052.398" y="1168.5" class="cls-1" width="342.602" height="76.16"/>
</svg>
