<svg id="Layer_1" data-name="Layer 1" xmlns="http://www.w3.org/2000/svg" viewBox="0 0 2000 2000">
    <defs>
        <style>
            .cls-1 {
                fill: #e74a3e;
            }
            
            .cls-2 {
                fill: #181818;
            }
        </style>
    </defs>
    <title>Icons-Analytics-And-Investment</title>
	<path class="cls-2" d="M999.986,518.874c-148.896,0-270.028,121.12-270.028,269.997c0,148.87,121.14,269.986,270.028,269.986
		c148.908,0,270.056-121.12,270.056-269.986C1270.042,639.994,1148.895,518.874,999.986,518.874z"/>
	<path class="cls-2" d="M999.975,335.286c-250.51,0-453.566,203.1-453.566,453.585c0,250.439,203.057,453.566,453.566,453.566
		c250.438,0,453.617-203.119,453.617-453.566C1453.592,538.386,1250.414,335.274,999.975,335.286z M999.986,1127.88
		c-186.959,0-339.056-152.077-339.056-339.009S813.02,449.854,999.986,449.854s339.087,152.089,339.087,339.017
		C1339.062,975.811,1186.941,1127.88,999.986,1127.88z"/>
	<path class="cls-1" d="M1020.896,948.049h-41.699c-25.57,0-49.808-9.921-68.249-27.968C892.37,901.03,882.46,876.8,882.46,851.272
		h69.019c0,7.43,2.949,14.559,8.32,20.059c4.879,4.75,11.969,7.699,19.398,7.699h41.699c7.449,0,14.641-2.98,20.23-8.41
		c5.93-6.031,7.288-13.91,7.288-19.352c0-4.499-1.012-13.05-7.671-19.698c-5.281-5.191-12.41-8.148-19.859-8.148h-41.699
		c-25.711,0-50-10.039-68.397-28.281c-18.359-18.551-28.328-42.828-28.328-68.62c0-25.531,9.922-49.762,27.93-68.199
		c18.96-18.608,43.21-28.577,68.808-28.577h41.699c25.499,0,49.761,9.922,68.288,27.929c18.398,18.641,28.25,42.91,28.25,68.852
		h-69.012c0-5.43-1.371-13.281-7.852-19.84c-5.07-4.922-12.237-7.922-19.679-7.922h-41.699c-7.398,0-14.488,2.949-19.941,8.289
		c-4.828,4.961-7.781,12.051-7.781,19.469c0,7.479,2.879,14.53,8.129,19.839c5.148,5.078,12.191,8.031,19.59,8.031h41.699
		c25.628,0,49.929,9.98,68.409,28.109c18.211,18.16,28.129,42.5,28.129,68.761c0,25.941-9.828,50.211-27.711,68.352
		C1070.614,938.171,1046.373,948.049,1020.896,948.049z"/>
	<rect x="965.494" y="600.393" class="cls-1" width="69.02" height="63.897"/>
	<rect x="965.494" y="913.589" class="cls-1" width="69.02" height="63.839"/>
	<rect x="860.297" y="1930.981" class="cls-1" width="279.349" height="69.019"/>
	<path class="cls-1" d="M1631.703,788.883c0-348.328-283.389-631.705-631.713-631.705c-348.316,0-631.705,283.38-631.705,631.705
		c0,176.807,75.07,346.837,205.959,466.496l1.121,0.987c4.219,3.531,8.5,7.289,12.859,11.09l3.191,2.77
		c80.871,73.764,130.542,175.643,139.309,283.657h-45.028v69.012h46.5v56.687h-46.5v69.019h46.5v56.684h-46.5v69.019h628.553
		v-69.019h-46.438V1748.6h46.438v-69.019h-46.438v-56.687h46.438v-69.012h-45.079c8.776-108.162,58.555-210.021,139.598-283.595
		c5.277-4.781,10.629-9.59,16.879-14.89C1556.594,1135.708,1631.703,965.65,1631.703,788.883z M1198.793,1805.283H801.215V1748.6
		h397.578V1805.283z M1198.793,1679.581H801.215v-56.687h397.578V1679.581z M1380.092,1203.535
		c-5.859,4.961-11.828,10.301-17.719,15.641c-95.421,86.62-153.49,207.057-162.42,334.676H799.938
		c-8.902-127.385-66.89-247.845-162.576-335.129l-3.691-3.219c-4.512-3.941-8.98-7.859-13.371-11.551
		c-116.288-106.589-182.986-257.85-182.986-415.086c0-310.267,252.399-562.686,562.674-562.686s562.693,252.427,562.693,562.686
		C1562.68,946.308,1495.751,1097.786,1380.092,1203.535z"/>
	<path class="cls-1" d="M1168.359,18c-22.296-4.852-45.097-8.773-67.808-11.672l-8.301,65.21
		c20.813,2.648,41.711,6.25,62.12,10.699L1168.359,18z"/>
	<path class="cls-1" d="M903.526,72.147l-8.711-65.159c-22.711,3.039-45.491,7.098-67.71,12.059l14.352,64.171
		C861.815,78.659,882.706,74.937,903.526,72.147z"/>
	<path class="cls-1" d="M1716.577,691.661l65.14-8.75c-3.051-22.68-7.121-45.44-12.109-67.679l-64.14,14.379
		C1710.058,649.99,1713.776,670.872,1716.577,691.661z"/>
	<path class="cls-1" d="M780.602,99.64l-19.898-62.66c-21.718,6.918-43.456,14.871-64.577,23.699l25.32,60.648
		C740.786,113.269,760.707,105.96,780.602,99.64z"/>
	<path class="cls-1" d="M465.737,301.587l-48.577-44.281c-15.387,16.902-30.219,34.652-44.078,52.761l52.23,39.929
		C438.012,333.375,451.629,317.075,465.737,301.587z"/>
	<path class="cls-1" d="M558.42,216.174l-40.198-52.019c-18.039,13.949-35.73,28.89-52.539,44.371l44.559,48.351
		C525.659,242.666,541.869,228.967,558.42,216.174z"/>
	<path class="cls-1" d="M664.427,148.139l-30.55-58.21c-20.211,10.598-40.203,22.25-59.441,34.609l35.512,55.308
		C627.58,168.526,645.908,157.846,664.427,148.139z"/>
	<path class="cls-1" d="M1640.328,452.617l58.179-30.59c-10.629-20.191-22.27-40.199-34.647-59.41l-55.27,35.578
		C1619.918,415.797,1630.59,434.105,1640.328,452.617z"/>
	<path class="cls-1" d="M1530.973,205.506c-16.87-15.359-34.647-30.191-52.819-44.05l-39.87,52.25
		c16.66,12.73,32.948,26.32,48.429,40.39L1530.973,205.506z"/>
	<path class="cls-1" d="M389.211,401.695l-55.487-35.238c-12.262,19.32-23.82,39.398-34.32,59.628l58.358,30.28
		C367.371,437.816,377.961,419.414,389.211,401.695z"/>
	<path class="cls-1" d="M1624.176,306.466c-13.957-18.059-28.887-35.719-44.398-52.5l-48.288,44.589
		c14.21,15.379,27.909,31.59,40.71,48.14L1624.176,306.466z"/>
	<path class="cls-1" d="M1421.689,122.159c-19.281-12.223-39.34-23.742-59.641-34.262l-30.218,58.371
		c18.608,9.641,36.987,20.211,54.679,31.41L1421.689,122.159z"/>
	<path class="cls-1" d="M1688.987,568.795l62.628-19.968c-6.93-21.777-14.941-43.508-23.75-64.578l-60.64,25.398
		C1675.327,528.944,1682.628,548.847,1688.987,568.795z"/>
	<path class="cls-1" d="M1299.616,58.968c-21.148-8.707-42.93-16.57-64.737-23.379l-19.578,62.75
		c19.98,6.238,39.929,13.449,59.3,21.41L1299.616,58.968z"/>
	<path class="cls-1" d="M968.521,66.421c20.5-0.891,40.82-0.91,60.941-0.121l2.559-65.691c-21.918-0.852-43.969-0.82-66.379,0.148
		l-2.27,0.09l2.922,65.679L968.521,66.421z"/>
	<path class="cls-1" d="M467.843,1371.127c16.867,15.422,34.609,30.27,52.738,44.16l39.972-52.184
		c-16.641-12.75-32.897-26.358-48.358-40.487L467.843,1371.127z"/>
	<path class="cls-1" d="M1440.381,1362.416l40.101,52.121c18.109-13.93,35.828-28.82,52.647-44.27l-44.46-48.429
		C1473.251,1335.995,1456.99,1349.654,1440.381,1362.416z"/>
	<path class="cls-1" d="M1610,1177.227l55.41,35.371c12.269-19.23,23.858-39.262,34.448-59.563l-58.288-30.409
		C1631.871,1141.239,1621.238,1159.617,1610,1177.227z"/>
	<path class="cls-1" d="M1533.27,1277.206l48.48,44.391c15.449-16.871,30.328-34.59,44.188-52.68l-52.148-40.03
		C1561.059,1245.477,1547.418,1261.737,1533.27,1277.206z"/>
	<path class="cls-1" d="M1788.1,754.551l-0.172-3.371l-65.569,4.789l0.051,1.43c0.488,10.723,0.699,21.402,0.699,32.031
		c0,10.391-0.211,20.73-0.672,31.031l65.671,2.871c0.48-11.242,0.73-22.539,0.742-33.902
		C1788.85,777.859,1788.611,766.223,1788.1,754.551z"/>
	<path class="cls-1" d="M331.173,513.546l-60.77-25.07c-8.718,21.141-16.589,42.918-23.429,64.718l62.738,19.629
		C315.95,552.865,323.181,532.925,331.173,513.546z"/>
	<path class="cls-1" d="M1706.14,945.378l64.198,14.19c4.93-22.327,8.93-45.128,11.898-67.772l-65.198-8.488
		C1714.339,904.026,1710.671,924.917,1706.14,945.378z"/>
	<path class="cls-1" d="M1668.261,1065.509l60.718,25.191c8.758-21.113,16.688-42.882,23.543-64.683l-62.69-19.738
		C1683.55,1026.229,1676.3,1046.15,1668.261,1065.509z"/>
	<path class="cls-1" d="M277.575,820.328c-0.469-10.719-0.699-21.398-0.699-32.02c0-9.922,0.191-19.801,0.602-29.641l-65.679-2.66
		c-0.438,10.723-0.648,21.473-0.648,32.301c0,11.57,0.242,23.191,0.781,35.621l65.714-2.012L277.575,820.328z"/>
	<path class="cls-1" d="M293.552,633.76l-64.218-14.059c-4.882,22.332-8.839,45.12-11.761,67.78l65.218,8.371
		C285.442,675.103,289.071,654.204,293.552,633.76z"/>
	<path class="cls-1" d="M283.212,884.601l-65.171,8.641c3.012,22.699,7.051,45.48,11.98,67.71l64.179-14.273
		C289.673,926.292,285.974,905.421,283.212,884.601z"/>
	<path class="cls-1" d="M358.953,1123.79l-58.249,30.487c10.578,20.199,22.211,40.219,34.539,59.48l55.351-35.457
		C379.281,1160.66,368.633,1142.31,358.953,1123.79z"/>
	<path class="cls-1" d="M374.813,1269.995c13.938,18.07,28.859,35.762,44.328,52.59l48.401-44.508
		c-14.198-15.422-27.878-31.651-40.659-48.229L374.813,1269.995z"/>
	<path class="cls-1" d="M310.56,1007.549l-62.66,19.82c6.883,21.757,14.832,43.487,23.621,64.628l60.688-25.27
		C324.149,1047.368,316.868,1027.459,310.56,1007.549z"/>
</svg>
