<svg id="Layer_1" data-name="Layer 1" xmlns="http://www.w3.org/2000/svg" viewBox="0 0 2000 2000">
    <defs>
        <style>
            .cls-1 {
                fill: #e74a3e;
            }
            
            .cls-2 {
                fill: #181818;
            }
        </style>
    </defs>
    <title>Icons-Analytics-And-Investment</title>
	<path class="cls-2" d="M693.895,322.762c89.617,0,162.219,72.629,162.219,162.238s-72.598,162.238-162.219,162.238v353.07h324.469
		V171.359H693.895V322.762z"/>
	<circle class="cls-2" cx="693.906" cy="1648.199" r="75.77"/>
	<circle class="cls-2" cx="693.906" cy="485" r="75.77"/>
	<path class="cls-2" d="M1641.355,851.379c-17.238,0-31.281,14.031-31.281,31.289c0,17.301,14.039,31.359,31.281,31.359
		c17.262,0,31.309-14.059,31.309-31.359C1672.664,865.422,1658.605,851.379,1641.355,851.379z"/>
	<path class="cls-2" d="M1419.895,692.551c17.262,0,31.309-14.059,31.309-31.352c0-17.25-14.047-31.301-31.309-31.301
		c-17.27,0-31.328,14.051-31.328,31.301C1388.566,678.488,1402.625,692.551,1419.895,692.551z"/>
	<path class="cls-2" d="M1530.664,379.102c-216.988,0-392.91,175.922-392.91,392.859v362.922l100.531-100.5
		c71.898,80.02,176.23,130.441,292.379,130.461c216.898,0,392.801-175.91,392.801-392.859S1747.574,379.102,1530.664,379.102z
		 M1419.895,558.469c56.66,0,102.73,46.078,102.73,102.73c0.012,56.672-46.07,102.781-102.73,102.781
		c-56.672,0-102.762-46.109-102.762-102.781C1317.133,604.539,1363.223,558.469,1419.895,558.469z M1378.109,975.003l-50.5-50.499
		l355.527-355.527l50.5,50.499L1378.109,975.003z M1641.355,985.461c-56.621,0-102.711-46.121-102.711-102.789
		c0-56.641,46.078-102.719,102.711-102.719c56.66,0,102.73,46.078,102.73,102.719
		C1744.086,939.34,1698.016,985.461,1641.355,985.461z"/>
	<rect x="447.715" y="1325.801" class="cls-1" width="816.801" height="71.43"/>
	<path class="cls-1" d="M974.465,0H737.727v172.66h236.738V0z M903.047,101.23h-93.891V71.43h93.891V101.23z"/>
	<path class="cls-1" d="M758.426,999.051v273.801h195.398V999.051H758.426z M882.395,1201.43h-52.539V1070.48h52.539V1201.43z"/>
	<path class="cls-1" d="M76.594,1814.559V2000h1187.953l-0.004-185.441H891.828v-163.145
		c51.611-17.373,100.787-41.683,146.504-72.469l-39.898-59.25c-37.236,25.083-77.045,45.268-118.721,60.292
		c-27.852-75.637-100.633-129.729-185.814-129.729c-85.21,0-158.02,54.117-185.863,129.781
		c-213.746-77.351-360.071-283.384-360.071-513.418c0-230.019,146.329-436.072,360.081-513.421
		c27.852,75.645,100.647,129.749,185.849,129.749c109.141,0,197.941-88.809,197.93-197.949c0-109.16-88.789-197.949-197.93-197.949
		c-108.066,0-196.177,87.034-197.92,194.7C247.605,565.72,76.535,802.17,76.535,1066.629c0,264.438,171.053,500.892,419.402,584.869
		v163.061H76.594z M693.895,358.48c69.75,0,126.512,56.75,126.5,126.52c0,69.77-56.75,126.52-126.5,126.52
		c-69.77,0-126.539-56.75-126.539-126.52S624.125,358.48,693.895,358.48z M891.836,1886h301.277v42.57H148.023V1886h347.914h395.891
		H891.836z M567.367,1648.199c0-69.75,56.77-126.512,126.539-126.512c69.75,0,126.5,56.75,126.5,126.512v166.359H567.367V1648.199z"
		/>
</svg>
