<svg id="Layer_1" data-name="Layer 1" xmlns="http://www.w3.org/2000/svg" viewBox="0 0 2000 2000">
    <defs>
        <style>
            .cls-1 {
                fill: #e74a3e;
            }
            
            .cls-2 {
                fill: #181818;
            }
        </style>
    </defs>
    <title>Icons-Analytics-And-Investment</title>
	<path class="cls-2" d="M1603.484,1077.992H396.406c-17.328,98.922-95.531,177.141-194.41,194.469v336.059
		c98.879,17.34,177.078,95.559,194.41,194.48h1207.078c17.34-98.93,95.629-177.16,194.629-194.488V1272.48
		C1699.125,1255.152,1620.824,1176.91,1603.484,1077.992z M1000.016,1742.59c-166.859,0-302.102-135.27-302.102-302.09
		c0-166.809,135.238-302.102,302.102-302.102c166.891,0,301.809,135.289,301.809,302.102
		C1301.836,1607.309,1166.906,1742.59,1000.016,1742.59z"/>
	<path class="cls-2" d="M4.875,880.988V2000h1990.25V880.988H4.875z M1881.035,1687.867h-41.461
		c-86.441,0-156.77,70.25-156.77,156.602v41.461H317.074v-41.461c0-86.352-70.23-156.602-156.539-156.602h-41.461v-494.738h41.461
		c86.309,0,156.539-70.238,156.539-156.602v-41.461h1365.73v41.461c0,86.359,70.332,156.602,156.77,156.602h41.461V1687.867z"/>
	<path class="cls-1" d="M1000.016,0c-0.001,0-0.001,0-0.002,0c0,0-0.001,0-0.001,0l0,0
		C514.232,0.002,119.016,395.212,119.023,880.988h82.926c0-178.192,58.713-342.928,157.801-475.892
		c76.356,23.919,153.873,43.482,232.276,58.642c-34.056,123.535-53.222,265.326-53.222,417.25h82.93
		c0-145.701,19.654-283.784,53.555-402.856c93.489,14.262,188.079,22.353,283.316,24.167V880.98h82.93V502.298
		c95.234-1.816,189.795-9.897,283.231-24.137c33.896,119.064,53.546,257.137,53.546,402.827h82.922
		c0-151.906-19.162-293.683-53.211-417.208c78.429-15.154,155.952-34.713,232.297-58.628
		c99.055,132.954,157.746,297.668,157.746,475.836h82.93C1880.996,395.211,1485.797,0,1000.016,0z M417.528,336.011
		C511.624,235.505,631.354,159.287,766.18,117.89c-59.884,66.018-110.852,157.059-149.258,266.188
		C549.726,371.4,483.199,355.372,417.528,336.011z M701.232,398.158c61.732-168.107,154.023-285.225,257.374-310.23v331.438
		C872.125,417.652,786.214,410.549,701.232,398.158z M1041.535,419.364V87.961c103.322,25.063,195.578,142.165,257.289,310.226
		C1213.893,410.557,1128.01,417.649,1041.535,419.364z M1383.132,384.119c-38.409-109.15-89.386-200.208-149.281-266.235
		c134.852,41.403,254.601,117.643,348.702,218.179C1516.889,355.422,1450.353,371.447,1383.132,384.119z"/>
	<path class="cls-1" d="M1024.82,1399.031h-49.578c-8.672,0-16.941-3.457-22.922-9.328c-6.121-6.199-9.512-14.492-9.512-23.301
		c0-8.68,3.469-17.039,8.988-22.738c6.402-6.242,14.73-9.691,23.441-9.691h49.578c8.582,0,17.141,3.543,22.922,9.172
		c7.75,7.871,9.391,16.992,9.391,23.262h82.922c0-30.832-11.84-59.781-33.871-82.07c-17.634-17.201-40.547-28.442-64.645-32.04
		v-35.694h-82.93v35.639c-24.286,3.508-46.961,14.714-65.504,32.857c-21.43,22.02-33.219,50.898-33.219,81.309
		c0,30.77,11.871,59.742,33.852,81.98c21.988,21.66,50.941,33.57,81.5,33.57h49.574c8.531,0,17.051,3.559,23.141,9.52
		c7.973,7.957,9.172,17.848,9.172,23.059c0,6.301-1.621,15.453-8.871,22.762c-6.328,6.18-14.891,9.73-23.449,9.73h-49.578
		c-8.707,0-17.027-3.449-22.719-8.988c-6.25-6.422-9.699-14.781-9.699-23.5h-82.922c0,30.48,11.801,59.383,33.961,82.102
		c17.953,17.535,40.508,28.629,64.762,32.118v35.612h82.93v-35.672c24.114-3.607,47.109-14.921,65.168-32.547
		c21.5-21.738,33.359-50.711,33.359-81.609c0-31.16-11.91-60.223-33.781-82.012C1084.59,1411.25,1054.898,1399.031,1024.82,1399.031
		z"/>
	<rect x="1444.504" y="1399" class="cls-1" width="221.898" height="82.93"/>
	<rect x="333.656" y="1399" class="cls-1" width="221.699" height="82.93"/>
</svg>
