<svg id="Layer_1" data-name="Layer 1" xmlns="http://www.w3.org/2000/svg" viewBox="0 0 2000 2000">
    <defs>
        <style>
            .cls-1 {
                fill: #e74a3e;
            }
            
            .cls-2 {
                fill: #181818;
            }
        </style>
    </defs>
    <title>Icons-Analytics-And-Investment</title>
<path class="cls-2" d="M924.418,1019.262c-173.98,0-315.09,141.09-315.09,315.09s141.109,315.102,315.09,315.102
	c173.93,0,315.121-141.113,315.121-315.102C1239.539,1160.34,1098.352,1019.262,924.418,1019.262z M1023.566,1479.723
	c-17.138,16.933-38.584,27.438-61.648,30.508v19.199h-75.02v-19.196c-23.148-3.066-44.587-13.563-61.43-30.354
	c-20.289-20.34-31.398-47.25-31.398-75.871h75.02c0,8.609,3.34,16.73,9.398,22.789c6.012,6,14.102,9.359,22.691,9.359h46.48
	c8.551,0,16.672-3.41,22.898-9.539c5.852-5.91,9.219-14.02,9.219-22.609s-3.34-16.648-9.379-22.711
	c-6.09-6.059-14.18-9.43-22.738-9.43h-46.48c-28.629,0-55.539-11.148-75.789-31.41c-20.191-20.211-31.328-47.109-31.328-75.75
	c0-28.648,11.121-55.59,31.309-75.801c16.965-16.857,38.401-27.35,61.527-30.414v-19.191h75.02v19.194
	c23.025,3.059,44.42,13.493,61.324,30.173c20.441,20.59,31.551,47.469,31.551,76.039h-75.02c0-8.602-3.371-16.738-9.469-22.879
	c-5.949-5.871-14.109-9.262-22.648-9.262h-46.48c-8.59,0-16.672,3.34-22.828,9.441c-5.922,5.949-9.262,14.039-9.262,22.699
	c0,8.59,3.328,16.672,9.359,22.719c6.078,6.059,14.141,9.398,22.73,9.398h46.48c28.539,0,55.441,11.141,75.738,31.379
	c20.281,20.289,31.41,47.199,31.41,75.801C1054.805,1432.516,1043.715,1459.414,1023.566,1479.723z"/>
<path class="cls-1" d="M1709.199,1609.5v-70.391v-75.031v-145.379h-124.638L1176.27,611.391V456.502l176.82-176.803
	c30.039-27.84,47.289-67.172,47.289-107.891c0-81.102-65.973-147.102-147.051-147.102c-43.539,0-82.711,18.98-109.68,49.09
	c-26.941-30.121-66.102-49.09-109.59-49.09c-43.5,0-82.668,18.98-109.629,49.09c-26.957-30.121-66.09-49.09-109.578-49.09
	c-43.52,0-82.668,18.988-109.629,49.09c-26.961-30.102-66.141-49.09-109.691-49.09c-81.09,0-147.059,66-147.059,147.102
	c0,39.57,15.508,76.73,43.539,104.441l180.527,180.555V611.34l-417.438,723.063c-23.316,40.403-39.67,83.897-48.792,129.676H0
	V1609.5v75.02v70.359v75.031v145.379h365.801v-87.697c73.734,56.451,164.51,87.697,259.289,87.697h598.629
	c40.735,0,80.805-5.775,119.691-17.214v17.214h290.77h75.02H2000V1829.91v-75.031V1609.5H1709.199z M544.918,223.035
	c-13.82-13.66-21.43-31.859-21.43-51.238c0-39.758,32.301-72.078,72.09-72.078c39.77,0,72.121,32.316,72.121,72.078h75.02
	c0-39.758,32.352-72.078,72.121-72.078c39.75,0,72.07,32.316,72.07,72.078h75.02c0-39.758,32.352-72.078,72.121-72.078
	c39.738,0,72.059,32.316,72.059,72.078h75.031c0-39.758,32.391-72.078,72.18-72.078c39.73,0,72.031,32.316,72.031,72.078
	c0,20.18-8.262,38.961-24.301,53.852L1122.91,403.77H725.609L544.918,223.035z M1101.25,478.801v105.082H747.559V478.801H1101.25z
	 M290.77,1900.27H75.02v-70.359h215.75V1900.27z M290.77,1754.879H75.02v-70.359h215.75V1754.879z M290.77,1609.5H75.02v-70.391
	h215.75V1609.5z M1343.41,1464.078v75.031v70.391v75.02v70.359v75.031v49.229c-38.607,14.02-78.761,21.118-119.691,21.118H625.09
	c-99.028,0-192.778-41.379-259.289-113.996v-31.383v-70.359v-75.02v-145.422h-82.647c7.881-32.376,20.223-63.244,36.917-92.16
	L731.699,658.91h385.371l380.969,659.789H1343.41V1464.078z M1634.18,1900.27h-215.75v-70.359h215.75V1900.27z M1634.18,1754.879
	h-215.75v-70.359h215.75V1754.879z M1634.18,1609.5h-215.75v-70.391h215.75V1609.5z M1634.18,1464.078h-215.75v-70.359h215.75
	V1464.078z M1924.98,1900.27h-215.781v-70.359h215.781V1900.27z M1924.98,1754.879h-215.781v-70.359h215.781V1754.879z"/>
</svg>
