<svg id="Layer_1" data-name="Layer 1" xmlns="http://www.w3.org/2000/svg" viewBox="0 0 2000 2000">
    <defs>
        <style>
            .cls-1 {
                fill: #e74a3e;
            }
            
            .cls-2 {
                fill: #181818;
            }
        </style>
    </defs>
    <title>Icons-Analytics-And-Investment</title>
	<path class="cls-2" d="M1336.694,548.967H369.916c0,82.397-66.729,149.269-149.198,149.269v310.308
	c82.48,0,149.198,66.852,149.198,149.261h966.778c0-82.409,67.03-149.261,149.39-149.261V698.235
	C1403.725,698.235,1336.694,631.365,1336.694,548.967z M853.375,1098.582c-135.397,0-245.197-109.82-245.197-245.198
	c0-135.391,109.788-245.198,245.197-245.198c135.441,0,245.031,109.808,245.031,245.198
	C1098.406,988.762,988.816,1098.582,853.375,1098.582z"/>
	<rect x="376.846" y="1514.803" class="cls-1" width="73.309" height="73.32"/>
	<rect x="1843.09" y="705.204" class="cls-1" width="73.309" height="73.309"/>
	<rect x="1843.082" y="1113.176" class="cls-1" width="73.309" height="66.929"/>
	<rect x="1843.082" y="1247.042" class="cls-1" width="73.309" height="66.922"/>
	<rect x="1843.082" y="845.423" class="cls-1" width="73.309" height="66.94"/>
	<rect x="1843.082" y="979.305" class="cls-1" width="73.309" height="66.93"/>
	<rect x="1843.082" y="1380.912" class="cls-1" width="73.309" height="66.93"/>
	<rect x="1843.09" y="1514.803" class="cls-1" width="73.309" height="73.32"/>
	<rect x="816.704" y="1514.771" class="cls-1" width="73.319" height="73.32"/>
	<rect x="523.479" y="1514.771" class="cls-1" width="73.309" height="73.32"/>
	<rect x="963.336" y="1514.771" class="cls-1" width="73.32" height="73.32"/>
	<rect x="670.099" y="1514.771" class="cls-1" width="73.309" height="73.32"/>
	<rect x="1109.965" y="1514.771" class="cls-1" width="73.308" height="73.32"/>
	<rect x="1549.822" y="1514.771" class="cls-1" width="73.309" height="73.32"/>
	<rect x="1256.585" y="1514.771" class="cls-1" width="73.309" height="73.32"/>
	<rect x="1696.462" y="1514.771" class="cls-1" width="73.309" height="73.32"/>
	<rect x="1403.205" y="1514.771" class="cls-1" width="73.309" height="73.32"/>
	<path class="cls-1" d="M1623.131,411.936H83.597v882.896h146.632v146.632h1539.541V558.564h-146.64V411.936z M156.91,1221.522
		V485.256h1392.917v736.267H156.91z M1696.45,631.885v736.258H303.538v-73.312h1319.593V631.885H1696.45z"/>
	<path class="cls-1" d="M833.763,772.665h39.288c5.813,0,11.609,2.41,15.551,6.262c5.199,5.23,6.289,11.41,6.289,15.68h73.309
		c0-25.512-9.801-49.441-27.949-67.711c-14.012-13.704-31.429-22.653-50.234-26.022v-25.067h-73.319v25.09
		c-18.828,3.41-36.321,12.47-50.672,26.598c-17.73,18.121-27.5,41.949-27.5,67.121c0,25.469,9.82,49.402,27.922,67.641
		c18.129,17.91,42.02,27.78,67.309,27.78h39.288c5.762,0,11.543,2.43,15.762,6.59c5.012,4.98,6.07,11.152,6.07,15.48
		c0,4.301-1.09,10.5-5.93,15.352c-4.301,4.23-10.102,6.629-15.91,6.629h-39.288c-5.902,0-11.543-2.332-15.352-6.07
		c-4.242-4.34-6.57-9.98-6.57-15.91h-73.32c0,25.211,9.773,49.078,28.012,67.699c13.961,13.721,31.368,22.683,50.18,26.067v25.03
		h73.319v-25.022c18.811-3.384,36.291-12.389,50.57-26.376c17.801-17.898,27.609-41.84,27.609-67.41
		c0-25.819-9.879-49.831-27.879-67.659c-18.168-17.867-42.07-27.719-67.27-27.719h-39.288c-5.848,0-11.449-2.352-15.52-6.371
		c-4.117-4.16-6.398-9.75-6.398-15.738c0-5.902,2.34-11.531,6.07-15.371C822.224,774.993,827.864,772.665,833.763,772.665z"/>
	<rect x="1188.292" y="816.704" class="cls-1" width="167.261" height="73.308"/>
	<rect x="351.198" y="816.704" class="cls-1" width="167.077" height="73.308"/>
	<path class="cls-1" d="M1333.63,184.578l-113.994,16.55l10.539,72.559l229.229-33.309l-33.301-229.241l-72.538,10.539
		l14.077,96.885c-245.195-177.35-590.749-155.726-811.445,64.907l51.84,51.84C805.646,37.752,1116.601,20.875,1333.63,184.578z"/>
	<path class="cls-1" d="M666.377,1815.442l113.987-16.563l-10.539-72.531l-229.237,33.273l33.301,229.269l72.538-10.539
		l-14.079-96.895C741.623,1960.481,870.817,2000,1000.004,2000c160.729,0,321.448-61.141,443.779-183.44l-51.828-51.859
		C1194.376,1962.24,883.438,1979.152,666.377,1815.442z"/>
</svg>
