<svg id="Layer_1" data-name="Layer 1" xmlns="http://www.w3.org/2000/svg" viewBox="0 0 2000 2000">
    <defs>
        <style>
            .cls-1 {
                fill: #e74a3e;
            }
            
            .cls-2 {
                fill: #181818;
            }
        </style>
    </defs>
    <title>Icons-Analytics-And-Investment</title>
	<path class="cls-1" d="M1000,584.02c-229.74,0-415.98,186.241-415.98,415.98s186.24,415.98,415.98,415.98
		c229.739,0,415.98-186.241,415.98-415.98S1229.739,584.02,1000,584.02z M937.5,946.281c8.879,8.781,20.82,13.738,33.391,13.738
		h58.469c33.078,0,65.789,13.48,89.789,36.98c23.969,23.859,37.051,55.871,37.051,90.359c0,34.23-13.031,66.16-36.672,89.93
		c-21.779,21.273-50.182,34.242-79.527,36.789v49.852h-80v-49.846c-29.719-2.507-57.458-15.244-78.996-36.545
		c-24.16-24.531-37.25-56.41-37.25-90.172h80c0,12.629,4.941,24.57,13.871,33.629c8.699,8.59,20.648,13.551,33.262,13.551h58.469
		c12.352,0,24.699-5.148,33.859-14.078c8.23-8.281,12.98-20.172,12.98-33.109c0-13.051-4.699-24.922-13.25-33.422
		c-8.949-8.77-21.262-13.93-33.578-13.93h-58.469c-33.82,0-65.762-13.18-89.922-37.141c-24.078-24.23-37.219-56.199-37.219-90.23
		c0-33.559,13.059-65.41,36.781-89.648c21.959-21.708,49.725-34.499,79.461-37.013V736h80v49.979
		c29.366,2.543,57.725,15.485,79.121,36.369c24.09,24.379,37.078,56.25,37.078,90.289h-80c0-9.09-2.32-22.289-13.488-33.578
		c-8.648-8.441-21-13.559-33.352-13.559h-58.469c-12.621,0-24.578,4.941-33.641,13.91c-8.531,8.719-13.5,20.699-13.5,33.23
		C923.75,925.402,928.641,937.34,937.5,946.281z"/>
	<path class="cls-1" d="M1637.988,960.066v40c0,170.41-66.402,330.59-186.98,451.039l-28.309,28.262l256.109,256.191l28.301-28.293
		c188.828-188.879,292.84-440.039,292.84-707.199v-40H1637.988z M1678.211,1621.809l-143.121-143.16
		c109.34-121.848,172.891-275.109,181.801-438.602h202.23C1909.891,1257.539,1825.422,1461.508,1678.211,1621.809z"/>
	<path class="cls-1" d="M755.973,410.68c77.617-32.16,159.648-48.512,243.828-48.57l39.969-0.031V0h-40
		C867.102,0,738.43,25.719,617.344,76.402l-36.762,15.41l138.43,334.199L755.973,410.68z M959.758,80.84v202.402
		c-67.422,3.75-133.43,16.891-197.051,39.25l-77.398-186.871C773.281,103.25,865.27,84.891,959.758,80.84z"/>
	<path class="cls-2" d="M1199.738,20.16v374.16c191.281,63.219,342.773,214.559,406.09,405.738h373.781
		C1899.84,408.801,1591.078,99.84,1199.738,20.16z"/>
	<path class="cls-2" d="M999.949,1637.961c-351.781,0-637.969-286.211-637.969-637.988c0-189.488,83.18-364.02,221.551-482.961
		l-143.172-345.66C167.93,354.469,0.051,662.172,0.051,1000.191C0.051,1551.488,448.512,2000,999.77,2000
		c199.32,0,389.66-57.809,551.891-165.328l-264.762-264.813C1198.988,1614.289,1101.297,1637.961,999.949,1637.961z"/>
</svg>
