<svg id="Layer_1" data-name="Layer 1" xmlns="http://www.w3.org/2000/svg" viewBox="0 0 2000 2000">
    <defs>
        <style>
            .cls-1 {
                fill: #e74a3e;
            }
            
            .cls-2 {
                fill: #181818;
            }
        </style>
    </defs>
    <title>Icons-Analytics-And-Investment</title>
	<path class="cls-2" d="M1196.762,672.984c-35.031,73.57-109.828,124.57-196.762,124.57c-86.922,0-161.73-51-196.75-124.57H439.379
		v747.5h1121.23v-747.5H1196.762z M906.582,1361.465h-62.281v-68.961h62.281V1361.465z M1031.109,1361.465h-62.309v-68.961h62.309
		V1361.465z M1155.688,1361.465h-62.289v-68.961h62.289V1361.465z"/>
	<path class="cls-2" d="M1000,696.773c64.711,0,117.25-52.488,117.25-117.238c0-64.738-52.543-117.238-117.25-117.238
		s-117.238,52.5-117.238,117.238C882.762,644.285,935.289,696.773,1000,696.773z"/>
	<path class="cls-1" d="M2000,1661.496l-168.898-337.801h-83.613v68.969h41l121.267,242.539H90.247l121.273-242.539h40.98v-68.969
		h-83.602L0,1661.496v167.207h311.5v90.09h68.961v-90.09h55.57v90.09h68.961v-90.09H1495v90.09h68.961v-90.09h55.641v90.09h68.961
		v-90.09H2000V1661.496z M68.961,1759.746v-55.582h1862.078v55.582H68.961z"/>
	<polygon class="cls-1" points="311.5,1479.406 252.5,1479.406 252.5,1548.367 1747.5,1548.367 1747.5,1479.406 1688.563,1479.406 
		1688.563,579.535 1688.539,579.535 1688.539,420.477 1311.461,420.477 1311.461,489.445 1619.57,489.445 1619.57,545.047 
		1311.461,545.047 1311.461,614.016 1619.602,614.016 1619.602,1479.406 380.461,1479.406 380.461,614.016 688.539,614.016 
		688.539,545.047 380.43,545.047 380.43,489.445 688.539,489.445 688.539,420.477 311.461,420.477 311.461,614.016 311.5,614.016 	
		"/>
	<rect x="750.801" y="1012.203" class="cls-1" width="498.328" height="68.961"/>
	<path class="cls-1" d="M1000,832.035c139.238,0,252.512-113.27,252.512-252.5c0-139.219-113.281-252.5-252.512-252.5
		s-252.5,113.281-252.5,252.5C747.5,718.766,860.762,832.035,1000,832.035z M1000,395.996c101.199,0,183.539,82.34,183.539,183.539
		c0,101.211-82.34,183.539-183.539,183.539s-183.539-82.328-183.539-183.539C816.461,478.336,898.801,395.996,1000,395.996z"/>
	<rect x="965.5" y="81.203" class="cls-1" width="68.961" height="124.578"/>
	<rect x="1090.102" y="143.504" class="cls-1" width="68.961" height="124.578"/>
	<rect x="840.898" y="143.504" class="cls-1" width="68.969" height="124.578"/>
</svg>
