<svg id="Layer_1" data-name="Layer 1" xmlns="http://www.w3.org/2000/svg" viewBox="0 0 2000 2000">
    <defs>
        <style>
            .cls-1 {
                fill: #e74a3e;
            }
            
            .cls-2 {
                fill: #181818;
            }
        </style>
    </defs>
    <title>Icons-Analytics-And-Investment</title>
	<path class="cls-2" d="M1286.5,175.898H713.609C662.66,384.32,499.098,549.027,291.348,601.66
	c37.641,483.762,300.328,927.18,708.68,1192.711c408.281-265.469,670.988-708.949,708.621-1192.711
	C1500.961,549,1337.43,384.289,1286.5,175.898z M1000,1253.75c-190.762,0-345.359-154.609-345.359-345.371
	c0-190.75,154.602-345.34,345.359-345.34s345.34,154.59,345.34,345.34C1345.34,1099.141,1190.762,1253.75,1000,1253.75z"/>
	<path class="cls-1" d="M1851.469,443.48c-223.668,0-405.629-182.012-405.629-405.711V0H554.281v37.758
		c0,223.699-182.02,405.711-405.75,405.711h-37.77v37.77c0,619.523,333.5,1197.281,870.359,1507.84l18.91,10.922l18.906-10.91
		c536.813-310.469,870.301-888.238,870.301-1507.84v-37.77H1851.469z M1000.031,1912.57
		c-492.102-293.41-800.77-823.488-813.34-1395.059C421.84,498.98,610,310.699,628.352,75.531h743.422
		c18.348,235.172,206.449,423.449,441.539,441.98C1800.742,1089.141,1492.109,1619.25,1000.031,1912.57z"/>
	<path class="cls-1" d="M1023.059,870.645H977.18c-8.203,0-15.992-3.23-21.691-8.879c-5.758-5.801-8.93-13.59-8.93-21.91
		c0-8.191,3.238-16.02,8.66-21.57c5.91-5.848,13.719-9.078,21.949-9.078h45.879c8.07,0,16.129,3.379,21.641,8.738
		c7.25,7.332,8.762,15.961,8.762,21.91h75.539c0-28.391-10.84-55.012-31.039-75.461c-16.68-16.269-37.619-26.538-60.109-29.679
		v-33.517h-75.539v33.521c-22.638,3.163-43.675,13.548-60.648,30.315c-19.758,20.25-30.629,46.809-30.629,74.828
		c0,28.379,10.949,55.07,31.078,75.34c20.16,19.977,46.82,30.988,75.059,30.988h45.879c8.008,0,16.07,3.391,21.879,9.07
		c7.43,7.402,8.531,16.781,8.531,21.711c0,5.98-1.5,14.609-8.238,21.41c-6.059,5.902-14.121,9.281-22.16,9.281h-45.879
		c-8.207,0-16.008-3.25-21.559-8.711c-5.84-5.941-9.059-13.75-9.059-21.98h-75.531c0,28.148,10.898,54.77,31.129,75.34
		c16.589,16.374,37.552,26.702,60.148,29.86v33.425h75.539v-33.465c22.357-3.242,43.746-13.729,60.531-30.098
		c19.758-19.891,30.629-46.551,30.629-75.07c0-28.77-10.93-55.461-30.98-75.441C1077.98,881.895,1050.68,870.645,1023.059,870.645z"
		/>
	<path class="cls-1" d="M1000,525.27c-211.25,0-383.129,171.871-383.129,383.109c0,211.262,171.879,383.141,383.129,383.141
		s383.109-171.871,383.109-383.141C1383.109,697.148,1211.25,525.27,1000,525.27z M1000,1215.988
		c-169.602,0-307.59-138-307.59-307.609c0-169.602,137.988-307.57,307.59-307.57s307.57,137.961,307.57,307.57
		S1169.602,1215.988,1000,1215.988z"/>
</svg>
