<svg id="Layer_1" data-name="Layer 1" xmlns="http://www.w3.org/2000/svg" viewBox="0 0 2000 2000">
    <defs>
        <style>
            .cls-1 {
                fill: #e74a3e;
            }
            
            .cls-2 {
                fill: #181818;
            }
        </style>
    </defs>
    <title>Icons-Analytics-And-Investment</title>
	<path class="cls-2" d="M1000,475.559c-373.73,0-676.691,302.961-676.691,676.711c0,373.738,302.961,676.672,676.691,676.672
	c373.738,0,676.691-302.93,676.691-676.672C1676.691,778.52,1373.738,475.559,1000,475.559z M1000,1547
	c-217.672,0-394.762-177.078-394.762-394.738c0-217.68,177.09-394.762,394.762-394.762s394.762,177.078,394.762,394.762
	C1394.762,1369.922,1217.672,1547,1000,1547z"/>
	<path class="cls-1" d="M1035.742,305.289v-30.847h65.758c36.648,0,71.121-14.281,97.047-40.211
		c25.91-25.922,40.191-60.371,40.191-97.012c0-36.648-14.277-71.09-40.199-97.039C1172.617,14.27,1138.156,0,1101.508,0h-203.02
		c-36.637,0-71.109,14.27-97.008,40.18c-25.922,25.918-40.211,60.367-40.211,97.039c0,36.652,14.289,71.113,40.199,97.012
		c25.918,25.922,60.379,40.211,97.02,40.211h65.813v30.845c-450.95,18.774-812.039,391.482-812.039,846.983
		c0,467.43,380.297,847.73,847.738,847.73s847.738-380.301,847.738-847.73C1847.738,696.794,1486.672,324.085,1035.742,305.289z
		 M898.488,203.016c-17.551,0-34.078-6.852-46.5-19.281c-12.43-12.434-19.289-28.953-19.289-46.512
		c0-17.582,6.859-34.102,19.301-46.531c12.41-12.422,28.93-19.262,46.488-19.262c0,0,203.023,0,203.02,0
		c17.563,0,34.102,6.832,46.512,19.262c12.43,12.43,19.281,28.953,19.281,46.531c0,17.563-6.852,34.09-19.262,46.512
		c-12.43,12.43-28.961,19.281-46.531,19.281h-65.766v-65.797h-71.441v65.797H898.488z M1000,1928.578
		c-428.059,0-776.32-348.258-776.32-776.309c0-428.082,348.262-776.32,776.32-776.32s776.309,348.242,776.309,776.32
		C1776.309,1580.316,1428.059,1928.578,1000,1928.578z"/>
		<rect x="964.301" y="577.07" class="cls-1" width="71.43" height="78.941"/>
		<rect x="692.685" y="652.622" transform="matrix(0.5003 0.8658 -0.8658 0.5003 961.8303 -289.9725)" class="cls-1" width="78.922" height="71.434"/>
		<rect x="496.551" y="848.615" transform="matrix(0.866 0.5001 -0.5001 0.866 514.0764 -149.5349)" class="cls-1" width="78.936" height="71.417"/>
		<rect x="424.801" y="1116.5" class="cls-1" width="78.961" height="71.43"/>
		<rect x="500.387" y="1380.598" transform="matrix(-0.5005 -0.8657 0.8657 -0.5005 -424.9681 2594.9329)" class="cls-1" width="71.404" height="78.923"/>
		<rect x="696.451" y="1576.681" transform="matrix(-0.866 -0.5001 0.5001 -0.866 558.0115 3381.8513)" class="cls-1" width="71.436" height="78.944"/>
		<rect x="964.301" y="1648.5" class="cls-1" width="71.43" height="78.93"/>
		<rect x="1228.423" y="1580.474" transform="matrix(-0.5005 -0.8657 0.8657 -0.5005 503.3439 3522.7573)" class="cls-1" width="78.955" height="71.404"/>
		<rect x="1424.485" y="1384.446" transform="matrix(-0.8662 -0.4997 0.4997 -0.8662 2022.4343 3381.8552)" class="cls-1" width="79.012" height="71.423"/>
		<rect x="1496.199" y="1116.5" class="cls-1" width="78.969" height="71.43"/>
		<rect x="1428.239" y="844.884" transform="matrix(0.5 0.866 -0.866 0.5 1497.8685 -825.6226)" class="cls-1" width="71.428" height="79.025"/>
		<rect x="1231.995" y="648.819" transform="matrix(0.8659 0.5002 -0.5002 0.8659 514.2838 -541.825)" class="cls-1" width="71.429" height="78.938"/>
		<path class="cls-1" d="M972.402,1022.492h55.449c12.281,0,24.582,5.109,33.211,13.52c11.09,11.23,13.41,24.371,13.41,33.41h71.43
		c0-31.688-12.078-61.367-34.469-84.059c-20.43-19.926-47.658-32.077-75.691-34.01v-49.455h-71.441v49.454
		c-28.453,1.917-55.072,13.913-75.988,34.601c-22.09,22.609-34.262,52.23-34.262,83.48c0,31.68,12.238,61.441,34.648,84
		c22.48,22.301,52.219,34.59,83.699,34.59h55.461c12.27,0,24.52,5.117,33.43,13.809c8.5,8.477,13.191,20.309,13.191,33.309
		c0,12.859-4.73,24.711-12.93,32.961c-9.121,8.891-21.402,14-33.691,14h-55.461c-12.527,0-24.418-4.922-33.129-13.512
		c-8.891-9.039-13.781-20.902-13.781-33.461h-71.441c0,31.441,12.203,61.141,34.672,83.922c20.549,20.303,47.14,32.275,75.582,34.19
		v49.38h71.441v-49.381c28.031-1.938,55.271-14.118,76.051-34.396c21.992-22.102,34.102-51.82,34.102-83.711
		c0-32.129-12.152-61.91-34.441-84.129c-22.363-21.871-52.84-34.422-83.602-34.422h-55.461c-12.531,0-24.402-4.93-33.23-13.68
		c-8.82-8.891-13.68-20.781-13.68-33.48c0-12.469,4.922-24.379,13.461-33.109C947.961,1027.402,959.844,1022.492,972.402,1022.492z"
		/>
		<path class="cls-1" d="M1652.094,435.836c6.941-6.949,19.121-6.887,26.031,0.012l38.262,38.27c2.02,2.012,5.41,6.41,5.41,13.031
		c0,4.93-1.91,9.551-5.398,13.039l-47.84,47.852l50.512,50.5l47.82-47.82c16.98-16.957,26.34-39.539,26.34-63.559
		c0-23.969-9.348-46.527-26.328-63.539l-38.281-38.281c-16.98-16.949-39.531-26.289-63.531-26.309
		c-24.031,0.027-46.59,9.379-63.512,26.309l-47.871,47.852l50.512,50.52L1652.094,435.836z"/>
		<path class="cls-1" d="M280.93,598.52l50.488-50.488L283.59,500.18c-3.48-3.48-5.402-8.121-5.422-12.941
		c0.023-4.973,1.941-9.633,5.422-13.121l38.25-38.25c2.02-2.023,6.41-5.422,13.02-5.422c4.949,0,9.578,1.93,13.059,5.398
		l47.859,47.852l50.512-50.52l-47.871-47.852c-16.938-16.949-39.5-26.289-63.539-26.309c-23.969,0-46.531,9.34-63.52,26.32
		l-38.281,38.281c-16.938,16.953-26.289,39.48-26.328,63.602c0.039,23.98,9.41,46.52,26.34,63.449L280.93,598.52z"/>
</svg>
