<svg id="Layer_1" data-name="Layer 1" xmlns="http://www.w3.org/2000/svg" viewBox="0 0 2000 2000">
    <defs>
        <style>
            .cls-1 {
                fill: #e74a3e;
            }
            
            .cls-2 {
                fill: #181818;
            }
        </style>
    </defs>
    <title>Icons-Analytics-And-Investment</title>
	<polygon class="cls-2" points="450.301,1297.012 450.301,1707.84 1549.719,1707.84 1549.719,730.539 1305.379,1113.301 
	1122.211,991.602 877.891,1266.719 694.59,1083.48 "/>
	<rect x="961.5" y="126.828" class="cls-1" width="76.922" height="76.922"/>
	<rect x="853.898" y="1796.199" class="cls-1" width="292.102" height="76.922"/>
	<path class="cls-1" d="M1525.277,0H474.789c-120.188,0-217.98,97.762-217.98,217.941v1564.34
		c0,120.039,97.789,217.719,217.98,217.719h1050.492c120.168,0,217.91-97.68,217.906-217.719V217.941
		C1743.188,97.762,1645.449,0,1525.277,0z M1666.266,1782.281c0,77.641-63.258,140.801-140.988,140.801H474.789
		c-77.777,0-141.059-63.16-141.059-140.801V217.941c0-77.75,63.277-141.02,141.059-141.02c0,0,1050.492,0,1050.488,0
		c77.738,0,140.988,63.27,140.988,141.02V1782.281z"/>
	<path class="cls-1" d="M411.844,1746.309h1176.328V253.699H411.844V1746.309z M488.762,1669.379v-354.904l204.059-178.373
		l186.719,186.668l249.23-280.629l187.949,124.871L1511.25,862.28v807.099H488.762z M1511.25,330.621v388.691l-217.219,340.278
		l-178.391-118.531L876.23,1210.66l-179.871-179.82l-207.598,181.472v-881.69H1511.25z"/>
	<rect x="684.602" y="468.809" class="cls-1" width="630.801" height="76.922"/>
	<rect x="684.602" y="622.699" class="cls-1" width="315.391" height="76.922"/>
</svg>
