<svg id="Layer_1" data-name="Layer 1" xmlns="http://www.w3.org/2000/svg" viewBox="0 0 2000 2000">
    <defs>
        <style>
            .cls-1 {
                fill: #e74a3e;
            }
            
            .cls-2 {
                fill: #181818;
            }
        </style>
    </defs>
    <title>Icons-Analytics-And-Investment</title>
	<path class="cls-2" d="M1000,660.996c-239.636,0-433.898,194.263-433.898,433.898S760.364,1528.793,1000,1528.793
		s433.898-194.263,433.898-433.898S1239.636,660.996,1000,660.996z M1000,1420.906c-179.781,0-326.039-146.262-326.039-326.039
		c0-179.789,146.262-326.039,326.039-326.039c179.789,0,326.039,146.25,326.039,326.039
		C1326.039,1274.645,1179.789,1420.906,1000,1420.906z"/>
	<path class="cls-2" d="M1000,838.195c-141.531,0-256.672,115.141-256.672,256.672c0,141.52,115.141,256.66,256.672,256.66
		s256.672-115.141,256.672-256.66C1256.672,953.336,1141.531,838.195,1000,838.195z"/>
	<path class="cls-1" d="M1000,435.625c-239.398,0-470.738,70.25-669.039,203.172l38.641,57.609
		c186.82-125.219,404.797-191.41,630.398-191.41c378.879,0,731.172,188.277,942.359,503.641L2000,970.023
		C1775.898,635.406,1402.07,435.625,1000,435.625z"/>
	<path class="cls-1" d="M279.77,763.355l-44.039-53.602C145.02,784.246,65.711,871.824,0,970.055l57.66,38.559
		C119.578,916.047,194.309,833.535,279.77,763.355z"/>
	<path class="cls-1" d="M1020.066,1060.227h-39.949c-6.641,0-12.98-2.641-17.59-7.191c-4.68-4.719-7.25-11.047-7.25-17.809
		c0-6.641,2.641-13,7-17.469c4.816-4.758,11.148-7.379,17.828-7.379h39.949c6.547,0,13.117,2.75,17.559,7.059
		c5.879,5.961,7.109,12.961,7.109,17.789h69.371c0-25.18-9.629-48.82-27.57-66.969c-14.389-14.067-32.398-23.053-51.754-26.089
		v-27.673h-69.371v27.657c-19.504,3.052-37.613,12.174-52.297,26.683c-17.531,17.949-27.191,41.531-27.191,66.391
		c0,25.18,9.711,48.848,27.602,66.879c17.91,17.719,41.57,27.48,66.609,27.48h39.949c6.488,0,13.051,2.762,17.75,7.371
		c6,5.988,6.91,13.609,6.91,17.609c0,4.852-1.23,11.871-6.641,17.34c-4.91,4.801-11.512,7.551-18.031,7.551h-39.949
		c-6.66,0-13.008-2.621-17.449-7c-4.77-4.852-7.379-11.211-7.379-17.891H885.91c0,24.957,9.668,48.57,27.648,66.879
		c14.345,14.136,32.374,23.186,51.84,26.227v27.512h69.371v-27.565c19.27-3.124,37.646-12.294,52.168-26.442
		c17.52-17.66,27.16-41.328,27.16-66.609c0-25.5-9.703-49.211-27.512-66.961C1068.805,1070.195,1044.555,1060.227,1020.066,1060.227
		z"/>
	<path class="cls-1" d="M1000,625.375c-338.691,0-653.559,168.301-842.27,450.199l-12.922,19.301l12.922,19.289
		c188.711,281.91,503.578,450.211,842.27,450.211c338.641,0,653.52-168.309,842.281-450.211l12.922-19.289l-12.922-19.301
		C1653.52,793.684,1338.648,625.375,1000,625.375z M1000,1494.996c-307.691,0-594.289-149.133-771.371-400.133
		C405.699,843.855,692.309,694.746,1000,694.746c307.672,0,594.25,149.109,771.359,400.121
		C1594.25,1345.867,1307.66,1494.996,1000,1494.996z"/>
</svg>
