<svg id="Layer_1" data-name="Layer 1" xmlns="http://www.w3.org/2000/svg" viewBox="0 0 2000 2000">
    <defs>
        <style>
            .cls-1 {
                fill: #e74a3e;
            }
            
            .cls-2 {
                fill: #181818;
            }
        </style>
    </defs>
    <title>Corporate-Business</title>
	<polygon class="cls-2" points="1670.691,624.484 1161.48,624.484 1000.02,785.953 838.559,624.484 329.34,624.484 329.34,807.094 
		767.922,807.094 767.922,1282.047 1232.07,1282.047 1232.07,807.094 1670.691,807.094 	"/>
	<path class="cls-2" d="M1560.121,1228.227c0,121.469,98.449,219.922,219.961,219.922c121.379,0,219.922-98.449,219.922-219.922
		H1560.121z"/>
	<path class="cls-2" d="M219.949,1448.148c121.469,0,219.922-98.449,219.922-219.922H0
		C0,1349.695,98.512,1448.148,219.949,1448.148z"/>
	<path class="cls-1" d="M1000.02,505.023c118.52,0,214.949-96.477,214.949-215.07c0-118.531-96.43-214.98-214.949-214.98
		c-118.531,0-214.98,96.441-214.98,214.98C785.039,408.535,881.488,505.023,1000.02,505.023z M1000.02,142.254
		c81.441,0,147.68,66.262,147.672,147.711c0,81.5-66.242,147.801-147.672,147.801c-81.438,0-147.699-66.313-147.699-147.801
		C852.32,208.516,918.578,142.254,1000.02,142.254z"/>
	<rect x="966.398" y="853.215" class="cls-1" width="67.281" height="67.289"/>
	<rect x="966.398" y="987.816" class="cls-1" width="67.281" height="67.281"/>
	<rect x="966.398" y="1366.016" class="cls-1" width="67.281" height="558.988"/>
	<path class="cls-1" d="M1789.608,840.734h9.81c68.82,0,124.82-56.051,124.82-124.941c0-68.91-55.992-124.961-124.82-124.961
		H200.59c-68.816,0-124.828,56.051-124.828,124.961c0,68.891,56.008,124.941,124.828,124.941h9.83L57.648,1234.426l62.723,24.34
		l99.578-256.609l99.563,256.609l62.727-24.34l-152.76-393.691h504.779v1084.289h67.281V773.453H200.59
		c-31.73,0-57.551-25.871-57.551-57.672c0-31.82,25.82-57.691,57.551-57.691h1598.828c31.73,0,57.551,25.883,57.551,57.691
		c0,31.801-25.82,57.672-57.551,57.672h-600.961v1151.57h67.281V840.734h504.811l-152.76,393.691l62.73,24.34l99.559-256.609
		l99.57,256.609l62.73-24.34L1789.608,840.734z"/>
</svg>
