<svg id="Layer_1" data-name="Layer 1" xmlns="http://www.w3.org/2000/svg" viewBox="0 0 2000 2000">
    <defs>
        <style>
            .cls-1 {
                fill: #e74a3e;
            }
            
            .cls-2 {
                fill: #181818;
            }
        </style>
    </defs>
    <title>Corporate-Business</title>
	<path class="cls-2" d="M888.191,981.75v-228H774.199H181.41v1080.961h170.32v-182.969c0-40.73,15.512-81.461,46.75-112.602
		c30.988-31.078,71.789-46.711,112.59-46.711h227.352c40.762,0,81.398,15.629,112.719,46.711
		c31.191,31.141,46.68,71.871,46.68,112.602v182.969h0.008h920.762V753.75h-702.418L888.191,981.75z M624.77,1423.781
		c-87.969,0-159.301-71.398-159.301-159.328c0-87.859,71.328-159.32,159.301-159.32C712.91,1105.141,784,1176.59,784,1264.449
		C784,1352.379,712.898,1423.781,624.77,1423.781z"/>
	<path class="cls-2" d="M900.102,165.289v462.5h918.5v-462.5H900.102z M1359.402,514.621h-330.602V435.91h330.602V514.621z
		 M1690,357.199h-661.199v-78.711H1690V357.199z"/>
	<polygon class="cls-1" points="1905.18,879.691 1905.18,1921.289 94.82,1921.289 94.82,667.172 648.262,667.172 648.262,588.461 
		94.82,588.461 94.82,431.039 648.262,431.039 648.262,352.32 16.109,352.32 16.109,627.809 16.109,667.172 16.109,2000 
		1983.891,2000 1983.891,879.691 	"/>
	<rect x="181.398" y="470.398" class="cls-1" width="78.711" height="78.711"/>
	<rect x="338.828" y="470.398" class="cls-1" width="78.711" height="78.711"/>
	<rect x="496.25" y="470.398" class="cls-1" width="78.711" height="78.711"/>
	<rect x="1162.5" y="1225.102" class="cls-1" width="78.75" height="78.711"/>
	<rect x="1320" y="1225.102" class="cls-1" width="78.672" height="78.711"/>
	<rect x="1477.5" y="1225.102" class="cls-1" width="78.75" height="78.711"/>
	<path class="cls-1" d="M848.828,1076.781l283.652-283.672h851.398V0H734.84v793.109h113.988V1076.781z M813.551,714.391V78.711
		h1091.617v635.68h-805.309l-172.32,172.328V714.391H813.551z"/>
</svg>
