<svg id="Layer_1" data-name="Layer 1" xmlns="http://www.w3.org/2000/svg" viewBox="0 0 2000 2000">
    <defs>
        <style>
            .cls-1 {
                fill: #e74a3e;
            }
            
            .cls-2 {
                fill: #181818;
            }
        </style>
    </defs>
    <title>Corporate-Business</title>
	<polygon class="cls-2" points="1726.852,376.918 1726.897,376.872 1634.622,284.596 1542.301,376.918 1542.293,376.918 
		1542.293,376.925 1542.277,376.941 1542.293,376.957 1542.293,2000.004 1726.913,2000.004 1726.913,376.918 	"/>
	<path class="cls-2" d="M311.509,653.802h923.093V192.307H311.509V653.802z M1050.002,388.457h69.229v69.229h-69.229V388.457z
		 M911.503,388.457h69.229v69.229h-69.229V388.457z M773.102,388.457h69.23v69.229h-69.23V388.457z M634.604,388.457h69.229v69.229
		h-69.229V388.457z"/>
	<path class="cls-1" d="M965.389,846.145H811.543H734.61H273.087v230.767h-0.012v230.775v76.921v153.827v76.929v230.768h230.779
		h76.917h0.004H734.61h76.933h153.846h76.91h230.778v-461.523v-76.921V1153.84v-76.929V846.145h-230.778H965.389z M503.854,1769.213
		H350.008v-153.85h153.847V1769.213z M503.854,1538.435H350.008v-153.827h153.847V1538.435z M503.854,1307.687H350.008V1153.84
		h153.847V1307.687z M734.61,1769.213H580.775v-153.85H734.61V1769.213z M734.61,1538.435H580.775v-153.827H734.61V1538.435z
		 M734.61,1307.687H580.775V1153.84H734.61V1307.687z M734.61,1076.911H580.771h-76.917H350.008V923.073H734.61V1076.911z
		 M965.389,1769.213H811.543v-153.85h153.846V1769.213z M965.389,1538.435H811.543v-153.827h153.846V1538.435z M965.389,1307.687
		H811.543V1153.84h153.846V1307.687z M965.389,1076.911H811.543V923.073h153.846V1076.911z M1196.148,1769.213h-153.85v-153.85
		v-76.929v-153.827h153.85V1769.213z M1196.148,1307.687h-153.85V1153.84h153.85V1307.687z M1196.148,1076.911h-153.85V923.073
		h153.85V1076.911z"/>
	<path class="cls-1" d="M273.087,692.302h999.99V153.85h-999.99V692.302z M350.008,230.768h846.141v384.617H350.008V230.768z"/>
	<path class="cls-1" d="M119.237,1999.98h1307.679h0.008V0H119.237V1999.98z M196.158,76.921h1153.84V1923.06H196.158V76.921z"/>
	<polygon class="cls-1" points="1803.842,1115.368 1803.842,1769.213 1542.293,1769.213 1542.293,1846.131 1880.763,1846.131 
		1880.763,1115.368 	"/>
	<rect x="1596.195" y="189.736" class="cls-1" width="76.921" height="133.339"/>
	<rect x="1542.293" y="1076.888" class="cls-1" width="184.62" height="76.921"/>
</svg>
