<svg id="Layer_1" data-name="Layer 1" xmlns="http://www.w3.org/2000/svg" viewBox="0 0 2000 2000">
    <defs>
        <style>
            .cls-1 {
                fill: #e74a3e;
            }
            
            .cls-2 {
                fill: #181818;
            }
        </style>
    </defs>
    <title>Corporate-Business</title>
	<polygon class="cls-1" points="78.371,590.121 0,590.121 0,1721.461 1157.039,1721.461 1157.039,1643.09 78.371,1643.09 	"/>
	<rect x="1810" y="590.102" class="cls-1" width="78.371" height="400"/>
	<path class="cls-1" d="M1357.469,738.082h-147.688h-78.371H983.477h-78.355h-147.93h-78.375H530.934h-78.371H226.262V964.32
		v78.371v147.859v78.371v226.25h226.301h78.367h0.004h147.883h78.375h147.93h78.355h0.012h147.922h78.371h61.094
		c-0.863-10.24-1.31-20.6-1.31-31.063c0-16.032,1.037-31.821,3.04-47.308h-62.824v-147.879h116.27
		c28.174-44.47,65.689-82.433,109.789-111.133v-115.098h147.898v59.739c16.68-2.333,33.721-3.539,51.044-3.539
		c9.192,0,18.305,0.344,27.327,1.011v-57.211V964.32V738.082h-226.27H1357.469z M452.559,1416.801h-147.93v-147.879h147.93V1416.801
		z M452.559,1190.551h-147.93v-147.859h147.93V1190.551z M452.559,964.32h-147.93V816.449h147.93V964.32z M678.816,1416.801H530.934
		v-147.879h147.883V1416.801z M678.816,1190.551H530.934v-147.859h147.883V1190.551z M678.816,964.32H530.934V816.449h147.883
		V964.32z M905.113,1416.801H757.191v-147.879h147.922V1416.801z M905.113,1190.551H757.191v-147.859h147.922V1190.551z
		 M905.113,964.32H757.191V816.449h147.922V964.32z M1131.41,1416.801H983.488v-147.879h147.922V1416.801z M1131.41,1190.551
		H983.488v-147.859h147.922V1190.551z M1131.41,964.32H983.488V816.449h147.922V964.32z M1357.469,1190.551h-147.688v-147.859
		h147.688V1190.551z M1357.469,964.32h-147.688V816.449h147.688V964.32z M1583.738,964.32H1435.84V816.449h147.898V964.32z"/>
	<rect x="226.262" y="166.988" class="cls-1" width="78.371" height="282.102"/>
	<rect x="1583.699" y="166.988" class="cls-1" width="78.371" height="282.102"/>
	<rect y="308.059" class="cls-2" width="1888.398" height="282.102"/>
	<path class="cls-2" d="M1622.93,1078.961c-208.148,0-377.078,168.777-377.078,377.078c0,208.219,168.93,376.969,377.078,376.969
		c208.32,0,377.07-168.75,377.07-376.969C2000,1247.73,1831.25,1078.961,1622.93,1078.961z M1560.078,1637.078L1406.68,1483.68
		l55.41-55.41l97.988,98l223.672-223.66l55.41,55.41L1560.078,1637.078z"/>
</svg>
