<svg id="Layer_1" data-name="Layer 1" xmlns="http://www.w3.org/2000/svg" viewBox="0 0 2000 2000">
    <defs>
        <style>
            .cls-1 {
                fill: #e74a3e;
            }
            
            .cls-2 {
                fill: #181818;
            }
        </style>
    </defs>
    <title>Corporate-Business</title>
<path class="cls-2" d="M621.602,454.195v1361.102h687.301V454.195H621.602z M796.801,1707.473h-67.379v-67.379h67.379V1707.473z
	 M796.801,1572.773h-67.379v-67.379h67.379V1572.773z M796.801,1437.973h-67.379v-67.379h67.379V1437.973z M796.801,1303.176
	h-67.379v-67.379h67.379V1303.176z M796.801,1168.473h-67.379v-67.379h67.379V1168.473z M796.801,1033.676h-67.379v-67.379h67.379
	V1033.676z M796.801,898.875h-67.379v-67.379h67.379V898.875z M796.801,764.176h-67.379v-67.379h67.379V764.176z M796.801,629.375
	h-67.379v-67.379h67.379V629.375z M931.578,1707.473h-67.379v-67.379h67.379V1707.473z M931.578,1572.773h-67.379v-67.379h67.379
	V1572.773z M931.578,1437.973h-67.379v-67.379h67.379V1437.973z M931.578,1303.176h-67.379v-67.379h67.379V1303.176z
	 M931.578,1168.473h-67.379v-67.379h67.379V1168.473z M931.578,1033.676h-67.379v-67.379h67.379V1033.676z M931.578,898.875h-67.379
	v-67.379h67.379V898.875z M931.578,764.176h-67.379v-67.379h67.379V764.176z M931.578,629.375h-67.379v-67.379h67.379V629.375z
	 M1066.277,1707.473h-67.379v-67.379h67.379V1707.473z M1066.277,1572.773h-67.379v-67.379h67.379V1572.773z M1066.277,1437.973
	h-67.379v-67.379h67.379V1437.973z M1066.277,1303.176h-67.379v-67.379h67.379V1303.176z M1066.277,1168.473h-67.379v-67.379h67.379
	V1168.473z M1066.277,1033.676h-67.379v-67.379h67.379V1033.676z M1066.277,898.875h-67.379v-67.379h67.379V898.875z
	 M1066.277,764.176h-67.379v-67.379h67.379V764.176z M1066.277,629.375h-67.379v-67.379h67.379V629.375z M1201.078,1707.473h-67.379
	v-67.379h67.379V1707.473z M1201.078,1572.773h-67.379v-67.379h67.379V1572.773z M1201.078,1437.973h-67.379v-67.379h67.379
	V1437.973z M1201.078,1303.176h-67.379v-67.379h67.379V1303.176z M1201.078,1168.473h-67.379v-67.379h67.379V1168.473z
	 M1201.078,1033.676h-67.379v-67.379h67.379V1033.676z M1201.078,898.875h-67.379v-67.379h67.379V898.875z M1201.078,764.176
	h-67.379v-67.379h67.379V764.176z M1201.078,629.375h-67.379v-67.379h67.379V629.375z"/>
	<rect x="1416.699" y="730.496" class="cls-1" width="67.379" height="943.398"/>
	<rect x="1550" y="730.496" class="cls-1" width="67.379" height="943.398"/>
	<rect x="1683.301" y="730.496" class="cls-1" width="67.379" height="943.398"/>
	<rect x="311.602" y="1101.094" class="cls-1" width="67.379" height="67.379"/>
	<rect x="446.41" y="1101.094" class="cls-1" width="67.379" height="67.379"/>
	<rect x="311.602" y="1235.797" class="cls-1" width="67.379" height="67.379"/>
	<rect x="446.41" y="1235.797" class="cls-1" width="67.379" height="67.379"/>
	<rect x="311.602" y="1370.594" class="cls-1" width="67.379" height="67.379"/>
	<rect x="446.41" y="1370.594" class="cls-1" width="67.379" height="67.379"/>
	<rect x="311.602" y="1505.395" class="cls-1" width="67.379" height="67.379"/>
	<rect x="446.41" y="1505.395" class="cls-1" width="67.379" height="67.379"/>
	<rect x="311.602" y="1640.094" class="cls-1" width="67.379" height="67.379"/>
	<rect x="446.41" y="1640.094" class="cls-1" width="67.379" height="67.379"/>
	<path class="cls-1" d="M1892.188,1781.637V555.266H1750.68V420.508h-333.961v134.758h-74.117V420.504H1241.52V285.738h-101.07
		V150.977H998.98V49.906h-67.379v101.07H790.059v134.762h-101.07v134.766H587.922v539.063H170.141v822.07H62.328v168.457h67.383
		v-101.078h40.43h417.781h67.379h619.918h67.383h549.586h0.004h40.43v101.078H2000v-168.457H1892.188z M857.441,218.355h215.629
		v67.379H857.441V218.355z M1484.102,487.887h199.199v67.379h-199.199V487.887z M756.371,353.125h33.688h350.391h33.691v67.379
		h-417.77V353.125z M237.52,1781.637v-754.691H587.91v754.691H237.52z M655.301,1781.637v-822.07v-471.68h33.688h552.531h33.703
		v67.379h-0.004v1226.371H655.301z M1342.602,1781.637V622.656h74.117h333.961h74.133v1158.98H1342.602z"/>
	<rect y="561.996" class="cls-1" width="176.879" height="67.379"/>
	<rect x="1273.5" y="83.594" class="cls-1" width="176.879" height="67.379"/>
	<rect x="127.461" y="285.734" class="cls-1" width="250.398" height="67.379"/>
	<rect x="448.648" y="285.734" class="cls-1" width="98.84" height="67.379"/>
</svg>
