<svg id="Layer_1" data-name="Layer 1" xmlns="http://www.w3.org/2000/svg" viewBox="0 0 2000 2000">
    <defs>
        <style>
            .cls-1 {
                fill: #e74a3e;
            }
            
            .cls-2 {
                fill: #181818;
            }
        </style>
    </defs>
    <title>Corporate-Business</title>
	<path class="cls-2" d="M433.102,213.566v700.199h0.02h1133.758h0.023V213.566H433.102z M1566.879,719.055l-128.641-58.078
	l-128.637,58.078l-89.641,8.551l-89.652,56.82l-89.629-56.82l-89.641,50l-66.059,9.238l-66.082,23.16L696.93,777.125
	l-121.961,70.051l-70.918-4.063l-70.93,24.441v-52.668l70.93-52.281l70.918,8.68L696.93,621.414l121.969,70.352l66.082-49.602
	l66.059-19.75l89.641-106.98l89.629,121.602l89.652-121.602l89.641-18.297l128.637-124.242l128.641,124.242V719.055z"/>
	<polygon class="cls-1" points="1233.371,1413.656 1233.371,1413.637 1310.438,1413.637 1310.438,1342.195 1233.371,1342.195 
		1233.371,1255.477 1161.941,1255.477 1161.941,1342.195 838.031,1342.195 838.031,1255.477 766.602,1255.477 766.602,1342.195 
		689.539,1342.195 689.539,1413.637 766.602,1413.637 766.602,1413.656 	"/>
	<path class="cls-1" d="M375.34,1212.746h1249.27c22.289,0,43.191-8.652,58.738-24.23c15.77-15.68,24.441-36.598,24.441-58.898
		v-74.945v-71.426V155.863c0-22.277-8.672-43.18-24.25-58.648c-15.629-15.797-36.559-24.488-58.93-24.488H375.359
		c-22.402,0-43.332,8.699-58.762,24.328c-15.719,15.691-24.379,36.582-24.379,58.801v827.391v71.43v74.941
		c0,22.258,8.668,43.16,24.27,58.719C332.121,1204.086,353.02,1212.746,375.34,1212.746z M363.637,155.855
		c0-1.801,0.453-5.281,3.602-8.43c2.68-2.711,5.891-3.281,8.121-3.281h1249.242c2.242,0,5.473,0.578,8.371,3.52
		c2.93,2.922,3.379,6.383,3.379,8.191v827.391H363.641h-0.004V155.855z M1636.348,1054.676v74.941c0,1.828-0.449,5.309-3.488,8.359
		c-2.902,2.91-6.41,3.34-8.262,3.34H375.328c-1.82,0-5.301-0.43-8.289-3.43c-2.949-2.961-3.398-6.449-3.398-8.27v-74.941H1636.348z"
		/>
	<rect x="561.699" y="306.426" class="cls-1" width="307.949" height="71.43"/>
	<rect x="561.699" y="434.996" class="cls-1" width="153.98" height="71.43"/>
	<polygon class="cls-1" points="2000,1342.285 1420.711,1342.285 1420.711,1413.703 1928.57,1413.703 1928.57,1482.516 
		1848.078,1482.516 1848.078,1482.484 1636.359,1482.484 1636.359,1482.516 363.641,1482.516 363.641,1482.484 151.949,1482.484 
		151.949,1482.516 71.43,1482.516 71.43,1413.703 579.328,1413.703 579.328,1342.285 0,1342.285 0,1553.945 151.949,1553.945 
		151.949,1927.273 223.379,1927.273 223.379,1553.945 292.219,1553.945 292.219,1927.273 363.641,1927.273 363.641,1553.945 
		1636.359,1553.945 1636.359,1927.273 1707.781,1927.273 1707.781,1553.945 1776.648,1553.945 1776.648,1927.273 1848.078,1927.273 
		1848.078,1553.945 2000,1553.945 	"/>
</svg>
