<svg id="Layer_1" data-name="Layer 1" xmlns="http://www.w3.org/2000/svg" viewBox="0 0 2000 2000">
    <defs>
        <style>
            .cls-1 {
                fill: #e74a3e;
            }
            
            .cls-2 {
                fill: #181818;
            }
        </style>
    </defs>
    <title>Corporate-Business</title>
	<path class="cls-2" d="M1379.641,782.59c0.008-53.988-20.582-107.961-61.77-149.148c-41.16-41.172-95.16-61.781-149.121-61.781
		l-168.738,168.75L831.273,571.66c-53.988,0-107.961,20.621-149.16,61.781c-41.172,41.191-61.781,95.16-61.781,149.148v379.68
		h759.309V782.59z"/>
	<path class="cls-2" d="M562.801,1564.699v317.961h844.5v-317.961H562.801z M888.047,1760.941h-74.648v-74.641h74.648V1760.941z
		 M1037.32,1760.941h-74.621v-74.641h74.621V1760.941z M1186.539,1760.941h-74.641v-74.641h74.641V1760.941z"/>
	<path class="cls-1" d="M1000.012,468.371c129.109,0,234.16-105.043,234.16-234.172C1234.172,105.059,1129.121,0,1000.012,0
		C870.871,0,765.82,105.059,765.813,234.199C765.813,363.332,870.871,468.371,1000.012,468.371z M1000.012,74.629
		c87.957,0,159.52,71.582,159.52,159.57c0,87.973-71.57,159.531-159.52,159.531c-87.988,0-159.559-71.563-159.559-159.531
		C840.453,146.207,912.023,74.629,1000.012,74.629z"/>
	<rect x="962.699" y="810.699" class="cls-1" width="74.641" height="74.641"/>
	<rect x="962.699" y="960" class="cls-1" width="74.641" height="74.641"/>
	<rect x="1834.344" y="1409.965" class="cls-1" width="0.004" height="0.012"/>
	<path class="cls-1" d="M1697.578,1124.961V655.738l-102.153-102.218c5.295-12.238,8.235-25.723,8.235-39.884
		c0-55.648-45.301-100.93-100.949-100.93c-55.652,0-100.922,45.281-100.922,100.93c0,55.621,45.281,100.852,100.922,100.852
		c14.173,0,27.67-2.938,39.922-8.228l80.316,80.388v438.313h-205.961V782.59c0-66.309-25.82-128.66-72.711-175.539
		c-46.891-46.891-109.223-72.711-175.512-72.711h-337.48c-66.289,0-128.617,25.82-175.559,72.711
		c-46.879,46.93-72.699,109.258-72.699,175.539v342.371H165.648v285.008h136.773V2000h74.637v-590.031h1245.891V2000h74.629
		v-590.031h136.762v-285.008H1697.578z M1476.422,513.641c0-14.5,11.801-26.289,26.289-26.289c14.508,0,26.309,11.789,26.309,26.289
		c0,14.449-11.809,26.211-26.309,26.211C1488.223,539.852,1476.422,528.09,1476.422,513.641z M657.656,782.59
		c0-46.352,18.059-89.949,50.84-122.75c32.809-32.801,76.41-50.859,122.77-50.859h337.48c46.34,0,89.941,18.059,122.73,50.84
		c32.781,32.801,50.852,76.398,50.852,122.77v342.371h-94.098V960h-74.629v164.961h-347.16V960h-74.641v164.961h-94.145V782.59z
		 M1697.578,1335.328H302.422h-62.133V1199.59h1519.41v135.738H1697.578z"/>
</svg>
