<svg id="Layer_1" data-name="Layer 1" xmlns="http://www.w3.org/2000/svg" viewBox="0 0 2000 2000">
    <defs>
        <style>
            .cls-1 {
                fill: #e74a3e;
            }
            
            .cls-2 {
                fill: #181818;
            }
        </style>
    </defs>
    <title>Corporate-Business</title>
	<path class="cls-2" d="M682.563,557.309c-204.781,0-370.789,166-370.789,370.789c-0.004,116.773,54.047,220.871,138.426,288.844
		l110.039-198.102l154.75,278.539c13.969-1.211,27.73-3.129,41.211-5.84l273.852-492.949
		C977.512,657.68,841.781,557.309,682.563,557.309z"/>
	<rect x="1053.301" y="129.859" class="cls-2" width="428.57" height="310.102"/>
	<path class="cls-1" d="M1913.867,1798.711l-353.418-636.09l-120.34,216.639l-351.078-631.91v-617.49h-71.43V747.48
		l-283.627,510.54L560.238,945.289l-474.1,853.422H0v71.43h2000v-71.43H1913.867z M1560.449,1309.691l271.685,489.02h-158.985
		l-192.186-345.917L1560.449,1309.691z M1223.33,1136.158L1160.488,1199l-107.137-107.129L946.211,1199l-62.839-62.83
		l169.98-305.971L1223.33,1136.158z M560.238,1092.391l132.88,239.172l-114.767,206.586l62.438,34.68l206.508-371.722l98.914,98.905
		l107.141-107.141l107.137,107.141l98.917-98.917l332.011,597.616H167.843L560.238,1092.391z"/>
	<rect x="1270.398" y="750.809" class="cls-1" width="187.512" height="71.43"/>
	<rect x="1364.199" y="545.41" class="cls-1" width="265.488" height="71.43"/>
	<rect x="1704.699" y="545.41" class="cls-1" width="104.762" height="71.43"/>
</svg>
