<svg id="Layer_1" data-name="Layer 1" xmlns="http://www.w3.org/2000/svg" viewBox="0 0 2000 2000">
    <defs>
        <style>
            .cls-1 {
                fill: #e74a3e;
            }
            
            .cls-2 {
                fill: #181818;
            }
        </style>
    </defs>
    <title>Corporate-Business</title>
	<path class="cls-2" d="M1320.609,641.469c-41.531-41.531-95.98-62.309-150.422-62.309L1000,749.352L829.809,579.16
	c-54.441,0-108.879,20.781-150.422,62.309c-41.531,41.551-62.309,95.969-62.309,150.43v382.922h170.18v148.922h425.469V1174.82
	h170.18V791.898C1382.91,737.441,1362.141,683.02,1320.609,641.469z"/>
	<path class="cls-1" d="M346.172,744.121c108.988,0,197.656-88.66,197.66-197.609c0-108.992-88.672-197.641-197.66-197.641
		c-108.973,0-197.621,88.652-197.621,197.641C148.551,655.473,237.203,744.121,346.172,744.121z M346.172,424.141
		c67.488,0,122.379,54.898,122.379,122.371c0,67.457-54.891,122.328-122.379,122.328c-67.453,0-122.352-54.855-122.352-122.328
		S278.723,424.141,346.172,424.141z"/>
	<rect x="308.539" y="1517.391" class="cls-1" width="75.27" height="479.961"/>
	<path class="cls-1" d="M75.281,1026.016c0-35.719,13.91-69.32,39.191-94.59c25.258-25.27,58.84-39.191,94.578-39.191h295.125
		v-75.281H209.047c-55.84,0-108.34,21.762-147.828,61.25C21.738,917.691,0,970.191,0,1026.012v437.617h137.129v533.742h75.27h0.004
		v-609.016H75.281V1026.016z"/>
	<rect x="308.539" y="959.988" class="cls-1" width="75.27" height="75.301"/>
	<polygon class="cls-1" points="479.961,1997.371 555.23,1997.371 555.23,1463.629 654.719,1463.629 654.719,1388.359 
		479.961,1388.359 	"/>
	<path class="cls-1" d="M1653.809,744.121c108.973,0,197.652-88.66,197.648-197.609c0-108.992-88.68-197.641-197.648-197.641
		c-108.973,0-197.621,88.652-197.621,197.641C1456.188,655.473,1544.848,744.121,1653.809,744.121z M1653.809,424.141
		c67.473,0,122.371,54.898,122.371,122.371c0,67.457-54.902,122.328-122.371,122.328c-67.461,0-122.34-54.855-122.34-122.328
		S1586.348,424.141,1653.809,424.141z"/>
	<rect x="1616.199" y="1517.391" class="cls-1" width="75.27" height="479.961"/>
	<path class="cls-1" d="M1938.781,878.207c-39.492-39.488-91.969-61.25-147.82-61.25H1495.82v75.281h295.141
		c35.73,0,69.32,13.922,94.59,39.191c25.25,25.27,39.18,58.859,39.18,94.59v362.34h-137.129v609.012h75.27v-533.73H2000V1026.02
		C2000,970.191,1978.25,917.691,1938.781,878.207z"/>
	<rect x="1616.199" y="959.988" class="cls-1" width="75.27" height="75.301"/>
	<polygon class="cls-1" points="1345.27,1463.629 1444.77,1463.629 1444.77,1997.371 1520.039,1997.371 1520.039,1388.359 
		1345.27,1388.359 	"/>
	<path class="cls-1" d="M1000,474.98c130.23,0,236.191-105.93,236.191-236.18S1130.23,2.609,1000,2.609
		s-236.191,105.93-236.191,236.18S869.77,474.98,1000,474.98z M1000,77.879c88.73,0,160.918,72.203,160.918,160.922
		S1088.73,399.711,1000,399.711s-160.91-72.203-160.91-160.922S911.27,77.879,1000,77.879z"/>
	<rect x="962.398" y="1401.691" class="cls-1" width="75.27" height="595.602"/>
	<path class="cls-1" d="M1420.547,1325.91V791.898c0-66.859-26.039-129.73-73.328-177.039
		c-47.281-47.277-110.16-73.328-177.031-73.328H829.809c-66.859,0-129.75,26.039-177.039,73.328
		c-47.281,47.309-73.32,110.168-73.32,177.039v534.012h170.172v671.48h75.27v-822.602h-75.27v75.84H654.73v-458.73
		c0-46.75,18.211-90.742,51.281-123.82c33.063-33.063,77.031-51.281,123.801-51.281h340.379c46.77,0,90.73,18.223,123.801,51.281
		c33.078,33.082,51.289,77.07,51.289,123.82v458.73h-94.91v-75.84h-75.27v822.602h75.27v-671.48H1420.547z"/>
	<rect x="962.398" y="820.289" class="cls-1" width="75.27" height="75.289"/>
	<rect x="962.398" y="970.789" class="cls-1" width="75.27" height="75.281"/>
</svg>
