<svg id="Layer_1" data-name="Layer 1" xmlns="http://www.w3.org/2000/svg" viewBox="0 0 2000 2000">
    <defs>
        <style>
            .cls-1 {
                fill: #e74a3e;
            }
            
            .cls-2 {
                fill: #181818;
            }
        </style>
    </defs>
    <title>Corporate-Business</title>
	<path class="cls-2" d="M779.09,1142.898H497.41v505H215.711v218.309H497.41v-0.008h281.699v-0.02h281.68V637.98H779.09V1142.898z
		 M902.301,1443.699h70.398v70.398h-70.398V1443.699z M902.301,1584.5h70.398v70.398h-70.398V1584.5z M902.301,1725.301h70.398
		v70.398h-70.398V1725.301z"/>
	<path class="cls-2" d="M1831.629,597.691c-38.859-38.859-89.789-58.289-140.719-58.289l-159.219,159.219l-159.219-159.219
		c-50.941,0-101.871,19.43-140.719,58.289c-38.859,38.871-58.289,89.789-58.289,140.73v358.23h159.211v139.32h398.051v-139.32
		h159.211v-358.23C1889.922,687.469,1870.488,636.551,1831.629,597.691z"/>
	<rect x="74.859" y="1929.602" class="cls-1" width="1815.102" height="70.398"/>
	<path class="cls-1" d="M1531.691,441.93c121.84,0,220.969-99.121,220.969-220.961C1752.66,99.121,1653.531,0,1531.691,0
		s-220.973,99.121-220.969,220.969C1310.723,342.809,1409.852,441.93,1531.691,441.93z M1531.691,70.422
		c83.008,0,150.551,67.531,150.551,150.539S1614.699,371.5,1531.691,371.5s-150.539-67.531-150.539-150.539
		S1448.68,70.422,1531.691,70.422z"/>
	<rect x="1496.5" y="1308.898" class="cls-1" width="70.398" height="557.27"/>
	<path class="cls-1" d="M1856.52,572.793c-44.23-44.23-103.063-68.609-165.621-68.609h-318.441
		c-62.551,0-121.379,24.379-165.629,68.609c-44.219,44.258-68.59,103.078-68.59,165.629v499.594H1297.5v628.234h70.398v-769.551
		H1297.5v70.895h-88.828V738.422c0-43.738,17.039-84.891,47.969-115.84c30.938-30.93,72.078-47.969,115.828-47.969h318.441
		c43.758,0,84.891,17.039,115.809,47.969c30.949,30.949,48,72.102,48,115.84v429.168h-88.82v-70.891H1695.5v769.551h70.398v-628.238
		h159.23v-499.59C1925.129,675.871,1900.77,617.055,1856.52,572.793z"/>
	<rect x="1496.5" y="765" class="cls-1" width="70.398" height="70.398"/>
	<rect x="1496.5" y="905.801" class="cls-1" width="70.398" height="70.398"/>
	<polygon class="cls-1" points="250.922,1584.512 398.809,1584.512 398.809,1514.078 180.5,1514.078 180.5,1866.199 
		250.922,1866.199 	"/>
	<polygon class="cls-1" points="532.629,1079.551 680.5,1079.551 680.5,1009.129 462.199,1009.129 462.199,1866.199 
		532.629,1866.199 	"/>
	<polygon class="cls-1" points="814.301,574.602 1060.781,574.602 1060.781,504.18 743.879,504.18 743.879,1866.199 
		814.301,1866.199 	"/>
</svg>
