<svg id="Layer_1" data-name="Layer 1" xmlns="http://www.w3.org/2000/svg" viewBox="0 0 2000 2000">
    <defs>
        <style>
            .cls-1 {
                fill: #e74a3e;
            }
            
            .cls-2 {
                fill: #181818;
            }
        </style>
    </defs>
    <title>Corporate-Business</title>
	<path class="cls-1" d="M1588.928,705.413h-78.602c22.653,70.179,34.424,144.242,34.424,220.118v278h-21.475
		c-11.337-31.969-36.714-57.346-68.686-68.685v-66.534c0-38.16-14.859-74.012-41.809-100.941
		c-26.98-26.977-62.832-41.828-100.961-41.828s-73.98,14.848-100.949,41.809c-26.969,26.938-41.809,62.801-41.809,100.949v345.621
		c0,38.152,14.848,74,41.809,100.961c26.961,26.957,62.82,41.809,100.949,41.809c15.953,0,31.501-2.607,46.17-7.602
		c-53.282,162.911-200.164,283.869-376.783,299.019v-73.53h-187.84c-62.16,0-112.711,50.559-112.711,112.711
		S731.219,2000,793.367,2000h187.84v-76.515c264.248-19.29,473.35-240.435,473.383-509.526c0-0.007,0-0.015,0-0.021v-66.578
		c31.969-11.339,57.345-36.717,68.684-68.688h96.605l0.004-353.129C1619.883,849.982,1609.33,776.046,1588.928,705.413z
		 M906.082,1924.871H793.371c-20.719,0-37.57-16.852-37.57-37.57s16.852-37.57,37.57-37.57h112.711V1924.871z M1379.449,1413.918
		c0,0.009,0,0.018,0,0.026c-0.002,18.056-7.029,35.054-19.789,47.821c-12.77,12.758-29.77,19.789-47.828,19.789
		s-35.059-7.027-47.82-19.789c-12.77-12.77-19.789-29.758-19.789-47.828v-345.629c0-18.059,7.02-35.047,19.789-47.809
		c12.781-12.758,29.762-19.809,47.82-19.809s35.047,7.039,47.828,19.82c12.758,12.75,19.789,29.73,19.789,47.801v66.529
		c-43.737,15.504-75.148,57.278-75.148,106.256c0,48.986,31.413,90.763,75.148,106.268V1413.918z M1417.012,1278.668
		c-20.719,0-37.57-16.863-37.57-37.57s16.852-37.559,37.57-37.559s37.57,16.848,37.57,37.559S1437.73,1278.668,1417.012,1278.668z"
		/>
	<path class="cls-1" d="M350.059,925.539c-38.121,0-73.98,14.848-100.949,41.809c-26.957,26.938-41.809,62.801-41.809,100.949
		v66.548c-31.979,11.338-57.362,36.722-68.698,68.698h-21.458v-278c0-190.68,74.242-369.918,209.07-504.75
		c134.816-134.82,314.078-209.059,504.738-209.059c11.779,0,23.515,0.286,35.199,0.849v-75.197
		c-11.694-0.51-23.432-0.781-35.211-0.781c-210.73,0-408.852,82.059-557.871,231.078C124.059,516.691,42,714.805,42,925.543v353.141
		h96.612c11.341,31.968,36.719,57.342,68.688,68.679v66.56c0,38.152,14.848,74,41.809,100.961
		c26.961,26.957,62.809,41.809,100.949,41.809s74-14.852,100.949-41.793c26.957-26.973,41.809-62.82,41.809-100.961v-345.629
		c0-38.16-14.848-74.012-41.809-100.941C424.039,940.391,388.18,925.539,350.059,925.539z M244.871,1278.668
		c-20.719,0-37.57-16.863-37.57-37.57s16.852-37.559,37.57-37.559s37.57,16.848,37.57,37.559S265.59,1278.668,244.871,1278.668z
		 M417.676,1413.922c0,18.063-7.02,35.063-19.789,47.832c-12.77,12.758-29.758,19.789-47.828,19.789
		c-18.066,0-35.059-7.027-47.828-19.789c-12.758-12.773-19.789-29.762-19.789-47.832v-66.56
		c43.73-15.508,75.138-57.281,75.141-106.265c0-48.975-31.407-90.747-75.141-106.253v-66.548c0-18.059,7.02-35.047,19.789-47.809
		c12.789-12.758,29.758-19.809,47.828-19.809c18.066,0,35.047,7.039,47.828,19.82c12.758,12.75,19.789,29.73,19.789,47.801V1413.922
		z"/>
	<path class="cls-1" d="M368.711,463.301l53.125,53.133c109.293-109.27,254.57-169.441,409.102-169.441
		c11.796,0,23.538,0.355,35.215,1.052v-75.256c-11.684-0.616-23.423-0.937-35.211-0.937
		C656.332,271.852,492.191,339.84,368.711,463.301z"/>
	<path class="cls-2" d="M830.898,0v751.398h112.75v180.301l180.293-180.301H1958V0H830.898z M1048.801,187.84h262.98v75.141h-262.98
	V187.84z M1582.301,563.531h-533.5v-75.141h533.5V563.531z M1740.102,413.262h-691.301v-75.141h691.301V413.262z"/>
</svg>
