<svg id="Layer_1" data-name="Layer 1" xmlns="http://www.w3.org/2000/svg" viewBox="0 0 2000 2000">
    <defs>
        <style>
            .cls-1 {
                fill: #e74a3e;
            }
            
            .cls-2 {
                fill: #181818;
            }
        </style>
    </defs>
    <title>Corporate-Business</title>
	<path class="cls-2" d="M1304.488,505.246c-35.02-34.801-80.563-52.301-126.211-52.301H821.629
		c-45.719,0-91.352,17.5-126.07,52.301c-34.992,34.91-52.32,80.488-52.32,126.039v219.02h713.5v-219.02
		C1356.738,585.734,1339.43,540.156,1304.488,505.246z"/>
	<path class="cls-2" d="M1000,390.145c98.641,0,178.281-79.93,178.281-178.379c0-98.43-79.641-178.371-178.281-178.371
		c-98.512,0-178.371,79.941-178.371,178.371C821.629,310.215,901.488,390.145,1000,390.145z"/>
	<rect x="786.398" y="658.676" class="cls-1" width="70.398" height="191.602"/>
	<rect x="1143.102" y="658.676" class="cls-1" width="70.398" height="191.602"/>
	<path class="cls-1" d="M381.082,1183.797c25.141-25.219,58.621-39.109,94.27-39.109h489.449v133.414h70.398v-133.414h489.508
		c35.641,0,69.082,13.891,94.301,39.219c25.16,25.02,39.031,58.488,39.031,94.199h70.422c0-54.621-21.23-105.809-59.672-144.02
		c-38.43-38.57-89.59-59.82-144.078-59.82h-489.512V932.703h-70.398v141.563H475.352c-54.488,0-105.688,21.238-144.059,59.738
		c-38.543,38.43-59.781,89.613-59.781,144.102h70.422C341.934,1242.457,355.832,1208.996,381.082,1183.797z"/>
	<path class="cls-1" d="M306.719,1547.125c-62.172,0-112.762,50.602-112.762,112.781c0,62.16,50.59,112.738,112.762,112.738
		c62.203,0,112.801-50.578,112.801-112.738C419.52,1597.734,368.918,1547.125,306.719,1547.125z M306.719,1702.215
		c-23.328,0-42.34-18.98-42.34-42.32c0-23.371,19.012-42.359,42.34-42.359c23.371,0,42.383,18.988,42.379,42.359
		C349.098,1683.234,330.09,1702.215,306.719,1702.215z"/>
	<path class="cls-1" d="M306.719,1353.156C137.602,1353.156,0,1490.766,0,1659.895c0,169.109,137.602,306.711,306.719,306.711
		c169.152,0,306.781-137.602,306.781-306.711C613.5,1490.766,475.867,1353.156,306.719,1353.156z M212.483,1876.559
		c2.207-3.42,4.791-6.636,7.748-9.59c10.781-10.781,25.109-16.711,40.359-16.711h92.324c15.27,0,29.598,5.93,40.379,16.699
		c2.939,2.939,5.515,6.152,7.722,9.583c-28.904,12.623-60.794,19.644-94.296,19.644
		C273.238,1896.184,241.369,1889.17,212.483,1876.559z M460.645,1839.056c-4.992-7.85-10.849-15.198-17.559-21.911
		c-24.109-24.07-56.121-37.309-90.18-37.309h-92.32c-34.059,0-66.078,13.238-90.18,37.34c-6.714,6.729-12.569,14.073-17.556,21.901
		c-50.436-43.368-82.433-107.606-82.433-179.183c0-130.289,106-236.309,236.301-236.309c130.332,0,236.359,106.02,236.359,236.309
		C543.078,1731.459,511.081,1795.688,460.645,1839.056z"/>
	<path class="cls-1" d="M1000,1547.125c-62.199,0-112.789,50.602-112.789,112.781c0,62.16,50.59,112.738,112.789,112.738
		s112.801-50.578,112.801-112.738C1112.801,1597.734,1062.199,1547.125,1000,1547.125z M1000,1702.215
		c-23.348,0-42.359-18.98-42.359-42.32c0-23.371,19.008-42.359,42.359-42.359c23.371,0,42.371,18.988,42.371,42.359
		C1042.371,1683.234,1023.371,1702.215,1000,1702.215z"/>
	<path class="cls-1" d="M1000,1353.156c-169.129,0-306.75,137.609-306.75,306.738c0,169.109,137.609,306.711,306.75,306.711
		s306.738-137.602,306.738-306.711C1306.738,1490.766,1169.141,1353.156,1000,1353.156z M905.74,1876.552
		c2.202-3.421,4.774-6.636,7.709-9.587c10.793-10.781,25.141-16.711,40.422-16.711h92.32c15.25,0,29.602,5.953,40.352,16.691
		c2.944,2.941,5.521,6.161,7.729,9.601c-28.896,12.619-60.777,19.638-94.271,19.638
		C966.511,1896.184,934.634,1889.167,905.74,1876.552z M1153.904,1839.057c-4.988-7.85-10.841-15.201-17.553-21.924
		c-24.109-24.063-56.129-37.301-90.148-37.301h-92.32c-34.082,0-66.102,13.242-90.23,37.371
		c-6.709,6.716-12.559,14.051-17.539,21.871c-50.44-43.368-82.442-107.605-82.442-179.18c0-130.289,106.02-236.309,236.328-236.309
		s236.32,106.02,236.32,236.309C1236.32,1731.459,1204.33,1795.689,1153.904,1839.057z"/>
	<path class="cls-1" d="M1693.25,1547.125c-62.188,0-112.809,50.602-112.809,112.781c0,62.16,50.609,112.738,112.809,112.738
		s112.789-50.578,112.781-112.738C1806.031,1597.734,1755.438,1547.125,1693.25,1547.125z M1693.25,1702.215
		c-23.371,0-42.391-18.98-42.391-42.32c0-23.371,19.02-42.359,42.391-42.359c23.352,0,42.371,18.988,42.359,42.359
		C1735.609,1683.234,1716.602,1702.215,1693.25,1702.215z"/>
	<path class="cls-1" d="M1693.25,1353.156c-169.129,0-306.73,137.609-306.73,306.738c0,169.109,137.602,306.711,306.73,306.711
		c169.148,0,306.75-137.602,306.75-306.711C2000,1490.766,1862.398,1353.156,1693.25,1353.156z M1598.996,1876.551
		c2.205-3.423,4.779-6.631,7.715-9.566c10.789-10.781,25.16-16.73,40.41-16.73h92.309c15.281,0,29.633,5.93,40.371,16.691
		c2.945,2.949,5.521,6.167,7.725,9.598c-28.898,12.621-60.781,19.641-94.275,19.641
		C1659.762,1896.184,1627.888,1889.167,1598.996,1876.551z M1847.152,1839.058c-4.979-7.833-10.826-15.169-17.531-21.874
		c-24.07-24.078-56.09-37.34-90.199-37.34h-92.309c-34.039,0-66.063,13.238-90.211,37.34c-6.703,6.713-12.55,14.053-17.532,21.884
		c-50.429-43.368-82.421-107.603-82.421-179.173c0-130.289,106-236.309,236.301-236.309s236.328,106.02,236.328,236.309
		C1929.578,1731.46,1897.583,1795.69,1847.152,1839.058z"/>
</svg>
