<svg id="Layer_1" data-name="Layer 1" xmlns="http://www.w3.org/2000/svg" viewBox="0 0 2000 2000">
    <defs>
        <style>
            .cls-1 {
                fill: #e74a3e;
            }
            
            .cls-2 {
                fill: #181818;
            }
        </style>
    </defs>
    <title>Corporate-Business</title>
	<path class="cls-2" d="M999.949,0C784.789,0.059,610.41,174.422,610.41,389.59c0,113.949,49,216.539,126.949,287.801
		c3.719,3.109,7.469,6.352,11.301,9.711c60.801,55.551,99.039,135.32,99.039,224.141h304.52c0-88.82,38.07-168.59,99.109-224.141
	c3.852-3.359,7.48-6.609,11.129-9.711c77.859-71.262,127.148-173.852,127.148-287.801C1389.609,174.422,1215.219,0.059,999.949,0z
	 M999.32,649.66V412.191H877.031l122.289-282.75v237.438h122.141L999.32,649.66z"/>
	<path class="cls-1" d="M1692.25,1275.512l-317.773-149.54l8.379-35.331l-114.93-72.57l-267.933,307.715L732.031,1018.07
		l-114.922,72.57l8.384,35.345L307.75,1275.512l-66.262,632.559l70.684,7.41l62.098-592.742l267.981-126.11l95.718,403.513
		l142.4-96.4l43.113,97.111l-114.221,378.637L877.289,2000l110.404-365.91h24.613L1122.711,2000l68.027-20.512l-114.209-378.635
		l43.093-97.118l142.409,96.405l95.693-403.524l268.006,126.122l62.098,592.742l70.684-7.41L1692.25,1275.512z M697.969,1123.602
		l20.492-12.93l228.379,262.27l-163.48,110.672L697.969,1123.602z M1015.586,1562.969h-31.184l-44.249-99.701l59.845-40.513
		l59.834,40.505L1015.586,1562.969z M1216.637,1483.613l-163.488-110.672l228.359-262.27l20.5,12.961L1216.637,1483.613z"/>
	<rect x="1262.898" y="1686.602" class="cls-1" width="227.398" height="71.059"/>
	<rect x="815.801" y="875.699" class="cls-1" width="368.379" height="71.059"/>
	<rect x="815.801" y="989" class="cls-1" width="368.379" height="71.051"/>
	<rect x="915" y="1102.398" class="cls-1" width="169.93" height="71.059"/>
</svg>
