<svg id="Layer_1" data-name="Layer 1" xmlns="http://www.w3.org/2000/svg" viewBox="0 0 2000 2000">
    <defs>
        <style>
            .cls-1 {
                fill: #e74a3e;
            }
            
            .cls-2 {
                fill: #181818;
            }
        </style>
    </defs>
    <title>Corporate-Business</title>
	<path class="cls-2" d="M590.961,578.996l-170.262,170.25l-170.25-170.262c-54.461,0-108.93,20.781-150.469,62.328
		c-41.551,41.563-62.332,96.012-62.332,150.484v383.051h170.242v148.969H633.52v-148.973h170.238V791.805
		c0.004-54.48-20.777-108.918-62.328-150.48C699.879,599.773,645.418,578.996,590.961,578.996z"/>
	<rect x="931.199" y="1567.273" class="cls-2" width="225.91" height="225.91"/>
	<rect x="931.199" y="1266.074" class="cls-2" width="225.91" height="225.898"/>
	<rect x="931.199" y="964.875" class="cls-2" width="225.91" height="225.91"/>
	<rect x="931.199" y="663.676" class="cls-2" width="225.91" height="225.898"/>
	<rect x="931.199" y="362.477" class="cls-2" width="225.91" height="225.898"/>
	<path class="cls-1" d="M420.699,474.773c130.281,0,236.27-105.988,236.27-236.277S550.977,2.227,420.699,2.227
		S184.43,108.215,184.43,238.504S290.418,474.773,420.699,474.773z M420.699,77.523c88.762,0,160.98,72.223,160.98,160.98
		s-72.219,160.969-160.98,160.969c-88.75,0-160.969-72.223-160.969-160.98S331.949,77.523,420.699,77.523z"/>
	<rect x="383.102" y="1401.875" class="cls-1" width="75.301" height="595.898"/>
	<path class="cls-1" d="M841.398,1326.016V791.816c0-66.891-26.051-129.773-73.359-177.102
		c-47.301-47.301-110.199-73.359-177.09-73.359h-340.5c-66.891,0-129.801,26.059-177.109,73.359C26.039,662.035,0,724.926,0,791.816
		v534.199h170.199v671.758H245.5v-822.898h-75.301v75.84H75.309V791.816c0-46.77,18.223-90.77,51.301-123.871
		c33.09-33.082,77.063-51.301,123.852-51.301h340.5c46.789,0,90.762,18.223,123.84,51.301
		c33.09,33.102,51.309,77.102,51.309,123.871v458.898h-94.91v-75.84h-75.301v822.898h75.301v-671.758H841.398z"/>
	<rect x="383.102" y="820.176" class="cls-1" width="75.301" height="75.32"/>
	<rect x="383.102" y="970.773" class="cls-1" width="75.301" height="75.301"/>
	<path class="cls-1" d="M1693.43,2.664H803.762v75.301h836.43v284.488h284.508v1559.973H803.762v75.301H2000V309.254L1693.43,2.664
		z M1715.488,131.213L1871.4,287.156h-155.912V131.213z"/>
	<rect x="1232.398" y="1567.273" class="cls-1" width="301.199" height="75.301"/>
	<rect x="1232.398" y="1717.875" class="cls-1" width="602.398" height="75.301"/>
	<rect x="1232.398" y="1266.074" class="cls-1" width="301.199" height="75.301"/>
	<rect x="1232.398" y="1416.676" class="cls-1" width="602.398" height="75.289"/>
	<rect x="1006.5" y="1040.176" class="cls-1" width="75.301" height="75.301"/>
	<rect x="1232.398" y="964.875" class="cls-1" width="301.199" height="75.301"/>
	<rect x="1232.398" y="1115.477" class="cls-1" width="602.398" height="75.301"/>
	<rect x="1006.5" y="738.965" class="cls-1" width="75.301" height="75.301"/>
	<rect x="1232.398" y="663.676" class="cls-1" width="301.199" height="75.301"/>
	<rect x="1232.398" y="814.273" class="cls-1" width="602.398" height="75.301"/>
	<rect x="1006.5" y="437.754" class="cls-1" width="75.301" height="75.301"/>
	<rect x="1232.398" y="362.477" class="cls-1" width="301.199" height="75.301"/>
	<rect x="1232.398" y="513.074" class="cls-1" width="602.398" height="75.301"/>
	<rect x="931.199" y="211.875" class="cls-1" width="75.309" height="75.301"/>
	<rect x="1081.898" y="211.875" class="cls-1" width="75.289" height="75.301"/>
	<rect x="1232.398" y="211.875" class="cls-1" width="75.301" height="75.301"/>
</svg>
