<svg id="Layer_1" data-name="Layer 1" xmlns="http://www.w3.org/2000/svg" viewBox="0 0 2000 2000">
    <defs>
        <style>
            .cls-1 {
                fill: #e74a3e;
            }
            
            .cls-2 {
                fill: #181818;
            }
        </style>
    </defs>
    <title>Corporate-Business</title>
	<path class="cls-1" d="M0,560h464V96H0V560z M80,176h304v304H80V176z"/>
	<path class="cls-1" d="M768,560h192v152h80V560h192V96H768V560z M848,176h304v304h-112V328h-80v152H848V176z"/>
	<path class="cls-1" d="M1536,96v464h464V96H1536z M1920,480h-304V176h304V480z"/>
	<path class="cls-1" d="M0,1904h464v-464H0V1904z M80,1520h304v304H80V1520z"/>
	<path class="cls-1" d="M1536,1904h464v-464h-464V1904z M1616,1520h304v304h-304V1520z"/>
	<path class="cls-1" d="M1772.84,908.84c22.68-22.668,35.16-52.789,35.16-84.84V632h-80v192c0,10.68-4.152,20.723-11.73,28.301
		C1708.719,859.84,1698.691,864,1688,864h-40v80h40C1720.059,944,1750.211,931.512,1772.84,908.84z"/>
	<path class="cls-1" d="M1648,1136h40c10.691,0,20.723,4.16,28.281,11.719c7.57,7.57,11.719,17.621,11.719,28.281v192h80v-192
		c0-32.039-12.48-62.16-35.141-84.82c-22.648-22.691-52.801-35.18-84.859-35.18h-40V1136z"/>
	<path class="cls-1" d="M192,632v192c0,32.039,12.48,62.168,35.141,84.828C249.789,931.512,279.93,944,312,944h40v-80h-40
		c-10.691,0-20.723-4.16-28.281-11.719C276.16,844.719,272,834.672,272,824V632H192z"/>
	<path class="cls-1" d="M192,1368h80v-192c0-10.66,4.152-20.711,11.73-28.289C291.281,1140.16,301.309,1136,312,1136h40v-80h-40
		c-32.059,0-62.199,12.488-84.84,35.16C204.48,1113.828,192,1143.961,192,1176V1368z"/>
	<path class="cls-1" d="M1040,1288h-80v152H768v464h464v-464h-192V1288z M1152,1520v304H848v-304h112v152h80v-152H1152z"/>
	<path class="cls-2" d="M424,712v576h1152V712H424z M880,1040h-80v-80h80V1040z M1040,1040h-80v-80h80V1040z M1200,1040h-80v-80h80
	V1040z"/>
</svg>
