<svg id="Layer_1" data-name="Layer 1" xmlns="http://www.w3.org/2000/svg" viewBox="0 0 2000 2000">
    <defs>
        <style>
            .cls-1 {
                fill: #e74a3e;
            }
            
            .cls-2 {
                fill: #181818;
            }
        </style>
    </defs>
    <title>Corporate-Business</title>
	<polygon class="cls-2" points="1289.07,125 1289.07,273.379 1593.77,273.379 1593.77,1851.559 406.23,1851.559 406.23,273.379 
		710.93,273.379 710.93,125 257.789,124.941 257.789,2000 1742.211,2000 1742.211,124.941 	"/>
	<path class="cls-2" d="M703.109,1189.832h593.77v-148.441c0-37.992-14.488-75.969-43.469-104.961
		c-28.969-28.988-67-43.488-104.969-43.488L1000,1041.391L851.559,892.941c-37.988,0-75.988,14.5-104.969,43.488
		s-43.48,66.969-43.48,104.961V1189.832z"/>
	<path class="cls-2" d="M1000,849.113c82.031,0,148.441-66.473,148.441-148.441c0-81.953-66.41-148.441-148.441-148.441
		c-81.973,0-148.441,66.48-148.441,148.441C851.559,782.645,918.031,849.113,1000,849.113z"/>
	<path class="cls-1" d="M1289.07,234.262V125H1125c0-69.031-55.969-125-125-125c-69.051,0-125,55.969-125,125H710.93v109.262
		H367.172v1656.297h1265.656V234.262H1289.07z M789.059,203.129H875h78.129V125c0-25.852,21.031-46.879,46.879-46.879
		c25.852,0,46.879,21.031,46.879,46.879v78.129h78.129h85.949v140.57h-0.016H789.059V203.129z M1554.711,1812.43H445.301V312.391
		H710.93v109.43h578.141v-109.43h265.641V1812.43z"/>
	<rect x="570.301" y="1307" class="cls-1" width="859.398" height="78.129"/>
	<rect x="570.301" y="1463.301" class="cls-1" width="859.398" height="78.129"/>
	<rect x="570.301" y="1619.5" class="cls-1" width="859.398" height="78.129"/>
</svg>
