<svg id="Layer_1" data-name="Layer 1" xmlns="http://www.w3.org/2000/svg" viewBox="0 0 2000 2000">
    <defs>
        <style>
            .cls-1 {
                fill: #e74a3e;
            }
            
            .cls-2 {
                fill: #181818;
            }
        </style>
    </defs>
    <title>Corporate-Business</title>
	<path class="cls-1" d="M1444.367,745.477v70.18h72.648v286.59c0,26.891-10.492,52.172-29.512,71.191
		c-19.02,19.023-44.32,29.512-71.199,29.512h-42.801v70.18h42.801c45.621,0,88.531-17.789,120.813-50.051
		c32.289-32.301,50.07-75.199,50.07-120.84V745.477H1444.367z"/>
	<path class="cls-1" d="M626.508,1273.129v-70.18h-42.809c-26.891,0-52.18-10.492-71.199-29.512
		c-19.023-19.02-29.512-44.301-29.512-71.191V815.668h72.648v-70.18h-142.82v356.762c0,45.641,17.781,88.551,50.07,120.84
		c32.281,32.258,75.191,50.039,120.82,50.039H626.508z"/>
	<rect x="964.906" y="1014.602" class="cls-1" width="70.199" height="83.629"/>
	<path class="cls-1" d="M1352.285,1763.629h70.18c0-45.617-17.762-88.52-50.051-120.809s-75.199-50.059-120.828-50.059h-216.48
		v-109.703h62.449v-105.27h-70.18v35.09h-54.738v-35.09h-70.184v105.27h62.453v109.703h-216.5c-45.621,0-88.539,17.77-120.84,50.059
		c-32.27,32.277-50.031,75.18-50.031,120.809h70.18c0-26.879,10.469-52.18,29.48-71.199c19.027-19,44.328-29.488,71.219-29.488
		h216.492v100.719h70.199v-100.719h216.492c26.879,0,52.188,10.488,71.199,29.488
		C1341.816,1711.449,1352.285,1736.75,1352.285,1763.629z"/>
	<path class="cls-1" d="M1000.004,1804.891c-53.797,0-97.559,43.762-97.559,97.551c0,53.797,43.758,97.559,97.559,97.559
		c53.781,0,97.551-43.762,97.551-97.559C1097.555,1848.652,1053.785,1804.891,1000.004,1804.891z M1000.004,1929.82
		c-15.098,0-27.379-12.277-27.379-27.379c0-15.082,12.277-27.371,27.379-27.371c15.09,0,27.371,12.281,27.371,27.371
		S1015.094,1929.82,1000.004,1929.82z"/>
	<path class="cls-1" d="M612.625,1804.891c-53.797,0-97.559,43.762-97.559,97.551c0,53.797,43.77,97.559,97.559,97.559
		s97.551-43.762,97.551-97.559C710.176,1848.652,666.406,1804.891,612.625,1804.891z M612.625,1929.82
		c-15.098,0-27.379-12.277-27.379-27.379c0-15.082,12.277-27.371,27.379-27.371c15.09,0,27.379,12.281,27.371,27.371
		C639.996,1917.531,627.715,1929.82,612.625,1929.82z"/>
	<path class="cls-1" d="M1387.375,1804.891c-53.777,0-97.539,43.762-97.539,97.551c0,53.797,43.758,97.559,97.539,97.559
		c53.801,0,97.57-43.762,97.57-97.559C1484.945,1848.652,1441.176,1804.891,1387.375,1804.891z M1387.375,1929.82
		c-15.078,0-27.359-12.277-27.359-27.379c0-15.082,12.27-27.371,27.359-27.371c15.109,0,27.398,12.281,27.391,27.371
		C1414.766,1917.531,1402.484,1929.82,1387.375,1929.82z"/>
	<path class="cls-2" d="M1347.629,1138.008c-26.531-26.512-61.27-39.781-96.031-39.781h-503.18
		c-34.762,0-69.512,13.281-96.031,39.781c-26.5,26.52-39.762,61.27-39.762,96.031v143.75h774.75h0.016v-143.75
		C1387.391,1199.277,1374.129,1164.52,1347.629,1138.008z"/>
	<path class="cls-2" d="M748.414,1014.613h503.168c34.762,0,69.512-13.242,96.031-39.781c26.512-26.5,39.762-61.262,39.762-96.012
		v0.004h0.012V135.793c0-34.75-13.262-69.5-39.762-96.012C1321.094,13.27,1286.355,0,1251.594,0h-503.18
		c-34.758,0-69.5,13.27-96.031,39.777c-26.5,26.512-39.762,61.262-39.762,96.012V878.82c0,34.75,13.262,69.512,39.762,96.012
		C678.914,1001.375,713.652,1014.613,748.414,1014.613z"/>
</svg>
