<svg id="Layer_1" data-name="Layer 1" xmlns="http://www.w3.org/2000/svg" viewBox="0 0 2000 2000">
    <defs>
        <style>
            .cls-1 {
                fill: #e74a3e;
            }
            
            .cls-2 {
                fill: #181818;
            }
        </style>
    </defs>
    <title>Corporate-Business</title>
	<path class="cls-2" d="M1068.297,718.348H548.828v0.004l-158.73,158.73l-158.73-158.73h-0.031
		c-49.051,0-98.09,18.691-135.531,56.141c-37.43,37.449-56.129,86.461-56.129,135.531v294.879h158.73v187.16h383.34V877.078h486.551
		V718.348z"/>
	<rect x="746" y="1270.789" class="cls-2" width="79.371" height="138.891"/>
	<rect x="902.801" y="1131.891" class="cls-2" width="79.371" height="277.77"/>
	<rect x="1059.699" y="1252.988" class="cls-2" width="79.371" height="156.738"/>
	<rect x="1216.5" y="1073.988" class="cls-2" width="79.371" height="335.699"/>
	<rect x="1373.301" y="1173.59" class="cls-2" width="79.371" height="236.102"/>
	<rect x="1530.102" y="994.988" class="cls-2" width="79.371" height="414.68"/>
	<rect x="1686.898" y="1062.488" class="cls-2" width="79.371" height="347.219"/>
	<path class="cls-1" d="M390.102,610.621c118.129,0,214.25-96.129,214.25-214.289s-96.121-214.281-214.25-214.281
		c-118.168,0-214.289,96.113-214.289,214.281S271.941,610.621,390.102,610.621z M390.102,261.422
		c74.367,0,134.891,60.531,134.891,134.922S464.48,531.266,390.102,531.266c-74.402,0-134.922-60.531-134.922-134.922
		S315.703,261.422,390.102,261.422z"/>
	<rect x="350.398" y="1499.789" class="cls-1" width="79.371" height="486.539"/>
	<path class="cls-1" d="M1255.461,678.672H231.34c-61.82,0-119.922,24.07-163.602,67.77C24.059,790.168,0,848.25,0,910.02v482.039
		h158.73v594.332h79.371v-781.5H158.73v107.797H79.359V910.016c0-40.578,15.809-78.738,44.52-107.469
		c28.68-28.711,66.84-44.52,107.461-44.52h944.75v79.371H542.07v1148.973h79.371V916.773h634.02V678.672z"/>
	<path class="cls-1" d="M2000,381.352h-496.367L1135.879,13.609L768.156,381.352H746v79.359h1174.629v70.539H746v79.371h1099.672
		v894.988H746v79.359h350.199v148.351c-52.132,16.798-89.941,65.765-89.941,123.411c0,71.48,58.141,129.641,129.621,129.641
		c71.473,0,129.621-58.16,129.621-129.641c0-57.639-37.814-106.6-89.93-123.404v-148.357h749.469V610.621H2000V381.352z
		 M1135.879,125.84L1391.4,381.352H880.392L1135.879,125.84z M1135.879,1906.992c-27.711,0-50.25-22.559-50.25-50.27
		s22.539-50.262,50.25-50.262s50.25,22.551,50.25,50.262S1163.59,1906.992,1135.879,1906.992z"/>
	<rect x="1371.398" y="678.672" class="cls-1" width="79.371" height="79.371"/>
	<rect x="1530.102" y="678.672" class="cls-1" width="79.371" height="79.371"/>
	<rect x="1688.898" y="678.672" class="cls-1" width="79.371" height="79.371"/>
	<rect x="1371.398" y="837.391" class="cls-1" width="396.828" height="79.371"/>
</svg>
