<svg id="Layer_1" data-name="Layer 1" xmlns="http://www.w3.org/2000/svg" viewBox="0 0 2000 2000">
    <defs>
        <style>
            .cls-1 {
                fill: #e74a3e;
            }
            
            .cls-2 {
                fill: #181818;
            }
        </style>
    </defs>
    <title>Corporate-Business</title>
	<rect x="1523.714" y="1302.396" transform="matrix(0.7071 -0.7071 0.7071 0.7071 -686.0137 1656.1759)" class="cls-2" width="264.906" height="707.562"/>
	<path class="cls-2" d="M847.467,1011.992c90.727,0,164.553-73.826,164.553-164.553c0-90.728-73.826-164.554-164.553-164.554
		c-90.728,0-164.553,73.818-164.553,164.554C682.922,938.162,756.739,1011.992,847.467,1011.992z"/>
	<path class="cls-2" d="M847.467,1053.49c-105.286,0-197.104,58.537-244.813,144.714c69.365,48.518,153.733,77.067,244.813,77.067
		c91.066,0,175.454-28.55,244.812-77.087C1044.561,1112.008,952.752,1053.49,847.467,1053.49z"/>
	<path class="cls-1" d="M597.424,124.113L570.66,46.327c-26.992,9.289-53.772,20.069-79.67,32.057l34.608,74.658
		C548.945,142.222,573.116,132.483,597.424,124.113z"/>
	<path class="cls-1" d="M457.109,189.13l-42.03-70.708c-24.507,14.542-48.549,30.53-71.446,47.529l48.979,66.087
		C413.271,216.707,434.969,202.259,457.109,189.13z"/>
	<path class="cls-1" d="M748.126,88.712L737.49,7.125c-28.309,3.703-56.689,8.871-84.428,15.351l18.797,80.106
		C696.897,96.731,722.537,92.04,748.126,88.712z"/>
	<path class="cls-1" d="M229.246,396.381l-66.396-48.588c-16.839,23.019-32.69,47.17-47.068,71.748l70.997,41.588
		C199.747,438.949,214.055,417.161,229.246,396.381z"/>
	<path class="cls-1" d="M332.762,281.225l-55.377-60.834c-20.948,19.089-41.319,39.545-60.447,60.826l61.158,55.037
		C295.404,317.004,313.853,298.474,332.762,281.225z"/>
	<path class="cls-1" d="M101.559,676.434L21.374,658.09c-6.359,27.741-11.339,56.17-14.858,84.509l81.646,10.109
		C91.34,727.111,95.852,701.452,101.559,676.434z"/>
	<path class="cls-1" d="M151.096,529.837l-74.869-34.12c-11.82,25.929-22.448,52.768-31.557,79.817l77.938,26.319
		C130.858,577.476,140.448,553.246,151.096,529.837z"/>
	<path class="cls-1" d="M1077.583,31.655c-27.448-7.688-55.588-14.089-83.696-18.988l-14.128,81.036
		c25.378,4.449,50.779,10.218,75.548,17.179L1077.583,31.655z"/>
	<path class="cls-1" d="M1583.171,636.622l79.106-22.608c-7.813-27.409-17.151-54.748-27.726-81.216l-76.419,30.499
		C1567.684,587.214,1576.101,611.873,1583.171,636.622z"/>
	<path class="cls-1" d="M1440.563,363.862l63.658-52.076c-18.008-22.031-37.358-43.409-57.936-64.002l-1.93-1.91l-58.189,58.17
		l2.359,2.352C1406.744,324.625,1424.263,343.964,1440.563,363.862z"/>
	<path class="cls-1" d="M1610.408,789l82.056-6.27c-2.188-28.491-5.84-57.131-10.827-85.099l-80.998,14.46
		C1605.158,737.38,1608.459,763.262,1610.408,789z"/>
	<path class="cls-1" d="M1380.428,188.497c-22.108-17.929-45.408-34.948-69.298-50.588l-45.089,68.806
		c21.551,14.132,42.589,29.491,62.537,45.67L1380.428,188.497z"/>
	<path class="cls-1" d="M82.517,830.018l-82.259-1.891c-0.66,28.44,0.141,57.318,2.379,85.778l82.017-6.441
		C82.63,881.785,81.911,855.716,82.517,830.018z"/>
	<path class="cls-1" d="M1237.023,94.625c-25.289-13.109-51.581-25.069-78.139-35.53l-30.19,76.536
		c23.968,9.441,47.667,20.222,70.467,32.03L1237.023,94.625z"/>
	<path class="cls-1" d="M902.824,84.274l5.948-82.044c-28.417-2.082-57.256-2.699-85.767-1.871l2.359,82.235
		C851.114,81.845,877.164,82.415,902.824,84.274z"/>
	<path class="cls-1" d="M1525.821,492.928l72.888-38.146c-13.28-25.351-27.959-50.229-43.627-73.919l-68.619,45.377
		C1500.604,447.609,1513.834,470.058,1525.821,492.928z"/>
	<path class="cls-1" d="M868.017,1612.33l2.18,82.247c28.468-0.738,57.236-2.98,85.536-6.59l-10.457-81.626
		C919.726,1609.639,893.746,1611.65,868.017,1612.33z"/>
	<path class="cls-1" d="M94.583,984.341L13.605,999c5.102,28.12,11.671,56.229,19.531,83.548l79.075-22.749
		C105.109,1035.14,99.18,1009.742,94.583,984.341z"/>
	<path class="cls-1" d="M1612.396,866.446c-0.621,25.718-2.57,51.697-5.801,77.267l81.618,10.301
		c3.57-28.312,5.75-57.08,6.43-85.536L1612.396,866.446z"/>
	<path class="cls-1" d="M699.308,1681.887c28.069,4.979,56.709,8.558,85.138,10.659l6.078-82.048
		c-25.68-1.898-51.55-5.148-76.877-9.609L699.308,1681.887z"/>
	<path class="cls-1" d="M1571.848,1094.485l77.887,26.53c9.18-26.987,17.082-54.756,23.48-82.541l-80.189-18.448
		C1587.276,1045.096,1580.136,1070.134,1571.848,1094.485z"/>
	<path class="cls-1" d="M1021.542,1592.65l18.648,80.146c27.815-6.469,55.575-14.43,82.485-23.647l-26.667-77.857
		C1071.752,1579.62,1046.682,1586.8,1021.542,1592.65z"/>
	<path class="cls-1" d="M249.476,1447.906c20.257,20.179,41.698,39.479,63.678,57.377l51.936-63.787
		c-19.858-16.179-39.229-33.651-57.557-51.889L249.476,1447.906z"/>
	<path class="cls-1" d="M209.368,1269.99l-68.548,45.476c15.718,23.71,32.89,46.908,51.018,69.009l63.588-52.236
		C239.027,1312.31,223.555,1291.381,209.368,1269.99z"/>
	<path class="cls-1" d="M137.39,1133.065l-76.356,30.64c10.621,26.452,22.722,52.678,36.01,77.938l72.826-38.299
		C157.901,1180.564,146.967,1156.904,137.39,1133.065z"/>
	<path class="cls-1" d="M382.35,1556.023c23.808,15.667,48.689,30.276,74.018,43.467l37.986-72.985
		c-22.847-11.897-45.318-25.089-66.767-39.217L382.35,1556.023z"/>
	<path class="cls-1" d="M534.435,1635.181c26.491,10.508,53.83,19.769,81.259,27.538l22.437-79.138
		c-24.769-7.039-49.447-15.409-73.356-24.878L534.435,1635.181z"/>
	<path class="cls-1" d="M1435.09,1376.805l-123.106-123.125c98.673-112.494,152.57-255.207,152.57-406.248
		c0-164.804-64.2-319.778-180.755-436.313c-116.539-116.578-271.502-180.755-436.336-180.755
		c-164.823,0-319.778,64.189-436.313,180.755c-240.593,240.594-240.593,632.056,0,872.649
		c116.539,116.559,271.491,180.755,436.337,180.755c151.043,0,293.813-53.925,406.326-152.658l123.096,123.114L1435.09,1376.805z
		 M1225.648,1225.602c-101.008,101.016-235.313,156.643-378.158,156.643c-142.858,0-277.143-55.627-378.159-156.643
		c-208.524-208.513-208.524-547.777,0-756.302c101.005-101.016,235.301-156.643,378.136-156.643
		c142.861,0,277.146,55.623,378.162,156.639c101.016,101.017,156.643,235.301,156.643,378.147
		C1382.271,990.301,1326.645,1124.586,1225.648,1225.602z"/>
	<path class="cls-1" d="M847.455,419.61c-235.922,0-427.837,191.935-427.837,427.837h82.278
		c0-190.553,155.025-345.559,345.559-345.559c190.544,0,345.558,155.025,345.558,345.559h82.286
		C1275.299,611.545,1083.388,419.61,847.455,419.61z"/>
	
		<rect x="1457.828" y="1366.582" transform="matrix(-0.7069 -0.7073 0.7073 -0.7069 1498.3209 3618.9458)" class="cls-1" width="82.285" height="264.906"/>
	
		<rect x="1680.884" y="1772.021" transform="matrix(0.7073 -0.7069 0.7069 0.7073 -750.9902 1812.5596)" class="cls-1" width="264.906" height="82.297"/>
</svg>
