<svg id="Layer_1" data-name="Layer 1" xmlns="http://www.w3.org/2000/svg" viewBox="0 0 2000 2000">
    <defs>
        <style>
            .cls-1 {
                fill: #e74a3e;
            }
            
            .cls-2 {
                fill: #181818;
            }
        </style>
    </defs>
    <title>Corporate-Business</title>
	<path class="cls-2" d="M1211.212,1498.137c0-26.859,5.077-54.14,15.987-80.519c10.91-26.358,26.621-49.288,45.629-68.269
		l310.315-310.334c0.691-0.602,1.371-1.199,2.059-1.859C1483.664,815.351,1259.898,661.15,999.98,661.15
		c-259.906,0-483.664,154.196-585.201,376.006c0.68,0.647,1.422,1.262,2.059,1.859L727.16,1349.35
		c19.012,18.98,34.699,41.91,45.629,68.269c10.91,26.379,16,53.659,16,80.519v239.484h89.678v0.043h-578.62v210.396h578.62v-11.672
		c39.37,7.531,79.948,11.621,121.51,11.621c41.55,0,82.159-4.09,121.479-11.621l0.008-198.767h89.749V1498.137z"/>
	<rect x="1121.482" y="1737.664" class="cls-2" width="578.683" height="210.396"/>
	<path class="cls-2" d="M564.319,489.172c88.69,88.659,232.598,88.741,321.417-0.008c88.689-88.697,88.658-232.707-0.012-321.394
		c-37.012-36.979-83.62-56.671-131.217-64.639C448.544,51.94,448.544,51.94,448.544,51.94s0,0,51.128,306.015
		C507.613,405.615,527.402,452.235,564.319,489.172z"/>
	<path class="cls-2" d="M1435.595,489.172c36.979-36.937,56.749-83.557,64.71-131.217c51.14-306.015,51.14-306.015,51.14-306.015
		s0,0-305.976,51.191c-47.589,7.968-94.186,27.66-131.236,64.639c-88.639,88.687-88.67,232.696-0.031,321.394
		C1203.052,577.913,1346.998,577.831,1435.595,489.172z"/>
	<path class="cls-1" d="M1958.344,512.012c-26.862-26.848-62.58-41.648-100.6-41.648c-37.961,0-73.69,14.777-100.6,41.648
		c-26.832,26.87-41.621,62.589-41.621,100.6v300.296h74.069V612.623c0-18.23,7.09-35.358,19.922-48.21
		c12.89-12.879,30.019-19.969,48.218-19.969c18.23,0,35.34,7.09,48.19,19.949c12.891,12.891,19.98,29.999,19.98,48.218v598.21
		c0,9.039-1.742,17.789-5.16,26.038c-3.457,8.332-8.418,15.77-14.809,22.121l-229.266,229.285
		c-32.909,32.938-58.628,71.437-76.39,114.378c-13.066,31.49-21.413,64.29-24.946,97.951h-327.087v-202.431
		c0-22.89,4.43-45.229,13.16-66.351c8.757-21.147,21.397-40.077,37.608-56.249l310.296-310.315c12.871-12.859,30-19.94,48.21-19.94
		c18.242,0,35.383,7.069,48.21,19.921c12.871,12.867,19.961,30.02,19.961,48.237c0,18.199-7.09,35.301-19.949,48.18
		l-228.984,228.977c-12.891,12.879-30,19.98-48.218,19.98v74.076c37.999,0,73.722-14.812,100.6-41.69l228.985-228.977
		c26.858-26.859,41.647-62.577,41.647-100.558c0-38.011-14.777-73.74-41.647-100.619c-26.84-26.84-62.563-41.628-100.601-41.628
		c-37.976,0-73.698,14.769-100.576,41.628l-310.296,310.304c-23.113,23.077-41.171,50.12-53.69,80.339
		c-12.469,30.147-18.789,61.999-18.789,94.658v202.458h-89.748v247.414h74.089v-173.345h15.659h473.302h0.023h15.605v173.345h74.08
		v-247.414h-87.223c3.181-23.861,9.439-47.159,18.774-69.62c14.031-33.948,34.339-64.358,60.339-90.378l229.188-229.215
		c13.281-13.207,23.691-28.749,30.91-46.147c7.18-17.281,10.82-35.602,10.82-54.44V612.611
		C1999.992,574.632,1985.195,538.89,1958.344,512.012z"/>
	<path class="cls-1" d="M825.843,1498.105c0-32.641-6.34-64.491-18.84-94.71c-12.527-30.222-30.589-57.229-53.647-80.261
		L443.032,1012.78c-26.848-26.839-62.565-41.608-100.577-41.608c-38.019,0-73.717,14.789-100.588,41.628
		c-26.859,26.879-41.659,62.608-41.659,100.608c0,37.979,14.792,73.69,41.671,100.568l228.984,228.978
		c26.859,26.89,62.578,41.69,100.589,41.69v-74.077c-18.211,0-35.319-7.09-48.21-19.979L294.245,1161.61
		c-12.878-12.878-19.968-29.999-19.968-48.179c0-18.219,7.09-35.371,19.968-48.229c12.84-12.859,29.969-19.93,48.198-19.93
		c18.23,0,35.359,7.07,48.211,19.922l310.335,310.347c16.14,16.129,28.808,35.069,37.569,56.218
		c8.77,21.172,13.191,43.499,13.191,66.37v202.458H424.646c-3.512-33.609-11.859-66.429-24.909-97.929
		c-17.801-42.979-43.52-81.479-76.448-114.42L93.983,1258.891c-6.309-6.289-11.27-13.707-14.73-22.078
		c-3.441-8.27-5.18-17.02-5.18-26.031V612.6c0-18.199,7.089-35.327,19.968-48.218c12.852-12.859,29.992-19.949,48.21-19.949
		c18.218,0,35.339,7.09,48.198,19.941c12.879,12.887,19.968,30.019,19.968,48.237v300.284h74.077V612.611
		c0-37.979-14.789-73.71-41.66-100.6c-26.851-26.859-62.569-41.648-100.588-41.648c-38.019,0-73.749,14.801-100.608,41.672
		C14.789,538.921,0,574.651,0,612.611v598.179c0,18.812,3.648,37.132,10.82,54.421c7.219,17.422,17.617,32.96,30.828,46.12
		l229.266,229.277c26.011,26.027,46.332,56.437,60.39,90.397c9.298,22.455,15.553,45.75,18.738,69.589h-87.225v247.414h74.069
		v-173.345h15.628h473.313h15.608v173.345h74.069v-247.414h-89.662V1498.105z"/>
	<polygon class="cls-1" points="1301.159,354.654 1248.801,302.284 999.984,551.081 751.188,302.284 698.817,354.654 
		962.984,618.819 962.984,1304.569 1037.062,1304.569 1037.062,618.743 	"/>
</svg>
