<svg id="Layer_1" data-name="Layer 1" xmlns="http://www.w3.org/2000/svg" viewBox="0 0 2000 2000">
    <defs>
        <style>
            .cls-1 {
                fill: #e74a3e;
            }
            
            .cls-2 {
                fill: #181818;
            }
        </style>
    </defs>
    <title>Corporate-Business</title>
	<path class="cls-2" d="M1211.215,360.102l-130.238-53.582l-20.129,20.141l53.551,130.238h44.012v94.289h143.32L1165.625,884.82
		h46.551c26.039,0,47.09,21.129,47.09,47.16c0,26.051-21.051,47.141-47.09,47.141h-46.551c0,148.141,18.641,290.352,55.68,422.789
		c221.379-88.07,377.969-304.141,377.969-556.949c0-256.602-161.32-475.441-388.07-560.879v76.02H1211.215z"/>
	<path class="cls-2" d="M778.727,1401.91c37-132.441,55.672-274.648,55.672-422.789h-46.539c-26.031,0-47.16-21.09-47.16-47.141
		c0-26.031,21.129-47.16,47.16-47.16h46.539L698.289,551.191h143.32v-94.289h43.988l53.578-130.238l-20.121-20.141l-130.262,53.578
		V284.07c-226.77,85.441-388.07,304.289-388.07,560.879C400.734,1097.77,557.316,1313.852,778.727,1401.91z"/>
<path class="cls-1" d="M1488.605,1784.191c0-66.992-54.508-121.48-121.52-121.48h-2.645
	c-102.674-184.669-159.061-407.995-163.964-649.109h11.706c44.973,0,81.57-36.621,81.57-81.629c0-43.43-34.077-79.045-76.865-81.495
	l136.146-333.778h-160.141V422.41h-55.375l-27.391-66.621l135.578,55.781V79.82l-135.602,55.781L1165.875,0H834.137l55.77,135.602
	L754.316,79.82v331.75l135.59-55.781l-27.402,66.621h-55.391v94.289H646.977l136.163,333.779
	c-42.832,2.453-76.924,38.066-76.924,81.494c0,45.008,36.621,81.629,81.641,81.629h11.71
	c-4.906,241.054-61.303,464.374-164.022,649.109h-2.629c-66.977,0-121.488,54.492-121.488,121.48
	c0,63.04,48.245,115.013,109.73,120.948V2000h757.68v-94.86C1440.348,1899.205,1488.595,1847.231,1488.605,1784.191z
	 M927.188,265.883l-103.91,42.75V182.762l103.91,42.75l52.609-52.641l-42.719-103.91h125.859l-42.711,103.891l52.617,52.66
	l103.898-42.75v125.859l-103.898-42.75l-52.621,52.66l42.711,103.879H937.074l42.723-103.887L927.188,265.883z M876.086,491.379
	h247.852v25.32H876.086V491.379z M807.113,585.668v0.004h385.781v-0.004h57.531l-107.978,264.664H857.571L749.586,585.668H807.113z
	 M775.176,931.98c0-7,5.691-12.68,12.68-12.68h23.359h377.602h23.367c6.961,0,12.609,5.691,12.609,12.68
	c0,6.98-5.66,12.66-12.609,12.66h-12.063H799.922h-12.066C780.855,944.641,775.176,938.961,775.176,931.98z M868.547,1013.609
	h262.93c4.668,238.551,57.777,461.07,154.719,649.102h-572.43C810.754,1474.621,863.875,1252.09,868.547,1013.609z
	 M1309.863,1931.039h-619.75v-25.32h619.75V1931.039z M1367.086,1836.75H632.914c-28.973,0-52.531-23.578-52.531-52.559
	c0-28.969,23.563-52.52,52.531-52.52h734.172c28.988,0,52.559,23.559,52.559,52.52
	C1419.645,1813.18,1396.066,1836.75,1367.086,1836.75z"/>
</svg>
