<svg id="Layer_1" data-name="Layer 1" xmlns="http://www.w3.org/2000/svg" viewBox="0 0 2000 2000">
    <defs>
        <style>
            .cls-1 {
                fill: #e74a3e;
            }
            
            .cls-2 {
                fill: #181818;
            }
        </style>
    </defs>
    <title>Corporate-Business</title>
<path class="cls-2" d="M838.809,609.074c215.602,0,390.891,175.43,390.891,390.891h279.262
	c0-370.09-300.059-670.172-670.148-670.172S168.66,629.875,168.66,999.965c0,370.078,300.059,670.16,670.16,670.16
	c122.078,0,236.531-32.68,335.148-89.711l-139.789-242.199c-57.441,33.531-124.191,52.629-195.371,52.629
	c-215.609,0-390.891-175.281-390.891-390.879C447.922,784.504,623.199,609.074,838.809,609.074z"/>
	<rect x="804.199" y="430.395" class="cls-1" width="69.32" height="78.172"/>
	
		<rect x="534.422" y="505.903" transform="matrix(0.5004 0.8658 -0.8658 0.5004 754.5486 -226.4752)" class="cls-1" width="78.18" height="69.333"/>
	
		<rect x="340.277" y="700.11" transform="matrix(-0.8658 -0.5003 0.5003 -0.8658 340.2106 1560.7603)" class="cls-1" width="78.172" height="69.313"/>
	<rect x="269.191" y="965.297" class="cls-1" width="78.199" height="69.328"/>
	
		<rect x="344.689" y="1226.198" transform="matrix(-0.5005 -0.8657 0.8657 -0.5005 -526.2196 2226.9453)" class="cls-1" width="69.309" height="78.168"/>
	
		<rect x="538.894" y="1420.386" transform="matrix(-0.866 -0.5 0.5 -0.866 340.5071 3010.1914)" class="cls-1" width="69.319" height="78.178"/>
	<rect x="804.199" y="1491.496" class="cls-1" width="69.32" height="78.148"/>
	
		<rect x="1065.011" y="1424.802" transform="matrix(-0.5007 -0.8656 0.8656 -0.5007 393.592 3145.9495)" class="cls-1" width="78.166" height="69.319"/>
	
		<rect x="1259.124" y="1230.623" transform="matrix(-0.8663 -0.4995 0.4995 -0.8663 1790.8994 3009.8984)" class="cls-1" width="78.237" height="69.327"/>
	
		<rect x="1263.594" y="695.559" transform="matrix(0.5 0.866 -0.866 0.5 1285.3635 -756.9771)" class="cls-1" width="69.319" height="78.255"/>
	
		<rect x="1069.375" y="501.497" transform="matrix(0.866 0.5 -0.5 0.866 418.2197 -479.6017)" class="cls-1" width="69.319" height="78.178"/>
	<path class="cls-1" d="M2000,911.297l-49-49.023l-103.023,103.023h-43.467l54.021-54l-49.012-49.023l-103.038,103.023h-29.584
		c-18.257-446.501-387.191-804.113-838.089-804.113C376.281,161.184,0,537.465,0,999.996c0,462.52,376.281,838.82,838.809,838.82
		c450.937,0,819.89-357.674,838.094-804.211h29.55l103.067,103.059l49.012-49.008l-54.058-54.051h43.474L1951,1137.664l49-49.008
		l-88.672-88.691L2000,911.297z M838.809,1769.496c-424.301,0-769.5-345.199-769.5-769.5s345.199-769.5,769.5-769.5
		c412.684,0,750.504,326.541,768.712,734.801h-199.13h-78.191H982.525c-12.965-53.691-55.316-96.046-109.006-109.018V719.844h-69.32
		v136.411c-64.876,15.624-113.242,74.141-113.242,143.738c0,81.523,66.34,147.852,147.852,147.852
		c69.603,0,128.116-48.357,143.738-113.238h347.652v0.02h78.191v-0.02h199.134
		C1589.361,1442.897,1251.511,1769.496,838.809,1769.496z M909.275,1034.605c-12.812,26.001-39.577,43.93-70.466,43.93
		c-43.32,0-78.539-35.23-78.539-78.539c0-43.301,35.23-78.52,78.539-78.52c30.848,0,57.582,17.883,70.414,43.82h-70.422v69.309
		H909.275z"/>
</svg>
