<svg id="Layer_1" data-name="Layer 1" xmlns="http://www.w3.org/2000/svg" viewBox="0 0 2000 2000">
    <defs>
        <style>
            .cls-1 {
                fill: #e74a3e;
            }
            
            .cls-2 {
                fill: #181818;
            }
        </style>
    </defs>
    <title>Corporate-Business</title>
	<path class="cls-2" d="M1503.246,329.512L1371.688,884.25l-371.675-251.59l346.421-423.55h-692.91l346.456,423.55L628.297,884.25
	L496.734,329.512c-214.699,155.898-354.398,408.711-354.398,694.32c0,473.648,383.961,857.711,857.66,857.711
	c473.691,0,857.672-384.051,857.672-857.711C1857.664,738.211,1717.945,485.41,1503.246,329.512z M1330.773,1218.789l156.262-156.32
	l156.262,156.32H1330.773z"/>
	<rect x="1330.797" y="1218.801" class="cls-1" width="312.5" height="75.129"/>
	<path class="cls-1" d="M1178.211,798.643l217.473,147.216l174.852-737.219L1515.715,0H484.285l-54.82,208.641l174.84,737.211
		l217.473-147.213l78.549,176.963L643.766,1981.43l72.789,18.57l252.57-990.16h61.738L1283.414,2000l72.813-18.57L1099.666,975.615
		L1178.211,798.643z M1347.707,822.629l-292.63-198.06l414.054-506.27l23.975,91.271L1347.707,822.629z M1328.549,171.5H671.288
		l-78.844-96.391h814.938L1328.549,171.5z M1267.11,246.621L999.94,573.294L732.734,246.621H1267.11z M506.898,209.578
		l23.945-91.143l414.025,506.168L652.297,822.637L506.898,209.578z M964.375,934.719l-79.396-178.863L999.992,678l115.013,77.856
		l-79.38,178.862H964.375z"/>
</svg>
