<svg id="Layer_1" data-name="Layer 1" xmlns="http://www.w3.org/2000/svg" viewBox="0 0 2000 2000">
    <defs>
        <style>
            .cls-1 {
                fill: #e74a3e;
            }
            
            .cls-2 {
                fill: #181818;
            }
        </style>
    </defs>
    <title>Corporate-Business</title>
<path class="cls-2" d="M808.896,1682.679c3.34,0.77,12.172-2.281,14.672-3.058c-5.949-4.79-19.18-5.442-26.789-10.161
	c0.559,0.371-24.59-14.949-19.289-2.262c1.359,3.02,6.199,0.25,8.301,1.82c-3.051,4.559-4.352,3.102-1.039,5.031
	c0-0.031-27.988-15.09,0.102-16.148c-19.328-17.352,1.25-11.961-4.91-23c-4.129-7.5,16.531-14.801,5.41-21.309
	c-5.379-3-11.199-2.43-16.609-6.129c-7.731-5.641-0.442-15.551,6.922-14.48c0.57,0,4.281-17.66,5.719-20.391
	c-2.121-0.891-16.59-18.789-13.078-22.512c4.301-4.531,22.969,11.559,27.609-0.309c1.809-4.309-6.5-15.891-5.84-20.68
	c8.578-0.719,64.328,1.379,54.789-24.121c-3.23-8.941-26.73-22.219-24.379-29.469c8.281,1.031,21.73,13.039,30.359,8.289
	c7.309-3.648,13.129,4.059,20.531-4.25c1.109-1.559,13.672-14.781,10.121-17.25c-3.801-0.07-5.949,2.039-6.25,6.488
	c-4.359-6.031,3.172-10.172,7.109-14.539c1.23,1.41,2.031,2.641,2.859,3.801c4.789-6.969,30.398-40.5,31.422-41.34
	c13.23-15.238,2.172-35.93,15.289-48.059c11.969-11.289,24.949-18.551,39.781-24.57c4.719-1.859,21.07-10.441,24.531-9.578
	c27.262,8.461,23.961-24.102,41.301-38.898c17.809-14.781,4.711-90.392,18.988-95.95c7.711-3.109,31-31.828,43.16-44.961
	c11.781-12.43,13.141-28.621,8.75-44.75c-6.898-24.391-14.031-10.43-31.68-21.141c-14.07-8.41-24.84-25.25-42.59-27.602
	c-10.281-1.461-20.949,1.691-31.07-1.359c-4.57-1.359-16.121-8.449-20.422-2.5c0.73-0.949-9.551,3.859-8.789,4.141
	c-1.09-0.781-0.219-13.398-3.559-16.551c-5.449-5.07-23.602-10.25-30.211-11.879c-15.34-3.961-18.961,13.988-22.84-7.441
	c-12.672-3.422-25.18-18-22.922-21.691c1.141-1.531-19.551-45.129-22.422-41.078c-0.219-14.68-45.68-32.898-57.109-26
	c-10.41,7.66-29.422-6.68-35.871-13.5c-7.199-7.699-6.922-16.148-19.109-21.18c-5.09-2.16-13.871-1-12.012-9.941
	c2.109-9.23-22.352-11.121-24.641-20.262c3.469,0.602,6.461-1.121,9.66-1.922c-9.48,3.301-21-3.559-30.48,3.961
	c-13.59,11.34-21.73-5.281-36.602-2.281c-18.961,3.531-6.25-3.391-18.191-10.75c4.969,3.102-22.102-12.289-15.781-11.84
	c-5.629-0.531,0.859,9.48-5.469,11.59c-9.809,3.609-18.379,5.969-11.93,17.809c10.809,21.621-22.738,11.469-6.859-3.281
	c2.801-2.469,3.52-30.77,6.672-29.738c-3.879-1.379-34.501,18.531-38.091,22.77c-9.828-15.84-26.422,38.898-31.898,39.43
	c-2.828-13.469-15.68-19.059-26.871-22.961c-9.41-3.66-19,18.961-31.461,6.621c-22.012-22.469-12.359-58.488-1.109-83.969
	c4.648-11.672-40.809-15.289-46.379-10.539c-11.141,9.059,1.719-18.781,1.629-17.84c1.281-11.281,3.898-18.809,8.781-18.461
	c3.051-6.629,19.949-37.06,18.09-40.649c-6.77-16-35.531,12.219-38.121,19.371c-2.93,6.941-8.52,10.72-11.109,16.969
	c-2.711,6.341-8.012-1.409-12.59,1.149c-12.359,7-30.121,3.41-27.32-14.603c2.699-21.672-5.48-64.41,18.82-79.219
	c7.469-4.621,8.578-26.219,17.078-33.84c1.16-0.91,25.68-15.191,23.309-18c3.59,3.879,22.871-3.891,25.371,1.078
	c1.91,4.172,13.27,8.449,17.199,6.191c-0.211,0.422,2.09-9.578,2.09-9.672c-0.488-0.109-7.98-1.129-7.641-3.5
	c0.891-3.371,23.98-1.121,24.648-1.031c10.93,0.828,19.059,9.75,27.078,4.34c12.672-8.469,4.941,47.621,9.91,52.738
	c2.762,3.02,0.75,9.84,6.09,9.16c7.09-0.691,9.43-72.77,27.988-87.762c13.539-10.84,28.309-20.711,43.321-28.809
	c4.762-2.469,17.281-8.398,19.82-13.211c-0.609-2.359-2.75-5.059-5.41-2.66c-0.75-4.531,6.75-1.719,8.031-6.371
	c1.441-4.621-3.781-6.031-3.23-7.629c-0.191,0.352,4.672-9.531,2.98-8.148c0.25,0.23,0.25,0.66,0.309,0.859
	c7.449,1.262-1.629-6.891-1.879-8.148c9.77,5.039,5.59-10.641,15.148-11.531c-6.84,2.879-5.512,10.578-4.621,15.172
	c2,10.359,11.031-14.191,9.969-13.281c9.199-3.699,23.43-11.371,33.238-18.328c-2.289-0.859-4.66,0.922-7.441-1.031
	c10.039-3.762,21.359-2.578,30.898-7.48c-0.449-10.141,5.66-20.68,17.078-22.691c17.578-2.75,37.898-13.469,55.32-19.359
	c-2.66,5.922,1.41,1.328,6.16,3.609c-5.691-14.75-36.641,27.25-21.93,18.719c12.441-7.059,54.391-13.648,60.059-25.672
	c-0.109-0.801-2.762-8.789-2.699-8.789c-10.371,0-11.191,12.762-23.988,12.691c-23.012-0.25-9.031-14.469-13.891-20.898
	c-4.16,1.031-7.578-0.09-10.48-3.309c2.371-0.41,30.871-7,15.879-10.371c-24.41-5.25-40.68,21.898-60.781,21.27
	c14.922-9.18,35.43-28.68,53.68-31.18c19.309-2.719,46.371,6.781,63.359-5.16c15.34-10.461,25.68-2.84,34.141-19.93
	c2.711-4.691-11.059-10.641-14.578-11.309c1.441-1.75,4.5,0,5.809-2.941c-22.961-10.23-27.762-20.309-30.52-46.739
	c-11.59,8.469-50.77,26.602-29.809-3c-7.559-3.18-31.262-22.988-40.398-9.34c-4.129,6.16-10.781,16.441-17.691,19.641
	c-15.621,7.09-1.75,5.762-7.051,16.102c-8.762,17.059-29.949,14.782-39.98,29.762c-6.371,9.449-8.309,16.07-18.219,20.391
	c-8.57,3.879-11.871-6.219-7.59-14.281c2.988,3.34,5.75,3.871,8.281,1.34c0.75-3.789-4.512-2.02-6.23-3.309
	c3.059-5.41,6.859-10.25,11.18-14.648c-1.539-0.809-23.48-4.301-22.621-10.031c1.422-12.031-13.609-5.5-16.391-9.059
	c11.699-14.809,11.699-21.59,34.801-33.161c7.891-3.859,51.879-26.449,60.078-20.871c-1,5.141-6.34,4.109-9.379,6.578
	c6.371,1.672,24.781,3.719,30.961-0.691c-1.25-1.25-8.719-13.391-4.871-16.34c-0.559,0.531,12.691,0.25,13.641-0.09
	c7.051-1.66,14.82-2.59,18.891-9.719c3.469-6.441,26.762-14.68,32.301-11.5c30.59,17.309-41.27,35.621-42.039,33.75
	c1.48,5,20.82-3.641,25.711,9.621c1.238,3.25,23.18,10.461,25.32,7.34c1.379-1.531-6.328-9.609-6.559-11.559
	c23.039,11.262,21.922,5.379,18.059-10.059c-3.66-14.75,13.59,0.922,14.449,1.441c3.801,1.969,19.5-7.031,21.859-10.262
	c-5.75-4.281-15.43-4.172-20.461-9.449c-4.59-4.551,12.148-5.75,6.25-10.531c-6.969-5.691-17.922-4.25-14.078-15.512
	c-3.98-1.172-7.84-0.691-11.422,1.48c1.078,2.031,3.41,0.469,4.25,1.629c-3.922,2.289-8.25,2.641-12.551,2.5
	c1.328-1.879,5.359-1.879,5.449-5.672c-12.012-1.48-18.391,5.672-28.77,8.859c3-4.25,7.93-5.559,11.59-8.789
	c-11.371,1.512-22.199,5.609-31.18,13.199c1.25,1.281,2.672,2.469,3.371,4.16c-8.66,7.691-20.262,10.129-30.461,14.719
	c1.73-6.809,9.18-5.191,11.531-10.281c-3.781,0-7.398,0.969-10.73,2.531c4.379-0.648,17.199-13.398,20.039-16.648
	c-18.48-2.219-26.27,21.898-43.871,18.461c3.691-4.34,11.078-2.141,13.559-8.781c-6.441,0.75-30.988,17.488-35.051,8.781
	c-0.191-0.609,44.98-18.461,49.691-24.961c-3.051-0.422-6.5,2.66-9.18-0.941c2.172-2.371,5.809-2.711,8.301-5.281
	c-14.691-0.16-58.789,17.809-55.52,28.121c-5.648,4.66-11.75,5.781-18.77,2.969c2.672-4.309,12.352-4.379,4.551-10.559
	c-14.191,5.191-28.039,11-41.84,17.09c-31.922,14.141-63.102,30.629-92.59,48.988c-48.79,30.27-89.329,65.942-129.603,106.45
	c-21.371,21.719-102.93,116.949-102.609,136.879c0.16,14.609-8.469,27.648-13.961,40.871c-4.398,10.75-5.078,25.762-10.309,35.711
	c-11.879,21.23-6.5,45.66-11.852,70c6.781-5.199,20.551-116.34,32.672-112.078c2.301,0.75-7.5,46.211-9.93,51.77
	c-10.109,23.328,3.219,51.801-3.449,76.129c-0.75,2.449-4.078,14.762-4.16,17.309c-11.23,8.57,2.969,21.45,2.879,30.88
	c0,5.672,28.559,30.711,34.211,34.02c11.93,7.172,14.281-5.559,25.27-3.309c9.809,2.059,12.699,19.969,18.031,27.641
	c6.949,10.512,33.719,9.262,38.5,14.199c2.969,3.871,0.371,24.309,12.559,27.211c-0.051-1.449-0.309-8.59,1.422-9.699
	c3.738-2.191,11.559,11.422,8.891,13.859c-3.828,0.91-7.281-0.5-10.262-4.16c0,1.852-1.949,28.559,5.801,23.371
	c0.121-1.609,0.641-3.359,0.809-4.969c10.328,4.48,9.5,19.461,16.672,21.559c9.98,2.73,17.602,15.281,25,18.789
	c6.711,3.48,4.84-23.48,17.672-24.809c10.328-0.891,16.141,25.922,19.641,32.449c5.501,9.48-7.25,32.25-0.172,39.488
	c7.039,7.59-17.699,25.371-18.961,32.93c-0.781,5.781-13.422,11.289-12.969,13.48c0.969,6.238-2.699,14.859-5.039,20.879
	c-6.309,16.73-3.199,18.238,7.711,25.98c0.352,0.309-20.172,40.809-8.391,51.27c18.512,15.25,43.121,52.961,49.121,76.629
	c12.09,32.57,30.63,52.57,61.603,68.691c25.289,13.309,43.16,35.719,43.16,66.219c0.969,17.84-1.781,40.13,5.859,56.97
	c5.281,11.621-4.77,30.828,2.73,41.488c4.941,6.52-1.441,10.371,1.422,16.422c2.891,6.602,9.84,17.57,9.68,25.289
	c-0.211,12.719,0,27.988,0.84,40.641c0.23,4.281-3.789,11.621-1.66,14.422c2.949,3.531,20.172,45.93,20.172,58.219
	c-0.059,3,13.25-0.691,1.262-12.75c14.191-8,11.328,25.441,12.309,25.648c-12.762-4.191-4.609-0.75-3.531,15.68
	c0.68,9.699-2.52,5.09,5.41,6.93c12.73,2.762,0,11.25,4.789,18.059c9.43,13.672,24.172,26.328,34.09,36.852
	C761.775,1681.519,789.576,1678.679,808.896,1682.679C811.736,1683.327,805.396,1682.019,808.896,1682.679z M862.096,351.864
	c-4.359,4.031-9.309,4.75-14.309,6.309C851.357,352.614,856.537,353.524,862.096,351.864z M819.666,348.274
	c3.25-0.602,5.969,0.379,7.75,2.59c0.059,1.371-17.371,2.25-20.172,6.578C809.549,349.954,815.908,351.204,819.666,348.274
	C821.467,350.474,815.908,351.204,819.666,348.274z M776.947,378.427C780.588,379.415,771.557,377.646,776.947,378.427
	C777.088,378.485,775.896,378.294,776.947,378.427z M753.436,333.634c1.559-1.719,2.84-1.461,3.699,0.859
	C755.557,336.395,754.158,336.055,753.436,333.634C753.467,332.606,753.217,334.837,753.436,333.634z M729.998,403.364
	C723.486,403.005,736.908,403.696,729.998,403.364C729.248,403.364,730.967,403.446,729.998,403.364z M736.908,376.396
	c-22.559,21.34-4.949,0.25-11.559,6.871c0.102,0.27,0,0.629-0.289,0.629C723.158,381.884,736.486,376.606,736.908,376.396
	C734.158,379.106,733.025,377.017,736.908,376.396z M728.658,351.286c-4.16,4.699-4.16,4.699-9.809,3.672
	C721.877,352.927,725.967,353.614,728.658,351.286z M830.166,271.036c-1.441,0.09-3.09,0.09-5.289,0.09
	C832.119,264.973,830.857,271.036,830.166,271.036C828.736,271.125,831.236,271.036,830.166,271.036z M846.506,260.133
	c-2.441,2.879-6.078,1.191-9.141,2.621C840.639,256.383,841.287,256.317,846.506,260.133z M754.467,267.665
	c1.969-1.691,4.379-2.691,6.781-2.441C763.428,268.395,747.467,270.204,754.467,267.665
	C755.557,265.973,753.717,267.985,754.467,267.665z M750.498,263.004c2.488,1.25,2.27,2.34-0.781,3.648
	C747.549,265.344,747.799,264.254,750.498,263.004C751.436,263.004,749.158,263.125,750.498,263.004z M631.337,466.157
	c0.211-0.16-35.609,14.309-32.93,5.328c-0.75,2.891,12.328-10.109,9.559-8.859c2.969-1.309,26.961-2.73,33.988-2.66
	C638.298,463.747,634.735,464.837,631.337,466.157C623.485,469.095,634.735,464.837,631.337,466.157z M659.997,448.376
	c29.641,2.91-17.59,11.949-22.641,6.559C644.017,449.204,651.868,447.517,659.997,448.376
	C662.376,448.747,651.868,447.517,659.997,448.376z M655.138,264.594c7.941-5.059,16.34-8.719,26.66-11.191
	c-7.629,6.281-17.691,8.922-26.898,11.41L655.138,264.594z M656.767,424.376c-1.371,1.379-2.621,1.281-3.828-0.031
	C654.806,423.567,656.548,423.056,656.767,424.376C657.407,425.657,656.548,423.056,656.767,424.376z M648.036,442.157
	C647.435,442.157,645.106,441.407,648.036,442.157C648.267,442.157,647.095,441.767,648.036,442.157z M639.368,426.946
	c10.781,5.031,4.59,21.809-4.719,8.809c-0.309,7.59-13.691,20.719-20.84,22.281c2.691-3.102,3.621-6.469,2.699-10.09
	c-2.32-1.781-6.75,3.34-9.23,3.219c0.93,4.75,19.289-31.27,3.871-20.898c-5.531,4.34-42.539,43.66-44.648,41.371
	c-3.469-3.469,16.309-32.301,17.809-33.398C597.024,427.817,623.485,419.505,639.368,426.946z M618.767,289.594
	c1.531-0.801,13.398-8.148,14.898-6.441c3.809,4.75-19.121,10.711-20.172,10.781C614.774,291.016,617.036,290.715,618.767,289.594
	C622.985,287.286,617.036,290.715,618.767,289.594z M621.306,386.056c-0.109,0.551-4.801,9.422-7.5,5.922
	C611.337,389.567,620.505,381.884,621.306,386.056C620.958,388.384,621.024,384.935,621.306,386.056z M595.356,311.684
	c1.309,0,20.531-12.148,21.148-7.219C616.817,305.934,593.126,311.997,595.356,311.684z M590.024,331.364
	c-1.191,2.191-2.23,3.328-5.031,3.218C586.087,332.286,587.798,332.114,590.024,331.364z M576.685,377.646
	c2.691-2.109,8.91-12.191,5.859-16.031c1.762,2.148-11.512-1.469-5.422-3.691c2.469-0.84,17.398-9.059,19.898-6.5
	c4.281,4.469-18.828,28.602-23.398,30.59C574.146,379.634,575.356,378.556,576.685,377.646
	C580.524,374.767,575.356,378.556,576.685,377.646z M589.806,408.106c16.531-5.281,22.52-14.711,32.43-1.969
	c3.871,4.672,3.09,16.84-5.738,13.91c2.391,0.891-26.879-1.91-21.488-5.129c-5.891,3.59-17.141,6.219-24.039,3.219
	C577.376,414.536,582.825,410.286,589.806,408.106C593.935,406.724,582.825,410.286,589.806,408.106z M566.747,377.294
	c1.531,4,0.5,5.969-4.09,6.59C564.407,381.294,565.657,379.325,566.747,377.294z M332.388,733.665
	C324.856,733.385,338.235,733.385,332.388,733.665C331.497,733.634,333.138,733.634,332.388,733.665z M427.017,801.635
	C424.806,802.436,432.806,800.338,427.017,801.635C426.497,801.877,427.978,801.436,427.017,801.635z M657.767,877.998
	C653.856,877.275,662.435,878.357,657.767,877.998C657.435,877.998,658.407,878.107,657.767,877.998z M695.665,1554.706
	C689.067,1553.519,699.139,1549.608,695.665,1554.706C694.024,1554.507,695.756,1554.507,695.665,1554.706z M712.479,1216.236
	C710.088,1213.748,713.877,1217.455,712.479,1216.236C712.158,1215.826,712.916,1216.545,712.479,1216.236z M715.037,1426.987
	C710.846,1428.429,719.607,1425.347,715.037,1426.987C713.966,1427.437,715.756,1426.757,715.037,1426.987z M737.338,1654.276
	c-3-1.719-3-2.809-0.23-3.281C740.416,1652.288,740.525,1653.526,737.338,1654.276
	C736.096,1654.179,738.377,1654.507,737.338,1654.276z M766.748,1667.206c-3-0.648-2.781-1.781,0.941-3.551
	C770.275,1664.589,769.916,1665.897,766.748,1667.206C765.506,1667.206,767.498,1666.929,766.748,1667.206z M704.396,1583.226
	c-0.422,0.16-0.77,0.23-1.031,0.309C704.317,1582.917,704.536,1582.788,704.396,1583.226z M777.479,224.325c0,0-0.078,0-0.129,0
	c0.051,0,0.051-0.16,0.051-0.16L777.479,224.325z M500.177,355.735c0,0.16-0.109,0.16-0.109,0.16L500.177,355.735z M507.915,349.235
	L507.915,349.235L507.915,349.235z M1803.16,853.795l0.07,0.059c-15.969-58.891-27.699-117.013-52.23-173.923
	c-28.82-67.719-66.898-131.551-112.899-189.039c-43.328-54.328-93.441-102.922-149.109-144.469
	c-27.09-20.43-55.41-38.829-84.871-55.579c-13.871-8.09-28.039-15.809-42.75-22.93c-6.359-3.031-28.371-8.789-31.762-14.371
	c0.191,2.609,13.012,9.109,14.57,10.809c-8.5-2.281-31.352-11.941-31.762-13.371c0.629-1.09,2.25,0,2.059-1.781
	c-12.922-8.25-60.931-26.039-70.622-12.84c1.941-2.711,33.289,33.34,33.961,39.82c2.13,14.031,23.922,28.949,38.129,33.352
	c19.181,6.578,4.739-2.141,12.731-6.66c5.422-2.59,10.5,8.969,15.301,6.219c-0.142-0.09,0-0.219,0.179-0.309
	c-1.219-2.75-2.969-5.309-4.421-8.031c-1.559,0,35.211,37.84,39.84,29.59c-4.212-10.23-10.77-21.84-21.501-31.48
	c-8.94-8.648-23.659-9.449-33.538-18.109c-4.923-4.379-23.63-18-25.789-24.289c24.781,0.859,53.281,52.852,77.84,32.699
	c-3.418-2.281-6.75-4.84-9.898-7.648c4.422,1.371,25.262,7.961,18.309,16.59c-19.77-3.441,16.34,16.59,17.18,18.871
	c-3.602-0.281-6.102-3.129-9.441-3.441c1.32,6.891,20.691,13.871,22.301,25.559c-11.77,1.82-6.66-7.032-14.512,2.441
	c-2.238,2.93-12.859,2.09-18.391,2.512c-13.52,1.09-28.629-21.809-38.512-28.821c4.102,12.672,11.07,18.852,25.488,27.93
	c6.941,3.879-9.648,5.609-9.43,11.469c0.379,0,4.391,1.93,4.27,2.969c0,0.809-3.73-2.531-4.27-2.969c1.281-1-2.5,22.371-2.82,22.031
	c11.07,12.922-14.551,9.121-15.359,9.621c2.129,2.93,6.191,4.34,6.98,8.648c-7.43,0.379-13.629-0.602-20.852,1.98
	c10.539,3.16,69.148,30.262,56.27,50.621c-3.898,6.641-43.57-1.609-50.801-1.949c-15.5-1.039-1.27,14.691-0.738,16.512
	c2.262,11.66,11.391,16.73,10.762,30.391c-0.738,9.621,9.16,9.898,11.871,17.961c2.77,7.031,1.34,7.781,8.621,8.699
	c13.039,1.672,13.352-0.328,24.281,8.199c7.949,6.172,11.078-5.531,20.328-5.949c23.34-0.949,3.551-5.719,14.59-8.859
	c13.609-3.84-3.809-25.398-3.109-29.602c0.91-5.609-0.762-11.949,6.66-14.078c11.941-3.059-3.09-15.238-3.898-18.531
	c-2.422-9.648,32.578,8.09,28.102-16.23c20.289,6.328,40.801,24.23,59.078,34.699c11.129,6.531,21.809,12.672,29.73,23.09
	c9.512,12.281-13.57,7.16-14.891,10.719c-1.609,3.969,20.289,13.809,23.719,13.469c0.531-2.059-2.711-14.59-2.961-16.809
	c-0.988-8.621-13.602-17.121-12.789-24.09c3.93,0.379,7.422,1.969,10.91,4.34c-11.781-14.281-30.859-15.68-44.148-26.43
	c-7.84-6.559-18-11.84-26.051-18.59c0-0.059-14.031-18.09-4.172-14.59c15.629,5.289,32.602,21.129,48.59,29.43
	c12.578,6.66,15.41,10.648,24.801,21.559c3.641,4.281,23.148,26.762,27.68,27.59c-0.27-0.219,15.57,14.059,22.012,16.309
	c-2.859-6.559-5.121-14.781-8.512-20.121c-4.57-7.051-22.52-10.98-22.52-21.68c3.969,0.441,4.488-3.922,13.371-3.621
	c-4.629-0.191,5.781-6.879,4.98-5.91c-16.961-9.648-39.781-37.871-45.66-57.051c4.578,0.191,7.129,6.41,12.078,3.219
	c-1.551-3.219-1.891-6.59-1.551-10.191c1.238,1.559,17.359,15.219,14.059,18c-4.398-0.059-8.059-2.121-11.359-5.59
	c2.109,8.09,10.359,8.219,13.609,13.84c0.309-2.309-1.379-4.16,0.699-6.531c13.891,5.809,42.578,28.121,46.239,43.68
	c-6.079,0.68-17.691-12.309-22.079-9.102c-1.18,3.191-1.09,6.172,0.57,9.219c-1.719,0.059-3.512,0.559-4.922,1.422
	c2.391,1.801,3.449,4.191,3.762,6.922c-2.371,0.801-4.359,1.41-6.93,2.121c2.11,7.789,43.38,47.301,46.263,43.289
	c0.87-1.41-1.501-5.48-0.891-6.02c1.961-2.469,8.449,9,11.898,6.641c2.788-1.68-2.532-5.328,0.59-6.859
	c6.012-3.219,30.949,45.52,33.988,51.18c11.781,22.559,3.961,8.75-5.212,11.871c-1.171,2.469-2.109,4.719-2.309,7.531
	c-14.559-3.34-30.512-11.75-42.078-20.121c-18.852-13.621,6.031,36.77-4.949,30.43c-6.328-3.641-10.129-8.91-17.809-9.648
	c-11.641-1.191-14.891-13.301-25.27-16.809c-8.352-2.871-42.328-6.031-37.789-21.43c3.52-13.281-13.32-24.211-19.148-29.25
	c-2.949-2.539-40.301,2.289-46.469,4.129c-10.25,3.309-26.57,6.68-32.43,16.32c-9.969,18.012-32.841-5.75-42.121-2.078
	c-4.673,2.078-0.102,16.84-2.422,21.449c-3.941,7.172-12.891,7.609-15.263,15.922c-3.948,15.211,7.442,27.961,2.371,42.02
	c-4.48,11.121-25.897,15.949-26.21,25.191c-0.191,4.941-1.309,10.34-5.762,13.031c-9.809,5.629,0.238,18.559-5.879,25
	c-33.29,33.68,10.57,66.828,3.172,104.012c-4.27,21.06-6.699,25.263,2.359,43.399c1.961,4.551,0.5,37.281,16.987,24.031
	c2.219,19.059,26.591,23.031,30.79,41.102c5.391,21.422,26.309,30.762,42.711,43.672c6.551,5.059,12.289,11.711,19.699,15.512
	c13.449,7.039,22.539-3.711,35.371-7.238c11.762-3.309,23.738-2.09,34.609,3.059c6.289,2.969,53.32-30.121,65.77-23.93
	c9.379,4.691,9.781,15.949,14.27,24.09c6.211,11.5,18.891-3.531,27.57,0.25c15.52,6.91,19.871,63.051,6.922,73.531
	c-9.75,7.129,12.57,37.82,15.609,43.988c8.891,17.398,16.672,47.621,13.941,66.922c-2.309,15.5,2.172,40.25-6.827,54.051
	c-9,13.75-13.962,28.371-21.071,43.93c-18.699,40.121-0.98,85.359-16.691,126.969c-9.648,21.27-8.031,43.988-13.129,66.149
	c-3.359,14.461-20.98,35.219-14.141,50.109c10.57-9.43,25.969-8.18,37.801-14.121c24.121-11.91,35.762-39.781,53.231-58.359
	c9.43-9.821,15.32-22.251,20.691-34.36c5.332-11.539,16-18.988,21.148-30.148c12.059-28.59,23.441-57.051,35.539-85.539
	c25.91-61.5,30.32-120.57,39.172-186.52C1816.121,989.678,1816.32,923.475,1803.16,853.795z M1741.82,691.646
	c-3.352-8.25-47.031-72.078-41.922-75.531c5.949-3.672,98.859,161.032,88.879,186.481
	C1774.527,764.986,1757.379,728.537,1741.82,691.646C1741.629,691.267,1745.008,699.106,1741.82,691.646z M1781.578,982.818
	c-1.852-4.449,0.629-8.449,1.859-13.789C1785.371,974.646,1782.309,978.588,1781.578,982.818z M1776.559,1008.736
	c-0.16-2.73-0.191-4.969,1.609-6.949C1779.449,1004.428,1778.301,1006.346,1776.559,1008.736z M1761.27,1220.107
	c-1.699,0.52-3.602,1.238-5.078,1.762c-2.98,0,5.578-4,6.02-4.398C1761.738,1218.877,1761.738,1219.525,1761.27,1220.107
	C1759.938,1221.885,1761.738,1219.525,1761.27,1220.107z M1763.461,1134.287c-0.129-7.871,0.262-8.219,8.309-13.219
	C1769.961,1126.518,1764.367,1129.127,1763.461,1134.287z M1772.328,1094.326c-0.102-14.359-0.441-31.148,2.641-45.199
	c0.57,24.398,1.59,48.949,0.941,73.34C1772.051,1117.377,1772.328,1100.537,1772.328,1094.326
	C1772.328,1089.135,1772.328,1099.357,1772.328,1094.326z M1785.211,1139.916c-0.238,13.109-2.219,48.84-10.68,58.949
	c0.77-22.031,8.809-42.129,9.121-64.102C1785.609,1136.947,1785.211,1138.588,1785.211,1139.916
	C1785.211,1141.467,1785.211,1138.588,1785.211,1139.916z M1795.359,1006.678c-3.738,15.52-0.07,20.422-9.441,29.109
	c0-11.719-4.199-33.828,7.578-40.699C1795.211,998.795,1796.418,1001.955,1795.359,1006.678
	C1793.59,1012.885,1796.418,1001.955,1795.359,1006.678z M1282.909,1764.957c1.172,2.379-102.872,31.539-113.532,33.949
	c-43.121,8.988-86.898,14.75-131.168,16.879c-83.828,4.02-171.641-3.559-252.16-28.031c10.41,1.18,22.84,6.488,33.398,4.781
	c-10.059-6.219-22.43-4.09-31.371-11.879c33.75,5.422,65.801,2.82,96.559,6.898c-3.18-4.328-31.43-11.09-31.23-14.07
	c4.18-0.301,25.609-0.91,26.711-1.691c10.121-7.75-16.191-6.828-14.16-12.551c1.078-1.48,8.23,0.93,10.762-2.43
	c4.02-5.301,0-8.121,1.391-10.762c1.141-2.441,42.012-9.449,46.23-7.602c-4.871,2.909-10.328-0.469-8.398,7.48
	c-4.051-0.551-16.699-0.23-17.449,5.301c0.309-1.372,13.762,17.43,14.219,18.34c4.859,7.301,21.309,11.809,22.422,20.59
	c2.809,14.75,80.281,13.441,91.648,12.078c28.98-3.301,55.93-13.699,84.551-18.488c16.84-3.078,33.711-7.77,50.801-9.512
	c7.84-0.859,34.391-10.078,40.59-7.949C1206.838,1780,1268.347,1762.02,1282.909,1764.957
	C1283.007,1765.168,1280.486,1764.539,1282.909,1764.957z M1753.059,1314.187c3.309-8.34,6.039-16.962,10.148-25.161
	C1760.461,1297.808,1756.848,1305.909,1753.059,1314.187z M1766.598,1280.436c0.309-1.02,0.738-2.219,1.34-3
	C1768.008,1278.506,1767,1279.456,1766.598,1280.436z M873.748,211.426c-4.648-0.719-9.148-0.16-13.93-0.941
	c2.512-2.09,16.148-2.531,10.391-6.449c18.609-11.578,58.039-13.828,79.801-11.172c24.191,2.852,48.391-4.59,72.578-0.859
	c9.699,1.578,18.012,1.801,27.609,2.461c8.551,0.941-1.039,9.578,8.551,11.031c5.449,0.801,16.898,13.469,21.922,10.84
	c-0.199,8.781-4.18,2.59-1.32,10.898c0.629,2.031,10.57,7.59,10.25,8.281c-0.941,1.309-27.898-0.57-26.809-0.309
	c-2.27-0.25,0.398,4.281,2.328,3.559c5.18,1.41,17.031-0.379,23,0.059c-13.922,12.441-34.309,10.891-49.391,20.871
	c-9.309,6.191-23.289,5.531-33.68,9.328c0,10.41-7.762,23.109-14.699,33.852c-5.031,7.41-39.48-9.82-42.922-14.148
	c-7.5-9.129-24.852-32.738-6.16-40.238c22.699-8.891,0.211-1.66-6.539-6.461c5.512-7.559,11.539-5.031,19.98-3.762
	c-4.328-6.16-9.941-7.672-16.449-4.52c-1.98-6.5,9.512-12.281-0.66-19.211c-4.289-3.031-28.398,0.531-29.051-3.781
	c-1.309-10.34,29.102-4.719,34.602-13.371C920.326,192.516,895.748,214.856,873.748,211.426
	C869.096,210.704,877.658,212.004,873.748,211.426z M1303.46,367.146c3.711-0.422-4.872-12.09-6.75-14.531
	c2.578,0.379,4.57,0.559,7.18-0.941c-2.039-5.25-25.898-19.149-27.302-18.122c-9.039,5.629-20.499-19.5-21.551-22.898
	c15.431-2.051,24.989,14.422,38.853,21.18c11.98,5.629,54.441,26.059,55.719,38.821c0.93,6.359-32.262,3.828-37.18,11.328
	c-3.859-9.43,8.281-9.219,8.059-12.148C1320.077,367.435,1305.077,366.954,1303.46,367.146
	C1302.627,367.235,1308.468,366.454,1303.46,367.146z M868.369,379.106c-2.391,1.609-31.199,29.059-30.398,31.699
	c0.578,2.391,29.98,0.609,34.852,3.59c-0.309,3.359-4.18,1.641-4.781,4.551c3.809,0,15.809-7.531,17.531-5.352
	c0.219,1.82,0,3.809-0.922,5.531c13.078,12.711,11.578-15,12.59-16.441c-9.23-1.371,1.73-14.211-13.48-8.809
	c0.891-0.41-16.609-5.25-15.809-4.16c-1.578-1.34,12.5-13.469,13.59-15.059C873.158,372.544,872.158,376.267,868.369,379.106
	C863.549,382.794,869.369,378.294,868.369,379.106z M896.936,409.427C898.025,410.356,894.846,410.356,896.936,409.427
	C897.236,409.595,896.607,409.544,896.936,409.427z M890.408,408.696c0.859-0.941,5.531-2.891,2.469-0.219
	C891.959,410.286,887.818,411.665,890.408,408.696C890.686,408.255,889.936,409.427,890.408,408.696z M869.729,375.415l0.48-0.109
	c0,0.109,0,0.141,0.141,0.281C870.209,375.454,870.209,375.454,869.729,375.415z M843.889,401.556c0.828,0,1.301,0,1.941,0.59
	C845.119,402.146,841.947,402.017,843.889,401.556C844.717,401.556,843.346,401.665,843.889,401.556z M560.466,742.126
	c-7.891,0.872,5.23-6.09,4.129-8.781c-5.449-12.34-42.461-15.09-45.871-25.012c1.602-0.578,2.801-1.73,3.25-3.34
	c-12.781-5.109-19.281,10.262-30.559,9.398c23.699-40.441,82.781,5.72,106.48,24.329
	C585.466,740.287,572.985,740.384,560.466,742.126C559.536,742.197,567.427,741.217,560.466,742.126z M591.376,763.627
	c-5.91-2.578,19.559-2.309,23.02-3.691c-5.191-7.828-0.43-12.001-10.309-15.091c8.922-10.75,38.602,1.88,47.961,6.059
	c-0.809,1.281-2.488,0.141-3.469,1.809c0.809,0.57,20.371,16.782,7.219,11.379c-14.531-6.16-22.391,2.398-32.711,8.148
	C615.118,760.818,602.024,768.658,591.376,763.627C590.087,763.096,593.806,764.818,591.376,763.627z M1282.748,350.614
	c13.829,14.43-7.691,25.559-17.559,16.25c-4.609-4.941-1.719-16.559-12.969-19.93c2.961-0.969,5.941-1.828,8.961-2.891
	C1253.678,326.247,1279.05,346.927,1282.748,350.614C1285.597,353.896,1281.549,349.446,1282.748,350.614z M1101.959,263.325
	c-0.781-2.75,19.949-1.602,23.43-2.16c5.621-1.031,46.859,3.191,32.391,9.84c-11.41,5.031-27.941,10.75-38.539,1.121
	C1116.416,269.696,1102.057,264.016,1101.959,263.325C1101.486,261.383,1102.646,266.204,1101.959,263.325z M1479.839,468.626
	c4.98,0,16.551,18.5,14.75,21.559c-5.57,8.719-14.898-13.391-20.73-16.84C1476.019,471.966,1478.179,470.384,1479.839,468.626z
	 M833.857,217.043c14.16-10.559,17.34-4.59,34.871-2.66C863.018,219.415,849.619,220.446,833.857,217.043
	C837.709,214.106,849.619,220.446,833.857,217.043z M1145.518,204.985c-10.34-2.91-21.57-3.391-31.641-7.469
	c12.27-1.172,27.09,3.309,35.34,5.781C1152.076,204.157,1144.889,204.766,1145.518,204.985
	C1135.178,202.075,1146.436,205.204,1145.518,204.985z M1113.877,197.516c-1,0.34-2.039,0.41-3.352,0.512
	C1111.838,196.836,1112.877,196.766,1113.877,197.516C1112.877,197.864,1113.459,197.395,1113.877,197.516z M563.685,764.377
	c2.379,0.16,3.559,1.441,4.059,3.52c-1.48,5.969-19.82-2.578-21.809-5.039C552.274,759.205,558.157,761.318,563.685,764.377z
	 M695.255,763.998C685.606,787.717,660.958,747.396,695.255,763.998C693.747,767.377,689.587,761.045,695.255,763.998z
	 M733.127,879.467L733.127,879.467c0.328-0.801,0.941-1.059,1.828-1.109C734.346,878.666,733.998,878.885,733.127,879.467z
	 M736.486,878.666c-0.391-0.129,2.672-9.75,9.012-10.16C752.697,873.096,740.107,879.057,736.486,878.666
	C736.076,878.537,744.525,879.768,736.486,878.666z M813.826,212.004c-6.578,4.422-14.328,1.512-21.148,4.109
	C802.178,209.606,806.326,210.075,813.826,212.004C807.256,216.426,812.639,211.684,813.826,212.004z M568.345,690.735
	c-2.461-9.781-6.219-9.898,0.309-18.43C571.216,681.544,571.216,686.927,568.345,690.735
	C567.427,686.864,571.216,686.927,568.345,690.735z M391.396,1028.428c-0.141,3.559-1.73,5-5.141,3.66
	c-1.172-0.879-1.828-12.871,0.262-15.281C388.208,1020.658,389.907,1024.377,391.396,1028.428
	C392.095,1030.096,389.907,1024.377,391.396,1028.428z M800.588,389.825c7.73-0.16,13.84,2.09,20.48,7.078
	C812.166,398.614,806.326,395.204,800.588,389.825z M1476.718,465.274l0.16,0.09c-2.02-0.77-15.309-8.871-10.109-13.121
	C1470.878,449.407,1476.229,463.966,1476.718,465.274z M1613.929,533.384c-2.629-2.699-8.02-0.922-9.43-6.262
	c4.59,2.578,9.762,1.27,14.02,4.77C1617.179,533.185,1615.276,534.825,1613.929,533.384
	C1611.3,530.685,1615.276,534.825,1613.929,533.384z M825.357,216.543c-1.34-1.879-3.531-0.551-4.988-2.441
	c3.762-4.059,8.871-2.691,13.48-3.941C833.639,210.704,828.275,220.684,825.357,216.543
	C824.018,214.676,826.018,217.915,825.357,216.543z M802.436,221.575c-5.98,4.621-12.262,9-20.57,8.309
	C787.447,223.907,795.146,223.157,802.436,221.575z M800.369,423.677c1.66,0.469,3.371-0.109,5.969-0.328
	c-7.922,9.809-17.34-3.84-15.328-4.379C789.537,419.317,799.736,423.567,800.369,423.677
	C802.018,424.146,797.178,423.196,800.369,423.677z M803.736,225.485c5.609-4.422,12.172-5.281,19.059-4.801
	C816.908,224.325,810.799,226.204,803.736,225.485z M1442.577,488.087c-6.359-0.859,12.18-6.809,5.57,1.898
	C1446.089,489.677,1444.319,489.157,1442.577,488.087C1441.737,487.966,1444.757,488.396,1442.577,488.087z M1646.647,534.767
	c-3.801-1.891-5.441-4.5-4.27-9.059C1645.348,528.114,1646.96,530.614,1646.647,534.767z M817.729,255.114
	c2.301-4.051,4.84-5.129,12.879-5.078C826.639,254.614,822.307,255.286,817.729,255.114z M758.838,282.536
	c-4.691,2.469-8.219,4.43-13.129,4.012C749.158,282.536,753.217,282.704,758.838,282.536z M1248.756,316.215
	c-0.891,1.781-0.09,2.961,1.41,4.309c-1.59-0.75-7.32-7.879-2.789-8.84C1249.229,312.465,1249.979,314.024,1248.756,316.215
	C1247.869,317.997,1249.377,315.215,1248.756,316.215z M510.415,716.185c-0.289,2.73-1.68,4.109-4.18,4.051
	C504.876,717.907,509.048,711.165,510.415,716.185C510.806,717.825,510.075,715.087,510.415,716.185z M785.338,1564.038
	c2.109,0.879,3.281,2.5,3.59,4.789C788.928,1576.038,776.057,1565.026,785.338,1564.038
	C786.557,1563.886,783.236,1564.327,785.338,1564.038z M766.748,286.704c-1.52,2.391-3.691,3.641-7.109,4.699
	C761.408,287.625,763.838,287.016,766.748,286.704z M397.446,1027.135C396.767,1035.326,395.036,1019.217,397.446,1027.135
	C397.396,1028.256,397.095,1026.338,397.446,1027.135z M821.217,300.434c0.328-0.16,0.77,0.109,1.039,0.191
	C821.217,301.157,819.447,301.157,821.217,300.434z M784.736,222.465c-0.871,0.301-1.949,0.328-2.699,0.422
	C782.729,222.204,783.748,222.133,784.736,222.465z M781.557,223.094c-0.699,0,0.309-0.199,0.48-0.199
	C781.869,222.946,781.596,222.946,781.557,223.094z M777.666,224.165l-0.191,0.16C777.396,224.165,777.479,224.165,777.666,224.165z
	 M777.666,224.165c0.949-1.281,2.27-1.02,3.699-1.078C780.338,224.485,779.088,224.665,777.666,224.165z M803.596,225.485h0.141
	C803.658,225.516,803.596,225.625,803.596,225.485z M803.596,225.516c-0.23,1.531-1.422,1.379-2.512,1.379
	C801.619,225.516,802.436,225.446,803.596,225.516z M503.106,1062.057C501.345,1060.697,504.298,1063.166,503.106,1062.057
	C502.376,1061.576,504.048,1062.885,503.106,1062.057z M1376.479,289.594C1381.319,291.016,1376.667,290.754,1376.479,289.594
	C1376.479,289.594,1376.608,290.575,1376.479,289.594z M1250.197,320.625c-0.031,0-0.031-0.09-0.031-0.09
	c0.441,0.09,0.602,0.371,0.441,1.09C1250.576,321.215,1250.447,320.895,1250.197,320.625
	C1250.166,320.625,1250.447,320.895,1250.197,320.625z M800.826,226.883c0.191,0,0.191,0,0.25,0c0,0.09-0.059,0.09-0.25,0.059
	C800.826,226.946,800.826,226.946,800.826,226.883z M799.369,227.157c0.379-0.172,1-0.172,1.469-0.211
	C800.236,228.016,799.549,228.133,799.369,227.157C799.736,226.985,799.459,227.293,799.369,227.157z M1543.378,479.497
	L1543.378,479.497l0.121,0.102L1543.378,479.497z M895.127,1006.068C892.518,1003.986,897.025,1004.506,895.127,1006.068
	C894.846,1005.896,895.748,1005.486,895.127,1006.068z M1283.409,1764.699c-0.211,0.211-0.281,0.211-0.5,0.211
	c0.102-0.371,0.21-0.672,0.5-0.5C1283.409,1764.41,1283.409,1764.66,1283.409,1764.699z M1282.909,1764.957
	c0-0.051-0.16-0.051,0-0.051V1764.957z M630.517,428.005c0.352-0.16,7.949-1.059,5.281,1.969
	C632.837,431.474,631.157,430.806,630.517,428.005C631.337,427.845,630.567,429.595,630.517,428.005z M582.806,361.614
	c-2.09-1.469-1.66-2.969,1.5-4.531C586.798,358.114,586.376,359.646,582.806,361.614
	C581.735,361.485,584.497,361.075,582.806,361.614z"/>
	<path class="cls-1" d="M39.637,363.513c9.34,25.012,20.469,51.473,33.059,78.672l72.583-33.645
		c-11.75-25.34-22.09-49.898-30.68-72.969L39.637,363.513z"/>
	<path class="cls-1" d="M220.551,550.192c-14.09-23.82-27.41-47.41-39.512-70.109l-70.571,37.672
		c12.668,23.73,26.559,48.352,41.239,73.191L220.551,550.192z"/>
	<path class="cls-1" d="M0.488,191.145c0.859,27.09,5.309,57.168,13.219,89.449l77.672-19.02
		c-6.578-26.867-10.27-51.43-10.949-72.969L0.488,191.145z"/>
	<path class="cls-1" d="M1557.937,1927.586c27.211,12.66,53.691,23.781,78.672,33.121l27.957-74.961
		c-23.051-8.59-47.598-18.93-72.949-30.711L1557.937,1927.586z"/>
	<path class="cls-1" d="M1719.527,1986.676c32.281,7.922,62.391,12.371,89.48,13.211l2.531-79.93
		c-21.539-0.68-46.082-4.359-72.961-10.961L1719.527,1986.676z"/>
	<path class="cls-1" d="M1409.171,1848.48c24.938,14.789,49.578,28.68,73.199,41.309l37.68-70.59
		c-22.59-12.039-46.168-25.348-70.109-39.52L1409.171,1848.48z"/>
	<path class="cls-1" d="M1874.348,1910.02l33.09,72.82c16.941-7.68,31.934-18,44.531-30.629l-56.551-56.551
		C1889.527,1901.57,1882.629,1906.258,1874.348,1910.02z"/>
	<path class="cls-1" d="M1909.828,125.844l72.828-33.051c-7.688-16.949-17.98-31.93-30.629-44.57l-56.539,56.551
		C1901.379,110.652,1906.066,117.563,1909.828,125.844z"/>
	<path class="cls-1" d="M185.446,1920.008l1.5,79.949c26.129-0.469,55.148-4.367,86.242-11.578l-18.031-77.922
		C229.465,1916.418,206.024,1919.617,185.446,1920.008z"/>
	<path class="cls-1" d="M1231.588,1231.736c-9.25,9.25-18.52,18.431-27.77,27.552l56.109,56.988
		c9.411-9.258,18.79-18.57,28.18-27.962c9.438-9.422,18.777-18.852,28.04-28.281l-57.021-56.078
		C1250.029,1213.236,1240.838,1222.486,1231.588,1231.736z"/>
	<path class="cls-1" d="M1789.719,532.817l69.211,40.09c13.809-23.863,26.91-47.641,38.922-70.672l-70.961-36.949
		C1815.449,487.278,1802.93,509.997,1789.719,532.817z"/>
	<path class="cls-1" d="M1313.486,1147.729l57.962,55.129c18.441-19.391,36.559-38.789,54.348-58.148l-58.93-54.109
		C1349.397,1109.619,1331.616,1128.678,1313.486,1147.729z"/>
	<path class="cls-1" d="M1964.246,353.356l-75.238-27.09c-7.988,22.192-17.621,45.79-28.59,70.161l72.93,32.84
		C1945.18,403.044,1955.559,377.497,1964.246,353.356z"/>
	<path class="cls-1" d="M1999.797,187.083l-79.988-1.469c-0.371,20.551-3.57,43.992-9.52,69.672l77.922,18.059
		C1995.41,242.223,1999.32,213.204,1999.797,187.083z"/>
	<path class="cls-1" d="M852.709,1569.647l49.43,62.879c20.57-16.18,41.32-32.82,62.148-49.906l-50.738-61.852
		C893.15,1537.499,872.881,1553.796,852.709,1569.647z"/>
	<path class="cls-1" d="M326.149,1889.148l27.078,75.25c24.117-8.672,49.68-19.07,75.934-30.891l-32.871-72.93
		C371.919,1871.539,348.329,1881.168,326.149,1889.148z"/>
	<path class="cls-1" d="M1090.471,1366.999l54.078,58.93c19.367-17.781,38.758-35.883,58.16-54.328l-55.109-57.981
		C1128.541,1331.749,1109.49,1349.538,1090.471,1366.999z"/>
	<path class="cls-1" d="M973.467,1470.647l51.93,60.828c19.949-17.02,39.992-34.449,60.07-52.238l-53.031-59.879
		C1012.705,1436.827,993.045,1453.937,973.467,1470.647z"/>
	<path class="cls-1" d="M1632.402,902.268l-62.892-49.43c-15.84,20.152-32.141,40.441-48.871,60.852l61.84,50.738
		C1599.577,943.588,1616.218,922.865,1632.402,902.268z"/>
	<path class="cls-1" d="M727.967,1663.179l46.43,65.13c21.281-15.172,42.77-30.892,64.457-47.181l-47.988-63.98
		C769.686,1633.019,748.717,1648.39,727.967,1663.179z"/>
	<path class="cls-1" d="M1728.184,774.549l-65.148-46.411c-14.778,20.738-30.099,41.712-45.989,62.86l63.962,48.02
		C1697.289,817.307,1713.027,795.807,1728.184,774.549z"/>
	<path class="cls-1" d="M465.146,1827.039l36.93,70.961c22.84-11.902,46.621-24.98,70.672-38.895l-40.051-69.238
		C509.665,1803.18,486.954,1815.699,465.146,1827.039z"/>
	<path class="cls-1" d="M1793.689,1322.13c40.485-99.44,62.808-208.137,62.807-321.952c0-113.721-22.281-222.331-62.693-321.706
		c8.125-12.44,16.021-24.743,23.6-36.788l-57.295-36.028c-79.153-151.913-202.507-277.273-352.906-358.896
		C1691.957,68.57,1847.68,56.983,1895.43,104.723l56.551-56.551c-132.073-132.066-443.908,36.629-630.089,158.229
		c-99.417-40.465-208.084-62.776-321.866-62.776c-113.732,0-222.353,22.294-321.734,62.729
		c-43.708-28.516-86.521-54.575-128.134-77.92c-244.07-136.898-417.7-164.68-502.122-80.23l0.022,0.022
		C35.439,60.844,25.166,75.846,17.484,92.754l72.859,33c3.75-8.25,8.43-15.141,14.313-21.027l-0.02-0.02
		c53.227-53.07,208.91-17.29,406.38,93.497c26.796,15.033,54.121,31.241,81.882,48.54
		c-267.374,145.094-449.316,428.409-449.316,753.434c0,113.768,22.304,222.42,62.755,321.826
		C84.763,1508.229-83.867,1820.149,48.067,1952.179l-0.032,0.032c12.641,12.629,27.621,22.938,44.57,30.629l33.051-72.828
		c-8.261-3.741-15.137-8.439-21.026-14.31l0.034-0.034c-47.73-47.737-36.129-203.483,142.029-488.348
		c81.596,150.378,206.913,273.719,358.775,352.877l36.08,57.361c12.133-7.63,24.445-15.531,36.826-23.617
		c99.358,40.408,207.951,62.688,321.651,62.688c325.177,0,608.602-182.149,753.607-449.773
		c152.076,243.279,203.792,426.863,141.867,488.801l56.539,56.551C2060.649,1843.592,1974.96,1598.729,1793.689,1322.13z
		 M1000.025,223.606c428.153,0,776.482,348.368,776.482,776.572c0,83.969-13.403,164.864-38.174,240.667
		c-124.455-176.321-282.58-361.099-450.215-528.73C1112.752,536.755,931.035,382.161,759.791,261.64
		C835.468,236.957,916.217,223.606,1000.025,223.606z M1000.025,1776.641c-428.153,0-776.462-348.321-776.462-776.463
		c0-310.406,183.041-578.854,446.84-703.064c179.744,121.495,373.888,284.289,561.173,471.561
		c78.34,78.343,150.466,155.849,216.138,231.399c-9.386,10.817-18.873,21.654-28.484,32.515l59.891,53.02
		c7.078-7.999,14.087-15.985,21.054-23.965c78.145,93.587,145.976,183.593,203.009,267.789
		C1579.063,1593.427,1310.541,1776.641,1000.025,1776.641z"/>
</svg>
