<svg id="Layer_1" data-name="Layer 1" xmlns="http://www.w3.org/2000/svg" viewBox="0 0 2000 2000">
    <defs>
        <style>
            .cls-1 {
                fill: #e74a3e;
            }
            
            .cls-2 {
                fill: #181818;
            }
        </style>
    </defs>	
    <title>Startup-And-New-Business</title>
	<path class="cls-2" d="M1503.104,1263.028c-0.082-0.638-0.17-1.273-0.267-1.907
		C1502.934,1261.755,1503.021,1262.391,1503.104,1263.028z"/>
	<path class="cls-2" d="M1502.457,1258.82c-0.11-0.614-0.229-1.225-0.352-1.833
		C1502.229,1257.596,1502.347,1258.206,1502.457,1258.82z"/>
	<path class="cls-2" d="M1503.348,1283.781c0.147-1.402,0.263-2.813,0.344-4.234
		C1503.61,1280.968,1503.495,1282.379,1503.348,1283.781z"/>
	<path class="cls-2" d="M1503.854,1274.425c0-0.49-0.026-0.974-0.034-1.462c0.008,0.489,0.019,0.978,0.019,1.469
		c0,0.757-0.012,1.511-0.03,2.264C1503.827,1275.939,1503.854,1275.186,1503.854,1274.425z"/>
	<path class="cls-2" d="M1503.71,1279.244c0.041-0.764,0.071-1.529,0.093-2.298
		C1503.781,1277.715,1503.75,1278.48,1503.71,1279.244z"/>
	<path class="cls-2" d="M1503.787,1271.57c-0.03-0.973-0.079-1.941-0.142-2.906
		C1503.708,1269.629,1503.757,1270.598,1503.787,1271.57z"/>
	<path class="cls-2" d="M1500.772,1251.352c-0.208-0.764-0.424-1.523-0.651-2.279
		C1500.348,1249.828,1500.565,1250.588,1500.772,1251.352z"/>
	<path class="cls-2" d="M1501.749,1255.314c-0.175-0.789-0.359-1.574-0.556-2.355
		C1501.39,1253.74,1501.574,1254.525,1501.749,1255.314z"/>
	<path class="cls-2" d="M1490.928,1228.537c-0.032-0.054-0.066-0.105-0.099-0.158
		C1490.861,1228.432,1490.896,1228.483,1490.928,1228.537z"/>
	<path class="cls-2" d="M1493.004,1232.113c-0.104-0.188-0.208-0.373-0.313-0.56
		C1492.795,1231.74,1492.9,1231.926,1493.004,1232.113z"/>
	<path class="cls-2" d="M1486.456,1326.976c0.008-0.011,0.016-0.022,0.023-0.033c-3.609,4.835-7.708,9.289-12.23,13.291
		l21.301-13.258H1486.456z"/>
	<path class="cls-2" d="M1494.913,1235.79c-0.14-0.283-0.28-0.566-0.422-0.849
		C1494.633,1235.224,1494.773,1235.507,1494.913,1235.79z"/>
	<path class="cls-2" d="M1498.211,1243.426c-0.156-0.416-0.311-0.833-0.474-1.247
		C1497.9,1242.593,1498.055,1243.01,1498.211,1243.426z"/>
	<path class="cls-2" d="M1496.651,1239.565c-0.155-0.358-0.31-0.718-0.47-1.074
		C1496.341,1238.848,1496.496,1239.207,1496.651,1239.565z"/>
	<path class="cls-2" d="M1499.587,1247.36c-0.212-0.656-0.431-1.31-0.658-1.959
		C1499.155,1246.051,1499.375,1246.704,1499.587,1247.36z"/>
	<path class="cls-2" d="M1503.549,1267.282c-0.072-0.899-0.161-1.793-0.26-2.685
		C1503.388,1265.489,1503.477,1266.383,1503.549,1267.282z"/>
	<path class="cls-2" d="M1493.464,1315.961c0.184-0.343,0.368-0.686,0.548-1.031
		C1493.832,1315.275,1493.647,1315.618,1493.464,1315.961z"/>
	<path class="cls-2" d="M1491.879,1318.791c0.18-0.306,0.355-0.612,0.53-0.92
		C1492.234,1318.179,1492.059,1318.485,1491.879,1318.791z"/>
	<path class="cls-2" d="M1496.386,1309.974c0.253-0.573,0.501-1.15,0.742-1.731
		C1496.887,1308.823,1496.639,1309.4,1496.386,1309.974z"/>
	<path class="cls-2" d="M1495.077,1312.805c0.188-0.387,0.372-0.776,0.555-1.166
		C1495.449,1312.028,1495.266,1312.418,1495.077,1312.805z"/>
	<path class="cls-2" d="M1490.111,1321.682c0.099-0.155,0.201-0.307,0.299-0.462
		C1490.313,1321.375,1490.21,1321.526,1490.111,1321.682z"/>
	<path class="cls-2" d="M1184.479,225.254c-368.141,0-666.673,298.5-666.673,666.65c0,40.488,3.809,80.09,10.73,118.57h15.344
		c42.871,0,86.469,5.93,129.699,18.602c43.251,12.641,83.142,31.141,119.263,54.238l5.68,3.635V937.232h143.762v241.723
		l-85.029-54.414l96.717,61.902h53.93v-381.25H1151.6v381.25h264.271c3.654,0,7.255,0.228,10.793,0.66V541.024h143.781v739.335
		l235.157-146.365c29.281-75.078,45.539-156.66,45.539-242.09C1851.141,523.755,1552.608,225.254,1184.479,225.254z
		 M1361.042,1186.396h-143.739V673.095h143.739V1186.396z"/>
	<path class="cls-2" d="M1503.038,1286.385c0.096-0.707,0.183-1.417,0.261-2.129
		C1503.221,1284.968,1503.134,1285.678,1503.038,1286.385z"/>
	<path class="cls-2" d="M1488.246,1324.482c0.154-0.223,0.306-0.445,0.458-0.669
		C1488.552,1324.037,1488.4,1324.26,1488.246,1324.482z"/>
	<path class="cls-2" d="M1501.816,1293.321c0.139-0.634,0.27-1.27,0.394-1.909
		C1502.086,1292.052,1501.955,1292.688,1501.816,1293.321z"/>
	<path class="cls-2" d="M1500.848,1297.299c0.274-1.023,0.529-2.055,0.768-3.093
		C1501.378,1295.244,1501.122,1296.275,1500.848,1297.299z"/>
	<path class="cls-2" d="M1502.353,1290.646c0.229-1.233,0.432-2.476,0.608-3.727
		C1502.785,1288.171,1502.581,1289.413,1502.353,1290.646z"/>
	<path class="cls-2" d="M1498.854,1303.743c0.282-0.8,0.552-1.604,0.811-2.413
		C1499.406,1302.14,1499.136,1302.943,1498.854,1303.743z"/>
	<path class="cls-2" d="M1500.068,1300.048c0.168-0.553,0.329-1.107,0.486-1.665
		C1500.397,1298.94,1500.236,1299.495,1500.068,1300.048z"/>
	<path class="cls-2" d="M1497.814,1306.55c0.185-0.47,0.363-0.941,0.539-1.415
		C1498.178,1305.608,1497.999,1306.08,1497.814,1306.55z"/>
	<rect x="228.641" y="1478.194" class="cls-1" width="70.199" height="70.199"/>
	<path class="cls-1" d="M1974.66,1123.615l-1.059-1.422c-18.891-24.988-46.25-41.91-77.031-47.59
		c-30.809-5.723-62.34,0.27-88.949,16.789l-269.625,167.828c-7.518-60.716-59.426-107.867-122.118-107.867H964.236l-152.5-97.602
		c-39.828-25.461-83.009-45.098-128.29-58.359c-45.309-13.27-92.27-20-139.57-20H439.173V816.475H0v70.18h369.001v750.419H0v70.185
		h439.173v-158.915h95.617l524.532,210.282c28.75,10.73,58.488,16.121,88.77,16.121c8.871,0,17.77-0.469,26.719-1.391
		c39.48-4.129,76.488-16.977,110.43-38.488l661.611-433.521l1.32-0.922c27.488-19.859,45.383-49.298,50.41-82.829
		S1995.129,1150.674,1974.66,1123.615z M1929.172,1207.221c-2.152,14.48-9.801,27.242-21.531,35.941l-660.393,432.72
		c-24.258,15.383-51.09,24.691-79.699,27.673c-28.602,2.98-56.789-0.633-82.91-10.372l-536.31-215.012H439.173v-432.614h104.703
		c40.621,0,80.93,5.781,119.852,17.18c38.923,11.391,75.993,28.25,110.192,50.129l169.781,108.66h472.169
		c29.16,0,52.879,23.738,52.879,52.898c0,29.173-23.719,52.892-52.879,52.892H953.971c-67.879,0-123.09,55.207-123.09,123.078h70.18
		c0-29.16,23.742-52.898,52.922-52.891h461.896c30.022,0,57.566-10.815,78.951-28.748l349.862-217.784
		c11.691-7.25,25.563-9.867,39.102-7.379c13.508,2.531,25.539,9.949,33.828,20.91l1.051,1.398
		C1927.672,1177.811,1931.391,1192.459,1929.172,1207.221z"/>
</svg>
