<svg id="Layer_1" data-name="Layer 1" xmlns="http://www.w3.org/2000/svg" viewBox="0 0 2000 2000">
    <defs>
        <style>
            .cls-1 {
                fill: #e74a3e;
            }
            
            .cls-2 {
                fill: #181818;
            }
        </style>
    </defs>	
    <title>Startup-And-New-Business</title>
	<rect x="542.398" y="792.5" class="cls-2" width="68.961" height="72.289"/>
	<rect x="657.359" y="685.898" class="cls-2" width="68.961" height="178.871"/>
	<rect x="772.301" y="731.898" class="cls-2" width="68.961" height="132.879"/>
	<rect x="887.199" y="597.488" class="cls-2" width="68.961" height="267.289"/>
	<rect x="1002.199" y="635.102" class="cls-2" width="68.98" height="229.719"/>
	<rect x="1117.102" y="451" class="cls-2" width="68.961" height="413.801"/>
	<rect x="1232.102" y="522.398" class="cls-2" width="68.961" height="342.301"/>
	<rect x="576.879" y="1002.699" class="cls-2" width="266.059" height="137.922"/>
	<path class="cls-1" d="M1791.32,1367.461h-156.652V378.985c88.941-16.277,156.57-94.346,156.574-187.935
		C1791.242,85.719,1705.531,0,1600.191,0c-0.004,0-0.008,0-0.012,0l0,0H556.391c-51.039,0-99.031,19.891-135.082,55.98
		c-36.098,36.059-55.969,84.039-55.969,135.07v1176.41H208.68v194.199h156.66V2000h225.531h0.008v-438.34h818.25V2000h225.539
		v-438.34h156.652V1367.461z M1478.102,1367.461V225.539h87.598v1141.922H1478.102z M1600.191,68.957
		c67.309,0,122.09,54.793,122.09,122.102c0,55.34-37.035,102.203-87.613,117.123V156.578h-151.594
		c14.013-47.542,56.236-83.106,107.215-87.218c0.202-0.016,0.402-0.037,0.604-0.052c0.552-0.042,1.105-0.071,1.659-0.105
		c0.505-0.031,1.01-0.068,1.516-0.093c0.111-0.005,0.222-0.007,0.332-0.013c1.919-0.089,3.846-0.137,5.779-0.137v-0.004
		C1600.184,68.957,1600.188,68.957,1600.191,68.957z M434.293,191.051c0-32.602,12.691-63.262,35.77-86.32
		c23.047-23.07,53.707-35.77,86.328-35.77h896.82c-28.543,34.23-44.082,76.969-44.082,122.09v1301.59h-818.25H434.301h-0.008
		V191.051z M277.66,1436.422h87.68v56.219v0.059h-87.68V1436.422z M521.902,1931.031h-87.602V1561.66h87.602V1931.031z
		 M1565.711,1931.031h-87.602V1561.66h87.602V1931.031z M1722.328,1492.699h-87.66v-0.059h-156.566v-56.219h244.227V1492.699z"/>
	<rect x="680.301" y="156.578" class="cls-1" width="68.961" height="68.961"/>
	<rect x="818.301" y="156.578" class="cls-1" width="68.961" height="68.961"/>
	<rect x="956.199" y="156.578" class="cls-1" width="68.98" height="68.961"/>
	<rect x="1094.102" y="156.578" class="cls-1" width="68.961" height="68.961"/>
	<rect x="542.398" y="1244.102" class="cls-1" width="335.02" height="68.961"/>
	<rect x="966" y="968.199" class="cls-1" width="335.02" height="68.961"/>
	<rect x="966" y="1106.102" class="cls-1" width="335.02" height="68.961"/>
	<rect x="966" y="1244.102" class="cls-1" width="167.5" height="68.961"/>
	<path class="cls-1" d="M877.418,968.23h-335.02v206.891h335.02V968.23z M808.461,1106.148h-197.09v-68.961h197.09V1106.148z"/>
	<rect x="542.398" y="405.18" class="cls-1" width="335.02" height="68.961"/>
	<rect x="542.398" y="543.102" class="cls-1" width="172.41" height="68.98"/>
</svg>
