<svg id="Layer_1" data-name="Layer 1" xmlns="http://www.w3.org/2000/svg" viewBox="0 0 2000 2000">
    <defs>
        <style>
            .cls-1 {
                fill: #e74a3e;
            }
            
            .cls-2 {
                fill: #181818;
            }
        </style>
    </defs>	
    <title>Startup-And-New-Business</title>
	<rect x="965.602" y="1242.398" class="cls-1" width="68.961" height="68.961"/>
	<path class="cls-1" d="M1814.379,922.043V738.281l-260.517-260.509c-7.622-104.244-94.925-186.741-201.104-186.741
		c-111.168,0-201.629,90.43-201.629,201.57h0.012c0,83.371-67.801,151.199-151.141,151.199
		c-83.371,0-151.199-67.828-151.199-151.199c0-111.141-90.422-201.57-201.57-201.57c-106.158,0-193.401,82.493-201.022,186.733
		L185.68,738.281v183.728C73.53,1000.159,0,1130.057,0,1276.809c0,238.301,193.879,432.16,432.18,432.16
		c164.306,0,307.484-92.165,380.563-227.508h374.511c73.082,135.342,216.264,227.508,380.566,227.508
		c238.301,0,432.18-193.863,432.18-432.16C2000,1130.084,1926.495,1000.202,1814.379,922.043z M1352.77,359.992
		c61.235,0,112.896,41.679,128.121,98.129h-256.242C1239.872,401.671,1291.531,359.992,1352.77,359.992z M647.23,359.992
		c61.203,0,112.836,41.679,128.053,98.129H519.178C534.394,401.671,586.028,359.992,647.23,359.992z M254.66,766.859l239.75-239.781
		h288.136C799.143,632.156,890.329,712.762,1000,712.762c109.646,0,200.805-80.605,217.396-185.684h288.244l239.781,239.781v115.967
		c-54.205-24.532-114.338-38.197-177.602-38.197c-164.327,0-307.525,92.194-380.598,227.57H812.767
		c-73.071-135.37-216.264-227.559-380.587-227.559c-63.232,0-123.335,13.65-177.52,38.158V766.859z M432.18,1640
		c-200.277,0-363.199-162.93-363.199-363.199S231.91,913.59,432.18,913.59s363.199,162.941,363.199,363.211
		S632.457,1640,432.18,1640z M842.526,1412.5c14.154-42.692,21.825-88.312,21.825-135.691c0-47.363-7.666-92.969-21.811-135.648
		h314.908c-14.143,42.678-21.809,88.28-21.809,135.641c0,47.382,7.673,93.005,21.828,135.699H842.526z M1567.82,1640
		c-200.27,0-363.211-162.93-363.211-363.199S1367.551,913.59,1567.82,913.59c200.281,0,363.199,162.941,363.199,363.211
		S1768.09,1640,1567.82,1640z"/>
	<path class="cls-2" d="M432.18,972.309c-168.211,0-304.512,136.359-304.512,304.5c0,168.211,136.301,304.512,304.512,304.512
		c168.141,0,304.52-136.301,304.52-304.512C736.699,1108.66,600.32,972.301,432.18,972.309z M326.328,1276.84
		c-58.454,0-105.84-47.386-105.84-105.84s47.386-105.84,105.84-105.84c58.454,0,105.84,47.386,105.84,105.84
		S384.782,1276.84,326.328,1276.84z M471.922,1368.598c-28.691,0-51.98-23.301-51.98-52.059c0-28.672,23.301-51.969,51.98-51.969
		s51.969,23.301,51.969,51.969C523.891,1345.301,500.59,1368.598,471.922,1368.598z"/>
	<path class="cls-2" d="M1567.82,972.309c-168.121,0-304.441,136.359-304.441,304.5c0,168.211,136.313,304.512,304.441,304.512
		c168.141,0,304.59-136.301,304.59-304.512C1872.41,1108.66,1735.969,972.301,1567.82,972.309z M1462,1276.809
		c-58.437,0-105.809-47.372-105.809-105.809s47.372-105.809,105.809-105.809s105.809,47.372,105.809,105.809
		S1520.437,1276.809,1462,1276.809z M1607.57,1368.598c-28.672,0-51.922-23.301-51.922-52.059c0-28.672,23.25-51.969,51.922-51.969
		c28.668,0,52.051,23.301,52.051,51.969C1659.621,1345.301,1636.242,1368.598,1607.57,1368.598z"/>
</svg>
