<svg id="Layer_1" data-name="Layer 1" xmlns="http://www.w3.org/2000/svg" viewBox="0 0 2000 2000">
    <defs>
        <style>
            .cls-1 {
                fill: #e74a3e;
            }
            
            .cls-2 {
                fill: #181818;
            }
        </style>
    </defs>	
    <title>Startup-And-New-Business</title>
	<path class="cls-2" d="M168,432v1184h672v-190.711c-159.359-63.59-272-219.219-272-401.281c0-238.609,193.391-432,432-432
	c238.59,0,432,193.391,432,432c0,182.059-112.66,337.691-272,401.281V1616h672V432H168z M388,1224h-80v-80h80V1224z M388,1064h-80
	v-80h80V1064z M388,904h-80v-80h80V904z M1692,1224h-80v-80h80V1224z M1692,1064h-80v-80h80V1064z M1692,904h-80v-80h80V904z"/>
	<path class="cls-1" d="M0,24v240v80v1440h880v192h80v-360h80v360h80v-192h880V344v-80V24H0z M880,1536v-55.461
		c38.331,10.082,78.548,15.461,120,15.461c41.452,0,81.67-5.379,120-15.461V1536H880z M1000,1415.988
		c-216.16,0-392-175.84-392-391.988c0-216.16,175.84-392,392-392c216.148,0,392,175.84,392,392
		C1392,1240.148,1216.148,1415.988,1000,1415.988z M1920,1704h-800v-88h80v-164.5c160.56-75.415,272-238.68,272-427.488
		c0-260.27-211.738-472-472-472s-472,211.73-472,472c0,188.809,111.441,352.073,272,427.488V1616h80v88H80V344h1840V1704z M80,264
		V104h1840v160H80z"/>
	<rect x="168" y="144" class="cls-1" width="80" height="80"/>
	<rect x="328" y="144" class="cls-1" width="80" height="80"/>
	<rect x="488" y="144" class="cls-1" width="80" height="80"/>
	<path class="cls-1" d="M1033.32,984.027h-66.719c-16,0-31.07-6.25-42.48-17.691c-11.25-11.199-17.461-26.23-17.461-42.34
		c0-16.031,6.25-31.172,17.309-42.301c11.582-11.43,26.723-17.73,42.621-17.73h66.719c15.898,0,31.09,6.309,42.328,17.359
		c11.418,11.563,17.699,26.723,17.699,42.672h80c0-37.152-14.48-72.27-41.18-99.301c-25.097-24.682-57.59-38.943-92.156-40.578V744
		h-80v40.114c-34.616,1.611-67.176,15.904-92.523,40.902c-26.328,26.527-40.828,61.668-40.828,98.969
		c0,37.527,14.563,72.699,40.922,98.949c26.473,26.5,61.621,41.078,99.012,41.078h66.719c16.02,0,31.109,6.262,42.531,17.672
		c11.289,11.27,17.5,26.32,17.5,42.359c0,15.93-6.293,31.09-17.352,42.309c-11.488,11.328-26.641,17.578-42.68,17.578h-66.719
		c-16.031,0-31.129-6.242-42.32-17.301c-11.359-11.449-17.609-26.57-17.609-42.59h-80c0,37.27,14.5,72.402,41.078,99.191
		c24.932,24.696,57.484,38.943,92.27,40.544V1304h80v-40.229c34.74-1.625,67.267-15.886,92.57-40.837
		c26.301-26.641,40.781-61.77,40.781-98.879c0-37.449-14.559-72.598-40.98-98.969
		C1105.871,998.605,1070.691,984.027,1033.32,984.027z"/>
</svg>
