<svg id="Layer_1" data-name="Layer 1" xmlns="http://www.w3.org/2000/svg" viewBox="0 0 2000 2000">
    <defs>
        <style>
            .cls-1 {
                fill: #e74a3e;
            }
            
            .cls-2 {
                fill: #181818;
            }
        </style>
    </defs>	
    <title>Startup-And-New-Business</title>
	<path class="cls-2" d="M162.87,216.179v1054.794h1674.291V216.179H162.87z M474.466,795.694h-79.999V564.798h79.999V795.694z
	 M977.193,959.717h-79.999V477.118h79.999V959.717z M1102.795,556.864h-80V359.627h80V556.864z M1605.49,858.956h-79.999v-314.76
	h79.999V858.956z M1731.189,590.355h-80V477.118h80V590.355z"/>
	<polygon class="cls-1" points="1322.281,1731.74 1242.281,1731.74 1242.281,1866.681 757.617,1866.681 757.617,1731.74 
		677.617,1731.74 677.617,1866.688 556.528,1866.688 556.528,1946.688 1443.422,1946.688 1443.422,1866.688 1322.281,1866.688 	"/>
	<path class="cls-1" d="M1968.59,84.98c-20.238-20.422-47.379-31.672-76.41-31.672H107.781c-29.043,0-56.152,11.262-76.171,31.531
		C11.211,105.171,0,132.249,0,161.05v1192.872v80.019v118.012c0,28.839,11.211,55.917,31.488,76.159
		c20.242,20.379,47.32,31.609,76.23,31.609H1892.18c28.887,0,55.98-11.199,76.219-31.469c20.379-20.281,31.59-47.379,31.59-76.3
		V1433.94H2000V161.038C2000,132.151,1988.77,105.05,1968.59,84.98z M80,161.05c0-7.402,2.871-14.352,8.34-19.781
		c6.82-6.93,15.113-7.961,19.441-7.961h1784.388c5.328,0,13.027,1.383,19.788,8.211c5.203,5.141,8.031,12.07,8.031,19.531v1192.872
		H80V161.05z M1920,1551.96c0,7.5-2.859,14.469-8.121,19.719c-5.199,5.18-12.188,8.051-19.699,8.051H107.73
		c-7.461,0-14.359-2.852-19.59-8.09c-5.242-5.25-8.141-12.238-8.141-19.68v-118.02h1840V1551.96z"/>
	<rect x="268.78" y="728.906" class="cls-1" width="80" height="163.71"/>
	<rect x="520.196" y="812.894" class="cls-1" width="79.999" height="79.75"/>
	<rect x="645.797" y="879.995" class="cls-1" width="80" height="197.28"/>
	<rect x="771.495" y="1031.096" class="cls-1" width="80" height="96.55"/>
	<rect x="1148.493" y="527.485" class="cls-1" width="80" height="329.139"/>
	<rect x="1274.191" y="712.098" class="cls-1" width="80" height="96.511"/>
	<rect x="1399.793" y="779.265" class="cls-1" width="79.999" height="214.038"/>
</svg>
