<svg id="Layer_1" data-name="Layer 1" xmlns="http://www.w3.org/2000/svg" viewBox="0 0 2000 2000">
    <defs>
        <style>
            .cls-1 {
                fill: #e74a3e;
            }
            
            .cls-2 {
                fill: #181818;
            }
        </style>
    </defs>	
    <title>Startup-And-New-Business</title>
	<path class="cls-2" d="M1482.199,751.309v-60.609l-86.512-17.43c-3.609-23.289-9.781-45.738-18.121-67.09l66.328-58.602
	l-30.141-52.012l-83.809,28.191c-14.699-18.16-31.141-34.68-49.422-49.199l28.309-84.039l-52.219-30.059l-58.512,66.551
	c-21.27-8.34-43.641-14.5-66.93-18.012l-17.5-86.859h-60.422L1035.789,409c-23.328,3.488-45.73,9.641-67.09,18l-58.449-66.531
	l-52.281,30.059l28.289,84.109c-18.109,14.531-34.711,31.031-49.16,49.172l-84.02-28.23l-30.129,52.012l66.48,58.75
	c-8.34,21.27-14.512,43.648-17.93,66.859l-86.961,17.512l0.129,60.609l86.828,17.379c3.422,23.27,9.59,45.68,17.98,66.988
	l-66.531,58.629l30.129,52.07l84.02-28.34c14.449,18.18,31.059,34.68,49.172,49.25l-28.309,84.02l52.281,30.141l58.391-66.551
	c21.379,8.359,43.828,14.48,67.129,18.031l17.488,86.969h60.426l17.531-87c23.289-3.551,45.672-9.711,67.039-18l58.469,66.551
	l52.121-30.141l-28.34-83.93c18.309-14.559,34.762-31.141,49.449-49.32l83.809,28.309l30.141-52.07l-66.359-58.52
	c8.34-21.328,14.531-43.828,18.141-67.18L1482.199,751.309z M1083.359,887.199c-91.699,0-166.121-74.398-166.121-166.199
	c0-91.762,74.422-166.16,166.121-166.16c91.828,0,166.16,74.398,166.16,166.16C1249.52,812.789,1175.191,887.199,1083.359,887.199z"
	/>
	<path class="cls-1" d="M1804.457,721.02c0-397.57-323.43-721.02-720.969-721.02C685.879,0,362.398,323.449,362.41,720.836
		L362,797.125l-166.461,487.031H391.18l34.68,436.449l345.25-31.719l38.191,309.672l71.969-8.879l-46.789-379.43l-342.141,31.441
		l-34.16-430.051H296.941l137.504-402.262l0.461-88.359c0-357.59,290.93-648.512,648.57-648.512
		c357.57,0,648.461,290.934,648.461,648.512c0,71.852-11.719,142.512-35.27,211.23l-154.988,509l92.121,558.75l71.566-11.801
		l-89.379-542.031l149.68-491.609C1791.398,879.461,1804.457,800.891,1804.457,721.02z"/>
	<path class="cls-1" d="M1083.359,518.578C971.75,518.578,880.98,609.379,880.98,721c0,111.629,90.77,202.449,202.379,202.449
		c111.602,0,202.422-90.82,202.422-202.449C1285.781,609.379,1194.961,518.578,1083.359,518.578z M1083.359,850.941
		c-71.609,0-129.871-58.293-129.871-129.941c0-71.629,58.262-129.91,129.871-129.91c71.629,0,129.871,58.281,129.871,129.91
		C1213.23,792.652,1154.988,850.941,1083.359,850.941z"/>
	<path class="cls-1" d="M799.48,1124.242c-18.262-12.871-35.828-27.152-52.25-42.441l-49.43,53.059
		c18.813,17.531,38.98,33.871,59.871,48.641L799.48,1124.242z"/>
	<path class="cls-1" d="M821.77,219.418c-22.699,11.879-44.82,25.449-65.75,40.301l42.012,59.121
		c18.258-12.98,37.559-24.809,57.316-35.152L821.77,219.418z"/>
	<path class="cls-1" d="M968.93,1275.031c25.078,5.148,50.82,8.641,76.449,10.34l4.789-72.371c-22.352-1.469-44.77-4.5-66.66-8.988
		L968.93,1275.031z"/>
	<path class="cls-1" d="M1117.5,1212.941l4.949,72.34c25.641-1.75,51.371-5.27,76.422-10.48l-14.73-70.98
		C1162.289,1208.352,1139.871,1211.43,1117.5,1212.941z"/>
	<path class="cls-1" d="M701.25,1032.703c-14.148-17.34-27.25-35.801-38.91-54.871l-61.859,37.828
		c13.379,21.871,28.391,43.039,44.629,62.91L701.25,1032.703z"/>
	<path class="cls-1" d="M563.98,496.73l66.57,28.789c8.859-20.52,19.27-40.621,30.863-59.789l-62.012-37.57
		C586.059,450.129,574.16,473.211,563.98,496.73z"/>
	<path class="cls-1" d="M745.996,361.434l-49.66-52.852c-18.727,17.59-36.379,36.578-52.488,56.449l56.301,45.68
		C714.219,393.371,729.621,376.789,745.996,361.434z"/>
	<path class="cls-1" d="M823.648,1223.598c22.801,11.813,46.652,22.152,70.852,30.711l24.18-68.328
		c-21.063-7.461-41.82-16.473-61.691-26.781L823.648,1223.598z"/>
	<path class="cls-1" d="M523.109,799.051l71.832-9.941c-3.059-22.051-4.629-44.641-4.66-67.121l-72.512,0.121
		C517.801,747.859,519.609,773.742,523.109,799.051z"/>
	<path class="cls-1" d="M522.813,645.16l71.859,9.68c3-22.25,7.527-44.398,13.48-65.898l-69.871-19.371
		C531.441,594.25,526.254,619.66,522.813,645.16z"/>
	<path class="cls-1" d="M631.293,918.227c-8.949-20.5-16.582-41.789-22.621-63.289l-69.801,19.641
		c6.941,24.699,15.691,49.16,25.98,72.711L631.293,918.227z"/>
	<path class="cls-1" d="M1504.809,977.109c-11.629,19.102-24.688,37.582-38.828,54.961l56.219,45.781
		c16.262-19.93,31.211-41.141,44.531-63.023L1504.809,977.109z"/>
	<path class="cls-1" d="M1535.789,917.391l66.48,28.93c10.23-23.5,18.961-47.992,25.871-72.789L1558.34,854
		C1552.27,875.582,1544.719,896.922,1535.789,917.391z"/>
	<path class="cls-1" d="M1557.77,586.211c6.129,21.469,10.777,43.59,13.879,65.77l71.801-10.039
		c-3.559-25.461-8.898-50.871-15.898-75.531L1557.77,586.211z"/>
	<path class="cls-1" d="M1503.859,463.41c11.699,19.07,22.18,39.09,31.141,59.512l66.43-29.152
		c-10.289-23.418-22.352-46.418-35.801-68.309L1503.859,463.41z"/>
	<path class="cls-1" d="M1648.98,721.012v-2.07h-72.551v2.07c0,22.48-1.488,45.07-4.52,67.141l71.859,9.789
		C1647.219,772.648,1648.98,746.77,1648.98,721.012z"/>
	<path class="cls-1" d="M1468.102,306.461l-49.359,53.129c16.379,15.211,31.891,31.711,46.129,49.02l56.059-45.988
		C1504.641,342.781,1486.863,323.891,1468.102,306.461z"/>
	<path class="cls-1" d="M1367.867,1123.781l41.922,59.168c20.941-14.828,41.039-31.219,59.777-48.727l-49.539-52.961
		C1403.695,1096.531,1386.148,1110.852,1367.867,1123.781z"/>
	<path class="cls-1" d="M1271.18,187.359c-24.262-8.531-49.313-15.461-74.461-20.57l-14.461,71.059
		c21.883,4.453,43.711,10.492,64.852,17.922L1271.18,187.359z"/>
	<path class="cls-1" d="M1115.602,228.973l4.629-72.379c-25.609-1.641-51.559-1.551-77.07,0.238l5.078,72.328
		C1070.559,227.602,1093.191,227.531,1115.602,228.973z"/>
	<path class="cls-1" d="M1342.09,217.965l-33.23,64.469c19.852,10.219,39.23,21.949,57.602,34.828l41.66-59.348
		C1387.07,243.145,1364.82,229.695,1342.09,217.965z"/>
	<path class="cls-1" d="M966.77,167.469c-25.129,5.258-50.129,12.328-74.289,20.988l24.461,68.262
		c21.047-7.559,42.809-13.699,64.699-18.289L966.77,167.469z"/>
	<path class="cls-1" d="M1248.859,1185.652l24.34,68.309c24.172-8.609,47.98-18.992,70.777-30.848l-33.488-64.32
		C1290.66,1169.133,1269.898,1178.141,1248.859,1185.652z"/>
</svg>
