<svg id="Layer_1" data-name="Layer 1" xmlns="http://www.w3.org/2000/svg" viewBox="0 0 2000 2000">
    <defs>
        <style>
            .cls-1 {
                fill: #e74a3e;
            }
            
            .cls-2 {
                fill: #181818;
            }
        </style>
    </defs>	
    <title>Startup-And-New-Business</title>
	<path class="cls-2" d="M1196.738,1531.551V2000l105.871-105.891L1408.496,2000v-282.98c-29.359-11.93-55.809-29.52-77.859-51.559
		L1196.738,1531.551z"/>
	<polygon class="cls-2" points="1408.496,1410.59 1408.496,1198.809 1196.734,1198.809 	"/>
	<path class="cls-2" d="M481.219,1531.461c-41.82,41.828-41.82,109.699-0.012,151.539c41.84,41.809,109.711,41.809,151.551,0
		c41.84-41.828,41.84-109.699,0-151.539C590.918,1489.648,523.047,1489.621,481.219,1531.461z"/>
	<circle class="cls-2" cx="556.984" cy="392.699" r="107.148"/>
	<polygon class="cls-2" points="1302.605,105.879 1196.734,0 1196.734,1000.012 1408.496,1000.012 1408.496,0 	"/>
	<path class="cls-1" d="M1407.457,322.349c27.454-13.813,57.945-21.119,89.551-21.119c41.207,0.02,80.508,12.422,113.629,35.461
		l-203.18,203.181v101.001l306.438-306.443l-25.25-25.25c-51.18-51.168-119.238-79.359-191.629-79.379
		c-30.969,0-61.146,5.177-89.559,15.097V322.349z"/>
	<path class="cls-1" d="M1048.381,999.956l148.206-148.208V750.743l-589.999,590c-16.193-2.977-32.773-4.517-49.592-4.517
		c-3.847,0-7.679,0.097-11.5,0.255l228.089-228.052c28.961-28.98,44.922-67.52,44.922-108.5
		c-0.031-28.77-7.891-56.328-22.621-80.219l400.7-400.72v-101.02l-365.15,365.162L681.711,633.408
		c24.375-12.665,46.931-29.122,66.906-49.096c105.668-105.668,105.648-277.59-0.012-383.27
		c-51.18-51.199-119.238-79.371-191.629-79.371s-140.441,28.172-191.641,79.371c-105.66,105.68-105.66,277.609,0.02,383.27
		c0.001,0.001,0.001,0.002,0.002,0.002l-0.003,0.003l332.451,332.451l0,0l1.264,1.263l24.004,24.004l0.009-0.009
		c15.456,15.46,23.973,36.046,23.973,57.922c0,21.902-8.52,42.461-23.98,57.961l-356.782,356.743
		c-0.317,0.313-0.641,0.617-0.956,0.933c-105.66,105.691-105.66,277.621,0.02,383.281c51.18,51.191,119.23,79.352,191.621,79.352
		c72.398,0,140.469-28.16,191.641-79.355c51.18-51.18,79.379-119.238,79.379-191.629c-0.008-72.379-28.199-140.438-79.379-191.648
		c-19.952-19.955-42.476-36.394-66.813-49.047l149.698-149.7l473.873,473.884c51.199,51.207,119.27,79.379,191.641,79.379
		c72.391,0,140.449-28.18,191.641-79.359l25.25-25.25L1048.381,999.956z M415.862,533.811l-0.004,0.004
		c-0.001,0-0.001-0.001-0.002-0.002c-77.809-77.82-77.809-204.434,0-282.262c37.691-37.699,87.813-58.449,141.121-58.449
		c53.32,0,103.441,20.738,141.109,58.449c77.82,77.832,77.84,204.453,0.031,282.262c-37.699,37.688-87.82,58.449-141.121,58.449
		c-53.153,0-103.112-20.632-140.782-58.1L415.862,533.811z M545.487,663.436c3.824,0.159,7.659,0.256,11.509,0.256
		c16.788,0,33.338-1.537,49.504-4.506l174.443,174.443l-32.631,32.632L545.487,663.436z M698.117,1466.117
		c37.68,37.691,58.461,87.82,58.461,141.141c0,53.301-20.762,103.41-58.461,141.121s-87.82,58.43-141.141,58.43
		c-53.313,0-103.43-20.719-141.121-58.43c-77.809-77.82-77.809-204.43,0-282.27c37.691-37.68,87.813-58.441,141.141-58.441
		C610.297,1407.668,660.418,1428.43,698.117,1466.117z M1497.012,1698.68c-53.289,0-103.41-20.758-141.129-58.469l-473.881-473.873
		l115.889-115.891l612.762,612.803C1577.523,1686.289,1538.211,1698.68,1497.012,1698.68z"/>
</svg>
