<svg id="Layer_1" data-name="Layer 1" xmlns="http://www.w3.org/2000/svg" viewBox="0 0 2000 2000">
    <defs>
        <style>
            .cls-1 {
                fill: #e74a3e;
            }
            
            .cls-2 {
                fill: #181818;
            }
        </style>
    </defs>	
    <title>Startup-And-New-Business</title>
	<rect x="894.398" y="1545.602" class="cls-2" width="211.102" height="211.102"/>
	<rect x="894.398" y="1205.699" class="cls-2" width="211.102" height="211.102"/>
	<rect x="894.398" y="865.801" class="cls-2" width="211.102" height="211.102"/>
	<rect x="577.77" y="525.949" class="cls-2" width="844.5" height="211.102"/>
	<path class="cls-1" d="M1438.16,0H256.59v2000h1486.809V305.211L1438.16,0z M1460.691,131.285l151.406,151.395h-151.406V131.285z
		 M333.512,1923.078V76.918H1383.77v282.684h282.711v1563.477H333.512z"/>
	<path class="cls-1" d="M855.969,1795.18h288.051v-288.039H855.969V1795.18z M932.91,1584.051h134.18v134.199H932.91V1584.051z"/>
	<path class="cls-1" d="M855.969,1455.281h288.051v-288H855.969V1455.281z M932.91,1244.199h134.18v134.172H932.91V1244.199z"/>
	<path class="cls-1" d="M855.969,1115.379h288.051v-288H855.969V1115.379z M932.91,904.301h134.18v134.16H932.91V904.301z"/>
	<path class="cls-1" d="M539.309,775.551h921.383h0.008V487.48H539.309V775.551z M616.23,564.41h767.539v134.199H616.23V564.41z"/>
	<path class="cls-1" d="M539.313,1141.332c0,114.918,93.488,208.43,208.398,208.43v-76.945c-72.492,0-131.48-58.98-131.48-131.48
		c0-72.512,58.98-131.48,131.48-131.48v-76.941C632.801,932.914,539.313,1026.422,539.313,1141.332z"/>
	<path class="cls-1" d="M1252.289,1272.828v76.941c72.5,0,131.48,58.961,131.48,131.48c0,72.512-58.98,131.48-131.48,131.48v76.93
		c114.922,0,208.402-93.512,208.41-208.402C1460.699,1366.34,1367.211,1272.828,1252.289,1272.828z"/>
	<rect x="539.309" y="282.699" class="cls-1" width="460.699" height="76.922"/>
</svg>
