<svg id="Layer_1" data-name="Layer 1" xmlns="http://www.w3.org/2000/svg" viewBox="0 0 2000 2000">
    <defs>
        <style>
            .cls-1 {
                fill: #e74a3e;
            }
            
            .cls-2 {
                fill: #181818;
            }
        </style>
    </defs>	
    <title>Startup-And-New-Business</title>
	<path class="cls-2" d="M482.75,1320.289c0,285.629,231.641,517.23,517.25,517.23s517.238-231.59,517.238-517.23
	S1285.609,803.039,1000,803.039S482.75,1034.648,482.75,1320.289z"/>
	<path class="cls-1" d="M1189.34,667.469V249.609h4.18c33.41,0,64.789-12.98,88.328-36.57c23.531-23.559,36.48-54.902,36.48-88.23
		c0-33.32-12.953-64.66-36.512-88.25C1258.219,12.98,1226.848,0,1193.508,0h-387.09c-33.316,0-64.668,13-88.242,36.578
		c-23.578,23.559-36.559,54.91-36.559,88.23c0,33.328,12.98,64.668,36.52,88.199c23.512,23.602,54.871,36.602,88.281,36.602h4.23
		V667.48c-290.07,83.68-490.359,348.34-490.359,652.809C320.289,1695.078,625.199,2000,1000,2000s679.711-304.922,679.711-679.711
		C1679.711,1015.777,1479.43,751.148,1189.34,667.469z M806.418,180.641c-14.949,0-28.957-5.789-39.488-16.359
		c-10.531-10.559-16.359-24.582-16.359-39.48s5.828-28.918,16.359-39.469c10.566-10.551,24.59-16.371,39.488-16.371
		c0,0,387.094,0,387.09,0c14.93,0,29,5.82,39.531,16.359c10.539,10.531,16.328,24.559,16.328,39.48
		c0,14.93-5.789,28.949-16.328,39.5c-10.52,10.531-24.551,16.34-39.531,16.34h-4.168H810.648H806.418z M1000,1931.031
		c-336.762,0-610.75-273.969-610.75-610.73c0-281.758,190.867-525.559,464.129-592.859l26.23-6.461V249.609h240.762V720.98
		l26.238,6.441c273.277,67.328,464.129,311.109,464.129,592.879C1610.738,1657.063,1336.77,1931.031,1000,1931.031z"/>
	<path class="cls-1" d="M1000,906.48c-228.168,0-413.789,185.637-413.789,413.809c0,0.003,0,0.006,0,0.009c0,0.001,0,0.002,0,0.003
		c0,0.003,0,0.005,0,0.008c0.011,228.14,185.624,413.75,413.789,413.75c228.162,0,413.778-185.599,413.789-413.75
		c0-0.003,0-0.005,0-0.008c0-0.001,0-0.002,0-0.003c0-0.003,0-0.006,0-0.009C1413.789,1092.109,1228.168,906.48,1000,906.48z
		 M1147.434,1391.571c1.335-23.719,1.996-47.607,1.996-71.282c0-23.685-0.662-47.583-1.998-71.312
		c129.08,17.108,197.389,53.75,197.389,71.312C1344.82,1337.836,1276.512,1374.468,1147.434,1391.571z M1000,1665.09
		c-17.562,0-54.187-68.299-71.285-197.375c23.719,1.335,47.609,1.996,71.285,1.996c23.682,0,47.577-0.661,71.302-1.997
		C1054.197,1596.791,1017.562,1665.09,1000,1665.09z M1000,1400.738c-27.584,0-53.596-0.869-78.018-2.432
		c-1.563-24.422-2.432-50.434-2.432-78.018c0-27.596,0.87-53.617,2.433-78.048c24.422-1.563,50.433-2.433,78.016-2.433
		c27.59,0,53.607,0.87,78.035,2.434c1.563,24.431,2.434,50.452,2.434,78.047c0,27.584-0.869,53.595-2.432,78.016
		C1053.609,1399.868,1027.591,1400.738,1000,1400.738z M655.172,1320.289c0-17.563,68.313-54.206,197.404-71.313
		c-1.336,23.729-1.998,47.628-1.998,71.313c0,23.675,0.661,47.564,1.996,71.283C723.484,1374.47,655.172,1337.837,655.172,1320.289z
		 M1000,975.461c17.562,0,54.196,68.308,71.301,197.389c-23.725-1.336-47.619-1.998-71.301-1.998
		c-23.676,0-47.565,0.661-71.285,1.997C945.814,1043.763,982.438,975.461,1000,975.461z M1331.766,1226.169
		c-49.538-23.095-117.136-38.693-190.363-47.288c-8.591-73.224-24.183-140.821-47.272-190.361
		C1208.737,1021.08,1299.211,1111.562,1331.766,1226.169z M905.872,988.519c-23.088,49.54-38.678,117.136-47.268,190.36
		c-73.233,8.594-140.836,24.191-190.376,47.288C700.785,1111.558,791.265,1021.078,905.872,988.519z M668.231,1414.414
		c49.54,23.091,117.142,38.683,190.373,47.272c8.59,73.219,24.182,140.811,47.271,190.347
		C791.272,1619.478,700.793,1529.009,668.231,1414.414z M1094.128,1652.032c23.091-49.535,38.684-117.127,47.274-190.347
		c73.225-8.59,140.82-24.18,190.357-47.268C1299.201,1529.008,1208.73,1619.477,1094.128,1652.032z"/>
	<rect x="965.5" y="318.57" class="cls-1" width="68.961" height="68.961"/>
	<rect x="965.5" y="456.488" class="cls-1" width="68.961" height="68.98"/>
	<rect x="965.5" y="594.398" class="cls-1" width="68.961" height="68.961"/>
</svg>
