<svg id="Layer_1" data-name="Layer 1" xmlns="http://www.w3.org/2000/svg" viewBox="0 0 2000 2000">
    <defs>
        <style>
            .cls-1 {
                fill: #e74a3e;
            }
            
            .cls-2 {
                fill: #181818;
            }
        </style>
    </defs>	
    <title>Startup-And-New-Business</title>
	<polygon class="cls-2" points="1314.129,1173.586 883.148,1604.637 703.801,1425.285 269.672,1859.414 2000,1859.414 	"/>
	<polygon class="cls-2" points="1243.199,245.426 1372.961,115.656 1012.449,115.656 1012.449,375.215 1372.961,375.215 	"/>
	
		<rect x="1664.17" y="951.58" transform="matrix(0.707 -0.7072 0.7072 0.707 -431.4399 1586.8611)" class="cls-1" width="70.499" height="725.087"/>
	<polygon class="cls-1" points="374.379,1315.195 1012.5,677.074 1160.352,824.906 1210.219,775.047 1047.699,612.534 
		1047.699,115.656 977.199,115.656 977.199,612.636 324.512,1265.305 	"/>
	<polygon class="cls-1" points="1580.629,843.414 1651.172,843.414 1651.172,591.863 1399.641,591.863 1399.641,662.395 
		1530.771,662.395 883.148,1310.023 703.77,1130.637 0,1834.453 49.859,1884.344 703.77,1230.395 883.148,1409.766 
		1580.629,712.285 	"/>
</svg>
