<svg id="Layer_1" data-name="Layer 1" xmlns="http://www.w3.org/2000/svg" viewBox="0 0 2000 2000">
    <defs>
        <style>
            .cls-1 {
                fill: #e74a3e;
            }
            
            .cls-2 {
                fill: #181818;
            }
        </style>
    </defs>	
    <title>Startup-And-New-Business</title>
	<path class="cls-2" d="M850.809,592.785c-116.578,0-211.422,94.852-211.422,211.441s94.84,211.43,211.422,211.43
		c116.648,0,211.551-94.852,211.551-211.43S967.461,592.785,850.809,592.785z M850.809,933.273
		c-71.16,0-129.059-57.879-129.059-129.059c0-71.16,57.898-129.039,129.059-129.039s129.059,57.879,129.059,129.039
		C979.871,875.395,921.969,933.273,850.809,933.273z"/>
	<path class="cls-2" d="M1434.012,1136.504h108.52v-773.09H159.09v881.609h1274.922V1136.504z M1198.957,841.266h-64.928
		c-3.297,25.322-9.931,49.607-19.435,72.41l56.34,32.536l-37.048,64.155l-56.445-32.597c-15.281,19.892-33.117,37.72-53.018,52.995
		l32.583,56.434l-64.151,37.039l-32.532-56.346c-22.816,9.504-47.116,16.137-72.452,19.433v65.05h-74.07v-65.045
		c-25.323-3.293-49.609-9.923-72.415-19.424l-32.516,56.336l-64.162-37.034l32.577-56.441c-19.9-15.28-37.736-33.117-53.016-53.02
		l-56.428,32.586l-37.054-64.165l56.342-32.537c-9.491-22.791-16.117-47.061-19.41-72.366h-65.021v-74.07h65.02
		c3.295-25.324,9.927-49.612,19.428-72.418l-56.391-32.564l37.042-64.146l56.483,32.619c15.276-19.896,33.107-37.728,53.001-53.005
		l-32.611-56.453l64.145-37.054l32.561,56.367c22.808-9.503,47.098-16.136,72.424-19.429v-65.045h74.07v65.05
		c25.315,3.293,49.595,9.919,72.394,19.411l32.538-56.374l64.163,37.034l-32.588,56.459c19.912,15.278,37.758,33.112,53.047,53.012
		l56.504-32.613l37.034,64.162l-56.38,32.541c9.512,22.814,16.149,47.112,19.447,72.446h64.927V841.266z"/>
	<path class="cls-2" d="M850.809,749.246c-30.32,0-54.988,24.648-54.988,54.969c0,30.309,24.672,54.969,54.988,54.969
		c30.309,0,54.988-24.66,54.988-54.969C905.801,773.906,881.121,749.246,850.809,749.246z"/>
	<rect x="37.039" y="1502.695" class="cls-2" width="1627.5" height="271.199"/>
	<polygon class="cls-2" points="1881.59,241.363 1800.211,322.734 1800.211,1611.215 1962.969,1611.215 1962.969,322.734 	"/>
	<path class="cls-1" d="M0,1404.125h1449.359l252.262-252.281v-947.52H0V1404.125z M1471.051,1277.673v-104.138h104.147
		L1471.051,1277.673z M74.07,278.395h1553.48v821.07h-230.57v230.582H74.07V278.395z"/>
	<path class="cls-1" d="M0,1811.016h1701.621v-345.32H0V1811.016z M74.07,1539.754h51.109v49.25h74.07v-49.25h51.148v49.25h74.07
		v-49.25h51.109v49.25h74.07v-49.25h51.152v49.25h74.07v-49.25h51.027v49.25h74.07v-49.25h51.23v49.25h74.07v-49.25h51.129v49.25
		h74.07v-49.25h51.133v49.25h74.07v-49.25h51.129v49.25h74.07v-49.25h51.027v49.25h74.07v-49.25h51.23v49.25h74.09v-49.25h51.012
		v49.25h74.07v-49.25h51.18v197.18H74.07V1539.754z"/>
	<path class="cls-1" d="M1881.59,188.984l-118.418,118.41v1266.793v74.066v44.344c0,31.609,12.32,61.348,34.699,83.738
		c22.34,22.371,52.09,34.68,83.719,34.68c31.621,0,61.379-12.32,83.719-34.68c22.383-22.359,34.691-52.109,34.691-83.738v-44.344
		v-74.066V307.395L1881.59,188.984z M1925.941,1692.59c0,11.852-4.609,23-13,31.371c-16.75,16.723-45.953,16.703-62.672,0.012
		c-8.41-8.398-13.02-19.539-13.02-31.379v-44.34h88.691V1692.59z M1837.238,338.074l44.352-44.34l44.34,44.34v1236.109h-88.68
		h-0.012V338.074z"/>
</svg>
