<svg id="Layer_1" data-name="Layer 1" xmlns="http://www.w3.org/2000/svg" viewBox="0 0 2000 2000">
    <defs>
        <style>
            .cls-1 {
                fill: #e74a3e;
            }
            
            .cls-2 {
                fill: #181818;
            }
        </style>
    </defs>	
    <title>Startup-And-New-Business</title>
	<path class="cls-2" d="M722.922,845.699h-315.25v148.379h0.004c0,37.949,14.52,75.922,43.469,104.84
		c28.969,29.02,66.93,43.48,104.898,43.48h315.23v-148.32c0-37.98-14.48-75.93-43.5-104.93
		C798.832,860.199,760.883,845.699,722.922,845.699z"/>
	<path class="cls-2" d="M1277.156,845.699c-37.918,0-75.91,14.5-104.898,43.449c-28.883,29-43.461,66.949-43.461,104.93v148.32
		h315.211c37.941,0,75.93-14.461,104.891-43.48c29.02-28.918,43.418-66.891,43.418-104.84h0.012V845.699H1277.156z"/>
	<path class="cls-2" d="M1297.395,423.941c0-164.23-133.168-297.422-297.422-297.422c-164.25,0-297.43,133.191-297.43,297.422
		c0,164.262,133.18,297.48,297.43,297.48S1297.395,588.203,1297.395,423.941z M1092.992,560.473
		c-16.228,16.066-36.602,25.935-58.516,28.668v18.898h-68.98v-18.89c-21.948-2.72-42.293-12.568-58.254-28.427
		c-19.012-19.129-29.391-44.289-29.391-70.988h68.961c0,8.359,3.25,16.25,9.18,22.211c5.801,5.75,13.68,9.012,22.02,9.012h43.871
		c8.359,0,16.301-3.27,22.301-9.211c5.672-5.762,8.969-13.699,8.969-22.012c0-8.352-3.238-16.191-9.109-22.078
		c-5.941-5.949-13.809-9.219-22.172-9.219H978c-26.801,0-51.988-10.449-70.898-29.43c-18.828-18.75-29.262-43.93-29.262-70.809
		c0-26.738,10.379-51.891,29.23-70.852c16.174-16.007,36.538-25.892,58.426-28.622v-18.874h68.98v18.886
		c21.833,2.738,42.137,12.568,58.16,28.372c19.141,19.41,29.488,44.539,29.488,71.102h-68.969c0-8.328-3.301-16.27-9.289-22.34
		c-5.73-5.641-13.66-8.961-21.988-8.961h-43.871c-8.309,0-16.191,3.289-22.219,9.262c-5.73,5.762-8.98,13.648-8.98,22.031
		c0,8.391,3.219,16.219,9.051,22.031c5.98,5.988,13.82,9.25,22.148,9.25h43.867c26.801,0,51.98,10.449,70.949,29.43
		c18.898,18.898,29.309,44.039,29.309,70.828C1122.133,516.273,1111.781,541.402,1092.992,560.473z"/>
	<path class="cls-1" d="M1523.93,1323.109c0-24.629-9.59-47.758-26.961-65.078c-17.359-17.391-40.449-26.98-64.949-26.98h-397.465
	V846.538c217.681-17.649,389.41-200.438,389.418-422.596C1423.973,190.191,1233.773,0,999.984,0
	c-233.77,0-423.961,190.191-423.961,423.941c0,222.211,171.829,405.045,389.57,422.611v384.499H568.18
	c-24.637,0-47.77,9.609-65.059,26.898c-17.477,17.371-27.078,40.512-27.078,65.16c0,24.582,9.598,47.73,26.969,65.051
	c8.913,8.947,19.338,15.814,30.691,20.401v278.38c0,55.43,21.551,107.48,60.629,146.48c30.857,30.919,69.799,50.867,112.094,57.903
	V2000h587.238h0.012v-108.67c42.345-7.032,81.259-26.979,111.984-57.85c39.242-39.129,60.852-91.168,60.852-146.539v-278.438
	c11.251-4.581,21.59-11.419,30.438-20.305C1514.359,1370.809,1523.93,1347.688,1523.93,1323.109z M644.984,423.941
	c0-195.742,159.25-354.98,355-354.98c195.762,0,355.02,159.238,355.02,354.98c0,195.77-159.25,355.039-355.02,355.039
	C804.223,778.98,644.984,619.711,644.984,423.941z M551.855,1306.781c4.34-4.352,10.129-6.75,16.328-6.75h863.84
	c6.063,0,11.82,2.41,16.211,6.809c4.359,4.34,6.738,10.121,6.738,16.281c0,6.148-2.398,11.969-6.809,16.359
	c-4.371,4.391-10.102,6.801-16.141,6.801h-863.84c-6.172,0-11.961-2.418-16.391-6.859c-4.367-4.379-6.789-10.152-6.789-16.301
	S547.395,1311.191,551.855,1306.781z M775.387,1931.039v-36.867h449.32v36.867H775.387z M1397.543,1686.93
	c0,36.91-14.398,71.598-40.68,97.789c-25.961,26.102-60.66,40.48-97.68,40.48H740.902c-36.969,0-71.688-14.41-97.809-40.559
	c-26.07-26.031-40.43-60.723-40.43-97.711V1415.23h794.879V1686.93z"/>
</svg>
