<svg id="Layer_1" data-name="Layer 1" xmlns="http://www.w3.org/2000/svg" viewBox="0 0 2000 2000">
    <defs>
        <style>
            .cls-1 {
                fill: #e74a3e;
            }
            
            .cls-2 {
                fill: #181818;
            }
        </style>
    </defs>	
    <title>Startup-And-New-Business</title>
	<path class="cls-2" d="M377.313,881.898c-54.566,0-98.828,44.242-98.828,98.801c0,54.578,44.25,98.828,98.828,98.828
		c54.539,0,98.809-44.25,98.809-98.828C476.121,926.141,431.852,881.898,377.313,881.898z"/>
	<circle class="cls-2" cx="744.801" cy="1866.699" r="98.809"/>
	<path class="cls-2" d="M1018.602,146.422c-225.609,0-408.488,182.879-408.488,408.5c0,225.559,182.879,408.469,408.488,408.469
		c225.59,0,408.539-182.91,408.539-408.469C1427.152,329.301,1244.191,146.422,1018.602,146.422z M1051.531,809.969l-65.82-20.578
		l62.508-200.012h-153.02l90.512-289.551l65.82,20.582L989.02,520.398h152.992L1051.531,809.969z"/>
	<path class="cls-1" d="M1734.32,1008.559c-44.027-76.283-146.519-108.566-293.313-94.146
		c84.905-99.941,132.555-227.599,132.555-359.502C1573.563,248.93,1324.621,0,1018.602,0C712.629,0,463.711,248.93,463.723,554.902
		c0,155.289,65.938,304.672,180.898,409.801l1.281,1.121c3.293,2.699,6.582,5.609,9.922,8.52l3.789,3.32
		c57.531,52.45,96.719,121.452,112.859,196.338c-100.923,64.03-189.016,131.645-261.655,199.235
		c-96.198-99.959-150.653-192.915-159.168-261.714c8.306,1.627,16.883,2.488,25.659,2.488c73.504,0,133.289-59.82,133.289-133.32
		S450.809,847.41,377.309,847.41C303.801,847.41,244,907.18,244,980.691c0,36.423,14.685,69.477,38.439,93.563
		c-9.165,96.434,58.044,220.784,179.428,346.929c-153.268,158.445-217.629,312.02-158.906,413.746
		c37,64.051,116.93,97.289,229.988,97.289c28.686,0,59.533-2.156,92.33-6.48c21.805,43.964,67.169,74.262,119.482,74.262
		c73.508,0,133.309-59.781,133.309-133.258c0-73.523-59.789-133.332-133.309-133.332c-70.548,0-128.459,55.116-132.986,124.565
		c-128.32,16.244-218.31-4.25-249.096-57.554c-37.814-65.496,13.175-190.475,148.459-330.723
		c91.337,85.431,206.202,170.148,337.713,246.047c186.758,107.871,379.09,181.332,541.539,206.852
		c40.938,6.43,79.02,9.621,113.949,9.621c113.031,0,193.02-33.289,229.992-97.293c58.716-101.721-5.653-255.305-158.934-413.771
		C1733.832,1257.274,1791.745,1107.996,1734.32,1008.559z M744.762,1802.371c35.48,0,64.34,28.879,64.352,64.371
		c0,35.461-28.863,64.301-64.352,64.301c-35.48,0-64.32-28.84-64.32-64.301C680.441,1831.25,709.293,1802.371,744.762,1802.371z
		 M1674.59,1043.039c39.763,68.817-16.982,193.626-148.486,329.844c-72.593-67.508-160.596-135.037-261.395-198.992
		c14.258-66.117,46.47-127.548,93.34-176.916C1520.579,963.525,1638.549,980.541,1674.59,1043.039z M849.762,1436.199v-40.539
		H1187.5v40.539H849.762z M849.762,1326.699v-40.539H1187.5v40.539H849.762z M705.441,926.148l-4.199-3.66
		c-3.59-3.16-7.168-6.289-10.699-9.23c-100.348-92.059-157.879-222.609-157.879-358.34c0-267.961,218-485.949,485.93-485.949
		c267.988,0,486,218,486,485.949c0,135.68-57.602,266.258-158.07,358.398c-3.961,3.328-7.934,6.879-11.922,10.469l-3.172,2.852
		c-82.957,75.25-133.84,179.641-142.629,290.512H848.352C839.563,1106.488,788.75,1002.102,705.441,926.148z M377.309,916.379
		c35.453,0,64.328,28.848,64.328,64.32s-28.879,64.352-64.328,64.352c-35.492,0-64.352-28.871-64.352-64.352
		S341.82,916.379,377.309,916.379z M560.179,1421.678c52.056-48.301,113.654-97.771,184.622-146.714v11.196h36v40.539h-36v68.961h36
		v40.539h-36v68.961h547.738v-68.961h-36.078v-40.539h36.078v-68.961h-36.078v-40.539h36.078v-11.179
		c70.761,48.811,132.204,98.144,184.161,146.317c-89.811,83.5-200.673,164.188-322.712,234.689
		c-45.086,25.954-90.593,49.946-135.524,71.463c-44.959-21.594-90.181-45.473-135.136-71.436
		C752.632,1580.585,644.285,1499.876,560.179,1421.678z M1674.59,1800.426c-32.621,56.539-132.32,76.25-273.5,54.039
		c-92.286-14.499-195.168-45.552-301.391-90.365c29.586-15.225,59.254-31.386,88.742-48.354
		c127.577-73.702,243.597-158.358,337.604-246.148C1661.391,1609.891,1712.407,1734.912,1674.59,1800.426z"/>
	<rect x="896.902" y="1545.801" class="cls-1" width="243.441" height="68.961"/>
</svg>
