<svg id="Layer_1" data-name="Layer 1" xmlns="http://www.w3.org/2000/svg" viewBox="0 0 2000 2000">
    <defs>
        <style>
            .cls-1 {
                fill: #e74a3e;
            }
            
            .cls-2 {
                fill: #181818;
            }
        </style>
    </defs>	
    <title>Startup-And-New-Business</title>
	<path class="cls-2" d="M1089.523,466.672h-67.121v51.5h0.004h67.121c6.891,0,13.359-2.68,18.23-7.531
		c4.859-4.898,7.578-11.391,7.578-18.25c0-6.809-2.711-13.301-7.621-18.219C1102.887,469.363,1096.426,466.672,1089.523,466.672z"/>
	<path class="cls-2" d="M1370.367,466.691h-41.461v-0.012c-6.859,0-13.289,2.68-18.16,7.531c-4.859,4.852-7.512,11.289-7.512,18.18
		v124.23c0,4,0.949,11.672,7.379,18.031c5.051,5.07,11.461,7.738,18.289,7.738h41.469c6.852,0,13.281-2.68,18.148-7.539
		c4.93-4.922,7.578-11.32,7.578-18.23V492.402c0-6.879-2.68-13.328-7.52-18.16C1383.719,469.371,1377.25,466.691,1370.367,466.691z"
		/>
	<path class="cls-2" d="M1732.555,208.809H611.625v691.48h1120.93l-124.461-345.75L1732.555,208.809z M906.484,466.719h-41.441
		v175.68h41.441v72.738h-41.441v0.063h-72.738v-0.063h-41.398v-72.738h41.398v-175.68h-41.398V394h41.398h72.738h41.441V466.719z
		 M1159.219,562.027c-18.641,18.621-43.371,28.871-69.691,28.871h-67.121v124.25h-72.738V430.32
		c0-20.09,16.281-36.359,36.359-36.359h103.5c26.371,0,51.109,10.262,69.691,28.859c18.602,18.66,28.852,43.371,28.852,69.578
		C1188.07,518.66,1177.809,543.398,1159.219,562.027z M1468.828,616.617c0,26.43-10.27,51.18-28.93,69.691
		c-18.453,18.543-43.203,28.84-69.523,28.84h-41.469c-26.301,0-51.031-10.289-69.641-28.98
		c-18.488-18.281-28.762-43.059-28.762-69.539v-124.23c0-26.371,10.25-51.102,28.859-69.641
		c18.539-18.559,43.238-28.801,69.539-28.801h41.469c26.32,0,51.051,10.238,69.629,28.828c18.559,18.57,28.828,43.301,28.828,69.602
		V616.617z"/>
	<path class="cls-1" d="M1784.285,172.449H648.004v-99.73h88.039V0h-88.039h-238.68h-88.121v72.719h88.121v1724.992H215.715V2000
		h72.738v-129.551h120.871h238.672h0.008h120.859V2000h72.723v-202.289H648.004V936.648h1136.262l-137.52-382.121L1784.285,172.449z
		 M482.047,1797.711V72.719h93.211v1724.992H482.047z M1680.797,863.91H648.004V245.172h1032.793l-111.359,309.359L1680.797,863.91z
		"/>
	<polygon class="cls-1" points="1562.547,1171.699 1644.761,1171.699 1500.746,1315.73 1384.816,1199.789 1152.977,1431.641 
		1037.023,1315.738 779.516,1573.25 830.934,1624.68 1037.023,1418.57 1152.977,1534.488 1384.816,1302.648 1500.746,1418.59 
		1696.184,1223.129 1696.184,1305.32 1768.914,1305.32 1768.914,1098.969 1562.547,1098.969 	"/>
</svg>
