<svg id="Layer_1" data-name="Layer 1" xmlns="http://www.w3.org/2000/svg" viewBox="0 0 2000 2000">
    <defs>
        <style>
            .cls-1 {
                fill: #e74a3e;
            }
            
            .cls-2 {
                fill: #181818;
            }
        </style>
    </defs>	
    <title>Startup-And-New-Business</title>
	<path class="cls-2" d="M1716.559,708.565v301.536c83.282,0,150.83-67.513,150.83-150.83
		C1867.389,776.098,1799.837,708.565,1716.559,708.565z"/>
	<rect x="671.511" y="1329.806" class="cls-2" width="98.591" height="140.901"/>
	<path class="cls-2" d="M179.983,1245.305h771.813v-771.91H179.983V1245.305z M319.403,631.193h493.008v239.434H319.403V631.193z"
		/>
	<rect x="1092.619" y="824.099" class="cls-1" width="70.399" height="70.399"/>
	<rect x="1233.52" y="824.099" class="cls-1" width="70.399" height="70.399"/>
	<rect x="1374.322" y="824.099" class="cls-1" width="70.399" height="70.399"/>
	<path class="cls-1" d="M1536.582,305.119L980.016,534.692h-27.557v70.431h41.526l542.598-223.832v956.073l-542.605-223.741
		h-41.518v70.419h27.569l556.555,229.489v108.129h215.195V197.007h-215.195V305.119z M1607.006,267.43h74.353v1183.808h-74.353
		v-8.668V276.071V267.43z"/>
	<polygon class="cls-1" points="0,1087.494 179.983,1087.494 179.983,1017.07 70.423,1017.07 70.423,701.597 179.983,701.597 
		179.983,631.174 0,631.174 	"/>
	<polygon class="cls-1" points="629.201,1732.57 502.449,1732.57 502.449,1245.266 432.019,1245.266 432.019,1802.993 
		699.632,1802.993 699.632,1245.266 629.201,1245.266 	"/>
	<rect x="1915.632" y="824.099" class="cls-1" width="84.372" height="70.399"/>
	
		<rect x="1883.487" y="944.71" transform="matrix(-0.8662 -0.4996 0.4996 -0.8662 3104.2222 2790.8628)" class="cls-1" width="84.404" height="70.397"/>
	
		<rect x="1795.175" y="1032.992" transform="matrix(-0.5006 -0.8657 0.8657 -0.5006 1832.4841 3193.5361)" class="cls-1" width="84.464" height="70.404"/>
	
		<rect x="1883.277" y="703.529" transform="matrix(-0.866 0.5 -0.5 -0.866 3962.3545 415.7205)" class="cls-1" width="84.406" height="70.398"/>
	
		<rect x="1802.015" y="608.235" transform="matrix(0.8656 0.5008 -0.5008 0.8656 572.7159 -832.6128)" class="cls-1" width="70.405" height="84.446"/>
</svg>
