<svg id="Layer_1" data-name="Layer 1" xmlns="http://www.w3.org/2000/svg" viewBox="0 0 2000 2000">
    <defs>
        <style>
            .cls-1 {
                fill: #e74a3e;
            }
            
            .cls-2 {
                fill: #181818;
            }
        </style>
    </defs>	
    <title>Startup-And-New-Business</title>
	<path class="cls-2" d="M1235.176,631.648c-166.621-166.629-436.863-166.699-603.5,0c-166.641,166.59-166.66,436.891,0,603.5
	c166.582,166.641,436.934,166.66,603.512,0C1401.887,1068.508,1401.824,798.238,1235.176,631.648z M871.691,881.047
	c8.969,8.98,20.73,13.891,33.238,13.891l56.91-0.012c0.031,0,0.07,0,0.078,0c33.129,0,64.23,12.91,87.621,36.371
	c23.34,23.391,36.18,54.461,36.109,87.512c0.031,32.602-12.699,63.66-35.871,87.289c-21.451,21.261-48.735,33.734-77.949,36.016
	v30.27h-76.922v-30.273c-29.172-2.288-56.376-14.727-77.453-35.648c-23.461-23.648-36.281-54.738-36.281-87.73h76.922
	c0,12.578,4.891,24.391,13.75,33.34c8.711,8.641,20.488,13.52,32.93,13.52c0.012,0,0.031,0,0.07,0h57.02c0.031,0,0.07,0,0.102,0
	c12.539,0,24.328-4.871,33.281-13.738c8.57-8.719,13.48-20.609,13.48-33.051c0.02-12.602-4.82-24.328-13.648-33.172
	c-8.871-8.879-20.629-13.77-33.16-13.77c-0.012,0-0.012,0-0.012,0l-57,0.012c-33.121-0.031-64.191-12.949-87.559-36.352
	c-23.309-23.191-36.18-54.289-36.16-87.531c0.02-32.961,12.82-64.059,36.07-87.5c21.411-21.105,48.598-33.558,77.648-35.878v-30.212
	h76.922V724.6c29.043,2.291,56.257,14.713,77.465,35.576c23.59,24.012,36.352,55.031,36.391,87.801l-76.93,0.102
	c-0.02-12.539-4.961-24.449-13.879-33.551c-8.641-8.488-20.488-13.41-32.898-13.41c-0.012,0-0.031,0-0.051,0h-57.031h-0.031
	c-12.23,0-24.359,5.039-33.289,13.84c-8.551,8.621-13.441,20.469-13.461,33.09C858.113,860.625,862.934,872.336,871.691,881.047z"/>
	
		<rect x="457.078" y="499.616" transform="matrix(-0.7072 -0.707 0.707 -0.7072 538.3257 1299.0856)" class="cls-1" width="162.158" height="76.917"/>
	
		<rect x="457.369" y="1230.134" transform="matrix(-0.7073 -0.7069 0.7069 -0.7073 -122.6721 2691.2705)" class="cls-1" width="76.898" height="281.794"/>
	
		<rect x="1217.735" y="1362.708" transform="matrix(0.7071 0.7071 -0.7071 0.7071 1401.1807 -580.4253)" class="cls-1" width="366.985" height="76.917"/>
	
		<rect x="1332.532" y="355.091" transform="matrix(0.707 0.7072 -0.7072 0.707 752.391 -824.2872)" class="cls-1" width="76.928" height="281.595"/>
	<path class="cls-1" d="M323.844,490.32h0.02c44.449,0,86.262-17.32,117.672-48.762c31.48-31.418,48.789-73.23,48.789-117.719
		c0.02-44.469-17.301-86.277-48.75-117.73s-73.262-48.762-117.73-48.762s-86.281,17.313-117.73,48.762
		c-31.441,31.449-48.75,73.262-48.75,117.73c0,44.492,17.309,86.281,48.75,117.711C237.563,473.012,279.375,490.32,323.844,490.32z
		 M260.504,260.492c16.93-16.91,39.43-26.23,63.34-26.23c23.941,0,46.422,9.328,63.34,26.242c16.922,16.91,26.23,39.41,26.23,63.34
		c0,23.918-9.313,46.398-26.262,63.328c-16.898,16.91-39.379,26.23-63.289,26.23c-23.93,0-46.43-9.34-63.359-26.25
		c-16.922-16.91-26.23-39.391-26.23-63.32S243.594,277.402,260.504,260.492z"/>
	<path class="cls-1" d="M209.184,1448.473c-55.871,0-108.398,21.762-147.91,61.25c-81.551,81.547-81.57,214.238,0,295.809
		c39.5,39.488,92.02,61.25,147.91,61.25c55.879,0,108.402-21.762,147.898-61.27c81.551-81.551,81.551-214.238,0-295.789
		C317.582,1470.234,265.063,1448.473,209.184,1448.473z M302.695,1751.133c-24.98,24.969-58.191,38.719-93.512,38.719
		c-35.348,0-68.551-13.75-93.52-38.719c-51.559-51.57-51.559-135.473,0-187.012c24.969-24.961,58.168-38.73,93.52-38.73
		c35.32,0,68.531,13.75,93.512,38.723C354.254,1615.664,354.254,1699.563,302.695,1751.133z"/>
	<path class="cls-1" d="M1657.656,418.309c0,0,0,0,0.02,0c55.84,0,108.359-21.738,147.879-61.238
		c39.512-39.512,61.262-92.051,61.262-147.922c0-55.879-21.75-108.41-61.262-147.898C1766.031,21.75,1713.512,0,1657.633,0
		c-55.859,0-108.379,21.75-147.855,61.25c-39.539,39.488-61.313,92.02-61.301,147.93c0,55.871,21.77,108.402,61.289,147.891
		C1549.258,396.57,1601.777,418.309,1657.656,418.309z M1564.121,115.641c24.992-24.969,58.184-38.719,93.512-38.719
		c35.332,0,68.543,13.75,93.531,38.742c24.969,24.957,38.719,58.168,38.719,93.488c0,35.348-13.738,68.551-38.719,93.52
		c-24.973,24.969-58.172,38.719-93.512,38.719s-68.543-13.75-93.531-38.719c-24.98-24.973-38.73-58.184-38.73-93.512
		S1539.141,140.621,1564.121,115.641z"/>
	<path class="cls-1" d="M1926.262,1570.086c-47.57-47.547-110.82-73.738-178.059-73.738c-67.293,0-130.52,26.191-178.121,73.762
		c-98.172,98.219-98.172,257.969,0.02,356.129c47.543,47.57,110.801,73.762,178.102,73.762c67.262,0,130.512-26.211,178.059-73.766
		C2024.434,1828.074,2024.441,1668.324,1926.262,1570.086z M1871.883,1871.852c-33.051,33.039-76.949,51.219-123.68,51.219
		c-46.762,0-90.672-18.18-123.711-51.219c-68.211-68.18-68.191-179.148,0-247.34c33.039-33.059,76.973-51.25,123.711-51.25
		c46.711,0,90.641,18.199,123.668,51.23C1940.063,1692.703,1940.063,1803.672,1871.883,1871.852z"/>
	<path class="cls-1" d="M470.496,1171.801c-10.781-20.969-20.23-42.918-28.09-65.238l-72.57,25.539
		c9.02,25.598,19.867,50.801,32.238,74.879L470.496,1171.801z"/>
	<path class="cls-1" d="M348.105,1053.512l75.371-15.426c-4.738-23.133-7.918-46.82-9.488-70.422l-76.762,5.078
		C339.016,999.801,342.684,1027,348.105,1053.512z"/>
	<path class="cls-1" d="M423.855,826.25l-75.301-15.738c-5.527,26.527-9.301,53.68-11.199,80.738l76.75,5.359
		C415.766,873.031,419.023,849.34,423.855,826.25z"/>
	<path class="cls-1" d="M403.375,657.309c-12.551,24.063-23.551,49.172-32.68,74.711l72.43,25.922
		c7.949-22.23,17.52-44.121,28.441-65.043L403.375,657.309z"/>
	<path class="cls-1" d="M1106.625,1424.41l25.52,72.57c25.621-9.031,50.813-19.879,74.891-32.25l-35.199-68.398
		C1150.887,1407.102,1128.945,1416.57,1106.625,1424.41z"/>
	<path class="cls-1" d="M967.695,1452.84l5.078,76.75c27.059-1.801,54.25-5.461,80.77-10.891l-15.426-75.359
		C1014.965,1448.07,991.273,1451.27,967.695,1452.84z"/>
	<path class="cls-1" d="M810.566,1518.262c26.508,5.527,53.68,9.301,80.738,11.199l5.359-76.75
		c-23.609-1.652-47.281-4.922-70.379-9.738L810.566,1518.262z"/>
	<path class="cls-1" d="M657.363,1463.441c24.039,12.551,49.172,23.539,74.711,32.68l25.922-72.441
		c-22.242-7.949-44.133-17.508-65.063-28.449L657.363,1463.441z"/>
	<path class="cls-1" d="M1497.012,734.688c-9.008-25.637-19.859-50.828-32.238-74.898l-68.391,35.199
		c10.77,20.938,20.219,42.898,28.059,65.219L1497.012,734.688z"/>
	<path class="cls-1" d="M1518.754,813.27l-75.359,15.43c4.73,23.133,7.93,46.844,9.48,70.422l76.77-5.102
		C1527.844,866.969,1524.164,839.809,1518.754,813.27z"/>
	<path class="cls-1" d="M1529.484,975.5l-76.73-5.34c-1.641,23.59-4.918,47.25-9.738,70.383l75.289,15.719
		C1523.844,1029.75,1527.605,1002.57,1529.484,975.5z"/>
	<path class="cls-1" d="M1463.484,1209.461c12.543-24.039,23.551-49.191,32.672-74.711l-72.422-25.922
		c-7.949,22.23-17.52,44.113-28.441,65.055L1463.484,1209.461z"/>
	<path class="cls-1" d="M659.813,402.059l35.199,68.379c20.949-10.777,42.898-20.23,65.219-28.059l-25.52-72.559
		C709.094,378.82,683.902,389.668,659.813,402.059z"/>
	<path class="cls-1" d="M813.313,348.07l15.406,75.375c23.152-4.742,46.844-7.941,70.422-9.512l-5.078-76.762
		C867.012,338.98,839.832,342.648,813.313,348.07z"/>
	<path class="cls-1" d="M970.215,414.07c23.578,1.641,47.25,4.918,70.371,9.73l15.719-75.301
		c-26.512-5.531-53.672-9.281-80.75-11.16L970.215,414.07z"/>
	<path class="cls-1" d="M1108.895,443.078c22.219,7.953,44.102,17.523,65.031,28.441l35.59-68.18
		c-24.051-12.563-49.191-23.57-74.711-32.691L1108.895,443.078z"/>
</svg>
