<svg id="Layer_1" data-name="Layer 1" xmlns="http://www.w3.org/2000/svg" viewBox="0 0 2000 2000">
    <defs>
        <style>
            .cls-1 {
                fill: #e74a3e;
            }
            
            .cls-2 {
                fill: #181818;
            }
        </style>
    </defs>	
    <title>Startup-And-New-Business</title>
	<path class="cls-2" d="M341.773,854.031h512.563V341.32H708.555l16.57-16.57c-181.441,73.988-326.301,218.91-400.211,400.391
		l16.859-16.879V854.031z"/>
	<path class="cls-2" d="M1658.234,708.281l17.23,17.25c-73.852-181.672-218.789-326.738-400.328-400.781l16.539,16.57h-145.781
		v512.711h512.34V708.281z"/>
	<path class="cls-2" d="M1658.234,1145.609h-512.34v513.102h145.77l-15.961,15.988c181.301-74.109,325.969-219.031,399.75-400.5
		l-17.219,17.211V1145.609z"/>
	<path class="cls-2" d="M341.773,1291.391l-16.859-16.879c73.828,181.289,218.43,326.07,399.57,400.148l-15.938-15.961h145.801
		v-513.098H341.773V1291.391z"/>
	<path class="cls-1" d="M1999.52,999.852L1623.051,623.34v195.5h-441.988V376.488h195.531L1000.113,0l-376.48,376.488h195.52
		V818.84H376.953V623.32L0.477,999.828l376.477,376.5v-195.539h442.203v442.73H623.605l376.5,376.48l376.492-376.488h-195.531
		v-442.73h441.984v195.551L1999.52,999.852z M1110.715,1110.422v583.457h96.012l-206.621,206.641l-206.629-206.641h96.039v-583.461
		H306.594v96.051L99.953,999.828l206.641-206.641v96.012h582.918V306.141h-96.039l206.641-206.648l206.641,206.648h-96.039v583.059
		h582.699v-96l206.641,206.641l-206.641,206.641v-96.059H1110.715z"/>
	<rect x="964.906" y="817.602" class="cls-1" width="70.398" height="72.891"/>
	<rect x="964.906" y="671.801" class="cls-1" width="70.398" height="72.898"/>
	<rect x="964.906" y="526.031" class="cls-1" width="70.398" height="72.898"/>
	<rect x="964.906" y="1109.199" class="cls-1" width="70.398" height="72.891"/>
	<rect x="964.906" y="1254.898" class="cls-1" width="70.398" height="72.941"/>
	<rect x="964.906" y="1400.699" class="cls-1" width="70.398" height="72.879"/>
	<rect x="817.906" y="964.699" class="cls-1" width="72.871" height="70.398"/>
	<rect x="672.105" y="964.699" class="cls-1" width="72.898" height="70.398"/>
	<rect x="526.316" y="964.699" class="cls-1" width="72.898" height="70.398"/>
	<rect x="1109.504" y="964.699" class="cls-1" width="72.898" height="70.398"/>
	<rect x="1255.203" y="964.699" class="cls-1" width="72.91" height="70.398"/>
	<rect x="1401.004" y="964.699" class="cls-1" width="72.91" height="70.398"/>
</svg>
