<svg id="Layer_1" data-name="Layer 1" xmlns="http://www.w3.org/2000/svg" viewBox="0 0 2000 2000">
    <defs>
        <style>
            .cls-1 {
                fill: #e74a3e;
            }
            
            .cls-2 {
                fill: #181818;
            }
        </style>
    </defs>	
    <title>Startup-And-New-Business</title>
	<polygon class="cls-2" points="999.996,1273.359 678.555,1487.711 413.734,1311.109 413.734,1566.672 999.996,1957.539 
		1586.246,1566.672 1586.246,1311.109 1321.406,1487.711 	"/>
	<polygon class="cls-2" points="999.996,491.641 413.734,882.551 999.996,1273.359 1586.246,882.551 	"/>
	<path class="cls-1" d="M1971.445,1096.695l-321.451-214.104l321.439-214.361L1321.375,235l-213.25,141.98l39.16,58.82
		l174.059-115.902l522.703,348.34l-257.75,171.902l-439.012-292.762l-39.191,58.801l414.469,276.389L1352.7,995.797
		l-352.716,235.031l-522.52-348.227l414.34-276.281l-0.065-0.098l0.065-0.043l-39.199-58.801L413.664,840.141l-257.73-171.902
		l522.633-348.316l174.039,116l39.199-58.762L678.566,235L28.574,668.23l321.384,214.351l-321.403,214.11l349.84,233.327v255.552
		L999.996,2000l621.57-414.43v-255.56L1971.445,1096.695z M1321.395,1445.25l-257.719-171.878l0.02-0.013l-0.02-0.013
		l231.397-154.243l291.21-194.042l0.014,0.009l0.022-0.015l257.716,171.656L1321.395,1445.25z M413.633,925.049l0.031,0.021
		l0.051-0.034l522.578,348.331l-257.809,171.891l-522.551-348.539L413.633,925.049z M449.055,1377.146l229.441,153.026
		l286.199-190.81v552.191l-515.641-343.792V1377.146z M1550.926,1547.762l-515.629,343.792v-552.206l286.109,190.824l229.52-153.055
		V1547.762z"/>
	<polygon class="cls-1" points="964.695,135.203 964.695,775.063 1035.297,775.063 1035.297,135.2 1116.516,216.422 
		1166.477,166.461 999.996,0 833.535,166.461 883.484,216.422 	"/>
</svg>
