<svg id="Layer_1" data-name="Layer 1" xmlns="http://www.w3.org/2000/svg" viewBox="0 0 2000 2000">
    <defs>
        <style>
            .cls-1 {
                fill: #e74a3e;
            }
            
            .cls-2 {
                fill: #181818;
            }
        </style>
    </defs>	
    <title>Startup-And-New-Business</title>
	<path class="cls-2" d="M1217.281,1778.602h-434.57c-37.051,0-74.152,14.141-102.422,42.43
		c-28.27,28.281-42.43,65.363-42.43,102.422v28.961h724.281v-28.961c0-37.063-14.148-74.141-42.43-102.422
		C1291.43,1792.742,1254.371,1778.602,1217.281,1778.602z"/>
	<polygon class="cls-2" points="891.359,613.926 210.539,613.926 51.199,773.266 210.539,932.594 891.359,932.594 	"/>
	<polygon class="cls-2" points="1108.629,932.594 1108.629,1251.273 1789.461,1251.273 1948.789,1091.934 1789.461,932.594 	"/>
	<path class="cls-2" d="M1948.789,454.574l-159.328-159.34h-680.832v318.691h680.832L1948.789,454.574z M1340.422,490.793H1268
		v-72.43h72.422V490.793z M1485.223,490.793h-72.422v-72.43h72.422V490.793z M1630.121,490.793h-72.422v-72.43h72.422V490.793z"/>
	<path class="cls-1" d="M1144.855,896.375V650.137h659.586L2000,454.574l-195.559-195.551h-659.586v-66.59
	c0-38.684-15.07-75.051-42.43-102.422c-27.363-27.371-63.742-42.43-102.422-42.43c-38.691,0-75.082,15.07-102.422,42.43
	c-27.371,27.352-42.43,63.723-42.43,102.422v385.281H195.559L0,773.266l195.559,195.551h659.594v773.566h-72.445
	c-48.359,0-93.828,18.82-128.039,53.039c-34.199,34.211-53.02,79.68-53.02,128.031v28.961h72.422v-28.961
	c0-29.02,11.309-56.309,31.82-76.82c20.52-20.52,47.801-31.828,76.82-31.828h72.441h289.699h0.004h72.414
	c29.031,0,56.301,11.309,76.82,31.828c20.531,20.512,31.84,47.809,31.84,76.82v28.961h72.422h0.004v-28.961
	c0-48.352-18.84-93.82-53.039-128.051c-34.219-34.199-79.68-53.02-128.039-53.02h-72.422v-454.898h659.586L2000,1091.934
	l-195.559-195.559H1144.855z M855.148,896.375H225.539L102.41,773.266l123.129-123.129h629.609V896.375z M1774.461,331.457
	l123.129,123.129l-123.129,123.129h-629.605V331.457H1774.461z M1072.422,1742.383H927.57V968.816h0.008V577.715h-0.008V192.434
	c0-19.332,7.531-37.531,21.23-51.211c13.668-13.68,31.84-21.211,51.199-21.211c19.352,0,37.551,7.531,51.23,21.211
	c13.66,13.672,21.191,31.883,21.191,51.211v66.59v391.113v246.238v391.109V1742.383z M1774.461,1215.066h-629.605v-246.25h629.605
	l123.129,123.121L1774.461,1215.066z"/>
</svg>
