<svg id="Layer_1" data-name="Layer 1" xmlns="http://www.w3.org/2000/svg" viewBox="0 0 2000 2000">
    <defs>
        <style>
            .cls-1 {
                fill: #e74a3e;
            }
            
            .cls-2 {
                fill: #181818;
            }
        </style>
    </defs>	
    <title>Startup-And-New-Business</title>
	<path class="cls-2" d="M1541.465,1044.699c-31.289,261.191-253.512,463.75-523.078,463.75
		c-122.711,0-235.551-42.09-325.129-112.43l-224.52,224.531c147.59,127.078,339.578,204.082,549.641,204.082
		c444.359,0,808.191-343.828,840.551-779.93L1541.465,1044.699z"/>
	<path class="cls-2" d="M491.426,981.461c-0.012-269.609,202.539-491.813,463.73-523.07v-317.5
		c-436.102,32.371-779.93,396.211-779.93,840.57c0,210.059,77,402.031,204.078,549.66l224.551-224.551
		C533.496,1217.012,491.426,1104.191,491.426,981.461z"/>
	<path class="cls-1" d="M324.156,1727.078c17.609,16.422,36.07,32.461,54.949,47.672l44.109-54.684
		c-17.547-14.168-34.77-29.109-51.148-44.379L324.156,1727.078z"/>
	<path class="cls-1" d="M437.242,1818.379c19.793,13.762,40.371,27.02,61.191,39.391l35.91-60.418
		c-19.391-11.5-38.539-23.832-56.93-36.641L437.242,1818.379z"/>
	<path class="cls-1" d="M562.234,1892.688c21.621,10.82,43.879,21.012,66.18,30.281l26.922-64.91
		c-20.762-8.609-41.48-18.078-61.602-28.18L562.234,1892.688z"/>
	<path class="cls-1" d="M837.465,1984.27c23.59,4.23,47.832,7.691,71.98,10.27l7.453-69.879
		c-22.512-2.379-45.043-5.609-67.012-9.57L837.465,1984.27z"/>
	<path class="cls-1" d="M202.535,1465.59l-60.379,35.922c12.309,20.711,25.57,41.27,39.359,61.109l57.668-40.121
		C226.336,1504.039,213.996,1484.879,202.535,1465.59z"/>
	<path class="cls-1" d="M75.207,1083.277l-69.852,7.461c2.559,24.039,6.027,48.262,10.289,71.98l69.152-12.43
		C80.828,1128.207,77.605,1105.656,75.207,1083.277z"/>
	<path class="cls-1" d="M696.605,1948.391c22.949,7.648,46.438,14.52,69.789,20.469l17.363-68.098
		c-21.75-5.52-43.59-11.941-64.961-19.031L696.605,1948.391z"/>
	<path class="cls-1" d="M141.906,1344.727l-64.91,26.891c9.199,22.211,19.391,44.473,30.25,66.121l62.789-31.512
		C159.938,1386.078,150.457,1365.387,141.906,1344.727z"/>
	<path class="cls-1" d="M279.797,1576.633l-54.68,44.141c15.129,18.75,31.168,37.219,47.629,54.898l51.43-47.859
		C308.816,1611.324,293.887,1594.121,279.797,1576.633z"/>
	<path class="cls-1" d="M99.145,1216.461l-68.078,17.352c5.98,23.43,12.859,46.918,20.5,69.789l66.648-22.219
		C111.125,1260.109,104.715,1238.27,99.145,1216.461z"/>
	<rect x="984.805" y="1929.699" class="cls-1" width="70.301" height="70.301"/>
	<rect x="0.145" y="945.102" class="cls-1" width="70.301" height="70.301"/>
	<path class="cls-1" d="M1486.258,116.5l-351.199,351.199c26.129,5.898,51.539,13.648,76.051,23.309l337.688-337.719
		C1528.488,140.25,1507.578,128.059,1486.258,116.5z"/>
	<path class="cls-1" d="M1081.617,446.801l355.328-355.34c-22.77-10.73-46.109-20.551-69.789-29.531l-285.539,285.5V446.801z"/>
	<path class="cls-1" d="M1688.387,261.762L1365.176,584.98c17.648,15.461,34.27,32.051,49.68,49.68l323.25-323.211
		C1722.137,294.289,1705.547,277.73,1688.387,261.762z"/>
	<path class="cls-1" d="M1592.953,183.5l-330.871,330.871c21.43,11.219,42.039,23.801,61.609,37.73l325.313-325.293
		C1630.902,211.668,1612.113,197.328,1592.953,183.5z"/>
	<path class="cls-1" d="M1081.625,0v99.371l89.52-89.52C1141.727,5.238,1111.875,1.922,1081.625,0z"/>
	<path class="cls-1" d="M1233.477,21.859l-151.863,151.852v99.371l230.344-230.344
		C1286.227,34.688,1260.047,27.777,1233.477,21.859z"/>
	<path class="cls-1" d="M1990.016,828.688l-89.512,89.531h99.352C1997.934,887.98,1994.625,858.141,1990.016,828.688z"/>
	<path class="cls-1" d="M1773.047,350.84l-325.301,325.301c13.941,19.602,26.531,40.199,37.73,61.648l330.879-330.91
		C1802.527,387.719,1788.207,368.957,1773.047,350.84z"/>
	<path class="cls-1" d="M1957.125,687.883l-230.34,230.34h99.371l151.867-151.871
		C1972.082,739.793,1965.172,713.613,1957.125,687.883z"/>
	<path class="cls-1" d="M1908.402,562.891L1553.07,918.219h99.371l285.492-285.5C1928.945,609,1919.133,585.699,1908.402,562.891z"
		/>
	<path class="cls-1" d="M1846.535,451.051l-337.68,337.711c9.629,24.48,17.379,49.922,23.27,76.051l351.219-351.211
		C1871.793,492.281,1859.605,471.363,1846.535,451.051z"/>
	<path class="cls-1" d="M1056.063,946.324h-75.34c-20.738,0-40.309-8.109-55.078-22.871
		c-14.641-14.559-22.699-34.109-22.699-54.969c0-20.75,8.109-40.371,22.52-54.891c15.039-14.809,34.672-22.949,55.25-22.949h75.34
		c20.512,0,40.141,8.16,54.891,22.629c14.789,14.922,22.93,34.539,22.93,55.211h70.262c0-39.32-15.371-76.492-43.621-105.012
		c-28.313-27.789-65.422-43.078-104.461-43.078h-2.551v-55.094h-70.301v55.094h-2.488c-39.141,0-76.25,15.301-104.84,43.43
		c-27.859,28.09-43.199,65.262-43.199,104.66c0,39.691,15.41,76.871,43.34,104.73c28.027,27.961,65.211,43.359,104.699,43.359h75.34
		c20.691,0,40.25,8.133,55.07,22.922c14.672,14.582,22.75,34.094,22.75,54.922c0,20.672-8.168,40.27-22.668,54.941
		c-14.84,14.641-34.422,22.711-55.16,22.711h-75.34c-20.801,0-40.391-8.051-54.941-22.441c-14.73-14.871-22.84-34.473-22.84-55.211
		h-70.262c0,39.387,15.34,76.559,43.43,104.898c28.023,27.75,65.18,43.012,104.602,43.012h2.508v55.27h70.301v-55.27h2.531
		c39.34,0,76.48-15.258,104.848-43.254c27.898-28.168,43.27-65.328,43.27-104.648c0-39.66-15.422-76.852-43.441-104.73
		C1132.633,961.734,1095.461,946.324,1056.063,946.324z"/>
</svg>
