<svg id="Layer_1" data-name="Layer 1" xmlns="http://www.w3.org/2000/svg" viewBox="0 0 2000 2000">
    <defs>
        <style>
            .cls-1 {
                fill: #e74a3e;
            }
            
            .cls-2 {
                fill: #181818;
            }
        </style>
    </defs>	
    <title>Startup-And-New-Business</title>
	<path class="cls-2" d="M842.514,387.803h314.974c-35.681-117.748-89.15-227.8-157.46-326.833
		C931.675,160.002,878.264,270.051,842.514,387.803z"/>
	<rect x="1589.404" y="1575.325" class="cls-2" width="182.721" height="182.765"/>
	<rect x="227.894" y="1575.325" class="cls-2" width="182.702" height="182.765"/>
	<path class="cls-2" d="M999.984,577.087c-54.071,0-97.924,43.853-97.924,97.924c0,54.028,43.853,97.899,97.924,97.899
		c54.044,0,97.873-43.867,97.873-97.899C1097.857,620.939,1054.028,577.087,999.984,577.087z"/>
	<path class="cls-1" d="M1769.855,1303.478c-23.77-23.821-55.418-36.95-89.13-36.95c-33.673,0-65.29,13.121-89.001,36.892
		c-23.821,23.77-36.95,55.442-36.95,89.161v7.923c-174.312-25.049-311.005-237.21-311.942-494.845V730.379
		c0-247.531-74.099-485.816-214.293-689.07L1000.027,0l-28.492,41.313c-140.241,203.261-214.363,441.535-214.363,689.07V902.99
		h-0.008c0,258.828-137.041,472.361-311.95,497.507v-7.917c0-33.688-13.098-65.36-36.86-89.13
		c-23.828-23.794-55.469-36.923-89.13-36.923c-33.649,0-65.302,13.121-89.13,36.923c-23.758,23.77-36.829,55.438-36.829,89.13
		v400.159h251.949v-75.81l326.503-60.004l63.245,135.813h330.146l63.168-135.813l326.498,60.003v75.81h251.961V1392.58
		C1806.735,1358.857,1793.617,1327.188,1769.855,1303.478z M262.504,1723.496v-330.904c0-15.223,5.879-29.473,16.551-40.172
		c10.73-10.73,25.012-16.642,40.161-16.642c15.172,0,29.442,5.911,40.173,16.642c10.688,10.711,16.578,24.961,16.578,40.172v10.387
		v320.518H262.516H262.504z M826.431,730.383c0-216.035,59.853-424.577,173.604-606.381
		c113.682,181.796,173.542,390.338,173.542,606.381v172.611h-0.008v680.39H826.431V730.383z M445.218,1470.262
		c130.1-14.739,243.402-111.861,311.954-253.031v371.936l-311.954,57.328V1470.262z M879.104,1723.496l-33.013-70.861h307.81
		l-32.953,70.861H879.104z M1554.767,1646.494l-311.935-57.326v-371.926c68.525,141.188,181.838,238.27,311.935,253.02V1646.494z
		 M1737.469,1723.496h-113.443v-320.514v-10.395c0-15.219,5.898-29.469,16.66-40.199c10.668-10.699,24.891-16.61,40.04-16.61
		c15.191,0,29.441,5.911,40.173,16.673c10.691,10.68,16.57,24.93,16.57,40.141V1723.496z"/>
	<path class="cls-1" d="M999.996,542.47c-73.071,0-132.541,59.462-132.541,132.541c0,73.071,59.47,132.521,132.541,132.521
		c73.079,0,132.51-59.45,132.514-132.521C1132.51,601.932,1073.075,542.47,999.996,542.47z M999.996,738.273
		c-34.898,0-63.29-28.392-63.29-63.263c0-34.911,28.391-63.29,63.29-63.29c34.871,0,63.239,28.379,63.251,63.29
		C1063.247,709.894,1034.875,738.273,999.996,738.273z"/>
	<rect x="1030.695" y="1843.33" class="cls-1" width="69.252" height="156.674"/>
	<rect x="900.092" y="1843.33" class="cls-1" width="69.252" height="156.674"/>
	<rect x="1646.104" y="1843.33" class="cls-1" width="69.264" height="156.674"/>
	<rect x="284.594" y="1843.33" class="cls-1" width="69.251" height="156.674"/>
	<rect x="965.395" y="979.715" class="cls-1" width="69.25" height="69.239"/>
	<rect x="965.395" y="1100.518" class="cls-1" width="69.25" height="69.251"/>
	<rect x="965.395" y="1221.219" class="cls-1" width="69.25" height="69.251"/>
	<rect x="965.395" y="1341.92" class="cls-1" width="69.25" height="69.251"/>
</svg>
