<svg id="Layer_1" data-name="Layer 1" xmlns="http://www.w3.org/2000/svg" viewBox="0 0 2000 2000">
    <defs>
        <style>
            .cls-1 {
                fill: #e74a3e;
            }
            
            .cls-2 {
                fill: #181818;
            }
        </style>
    </defs>	
    <title>Startup-And-New-Business</title>
	<path class="cls-2" d="M1475.625,36.031H135.227v576.512h1340.398V36.031z M567.617,468.461H279.355V180.199h288.262V468.461z"/>
	<path class="cls-2" d="M754.996,1315.398v648.57h1109.801v-648.57H754.996z M1223.355,1783.852H935.094v-288.25h288.262V1783.852z
		"/>
	<rect x="135.227" y="1495.602" class="cls-2" width="432.398" height="288.25"/>
	<polygon class="cls-2" points="1864.766,130.148 1785.594,50.969 1706.426,130.148 1706.426,951.25 1864.766,951.25 	"/>
	<polygon class="cls-1" points="171.254,72.07 1439.586,72.07 1439.586,1185.672 1511.645,1185.672 1511.645,0 99.195,0 
		99.195,1185.672 171.254,1185.672 	"/>
	<rect x="783.797" y="180.199" class="cls-1" width="547.691" height="72.059"/>
	<rect x="783.797" y="324.289" class="cls-1" width="331.5" height="72.07"/>
	<rect x="387.453" y="288.262" class="cls-1" width="72.07" height="72.07"/>
	<rect x="1043.195" y="1603.699" class="cls-1" width="72.059" height="72.059"/>
	<path class="cls-1" d="M718.945,1711.801H603.645v-432.43H99.195V2000h504.449v-216.141h115.301V2000h1181.852v-720.629H718.945
		V1711.801z M531.574,1927.941h-360.32V1351.43h360.32V1927.941z M791.016,1351.43h1037.719v576.512H791.016V1351.43z"/>
	<rect x="1331.496" y="1495.602" class="cls-1" width="353.102" height="72.059"/>
	<rect x="1331.496" y="1639.699" class="cls-1" width="225.719" height="72.07"/>
	<rect x="315.387" y="1603.699" class="cls-1" width="72.07" height="72.059"/>
	<path class="cls-1" d="M1785.594,0l-115.207,115.23v799.98h-0.004v155.25c0,30.77,11.988,59.699,33.75,81.461
		c21.77,21.762,50.691,33.75,81.461,33.75s59.68-11.992,81.43-33.73c21.781-21.742,33.77-50.68,33.77-81.48v-83.18h0.004h0.008
		V115.23L1785.594,0z M1742.453,145.07l43.141-43.141l43.141,43.141v770.141h-86.281V145.07z M1828.742,1070.461
		c0,11.531-4.5,22.371-12.648,30.52c-16.301,16.301-44.699,16.301-61,0c-8.16-8.16-12.648-19-12.648-30.52v-83.18h86.297V1070.461z"
		/>
	<rect x="643.797" y="909.91" class="cls-1" width="72.07" height="72.09"/>
	<rect x="769.387" y="909.91" class="cls-1" width="72.07" height="72.078"/>
	<rect x="894.996" y="909.91" class="cls-1" width="72.07" height="72.078"/>
</svg>
