<svg id="Layer_1" data-name="Layer 1" xmlns="http://www.w3.org/2000/svg" viewBox="0 0 2000 2000">
    <defs>
        <style>
            .cls-1 {
                fill: #e74a3e;
            }
            
            .cls-2 {
                fill: #181818;
            }
        </style>
    </defs>	
    <title>Startup-And-New-Business</title>
	<path class="cls-2" d="M999.996,36.56c-484.639,0-877.529,392.887-877.529,877.536c0,484.639,392.886,877.529,877.529,877.529
		s877.525-392.887,877.525-877.529C1877.521,429.45,1484.635,36.56,999.996,36.56z M999.996,1535.671
		c-343.288,0-621.57-278.307-621.57-621.571c0-343.288,278.294-621.59,621.57-621.59c343.296,0,621.602,278.306,621.602,621.59
		C1621.586,1257.364,1343.28,1535.671,999.996,1535.671z"/>
	<path class="cls-2" d="M999.996,694.725c-121.154,0-219.375,98.221-219.375,219.383c0,121.163,98.225,219.384,219.375,219.384
		c121.189,0,219.383-98.221,219.383-219.384C1219.379,792.938,1121.178,694.713,999.996,694.725z"/>
	<path class="cls-1" d="M1914.092,914.107c0-238.919-92.146-456.713-242.749-619.739l36.594-36.594h204.315v-73.122h-131.193
		L1890.33,75.381l-51.688-51.688l-109.215,109.215V1.84h-73.118v204.186l-36.657,36.657C1456.636,92.118,1238.873,0,999.996,0
		C495.967,0,85.896,410.066,85.908,914.1c0,324.6,170.084,610.216,425.799,772.442l-159.89,276.929l63.331,36.564l159.819-276.806
		c127.046,67.009,271.688,104.967,425.028,104.967c153.314,0,297.934-37.945,424.965-104.933l159.805,276.78l63.338-36.569
		l-159.872-276.897C1743.977,1524.358,1914.087,1238.729,1914.092,914.107z M159.03,914.107
		c0-463.728,377.246-840.965,840.966-840.965c218.715,0,418.188,83.935,567.923,221.274L974.063,888.271l51.688,51.688
		l261.13-261.13l0.026,0.026l72.38-72.379l-0.026-0.026l260.35-260.35c137.384,149.743,221.352,349.248,221.352,568.007
		c0,463.721-377.245,840.966-840.966,840.966C536.276,1755.073,159.03,1377.836,159.03,914.107z"/>
	<rect x="963.394" y="442.407" class="cls-1" width="73.131" height="102.381"/>
	
		<rect x="787.931" y="489.042" transform="matrix(-0.3828 -0.9238 0.9238 -0.3828 674.7845 1502.0101)" class="cls-1" width="102.386" height="73.117"/>
	
		<rect x="651.491" y="580.224" transform="matrix(-0.7072 -0.707 0.707 -0.7072 763.5521 1549.7795)" class="cls-1" width="102.381" height="73.122"/>
	
		<rect x="560.3" y="716.607" transform="matrix(0.9238 0.3828 -0.3828 0.9238 334.8951 -176.7092)" class="cls-1" width="102.367" height="73.128"/>
	<rect x="528.314" y="877.518" class="cls-1" width="102.374" height="73.122"/>
	
		<rect x="560.272" y="1038.379" transform="matrix(0.9239 -0.3826 0.3826 0.9239 -364.759 315.7384)" class="cls-1" width="102.361" height="73.14"/>
	
		<rect x="665.999" y="1160.199" transform="matrix(-0.7071 -0.7071 0.7071 -0.7071 342.7598 2564.7646)" class="cls-1" width="73.122" height="102.392"/>
	
		<rect x="802.459" y="1251.457" transform="matrix(-0.924 -0.3823 0.3823 -0.924 1116.2786 2827.0847)" class="cls-1" width="73.104" height="102.365"/>
	<rect x="963.394" y="1283.424" class="cls-1" width="73.131" height="102.393"/>
	
		<rect x="1109.708" y="1265.995" transform="matrix(-0.383 -0.9237 0.9237 -0.383 402.3094 2873.8447)" class="cls-1" width="102.384" height="73.147"/>
	
		<rect x="1246.109" y="1174.924" transform="matrix(-0.7071 -0.7071 0.7071 -0.7071 1357.9863 2985.4436)" class="cls-1" width="102.38" height="73.099"/>
	
		<rect x="1337.278" y="1038.525" transform="matrix(-0.9239 -0.3827 0.3827 -0.9239 2259.8396 2599.6892)" class="cls-1" width="102.407" height="73.117"/>
	<rect x="1369.305" y="877.518" class="cls-1" width="102.393" height="73.13"/>
	
		<rect x="1351.823" y="702.025" transform="matrix(0.3827 0.9239 -0.9239 0.3827 1552.9576 -817.7267)" class="cls-1" width="73.136" height="102.407"/>
	
		<rect x="1124.393" y="474.394" transform="matrix(0.924 0.3825 -0.3825 0.924 289.3112 -404.0886)" class="cls-1" width="73.149" height="102.401"/>
</svg>
