<svg id="Layer_1" data-name="Layer 1" xmlns="http://www.w3.org/2000/svg" viewBox="0 0 2000 2000">
    <defs>
        <style>
            .cls-1 {
                fill: #e74a3e;
            }
            
            .cls-2 {
                fill: #181818;
            }
        </style>
    </defs>	
    <title>Startup-And-New-Business</title>
	<path class="cls-2" d="M1000.014,198.74c-442.555,0-801.289,358.734-801.289,801.258c0,442.516,358.734,801.27,801.289,801.27
		c442.563,0,801.289-358.754,801.289-801.27C1801.303,557.475,1442.58,198.74,1000.014,198.74z M1000.014,1370.162
		c-273.964,0-512.985-148.9-640.994-370.164c128.013-221.24,367.034-370.152,640.994-370.152s512.946,148.912,640.994,370.152
		C1512.96,1221.262,1273.978,1370.162,1000.014,1370.162z"/>
	<circle class="cls-2" cx="1000.014" cy="1000.01" r="264.433"/>
	<path class="cls-1" d="M1674.302,1019.26l11.141-19.262l-11.141-19.262c-138.981-240.163-397.355-389.363-674.288-389.363
		c-276.956,0-535.306,149.204-674.288,389.355l-11.141,19.262l11.141,19.262c138.982,240.15,397.336,389.363,674.288,389.363
		C1276.946,1408.615,1535.32,1259.402,1674.302,1019.26z M403.879,999.998c127.681-205.15,354.043-331.69,596.135-331.694
		c242.072,0,468.441,126.544,596.115,331.694c-127.67,205.162-354.043,331.702-596.115,331.702
		C757.922,1331.7,531.56,1205.16,403.879,999.998z"/>
	<path class="cls-1" d="M1118.616,1000.002c0-65.372-53.211-118.571-118.603-118.571c-65.399,0-118.61,53.191-118.61,118.571
		s53.211,118.56,118.61,118.56C1065.405,1118.562,1118.616,1065.382,1118.616,1000.002z M958.322,999.998
		c0-22.969,18.691-41.66,41.691-41.66c22.98,0,41.691,18.703,41.691,41.66c0,22.949-18.711,41.648-41.691,41.648
		C977.014,1041.646,958.322,1022.947,958.322,999.998z"/>
	<path class="cls-1" d="M6.953,881.81l76.384,9c2.809-23.902,6.59-47.95,11.277-71.493l-75.45-14.969
		C14.102,829.879,9.992,855.931,6.953,881.81z"/>
	<path class="cls-1" d="M37.442,728.085l74.032,20.891c6.512-23.117,14.043-46.277,22.391-68.871l-72.161-26.642
		C52.68,677.925,44.512,703.034,37.442,728.085z"/>
	<path class="cls-1" d="M91.786,580.986l69.829,32.281c10.071-21.793,21.122-43.492,32.922-64.505l-67.071-37.629
		C114.696,533.876,102.685,557.365,91.786,580.986z"/>
	<path class="cls-1" d="M168.505,444.293l63.911,42.79c13.391-19.969,27.73-39.669,42.61-58.532l-60.392-47.648
		C198.518,401.324,182.986,422.645,168.505,444.293z"/>
	<path class="cls-1" d="M373.27,322.292l-52.231-56.461c-19.141,17.711-37.801,36.372-55.442,55.461l56.493,52.212
		C338.358,355.882,355.59,338.652,373.27,322.292z"/>
	<path class="cls-1" d="M486.778,232.62l-42.81-63.93c-21.582,14.473-42.902,30-63.371,46.172l47.691,60.372
		C447.188,260.303,466.868,245.963,486.778,232.62z"/>
	<path class="cls-1" d="M612.877,161.759l-32.309-69.821c-23.602,10.93-47.083,22.93-69.802,35.711l37.673,67.052
		C569.412,182.924,591.092,171.83,612.877,161.759z"/>
	<path class="cls-1" d="M748.453,111.583L727.53,37.571c-25.051,7.078-50.121,15.238-74.532,24.289l26.692,72.13
		C702.202,125.642,725.362,118.11,748.453,111.583z"/>
	<path class="cls-1" d="M890.29,83.36l-9.039-76.38c-25.88,3.059-51.95,7.191-77.45,12.27l15.012,75.431
		C842.344,90.001,866.392,86.181,890.29,83.36z"/>
	<rect x="961.213" class="cls-1" width="77.68" height="77.649"/>
	<rect x="0.004" y="961.209" class="cls-1" width="77.661" height="77.629"/>
	<path class="cls-1" d="M1109.745,1916.64l9.051,76.411c25.879-3.121,51.931-7.23,77.438-12.309l-15.02-75.431
		C1157.695,1910.011,1133.644,1913.812,1109.745,1916.64z"/>
	<path class="cls-1" d="M1251.566,1888.409l20.95,74.021c25.051-7.09,50.121-15.242,74.512-24.289l-26.68-72.122
		C1297.817,1874.351,1274.688,1881.89,1251.566,1888.409z"/>
	<path class="cls-1" d="M1387.131,1838.248l32.309,69.829c23.59-10.918,47.078-22.949,69.825-35.688l-37.692-67.071
		C1430.592,1817.1,1408.912,1828.189,1387.131,1838.248z"/>
	<path class="cls-1" d="M1513.21,1767.357l42.829,63.93c21.543-14.441,42.883-29.988,63.371-46.172l-47.66-60.36
		C1552.832,1739.716,1533.133,1754.057,1513.21,1767.357z"/>
	<path class="cls-1" d="M1626.77,1677.696l52.212,56.461c19.109-17.66,37.75-36.32,55.438-55.453l-56.489-52.22
		C1661.609,1644.156,1644.41,1661.388,1626.77,1677.696z"/>
	<path class="cls-1" d="M1725.013,1571.434l60.329,47.691c16.09-20.348,31.609-41.711,46.172-63.461l-63.91-42.771
		C1754.154,1532.972,1739.834,1552.633,1725.013,1571.434z"/>
	<path class="cls-1" d="M1805.482,1451.225l67.091,37.63c12.77-22.738,24.77-46.231,35.68-69.829l-69.841-32.281
		C1828.342,1408.545,1817.271,1430.244,1805.482,1451.225z"/>
	<path class="cls-1" d="M1866.162,1319.872l72.15,26.68c9.012-24.43,17.191-49.551,24.254-74.672l-74.032-20.841
		C1882.003,1274.2,1874.472,1297.384,1866.162,1319.872z"/>
	<path class="cls-1" d="M1905.405,1180.703l75.45,14.93c5.078-25.609,9.188-51.66,12.211-77.438l-76.36-8.98
		C1913.886,1133.012,1910.085,1157.074,1905.405,1180.703z"/>
	<rect x="1922.323" y="961.209" class="cls-1" width="77.673" height="77.629"/>
	<rect x="961.213" y="1922.319" class="cls-1" width="77.68" height="77.681"/>
</svg>
