<svg id="Layer_1" data-name="Layer 1" xmlns="http://www.w3.org/2000/svg" viewBox="0 0 2000 2000">
    <defs>
        <style>
            .cls-1 {
                fill: #e74a3e;
            }
            
            .cls-2 {
                fill: #181818;
            }
        </style>
    </defs>	
    <title>Business-Collection</title>
	<rect id="XMLID_860_" x="431.141" y="37.188" class="cls-2" width="1531.671" height="1531.671"/>
	<path class="cls-1" d="M1606.049,1962.812c0-20.434-16.756-37.188-37.189-37.188H74.377V431.141
		c0-20.434-16.755-37.189-37.188-37.189S0,410.707,0,431.141v1531.671C0,1983.244,16.755,2000,37.188,2000h1531.671
		C1589.293,2000,1606.049,1983.244,1606.049,1962.812z"/>
	<path class="cls-1" d="M1527.993,766.244h-293.829V472.415c0-20.433-16.755-37.188-37.188-37.188
		c-20.433,0-37.188,16.756-37.188,37.188v293.829H865.958c-20.433,0-37.188,16.756-37.188,37.188
		c0,20.434,16.756,37.188,37.188,37.188h293.829v293.829c0,20.434,16.756,37.188,37.188,37.188
		c20.434,0,37.188-16.755,37.188-37.188V840.621h293.829c20.434,0,37.188-16.755,37.188-37.188
		C1564.773,782.591,1548.427,766.244,1527.993,766.244z"/>
	<path class="cls-1" d="M431.141,1606.048h1531.671c20.433,0,37.188-16.755,37.188-37.188V37.188
		C2000,16.755,1983.244,0,1962.812,0H431.141c-20.434,0-37.188,16.755-37.188,37.188v1531.671
		C393.952,1589.293,410.707,1606.048,431.141,1606.048z M467.92,74.377h1457.703V1532.08H467.92V74.377z"/>
</svg>
