<svg id="Layer_1" data-name="Layer 1" xmlns="http://www.w3.org/2000/svg" viewBox="0 0 2000 2000">
    <defs>
        <style>
            .cls-1 {
                fill: #e74a3e;
            }
            
            .cls-2 {
                fill: #181818;
            }
        </style>
    </defs>	
    <title>Business-Collection</title>
		<rect id="XMLID_7139_" x="504.902" y="731.617" class="cls-2" width="225.081" height="330.883"/>
		<rect id="XMLID_7137_" x="887.255" y="314.542" class="cls-2" width="225.082" height="747.958"/>
		<path class="cls-1" d="M220.18,1367.238h1567.402c57.598,0,104.166-46.568,104.166-104.166V83.742h71.078
			c20.426,0,37.174-16.749,37.174-37.173s-16.748-37.173-37.174-37.173H37.173C16.749,9.396,0,26.144,0,46.568
			s16.749,37.173,37.173,37.173h78.84v1179.331C116.013,1320.67,162.582,1367.238,220.18,1367.238z M1817.402,1263.072
			c0,16.748-13.48,30.229-30.229,30.229H220.18c-16.748,0-30.229-13.48-30.229-30.229V83.742h1627.451V1263.072L1817.402,1263.072z"
			/>
		<path class="cls-1" d="M1004.493,1990.604c20.425,0,37.174-16.748,37.174-37.173v-208.742l233.66,233.66
			c7.353,7.353,16.748,11.029,26.144,11.029s18.791-3.677,26.144-11.029c14.298-14.298,14.298-37.99,0-52.287l-285.947-285.948
			V1529.82h147.876c20.424,0,37.173-16.748,37.173-37.174c0-20.424-16.749-37.173-37.173-37.173H820.262
			c-20.425,0-37.174,16.749-37.174,37.173c0,20.426,16.749,37.174,37.174,37.174H967.32v110.294l-287.173,287.173
			c-14.298,14.298-14.298,37.99,0,52.288c7.353,7.353,16.748,11.029,26.144,11.029s18.791-3.677,26.144-11.029l234.886-234.886
			v208.742C967.32,1973.856,984.068,1990.604,1004.493,1990.604z"/>
		<path class="cls-1" d="M504.902,1099.265h225.49c20.425,0,37.173-16.748,37.173-37.173V731.209
			c0-20.425-16.748-37.173-37.173-37.173H505.311c-20.425,0-37.173,16.748-37.173,37.173v330.883
			C468.138,1082.925,484.478,1099.265,504.902,1099.265z M542.075,768.791h151.144v256.944H542.075V768.791z"/>
		<path class="cls-1" d="M1269.607,1099.265h225.082c20.425,0,37.174-16.748,37.174-37.173v-521.65
			c0-20.425-16.749-37.174-37.174-37.174h-225.082c-20.425,0-37.173,16.749-37.173,37.174V1062.5
			C1232.843,1082.925,1249.183,1099.265,1269.607,1099.265z M1306.781,577.206h151.144v448.121h-151.144V577.206z"/>
		<path class="cls-1" d="M887.255,1099.265h225.082c20.425,0,37.173-16.748,37.173-37.173V314.542
			c0-20.425-16.748-37.173-37.173-37.173H887.255c-20.425,0-37.173,16.749-37.173,37.173V1062.5
			C850.49,1082.925,866.83,1099.265,887.255,1099.265z M924.428,351.307h151.145v674.02H924.428V351.307L924.428,351.307z"/>
</svg>
