<svg id="Layer_1" data-name="Layer 1" xmlns="http://www.w3.org/2000/svg" viewBox="0 0 2000 2000">
    <defs>
        <style>
            .cls-1 {
                fill: #e74a3e;
            }
            
            .cls-2 {
                fill: #181818;
            }
        </style>
    </defs>	
    <title>Business-Collection</title>
	<path class="cls-2" id="XMLID_2077_" d="M1441.213,1044.54H568.072c-26.137,0-47.783-21.237-47.783-47.783V788.069
		c0-26.137,21.237-47.781,47.783-47.781h873.141c26.135,0,47.779,21.235,47.779,47.781v208.688
		C1488.992,1023.303,1467.348,1044.54,1441.213,1044.54z"/>
	<path class="cls-1" d="M833.935,146.487H513.348c-53.091,0-95.972,42.881-95.972,95.972v123.744H352.44
		c-19.602,0-35.529,15.109-36.755,34.713L284.24,887.716c-69.018,15.111-122.926,74.736-128.643,147.838l-50.233,656.285h-68.2
		C16.745,1691.84,0,1708.582,0,1729.002v147.432c0,64.113,52.273,116.391,116.392,116.391h675.069
		c64.118,0,116.391-52.277,116.391-116.391v-147.432c0-20.42-16.742-37.162-37.162-37.162H179.692l49.416-650.568
		c3.675-46.556,42.881-83.312,89.846-83.312c19.602,0,35.529-15.111,36.755-34.713l31.445-482.719h67.384h438.614h216.447h438.609
		h67.385l31.447,482.719c1.224,19.602,17.56,34.713,36.755,34.713h0.817c46.559,0,85.763,36.347,89.847,82.496l55.133,651.384
		h-698.349c-20.42,0-37.164,16.742-37.164,37.162v147.432c0,64.113,52.275,116.391,116.392,116.391h675.071
		c64.118,0,116.391-52.277,116.391-116.391v-147.432c0-20.42-16.746-37.162-37.165-37.162h-60.849l-55.543-657.51
		c-6.126-72.695-60.441-131.912-129.457-146.614l-31.447-486.801c-1.224-19.604-17.56-34.713-36.755-34.713h-65.343V242.458
		c0-53.091-42.881-95.972-95.972-95.972h-320.587c-53.091,0-95.972,42.881-95.972,95.972v123.744h-142.53V242.458
		C929.907,189.776,887.026,146.487,833.935,146.487z M834.75,1876.434c0,23.274-19.193,42.47-42.472,42.47H116.8
		c-23.279,0-42.472-19.195-42.472-42.47v-110.678h760.014v110.678H834.75z M1928.423,1876.434c0,23.274-19.195,42.47-42.475,42.47
		h-675.069c-23.279,0-42.472-19.195-42.472-42.47v-110.678h760.016V1876.434z M491.293,366.202V242.458
		c0-12.252,9.803-22.053,22.055-22.053h320.587c12.251,0,22.053,9.801,22.053,22.053v123.744H491.293z M1146.761,242.458
		c0-12.252,9.803-22.053,22.055-22.053h320.587c12.252,0,22.051,9.801,22.051,22.053v123.744h-364.692V242.458L1146.761,242.458z"/>
	<path class="cls-1" d="M425.135,41.123c0,20.419,16.745,37.164,37.164,37.164h419.416c20.42,0,37.164-16.745,37.164-37.164
		S902.135,3.958,881.715,3.958H462.299C441.88,3.958,425.135,20.703,425.135,41.123z"/>
	<path class="cls-1" d="M1103.88,77.878h427.586c20.42,0,37.162-16.745,37.162-37.164S1551.886,3.55,1531.466,3.55H1103.88
		c-20.42,0-37.162,16.745-37.162,37.164S1083.46,77.878,1103.88,77.878z"/>
	<path class="cls-1" d="M786.97,1620.371c20.419,0,37.162-16.744,37.162-37.164v-501.912h329.164v501.912
		c0,20.42,16.744,37.164,37.163,37.164c20.42,0,37.164-16.744,37.164-37.164v-501.912h165.808c73.1,0,132.727-59.625,132.727-132.727
		v-111.9c0-73.102-59.627-132.727-132.727-132.727H616.67c-73.102,0-132.727,59.625-132.727,132.727v111.9
		c0,73.102,59.625,132.727,132.727,132.727h133.544v501.912C750.215,1603.627,766.55,1620.371,786.97,1620.371z M557.454,948.568
		v-111.9c0-32.263,26.545-58.808,58.808-58.808h776.352c32.264,0,58.81,26.545,58.81,58.808v111.9
		c0,32.263-26.546,58.808-58.81,58.808H616.67C583.999,1007.376,557.454,980.831,557.454,948.568z"/>
</svg>