<svg id="Layer_1" data-name="Layer 1" xmlns="http://www.w3.org/2000/svg" viewBox="0 0 2000 2000">
    <defs>
        <style>
            .cls-1 {
                fill: #e74a3e;
            }
            
            .cls-2 {
                fill: #181818;
            }
        </style>
    </defs>	
    <title>Business-Collection</title>
		<path class="cls-2" d="M1526.144,1599.877h100.082c24.51,0,44.117-19.607,44.117-44.117v-120.507
			c0-24.51-19.607-44.117-44.117-44.117h-100.082c-13.889-70.67-41.667-136.029-80.065-193.628l71.078-71.078
			c17.157-17.156,17.157-45.343,0-62.5l-85.375-85.376c-17.157-17.156-45.344-17.156-62.5,0l-71.078,70.67
			c-57.599-38.807-122.958-66.176-193.628-80.065V869.077c0-24.51-19.607-44.118-44.117-44.118H939.951
			c-24.51,0-44.117,19.608-44.117,44.118v100.081c-70.67,13.89-136.03,41.667-193.628,80.065l-71.078-71.078
			c-17.157-17.157-45.344-17.157-62.5,0l-85.376,85.376c-17.157,17.156-17.157,45.343,0,62.5l71.078,71.078
			c-38.807,57.598-66.176,122.958-80.065,193.627H374.184c-24.511,0-44.118,19.608-44.118,44.118v120.507
			c0,24.51,19.607,44.117,44.118,44.117h100.081l213.644-104.575c0-172.386,140.115-312.5,312.5-312.5
			c172.386,0,312.5,140.114,312.5,312.5"/>
		<path class="cls-1" d="M2000,1672.998V326.593c0-84.15-68.219-152.37-152.369-152.37H152.369C68.219,174.224,0,242.443,0,326.593
			v1346.814c0,84.15,68.219,152.369,152.369,152.369h1695.262C1931.781,1825.776,2000,1757.148,2000,1672.998z M152.369,248.162
			h1695.262c43.301,0,78.432,35.131,78.432,78.432v181.781H73.938V326.593C73.938,283.292,109.069,248.162,152.369,248.162z
			 M73.938,1672.998V582.313h1852.125v1090.686c0,43.301-35.131,78.432-78.432,78.432H152.369
			C109.069,1751.43,73.938,1716.299,73.938,1672.998z"/>
		<path class="cls-1" d="M1000,1146.037c-192.811,0-349.265,156.863-349.265,349.265c0,20.425,16.748,37.174,37.173,37.174
			s37.174-16.749,37.174-37.174c0-151.96,123.365-275.326,275.326-275.326s275.327,123.366,275.327,275.326
			c0,20.425,16.748,37.174,37.173,37.174c20.426,0,37.174-16.749,37.174-37.174C1349.265,1302.492,1192.811,1146.037,1000,1146.037z
			"/>
		<path class="cls-1" d="M1626.634,1353.963h-70.67c-13.479-53.514-34.722-104.167-62.908-151.553l49.837-49.837
			c15.522-15.522,23.692-35.947,23.692-57.598s-8.578-42.075-23.692-57.599l-85.376-85.375c-31.862-31.863-83.333-31.863-114.788,0
			l-49.836,49.836c-47.386-28.186-98.039-49.02-151.553-62.908v-69.853c0-44.936-36.355-81.291-81.291-81.291H939.543
			c-44.936,0-81.291,36.355-81.291,81.291v70.67c-53.514,13.479-104.167,34.722-151.553,62.908l-49.836-49.837
			c-15.523-15.522-35.948-23.692-57.599-23.692s-42.075,8.578-57.598,23.692l-85.376,85.376
			c-15.523,15.522-23.693,35.948-23.693,57.598c0,21.65,8.579,42.075,23.693,57.599l49.836,49.836
			c-28.186,47.386-49.02,98.04-62.908,151.553h-70.67c-44.935,0-81.291,36.356-81.291,81.291v120.506
			c0,44.936,36.356,81.291,81.291,81.291h100.082c20.425,0,37.173-16.748,37.173-37.173s-16.748-37.173-37.173-37.173H372.549
			c-4.085,0-7.353-3.269-7.353-7.354v-120.506c0-4.086,3.268-7.354,7.353-7.354h100.082c17.565,0,33.088-12.663,36.356-29.82
			c12.663-64.542,37.989-125.408,74.755-180.146c9.804-14.706,7.761-34.314-4.494-46.978l-71.078-71.078
			c-1.634-1.634-2.043-3.677-2.043-4.902s0.409-3.268,2.043-4.901l85.376-85.376c1.634-1.634,3.677-2.043,4.901-2.043
			c1.226,0,3.269,0.409,5.311,2.043l71.079,71.078c12.663,12.663,32.271,14.298,46.977,4.493
			c54.739-36.765,115.604-61.683,180.147-74.755c17.156-3.268,29.82-18.791,29.82-36.356V869.077c0-4.085,3.268-7.354,7.353-7.354
			h120.507c4.085,0,7.353,3.269,7.353,7.354v100.081c0,17.565,12.663,33.089,29.82,36.356
			c64.542,12.663,125.409,37.99,180.147,74.755c14.705,9.804,34.313,7.762,46.977-4.493l71.078-71.079
			c2.86-2.859,7.354-2.859,10.213,0l85.376,85.376c1.634,1.634,2.042,3.677,2.042,4.902s-0.408,3.268-2.042,5.311l-71.078,71.078
			c-12.664,12.663-14.298,32.271-4.494,46.978c36.765,54.738,61.684,115.604,74.755,180.146c3.269,17.157,18.791,29.82,36.356,29.82
			h100.082c4.085,0,7.353,3.268,7.353,7.353v120.507c0,4.085-3.268,7.353-7.353,7.353h-100.082
			c-20.425,0-37.173,16.749-37.173,37.174s16.748,37.173,37.173,37.173h100.082c44.935,0,81.29-36.355,81.29-81.291V1436.07
			C1707.517,1390.318,1671.16,1353.963,1626.634,1353.963z"/>
		<path class="cls-1" d="M334.15,412.786c9.804,0,19.199-4.085,26.144-11.029c6.944-6.945,11.029-16.34,11.029-26.144
			c0-9.804-4.085-19.199-11.029-26.144c-6.944-6.944-16.34-11.029-26.144-11.029s-19.199,4.085-26.144,11.029
			c-6.945,6.944-11.03,16.34-11.03,26.144c0,9.804,4.085,19.199,11.03,26.144C314.951,409.109,324.347,412.786,334.15,412.786z"/>
		<path class="cls-1" d="M464.869,412.786c9.804,0,19.199-4.085,26.145-11.029c6.943-6.945,11.029-16.34,11.029-26.144
			c0-9.804-4.086-19.199-11.029-26.144c-6.945-6.944-16.341-11.029-26.145-11.029s-19.199,4.085-26.144,11.029
			s-11.029,16.34-11.029,26.144c0,9.804,4.085,19.199,11.029,26.144C445.67,409.109,455.065,412.786,464.869,412.786z"/>
		<path class="cls-1" d="M203.432,412.786c9.804,0,19.199-4.085,26.144-11.029c6.944-6.945,11.029-16.34,11.029-26.144
			c0-9.804-4.085-19.199-11.029-26.144c-6.944-6.944-16.34-11.029-26.144-11.029c-9.804,0-19.2,4.085-26.144,11.029
			s-11.029,16.34-11.029,26.144c0,9.804,4.085,19.199,11.029,26.144C184.232,409.109,193.627,412.786,203.432,412.786z"/>
</svg>
