<svg id="Layer_1" data-name="Layer 1" xmlns="http://www.w3.org/2000/svg" viewBox="0 0 2000 2000">
    <defs>
        <style>
            .cls-1 {
                fill: #e74a3e;
            }
            
            .cls-2 {
                fill: #181818;
            }
        </style>
    </defs>	
    <title>Business-Collection</title>
		<path class="cls-2" d="M1102.658,1719.223H897.342c-196.319,0-355.42-159.1-355.42-355.419V778.937
			c0-15.951,13.088-29.039,29.039-29.039h858.078c15.951,0,29.039,13.088,29.039,29.039v584.867
			C1458.078,1560.123,1298.978,1719.223,1102.658,1719.223z"/>
		<path class="cls-1" d="M690.798,552.761c0,20.45,16.769,37.219,37.219,37.219s37.219-16.769,37.219-37.219
			c0-129.652,105.521-235.174,235.174-235.174s235.174,105.521,235.174,235.174c0,20.45,16.769,37.219,37.219,37.219
			s37.219-16.769,37.219-37.219c0-170.552-138.65-309.203-309.202-309.203C830.266,243.558,690.798,382.208,690.798,552.761z"/>
		<path class="cls-1" d="M1962.781,1122.495h-467.484V971.166h118.2c90.798,0,165.235-74.029,165.235-164.826V621.882
			c0-20.45-16.77-37.219-37.219-37.219c-20.45,0-37.219,16.769-37.219,37.219V806.34c0,50.307-40.9,90.797-90.798,90.797h-118.2
			v-88.752c0-52.761-42.945-95.706-95.706-95.706H600.409c-52.761,0-95.706,42.945-95.706,95.706v89.161h-118.2
			c-50.307,0-90.797-40.899-90.797-90.797V622.291c0-20.45-16.769-37.22-37.219-37.22s-37.219,16.77-37.219,37.22v184.458
			c0,90.797,74.028,164.826,165.235,164.826h118.2v151.329H37.219c-20.45,0-37.219,16.769-37.219,37.219
			s16.769,37.219,37.219,37.219h467.484v150.103h-118.2c-90.797,0-165.235,74.028-165.235,164.826v184.458
			c0,20.449,16.769,37.219,37.219,37.219c20.45,0,37.219-16.77,37.219-37.219v-184.458c0-50.307,40.9-90.798,90.797-90.798h123.108
			c30.266,189.775,194.684,334.969,392.639,334.969h195.092c197.955,0,362.781-145.603,392.638-334.969h123.518
			c50.307,0,90.798,40.899,90.798,90.798v184.458c0,20.449,16.769,37.219,37.219,37.219c20.449,0,37.219-16.77,37.219-37.219
			v-184.458c0-90.798-74.029-164.826-165.235-164.826h-118.2v-150.103h467.484c20.45,0,37.219-16.769,37.219-37.219
			C1999.591,1139.264,1983.23,1122.495,1962.781,1122.495z M579.141,1358.486V808.385c0-11.861,9.816-21.678,21.678-21.678H963.19
			v895.297h-60.532C723.927,1682.004,579.141,1536.81,579.141,1358.486z M1097.342,1682.004h-60.532V786.708h362.372
			c11.861,0,21.678,9.815,21.678,21.677v550.102C1420.859,1536.81,1276.073,1682.004,1097.342,1682.004z"/>
</svg>
