<svg id="Layer_1" data-name="Layer 1" xmlns="http://www.w3.org/2000/svg" viewBox="0 0 2000 2000">
    <defs>
        <style>
            .cls-1 {
                fill: #e74a3e;
            }
            
            .cls-2 {
                fill: #181818;
            }
        </style>
    </defs>	
    <title>Business-Collection</title>
	<path class="cls-2" id="XMLID_284_" d="M1001.753,1194.238H761.937c-8.58,0-15.933-7.354-15.933-15.932V542.608
		c0-8.578,7.353-15.931,15.933-15.931h239.816c8.578,0,15.934,7.353,15.934,15.931v635.698
		C1017.687,1186.885,1010.331,1194.238,1001.753,1194.238z"/>
	<path class="cls-1" d="M1874.814,1405.456c7.354-19.202-1.636-40.445-20.838-48.208c-19.202-7.353-40.443,1.635-48.207,20.835
		c-28.191,71.495-98.458,119.704-175.268,119.704H855.493c-9.396,0-18.793,3.678-25.738,10.215l-353.8,338.684v-312.129
		c0-9.805-4.085-19.202-11.032-26.146c-6.944-6.945-16.342-11.031-26.146-11.031h-176.49c-103.772,0-188.339-84.57-188.339-188.338
		V474.382c0-103.77,84.567-188.339,188.339-188.339h839.56c20.428,0,37.176-16.749,37.176-37.176s-16.748-37.18-37.176-37.18h-839.56
		C117.66,211.687,0,329.349,0,473.974v835.067c0,144.623,117.66,262.285,262.287,262.285h139.721v361.971
		c0,14.707,8.989,28.191,22.47,33.908c4.494,2.043,9.805,2.861,14.708,2.861c9.396,0,18.793-3.679,25.737-10.214l405.687-388.526
		h760.303C1737.541,1571.734,1835.592,1504.732,1874.814,1405.456z"/>
	<path class="cls-1" d="M1996.968,643.113c11.031-69.046-17.567-139.316-72.721-178.944c-31.459-22.47-68.228-34.317-106.629-34.317H1546.75
		V236.199c0-85.794-25.326-147.892-75.17-184.252c-78.849-58.014-186.706-24.922-191.198-23.695
		c-15.528,4.901-25.741,19.2-25.741,35.133v223.475c0,171.996-200.595,230.828-208.766,233.277c-0.817,0.411-1.634,0.818-2.451,0.818
		c-12.257-18.792-33.5-31.458-58.012-31.458H777.869c-37.994,0-69.043,31.052-69.043,69.045v603.422
		c0,37.994,31.05,69.042,69.043,69.042h207.542c19.201,0,36.36-7.761,49.025-20.427c33.091,33.094,78.849,53.521,129.508,53.521
		h546.635c123.788,0,202.637-64.961,216.936-178.129L1996.968,643.113z M980.508,1157.062H783.182V563.854h197.327V1157.062z
		 M1923.84,631.672l-69.863,443.68c0,0.407,0,0.817,0,1.226c-9.396,75.58-57.604,113.984-143.397,113.984h-546.635
		c-60.464,0-109.489-49.025-109.489-109.49V592.86c3.677,0,7.354,0,11.029-1.227c10.623-2.859,263.105-75.988,263.105-304.773V93.62
		c26.962-3.679,68.635-4.497,99.682,17.974c29.827,22.063,44.533,63.735,44.533,124.606v230.828c0,20.427,16.749,37.18,37.176,37.18
		h308.045c22.877,0,44.94,6.944,63.324,20.427C1913.627,547.92,1930.375,590.002,1923.84,631.672z"/>
</svg>
