<svg id="Layer_1" data-name="Layer 1" xmlns="http://www.w3.org/2000/svg" viewBox="0 0 2000 2000">
    <defs>
        <style>
            .cls-1 {
                fill: #e74a3e;
            }
            
            .cls-2 {
                fill: #181818;
            }
        </style>
    </defs>	
    <title>Business-Collection</title>
		<path class="cls-2" d="M1358.423,643.551c-196.172-196.172-514.135-196.172-710.307,0
			c-188.815,188.816-195.764,490.431-21.252,687.829c-18.392,42.095-50.678,101.765-105.852,128.738
			c-17.165,8.174-13.078,33.921,5.722,36.782c57.626,8.991,145.494-5.313,222.329-64.982
			c192.493,113.208,444.248,87.46,609.359-78.061C1554.596,1157.686,1554.596,839.724,1358.423,643.551z M888.836,1026.087
			c-6.948,6.948-16.348,11.034-26.156,11.034s-19.617-4.086-26.156-11.034c-6.948-6.948-11.035-16.348-11.035-26.156
			s4.087-19.209,11.035-26.156c6.947-6.948,16.348-11.035,26.156-11.035s19.208,4.087,26.156,11.035
			c6.947,6.947,11.034,16.348,11.034,26.156S895.783,1019.139,888.836,1026.087z M1026.565,1026.087
			c-6.948,6.948-16.349,11.034-26.157,11.034s-19.208-4.086-26.156-11.034c-6.947-6.948-11.034-16.348-11.034-26.156
			s4.087-19.209,11.034-26.156c6.948-6.948,16.348-11.035,26.156-11.035s19.209,4.087,26.157,11.035
			c6.947,6.947,11.034,16.348,11.034,26.156S1033.513,1019.139,1026.565,1026.087z M1164.294,1026.087
			c-6.947,6.948-16.348,11.034-26.156,11.034c-9.399,0-19.208-4.086-26.156-11.034c-6.947-6.948-11.034-16.348-11.034-26.156
			s4.087-19.209,11.034-26.156c6.948-6.948,16.348-11.035,26.156-11.035s19.209,4.087,26.156,11.035
			c6.948,6.947,11.035,16.348,11.035,26.156S1171.242,1019.139,1164.294,1026.087z"/>
		<path class="cls-1" d="M1656.359,1652.203l-1.227-111.981c-0.408-20.435-17.164-37.191-37.6-36.782
			c-20.434,0.408-36.781,17.165-36.781,37.6l2.451,201.485c0,9.809,4.088,19.208,11.035,26.156
			c6.947,6.947,16.348,10.626,25.748,10.626h0.408l201.485-2.452c20.435-0.409,36.782-17.165,36.782-37.601
			c-0.408-20.434-16.756-36.781-37.191-36.781h-0.408l-111.982,1.226l5.313-5.722c186.364-190.859,287.72-443.022,284.45-709.898
			s-109.938-516.587-300.798-703.359c-136.503-133.642-307.337-224.781-493.7-263.606c-181.459-37.6-369.049-24.93-543.151,37.6
			c-19.209,6.948-29.426,28.2-22.479,47.409c6.948,19.208,28.2,29.426,47.409,22.478c336.354-120.564,704.176-40.46,959.608,209.25
			c176.556,172.876,275.458,403.788,278.319,651.046s-90.729,480.622-263.606,657.177L1656.359,1652.203z"/>
		<path class="cls-1" d="M1338.806,1940.331c19.209-6.948,29.426-28.2,22.478-47.408c-6.947-19.209-28.199-29.426-47.408-22.479
			c-336.354,120.564-704.176,40.461-959.608-209.25c-176.555-172.877-275.458-403.788-278.319-651.047
			c-3.27-246.85,89.912-480.213,262.789-656.768l5.313-5.722l1.227,111.982c0.408,20.435,16.756,36.782,37.191,36.782h0.408
			c20.435-0.409,36.782-17.165,36.782-37.6l-2.452-201.485c-0.408-20.435-16.756-36.782-37.191-36.782h-0.408l-201.485,2.452
			c-20.435,0.409-36.782,17.165-36.782,37.6c0.409,20.435,16.756,36.782,37.191,36.782h0.408l111.982-1.226l-5.313,5.722
			C99.243,492.743-2.113,744.906,1.157,1011.782c2.861,266.876,109.938,516.587,300.797,703.359
			c136.503,133.643,307.337,224.78,493.7,263.606c67.843,14.305,136.503,21.252,204.755,21.252
			C1115.251,1999.183,1229.685,1979.565,1338.806,1940.331z"/>
		<path class="cls-1" d="M505.074,1427.014c-22.069,11.035-34.739,34.739-31.061,59.261c3.678,24.521,22.887,43.729,47.408,47.408
			c12.261,2.043,25.339,2.86,38.825,2.86c65.392,0,134.052-22.069,191.677-60.895c77.243,40.869,163.886,62.121,251.754,62.121
			c143.86,0,279.546-55.991,381.311-157.755c210.067-210.068,210.067-552.552,0-762.62
			c-101.765-101.764-237.45-157.755-381.311-157.755c-143.859,0-279.545,55.991-381.31,157.755
			c-195.354,195.355-210.476,506.778-38.417,719.707C561.064,1382.467,534.5,1412.709,505.074,1427.014z M674.682,670.116
			c87.868-87.869,204.754-136.095,328.996-136.095c124.243,0,241.129,48.226,328.998,136.095
			c181.459,181.459,181.459,476.535,0,657.994c-87.869,87.869-204.755,136.095-328.998,136.095
			c-82.964,0-164.294-22.069-235.406-63.756c-5.722-3.27-12.261-5.313-18.8-5.313c-8.174,0-15.938,2.452-22.887,7.765
			c-53.538,41.688-107.486,54.766-141.816,58.443c29.426-26.974,54.765-64.982,76.426-114.843c5.722-13.078,3.27-28.608-6.13-39.234
			C492.404,1123.355,500.987,843.401,674.682,670.116z"/>
</svg>
