<svg id="Layer_1" data-name="Layer 1" xmlns="http://www.w3.org/2000/svg" viewBox="0 0 2000 2000">
    <defs>
        <style>
            .cls-1 {
                fill: #e74a3e;
            }
            
            .cls-2 {
                fill: #181818;
            }
        </style>
    </defs>	
    <title>Business-Collection</title>
		<path class="cls-2" d="M1816.881,164.112H933.17c-80.114,0-145.514,65.399-145.514,145.514v539.546
			c0,80.115,65.399,145.515,145.514,145.515h500.715l268.956,257.511V994.687h114.04c80.115,0,145.514-65.399,145.514-145.515
			V309.626C1962.395,229.512,1896.996,164.112,1816.881,164.112z M1263.438,612.916c-6.948,6.949-16.35,11.036-26.16,11.036
			c-9.81,0-19.211-3.679-26.159-11.036c-6.949-6.948-11.036-16.35-11.036-26.159c0-9.811,4.087-19.211,11.036-26.16
			c6.948-6.948,16.35-11.036,26.159-11.036c9.811,0,19.212,4.088,26.16,11.036c6.949,6.949,11.036,16.35,11.036,26.16
			C1274.474,596.566,1270.387,605.968,1263.438,612.916z M1401.186,612.916c-6.949,6.949-16.35,11.036-26.16,11.036
			c-9.81,0-19.211-3.679-26.16-11.036c-6.948-6.948-11.036-16.35-11.036-26.159c0-9.811,4.088-19.211,11.036-26.16
			c6.949-6.948,16.351-11.036,26.16-11.036c9.811,0,19.211,4.088,26.16,11.036c6.948,6.949,11.036,16.35,11.036,26.16
			C1412.222,596.566,1408.134,605.968,1401.186,612.916z M1539.342,612.916c-6.948,6.949-16.35,11.036-26.16,11.036
			c-9.81,0-19.619-3.679-26.159-11.036c-6.948-6.948-11.036-16.35-11.036-26.159c0-9.811,4.088-19.211,11.036-26.16
			c6.948-6.948,16.35-11.036,26.159-11.036c9.811,0,19.211,4.088,26.16,11.036c6.949,6.949,11.036,16.35,11.036,26.16
			C1550.378,596.566,1546.291,605.968,1539.342,612.916z"/>
		<path class="cls-1" d="M279.992,1870.223c4.497,2.044,9.81,2.861,14.715,2.861c9.401,0,18.802-3.679,25.751-10.219
			l256.284-245.248h481.913c100.144,0,181.483-81.341,181.483-181.484v-273.451c0-20.438-16.759-37.196-37.195-37.196
			c-20.438,0-37.196,16.759-37.196,37.196v273.451c0,59.269-48.232,107.092-107.092,107.092H561.619
			c-9.401,0-18.803,3.68-25.752,10.219l-204.373,195.382V1580.83c0-20.438-16.759-37.196-37.196-37.196H181.484
			c-59.269,0-107.092-48.232-107.092-107.092V901.083c0-59.269,48.232-107.5,107.092-107.5h438.585
			c20.438,0,37.196-16.759,37.196-37.196s-16.759-37.196-37.196-37.196H181.484C81.341,719.19,0,800.531,0,900.675v535.458
			c0,100.144,81.341,181.484,181.484,181.484h76.027v218.68C257.511,1851.012,266.503,1864.5,279.992,1870.223z"/>
		<path class="cls-1" d="M1419.17,1031.883l258.328,247.292c6.949,6.54,16.351,10.218,25.752,10.218
			c4.904,0,9.81-0.817,14.715-2.86c13.488-5.723,22.48-19.212,22.48-33.927v-220.723h76.845c100.552,0,182.71-81.75,182.71-182.711
			V309.626c0-100.552-81.75-182.71-182.71-182.71H933.17c-100.552,0-182.71,81.75-182.71,182.71v539.546
			c0,100.553,81.749,182.711,182.71,182.711H1419.17L1419.17,1031.883z M824.852,849.172V309.626
			c0-59.677,48.641-108.318,108.318-108.318h883.711c59.678,0,108.318,48.641,108.318,108.318v539.546
			c0,59.678-48.641,108.318-108.318,108.318h-114.04c-20.438,0-37.196,16.759-37.196,37.196v170.856l-206.417-197.426
			c-6.948-6.539-15.941-10.218-25.751-10.218H933.17C873.492,957.899,824.852,909.258,824.852,849.172z"/>
</svg>
