<svg id="Layer_1" data-name="Layer 1" xmlns="http://www.w3.org/2000/svg" viewBox="0 0 2000 2000">
    <defs>
        <style>
            .cls-1 {
                fill: #e74a3e;
            }
            
            .cls-2 {
                fill: #181818;
            }
        </style>
    </defs>	
    <title>Business-Collection</title>
		<circle id="XMLID_1326_" class="cls-2" cx="1003.883" cy="1808.707" r="154.506"/>
		<path class="cls-1" d="M508.072,1234.008c0.818,0,1.227,0,2.044,0h939.302c0.817,0,1.635,0,2.452,0
			c103.413-7.357,199.878-55.181,271.817-134.069c71.53-78.888,110.77-179.849,110.77-284.896
			c0-193.338-133.251-364.603-313.918-409.156C1484.979,172.9,1285.919,0,1046.802,0C872.676,0,711.22,95.647,627.427,246.475
			c-18.394-4.087-37.196-6.131-56.407-6.131c-142.244,0-257.919,115.675-257.919,257.919c0,20.438,2.452,40.466,6.948,59.677
			c-96.056,67.035-154.506,178.214-154.506,296.342C165.951,1050.071,322.91,1223.789,508.072,1234.008z M382.996,606.172
			c15.532-8.992,22.481-28.203,15.941-44.962c-7.357-19.62-11.036-40.875-11.036-62.947c0-101.369,82.566-183.936,183.936-183.936
			c21.664,0,42.919,3.679,62.539,11.036c17.984,6.54,38.013-1.635,46.597-18.802c66.626-141.427,210.505-232.577,366.646-232.577
			c210.096,0,383.404,157.368,403.434,365.829c1.635,16.758,14.306,30.247,30.656,33.108
			c159.411,27.386,279.582,174.126,279.582,341.712c0,177.806-140.199,332.312-312.691,345.392H511.343
			c-147.149-8.992-271-148.375-271-305.743C240.343,752.912,294.707,657.674,382.996,606.172z"/>
		<path class="cls-1" d="M1195.177,1808.706c0-92.785-66.626-170.447-154.507-188.023v-190.477
			c0-20.437-16.758-37.195-37.195-37.195s-37.196,16.759-37.196,37.195v190.477c-87.881,17.167-154.507,94.829-154.507,188.023
			c0,105.457,85.837,191.294,191.294,191.294S1195.177,1914.572,1195.177,1808.706z M886.572,1808.706
			c0-64.582,52.729-117.311,117.311-117.311s117.311,52.729,117.311,117.311s-52.729,117.311-117.311,117.311
			C938.893,1926.426,886.572,1873.697,886.572,1808.706z"/>
		<path class="cls-1" d="M755.773,1808.706c0-20.437-16.759-37.195-37.196-37.195c-20.437,0-37.195,16.759-37.195,37.195
			c0,20.438,16.759,37.196,37.195,37.196C739.015,1845.902,755.773,1829.553,755.773,1808.706z"/>
		<path class="cls-1" d="M494.584,1808.706c0-20.437-16.35-37.195-37.195-37.195c-20.438,0-37.196,16.759-37.196,37.195
			c0,20.438,16.759,37.196,37.196,37.196C477.825,1845.902,494.584,1829.553,494.584,1808.706z"/>
		<path class="cls-1" d="M550.991,1808.706c0,20.438,16.759,37.196,37.196,37.196s37.195-16.35,37.195-37.196
			c0-20.437-16.35-37.195-37.195-37.195C567.75,1771.919,550.991,1788.27,550.991,1808.706z"/>
		<path class="cls-1" d="M300.429,1782.547c-6.949,6.948-10.627,16.35-10.627,26.159c0,9.811,4.087,19.212,10.627,26.16
			c6.949,6.948,16.35,11.036,26.16,11.036s19.211-4.088,26.16-11.036c6.948-6.949,11.036-16.35,11.036-26.16
			c0-9.81-4.088-19.211-11.036-26.159c-6.949-6.949-16.351-11.036-26.16-11.036C317.188,1771.919,307.378,1775.598,300.429,1782.547
			z"/>
		<path class="cls-1" d="M1706.928,1834.866c6.949-6.949,11.037-16.35,11.037-26.16c0-9.81-4.088-19.211-11.037-26.159
			c-6.948-6.949-16.35-11.036-26.159-11.036s-19.211,4.087-26.159,11.036c-6.949,6.948-11.037,16.35-11.037,26.159
			c0,9.811,4.088,19.212,11.037,26.16c6.948,6.948,16.35,11.036,26.159,11.036S1699.979,1841.814,1706.928,1834.866z"/>
		<path class="cls-1" d="M1587.165,1808.706c0-20.437-16.35-37.195-37.196-37.195c-20.437,0-37.195,16.759-37.195,37.195
			c0,20.438,16.759,37.196,37.195,37.196C1570.406,1845.902,1587.165,1829.553,1587.165,1808.706z"/>
		<path class="cls-1" d="M1419.579,1845.902c20.438,0,37.196-16.35,37.196-37.196c0-20.437-16.351-37.195-37.196-37.195
			c-20.438,0-37.196,16.759-37.196,37.195C1382.383,1829.553,1399.142,1845.902,1419.579,1845.902z"/>
		<path class="cls-1" d="M1325.976,1808.706c0-20.437-16.35-37.195-37.195-37.195c-20.438,0-36.788,16.759-36.788,37.195
			c0,20.438,16.351,37.196,36.788,37.196C1309.217,1845.902,1325.976,1829.553,1325.976,1808.706z"/>
</svg>
