<svg id="Layer_1" data-name="Layer 1" xmlns="http://www.w3.org/2000/svg" viewBox="0 0 2000 2000">
    <defs>
        <style>
            .cls-1 {
                fill: #e74a3e;
            }
            
            .cls-2 {
                fill: #181818;
            }
        </style>
    </defs>	
    <title>Business-Collection</title>
		<circle class="cls-2" cx="415.678" cy="1593.942" r="99.468"/>
		<circle class="cls-2" cx="1584.732" cy="1593.942" r="99.468"/>
		<path class="cls-1" d="M668.645,1556.692h-121.98c-16.373-57.307-68.768-99.468-131.396-99.468
			c-75.316,0-136.307,61.4-136.307,136.308c0,75.317,61.4,136.308,136.307,136.308c62.219,0,115.023-42.161,131.396-99.468h121.981
			c81.866,0,148.587-66.721,148.587-148.587v-227.59c0-20.467-16.782-37.249-37.249-37.249c-20.466,0-37.249,16.782-37.249,37.249
			v227.59C743.144,1523.127,709.987,1556.692,668.645,1556.692z M415.678,1656.16c-34.385,0-62.219-27.834-62.219-62.219
			c0-34.384,27.834-62.218,62.219-62.218c34.384,0,62.219,27.834,62.219,62.218C477.896,1627.917,449.652,1656.16,415.678,1656.16z"
			/>
		<path class="cls-1" d="M1220.017,1217.766c-20.467,0-37.249,16.782-37.249,37.249v227.589
			c0,81.866,66.721,148.588,148.587,148.588h121.981c16.373,57.307,68.768,99.468,131.396,99.468
			c75.317,0,136.308-61.4,136.308-136.308c0-75.317-61.399-136.309-136.308-136.309c-62.218,0-115.022,42.162-131.396,99.469
			h-121.572c-40.933,0-74.498-33.565-74.498-74.499v-227.589C1257.266,1234.139,1240.482,1217.766,1220.017,1217.766z
			 M1584.732,1531.314c34.383,0,62.218,27.834,62.218,62.219c0,34.384-27.834,62.218-62.218,62.218
			c-34.385,0-62.219-27.834-62.219-62.218C1522.514,1559.558,1550.758,1531.314,1584.732,1531.314z"/>
		<circle class="cls-2" cx="1000.205" cy="1863.692" r="99.468"/>
		<path class="cls-1" d="M1040.729,0C890.094,0,750.512,82.276,676.832,212.034c-15.146-3.274-30.291-4.502-46.255-4.502
			c-125.256,0-227.589,101.924-227.589,227.589c0,16.782,1.637,33.155,5.321,49.529c-82.276,58.125-132.624,154.318-132.624,256.651
			c0,171.101,137.127,323.373,299.632,332.378c0.818,0,1.228,0,2.047,0h809.66c0.818,0,1.637,0,2.456,0
			c187.884-13.099,334.834-174.376,334.834-366.353c0-167.826-114.613-316.415-270.979-356.529
			C1421.408,148.997,1248.26,0,1040.729,0z M1650.635,707.327c0,150.635-118.707,281.621-264.43,292.264H578.592
			c-124.027-7.368-228.817-125.665-228.817-258.289c0-85.96,46.255-166.189,120.345-209.169
			c15.555-9.006,22.513-28.244,15.964-45.026c-6.141-16.374-9.006-33.975-9.006-52.396c0-84.731,68.769-153.499,153.5-153.499
			c18.011,0,35.612,3.274,52.395,9.005c18.011,6.549,38.067-1.637,46.664-18.829c56.487-119.935,178.878-197.298,311.502-197.298
			c178.47,0,325.829,133.442,342.612,310.684c1.637,16.783,14.326,30.291,30.699,33.156
			C1548.711,440.852,1650.635,565.289,1650.635,707.327z"/>
		<path class="cls-1" d="M1000.205,1217.766c-20.467,0-37.25,16.782-37.25,37.249v477.691
			c-56.078,15.964-97.83,67.13-99.468,127.712c-0.818,36.43,12.689,71.224,37.659,97.421c24.969,26.197,58.943,41.343,95.374,42.161
			h3.274l0,0c73.271,0,134.671-59.763,136.309-133.033c0.818-36.431-12.689-71.224-37.659-97.421
			c-17.192-18.011-38.478-30.7-61.81-37.249v-477.691C1037.454,1234.139,1020.672,1217.766,1000.205,1217.766z M1062.423,1865.33
			c-0.818,33.564-28.653,60.581-62.218,60.581h-1.638c-16.782-0.409-31.928-7.368-43.39-19.239
			c-11.461-11.87-17.602-27.834-17.191-44.617c0.818-33.565,28.653-60.581,62.219-60.581h1.637
			c16.783,0.409,31.928,7.368,43.39,19.239C1056.692,1832.583,1062.832,1848.547,1062.423,1865.33z"/>
</svg>
