<svg id="Layer_1" data-name="Layer 1" xmlns="http://www.w3.org/2000/svg" viewBox="0 0 2000 2000">
    <defs>
        <style>
            .cls-1 {
                fill: #e74a3e;
            }
            
            .cls-2 {
                fill: #181818;
            }
        </style>
    </defs>	
    <title>Business-Collection</title>
		<path class="cls-2" d="M1844.357,109.564h-716.362c-64.714,0-117.96,53.246-117.96,117.96V664.96
			c0,64.715,53.246,117.96,117.96,117.96h92.566v208.889L1438.46,782.92h405.898c64.714,0,117.96-53.245,117.96-117.96V227.524
			C1962.318,162.4,1909.482,109.564,1844.357,109.564z M1374.155,486.381c-6.963,6.554-16.384,10.649-26.214,10.649
			c-9.829,0-19.25-3.686-26.213-10.649c-6.963-6.963-11.059-16.383-11.059-26.213s4.096-19.25,11.059-26.214
			c6.963-6.553,16.384-10.648,26.213-10.648c9.83,0,19.66,3.686,26.214,10.648c6.963,6.964,11.059,16.384,11.059,26.214
			S1381.118,479.418,1374.155,486.381z M1512.595,486.381c-6.963,6.554-16.384,10.649-26.214,10.649s-19.25-3.686-26.213-10.649
			c-6.963-6.963-11.059-16.383-11.059-26.213s4.096-19.25,11.059-26.214c6.963-6.553,16.383-10.648,26.213-10.648
			c9.421,0,19.251,3.686,26.214,10.648c6.963,6.964,11.059,16.384,11.059,26.214S1519.558,479.418,1512.595,486.381z
			 M1650.625,486.381c-6.963,6.554-16.384,10.649-26.214,10.649s-19.25-3.686-26.214-10.649
			c-6.963-6.963-11.059-16.383-11.059-26.213s4.096-19.25,11.059-26.214c6.963-6.553,16.384-10.648,26.214-10.648
			s19.251,3.686,26.214,10.648c6.963,6.964,11.059,16.384,11.059,26.214S1657.588,479.418,1650.625,486.381z"/>
		<path class="cls-2" d="M1715.748,1566.864H74.544c-20.479,0-37.272-16.793-37.272-37.271v-216.671H1753.43v216.671
			C1753.43,1550.072,1736.637,1566.864,1715.748,1566.864z"/>
		<path class="cls-1" d="M1753.43,895.966c-20.479,0-37.271,16.793-37.271,37.272v357.566H74.135V476.961
			c0-44.235,36.043-80.688,80.688-80.688h710.628c20.479,0,37.272-16.793,37.272-37.272c0-20.479-16.793-37.272-37.272-37.272
			H154.823C69.629,321.729,0,391.358,0,476.552v979.726c0,85.193,69.629,154.822,154.823,154.822h703.256v242.064H528.363
			c-20.479,0-37.271,16.793-37.271,37.272s16.793,37.272,37.271,37.272h733.976c20.479,0,37.272-16.793,37.272-37.272
			s-16.793-37.272-37.272-37.272H932.623V1611.1h703.257c85.193,0,154.823-69.629,154.823-154.822V932.828
			C1790.293,912.349,1773.91,895.966,1753.43,895.966z M1635.47,1537.375H154.823c-44.235,0-80.688-36.044-80.688-80.688v-91.747
			h1642.023v91.747C1716.158,1501.331,1680.115,1537.375,1635.47,1537.375z"/>
		<path class="cls-1" d="M1844.357,72.292h-716.362c-85.604,0-155.232,69.629-155.232,155.232V664.96
			c0,85.604,69.629,155.232,155.232,155.232h55.294v171.616c0,14.745,9.011,28.261,22.527,33.995
			c4.505,2.048,9.83,2.867,14.745,2.867c9.42,0,18.841-3.687,25.804-10.239l207.25-198.648h391.152
			c85.604,0,155.232-69.63,155.232-155.232V227.524C1999.591,141.921,1929.961,72.292,1844.357,72.292z M1925.455,664.551
			c0,44.645-36.043,80.688-80.688,80.688h-405.898c-9.42,0-18.84,3.687-25.803,10.24l-155.233,148.679V782.102
			c0-9.83-4.096-19.251-11.059-26.214s-16.384-11.059-26.213-11.059h-92.566c-44.645,0-80.688-36.044-80.688-80.688V227.524
			c0-44.645,36.044-80.688,80.688-80.688h716.362c44.646,0,80.688,36.043,80.688,80.688v437.027H1925.455z"/>
</svg>
