<svg id="Layer_1" data-name="Layer 1" xmlns="http://www.w3.org/2000/svg" viewBox="0 0 2000 2000">
    <defs>
        <style>
            .cls-1 {
                fill: #e74a3e;
            }
            
            .cls-2 {
                fill: #181818;
            }
        </style>
    </defs>	
    <title>Business-Collection</title>
		<path class="cls-2" d="M991.429,470.43c7.347-7.347,17.143-4.897,21.224,6.122c10.204,26.122,19.592,51.835,29.387,77.956
			c101.221,270.193,202.44,540.387,303.661,810.171c2.449,6.938,4.897,13.877-1.225,19.591c-6.122,6.123-13.061,3.266-19.591,0.408
			c-108.567-46.528-217.134-92.648-325.701-139.586c-108.158,46.529-216.726,92.649-324.885,138.77
			c-6.938,2.857-13.061,5.715-19.591,0c-6.938-6.122-4.489-13.469-2.041-20.407c111.017-293.865,222.032-587.73,333.048-882.005
			C987.348,478.185,988.164,473.695,991.429,470.43z"/>
		<path class="cls-1" d="M989.389,74.527c246.928-3.265,480.797,90.609,657.932,263.663l5.715,5.714l-112.241,1.225
			c-20.407,0.408-36.733,17.142-36.733,37.549c0.408,20.408,16.734,36.733,37.142,36.733h0.408l201.624-2.448
			c20.408-0.408,36.734-17.143,36.734-37.55l-2.449-201.625c-0.408-20.407-17.143-36.325-37.55-36.733
			c-20.407,0.408-36.733,17.142-36.733,37.549l1.225,112.24l-5.714-5.714C1510.592,101.057,1262.847,0.245,1000,0.245
			c-4.082,0-7.755,0-11.836,0C721.644,3.51,471.45,110.444,284.927,301.457C151.463,438.187,60.038,609.199,21.264,795.314
			c-37.958,181.217-24.897,369.373,37.55,543.243c5.306,15.102,19.591,24.489,34.692,24.489c4.082,0,8.163-0.816,12.652-2.041
			c19.183-6.938,29.387-28.162,22.448-47.345C7.795,976.939,87.792,608.792,337.986,352.884
			C510.632,176.564,742.051,77.385,989.389,74.527z"/>
		<path class="cls-1" d="M1000,1999.755c259.989,0,519.57-100.403,715.072-300.396c133.873-136.729,224.89-307.742,263.663-493.857
			c37.958-181.217,24.897-369.373-37.55-543.243c-6.938-19.183-28.162-29.387-47.345-22.448s-29.386,28.162-22.448,47.345
			c120.812,336.722,40.814,704.87-209.379,960.777c-180.809,184.891-421.615,277.948-662.014,277.948
			c-233.46,0-467.328-87.752-646.912-263.255l-5.715-5.714l112.241-1.225c20.407-0.408,36.732-17.143,36.732-37.55
			c-0.407-20.407-16.733-36.732-37.141-36.732h-0.408l-202.033,2.448c-9.795,0-19.183,4.082-26.122,11.021
			s-10.612,16.325-10.612,26.121l2.449,201.624c0.408,20.408,16.734,36.733,37.142,36.733h0.408
			c20.407-0.408,36.733-17.142,36.733-37.55l-1.224-112.24l5.714,5.715C495.531,1905.474,747.766,1999.755,1000,1999.755z"/>
		<path class="cls-1" d="M1069.793,522.673c-7.347-19.999-14.693-39.591-22.448-59.59c-8.163-20.815-26.529-34.284-46.937-34.284
			c-13.061,0-25.305,5.306-35.101,14.693c-8.979,8.571-12.244,18.366-13.877,23.673l-0.408,1.224
			c-71.834,189.789-143.668,379.985-215.094,569.773l-117.954,311.824c-9.387,24.896-5.714,45.712,11.428,61.222
			c9.388,8.571,20.816,13.061,33.061,13.061c11.02,0,19.999-3.673,26.121-6.122l108.976-46.529
			c66.936-28.57,134.28-57.14,201.216-86.118c73.875,31.835,147.749,63.671,222.032,95.098l89.384,37.958
			c5.306,2.448,14.693,6.122,25.713,6.122c12.652,0,24.897-4.897,34.285-14.285c15.509-15.102,18.774-35.101,9.795-59.182
			c-83.262-222.031-166.523-444.472-249.786-666.911L1069.793,522.673z M1250.193,1312.845
			c-78.771-33.876-157.544-67.345-236.316-101.221c-4.489-2.041-9.795-2.856-14.693-2.856c-4.897,0-9.795,0.815-14.693,2.856
			c-71.834,31.02-143.668,61.63-215.501,92.241l-64.487,27.346l100.404-266.52C869.801,892.453,935.104,719.808,1000,547.569v0.408
			l60.813,162.442c77.548,206.931,155.097,413.861,232.644,620.383L1250.193,1312.845z"/>
</svg>
