<svg id="Layer_1" data-name="Layer 1" xmlns="http://www.w3.org/2000/svg" viewBox="0 0 2000 2000">
    <defs>
        <style>
            .cls-1 {
                fill: #e74a3e;
            }
            
            .cls-2 {
                fill: #181818;
            }
        </style>
    </defs>	
    <title>Business-Collection</title>
		<path class="cls-2" d="M1336.33,1028.587H663.266c-16.336,0-29.405-13.069-29.405-29.405V535.633
			c0-16.336,13.069-29.405,29.405-29.405h673.064c16.336,0,29.405,13.069,29.405,29.405v463.549
			C1365.735,1015.109,1352.666,1028.587,1336.33,1028.587z"/>
		<path class="cls-1" d="M97.615,1618.335h865.426v280.579H588.118c-20.421,0-37.166,16.745-37.166,37.166
			c0,20.42,16.745,37.165,37.166,37.165h823.768c20.421,0,37.166-16.745,37.166-37.165c0-20.421-16.745-37.166-37.166-37.166
			h-374.923v-280.579h865.427c53.91,0,97.61-43.7,97.61-97.611V359.199c0-53.911-43.7-97.611-97.61-97.611h-411.681
			c-20.42,0-37.165,16.745-37.165,37.166c0,20.42,16.745,37.165,37.165,37.165h411.271c13.07,0,23.688,10.619,23.688,23.688
			v1161.525c0,13.068-10.619,23.688-23.688,23.688H97.615c-13.069,0-23.688-10.619-23.688-23.688V359.199
			c0-13.069,10.619-23.688,23.688-23.688h412.497c20.421,0,37.166-16.745,37.166-37.166s-16.745-37.166-37.166-37.166H97.615
			c-53.911,0-97.611,43.7-97.611,97.611v1161.525C-0.404,1574.635,43.704,1618.335,97.615,1618.335z"/>
		<path class="cls-1" d="M693.08,1065.344h613.436c53.094,0,96.386-43.291,96.386-96.385v-403.92
			c0-53.094-43.292-96.386-96.386-96.386h-11.436v-146.62c0-162.957-132.326-295.282-295.282-295.282
			S704.516,159.077,704.516,322.033v147.028H693.08c-53.094,0-96.386,43.292-96.386,96.386v403.92
			C597.104,1022.461,639.986,1065.344,693.08,1065.344z M778.438,322.033c0-122.115,99.244-221.359,221.359-221.359
			s221.359,99.244,221.359,221.359v147.028H778.438V322.033L778.438,322.033z M671.025,565.447c0-12.253,9.803-22.055,22.055-22.055
			h613.436c12.252,0,22.055,9.802,22.055,22.055v403.92c0,12.252-9.803,22.054-22.055,22.054H693.08
			c-12.252,0-22.055-9.802-22.055-22.054V565.447L671.025,565.447z"/>
		<path class="cls-1" d="M967.533,772.921c4.084,3.267,5.31,6.126,5.31,11.027c0,23.279,0,46.967,0,70.246l0,0
			c0,19.195,20.421,33.898,40.841,23.688c8.577-4.493,13.479-13.886,13.069-23.688l0,0c0-23.279,0-46.967,0-70.246
			c0-5.31,1.226-8.577,5.718-11.437c14.703-10.618,22.055-25.729,22.055-43.699c-0.408-26.547-18.787-47.785-44.926-53.094
			c-23.688-4.901-49.01,8.576-59.22,31.447C939.353,730.445,946.296,756.992,967.533,772.921z"/>
</svg>
