<svg id="Layer_1" data-name="Layer 1" xmlns="http://www.w3.org/2000/svg" viewBox="0 0 2000 2000">
    <defs>
        <style>
            .cls-1 {
                fill: #e74a3e;
            }
            
            .cls-2 {
                fill: #181818;
            }
        </style>
    </defs>	
    <title>Business-Collection</title>
		<path class="cls-2" d="M739.281,754.658c0-6.952,6.135-10.634,13.496-7.361c17.586,7.771,34.762,15.541,51.939,23.72
			c179.947,81.795,359.895,163.589,539.842,245.383c4.498,2.045,8.997,4.09,8.997,10.225s-4.499,7.771-9.406,9.815
			c-75.251,30.264-150.093,60.119-225.343,90.383c-29.855,74.842-60.119,149.684-89.975,224.934
			c-2.045,4.499-3.68,9.406-9.814,9.406c-6.544,0.409-8.589-4.09-11.043-8.997c-88.746-196.307-177.493-392.612-265.831-588.51
			C740.917,760.384,738.872,757.93,739.281,754.658z"/>
		<path class="cls-1" d="M945.402,391.901c20.448-1.636,35.58-20.04,33.535-40.08c-2.045-20.448-20.039-35.58-40.079-33.535
			c-20.448,1.636-35.58,20.039-33.535,40.079c1.636,19.222,17.995,33.944,36.808,33.944
			C942.948,392.31,944.176,391.901,945.402,391.901z"/>
		<path class="cls-1" d="M991.616,1685.067c20.448,0,36.808-16.358,37.216-36.808c0.409-20.448-15.949-37.216-36.398-37.625
			c-20.448-0.409-37.216,15.95-37.625,36.398s15.95,37.217,36.398,37.625l0,0C991.207,1685.067,991.207,1685.067,991.616,1685.067z"
			/>
		<path class="cls-1" d="M394.927,1085.106c-2.862-20.448-21.675-34.354-42.124-31.49c-20.448,2.862-34.354,21.675-31.49,41.715
			c2.454,18.403,18.403,31.899,36.808,31.899c1.636,0,3.271,0,5.316-0.408C383.885,1124.368,397.79,1105.556,394.927,1085.106z"/>
		<path class="cls-1" d="M813.305,417.257c3.681,0,7.361-0.409,10.633-1.636c19.631-6.135,30.674-26.583,24.947-46.214
			c-6.134-19.631-26.583-30.673-46.213-24.947c-19.631,5.726-30.674,26.583-24.947,46.214
			C783.041,406.624,797.764,417.257,813.305,417.257z"/>
		<path class="cls-1" d="M316.404,957.099c-1.227,20.449,14.314,38.034,34.763,39.262c0.818,0,1.636,0,2.454,0
			c19.631,0,35.58-15.132,36.808-34.763c1.227-20.448-14.314-38.034-34.763-39.262C335.217,921.109,317.632,936.65,316.404,957.099z
			"/>
		<path class="cls-1" d="M1073.41,393.945c18.404,0,34.763-13.905,36.808-32.718c2.454-20.448-12.27-38.852-32.718-40.896
			c-20.448-2.454-38.853,12.269-40.896,32.717c-2.454,20.449,12.269,38.853,32.717,40.897
			C1070.139,393.945,1071.774,393.945,1073.41,393.945z"/>
		<path class="cls-1" d="M1201.01,421.756c15.54,0,30.264-9.815,35.171-25.356c6.544-19.631-4.09-40.488-23.72-46.623
			c-19.631-6.543-40.488,4.09-46.623,23.721c-6.544,19.631,4.09,40.488,23.721,46.623
			C1193.238,421.347,1197.328,421.756,1201.01,421.756z"/>
		<path class="cls-1" d="M499.624,1413.511c-15.132,13.905-15.95,37.217-2.045,52.349c7.361,7.77,17.177,11.859,26.992,11.859
			c8.997,0,17.994-3.271,24.947-9.814c15.132-13.905,15.949-37.217,2.045-52.349
			C538.067,1400.424,514.347,1399.605,499.624,1413.511z"/>
		<path class="cls-1" d="M560.151,475.331c-15.541,13.087-17.995,36.398-4.499,52.348c7.362,8.589,17.995,13.088,28.22,13.088
			c8.588,0,16.768-2.863,23.72-8.589c15.541-13.087,17.995-36.398,4.499-52.349C599.413,464.289,575.692,462.244,560.151,475.331z"
			/>
		<path class="cls-1" d="M1302.434,470.015c5.727,3.271,12.27,4.907,18.404,4.907c12.678,0,25.356-6.952,32.309-18.813
			c10.225-17.995,4.09-40.488-13.904-50.713c-17.995-10.224-40.488-4.09-50.713,13.905S1284.849,459.79,1302.434,470.015
			L1302.434,470.015z"/>
		<path class="cls-1" d="M390.02,1254.421c4.09,0,8.18-0.818,12.27-2.045c19.221-6.952,29.445-28.219,22.493-47.44
			s-28.22-29.446-47.44-22.493c-19.222,6.952-29.446,28.219-22.494,47.44C360.164,1245.015,374.479,1254.421,390.02,1254.421z"/>
		<path class="cls-1" d="M675.072,397.626c-17.994,9.815-24.947,32.31-15.132,50.304c6.952,12.27,19.631,19.631,32.718,19.631
			c5.726,0,11.86-1.227,17.586-4.499c17.994-9.815,24.947-32.309,15.132-50.304C715.561,394.764,693.067,387.811,675.072,397.626z"
			/>
		<path class="cls-1" d="M702.883,1577.1c-8.18,18.813,0,40.487,18.813,49.076c4.907,2.045,9.815,3.271,15.132,3.271
			c14.313,0,27.81-8.18,33.944-22.084c8.18-18.813,0-40.488-18.813-48.668C733.146,1549.698,711.062,1558.286,702.883,1577.1z"/>
		<path class="cls-1" d="M644.809,1496.94c-16.768-11.859-39.67-8.179-51.53,8.589s-8.18,39.67,8.588,51.53
			c6.544,4.499,13.905,6.952,21.676,6.952c11.451,0,22.902-5.316,30.264-15.54C665.257,1531.703,661.167,1508.801,644.809,1496.94z"
			/>
		<path class="cls-1" d="M861.154,1669.936c17.177,0,32.309-11.86,35.989-29.037c4.499-20.039-8.179-39.67-28.219-44.169l0,0
			c-20.04-4.498-39.67,8.18-44.169,28.22c-4.499,20.039,8.18,39.67,28.219,44.168l0,0
			C855.838,1669.526,858.7,1669.936,861.154,1669.936z"/>
		<path class="cls-1" d="M515.574,568.576c-15.95-12.678-39.262-10.225-51.939,6.135c-12.679,15.95-10.225,39.261,6.134,51.939
			c6.953,5.316,14.724,8.18,22.902,8.18c11.043,0,21.676-4.908,29.037-13.905C534.387,604.565,531.523,581.254,515.574,568.576z"/>
		<path class="cls-1" d="M1437.395,1426.188c-14.314,14.724-13.904,38.034,0.818,52.349c7.361,6.952,16.358,10.633,25.765,10.633
			c9.815,0,19.222-3.681,26.583-11.042c14.314-14.723,13.905-38.034-0.817-52.348
			C1475.02,1411.057,1451.709,1411.466,1437.395,1426.188z"/>
		<path class="cls-1" d="M1494.242,580.437c-16.359,12.269-19.631,35.58-7.362,51.939c7.362,9.815,18.404,14.723,29.446,14.723
			c7.771,0,15.541-2.454,22.493-7.361c16.359-12.27,19.631-35.581,7.362-51.939C1533.912,571.439,1510.601,568.167,1494.242,580.437
			z"/>
		<path class="cls-1" d="M1568.675,688.405c-18.404,8.588-26.175,31.081-17.586,49.485c6.544,13.496,19.63,21.267,33.536,21.267
			c5.316,0,10.633-1.228,15.949-3.681c18.404-8.998,26.174-31.082,17.586-49.486
			C1609.162,687.587,1587.078,679.816,1568.675,688.405z"/>
		<path class="cls-1" d="M438.688,674.909c-18.404-9.407-40.488-2.045-49.895,16.358s-2.045,40.488,16.358,49.895
			c5.316,2.862,11.042,4.09,16.768,4.09c13.496,0,26.583-7.361,33.127-20.449C464.452,706.399,457.091,683.906,438.688,674.909z"/>
		<path class="cls-1" d="M1399.77,489.645c-13.496,15.541-11.86,38.853,3.271,52.349c6.953,6.135,15.95,9.406,24.538,9.406
			c10.225,0,20.448-4.09,27.81-12.678c13.496-15.541,11.861-38.853-3.271-52.349C1436.576,472.468,1413.266,474.104,1399.77,489.645
			z"/>
		<path class="cls-1" d="M339.307,820.503c-5.316,19.63,6.135,40.079,26.175,45.396c3.271,0.817,6.543,1.227,9.815,1.227
			c16.358,0,31.082-11.042,35.58-27.4c5.316-19.631-6.135-40.08-26.174-45.396C365.072,789.012,344.624,800.463,339.307,820.503z"/>
		<path class="cls-1" d="M1342.922,1505.529c-16.768,11.451-21.266,34.354-9.814,51.53c7.361,10.634,18.813,16.358,30.672,16.358
			c7.362,0,14.314-2.044,20.858-6.543c16.768-11.451,21.267-34.354,9.815-51.53S1359.69,1494.078,1342.922,1505.529z"/>
		<path class="cls-1" d="M1604.255,1269.144c14.723,0,29.037-8.997,34.763-23.72c7.361-19.222-2.045-40.488-21.267-47.85
			s-40.488,2.045-47.85,21.267s2.045,40.487,21.267,47.85C1595.258,1268.326,1599.756,1269.144,1604.255,1269.144z"/>
		<path class="cls-1" d="M1675.416,1112.099c3.271-20.039-10.225-39.261-30.673-42.532c-20.04-3.272-39.262,10.224-42.533,30.672
			c-3.271,20.449,10.225,39.262,30.673,42.533c2.045,0.409,4.09,0.409,6.135,0.409
			C1656.604,1142.771,1672.145,1130.094,1675.416,1112.099z"/>
		<path class="cls-1" d="M446.049,1373.022c6.543,0,13.087-1.636,19.222-5.316c17.585-10.634,23.312-33.536,12.678-50.712
			c-10.633-17.586-33.536-23.312-50.712-12.679c-17.586,10.634-23.312,33.536-12.679,50.712
			C421.102,1366.479,433.37,1373.022,446.049,1373.022z"/>
		<path class="cls-1" d="M1565.402,1317.812c-17.177-11.042-40.079-5.726-51.121,11.451s-6.135,40.079,11.451,51.121
			c6.135,4.09,13.087,5.726,20.039,5.726c12.27,0,24.13-6.135,31.082-17.177C1587.487,1351.756,1582.579,1328.854,1565.402,1317.812
			z"/>
		<path class="cls-1" d="M1115.125,1600.002c-20.039,3.681-33.127,23.311-29.445,43.351c3.271,17.586,18.813,30.264,36.398,30.264
			c2.453,0,4.498-0.409,6.952-0.817c20.04-3.682,33.127-23.312,29.446-43.352
			C1154.387,1608.999,1135.165,1595.912,1115.125,1600.002z"/>
		<path class="cls-1" d="M1234.136,1564.012c-0.409,0-0.409,0-0.817,0.409l0,0c-18.813,7.771-27.811,29.446-20.04,48.259
			c5.726,14.313,19.631,22.902,34.354,22.902c4.499,0,9.406-0.818,13.905-2.863c0.409,0,0.409-0.408,0.818-0.408l0,0
			c18.813-7.771,27.81-29.446,20.039-48.259S1252.949,1556.241,1234.136,1564.012z"/>
		<path class="cls-1" d="M1619.796,809.46c-20.04,4.908-31.899,24.947-26.992,44.987c4.09,16.768,19.222,28.219,35.989,28.219
			c2.863,0,6.135-0.409,8.998-1.227c20.039-4.908,31.899-24.947,26.992-44.987C1659.875,816.413,1639.427,804.553,1619.796,809.46z"
			/>
		<path class="cls-1" d="M1645.561,937.877c-20.448,0.818-36.398,17.995-35.58,38.443c0.818,20.04,17.177,35.581,36.808,35.581
			c0.409,0,0.817,0,1.636,0c20.448-0.818,36.398-17.995,35.58-38.443C1683.187,953.009,1666.01,937.469,1645.561,937.877z"/>
		<path class="cls-1" d="M988.344,0.924c-267.058,3.272-516.939,110.013-703.43,301.002
			C151.18,438.523,59.98,609.474,21.127,795.556c-37.625,181.174-24.947,369.301,37.625,543.113
			c5.316,15.132,19.63,24.538,34.763,24.538c4.089,0,8.179-0.818,12.678-2.045c19.222-6.952,29.446-28.219,22.494-47.44
			C8.041,977.139,88.199,609.064,337.671,353.457C510.257,176.782,741.734,77.811,988.753,74.948
			c247.019-2.454,480.542,90.792,657.626,263.377l5.726,5.317l-112.058,1.227c-20.449,0.409-36.808,17.177-36.808,37.625
			c0.409,20.449,16.768,36.808,37.216,36.808h0.409l201.214-2.454c20.449-0.408,36.808-17.177,36.808-37.625l-2.045-201.214
			c-0.409-20.449-16.768-36.398-37.626-36.808c-20.448,0.409-36.807,17.177-36.807,37.625l1.227,112.058l-5.726-5.316
			C1507.329,98.668,1255.402-2.348,988.344,0.924z"/>
		<path class="cls-1" d="M352.803,1662.165l-5.726-5.316l112.059-1.227c20.448-0.409,36.808-17.177,36.808-37.626
			c0-20.448-17.177-36.398-37.626-36.808l-201.213,2.454c-20.449,0.409-36.808,17.177-36.808,37.626l2.454,201.214
			c0.409,20.448,16.768,36.807,37.216,36.807h0.409c20.449-0.408,36.808-17.177,36.808-37.625l-1.227-112.059l5.726,5.317
			c194.262,189.763,446.188,284.234,698.523,284.234c259.696,0,519.393-100.606,714.881-300.594
			c133.734-136.597,224.935-307.546,263.787-493.628c37.625-181.174,24.947-369.301-37.626-543.113
			c-6.952-19.222-28.219-29.446-47.44-22.494c-19.222,6.953-29.446,28.219-22.494,47.441
			c120.647,336.583,40.488,704.657-208.983,960.264C1304.888,2011.836,718.015,2018.788,352.803,1662.165z"/>
		<path class="cls-1" d="M715.151,722.35c-8.179,8.588-13.087,20.039-13.087,32.309c0,11.451,4.09,19.631,6.135,24.129
			l265.831,588.51c11.451,25.356,30.264,31.082,44.169,31.082c0.409,0,2.045,0,2.454,0c13.496-0.818,31.899-6.953,42.124-32.718
			l29.854-74.433c17.995-45.396,36.398-90.383,54.394-135.779c50.303-20.039,100.197-40.078,150.501-60.118l60.527-24.13
			c28.22-11.451,32.718-32.309,32.718-43.76c0-13.904-4.907-32.718-30.673-44.169c-139.05-62.981-277.691-126.372-416.741-189.354
			l-134.961-61.346c-13.496-6.134-26.992-12.269-40.488-18.403C749.096,705.173,728.238,708.854,715.151,722.35z M912.275,860.582
			c120.238,54.802,240.476,109.604,361.122,164.406l-3.681,1.227c-54.803,22.085-110.014,44.169-164.815,65.845
			c-9.406,3.681-17.177,11.451-20.857,20.857c-20.04,50.304-40.079,100.198-60.119,150.501l-7.361,17.995L804.308,811.914
			L912.275,860.582z"/>
</svg>
