<svg id="Layer_1" data-name="Layer 1" xmlns="http://www.w3.org/2000/svg" viewBox="0 0 2000 2000">
    <defs>
        <style>
            .cls-1 {
                fill: #e74a3e;
            }
            
            .cls-2 {
                fill: #181818;
            }
        </style>
    </defs>	
    <title>Business-Collection</title>
		<circle id="XMLID_4231_" class="cls-2" cx="293.877" cy="1537.347" r="257.143"/>
		<circle id="XMLID_4230_" class="cls-2" cx="1706.123" cy="1537.347" r="257.143"/>
		<circle id="XMLID_4216_" class="cls-2" cx="986.938" cy="306.735" r="257.143"/>
		<path class="cls-1" d="M1384.898,1853.266c-8.98-18.367-31.021-26.123-49.389-17.144
			c-105.714,51.021-219.592,77.144-337.959,77.144c-179.184,0-351.837-61.633-490.204-173.878
			c49.796-52.653,80.408-123.674,80.408-201.633c0-162.041-131.837-293.878-293.877-293.878S0,1375.714,0,1537.755
			s131.837,293.878,293.877,293.878c56.735,0,110.205-16.327,155.102-44.49c153.47,129.388,346.938,200,548.571,200
			c129.796,0,254.286-28.571,370.204-84.489C1386.123,1893.674,1393.877,1871.633,1384.898,1853.266z M73.877,1537.347
			c0-121.225,98.776-220,220-220s220,98.775,220,220s-98.776,220-220,220S73.877,1658.571,73.877,1537.347z"/>
		<path class="cls-1" d="M147.347,1095.715c-0.816,20.407,15.103,37.551,35.918,38.367c0.408,0,0.816,0,1.225,0
			c20,0,36.327-15.919,37.143-35.919c8.979-264.897,149.796-504.489,376.326-641.225c35.511-21.224,72.653-40,110.612-55.51
			c39.592,115.51,149.388,199.184,277.959,199.184c162.041,0,293.878-131.837,293.878-293.877
			c0-162.041-131.837-293.877-293.878-293.877c-162.04,0-293.877,131.836-293.877,293.877c0,7.347,0.408,14.286,0.816,21.224
			c-46.123,17.959-91.429,40-133.878,65.714C311.429,543.062,157.143,805.51,147.347,1095.715z M986.938,86.735
			c121.225,0,220,98.775,220,220c0,121.224-98.775,219.591-220,219.591c-121.224,0-220-98.775-220-220
			C766.938,185.102,865.307,86.735,986.938,86.735z"/>
		<path class="cls-1" d="M1706.123,1243.47c-162.041,0-293.878,131.836-293.878,293.877s131.837,293.878,293.878,293.878
			c162.04,0,293.877-131.837,293.877-293.878c0-113.877-65.307-213.062-160.408-261.633c8.163-48.163,12.653-97.143,12.653-146.122
			c0-289.796-145.306-557.143-388.571-715.51c-17.143-11.021-40-6.123-51.021,11.02c-11.021,17.144-6.122,40,11.021,51.021
			c222.449,144.49,355.102,388.571,355.102,653.47c0,40.408-3.266,80.816-9.388,120.816
			C1748.979,1245.918,1727.755,1243.47,1706.123,1243.47z M1926.123,1537.347c0,121.225-98.776,220-220,220
			c-121.225,0-220-98.775-220-220s98.775-220,220-220C1827.347,1317.347,1926.123,1416.122,1926.123,1537.347z"/>
</svg>
