<svg id="Layer_1" data-name="Layer 1" xmlns="http://www.w3.org/2000/svg" viewBox="0 0 2000 2000">
    <defs>
        <style>
            .cls-1 {
                fill: #e74a3e;
            }
            
            .cls-2 {
                fill: #181818;
            }
        </style>
    </defs>	
    <title>Business-Collection</title>
		<path id="XMLID_175_" class="cls-2" d="M999.59,518.671L999.59,518.671c-132.95,0-240.87-107.92-240.87-240.87l0,0
			c0-132.951,107.92-240.87,240.87-240.87l0,0c132.95,0,240.87,107.919,240.87,240.87l0,0
			C1240.46,410.751,1132.54,518.671,999.59,518.671z"/>
		<path id="XMLID_171_" class="cls-2" d="M999.59,1240.87L999.59,1240.87c-132.95,0-240.87-107.92-240.87-240.87l0,0
			c0-132.95,107.92-240.87,240.87-240.87l0,0c132.95,0,240.87,107.92,240.87,240.87l0,0
			C1240.46,1132.95,1132.54,1240.87,999.59,1240.87z"/>
		<path id="XMLID_169_" class="cls-2" d="M999.59,1963.069L999.59,1963.069c-132.95,0-240.87-107.919-240.87-240.87l0,0
			c0-132.95,107.92-240.87,240.87-240.87l0,0c132.95,0,240.87,107.92,240.87,240.87l0,0
			C1240.46,1855.15,1132.54,1963.069,999.59,1963.069z"/>
		<path class="cls-1" d="M1910.956,231.842h-391.465l158.802-158.802c14.361-14.362,14.361-38.162,0-52.523
			s-38.162-14.362-52.523,0l-222.404,222.405c-6.977,6.976-11.08,16.413-11.08,26.262c0,9.848,4.104,19.286,11.08,26.262
			L1625.77,517.85c7.386,7.387,16.824,11.079,26.262,11.079s18.876-3.692,26.262-11.079c14.361-14.361,14.361-38.161,0-52.523
			l-158.802-158.802h354.534v1378.744h-599.098c-18.055-135.822-134.591-240.87-275.338-240.87
			c-153.058,0-277.801,124.744-277.801,277.801c0,153.058,124.743,277.801,277.801,277.801
			c140.746,0,257.283-105.047,275.338-240.87h636.028c20.517,0,37.341-16.823,37.341-37.341V269.184
			C1948.297,248.256,1931.473,231.842,1910.956,231.842z M999.59,1925.729c-112.434,0-203.529-91.506-203.529-203.529
			c0-112.022,91.506-203.529,203.529-203.529s203.529,91.507,203.529,203.529C1203.119,1834.223,1112.023,1925.729,999.59,1925.729z
			"/>
		<path class="cls-1" d="M374.641,1482.15c-14.361-14.362-38.161-14.362-52.523,0c-14.361,14.361-14.361,38.161,0,52.523
			l158.802,158.802H125.975V314.731h598.276c18.056,135.822,134.592,240.87,275.339,240.87
			c153.057,0,277.801-124.744,277.801-277.801C1277.391,124.744,1152.646,0,999.59,0C858.843,0,742.307,105.047,724.251,240.87
			H89.044c-20.517,0-37.341,16.824-37.341,37.341v1453.016c0,20.518,16.824,37.342,37.341,37.342H481.33L322.527,1927.37
			c-14.361,14.361-14.361,38.161,0,52.523c7.387,7.386,16.824,11.079,26.262,11.079c9.438,0,18.876-3.693,26.262-11.079
			l222.405-222.404c6.976-6.977,11.079-16.414,11.079-26.263c0-9.848-4.104-19.285-11.079-26.262L374.641,1482.15z M999.59,74.271
			c112.434,0,203.529,91.506,203.529,203.529c0,112.023-91.506,203.528-203.529,203.528s-203.529-91.505-203.529-203.528
			C796.061,165.777,887.566,74.271,999.59,74.271z"/>
		<path class="cls-1" d="M999.59,722.199c-153.057,0-277.801,124.744-277.801,277.801s124.744,277.801,277.801,277.801
			s277.801-124.744,277.801-277.801C1277.801,846.943,1153.057,722.199,999.59,722.199z M999.59,1203.529
			c-112.434,0-203.529-91.506-203.529-203.529s91.506-203.529,203.529-203.529s203.529,91.506,203.529,203.529
			S1112.023,1203.529,999.59,1203.529z"/>
</svg>
