<svg id="Layer_1" data-name="Layer 1" xmlns="http://www.w3.org/2000/svg" viewBox="0 0 2000 2000">
    <defs>
        <style>
            .cls-1 {
                fill: #e74a3e;
            }
            
            .cls-2 {
                fill: #181818;
            }
        </style>
    </defs>	
    <title>Business-Collection</title>
		<path id="XMLID_274_" class="cls-2" d="M1385.054,1083.079l-49.685-835.268c-4.072-68.825-61.087-122.582-130.319-122.582
			H982.285h34.615H794.136c-68.825,0-126.247,53.757-130.319,122.582l-49.685,835.268"/>
		<path class="cls-1" d="M392.995,1046.427H37.06c-20.362,0-37.06,16.697-37.06,37.06s16.697,37.06,37.06,37.06h89.595v153.126
			c0,20.362,16.697,37.06,37.06,37.06h91.631v564.854c0,20.362,16.697,37.06,37.06,37.06h128.691c20.362,0,37.06-16.697,37.06-37.06
			c0-20.363-16.697-37.061-37.06-37.061h-92.038v-528.608h1338.22v527.794h-91.631c-20.362,0-37.06,16.697-37.06,37.061
			c0,20.362,16.697,37.06,37.06,37.06h128.691c20.361,0,37.059-16.697,37.059-37.06v-564.854h94.89
			c20.362,0,37.06-16.697,37.06-37.06v-153.126h89.595c20.362,0,37.06-16.697,37.06-37.06c0-20.363-16.697-37.061-37.06-37.061
			h-356.343l-43.576-241.091c-9.773-54.164-57.015-93.667-111.993-93.667h-50.906l-27.692-466.301
			c-5.295-88.373-78.6-157.198-166.973-157.198H794.543c-88.373,0-161.678,69.232-166.973,157.198l-27.692,466.301h-50.906
			c-54.979,0-102.22,39.503-111.993,93.667L392.995,1046.427z M1798.818,1236.204H200.774v-116.065h223.172l0,0l0,0h1151.293l0,0
			l0,0h223.173v116.065H1798.818z M1450.621,785.38c19.548,0,35.838,13.847,39.503,32.987l41.132,227.652H1419.67l-15.475-260.64
			H1450.621L1450.621,785.38z M701.283,249.847c2.851-49.277,43.982-87.966,93.26-87.966h410.507
			c49.277,0,90.409,38.689,93.26,87.966l47.648,796.58H653.635L701.283,249.847z M509.469,818.367
			c3.258-19.141,19.955-32.987,39.503-32.987h46.427l-15.476,260.64H468.336L509.469,818.367z"/>
		<path class="cls-1" d="M823.051,527.998h344.532c20.362,0,37.06-16.697,37.06-37.06s-16.697-37.06-37.06-37.06H823.051
			c-20.363,0-37.061,16.697-37.061,37.06S802.688,527.998,823.051,527.998z"/>
		<path class="cls-1" d="M1385.054,1472.409c20.362,0,37.06-16.697,37.06-37.06c0-20.363-16.697-37.061-37.06-37.061H614.539
			c-20.363,0-37.061,16.697-37.061,37.061c0,20.362,16.697,37.06,37.061,37.06h348.604v162.085H793.729
			c-20.362,0-37.06,16.697-37.06,37.06v203.624c0,20.363,16.697,37.06,37.06,37.06s37.06-16.696,37.06-37.06v-166.564h132.763
			v166.564c0,20.363,16.697,37.06,37.061,37.06c20.362,0,37.06-16.696,37.06-37.06v-166.564h132.763v166.564
			c0,20.363,16.697,37.06,37.06,37.06s37.06-16.696,37.06-37.06v-203.624c0-20.362-16.697-37.06-37.06-37.06h-169.415v-162.085
			H1385.054z"/>
</svg>
