<svg id="Layer_1" data-name="Layer 1" xmlns="http://www.w3.org/2000/svg" viewBox="0 0 2000 2000">
    <defs>
        <style>
            .cls-1 {
                fill: #e74a3e;
            }
            
            .cls-2 {
                fill: #181818;
            }
        </style>
    </defs>	
    <title>Business-Collection</title>
		<circle class="cls-2" cx="1000.002" cy="999.847" r="240.037"/>
		<g>
			<path class="cls-1" d="M1000.002,1276.624c-152.677,0-276.777-124.101-276.777-276.777
				c0-152.676,124.101-276.776,276.777-276.776s276.777,124.101,276.777,276.776
				C1276.779,1152.523,1152.679,1276.624,1000.002,1276.624z M1000.002,796.959c-111.854,0-202.889,91.034-202.889,202.888
				c0,111.854,91.035,202.889,202.889,202.889s202.889-91.034,202.889-202.889C1202.891,887.993,1111.855,796.959,1000.002,796.959z
				"/>
		</g>
		<path class="cls-1" d="M1000.002,560.596c20.411,0,37.148-16.737,37.148-37.148V126.244l82.462,82.461
			c7.348,7.349,16.737,11.022,26.126,11.022c9.39,0,18.779-3.674,26.127-11.022c14.287-14.288,14.287-37.965,0-52.252
			L1026.129,10.716c-14.288-14.288-37.966-14.288-52.254,0L828.139,156.453c-14.287,14.288-14.287,37.965,0,52.252
			c14.288,14.288,37.965,14.288,52.253,0l82.462-82.461v397.204C962.854,544.267,979.591,560.596,1000.002,560.596z"/>
		<path class="cls-1" d="M828.139,1843.241l145.737,145.737c7.348,7.348,16.737,11.021,26.126,11.021
			c9.39,0,18.778-3.674,26.127-11.021l145.736-145.737c14.287-14.288,14.287-37.965,0-52.253c-14.288-14.287-37.965-14.287-52.253,0
			l-82.462,82.462v-397.204c0-20.411-16.737-37.148-37.148-37.148s-37.148,16.737-37.148,37.148v397.204l-82.462-82.462
			c-14.288-14.288-37.965-14.288-52.253,0C813.852,1805.276,813.852,1828.545,828.139,1843.241z"/>
		<path class="cls-1" d="M156.607,1171.71c7.348,7.348,16.737,11.022,26.126,11.022s18.779-3.674,26.126-11.022
			c14.288-14.288,14.288-37.965,0-52.253l-82.461-82.461h397.204c20.411,0,37.148-16.738,37.148-37.149
			s-16.737-37.148-37.148-37.148H126.399l82.461-82.462c14.288-14.287,14.288-37.965,0-52.252
			c-14.288-14.288-37.965-14.288-52.253,0L10.871,973.721c-14.288,14.288-14.288,37.965,0,52.253L156.607,1171.71z"/>
		<path class="cls-1" d="M1439.253,999.847c0,20.411,16.737,37.149,37.148,37.149h397.204l-82.462,82.461
			c-14.288,14.288-14.288,37.965,0,52.253c7.349,7.348,16.737,11.022,26.126,11.022c9.39,0,18.779-3.674,26.127-11.022
			l145.736-145.736c14.288-14.288,14.288-37.965,0-52.253l-145.736-145.736c-14.288-14.288-37.965-14.288-52.253,0
			c-14.288,14.287-14.288,37.965,0,52.252l82.462,82.462h-397.204C1455.582,962.698,1439.253,979.436,1439.253,999.847z"/>
		<path class="cls-1" d="M562.384,318.926c0-20.411-16.737-37.148-37.148-37.148H319.081c-20.411,0-37.148,16.737-37.148,37.148
			V525.08c0,20.412,16.737,37.148,37.148,37.148s37.149-16.736,37.149-37.148V408.328L637.09,689.188
			c7.348,7.348,16.736,11.021,26.126,11.021c9.389,0,18.778-3.674,26.126-11.021c14.288-14.288,14.288-37.965,0-52.253
			L408.482,356.075h116.753C545.646,356.075,562.384,339.338,562.384,318.926z"/>
		<path class="cls-1" d="M1310.662,1362.76l280.859,280.859h-116.753c-20.411,0-37.148,16.737-37.148,37.148
			s16.737,37.148,37.148,37.148h206.154c20.411,0,37.148-16.737,37.148-37.148v-206.154c0-20.411-16.737-37.148-37.148-37.148
			s-37.149,16.737-37.149,37.148v116.753l-280.859-280.859c-14.287-14.288-37.965-14.288-52.252,0
			C1295.966,1324.795,1295.966,1348.063,1310.662,1362.76z"/>
		<path class="cls-1" d="M319.081,1437.465c-20.411,0-37.148,16.737-37.148,37.148v206.154c0,20.411,16.737,37.148,37.148,37.148
			h206.154c20.411,0,37.148-16.737,37.148-37.148s-16.737-37.148-37.148-37.148H408.482l280.859-280.859
			c14.288-14.288,14.288-37.965,0-52.253c-14.287-14.288-37.965-14.288-52.252,0L356.23,1591.366v-116.753
			C356.23,1454.202,339.492,1437.465,319.081,1437.465z"/>
		<path class="cls-1" d="M1310.662,689.188c7.348,7.348,16.737,11.021,26.126,11.021c9.39,0,18.778-3.674,26.126-11.021
			l280.859-280.859V525.08c0,20.412,16.738,37.148,37.149,37.148s37.148-16.736,37.148-37.148V318.926
			c0-20.411-16.737-37.148-37.148-37.148h-206.154c-20.411,0-37.148,16.737-37.148,37.148c0,20.412,16.737,37.149,37.148,37.149
			h116.753l-280.859,280.859C1295.966,651.631,1295.966,674.899,1310.662,689.188z"/>
</svg>
