<svg id="Layer_1" data-name="Layer 1" xmlns="http://www.w3.org/2000/svg" viewBox="0 0 2000 2000">
    <defs>
        <style>
            .cls-1 {
                fill: #e74a3e;
            }
            
            .cls-2 {
                fill: #181818;
            }
        </style>
    </defs>	
    <title>Business-Collection</title>
		<path id="XMLID_113_" class="cls-2" d="M1548.891,103.351h397.504c8.66,0,16.082,7.422,16.082,16.082v1024.272
			c0,8.659-7.422,16.082-16.082,16.082h-397.504c-8.658,0-16.081-7.423-16.081-16.082V119.433
			C1532.81,110.773,1539.819,103.351,1548.891,103.351z"/>
		<path class="cls-1" d="M826.457,1916.033c53.605,39.174,116.282,49.895,169.475,49.895c62.266,0,110.51-14.845,114.221-16.082
			c15.67-4.947,25.979-19.38,25.979-35.462v-353.382c0-119.993,56.903-221.432,169.475-301.839
			c87.006-62.265,176.073-87.83,176.897-88.243c0.825,0,1.237-0.412,2.062-0.824l21.03-7.01
			c12.37,20.205,34.225,33.813,59.79,33.813h364.929c38.349,0,69.687-31.339,69.687-69.687V135.514
			c0-38.348-31.338-69.687-69.687-69.687h-365.341c-32.988,0-60.615,23.092-67.625,53.605
			c-49.069-52.368-118.756-85.356-196.277-85.356H435.963c-183.907,0-301.426,96.077-322.043,263.903L3.41,999.796
			c-16.082,101.851,25.565,204.938,106.386,262.666c45.771,32.987,99.788,50.307,156.28,50.307h449.871v328.229
			C715.947,1769.65,753.059,1862.016,826.457,1916.033z M1570.333,140.875h355.032v981.801h-355.032V140.875z M266.076,1238.133
			c-40.823,0-79.583-12.37-112.571-36.286c-57.729-41.647-87.83-116.282-75.872-190.505l110.097-702.229c0-0.413,0-0.825,0-1.237
			c20.205-164.115,145.972-198.752,248.233-198.752h865.107c107.21,0,194.216,87.005,194.216,194.216v784.286l-34.226,11.546
			c-11.957,3.299-103.911,31.338-197.102,97.727c-132.364,94.016-202.463,219.781-202.463,363.691v324.105
			c-42.473,8.247-128.24,16.906-190.918-29.277c-52.78-38.761-79.583-110.921-79.583-214.421v-365.753
			c0-20.617-16.906-37.523-37.523-37.523H266.076V1238.133L266.076,1238.133z"/>
</svg>
