<svg id="Layer_1" data-name="Layer 1" xmlns="http://www.w3.org/2000/svg" viewBox="0 0 2000 2000">
    <defs>
        <style>
            .cls-1 {
                fill: #e74a3e;
            }
            
            .cls-2 {
                fill: #181818;
            }
        </style>
    </defs>	
    <title>Business-Collection</title>
		<circle class="cls-2" cx="1000" cy="999.183" r="547.2"/>
		<path class="cls-1" d="M1944.83,767.062c12.26-23.702,14.304-50.674,6.13-76.012c-8.173-25.337-25.745-45.77-49.448-58.03
			l-221.495-112.382c-7.356-3.679-12.261-10.626-13.486-18.799l-39.231-245.607c-7.765-48.631-49.04-84.185-98.079-84.185
			c-5.313,0-10.626,0.409-15.938,1.226l-245.198,39.231c-8.173,1.226-16.347-1.634-22.067-7.355L1070.29,29.424
			C1051.492,10.625,1026.563,0,1000,0s-51.492,10.217-70.29,29.424L753.984,205.149c-5.721,5.721-13.895,8.582-22.067,7.355
			l-245.198-39.231c-5.313-0.817-10.625-1.226-15.938-1.226c-49.448,0-90.723,35.554-98.079,84.185l-38.823,245.606
			c-1.226,8.174-6.538,15.121-13.485,18.799L98.896,633.02c-23.702,12.261-41.275,32.693-49.448,58.03
			c-8.173,25.338-6.13,52.31,6.13,76.012l113.2,221.087c3.678,7.356,3.678,15.938,0,23.294L55.17,1232.938
			c-12.26,23.702-14.304,50.674-6.13,76.011c8.173,25.338,25.746,45.771,49.449,58.031l221.495,112.382
			c7.356,3.678,12.261,10.625,13.486,18.799l38.414,245.606c7.765,48.631,49.04,84.186,98.079,84.186
			c5.313,0,10.626-0.409,15.938-1.227l245.198-39.231c8.173-1.226,16.347,1.635,22.067,7.355l175.726,175.726
			c18.799,18.799,43.727,29.424,70.29,29.424s51.491-10.217,70.29-29.424l175.726-175.726c5.722-5.721,13.895-8.582,22.067-7.355
			l245.199,39.231c5.313,0.817,10.625,1.227,15.938,1.227c49.448,0,90.723-35.555,98.079-84.186l38.823-245.606
			c1.226-8.174,6.538-15.121,13.485-18.799l221.496-112.382c23.702-12.261,41.274-32.693,49.448-58.031
			c8.174-25.337,6.13-52.309-6.13-76.011l-113.2-221.087c-3.678-7.356-3.678-15.938,0-23.294L1944.83,767.062z M1765.836,1045.361
			l113.199,221.087c3.27,6.13,3.679,13.077,1.635,19.616c-2.043,6.539-6.538,11.852-12.668,14.712l-221.496,112.791
			c-28.197,14.304-48.223,41.684-53.126,73.151l-38.823,245.606c-2.043,13.485-15.121,23.702-29.016,21.251l-245.197-39.232
			c-5.313-0.817-10.626-1.226-15.529-1.226c-26.563,0-51.492,10.217-70.291,29.424l-175.725,175.726
			c-9.809,9.808-26.563,9.808-35.963,0L807.11,1742.542c-18.39-18.39-44.136-29.424-70.29-29.424
			c-5.313,0-10.625,0.408-15.529,1.226l-245.198,39.232c-13.895,2.043-26.972-7.765-29.015-21.251l-38.414-245.606
			c-4.904-31.468-24.929-58.848-53.127-73.151l-221.496-112.382c-6.13-3.27-10.625-8.174-12.668-14.713
			c-2.043-6.538-1.635-13.485,1.635-19.615l113.2-221.087c14.303-28.198,14.303-62.117,0-90.724L121.373,733.551
			c-3.27-6.13-3.678-13.077-1.635-19.615c2.043-6.539,6.539-11.852,12.669-14.712l221.495-112.383
			c28.198-14.303,48.223-41.684,53.127-73.15l38.414-245.607c2.043-13.485,15.529-23.293,29.016-21.25l245.197,39.231
			c5.313,0.817,10.626,1.226,15.529,1.226l0,0c26.563,0,51.492-10.216,70.291-29.424L981.201,82.142
			c9.809-9.808,26.563-9.808,35.963,0l175.725,175.725c22.068,22.477,55.17,33.102,86.229,27.789l245.198-39.231
			c13.895-2.043,26.972,7.764,29.015,21.25l38.823,245.606c4.904,31.468,24.929,58.848,53.126,73.151l221.496,112.382
			c6.13,3.27,10.625,8.174,12.669,14.712c2.043,6.539,1.635,13.486-1.635,19.616l-113.2,221.087
			C1751.124,983.245,1751.124,1016.755,1765.836,1045.361z"/>
		<path class="cls-1" d="M1050.674,962.403H948.917c-40.866,0-74.377-33.511-74.377-74.377s33.511-74.377,74.377-74.377h178.995
			c20.433,0,37.188-16.755,37.188-37.188s-16.755-37.188-37.188-37.188h-91.541v-69.064c0-20.433-16.755-37.188-37.188-37.188
			c-20.433,0-37.188,16.756-37.188,37.188v69.064H948.1c-81.732,0-148.345,66.612-148.345,148.345
			c0,81.733,66.612,148.346,148.345,148.346h101.758c40.866,0,74.377,33.51,74.377,74.376s-33.511,74.377-74.377,74.377H867.185
			c-20.434,0-37.188,16.756-37.188,37.188c0,20.434,16.755,37.188,37.188,37.188h94.81v70.29c0,20.434,16.756,37.188,37.188,37.188
			c20.434,0,37.188-16.755,37.188-37.188v-70.29h13.895c81.732,0,148.345-66.612,148.345-148.345
			C1199.02,1029.016,1132.407,962.403,1050.674,962.403z"/>
		<path class="cls-1" d="M1289.334,579.076c6.539,4.495,13.895,6.539,20.842,6.539c11.852,0,23.294-5.722,30.649-15.938
			c11.852-16.755,7.356-40.049-9.399-51.491c-16.755-11.442-40.049-7.355-51.491,9.399S1272.578,567.634,1289.334,579.076z"/>
		<path class="cls-1" d="M1409.072,673.069c8.582,0,17.572-2.861,24.52-9.399c15.121-13.486,16.756-36.78,3.27-52.31
			c-13.486-15.12-37.188-16.755-52.309-2.86c-15.121,13.486-16.756,36.78-2.861,52.31
			C1388.639,668.982,1398.855,673.069,1409.072,673.069z"/>
		<path class="cls-1" d="M1181.855,1476.093c-19.207,7.356-28.606,28.606-21.251,47.814c5.722,14.712,19.616,23.702,34.737,23.702
			c4.495,0,8.99-0.817,13.076-2.452c19.208-7.355,28.607-28.606,21.251-47.813
			C1222.313,1478.545,1201.063,1468.737,1181.855,1476.093z"/>
		<path class="cls-1" d="M1290.56,1418.472c-16.755,11.851-20.842,34.736-9.399,51.491c7.356,10.217,18.799,15.938,30.65,15.938
			c7.355,0,14.712-2.044,21.25-6.539c16.756-11.851,20.842-34.736,9.399-51.491
			C1330.609,1411.115,1307.315,1407.029,1290.56,1418.472z"/>
		<path class="cls-1" d="M820.188,1476.91c-19.207-7.355-40.457,2.452-47.813,21.659c-7.355,19.207,2.452,40.458,21.659,47.813
			c4.087,1.635,8.582,2.452,13.078,2.452c15.12,0,29.015-8.99,34.736-24.11C848.795,1505.517,839.396,1483.857,820.188,1476.91z"/>
		<path class="cls-1" d="M1062.525,1505.517c-20.434,2.452-34.736,20.842-32.284,41.275c2.452,18.799,18.39,32.693,36.78,32.693
			c1.634,0,2.86,0,4.494-0.409c20.434-2.452,34.737-20.842,32.285-41.275C1101.349,1517.776,1082.959,1503.064,1062.525,1505.517z"
			/>
		<path class="cls-1" d="M939.518,1505.926L939.518,1505.926c-20.433-2.452-38.823,12.26-41.275,32.693
			c-2.451,20.433,12.261,38.822,32.285,40.866c1.635,0,2.86,0.408,4.495,0.408c18.39,0,34.327-13.895,36.78-32.693
			C974.663,1526.768,959.951,1508.378,939.518,1505.926z"/>
		<path class="cls-1" d="M1495.301,876.584L1495.301,876.584c4.086,16.755,19.207,28.197,35.962,28.197
			c2.86,0,6.13-0.408,8.991-1.226c20.023-4.904,31.875-24.929,26.971-44.953c-4.903-20.024-24.928-31.876-44.952-26.972
			C1502.656,836.534,1490.396,856.559,1495.301,876.584z"/>
		<path class="cls-1" d="M1547.201,961.586c-20.434,0-37.189,16.755-37.189,37.188c0,20.433,16.756,37.188,37.189,36.779
			c20.433,0,37.188-16.755,36.779-37.188C1584.389,977.932,1567.634,961.586,1547.201,961.586z"/>
		<path class="cls-1" d="M1540.254,1093.584c-20.025-4.904-40.05,7.355-44.953,26.972c-4.904,20.024,7.355,40.049,26.972,44.953
			c2.86,0.817,5.721,1.226,8.99,1.226c16.755,0,31.876-11.442,35.962-28.197C1572.538,1118.104,1560.277,1098.488,1540.254,1093.584
			z"/>
		<path class="cls-1" d="M1484.267,781.365c5.722,0,11.851-1.227,17.164-4.087c17.981-9.399,24.929-31.876,15.529-49.857
			c-9.809-17.98-31.876-24.928-49.857-15.528c-17.981,9.398-24.929,31.875-15.529,49.856
			C1458.111,774.418,1471.189,781.365,1484.267,781.365z"/>
		<path class="cls-1" d="M1382.509,1336.739c-13.485,15.12-12.26,38.822,3.27,52.309c6.947,6.13,15.938,9.399,24.521,9.399
			c10.216,0,20.433-4.087,27.789-12.669c13.485-15.529,12.26-38.823-3.27-52.309
			C1419.289,1319.983,1395.995,1321.618,1382.509,1336.739z"/>
		<path class="cls-1" d="M1502.248,1219.861c-17.981-9.399-40.458-2.452-49.857,15.529c-9.399,17.98-2.452,40.457,15.529,49.856
			c5.313,2.86,11.442,4.087,17.164,4.087c13.485,0,26.154-7.356,32.693-20.024
			C1527.176,1251.736,1520.229,1229.669,1502.248,1219.861z"/>
		<path class="cls-1" d="M590.52,673.478c10.216,0,20.433-4.087,27.789-12.26c13.485-15.12,12.26-38.823-3.27-52.309
			c-15.529-13.486-38.823-12.261-52.309,3.269c-13.486,15.121-12.261,38.823,3.269,52.31
			C572.946,670.617,581.528,673.478,590.52,673.478z"/>
		<path class="cls-1" d="M498.569,1221.904c-17.98,9.808-24.928,31.876-15.528,50.266c6.538,12.669,19.615,19.616,32.692,19.616
			c5.722,0,11.852-1.227,17.164-4.087c17.981-9.399,24.929-31.876,15.529-49.857C539.027,1219.452,516.96,1212.505,498.569,1221.904
			z"/>
		<path class="cls-1" d="M504.699,1122.6c-4.903-20.025-24.928-31.876-44.952-26.973c-20.024,4.904-31.876,24.929-26.972,44.953
			c4.086,16.756,19.207,28.198,35.962,28.198c2.86,0,6.13-0.409,8.99-1.227C497.752,1162.648,510.013,1142.624,504.699,1122.6z"/>
		<path class="cls-1" d="M459.747,904.373c2.86,0.817,6.13,1.226,8.99,1.226c16.755,0,31.876-11.442,35.962-28.197
			c4.904-20.025-7.355-40.05-26.972-44.953c-20.024-4.904-40.049,7.355-44.952,26.972
			C427.871,879.444,439.723,899.469,459.747,904.373z"/>
		<path class="cls-1" d="M452.8,1038.006c20.433,0,36.779-16.756,36.779-37.188c0-0.409,0-0.409,0-0.817c0-0.409,0-0.409,0-0.817
			c0-20.434-16.755-37.188-37.188-37.188s-36.779,16.755-36.779,37.188c0,0.409,0,0.409,0,0.817s0,0.408,0,0.817
			C416.02,1021.25,432.366,1038.006,452.8,1038.006L452.8,1038.006z"/>
		<path class="cls-1" d="M498.161,777.687c5.722,2.861,11.442,4.087,17.164,4.087c13.485,0,26.154-7.355,32.692-19.615
			c9.399-17.981,2.452-40.458-15.529-49.857c-17.98-9.399-40.457-2.452-49.856,15.529S480.18,768.288,498.161,777.687z"/>
		<path class="cls-1" d="M566.816,1335.513c-15.12,13.486-16.755,37.188-2.86,52.309c7.355,8.174,17.572,12.261,27.789,12.261
			c8.99,0,17.572-2.861,24.52-9.399c15.121-13.486,16.755-37.188,2.86-52.31C605.23,1323.253,581.938,1322.027,566.816,1335.513z"/>
		<path class="cls-1" d="M933.388,493.257c1.635,0,2.86,0,4.495-0.408c20.434-2.452,34.736-20.842,32.285-41.275
			c-2.452-20.433-20.842-34.736-41.275-32.284s-34.736,20.842-32.284,41.275C899.061,479.362,914.998,493.257,933.388,493.257z"/>
		<path class="cls-1" d="M1060.891,492.849c1.635,0,2.861,0.408,4.496,0.408c18.39,0,34.327-13.895,36.779-32.692
			c2.452-20.434-12.26-38.823-32.284-41.275c-20.434-2.452-38.823,12.26-41.275,32.284
			C1026.154,472.007,1040.866,490.396,1060.891,492.849z"/>
		<path class="cls-1" d="M1180.629,521.863c4.087,1.635,8.582,2.452,13.078,2.452c15.12,0,29.015-8.99,34.736-24.111
			c7.355-19.207-2.452-40.458-21.659-47.813c-19.208-7.355-40.458,2.452-47.813,21.659
			C1151.614,493.257,1161.422,514.916,1180.629,521.863z"/>
		<path class="cls-1" d="M805.477,524.725c4.495,0,8.99-0.817,13.077-2.452c19.207-7.356,28.606-28.606,21.659-47.813
			c-7.356-19.208-28.606-28.607-47.814-21.66l0,0c-19.207,7.356-28.605,28.607-21.25,47.814
			C776.461,515.733,790.764,524.725,805.477,524.725z"/>
		<path class="cls-1" d="M711.075,1419.697c-16.756-11.442-40.05-7.355-51.492,9.399s-7.355,40.049,9.399,51.491
			c6.539,4.496,13.895,6.539,20.842,6.539c11.852,0,23.294-5.721,30.65-15.938C732.325,1454.434,728.238,1431.549,711.075,1419.697z
			"/>
		<path class="cls-1" d="M689.007,586.023c7.356,0,14.712-2.043,21.251-6.538c16.755-11.443,20.842-34.736,9.398-51.492
			c-11.851-16.755-34.736-20.842-51.491-9.399c-16.755,11.852-20.842,34.736-9.399,51.492
			C665.713,580.711,677.156,586.023,689.007,586.023z"/>
</svg>
