<svg id="Layer_1" data-name="Layer 1" xmlns="http://www.w3.org/2000/svg" viewBox="0 0 2000 2000">
    <defs>
        <style>
            .cls-1 {
                fill: #e74a3e;
            }
            
            .cls-2 {
                fill: #181818;
            }
        </style>
    </defs>	
    <title>Business-Collection</title>
	<path class="cls-2" id="XMLID_1220_" d="M1299.512,1458.399H799.007c-90.776,0-164.79-74.011-164.79-164.79V682.701
		c0-90.779,74.013-164.792,164.79-164.792h1001.01c90.778,0,164.789,74.013,164.789,164.792v610.909
		c0,90.779-74.011,164.79-164.789,164.79H1232.86"/>
	<path class="cls-1" d="M799.007,1495.201h1001.01c111.224,0,201.591-90.367,201.591-202v-610.5c0-111.224-90.367-202-201.591-202H799.007
		c-111.222,0-201.591,90.367-201.591,202v610.909C597.007,1404.834,687.786,1495.201,799.007,1495.201z M671.429,682.701
		c0-70.333,57.247-127.581,127.578-127.581h1001.01c70.333,0,127.58,57.248,127.58,127.581v610.909
		c0,70.334-57.247,127.581-127.58,127.581H1232.86H799.007c-70.331,0-127.578-57.247-127.578-127.581V682.701L671.429,682.701z"/>
	<path class="cls-1" d="M800.235,1294.836c7.359,8.178,17.583,12.677,27.805,12.677c8.587,0,17.582-2.861,24.535-9.404l320.175-282.147
		l103.864,80.555c6.541,5.316,14.719,7.771,22.897,7.771c8.178,0,15.949-2.454,22.901-7.771l107.131-83.008l316.904,284.191
		c6.952,6.543,15.949,9.404,24.534,9.404c10.223,0,20.445-4.09,27.81-12.268c13.493-15.129,12.267-38.846-2.863-52.34
		l-306.682-275.194l305.044-236.76c16.356-12.674,19.22-35.983,6.545-51.93c-12.679-16.356-35.987-19.219-51.932-6.543
		l-449.393,348.799l-105.498-82.189l0,0l-343.074-266.2c-16.356-12.677-39.255-9.813-51.932,6.543
		c-12.676,16.356-9.813,39.253,6.543,51.93l307.908,239.211l-309.543,272.744C787.968,1256.398,786.74,1279.707,800.235,1294.836z"/>
	<path class="cls-1" d="M480.877,1025.365c20.446,0,37.211-16.766,37.211-37.211s-16.766-37.209-37.211-37.209H186.463
		c-20.445,0-37.211,16.764-37.211,37.209s16.766,37.211,37.211,37.211H480.877z"/>
	<path class="cls-1" d="M37.211,829.499h443.666c20.446,0,37.211-16.766,37.211-37.211c0-20.446-16.766-37.211-37.211-37.211H37.211
		C16.766,755.076,0,771.842,0,792.288C0.409,812.733,16.766,829.499,37.211,829.499z"/>
	<path class="cls-1" d="M518.088,1184.023c0-20.445-16.766-37.211-37.211-37.211H287.055c-20.445,0-37.211,16.766-37.211,37.211
		s16.766,37.209,37.211,37.209h193.822C501.323,1221.232,518.088,1204.469,518.088,1184.023z"/>
</svg>
