<svg id="Layer_1" data-name="Layer 1" xmlns="http://www.w3.org/2000/svg" viewBox="0 0 2000 2000">
    <defs>
        <style>
            .cls-1 {
                fill: #e74a3e;
            }
            
            .cls-2 {
                fill: #181818;
            }
        </style>
    </defs>	
    <title>Business-Collection</title>
		<path id="XMLID_1322_" class="cls-2" d="M768.634,572.392h474.168c15.928,0,28.589-12.661,28.589-28.589V264.448
			c0-15.52-12.661-28.589-28.589-28.589H768.634c-15.928,0-28.589,13.069-28.589,28.589v279.355
			C740.045,559.322,752.706,572.392,768.634,572.392z"/>
		<path class="cls-1" d="M2000,1706.555v-93.526c0-52.276-42.475-94.752-94.752-94.752h-70.247v-130.692
			c0-20.42-16.745-37.165-37.165-37.165h-201.348v-99.653h108.229c52.277,0,94.752-42.475,94.752-94.752v-141.719
			c0-52.277-42.475-94.752-94.752-94.752h-108.229V764.346c0-20.421-16.746-37.166-37.166-37.166h-517.052V609.148h171.126
			c52.276,0,94.752-42.475,94.752-94.752V293.445c0-52.277-42.476-94.751-94.752-94.751H797.631
			c-52.276,0-94.752,42.475-94.752,94.751v221.36c0,52.277,42.476,94.752,94.752,94.752h171.125v118.031H440.678
			c-20.42,0-37.165,16.745-37.165,37.166v155.197H295.691c-52.277,0-94.752,42.475-94.752,94.752v141.719
			c0,52.277,42.475,94.752,94.752,94.752h108.229v99.653H202.165c-20.42,0-37.166,16.745-37.166,37.165v130.692H94.752
			C42.475,1518.685,0,1561.16,0,1613.437v93.118c0,52.277,42.475,94.752,94.752,94.752h214.417
			c52.276,0,94.752-42.475,94.752-94.752v-93.526c0-52.276-42.476-94.752-94.752-94.752H239.33v-93.935h403.104v93.935h-70.246
			c-52.277,0-94.752,42.476-94.752,94.752v93.526c0,52.277,42.475,94.752,94.752,94.752h214.416
			c52.277,0,94.752-42.475,94.752-94.752v-93.526c0-52.276-42.475-94.752-94.752-94.752h-70.246v-130.692
			c0-20.42-16.745-37.165-37.166-37.165H477.844v-99.653h108.229c52.276,0,94.752-42.475,94.752-94.752v-141.719
			c0-52.277-42.476-94.752-94.752-94.752H477.844V801.511h490.912v118.032H855.218c-52.277,0-94.752,42.475-94.752,94.752v141.719
			c0,52.277,42.475,94.752,94.752,94.752H1145.6c52.276,0,94.752-42.475,94.752-94.752v-141.719
			c0-52.277-42.476-94.752-94.752-94.752h-102.92V801.511h480.293v118.032h-108.229c-52.277,0-94.752,42.475-94.752,94.752v141.719
			c0,52.277,42.475,94.752,94.752,94.752h108.229v99.653h-201.348c-20.42,0-37.165,16.745-37.165,37.165v130.692h-70.247
			c-52.277,0-94.752,42.476-94.752,94.752v93.526c0,52.277,42.475,94.752,94.752,94.752h214.417
			c52.276,0,94.752-42.475,94.752-94.752v-93.526c0-52.276-42.476-94.752-94.752-94.752h-70.247v-93.935h403.104v93.935h-70.247
			c-52.276,0-94.752,42.476-94.752,94.752v93.526c0,52.277,42.476,94.752,94.752,94.752h214.417
			C1957.525,1801.307,2000,1758.832,2000,1706.555z M776.802,514.805v-221.36c0-11.027,9.394-20.42,20.421-20.42h416.174
			c11.026,0,20.42,9.394,20.42,20.42v221.36c0,11.027-9.394,20.421-20.42,20.421H797.631
			C786.195,535.226,776.802,525.832,776.802,514.805z M329.998,1613.028v93.526c0,11.027-9.394,20.421-20.421,20.421H94.752
			c-11.027,0-20.421-9.394-20.421-20.421v-93.526c0-11.027,9.394-20.421,20.421-20.421h214.417
			C320.604,1592.199,329.998,1601.593,329.998,1613.028z M807.024,1613.028v93.526c0,11.027-9.394,20.421-20.421,20.421H572.188
			c-11.027,0-20.421-9.394-20.421-20.421v-93.526c0-11.027,9.394-20.421,20.421-20.421h214.416
			C797.631,1592.199,807.024,1601.593,807.024,1613.028z M606.494,1014.295v141.719c0,11.027-9.394,20.421-20.421,20.421H295.691
			c-11.027,0-20.421-9.394-20.421-20.421v-141.719c0-11.027,9.394-20.421,20.421-20.421h290.382
			C597.101,993.874,606.494,1003.268,606.494,1014.295z M1166.02,1014.295v141.719c0,11.027-9.393,20.421-20.42,20.421H855.218
			c-11.027,0-20.421-9.394-20.421-20.421v-141.719c0-11.027,9.394-20.421,20.421-20.421H1145.6
			C1156.627,993.874,1166.02,1003.268,1166.02,1014.295z M1393.914,1156.014v-141.719c0-11.027,9.395-20.421,20.421-20.421h290.382
			c11.027,0,20.421,9.394,20.421,20.421v141.719c0,11.027-9.394,20.421-20.421,20.421h-290.382
			C1403.309,1176.843,1393.914,1167.449,1393.914,1156.014z M1449.051,1613.028v93.526c0,11.027-9.394,20.421-20.421,20.421
			h-214.417c-11.027,0-20.421-9.394-20.421-20.421v-93.526c0-11.027,9.394-20.421,20.421-20.421h214.417
			C1439.657,1592.199,1449.051,1601.593,1449.051,1613.028z M1926.077,1706.555c0,11.027-9.394,20.421-20.421,20.421h-214.417
			c-11.026,0-20.421-9.394-20.421-20.421v-93.526c0-11.027,9.395-20.421,20.421-20.421h214.417c11.027,0,20.421,9.394,20.421,20.421
			V1706.555z"/>
</svg>
