<svg id="Layer_1" data-name="Layer 1" xmlns="http://www.w3.org/2000/svg" viewBox="0 0 2000 2000">
    <defs>
        <style>
            .cls-1 {
                fill: #e74a3e;
            }
            
            .cls-2 {
                fill: #181818;
            }
        </style>
    </defs>	
    <title>Business-Collection</title>
		<path id="XMLID_1827_" class="cls-2" d="M748.416,1846.312v-100.144c0-21.255-9.401-41.283-25.751-54.771
			c-90.742-74.393-188.433-123.851-208.461-133.661c-2.044-1.226-3.679-3.27-3.679-5.722v-141.019
			c17.576-11.854,29.43-31.882,29.43-54.771v-146.332c0-72.757-58.859-132.025-132.025-132.025h-15.941h-15.941
			c-72.756,0-132.025,58.859-132.025,132.025v145.515c0,22.89,11.854,42.918,29.43,54.771v141.427c0,2.452-1.227,4.905-3.679,5.723
			c-20.029,9.81-117.72,59.269-208.461,133.66c-16.35,13.488-25.751,33.518-25.751,54.772v100.143"/>
		<path class="cls-1" d="M1002.657,961.782c-20.438,0-37.196,16.759-37.196,37.196V1233.6L762.313,1350.91
			c-17.576,10.218-23.707,32.699-13.488,50.684c6.948,11.854,19.211,18.395,32.291,18.395c6.131,0,12.671-1.636,18.394-4.905
			l203.146-117.311l203.148,117.311c5.722,3.27,12.262,4.905,18.394,4.905c12.671,0,25.342-6.54,32.291-18.395
			c10.218-17.575,4.087-40.466-13.489-50.684L1039.853,1233.6V998.979C1039.444,978.541,1023.094,961.782,1002.657,961.782z"/>
		<path class="cls-1" d="M844.063,609.033c-37.604,19.62-120.58,65.809-198.65,129.573c-24.934,20.438-39.24,51.093-39.24,83.384
			v100.144c0,20.438,16.759,37.196,37.196,37.196s37.196-16.759,37.196-37.196V821.99c0-10.219,4.496-19.619,12.262-26.159
			c87.881-71.939,183.119-120.172,201.104-129.164c15.124-7.357,24.525-22.481,24.525-39.24V486.409
			c0-12.263-6.131-24.116-16.35-30.656c-8.176-5.313-13.08-14.306-13.08-24.116V285.306c0-52.32,42.51-94.83,94.829-94.83h31.474
			c52.319,0,94.829,42.51,94.829,94.83v146.331c0,9.811-4.905,18.803-13.08,24.116c-10.219,6.949-16.35,18.394-16.35,30.656v141.427
			c0,16.759,9.401,31.882,24.524,39.239c18.395,8.993,113.224,56.816,201.104,129.164c7.766,6.54,12.262,15.941,12.262,26.16
			v100.144c0,20.437,16.759,37.195,37.196,37.195s37.196-16.759,37.196-37.195V822.399c0-32.291-14.307-62.947-39.24-83.385
			c-77.662-63.765-161.046-110.361-198.651-129.572V503.985c18.803-19.211,29.431-44.962,29.431-71.939v-146.74
			c0-93.194-75.618-168.813-168.813-168.813h-31.473c-93.194,0-168.813,75.618-168.813,168.813v146.331
			c0,27.387,10.627,53.138,29.43,71.939v105.457H844.063z"/>
		<path class="cls-1" d="M376.865,1114.245h31.473c52.32,0,94.83,42.51,94.83,94.829v146.332c0,9.81-4.905,18.802-13.08,24.115
			c-10.219,6.949-16.35,18.394-16.35,30.656v141.427c0,16.759,9.4,31.882,24.524,39.239
			c18.394,8.993,113.224,56.816,201.104,129.164c7.767,6.54,12.263,15.941,12.263,26.16v100.144
			c0,20.437,16.759,37.195,37.196,37.195c20.437,0,37.195-16.759,37.195-37.195v-100.144c0-32.291-14.306-62.947-39.239-83.385
			c-77.662-63.764-161.047-110.361-198.651-129.572v-105.457c18.803-19.211,29.43-44.962,29.43-71.939v-146.331
			c0-93.194-75.618-168.813-168.813-168.813h-31.474c-93.194,0-168.813,75.619-168.813,168.813v145.923
			c0,27.386,10.627,53.137,29.43,71.939v105.456c-37.604,19.62-120.58,65.809-198.651,129.573C14.306,1682.813,0,1713.469,0,1745.76
			v100.143c0,20.438,16.759,37.196,37.196,37.196c20.437,0,37.196-16.759,37.196-37.196V1745.76c0-10.219,4.496-19.62,12.262-26.16
			c87.881-71.939,183.119-120.172,201.104-129.164c15.124-7.357,24.525-22.481,24.525-39.24v-141.018
			c0-12.263-6.132-24.116-16.35-30.656c-8.175-5.313-13.08-14.306-13.08-24.115v-146.332
			C282.036,1156.755,324.545,1114.245,376.865,1114.245z"/>
		<path class="cls-1" d="M1252.401,1662.375c-24.934,20.438-39.239,51.094-39.239,83.385v100.143
			c0,20.438,16.758,37.196,37.195,37.196s37.196-16.759,37.196-37.196V1745.76c0-10.219,4.496-19.62,12.263-26.16
			c87.881-71.939,183.118-120.172,201.104-129.164c15.123-7.357,24.524-22.481,24.524-39.24v-141.018
			c0-12.263-6.131-24.116-16.35-30.656c-8.175-5.313-13.08-14.306-13.08-24.115v-146.332c0-52.319,42.51-94.829,94.829-94.829
			h31.475c52.318,0,94.828,42.51,94.828,94.829v146.332c0,9.81-4.904,18.802-13.079,24.115
			c-10.219,6.949-16.351,18.394-16.351,30.656v141.427c0,16.759,9.401,31.882,24.525,39.239
			c18.394,8.993,113.223,56.816,201.104,129.164c7.766,6.54,12.263,15.941,12.263,26.16v100.144
			c0,20.437,16.759,37.195,37.196,37.195s37.195-16.759,37.195-37.195v-100.144c0-32.291-14.306-62.947-39.239-83.385
			c-77.662-63.764-161.047-110.361-198.651-129.572v-105.457c18.803-19.211,29.43-44.962,29.43-71.939v-146.331
			c0-93.194-75.618-168.813-168.813-168.813h-31.474c-93.194,0-168.813,75.619-168.813,168.813v145.923
			c0,27.386,10.628,53.137,29.43,71.939v105.456C1413.447,1552.422,1330.473,1598.61,1252.401,1662.375z"/>
</svg>
