<svg id="Layer_1" data-name="Layer 1" xmlns="http://www.w3.org/2000/svg" viewBox="0 0 2000 2000">
    <defs>
        <style>
            .cls-1 {
                fill: #e74a3e;
            }
            
            .cls-2 {
                fill: #181818;
            }
        </style>
    </defs>	
    <title>Business-Collection</title>
		<path id="XMLID_324_" class="cls-2" d="M1962.41,1832.277v-71.501c0-15.118-6.537-29.418-18.386-38.815
			c-64.556-53.115-134.015-88.253-148.314-95.199c-1.634-0.816-2.452-2.451-2.452-4.086v-100.511
			c12.666-8.58,20.838-22.88,20.838-39.224v-104.188c0-51.89-42.084-93.974-93.973-93.974h-11.032h-11.032
			c-51.889,0-93.973,42.084-93.973,93.974v104.188c0,16.344,8.172,30.644,20.838,39.224v100.511c0,1.635-0.818,3.27-2.452,4.086
			c-14.3,6.946-83.759,42.084-148.314,95.199c-11.849,9.397-18.386,24.106-18.386,38.815v71.501"/>
		<path id="XMLID_323_" class="cls-2" d="M1252.299,1832.277v-71.501c0-15.118-6.538-29.418-18.387-38.815
			c-64.556-53.115-134.014-88.253-148.314-95.199c-1.635-0.816-2.451-2.451-2.451-4.086v-100.511
			c12.666-8.58,20.837-22.88,20.837-39.224v-104.188c0-51.89-42.083-93.974-93.974-93.974h-11.031h-11.44
			c-51.89,0-93.974,42.084-93.974,93.974v104.188c0,16.344,8.172,30.644,20.838,39.224v100.511c0,1.635-0.816,3.27-2.451,4.086
			c-14.301,6.946-83.759,42.084-148.314,95.199c-11.85,9.397-18.387,24.106-18.387,38.815v71.501"/>
		<path id="XMLID_322_" class="cls-2" d="M538.1,1825.74v-70.684c0-14.709-6.537-29.01-17.977-38.407
			c-63.739-52.298-132.381-87.027-146.681-93.974c-1.635-0.816-2.451-2.451-2.451-4.085v-99.285
			c12.665-8.172,20.837-22.472,20.837-38.815v-102.962c0-51.073-41.675-92.748-92.748-92.748h-11.032h-11.44
			c-51.073,0-92.748,41.675-92.748,92.748v102.962c0,15.935,8.171,30.235,20.837,38.815v99.285c0,1.634-0.817,3.269-2.452,4.085
			c-13.892,6.946-82.941,41.676-146.68,93.974c-11.44,9.397-17.978,23.698-17.978,38.407v70.684"/>
		<path class="cls-1" d="M1289.07,827.579c20.43,0,37.181-16.752,37.181-37.181v-81.308c0-28.601-12.666-55.158-34.32-73.136
			c-60.878-49.847-125.843-86.619-158.12-103.779v-78.039c15.117-16.343,23.697-38.406,23.697-61.287V274.361
			c0-79.264-64.556-143.82-143.82-143.82h-25.332c-79.265,0-143.82,64.556-143.82,143.82V392.85c0,22.881,8.58,44.535,23.697,61.287
			v78.039c-32.277,16.752-97.242,53.524-158.12,103.779c-21.654,17.978-34.32,44.535-34.32,73.136v81.308
			c0,20.429,16.751,37.181,37.181,37.181c20.429,0,37.181-16.752,37.181-37.181v-81.308c0-6.129,2.86-11.849,7.354-15.935
			c70.275-58.019,146.68-96.425,161.389-103.371c14.301-6.945,23.698-22.063,23.698-37.998V437.385
			c0-12.257-6.129-24.105-16.343-30.644c-4.495-3.269-7.355-8.171-7.355-13.483V274.77c0-38.406,31.053-69.458,69.459-69.458h25.332
			c38.406,0,69.459,31.052,69.459,69.458v118.488c0,5.312-2.86,10.624-7.354,13.483c-10.215,6.946-16.343,18.387-16.343,30.644
			v114.402c0,15.935,9.396,31.053,23.697,37.998c14.709,6.946,91.113,45.762,161.389,103.371c4.494,3.678,7.354,9.397,7.354,15.935
			v81.308C1252.299,811.236,1268.642,827.579,1289.07,827.579z"/>
		<path class="cls-1" d="M964.249,1152.4c0,20.429,16.752,37.181,37.181,37.181c20.43,0,37.182-16.752,37.182-37.181v-113.586
			h633.707V1152.4c0,20.429,16.752,37.181,37.182,37.181c20.429,0,37.181-16.752,37.181-37.181v-150.767
			c0-20.429-16.752-37.181-37.181-37.181h-671.298V850.868c0-20.429-16.752-37.181-37.181-37.181s-37.181,16.752-37.181,37.181
			v113.585H290.5c-20.429,0-37.181,16.752-37.181,37.181V1152.4c0,20.429,16.751,37.181,37.181,37.181s37.181-16.752,37.181-37.181
			v-113.586h636.567V1152.4z"/>
		<path class="cls-1" d="M1850.868,1482.941v-104.188c0-72.318-58.835-130.746-130.745-130.746h-22.473
			c-72.318,0-130.745,58.836-130.745,130.746v104.188c0,20.838,7.763,40.449,20.837,55.567v64.147
			c-29.009,15.525-84.984,47.395-137.282,90.296c-20.43,16.752-31.87,41.267-31.87,67.824v71.502
			c0,20.429,16.752,37.181,37.182,37.181c20.429,0,37.181-16.752,37.181-37.181v-71.502c0-4.086,1.634-7.763,4.903-10.215
			c61.695-50.663,128.294-84.167,140.96-90.296c14.3-6.946,23.289-21.654,23.289-37.59v-100.511
			c0-12.257-6.129-24.105-16.343-30.644c-1.227-0.816-4.495-3.677-4.495-8.171v-104.188c0-31.461,25.332-56.792,56.793-56.792
			h22.472c31.461,0,56.793,25.332,56.793,56.792v104.188c0,4.903-3.27,7.354-4.494,8.171c-10.215,6.946-16.344,18.387-16.344,30.644
			v100.511c0,15.936,8.988,30.644,23.289,37.59c12.666,6.129,79.673,40.041,140.96,90.296c3.269,2.452,4.903,6.129,4.903,10.215
			v71.502c0,20.429,16.752,37.181,37.181,37.181s37.181-16.752,37.181-37.181v-71.502c0-26.149-11.439-51.072-31.869-67.824
			c-52.298-42.901-108.273-75.179-137.283-90.296v-64.147C1843.514,1523.391,1850.868,1503.779,1850.868,1482.941z"/>
		<path class="cls-1" d="M1252.299,1869.459c20.429,0,37.18-16.752,37.18-37.182v-71.501c0-26.149-11.439-51.073-31.869-67.824
			c-52.298-42.901-108.273-75.179-137.282-90.297v-64.146c13.483-15.118,20.837-34.729,20.837-55.567v-104.188
			c0-72.319-58.835-130.746-130.745-130.746h-22.881c-72.318,0-130.745,58.836-130.745,130.746v104.188
			c0,20.838,7.763,40.449,20.838,55.567v64.146c-29.01,15.526-84.985,47.396-137.283,90.297
			c-20.43,16.751-31.869,41.267-31.869,67.824v71.501c0,20.43,16.752,37.182,37.181,37.182s37.181-16.752,37.181-37.182v-71.501
			c0-4.086,1.635-7.763,4.902-10.215c61.696-50.664,128.295-84.167,140.961-90.296c14.3-6.946,23.289-21.655,23.289-37.59v-100.511
			c0-12.257-6.129-24.106-16.344-30.644c-1.226-0.817-4.494-3.677-4.494-8.172v-104.188c0-31.461,25.332-56.793,56.793-56.793
			h22.472c31.46,0,56.792,25.332,56.792,56.793v104.188c0,4.903-3.268,7.354-4.494,8.172c-10.214,6.946-16.343,18.387-16.343,30.644
			v100.511c0,15.935,8.989,30.644,23.289,37.59c12.666,6.129,79.673,40.041,140.96,90.296c3.269,2.452,4.903,6.129,4.903,10.215
			v71.501C1215.117,1852.707,1231.869,1869.459,1252.299,1869.459z"/>
		<path class="cls-1" d="M538.1,1862.921c20.43,0,37.182-16.751,37.182-37.181v-70.684c0-26.149-11.44-50.664-31.869-67.008
			c-51.481-42.492-106.64-73.953-135.649-89.479v-62.922c13.075-15.117,20.838-34.32,20.838-55.158v-102.962
			c0-71.502-58.019-129.929-129.928-129.929h-22.063c-71.501,0-129.929,58.019-129.929,129.929v102.962
			c0,20.429,7.354,40.041,20.838,55.158v62.922c-29.009,15.525-83.759,46.986-135.649,89.479C11.849,1704.393,0,1728.907,0,1755.057
			v70.684c0,20.43,16.752,37.181,37.181,37.181c20.429,0,37.181-16.751,37.181-37.181v-70.684c0-4.086,1.634-7.354,4.494-9.807
			c60.878-49.847,126.66-83.35,139.326-89.479c14.301-6.946,23.289-21.655,23.289-37.181v-99.285
			c0-12.258-6.128-24.106-16.343-30.644c-1.226-0.817-4.086-3.269-4.086-7.764v-102.962c0-30.644,24.923-55.566,55.567-55.566
			h22.063c30.643,0,55.567,24.923,55.567,55.566v102.962c0,4.495-2.86,6.946-4.086,7.764c-10.215,6.945-16.343,18.386-16.343,30.644
			v99.285c0,15.935,8.988,30.644,23.289,37.589c12.666,6.129,78.447,39.633,139.325,89.479c2.86,2.451,4.494,6.128,4.494,9.806
			v70.275C500.919,1846.578,517.671,1862.921,538.1,1862.921z"/>
</svg>
