<svg id="Layer_1" data-name="Layer 1" xmlns="http://www.w3.org/2000/svg" viewBox="0 0 2000 2000">
    <defs>
        <style>
            .cls-1 {
                fill: #e74a3e;
            }
            
            .cls-2 {
                fill: #181818;
            }
        </style>
    </defs>	
    <title>Business-Collection</title>
		<path class="cls-1" d="M693.839,433.04l-24.897,12.245c-31.02,15.102-67.346,17.143-99.59,5.714l-41.632-14.693
			c-2.449-1.633-4.897-2.857-7.347-3.674l-256.321-87.753c-19.183-6.531-40.407,3.673-46.938,22.856L2.016,994.253
			c-3.265,9.388-2.449,19.592,1.633,28.163s11.836,15.51,21.224,18.775l255.913,87.753c4.082,1.225,8.163,2.041,11.836,2.041
			c15.51,0,29.795-9.796,35.101-24.897l202.854-590.192l13.877,4.897c51.02,17.959,108.161,14.694,157.14-8.979l24.897-12.244
			c30.611-15.102,66.529-17.143,98.773-6.122l470.603,162.037c-4.897,19.592-14.693,42.856-32.652,55.509
			c-19.999,13.878-49.795,13.878-88.978,0.408l-209.792-71.835c-9.795-3.266-20.407-2.449-29.387,2.449
			c-8.979,4.897-15.51,13.469-18.367,23.265c-0.408,1.225-29.387,109.794-122.038,159.589
			c-58.366,31.428-131.018,32.652-216.322,3.673c-19.183-6.53-40.407,3.674-46.938,22.856c-6.53,19.184,3.673,40.408,22.856,46.938
			c48.979,16.734,95.101,25.306,137.957,25.306c49.794,0,95.508-11.021,137.14-33.469
			c82.855-44.489,125.712-122.446,145.303-168.977l175.099,59.999c62.447,21.632,114.691,18.367,155.099-9.796
			c64.897-44.896,68.162-135.915,68.57-139.997c0.408-16.326-9.796-30.611-24.897-35.918L848.938,423.244
			C798.734,406.102,742.001,409.775,693.839,433.04z M270.174,1046.905L84.056,983.233l190.608-556.315l186.118,63.672
			L270.174,1046.905z"/>
		
			<rect id="XMLID_142_" x="1364.523" y="605.684" transform="matrix(0.4395 0.8982 -0.8982 0.4395 1615.8632 -1107.6543)" class="cls-2" width="661.953" height="270.572"/>
		<path class="cls-1" d="M1674.227,1088.945l-87.753,80.814c-79.591,73.06-169.384,134.691-266.525,182.037l-465.704,227.75
			c-20.408,10.204-45.306,1.633-55.51-19.183c-10.203-20.408-1.633-45.306,19.184-55.51l5.714-2.856l0,0l254.688-124.487
			c18.367-8.979,26.122-31.021,17.143-49.387c-8.979-18.367-31.02-26.122-49.387-17.143l-254.688,124.487l0,0l-128.16,62.855
			c-20.408,10.204-45.306,1.633-55.51-19.184c-4.897-9.796-5.714-21.224-2.04-31.428c3.673-10.612,11.02-18.775,20.815-23.673
			l96.732-47.347l0,0l276.729-135.507c18.367-8.979,26.122-31.02,17.143-49.387s-31.02-26.122-49.387-17.143l-277.138,135.915l0,0
			l-10.612,5.307l-132.242,64.896c-9.795,4.897-21.224,5.714-31.428,2.041c-10.611-3.674-18.774-11.021-23.673-20.816
			c-10.204-20.408-1.633-45.305,19.184-55.509l45.713-22.448l0,0l93.468-45.714l26.122-12.653l0,0l214.689-105.304
			c18.367-8.979,26.122-31.02,17.143-49.387s-31.021-26.122-49.387-17.143l-232.648,113.875l-101.631,49.795
			c-20.407,9.796-45.305,1.633-55.509-19.183c-4.898-9.796-5.714-21.225-2.041-31.428c3.674-10.612,11.021-18.775,20.816-23.674
			l177.547-86.937c18.367-8.979,26.122-31.02,17.143-49.387s-31.02-26.122-49.387-17.143l-177.547,86.937
			c-27.755,13.47-48.571,37.143-58.367,66.121c-9.795,28.979-8.162,60.407,5.307,88.162c8.571,17.143,20.815,31.428,35.51,42.04
			c-25.714,33.877-32.244,80.406-12.245,121.222c13.47,27.755,37.143,48.57,66.121,58.366c12.245,4.081,24.489,6.122,36.734,6.122
			c-0.408,18.367,3.265,36.734,11.836,53.469c20,40.815,61.224,64.488,103.672,64.488c17.142,0,34.284-3.674,50.61-11.836
			l26.122-12.653c1.225,13.877,4.898,27.347,11.021,40.407c20,40.815,61.223,64.488,103.671,64.488
			c17.143,0,34.285-3.673,50.611-11.836l465.705-227.751c103.671-50.611,199.18-115.916,284.075-193.873l104.08-95.917
			l238.362-116.732c18.367-8.979,26.122-31.02,17.143-49.387l-291.423-593.865c-4.489-8.979-11.836-15.51-21.224-18.775
			s-19.592-2.449-28.163,1.632l-243.26,118.773c-18.367,8.979-26.122,31.02-17.143,49.387L1674.227,1088.945z M1654.636,433.448
			l258.362,528.561l-176.731,86.529l-258.362-528.561L1654.636,433.448z"/>
</svg>
