<svg id="Layer_1" data-name="Layer 1" xmlns="http://www.w3.org/2000/svg" viewBox="0 0 2000 2000">
    <defs>
        <style>
            .cls-1 {
                fill: #e74a3e;
            }
            
            .cls-2 {
                fill: #181818;
            }
        </style>
    </defs>	
    <title>Business-Collection</title>
		<path class="cls-2" d="M1412.072,453.339c-179.701-179.702-470.9-179.702-650.602,0
			c-172.76,173.167-179.294,449.663-19.195,630.182c-17.154,38.391-46.968,93.118-97.203,118.031
			c-15.52,7.76-11.844,31.04,5.31,33.898c52.686,8.168,133.552-4.901,203.798-59.628c176.026,103.736,406.78,80.049,557.893-71.881
			C1591.774,924.239,1591.774,633.041,1412.072,453.339z M975.479,805.391c-6.942,6.943-16.336,11.027-26.139,11.027
			c-9.801,0-19.195-4.084-26.138-11.027c-6.943-6.942-10.619-16.336-10.619-26.138s3.676-19.196,10.619-26.139
			c6.942-6.943,16.337-11.027,26.138-11.027c9.395,0,19.196,4.084,26.139,11.027c6.535,6.942,10.619,16.337,10.619,26.139
			S982.422,798.448,975.479,805.391z M1113.114,805.391c-6.943,6.943-16.337,11.027-26.139,11.027s-19.195-4.084-26.139-11.027
			c-6.534-6.942-10.618-16.336-10.618-26.138s3.676-19.196,10.618-26.139c6.943-6.943,16.337-11.027,26.139-11.027
			s19.195,4.084,26.139,11.027c6.534,6.942,10.618,16.337,10.618,26.139S1120.057,798.448,1113.114,805.391z M1250.749,805.391
			c-6.942,6.943-16.336,11.027-26.138,11.027c-9.803,0-19.195-4.084-26.139-11.027c-6.535-6.942-10.619-16.336-10.619-26.138
			s3.676-19.196,10.619-26.139c6.943-6.943,16.336-11.027,26.139-11.027c9.802,0,19.604,4.084,26.138,11.027
			c6.535,6.942,10.619,16.337,10.619,26.139S1257.692,798.448,1250.749,805.391z"/>
		<path class="cls-1" d="M1086.159,0C968.536,0,854.997,25.322,749.218,75.557c-276.495,128.65-455.789,408.821-455.789,714.314
			v115.581l-149.071,284.256c-24.505,46.968-26.139,94.752-4.084,131.101c22.055,36.349,64.938,57.178,118.032,57.178h35.124
			v240.964c0,107.413,87.4,194.813,194.813,194.813c1.633,0,3.676,0,5.309-0.408l174.393-26.139l0.409,175.617
			c0,20.421,16.745,37.166,37.165,37.166h888.707c20.422,0,37.166-16.745,37.166-37.166v-604.451
			c155.197-148.254,243.823-355.319,243.823-570.146C1874.805,353.686,1521.119,0,1086.159,0z M1569.313,1315.499
			c-7.761,6.943-11.845,16.745-11.845,27.364v583.622H742.684l-0.408-181.743c0-10.619-4.901-20.83-12.661-28.181
			c-8.169-6.943-18.787-10.211-29.406-8.577l-214.009,31.856c-65.346-1.226-118.439-55.136-118.439-120.891v-278.129
			c0-20.421-16.745-37.166-37.166-37.166h-71.88c-26.547,0-46.559-7.76-54.727-21.646c-8.168-13.887-6.126-35.124,6.126-58.403
			l153.155-292.424c2.858-5.31,4.084-11.027,4.084-17.153V789.055c0-276.496,162.14-530.529,413.314-647.335
			c95.977-45.333,198.488-68.613,305.493-68.613c394.118,0,714.723,320.604,714.723,714.723
			C1800.883,988.36,1716.341,1180.314,1569.313,1315.499z"/>
		<path class="cls-1" d="M1086.976,282.214c-132.734,0-257.709,51.868-351.644,145.395
			C555.63,607.311,541.336,893.2,698.574,1089.646c-20.42,39.616-43.7,66.163-69.838,79.232
			c-21.646,10.619-33.49,33.49-30.223,57.586c3.676,23.688,22.054,42.476,45.742,46.151c11.436,1.633,23.279,2.858,35.94,2.858
			c59.628,0,122.523-20.012,176.026-55.136c70.655,37.166,149.887,56.361,230.345,56.361c132.734,0,257.709-51.869,351.644-145.396
			c193.996-193.996,193.996-509.291,0-702.879C1344.685,333.674,1219.71,282.214,1086.976,282.214z M1385.935,1078.211
			c-80.05,80.049-186.237,123.749-298.959,123.749c-75.557,0-149.479-20.012-214.417-57.994c-5.718-3.268-12.252-5.31-18.787-5.31
			c-8.168,0-15.928,2.45-22.871,7.76c-44.108,34.307-88.217,46.968-119.257,51.46c24.505-24.505,45.742-57.586,64.121-99.652
			c5.718-13.069,3.268-28.589-6.126-39.208c-147.846-167.041-140.086-421.482,17.97-579.13
			c80.05-80.049,186.237-123.75,298.959-123.75s219.317,44.109,298.958,123.75C1550.934,644.885,1550.934,913.212,1385.935,1078.211
			z"/>
</svg>
