<svg id="Layer_1" data-name="Layer 1" xmlns="http://www.w3.org/2000/svg" viewBox="0 0 2000 2000">
    <defs>
        <style>
            .cls-1 {
                fill: #e74a3e;
            }
            
            .cls-2 {
                fill: #181818;
            }
        </style>
    </defs>	
    <title>Business-Collection</title>
		<path id="XMLID_2161_" class="cls-2" d="M1491.921,1886.685l76.089-76.089l76.09,76.089l76.089,76.089l76.089-76.089V623.031
				c0-72.816-58.907-132.133-132.133-132.133H600.123c72.816,0,132.133,58.907,132.133,132.133v1263.244l76.09,76.089l76.089-76.089
				l76.089-76.09l76.09,76.09l76.089,76.089l76.089-76.089l76.09-76.09l76.089,76.09l76.089,76.089L1491.921,1886.685z"/>
		<path class="cls-1" d="M921.252,814.072h692.166c20.454,0,37.227-16.772,37.227-37.227s-16.772-37.227-37.227-37.227H921.252
			c-20.454,0-37.227,16.772-37.227,37.227S900.798,814.072,921.252,814.072z"/>
		<path class="cls-1" d="M921.252,1011.659h502.762c20.453,0,37.226-16.772,37.226-37.227s-16.772-37.227-37.226-37.227H921.252
			c-20.454,0-37.227,16.772-37.227,37.227C884.025,995.296,900.798,1011.659,921.252,1011.659z"/>
		<path class="cls-1" d="M921.252,1192.882h692.166c20.454,0,37.227-16.772,37.227-37.227s-16.772-37.227-37.227-37.227H921.252
			c-20.454,0-37.227,16.772-37.227,37.227C884.025,1176.519,900.798,1192.882,921.252,1192.882z"/>
		<path class="cls-1" d="M987.114,1325.016h-65.862c-20.454,0-37.227,16.771-37.227,37.227c0,20.453,16.772,37.226,37.227,37.226
			h65.862c20.454,0,37.226-16.772,37.226-37.226C1024.34,1341.787,1007.568,1325.016,987.114,1325.016z"/>
		<path class="cls-1" d="M987.114,1506.238h-65.862c-20.454,0-37.227,16.772-37.227,37.227s16.772,37.227,37.227,37.227h65.862
			c20.454,0,37.226-16.772,37.226-37.227C1023.932,1522.602,1007.568,1506.238,987.114,1506.238z"/>
		<path class="cls-1" d="M1613.418,1325.016h-478.217c-20.454,0-37.227,16.771-37.227,37.227c0,20.453,16.772,37.226,37.227,37.226
			h478.217c20.454,0,37.227-16.772,37.227-37.226C1650.645,1341.787,1633.872,1325.016,1613.418,1325.016z"/>
		<path class="cls-1" d="M1460.83,1543.056c0-20.454-16.771-37.227-37.227-37.227h-288.402c-20.454,0-37.227,16.772-37.227,37.227
			s16.772,37.227,37.227,37.227h288.402C1444.059,1580.282,1460.83,1563.51,1460.83,1543.056z"/>
		<path class="cls-1" d="M1389.65,1988.955c14.318,14.317,38.045,14.317,52.362,0l125.997-125.997l125.997,125.997
			c7.363,7.363,16.772,11.045,26.181,11.045c9.409,0,18.818-3.682,26.182-11.045l76.09-76.09
			c6.954-6.954,11.045-16.363,11.045-26.181V623.031c0-93.271-75.68-168.951-168.951-168.951h-284.312V37.227
			c0-20.454-16.772-37.227-37.227-37.227H203.723c-20.454,0-37.227,16.772-37.227,37.227v1263.244
			c0,93.271,75.68,168.95,168.951,168.95h214.358c20.454,0,37.227-16.772,37.227-37.227s-16.772-37.227-37.227-37.227h-74.453
			c18.409-26.999,29.454-59.726,29.454-94.906v-677.03c0-52.362,42.545-94.907,94.907-94.907s94.907,42.545,94.907,94.907v1263.244
			c0,2.454,0.408,4.909,0.817,7.363c0.409,1.637,0.818,2.863,1.228,4.5c0.409,0.818,0.409,1.636,0.818,2.454
			c0.818,1.637,1.636,3.272,2.454,4.5c0.409,0.409,0.409,1.228,0.818,1.637c1.228,2.045,2.863,4.091,4.5,5.727l76.089,76.09
			c14.318,14.317,38.045,14.317,52.362,0l125.997-125.997l125.998,125.997c14.317,14.317,38.044,14.317,52.361,0l125.998-125.997
			L1389.65,1988.955z M430.763,623.031v677.439c0,52.362-42.544,94.906-94.906,94.906c-52.363,0-94.907-42.544-94.907-94.906V74.044
			h1065.248V454.08H599.714C506.443,454.08,430.763,529.761,430.763,623.031z M1111.884,1910.002l-125.997-125.997
			c-7.363-7.363-16.772-11.045-26.182-11.045c-9.408,0-18.817,3.682-26.181,11.045l-125.997,125.997l-38.863-38.862V623.031
			c0-5.318-0.408-10.636-0.818-15.545c0-1.637-0.408-2.863-0.408-4.5c-0.409-3.682-0.818-7.363-1.637-11.045
			c-0.409-1.637-0.409-2.864-0.818-4.5c-0.818-4.5-2.045-9.409-3.682-13.909c0-0.409,0-0.409-0.409-0.818
			c-1.636-4.908-3.272-9.408-5.317-13.908c-0.409-1.228-1.228-2.455-1.637-4.091c-1.637-3.272-2.863-6.546-4.909-9.818
			c-0.817-1.227-1.228-2.454-2.045-4.091c-2.046-3.682-4.5-7.772-6.954-11.454c-0.41-0.409-0.41-0.818-0.818-1.228c0,0,0,0,0-0.409
			h924.115c52.362,0,94.906,42.545,94.906,94.907V1871.14l-38.862,38.862l-125.997-125.997c-14.318-14.317-38.045-14.317-52.362,0
			l-125.997,125.997l-124.77-125.588c-14.318-14.318-38.045-14.318-52.363,0L1111.884,1910.002z"/>
</svg>
