<svg id="Layer_1" data-name="Layer 1" xmlns="http://www.w3.org/2000/svg" viewBox="0 0 2000 2000">
    <defs>
        <style>
            .cls-1 {
                fill: #e74a3e;
            }
            
            .cls-2 {
                fill: #181818;
            }
        </style>
    </defs>	
    <title>Business-Collection</title>
		<circle class="cls-2" cx="1000" cy="1811.274" r="151.961"/>
		<path class="cls-1" d="M500.817,1032.68H828.84c10.621,32.68,38.807,56.373,71.896,56.373h198.121
			c33.088,0,61.274-23.285,71.896-56.373h328.432c20.424,0,37.173-16.748,37.173-37.173s-16.749-37.174-37.173-37.174h-361.111
			c-20.426,0-37.174,16.749-37.174,37.174v8.578c0,5.719-2.042,9.396-3.268,10.621H902.369c-1.226-1.226-3.676-4.902-3.676-10.621
			v-8.578c0-20.425-16.749-37.174-37.174-37.174H500.817c-20.425,0-37.174,16.749-37.174,37.174
			C464.053,1015.932,480.393,1032.68,500.817,1032.68z"/>
		<path class="cls-1" d="M236.111,1285.539h1527.777c94.771,0,171.978-77.206,171.978-171.977v-89.87
			c0-20.425-16.749-37.173-37.174-37.173h-100.081V113.971c0-1.226,0-2.451,0-3.677C1792.483,47.386,1741.83,0,1680.556,0H314.543
			c-62.909,0-113.971,51.062-113.971,113.971v872.957h-99.673c-20.425,0-37.173,16.749-37.173,37.174v89.869
			C63.726,1208.333,140.932,1285.539,236.111,1285.539z M137.664,1060.866h99.673c20.425,0,37.173-16.749,37.173-37.174V113.971
			c0-22.059,17.974-40.033,40.033-40.033h1366.421c22.06,0,41.259,18.382,44.118,42.075v907.679
			c0,20.425,16.748,37.174,37.173,37.174h99.673v52.695c0,53.922-44.117,98.04-98.039,98.04H236.111
			c-53.922,0-98.04-44.118-98.04-98.04v-52.695H137.664L137.664,1060.866z"/>
		<path class="cls-1" d="M1915.033,1848.039c20.424,0,37.173-16.748,37.173-37.173s-16.749-37.174-37.173-37.174h-729.576
			c-14.705-74.347-73.529-133.578-148.283-148.284v-171.977c0-20.425-16.749-37.174-37.174-37.174s-37.173,16.749-37.173,37.174
			v171.977c-74.347,14.706-133.579,73.529-148.284,148.284H84.967c-20.425,0-37.173,16.749-37.173,37.174
			s16.749,37.173,37.173,37.173h729.984C832.107,1934.641,908.905,2000,1000.408,2000c91.504,0,167.893-65.359,185.458-151.961
			H1915.033z M1000,1926.063c-63.316,0-114.787-51.471-114.787-114.788s51.471-114.788,114.787-114.788
			s114.787,51.471,114.787,114.788S1063.316,1926.063,1000,1926.063z"/>
</svg>
