<svg id="Layer_1" data-name="Layer 1" xmlns="http://www.w3.org/2000/svg" viewBox="0 0 2000 2000">
    <defs>
        <style>
            .cls-1 {
                fill: #e74a3e;
            }
            
            .cls-2 {
                fill: #181818;
            }
        </style>
    </defs>	
    <title>Business-Collection</title>
		<path class="cls-2" d="M1500.814,207.213H500.407c-59.901,0-108.395,48.492-108.395,108.395v590.872
			c0,59.902,48.493,108.395,108.395,108.395h82.723v218.419c0,17.93,22.005,26.079,33.822,12.632l199.674-231.051h684.188
			c59.902,0,108.395-48.492,108.395-108.395V315.607C1609.209,255.705,1560.717,207.213,1500.814,207.213z M1213.121,507.131
			L950.692,768.338c-7.335,6.927-16.707,10.595-26.079,10.595c-9.373,0-18.745-3.668-26.08-11.003L788.509,657.498
			c-14.67-14.263-14.67-37.897,0-52.16c14.263-14.67,37.897-14.67,52.159,0l83.945,84.353l236.349-235.126
			c14.263-14.263,37.489-14.263,52.159,0.407C1227.791,469.234,1227.791,492.869,1213.121,507.131z"/>
		<path class="cls-1" d="M348.003,1588.224h438.876c11.817,35.045,44.824,60.31,83.537,60.31h258.761
			c38.713,0,71.72-25.266,83.537-60.31h439.283c20.375,0,37.082-16.708,37.082-37.083s-16.707-37.082-37.082-37.082h-471.476
			c-20.375,0-37.082,16.707-37.082,37.082v8.966c0,7.742-6.521,14.262-14.263,14.262H870.416c-7.742,0-14.263-6.52-14.263-14.262
			v-8.966c0-20.375-16.708-37.082-37.082-37.082H348.003c-20.374,0-37.082,16.707-37.082,37.082
			C311.328,1571.516,327.629,1588.224,348.003,1588.224z"/>
		<path class="cls-1" d="M1962.918,1514.059h-110.024V576.813c0-20.375-16.708-37.082-37.083-37.082s-37.082,16.707-37.082,37.082
			v974.327c0,20.375,16.707,37.083,37.082,37.083h109.617v59.087c0,59.495-48.492,107.579-107.579,107.579H181.744
			c-59.495,0-107.58-48.492-107.58-107.579v-59.087h109.617c20.375,0,37.082-16.708,37.082-37.083V576.813
			c0-20.375-16.708-37.082-37.082-37.082c-20.375,0-37.083,16.707-37.083,37.082v937.245H37.083
			c-20.375,0-37.083,16.707-37.083,37.082v96.17c0,100.244,81.5,181.744,181.744,181.744h1636.512
			c100.244,0,181.744-81.5,181.744-181.744v-96.17C1999.593,1530.766,1983.293,1514.059,1962.918,1514.059z"/>
		<path class="cls-1" d="M1500.814,170.945H500.407c-79.869,0-145.069,65.2-145.069,145.069v590.872
			c0,79.87,65.2,145.069,145.069,145.069h45.64v181.337c0,30.97,25.266,56.234,56.235,56.234c16.3,0,31.784-6.928,42.38-19.56
			l188.671-218.419h667.075c79.869,0,145.068-65.2,145.068-145.069V315.607C1645.885,235.737,1580.685,170.945,1500.814,170.945z
			 M1572.127,906.887c0,39.12-31.785,71.313-71.313,71.313H816.626c-10.595,0-20.782,4.482-28.117,12.632l-168.704,195.192v-171.149
			c0-20.375-16.708-37.083-37.082-37.083H500c-39.12,0-71.313-31.784-71.313-71.312V315.607c0-39.12,31.785-71.313,71.313-71.313
			h1000.408c39.119,0,71.312,31.785,71.312,71.313v591.279H1572.127L1572.127,906.887z"/>
</svg>
