<svg id="Layer_1" data-name="Layer 1" xmlns="http://www.w3.org/2000/svg" viewBox="0 0 2000 2000">
    <defs>
        <style>
            .cls-1 {
                fill: #e74a3e;
            }
            
            .cls-2 {
                fill: #181818;
            }
        </style>
    </defs>	
    <title>Business-Collection</title>
		<rect x="827.362" y="339.983" class="cls-2" width="347.056" height="729.632"/>
		<path class="cls-1" d="M37.302,1907.854h1925.542l0,0c20.415,0,37.155-16.74,37.155-37.155c0-6.94-2.041-13.882-5.308-19.189
			L1808.1,1473.016V453.49c0-20.415-16.74-37.155-37.156-37.155h-410.341c-20.415,0-37.155,16.74-37.155,37.155
			s16.74,37.155,37.155,37.155h373.595v954.197H268.4V490.646h364.204c20.415,0,37.155-16.74,37.155-37.155
			s-16.74-37.155-37.155-37.155H230.836c-20.415,0-37.155,16.74-37.155,37.155v1019.525L3.822,1854.367
			c-5.716,11.433-4.9,24.906,1.633,35.931C12.396,1901.322,24.645,1907.854,37.302,1907.854z M744.886,1833.953l32.664-65.328
			h445.863l32.256,65.328H744.886z M253.701,1518.745h1493.97l155.153,314.799h-565.087l-58.387-118.815
			c-6.124-12.657-19.19-20.823-33.072-20.823H754.277c-13.883,0-26.948,7.758-33.072,20.415l-59.204,118.815H96.914
			L253.701,1518.745z"/>
		<path class="cls-1" d="M1211.164,225.659c0-73.494-59.611-133.514-133.514-133.514H923.313
			c-73.493,0-133.514,59.612-133.514,133.514v101.258c0,2.45,0.408,4.492,0.816,6.533c-0.408,2.042-0.816,4.491-0.816,6.533v729.632
			c0,0.408,0,0.816,0,0.816c0,1.633,0.408,3.675,0.408,5.308c0,0.409,0,0.817,0.408,1.634c0.408,2.041,1.226,4.083,2.042,6.124
			c0.408,0.408,0.408,0.817,0.816,1.634c0.816,1.633,1.634,2.857,2.45,4.082c0.408,0.409,0.816,1.226,1.225,1.634
			s0.408,0.816,0.816,1.225l173.527,227.423c6.941,8.983,17.966,14.699,29.397,14.699c11.433,0,22.457-5.308,29.397-14.699
			l173.528-227.423c0.408-0.408,0.408-0.816,0.816-1.225s0.816-1.225,1.225-1.634c0.817-1.225,1.634-2.857,2.45-4.082
			c0.408-0.408,0.408-0.817,0.816-1.634c0.816-2.041,1.225-4.083,2.042-6.124c0-0.408,0-0.816,0.408-1.634
			c0.408-1.633,0.408-3.675,0.408-5.308c0-0.408,0-0.816,0-0.816V338.758c0-2.042-0.408-4.083-0.408-6.125
			c0.408-2.042,0.408-4.083,0.408-6.125v-100.85H1211.164L1211.164,225.659z M864.518,364.073h99.625v668.387h-99.625V364.073z
			 M1038.045,364.073h99.626v668.387h-99.626V364.073z M864.518,225.659c0-32.664,26.54-59.204,59.204-59.204h154.337
			c32.664,0,59.203,26.54,59.203,59.204v64.103H864.518V225.659L864.518,225.659z M1000.891,1236.201l-98.809-129.431h197.208
			L1000.891,1236.201z"/>
</svg>
