<svg id="Layer_1" data-name="Layer 1" xmlns="http://www.w3.org/2000/svg" viewBox="0 0 2000 2000">
    <defs>
        <style>
            .cls-1 {
                fill: #e74a3e;
            }
            
            .cls-2 {
                fill: #181818;
            }
        </style>
    </defs>	
    <title>Business-Collection</title>
		<path id="XMLID_353_" class="cls-2" d="M584.832,1939.493H297.833c-8.585,0-15.944-7.359-15.944-15.944v-751.022
			c0-8.585,7.359-15.944,15.944-15.944h286.591c8.585,0,15.944,7.359,15.944,15.944v751.022
			C600.776,1932.134,593.418,1939.493,584.832,1939.493z"/>
		<path class="cls-1" d="M1082.788,360.589V37.204c0-20.441-16.762-37.204-37.203-37.204c-20.442,0-37.204,16.762-37.204,37.204
			v323.385c0,20.441,16.762,37.203,37.204,37.203C1066.026,397.384,1082.788,381.03,1082.788,360.589z"/>
		<path class="cls-1" d="M1717.702,726.901h-323.385c-20.442,0-37.204,16.762-37.204,37.203s16.762,37.204,37.204,37.204h323.385
			c20.441,0,37.204-16.763,37.204-37.204C1754.497,743.254,1738.144,726.901,1717.702,726.901z"/>
		<path class="cls-1" d="M336.672,763.695c0,20.442,16.763,37.204,37.204,37.204h323.385c20.441,0,37.204-16.762,37.204-37.204
			c0-20.441-16.763-37.203-37.204-37.203H373.876C353.435,726.901,336.672,743.254,336.672,763.695z"/>
		<path class="cls-1" d="M537.816,248.978c6.95-6.95,11.039-16.353,11.039-26.166c0-9.812-4.089-19.215-11.039-26.165
			c-6.949-6.95-16.353-10.629-26.165-10.629c-9.812,0-19.215,3.679-26.165,10.629s-11.038,16.354-11.038,26.165
			c0,9.813,4.088,19.215,11.038,26.166s16.354,11.039,26.165,11.039C521.055,260.017,530.867,255.928,537.816,248.978z"/>
		<path class="cls-1" d="M689.902,401.472c14.309-14.309,14.309-38.021,0-52.33c-14.31-14.31-38.021-14.31-52.331,0
			c-14.309,14.309-14.309,38.021,0,52.33c7.359,7.359,16.763,11.038,26.165,11.038C673.14,412.102,682.952,408.831,689.902,401.472z
			"/>
		<path class="cls-1" d="M613.859,325.429c14.309-14.309,14.309-38.021,0-52.331c-14.309-14.309-38.021-14.309-52.33,0
			c-14.31,14.31-14.31,38.021,0,52.331c7.358,7.359,16.762,11.039,26.165,11.039C597.098,336.059,606.5,332.379,613.859,325.429z"/>
		<path class="cls-1" d="M766.354,477.515c6.95-6.95,11.038-16.354,11.038-26.165c0-9.813-4.088-19.216-11.038-26.166
			c-6.95-6.949-16.354-10.629-26.166-10.629c-9.812,0-19.215,4.088-26.164,10.629c-6.951,6.95-11.039,16.354-11.039,26.166
			c0,9.812,4.088,19.215,11.039,26.165c6.949,6.95,16.353,11.038,26.164,11.038C749.591,488.553,759.403,484.465,766.354,477.515z"
			/>
		<path class="cls-1" d="M1571.75,272.281c6.95-6.95,11.038-16.354,11.038-26.165c0-9.812-4.088-19.215-11.038-26.165
			c-6.95-6.95-16.354-11.039-26.165-11.039s-19.216,4.088-26.165,11.039c-6.951,6.95-11.039,16.353-11.039,26.165
			c0,9.812,4.088,19.215,11.039,26.165c6.949,6.95,16.354,11.039,26.165,11.039S1564.8,279.231,1571.75,272.281z"/>
		<path class="cls-1" d="M1393.091,435.813c9.403,0,18.806-3.68,26.165-11.038c14.309-14.31,14.309-38.021,0-52.331
			s-38.021-14.309-52.33,0c-14.31,14.309-14.31,38.021,0,52.331C1374.285,432.134,1383.688,435.813,1393.091,435.813z"/>
		<path class="cls-1" d="M1495.299,348.732c14.309-14.309,14.309-38.021,0-52.33c-14.31-14.309-38.021-14.309-52.33,0
			c-14.31,14.309-14.31,38.021,0,52.33c7.358,7.359,16.762,11.039,26.164,11.039
			C1478.536,359.771,1488.348,355.683,1495.299,348.732z"/>
		<path class="cls-1" d="M1343.213,500.817c6.95-6.95,11.039-16.353,11.039-26.165c0-9.812-4.089-19.215-11.039-26.165
			c-6.949-6.95-16.353-11.038-26.165-11.038c-9.812,0-19.215,4.088-26.165,11.038s-10.629,16.354-10.629,26.165
			c0,9.813,4.088,19.215,11.038,26.165s16.354,11.039,26.165,11.039C1326.86,511.856,1336.264,507.768,1343.213,500.817z"/>
		<path class="cls-1" d="M1661.283,1795.993l86.264-548.242c0.409-2.044,0.409-3.679,0.409-5.724
			c0-115.29-93.622-208.912-208.913-208.912h-324.202V799.673c0-98.528-28.618-169.256-85.446-210.957
			c-89.942-65.821-213.409-28.209-218.724-26.573c-15.536,4.905-25.757,19.215-25.757,35.159v262.061
			c0,206.868-239.574,277.188-249.795,280.049c-4.906,1.227-8.994,3.68-12.674,6.541c-12.674-15.944-32.298-26.165-53.966-26.165
			H314.187c-38.021,0-69.092,31.071-69.092,69.093v718.725c0,38.021,31.071,69.092,69.092,69.092h254.293
			c25.348,0,47.833-13.9,59.689-34.342c37.612,35.978,88.308,57.646,143.908,57.646h641.046
			C1554.988,1999.591,1645.34,1925.593,1661.283,1795.993z M563.573,1902.289h-244.48v-708.912h244.48V1902.289z M637.571,1791.088
			v-580.131c5.724,1.227,11.447,1.227,17.58-0.409c12.265-3.271,303.761-87.898,303.761-351.186V627.146
			c31.889-4.906,87.081-7.768,126.738,21.259c36.794,26.983,55.191,77.678,55.191,151.268v271.055
			c0,20.441,16.763,37.204,37.204,37.204h361.406c73.181,0,133.278,58.871,134.505,132.052l-85.854,545.789c0,0.409,0,0.818,0,1.227
			c-11.447,92.396-69.91,139.003-174.571,139.003H772.485C698.078,1925.593,637.571,1865.086,637.571,1791.088z"/>
</svg>
