<svg id="Layer_1" data-name="Layer 1" xmlns="http://www.w3.org/2000/svg" viewBox="0 0 2000 2000">
    <defs>
        <style>
            .cls-1 {
                fill: #e74a3e;
            }
            
            .cls-2 {
                fill: #181818;
            }
        </style>
    </defs>	
    <title>Business-Collection</title>
		<path id="XMLID_595_" class="cls-2" d="M584.729,1939.567H298.081c-8.575,0-15.925-7.35-15.925-15.925v-751.327
			c0-8.575,7.35-15.925,15.925-15.925h286.647c8.575,0,15.925,7.35,15.925,15.925v751.327
			C600.653,1932.218,593.712,1939.567,584.729,1939.567z"/>
		<path class="cls-1" d="M1008.983,37.158v323.397c0,20.417,16.741,37.158,37.158,37.158c20.416,0,37.157-16.741,37.157-37.158
			V37.158c0-20.417-16.741-37.158-37.157-37.158C1025.316,0,1008.983,16.742,1008.983,37.158z"/>
		<path class="cls-1" d="M1717.844,726.827h-323.396c-20.417,0-37.158,16.742-37.158,37.158c0,20.417,16.741,37.158,37.158,37.158
			h323.396c20.417,0,37.158-16.741,37.158-37.158C1755.002,743.569,1738.261,726.827,1717.844,726.827z"/>
		<path class="cls-1" d="M336.872,763.985c0,20.417,16.741,37.158,37.158,37.158h323.397c20.416,0,37.158-16.741,37.158-37.158
			c0-20.416-16.742-37.158-37.158-37.158H374.03C353.613,726.827,336.872,743.569,336.872,763.985z"/>
		<path class="cls-1" d="M537.771,248.673c6.941-6.941,11.024-16.333,11.024-26.133c0-9.8-4.083-19.192-11.024-26.133
			c-6.941-6.942-16.333-11.025-26.133-11.025s-19.192,4.083-26.134,11.025c-6.941,6.941-11.024,16.333-11.024,26.133
			c0,9.8,4.083,19.191,11.024,26.133s16.334,11.025,26.134,11.025S530.829,255.614,537.771,248.673z"/>
		<path class="cls-1" d="M637.812,348.714c-14.292,14.292-14.292,37.975,0,52.267c7.35,7.35,16.741,11.024,26.133,11.024
			s19.191-3.675,26.133-11.024c14.292-14.292,14.292-37.975,0-52.267C675.786,334.422,652.103,334.422,637.812,348.714z"/>
		<path class="cls-1" d="M614.128,325.031c14.292-14.292,14.292-37.975,0-52.266c-14.291-14.292-37.975-14.292-52.266,0
			c-14.292,14.291-14.292,37.975,0,52.266c7.35,7.35,16.741,10.617,26.133,10.617C597.387,336.056,606.778,332.381,614.128,325.031z
			"/>
		<path class="cls-1" d="M714.169,425.071c-6.941,6.941-10.616,16.333-10.616,26.134c0,9.8,4.083,19.191,11.024,26.133
			s16.333,11.024,26.134,11.024c9.799,0,19.191-4.083,26.133-11.024s11.024-16.333,11.024-26.133
			c0-9.801-4.083-19.192-11.024-26.134s-16.334-11.024-26.133-11.024C730.502,414.047,720.702,418.13,714.169,425.071z"/>
		<path class="cls-1" d="M1519.396,220.09c-6.941,6.941-11.024,16.333-11.024,26.133c0,9.8,4.083,19.191,11.024,26.133
			c6.942,6.942,16.333,11.025,26.134,11.025c9.8,0,19.191-4.083,26.133-11.025c6.941-6.941,10.616-16.333,10.616-26.133
			c0-9.8-4.083-19.192-10.616-26.133c-6.941-6.941-16.333-10.617-26.133-10.617C1536.137,209.065,1526.338,213.148,1519.396,220.09z
			"/>
		<path class="cls-1" d="M1393.222,435.279c9.392,0,18.783-3.675,26.134-10.616c14.291-14.292,14.291-37.975,0-52.266
			c-14.292-14.292-37.975-14.292-52.267,0s-14.292,37.974,0,52.266C1374.438,432.013,1383.83,435.279,1393.222,435.279z"/>
		<path class="cls-1" d="M1443.446,296.039c-14.292,14.292-14.292,37.975,0,52.267c7.35,7.35,16.741,11.024,26.133,11.024
			s18.783-3.675,26.134-11.024c14.291-14.292,14.291-37.975,0-52.267C1481.421,281.748,1457.738,281.748,1443.446,296.039z"/>
		<path class="cls-1" d="M1280.114,474.888c0,9.8,4.083,19.191,11.025,26.133c6.941,6.942,16.333,11.025,26.133,11.025
			s19.191-4.083,26.133-11.025c6.942-6.941,11.025-16.333,11.025-26.133s-4.083-19.191-11.025-26.133
			c-6.941-6.941-16.333-10.617-26.133-10.617s-19.191,4.084-26.133,10.617C1284.197,455.288,1280.114,465.088,1280.114,474.888z"/>
		<path class="cls-1" d="M1748.469,1242.14c0-115.149-93.508-208.656-208.656-208.656h-324.214V799.51
			c0-98.407-28.583-169.457-85.75-211.106c-89.832-66.149-213.556-28.175-218.456-26.541c-15.517,4.899-25.725,19.191-25.725,35.116
			v262.147c0,206.615-239.689,277.257-249.898,280.114c-4.899,1.226-8.983,3.676-12.658,6.533
			c-12.658-15.925-32.258-26.133-53.899-26.133H314.006c-37.975,0-69.008,31.033-69.008,69.008v719.069
			c0,37.975,31.033,69.008,69.008,69.008h254.39c25.316,0,47.774-13.884,59.616-34.708C665.578,1977.95,716.211,2000,772.152,2000
			h641.078c141.689,0,231.931-74.316,247.855-203.756l86.158-548.388C1748.061,1246.223,1748.469,1244.182,1748.469,1242.14z
			 M563.903,1902.409H319.314v-708.86h244.589V1902.409L563.903,1902.409z M1588.403,1785.627c0,0.408,0,0.816,0,1.225
			c-11.433,92.283-70.232,139.241-174.765,139.241H772.561c-74.316,0-134.749-60.434-134.749-134.749v-580.646
			c5.717,1.226,11.842,1.226,17.558-0.408c12.25-3.267,303.798-88.199,303.798-351.164v-232.34
			c31.85-4.899,86.975-7.758,126.583,21.233c36.749,26.95,55.532,77.991,55.532,151.49v271.131
			c0,20.417,16.741,37.158,37.158,37.158h361.372c73.499,0,133.115,58.8,134.749,131.891L1588.403,1785.627z"/>
</svg>
