<svg id="Layer_1" data-name="Layer 1" xmlns="http://www.w3.org/2000/svg" viewBox="0 0 2000 2000">
    <defs>
        <style>
            .cls-1 {
                fill: #e74a3e;
            }
            
            .cls-2 {
                fill: #181818;
            }
        </style>
    </defs>	
    <title>Business-Collection</title>
		<path id="XMLID_1929_" class="cls-2" d="M451.109,1896.765H53.605c-8.66,0-16.082-7.423-16.082-16.082V856.41
			c0-8.659,7.422-16.082,16.082-16.082h397.504c8.659,0,16.081,7.423,16.081,16.082v1024.272
			C467.19,1889.342,460.181,1896.765,451.109,1896.765z"/>
		<path class="cls-1" d="M1173.543,84.082C1057.261-1.274,896.445,47.795,889.848,49.857c-15.67,4.948-25.979,19.38-25.979,35.462
			v353.794c0,119.994-56.904,221.432-169.475,301.839c-87.006,62.265-176.073,87.831-176.897,88.243
			c-0.825,0-1.237,0.412-2.062,0.824l-21.03,7.01c-12.37-20.205-34.225-33.813-59.79-33.813H69.687
			C31.338,803.217,0,834.556,0,872.904v991.697c0,38.348,31.338,69.687,69.687,69.687h365.34c32.988,0,60.615-23.092,67.625-53.605
			c49.069,52.368,118.756,85.356,196.277,85.356h865.107c183.906,0,301.426-96.077,322.043-263.903l110.51-701.816
			c16.082-101.85-25.565-204.937-106.386-262.666c-45.771-32.987-99.788-50.306-156.28-50.306h-449.871V359.118
			C1284.053,230.466,1246.94,138.1,1173.543,84.082z M429.667,1859.24H74.635V877.853h355.032V1859.24z M1733.924,761.982
			c40.822,0,79.584,12.37,112.571,36.286c57.729,41.647,87.83,116.282,75.872,190.505l-110.098,702.229c0,0.412,0,0.824,0,1.237
			c-20.205,164.114-145.971,198.751-248.232,198.751H698.93c-107.21,0-194.216-87.005-194.216-194.216V912.489l34.226-11.546
			c11.958-3.299,103.911-31.338,197.102-97.727c132.364-94.015,202.463-219.781,202.463-363.69V115.42
			c42.885-8.247,129.065-16.494,191.33,29.277c52.78,38.761,79.583,110.921,79.583,214.421v365.753
			c0,20.617,16.906,37.523,37.523,37.523h486.983V761.982z"/>
</svg>
