<svg id="Layer_1" data-name="Layer 1" xmlns="http://www.w3.org/2000/svg" viewBox="0 0 2000 2000">
    <defs>
        <style>
            .cls-1 {
                fill: #e74a3e;
            }
            
            .cls-2 {
                fill: #181818;
            }
        </style>
    </defs>	
    <title>Business-Collection</title>
		<path id="XMLID_742_" class="cls-2" d="M585.77,1939.89H299.938c-8.587,0-15.947-7.36-15.947-15.948v-749.131
			c0-8.587,7.36-15.947,15.947-15.947H585.77c8.588,0,15.948,7.36,15.948,15.947v749.131
			C601.718,1932.529,594.357,1939.89,585.77,1939.89z"/>
		<path class="cls-1" d="M1045.799,322.633c-9.814,0-19.22,4.089-26.171,11.041c-6.951,6.952-10.632,16.357-10.632,26.171
			s4.089,19.219,10.632,26.17c6.951,6.952,16.356,11.041,26.171,11.041c9.813,0,19.219-4.089,26.17-11.041
			c6.952-6.952,11.041-16.356,11.041-26.17s-4.089-19.219-11.041-26.171C1065.018,326.723,1055.612,322.633,1045.799,322.633z"/>
		<path class="cls-1" d="M1045.799,161.521c-20.446,0-37.212,16.766-37.212,37.211s16.356,37.211,37.212,37.211
			c20.445,0,37.211-16.356,37.211-37.211S1066.244,161.521,1045.799,161.521z"/>
		<path class="cls-1" d="M1071.969,11.041C1065.018,4.089,1055.612,0,1045.799,0c-9.814,0-19.22,4.089-26.171,11.041
			s-10.632,16.357-10.632,26.17c0,9.814,4.089,19.219,10.632,26.171c6.951,6.951,16.356,11.041,26.171,11.041
			c9.813,0,19.219-4.089,26.17-11.041c6.952-6.952,11.041-16.356,11.041-26.171C1083.01,27.397,1078.921,17.992,1071.969,11.041z"/>
		<path class="cls-1" d="M1716.009,799.019c9.813,0,19.22-4.089,26.171-11.041c6.951-6.951,11.041-16.356,11.041-26.17
			c0-9.814-4.09-19.219-11.041-26.171c-6.951-6.951-16.357-11.04-26.171-11.04s-19.219,4.089-26.171,11.04
			c-6.951,6.952-11.04,16.356-11.04,26.171c0,9.813,4.089,19.219,11.04,26.17C1696.79,795.338,1706.195,799.019,1716.009,799.019z"
			/>
		<path class="cls-1" d="M1554.896,799.019c20.445,0,37.211-16.766,37.211-37.211c0-20.446-16.355-37.212-37.211-37.212
			c-20.445,0-37.211,16.766-37.211,37.212C1517.686,782.662,1534.451,799.019,1554.896,799.019z"/>
		<path class="cls-1" d="M1393.785,799.019c9.813,0,19.219-4.089,26.17-11.041c6.951-6.951,11.041-16.356,11.041-26.17
			c0-9.814-4.09-19.219-11.041-26.171c-6.951-6.951-16.356-11.04-26.17-11.04c-9.814,0-19.22,4.089-26.171,11.04
			c-6.952,6.952-11.041,16.356-11.041,26.171c0,9.813,4.089,19.219,11.041,26.17C1374.565,794.93,1383.971,799.019,1393.785,799.019
			z"/>
		<path class="cls-1" d="M375.588,799.019c9.813,0,19.219-4.089,26.17-11.041c6.952-6.951,11.041-16.356,11.041-26.17
			c0-9.814-4.089-19.219-11.041-26.171c-6.951-6.951-16.356-11.04-26.17-11.04c-9.814,0-19.219,4.089-26.171,11.04
			c-6.951,6.952-10.632,16.356-10.632,26.171c0,9.813,4.09,19.219,10.632,26.17C356.369,795.338,365.773,799.019,375.588,799.019z"
			/>
		<path class="cls-1" d="M499.489,762.217c0,20.445,16.356,37.211,37.211,37.211c20.445,0,37.211-16.766,37.211-37.211
			c0-20.446-16.766-37.212-37.211-37.212C516.254,725.005,499.489,741.771,499.489,762.217z"/>
		<path class="cls-1" d="M671.642,788.387c6.952,6.951,16.356,11.041,26.171,11.041c9.813,0,19.219-4.09,26.17-11.041
			c6.952-6.951,11.041-16.356,11.041-26.17c0-9.814-4.089-19.22-11.041-26.171c-6.951-6.951-16.356-11.041-26.17-11.041
			c-9.814,0-19.219,4.09-26.171,11.041c-6.951,6.951-10.632,16.356-10.632,26.171C661.01,772.03,664.69,781.436,671.642,788.387z"/>
		<path class="cls-1" d="M512.983,259.252c9.813,0,19.219-4.089,26.17-11.041c6.952-6.951,11.041-16.356,11.041-26.17
			s-4.089-19.219-11.041-26.17c-6.951-6.952-16.356-11.041-26.171-11.041c-9.813,0-19.219,4.089-26.17,11.041
			c-6.951,6.951-11.041,16.356-11.041,26.17s4.09,19.219,11.041,26.17C493.355,255.571,503.169,259.252,512.983,259.252z"/>
		<path class="cls-1" d="M627.07,373.339c9.404,0,18.81-3.68,26.17-11.041c14.313-14.312,14.313-38.029,0-52.341
			c-14.312-14.312-38.028-14.312-52.341,0c-14.312,14.312-14.312,38.029,0,52.341C607.852,369.659,617.256,373.339,627.07,373.339z"
			/>
		<path class="cls-1" d="M740.748,487.426c9.814,0,19.219-4.089,26.171-10.632c6.951-6.951,11.04-16.356,11.04-26.171
			c0-9.813-4.089-19.219-11.04-26.17c-6.952-6.951-16.356-11.041-26.171-11.041c-9.813,0-19.219,4.09-26.17,11.041
			c-6.952,6.951-11.041,16.356-11.041,26.17c0,9.814,4.089,19.22,11.041,26.171C721.529,483.337,731.344,487.426,740.748,487.426z"
			/>
		<path class="cls-1" d="M1570.844,271.928c6.952-6.951,11.041-16.356,11.041-26.17c0-9.814-4.089-19.219-11.041-26.171
			c-6.951-6.951-16.355-11.041-26.17-11.041s-19.219,4.089-26.17,11.041c-6.952,6.952-11.041,16.356-11.041,26.171
			c0,9.813,4.089,19.219,11.041,26.17c6.951,6.952,16.355,11.041,26.17,11.041C1554.079,282.969,1563.893,278.879,1570.844,271.928z
			"/>
		<path class="cls-1" d="M1456.758,333.674c-14.313-14.312-38.029-14.312-52.342,0c-14.312,14.313-14.312,38.029,0,52.341
			c7.361,7.36,16.766,11.041,26.171,11.041s18.81-3.68,26.171-11.041C1471.069,371.294,1471.069,347.986,1456.758,333.674z"/>
		<path class="cls-1" d="M1316.5,436.721c-9.814,0-19.219,4.089-26.171,11.041c-6.951,6.951-11.041,16.356-11.041,26.17
			c0,9.814,4.09,19.219,11.041,26.171c6.952,6.951,16.356,11.04,26.171,11.04c9.813,0,19.219-4.089,26.17-11.04
			c6.952-6.952,11.041-16.356,11.041-26.171c0-9.813-4.089-19.219-11.041-26.17C1335.719,440.4,1326.313,436.721,1316.5,436.721z"/>
		<path class="cls-1" d="M246.78,1190.759v716.826c0,38.029,31.078,69.106,69.107,69.106h253.526
			c25.353,0,47.843-13.902,59.702-34.349c37.211,35.576,87.916,57.657,143.528,57.657h639.542
			c141.484,0,231.445-74.014,247.394-203.23l85.872-546.719c0.408-2.044,0.408-3.68,0.408-5.725
			c0-114.904-93.641-208.137-208.137-208.137h-323.451V803.107c0-98.139-28.624-169.29-85.463-210.591
			c-89.553-65.835-213.045-28.215-218.36-26.579c-15.539,4.907-25.762,19.219-25.762,35.167V862.4
			c0,206.093-239.215,276.426-249.029,279.288c-4.907,1.228-8.996,3.681-12.677,6.543c-12.676-15.947-32.304-26.171-53.977-26.171
			H315.478C277.857,1121.652,246.78,1152.729,246.78,1190.759z M656.104,1212.84c12.267-3.271,303.414-87.916,303.414-350.439
			V630.955c31.896-4.907,86.689-7.77,126.354,21.264c36.394,26.988,55.203,77.693,55.203,150.889V1073.4
			c0,20.445,16.766,37.211,37.212,37.211h360.253c73.196,0,132.897,58.884,134.124,131.671l-85.463,544.265c0,0.409,0,0.818,0,1.227
			c-11.041,92.006-69.925,138.622-174.197,138.622H773.053c-74.014,0-134.124-60.11-134.124-134.124v-579.022
			C644.244,1214.476,650.378,1214.476,656.104,1212.84z M320.793,1195.666h243.713v707.013H320.793V1195.666z"/>
</svg>
