<svg id="Layer_1" data-name="Layer 1" xmlns="http://www.w3.org/2000/svg" viewBox="0 0 2000 2000">
    <defs>
        <style>
            .cls-1 {
                fill: #e74a3e;
            }
            
            .cls-2 {
                fill: #181818;
            }
        </style>
    </defs>	
    <title>Business-Collection</title>
		<path id="XMLID_314_" class="cls-2" d="M728.782,1318.983H565.19c-8.61,0-15.99-7.38-15.99-15.99V854.038
			c0-8.609,7.381-15.989,15.99-15.989h163.592c8.61,0,15.99,7.38,15.99,15.989v448.545
			C744.772,1311.604,737.393,1318.983,728.782,1318.983z"/>
		<path class="cls-1" d="M1832.104,1011.48c-3.69-7.381-3.69-15.99,0-22.961l113.161-221.402c12.3-23.78,14.351-50.84,6.149-76.261
			c-8.199-25.42-25.83-45.92-49.61-58.22l-221.812-112.342c-7.381-3.689-12.301-10.66-13.53-18.86l-38.54-245.592
			c-7.791-48.791-49.201-84.051-98.401-84.051c-5.33,0-10.66,0.41-15.58,1.23l-245.593,38.951c-7.79,1.23-16.4-1.64-22.14-6.97
			L1070.727,29.11C1051.865,10.25,1026.855,0,1000.205,0s-51.66,10.25-70.521,29.11L753.793,205.002
			c-4.92,4.92-11.07,7.38-18.041,7.38l0,0c-1.229,0-2.869,0-4.1-0.41L486.06,173.021c-5.33-0.82-10.659-1.229-15.58-1.229
			c-49.2,0-90.61,35.26-98.4,84.051l-38.541,245.593c-1.229,8.199-6.149,15.17-13.53,18.859L98.196,633.046
			c-23.78,11.891-41.411,32.801-49.611,58.221c-8.2,25.421-6.15,52.48,6.15,76.261L167.896,988.93c3.69,7.38,3.69,15.99,0,22.961
			L54.735,1233.292c-12.3,23.78-14.35,50.841-6.15,76.261c8.2,25.421,25.831,45.921,49.611,58.221l221.402,111.932
			c7.38,3.689,12.3,10.66,13.53,18.859l38.54,245.593c7.79,48.791,49.2,84.051,98.401,84.051c5.33,0,10.659-0.41,15.58-1.229
			l245.592-38.951c7.79-1.229,16.4,1.641,22.141,6.971l175.481,175.892c18.86,18.86,43.87,29.11,70.521,29.11
			s51.661-10.25,70.521-29.11l175.481-175.892c5.739-5.74,13.94-8.61,22.14-6.971l245.593,38.951c5.33,0.82,10.66,1.229,15.99,1.229
			c49.2,0,90.61-35.26,98.401-84.051l38.54-245.593c1.229-8.199,6.149-15.17,13.53-18.859l221.812-112.752
			c23.78-11.89,41.411-32.8,49.61-58.22c8.201-25.421,6.15-52.48-6.149-76.261L1832.104,1011.48z M1880.484,1286.183
			c-2.051,6.561-6.561,11.891-12.711,14.761l-221.813,112.751c-28.29,14.35-48.38,41.82-53.3,73.391l-38.54,245.593
			c-2.051,13.529-15.171,23.37-29.111,20.91l-245.592-38.951c-5.33-0.819-10.25-1.229-15.58-1.229
			c-26.65,0-51.66,10.25-70.521,29.11l-175.481,175.892c-9.43,9.43-26.24,9.43-36.08,0l-175.481-175.892
			c-18.451-18.45-44.281-29.11-70.521-29.11c-5.33,0-10.66,0.41-15.58,1.229l-245.592,38.951c-13.94,2.05-27.061-7.381-29.11-21.32
			l-38.541-245.593c-4.92-31.57-25.01-59.04-53.3-73.391l-221.813-112.751c-6.15-2.87-10.66-8.2-12.71-14.761
			c-2.05-6.56-1.64-13.529,1.64-19.27l113.161-221.402c14.35-28.29,14.35-62.321,0-90.611L120.746,733.087
			c-3.28-6.149-3.69-13.12-1.64-19.27c2.05-6.561,6.56-11.891,12.71-14.761l221.813-112.751c28.29-14.35,48.38-41.82,53.3-73.391
			l38.541-245.592c2.05-13.53,15.17-23.371,29.11-20.911l245.592,38.951c5.33,0.82,10.66,1.23,15.58,1.23l0,0
			c26.24,0,52.07-10.66,70.521-29.11L981.755,81.591c9.43-9.43,26.24-9.43,36.08,0l175.481,175.892
			c22.141,22.141,54.941,32.8,86.102,27.88l245.592-38.951c13.94-2.05,27.061,7.38,29.111,20.911l38.54,245.592
			c4.92,31.57,25.01,59.041,53.3,73.391l221.813,112.751c6.15,2.87,10.66,8.2,12.711,14.761c2.05,6.56,1.64,13.53-1.641,19.27
			l-113.161,221.402c-14.351,28.29-14.351,62.321,0,90.611l113.161,221.402C1882.124,1272.652,1882.534,1279.623,1880.484,1286.183z
			"/>
		<path class="cls-1" d="M1320.828,758.098h-184.502V628.946c0-65.19-19.68-112.751-58.221-141.041
			c-59.86-43.871-138.171-21.32-147.191-18.45c-15.58,4.92-25.83,19.27-25.83,35.26v160.722
			c0,111.932-127.921,153.342-141.861,157.441c-12.71-13.53-30.75-22.14-50.431-22.14H581.591c-38.13,0-69.291,31.16-69.291,69.29
			v416.154c0,38.131,31.161,69.291,69.291,69.291h131.201c15.58,0,29.521-5.33,41.411-13.53c25.42,23.37,59.04,37.721,96.351,37.721
			h393.604c93.481,0,155.802-51.251,166.462-137.352l52.891-336.203c0.41-2.051,0.41-3.69,0.41-5.74
			C1463.51,822.059,1399.549,758.098,1320.828,758.098z M707.462,1281.673H586.101V875.358h121.361V1281.673z M1336.818,1231.652
			c0,0.41,0,0.82,0,1.229c-2.05,18.04-9.021,72.571-92.661,72.571H850.554c-37.721,0-68.061-30.75-68.061-68.061V895.039
			c0,0,0,0,0.409,0c8.2-2.05,197.213-56.99,197.213-229.603V535.875c16.81-1.229,38.54,0,54.94,11.891
			c18.45,13.53,27.88,41,27.88,81.181v166.462c0,20.5,16.811,37.311,37.311,37.311h221.813c36.9,0,66.83,29.11,68.061,65.601
			L1336.818,1231.652z"/>
</svg>
