<svg id="Layer_1" data-name="Layer 1" xmlns="http://www.w3.org/2000/svg" viewBox="0 0 2000 2000">
    <defs>
        <style>
            .cls-1 {
                fill: #e74a3e;
            }
            
            .cls-2 {
                fill: #181818;
            }
        </style>
    </defs>	
    <title>Business-Collection</title>
		<path class="cls-2" d="M1310.88,1448.504v480.098h651.562v-480.098H1310.88z M1666.871,1696.718
			c-4.083,2.857-5.308,5.715-5.308,10.614c0,21.229,0,42.866,0,64.095c0.816,8.981-4.082,17.555-11.839,21.637
			c-18.779,9.39-37.559-4.082-37.559-21.637c0-21.637,0-42.866,0-64.503c0-4.49-1.225-7.349-4.899-10.206
			c-19.188-14.289-25.72-38.783-15.921-60.013c9.389-20.82,32.659-33.067,54.297-28.577c24.086,4.491,40.824,24.087,41.232,48.581
			C1687.283,1673.039,1680.343,1686.92,1666.871,1696.718z"/>
		<path id="XMLID_1341_" class="cls-2" d="M393.55,1682.021H64.095c-15.105,0-27.353-12.247-27.353-27.353V765.915
			c0-15.104,12.248-27.353,27.353-27.353h329.047c15.104,0,27.353,12.248,27.353,27.353v888.753
			C420.902,1669.773,408.246,1682.021,393.55,1682.021z"/>
		<path class="cls-1" d="M1393.754,1286.43v124.924h-82.466c-20.412,0-37.15,16.738-37.15,37.15v480.098
			c0,20.412,16.738,37.15,37.15,37.15h651.562c20.412,0,37.15-16.738,37.15-37.15v-480.098c0-20.412-16.738-37.15-37.15-37.15
			h-82.466V1286.43c0-134.313-109.002-243.314-243.315-243.314C1502.756,1043.115,1393.754,1152.525,1393.754,1286.43z
			 M1925.699,1891.451H1348.03v-405.797h577.669V1891.451z M1806.083,1286.43v124.924h-338.437V1286.43
			c0-93.488,75.934-169.422,169.422-169.422S1806.083,1193.35,1806.083,1286.43z"/>
		<path class="cls-1" d="M0,793.676v833.64c0,50.623,41.233,91.855,91.855,91.855h273.934c31.435,0,58.787-15.513,75.525-39.6
			c44.907,53.072,111.859,86.956,186.568,86.956h245.356h25.312h223.719c20.412,0,37.15-16.738,37.15-37.15
			s-16.738-37.15-37.15-37.15H897.734h-25.312H627.066c-93.488,0-169.83-76.342-169.83-169.83V812.863
			c5.307,2.45,11.022,4.083,16.738,4.083c3.266,0,6.531-0.408,9.798-1.225c3.674-1.226,90.631-25.72,178.403-88.182
			c119.208-84.507,182.486-198,182.486-327.822V113.129c38.375-6.94,111.859-13.064,164.932,26.128
			c46.132,33.884,69.402,97.571,69.402,188.61v326.597c0,20.412,16.738,37.15,37.15,37.15h164.932h211.472h58.787
			c93.488,0,169.831,76.342,169.831,169.831c0,0.816,0.408,2.041,0.408,2.857l-6.124,39.6
			c-3.266,20.004,10.614,39.192,30.618,42.458c2.041,0.408,4.083,0.408,5.716,0.408c17.963,0,33.477-13.063,36.334-31.026
			l6.532-40.825c0.408-3.266,0.408-6.532,0-9.798c0-1.225,0.408-2.449,0.408-3.674c0-134.313-109.41-243.724-243.724-243.724
			h-58.787h-211.472h-128.189V327.867c0-115.942-33.477-199.632-100.021-248.214C947.54,2.494,802.205,46.585,796.081,48.626
			c-15.514,4.899-25.72,19.188-25.72,35.109v315.982c0,255.154-293.938,341.295-306.593,344.561
			c-6.124,1.633-11.84,5.308-15.922,9.39c-14.697-30.618-46.54-52.256-82.874-52.256H91.855C41.233,701.82,0,743.054,0,793.676z
			 M73.893,793.676c0-9.798,8.165-17.963,17.963-17.963h273.934c9.798,0,17.963,8.165,17.963,17.963v833.64
			c0,9.798-8.165,17.963-17.963,17.963H91.855c-9.798,0-17.963-8.165-17.963-17.963V793.676z"/>
</svg>
