<svg id="Layer_1" data-name="Layer 1" xmlns="http://www.w3.org/2000/svg" viewBox="0 0 2000 2000">
    <defs>
        <style>
            .cls-1 {
                fill: #e74a3e;
            }
            
            .cls-2 {
                fill: #181818;
            }
        </style>
    </defs>	
    <title>Business-Collection</title>
		<path id="XMLID_163_" class="cls-2" d="M430.201,1189.846H238.877c-52.014,0-94.571-42.557-94.571-94.207V904.315
			c0-52.014,42.557-94.571,94.207-94.571h191.324c52.014,0,94.571,42.557,94.571,94.207v191.324
			C524.772,1147.289,482.215,1189.846,430.201,1189.846z"/>
		<path class="cls-1" d="M334.562,1251.023L334.562,1251.023c-138.411,0-251.023-112.612-251.433-251.023
				c0-66.749,26.208-129.812,73.71-177.313c47.502-47.502,110.565-73.71,177.313-73.71c138.411,0,251.023,112.612,251.434,251.023
				c0,66.748-26.208,129.812-73.711,177.313C464.373,1224.815,401.311,1251.023,334.562,1251.023z M334.562,823.096
				c-47.092,0-91.318,18.428-124.897,52.007S157.658,952.907,157.658,1000c0,97.461,79.443,176.904,176.904,176.904v37.265v-37.265
				c47.093,0,91.319-18.428,124.897-52.007c33.579-33.579,52.007-77.805,52.007-124.897
				C511.466,902.539,432.023,823.096,334.562,823.096z"/>
		<path class="cls-1" d="M333.743,502.048C333.743,502.048,334.152,502.048,333.743,502.048c67.157,0,130.221-26.208,177.723-73.71
			c47.502-47.502,73.71-110.565,73.71-177.314C585.176,112.612,472.563,0,333.743,0c-66.749,0-129.812,26.208-177.314,73.71
			s-73.71,110.565-73.71,177.313C82.719,389.435,195.332,502.048,333.743,502.048z M208.845,126.126
			C242.424,92.547,286.65,74.12,333.743,74.12c97.461,0,176.903,79.443,176.903,176.904c0,47.093-18.427,91.319-52.006,124.898
			c-33.579,33.579-77.805,52.006-124.897,52.006v37.265v-37.265c-97.461,0-176.904-79.443-176.904-176.904
			C156.839,203.931,175.266,159.705,208.845,126.126z"/>
		<path class="cls-1" d="M334.972,1497.952c-66.749,0-129.812,26.208-177.314,73.71s-73.71,110.565-73.71,177.314
			c0,138.41,112.612,251.023,251.024,251.023l0,0c138.411,0,251.023-113.022,251.023-251.434
			C585.995,1610.565,473.383,1497.952,334.972,1497.952z M335.381,1925.881v37.264V1925.881
			c-97.461,0-176.904-79.443-176.904-176.904c0-47.093,18.428-91.319,52.007-124.898s77.805-52.006,124.897-52.006
			c97.461,0,176.904,79.442,176.904,176.904C511.875,1846.438,432.842,1925.881,335.381,1925.881z"/>
		<path class="cls-1" d="M1917.281,236.282c0-20.475-16.79-37.265-37.265-37.265l0,0L861.18,199.836
			c-20.476,0-37.265,16.79-37.265,37.265c0,20.475,16.789,37.265,37.265,37.265l0,0l1018.837-0.819
			C1900.491,273.137,1917.281,256.757,1917.281,236.282z"/>
		<path class="cls-1" d="M810.811,999.591c0,9.828,4.096,19.246,10.647,26.208c6.961,6.961,16.38,11.057,26.208,11.057
			s19.246-4.096,26.208-11.057c6.961-6.962,11.057-16.38,11.057-26.208s-4.096-19.247-11.057-26.208
			c-6.962-6.962-16.38-11.057-26.208-11.057s-19.247,4.095-26.208,11.057C814.906,980.344,810.811,989.763,810.811,999.591z"/>
		<path class="cls-1" d="M1012.285,999.591c0-20.476-16.38-37.265-37.265-37.265c-20.476,0-37.265,16.789-36.855,37.265
			c0,20.475,16.38,37.265,37.265,37.265C995.905,1036.445,1012.694,1020.065,1012.285,999.591z"/>
		<path class="cls-1" d="M1139.64,999.181c0-20.475-16.38-36.854-37.265-36.854c-20.475,0-37.265,16.789-37.265,37.265
			c0,20.475,16.79,37.265,37.265,37.265C1123.26,1036.445,1140.049,1020.065,1139.64,999.181z"/>
		<path class="cls-1" d="M1776.822,998.771c0-20.475-16.789-37.265-37.265-37.265s-36.854,16.79-36.854,37.265
			s16.789,37.265,37.264,37.265C1760.033,1036.036,1776.822,1019.246,1776.822,998.771z"/>
		<path class="cls-1" d="M1522.113,999.181c0-20.475-16.79-37.265-37.265-37.265c-20.476,0-36.855,16.79-36.855,37.265
			c0,20.476,16.38,36.855,37.265,36.855C1505.323,1036.036,1522.113,1019.656,1522.113,999.181z"/>
		<path class="cls-1" d="M1394.758,999.181c0-20.475-16.789-37.265-37.264-37.265c-20.476,0-36.855,16.79-36.855,37.265
			c0,20.476,16.38,36.855,37.265,36.855C1377.969,1036.445,1394.758,1019.656,1394.758,999.181z"/>
		<path class="cls-1" d="M1649.468,999.181c0-20.475-16.79-37.265-37.265-37.265s-36.855,16.79-36.855,37.265
			c0,20.476,16.79,37.265,37.265,37.265C1632.678,1036.036,1649.468,1019.656,1649.468,999.181z"/>
		<path class="cls-1" d="M1267.404,999.181c0-20.475-16.79-37.265-37.266-36.854c-20.475,0-37.264,16.38-36.854,37.265
			c0,20.475,16.38,37.265,37.265,36.854C1250.614,1036.445,1267.404,1019.656,1267.404,999.181z"/>
		<path class="cls-1" d="M1893.12,1024.979c6.962-6.962,11.057-16.38,11.057-26.208s-4.095-19.246-11.057-26.208
			s-16.38-11.057-26.208-11.057s-19.246,4.095-26.208,11.057s-11.056,16.38-11.056,26.208s4.094,19.246,11.056,26.208
			s16.38,11.057,26.208,11.057S1886.159,1031.941,1893.12,1024.979z"/>
		<path class="cls-1" d="M811.63,1748.566c0,20.476,16.789,37.265,37.265,37.265l0,0l1018.837-0.819
			c20.476,0,37.265-16.789,37.265-37.264c0-20.476-16.789-37.265-37.265-37.265l0,0l-1019.247,1.229
			C828.01,1711.712,811.63,1728.092,811.63,1748.566z"/>
</svg>
