<svg id="Layer_1" data-name="Layer 1" xmlns="http://www.w3.org/2000/svg" viewBox="0 0 2000 2000">
    <defs>
        <style>
            .cls-1 {
                fill: #e74a3e;
            }
            
            .cls-2 {
                fill: #181818;
            }
        </style>
    </defs>	
    <title>Business-Collection</title>
		<rect id="XMLID_393_" x="334.084" y="1481.179" class="cls-2" width="481.178" height="481.179"/>
		<path class="cls-1" d="M1665.508,232.406H1144.64l89.198-89.198c14.32-14.321,14.32-38.053,0-52.373
			c-14.32-14.321-38.053-14.321-52.373,0l-152.619,152.209c-14.32,14.321-14.32,38.053,0,52.374l152.619,152.619
			c7.365,7.365,16.775,11.048,26.187,11.048s18.821-3.683,26.187-11.048c14.32-14.321,14.32-38.053,0-52.373l-89.198-89.198h483.634
			v1378.478H852.496v-203.354c0-20.459-16.775-37.234-37.234-37.234H334.084c-20.459,0-37.234,16.775-37.234,37.234v481.178
			c0,20.459,16.775,37.234,37.234,37.234h481.178c20.459,0,37.234-16.775,37.234-37.234v-203.354h813.421
			c20.458,0,37.233-16.776,37.233-37.234V269.64C1702.741,248.772,1685.966,232.406,1665.508,232.406z M778.027,1925.532H370.908
			v-407.12h407.119V1925.532z"/>
		<path class="cls-1" d="M296.85,759.411v481.179c0,20.458,16.775,37.233,37.234,37.233h481.178
			c20.459,0,37.234-16.775,37.234-37.233V759.411c0-20.458-16.775-37.234-37.234-37.234H334.084
			C313.625,722.177,296.85,738.953,296.85,759.411z M370.908,796.645h407.119v407.12H370.908V796.645z"/>
			<path class="cls-1" d="M815.262,481.588c-9.82,0-19.23,4.092-26.187,11.047c-6.956,6.956-11.048,16.367-11.048,26.187
				c0,9.82,4.092,19.231,11.048,26.187c6.956,6.956,16.366,11.048,26.187,11.048s19.23-4.092,26.187-11.048
				c6.956-6.955,11.048-16.366,11.048-26.187c0-9.819-4.092-19.23-11.048-26.187C834.492,485.68,825.082,481.588,815.262,481.588z"
				/>
			<path class="cls-1" d="M694.967,481.588c-20.458,0-37.233,16.775-37.233,37.233c0,20.459,16.366,37.234,37.233,37.234
				c20.459,0,37.234-16.775,37.234-37.234C732.201,498.363,715.426,481.588,694.967,481.588z"/>
			<path class="cls-1" d="M454.378,481.588c-20.458,0-37.233,16.775-37.233,37.233c0,20.459,16.775,37.234,37.233,37.234
				s37.234-16.775,37.234-37.234C491.203,498.363,474.836,481.588,454.378,481.588z"/>
			<path class="cls-1" d="M574.673,481.588c-20.458,0-37.234,16.775-37.234,37.233c0,20.459,16.366,37.234,37.234,37.234
				c20.458,0,37.233-16.775,37.233-37.234C611.498,498.363,595.131,481.588,574.673,481.588z"/>
			<path class="cls-1" d="M334.084,481.588c-9.82,0-19.231,4.092-26.188,11.047c-6.956,6.956-11.047,16.367-11.047,26.187
				c0,9.82,4.091,19.231,11.047,26.187c6.956,6.956,16.367,11.048,26.188,11.048c9.819,0,19.23-4.092,26.186-11.048
				c6.956-6.955,11.048-16.366,11.048-26.187c0-9.819-4.092-19.23-11.048-26.187C353.314,485.68,343.903,481.588,334.084,481.588z"
				/>
			<path class="cls-1" d="M334.084,361.293c-20.459,0-37.234,16.367-37.234,37.234c0,20.458,16.775,37.233,37.234,37.233
				c20.458,0,37.233-16.775,37.233-37.233C370.908,378.069,354.542,361.293,334.084,361.293z"/>
			<path class="cls-1" d="M334.084,120.704c-20.459,0-37.234,16.776-37.234,37.234c0,20.458,16.775,37.234,37.234,37.234
				c20.458,0,37.233-16.776,37.233-37.234C370.908,137.07,354.542,120.704,334.084,120.704z"/>
			<path class="cls-1" d="M334.084,240.999c-20.459,0-37.234,16.367-37.234,36.825s16.775,37.234,37.234,37.234
				c20.458,0,37.233-16.776,37.233-37.234C370.908,257.774,354.542,240.999,334.084,240.999z"/>
			<path class="cls-1" d="M334.084,0.409c-9.82,0-19.231,4.092-26.188,11.047c-6.956,6.956-11.047,16.367-11.047,26.187
				s4.091,19.231,11.047,26.187c6.956,6.956,16.367,11.047,26.188,11.047c9.819,0,19.23-4.091,26.186-11.047
				c6.956-6.956,10.639-16.367,10.639-26.187s-4.092-19.23-11.047-26.187C353.314,4.501,343.494,0.409,334.084,0.409z"/>
			<path class="cls-1" d="M694.967,0.409c-20.458,0-37.233,16.367-37.233,37.234c0,20.458,16.366,37.234,37.233,37.234
				c20.459,0,37.234-16.775,37.234-37.234C732.201,16.776,715.426,0.409,694.967,0.409z"/>
			<path class="cls-1" d="M454.378,0.409c-20.458,0-37.233,16.367-37.233,37.234c0,20.458,16.366,37.234,37.233,37.234
				c20.458,0,37.234-16.775,37.234-37.234C491.203,16.776,474.836,0.409,454.378,0.409z"/>
			<path class="cls-1" d="M574.673,0.409c-20.458,0-37.234,16.367-37.234,37.234c0,20.458,16.366,37.234,37.234,37.234
				c20.458,0,37.233-16.775,37.233-37.234C611.498,16.776,595.131,0.409,574.673,0.409z"/>
			<path class="cls-1" d="M815.262,74.468c9.82,0,19.23-4.092,26.187-11.047c6.956-6.956,11.048-16.367,11.048-26.187
				s-4.092-19.23-11.048-26.187C834.492,4.092,825.082,0,815.262,0s-19.23,4.092-26.187,11.047
				c-6.956,6.956-11.048,16.367-11.048,26.187s4.092,19.231,11.048,26.187C796.031,70.786,805.441,74.468,815.262,74.468z"/>
			<path class="cls-1" d="M815.262,361.293c-20.458,0-37.234,16.367-37.234,36.825c0,20.458,16.367,37.233,37.234,37.233
				c20.459,0,37.234-16.775,37.234-37.233C852.496,378.069,835.721,361.293,815.262,361.293z"/>
			<path class="cls-1" d="M815.262,120.704c-20.458,0-37.234,16.776-37.234,37.234c0,20.458,16.367,37.234,37.234,37.234
				c20.459,0,37.234-16.776,37.234-37.234C852.496,137.07,835.721,120.704,815.262,120.704z"/>
			<path class="cls-1" d="M815.262,240.999c-20.458,0-37.234,16.367-37.234,37.234c0,20.458,16.367,37.234,37.234,37.234
				c20.459,0,37.234-16.776,37.234-37.234S835.721,240.999,815.262,240.999z"/>
</svg>
