<svg id="Layer_1" data-name="Layer 1" xmlns="http://www.w3.org/2000/svg" viewBox="0 0 2000 2000">
    <defs>
        <style>
            .cls-1 {
                fill: #e74a3e;
            }
            
            .cls-2 {
                fill: #181818;
            }
        </style>
    </defs>	
    <title>Business-Collection</title>
		<path class="cls-1" d="M1999.625,999.438c0-266.979-104.098-518.038-292.698-707.047
			c-389.855-389.855-1024.238-389.855-1414.094,0c-368.628,369.036-391.08,960.556-54.294,1355.31
			c-33.883,71.848-91.035,160.024-179.62,203.705c-29.392,14.287-45.721,45.721-40.822,77.971c4.898,32.25,29.8,57.56,62.05,62.459
			c18.778,2.857,45.313,5.715,77.563,5.715c88.993,0,222.483-21.636,357.605-122.876C667.176,1958.77,833.323,2000,999.063,2000
			c258.814,0,514.772-100.424,707.455-293.105C1895.527,1517.478,1999.625,1266.418,1999.625,999.438z M530.828,1797.929
			c-15.513-9.39-35.107-5.716-46.538,7.756c-1.633,0.816-3.266,2.041-4.898,3.266c-164.515,127.774-325.764,119.202-387.814,109.404
			c0-0.408-0.408-0.816,0-0.816c115.528-56.743,184.926-171.046,222.483-256.773c3.674-8.165,3.674-17.146,1.225-25.311
			c-0.408-8.164-3.266-15.921-8.981-22.452C-17.419,1247.231-0.273,690.412,345.086,344.645
			c360.871-360.872,948.309-360.872,1309.18,0c174.721,174.721,271.062,407.409,271.062,654.794s-96.341,479.665-271.062,654.794
			C1355.853,1952.238,894.149,2011.431,530.828,1797.929z"/>
		<path class="cls-2" d="M999.88,277.695c-398.608,0-721.744,323.136-721.744,721.743c0,398.608,323.135,721.743,721.744,721.743
			c398.607,0,721.743-323.135,721.743-721.743C1721.623,600.831,1398.487,277.695,999.88,277.695z M1063.563,1316.63h-26.942v98.383
			c0,20.411-16.737,37.148-37.149,37.148c-20.411,0-37.148-16.737-37.148-37.148v-98.383H833.323
			c-20.411,0-37.148-16.737-37.148-37.148s16.737-37.148,37.148-37.148h229.831c57.151,0,103.281-46.538,103.281-103.281
			c0-57.151-46.538-103.281-103.281-103.281H935.38c-97.566,0-177.17-79.604-177.17-177.17c0-97.565,79.604-177.17,177.17-177.17
			h26.942v-97.157c0-20.412,16.738-37.148,37.148-37.148c20.412,0,37.149,16.736,37.149,37.148v96.749h124.509
			c20.411,0,37.148,16.737,37.148,37.148s-16.737,37.148-37.148,37.148H935.788c-57.151,0-103.281,46.13-103.281,103.281
			s46.538,103.281,103.281,103.281h127.774c97.566,0,177.17,79.196,177.17,177.578
			C1240.732,1237.026,1161.129,1316.63,1063.563,1316.63z"/>
		<path class="cls-1" d="M442.243,1459.509c-15.104,13.88-15.921,37.149-2.449,52.253c7.348,8.165,17.146,11.839,27.351,11.839
			c8.981,0,17.963-3.266,24.902-9.798c15.104-13.879,15.921-37.148,2.449-52.252C481.024,1446.446,457.348,1445.63,442.243,1459.509
			z"/>
		<path class="cls-1" d="M466.328,550.391c10.206,0,20.004-4.082,27.352-12.247c13.88-15.104,12.655-38.373-2.449-52.253
			s-38.373-12.655-52.253,2.449s-12.655,38.373,2.449,52.253C448.366,547.125,457.348,550.391,466.328,550.391z"/>
		<path class="cls-1" d="M1672.636,872.889c3.266,17.962,18.778,30.209,36.332,30.209c2.449,0,4.49-0.408,6.94-0.816
			c20.002-3.674,33.474-22.861,29.8-43.272c-3.674-20.003-23.269-33.475-43.272-29.392
			C1682.025,833.291,1668.962,852.886,1672.636,872.889z"/>
		<path class="cls-1" d="M367.13,1349.288c-17.146,10.614-22.86,33.475-11.839,51.028c6.939,11.431,19.187,17.554,31.434,17.554
			c6.531,0,13.472-1.633,19.595-5.715c17.146-11.022,22.452-33.475,11.839-51.028
			C407.544,1343.573,384.684,1338.674,367.13,1349.288z"/>
		<path class="cls-1" d="M1304.416,386.284c5.307,2.449,11.021,3.674,16.329,3.674c13.472,0,26.534-7.348,33.066-20.411
			c8.98-18.37,1.633-40.415-16.737-49.803c-18.37-8.981-40.414-1.633-49.804,16.737
			C1278.697,354.851,1286.046,376.895,1304.416,386.284z"/>
		<path class="cls-1" d="M1637.937,751.646L1637.937,751.646c5.715,14.696,19.595,23.678,34.291,23.678
			c4.49,0,8.981-0.817,13.472-2.45c19.187-7.348,28.575-28.983,21.228-47.762c-7.349-19.187-28.576-28.576-47.763-21.229
			C1639.978,710.823,1630.588,732.459,1637.937,751.646z"/>
		<path class="cls-1" d="M1186.847,340.563c3.267,0.816,6.94,1.225,10.206,1.225c15.921,0,31.025-10.614,35.516-26.943
			c5.307-19.595-5.715-40.006-25.719-45.721c-19.594-5.715-40.006,5.715-45.721,25.31
			C1155.414,314.844,1166.844,335.255,1186.847,340.563z"/>
		<path class="cls-1" d="M361.822,1248.048c-7.348-19.187-28.983-28.575-47.762-21.228c-19.187,7.348-28.576,28.984-21.228,47.763
			c5.715,14.696,19.595,23.677,34.291,23.677c4.491,0,8.981-0.816,13.472-2.449C359.781,1288.871,369.171,1267.234,361.822,1248.048
			z"/>
		<path class="cls-1" d="M1305.641,1612.186c-18.37,8.981-25.718,31.434-16.329,49.804c6.532,13.063,19.595,20.411,33.066,20.411
			c5.715,0,11.431-1.225,16.329-3.674c18.37-9.39,25.719-31.434,16.329-49.804
			C1346.463,1610.145,1324.011,1602.797,1305.641,1612.186z"/>
		<path class="cls-1" d="M1721.215,961.474c-20.412,0-37.148,16.737-37.148,37.148s16.736,36.74,37.148,36.74
			c20.411,0,37.148-16.737,37.148-37.148C1758.363,978.211,1741.626,961.474,1721.215,961.474z"/>
		<path class="cls-1" d="M1715.908,1094.964c-20.004-3.675-39.19,9.389-43.272,29.8c-3.674,20.004,9.39,39.19,29.8,43.272
			c2.45,0.408,4.491,0.408,6.94,0.408c17.554,0,33.066-12.247,36.332-30.209C1749.382,1117.824,1736.318,1098.638,1715.908,1094.964
			z"/>
		<path class="cls-1" d="M297.323,1170.077c20.003-3.674,33.475-23.269,29.8-43.272c-3.674-20.003-23.269-33.475-43.271-29.392
			c-20.003,3.674-33.475,23.269-29.392,43.271c3.266,17.962,18.778,30.209,36.332,30.209
			C292.833,1170.485,294.874,1170.485,297.323,1170.077z"/>
		<path class="cls-1" d="M1411.779,452.824c6.531,4.898,14.288,7.349,22.044,7.349c11.431,0,22.452-4.899,29.801-14.696
			c12.247-16.329,8.981-39.598-7.349-51.845c-16.328-12.247-39.598-8.981-51.844,7.348
			C1392.185,417.309,1395.45,440.578,1411.779,452.824z"/>
		<path class="cls-1" d="M1633.446,1347.247c-17.554-10.614-40.007-5.307-51.028,11.839c-10.614,17.554-5.307,40.414,11.838,51.028
			c6.124,3.674,12.655,5.715,19.596,5.715c12.246,0,24.493-6.124,31.433-17.554
			C1656.307,1380.722,1650.592,1357.861,1633.446,1347.247z"/>
		<path class="cls-1" d="M1686.516,1224.779c-19.188-7.348-40.414,2.041-47.763,21.228l0,0
			c-7.349,19.187,2.041,40.415,21.228,47.763c4.49,1.633,8.981,2.449,13.472,2.449c14.696,0,28.983-8.98,34.699-23.677l0,0
			C1715.091,1253.764,1705.702,1232.127,1686.516,1224.779z"/>
		<path class="cls-1" d="M314.877,1001.071c0-0.408,0-0.408,0-0.816s0-0.408,0-0.816c0-20.411-16.737-37.148-37.149-37.148
			c-20.411,0-37.148,16.737-37.148,37.148c0,0.408,0,0.408,0,0.816s0,0.408,0,0.816c0,20.412,16.737,37.149,37.148,36.741
			C298.548,1038.221,314.877,1021.483,314.877,1001.071z"/>
		<path class="cls-1" d="M283.443,903.098c2.041,0.408,4.49,0.816,6.94,0.816c17.553,0,33.066-12.655,36.332-30.209
			c3.675-20.003-9.389-39.189-29.8-43.271c-20.003-3.674-39.19,9.389-43.272,29.8C249.969,880.236,263.44,899.424,283.443,903.098z"
			/>
		<path class="cls-1" d="M313.244,773.281c4.49,1.633,8.98,2.45,13.471,2.45c14.696,0,28.576-8.981,34.291-23.678
			c7.349-19.187-2.041-40.414-21.228-47.762c-19.187-7.349-40.414,2.041-47.762,21.228
			C284.668,744.298,294.057,765.934,313.244,773.281z"/>
		<path class="cls-1" d="M366.313,651.223c6.123,3.674,12.654,5.715,19.595,5.715c12.246,0,24.493-6.124,31.434-17.554
			c10.613-17.554,5.307-40.007-11.839-51.028c-17.554-10.614-40.006-5.307-51.028,11.838
			C343.86,617.34,349.168,640.2,366.313,651.223z"/>
		<path class="cls-1" d="M937.829,1681.176c-20.411-1.633-38.373,13.063-40.006,33.475c-2.041,20.411,13.063,38.373,33.475,40.006
			c1.225,0,2.041,0,3.266,0c19.187,0,35.107-14.288,36.74-33.883S957.832,1683.217,937.829,1681.176z"/>
		<path class="cls-1" d="M813.729,1658.315c-19.595-5.716-40.006,6.123-45.721,25.718c-5.308,19.595,6.123,40.006,25.718,45.722
			c3.266,0.816,6.939,1.225,10.206,1.225c15.92,0,31.024-10.614,35.516-26.943C844.754,1684.441,833.323,1664.03,813.729,1658.315z"
			/>
		<path class="cls-1" d="M695.751,1613.002c-18.37-8.98-40.414-1.633-49.396,16.737c-8.98,18.37-1.633,40.414,16.738,49.804
			c5.307,2.449,11.021,3.674,16.328,3.674c13.472,0,26.535-7.756,33.066-20.411C721.47,1644.436,714.121,1621.983,695.751,1613.002z
			"/>
		<path class="cls-1" d="M1188.071,1657.907c-19.595,5.715-31.024,26.126-25.31,45.721c4.49,16.329,19.595,26.943,35.516,26.943
			c3.266,0,6.939-0.408,10.205-1.633c19.596-5.716,31.025-26.127,25.311-45.722
			C1228.486,1663.622,1207.666,1652.191,1188.071,1657.907z"/>
		<path class="cls-1" d="M677.789,390.366c5.308,0,11.022-1.225,16.329-4.082c18.37-8.981,25.719-31.433,16.329-49.804
			c-8.98-18.37-31.434-25.718-49.395-16.329c-18.371,8.98-25.719,31.433-16.738,49.803
			C651.255,383.018,664.318,390.366,677.789,390.366z"/>
		<path class="cls-1" d="M587.979,1546.869c-16.329-12.246-39.598-8.98-51.845,7.349c-12.246,16.329-8.98,39.598,7.349,51.845
			c6.531,4.898,14.288,7.348,22.044,7.348c11.431,0,22.452-4.898,29.801-14.696C607.574,1582.385,604.717,1559.116,587.979,1546.869
			z"/>
		<path class="cls-1" d="M1532.614,549.982c8.981,0,17.962-3.266,24.901-9.798c15.104-13.88,15.921-37.148,2.449-52.253
			c-13.879-15.104-37.148-16.329-52.252-2.449c-15.104,13.88-16.329,37.148-2.449,52.253
			C1512.611,545.9,1522.408,549.982,1532.614,549.982z"/>
		<path class="cls-1" d="M1062.338,317.702c1.225,0,2.449,0,3.266,0c18.779,0,35.107-14.288,36.74-33.475
			c1.633-20.411-13.063-38.373-33.475-40.006c-20.411-2.042-38.373,13.063-40.006,33.474
			C1027.23,297.699,1041.927,315.661,1062.338,317.702z"/>
		<path class="cls-1" d="M1413.004,1545.236c-16.329,12.247-19.595,35.516-6.939,51.845c7.348,9.798,18.37,14.696,29.393,14.696
			c7.756,0,15.512-2.449,22.452-7.756c16.329-12.247,19.595-35.516,7.348-51.845
			C1452.602,1536.256,1429.333,1532.99,1413.004,1545.236z"/>
		<path class="cls-1" d="M1506.488,1459.918c-13.88,15.104-12.655,38.373,2.449,52.252c7.348,6.532,15.92,9.798,24.901,9.798
			c10.206,0,20.003-4.082,27.352-12.247c13.88-15.104,12.655-38.373-2.45-52.253
			C1543.637,1443.588,1519.959,1444.813,1506.488,1459.918z"/>
		<path class="cls-1" d="M1063.971,1681.176c-20.411,2.041-35.107,20.003-33.475,40.414c1.633,19.188,17.963,33.475,36.74,33.475
			c1.225,0,2.449,0,3.266,0c20.412-2.041,35.517-20.003,33.475-40.414C1102.344,1694.239,1084.383,1679.135,1063.971,1681.176z"/>
		<path class="cls-1" d="M801.891,342.195c3.266,0,6.939-0.408,10.205-1.633c19.595-5.307,31.025-26.126,25.311-45.722
			c-5.716-19.595-26.127-31.025-45.722-25.31c-19.595,5.715-31.025,26.126-25.31,45.721
			C770.865,331.582,785.561,342.195,801.891,342.195z"/>
		<path class="cls-1" d="M932.522,317.702c1.225,0,2.449,0,3.266,0c20.411-2.041,35.516-20.003,33.475-40.006
			c-2.041-20.411-20.003-35.516-40.414-33.474c-20.411,2.041-35.107,20.003-33.475,40.006
			C897.823,303.414,913.744,317.702,932.522,317.702z"/>
		<path class="cls-1" d="M1613.035,656.121c6.939,0,13.471-1.633,19.594-5.715c17.555-10.614,22.453-33.475,11.839-51.028
			s-33.475-22.453-51.028-11.839c-17.146,10.614-22.452,33.475-11.838,51.028C1588.541,649.997,1600.788,656.121,1613.035,656.121z"
			/>
		<path class="cls-1" d="M564.711,460.581c7.756,0,15.513-2.45,22.452-7.349l0,0c16.329-12.246,19.595-35.516,7.349-51.845
			c-12.247-16.329-35.516-19.595-51.845-7.348s-19.595,35.516-7.349,51.845C542.259,455.682,553.28,460.581,564.711,460.581z"/>
</svg>
