<svg id="Layer_1" data-name="Layer 1" xmlns="http://www.w3.org/2000/svg" viewBox="0 0 2000 2000">
    <defs>
        <style>
            .cls-1 {
                fill: #e74a3e;
            }
            
            .cls-2 {
                fill: #181818;
            }
        </style>
    </defs>	
    <title>Business-Collection</title>
		<path class="cls-1" d="M2000,1540.218c0-1.224,0-2.447-0.408-3.671c0-1.224-0.407-2.447-0.815-3.671s-0.408-2.447-0.815-3.263
			c-0.408-1.224-0.816-2.039-1.632-3.263c-0.408-1.224-0.815-2.04-1.632-3.263c-0.407-1.224-1.223-2.04-2.039-2.855
			c-0.815-0.816-1.224-2.039-2.039-2.855c-0.816-0.815-1.632-1.631-2.855-2.447c-0.815-0.815-1.631-1.631-2.447-2.447
			c-0.815-0.815-2.039-1.223-3.263-2.039c-0.815-0.408-1.632-1.224-2.854-1.631l-449.876-221.879
			c-1.224-0.816-2.447-1.224-4.079-1.632c-7.749-2.854-193.328-67.706-345.054,0.408l-334.857,121.136
			c-0.815,0.408-2.039,0.816-2.854,1.224c-48.129,22.024-73.416,71.376-63.22,123.176c10.196,51.391,51.799,87.69,104.006,90.138
			c0.408,0,0.408,0,0.815,0c3.264,0,17.946-0.815,170.488-10.604c66.481-4.078,135.003-8.565,141.121-8.973
			c19.17-0.816,35.076-16.314,35.484-35.893c0.408-20.394-15.499-37.523-36.3-37.931c-2.04,0-2.04,0-144.792,8.973
			c-71.377,4.486-151.318,9.789-164.778,10.604c-25.695-2.039-31.813-23.656-33.444-30.183
			c-2.855-13.867,1.224-32.221,20.393-41.602l334.45-121.137c0.815-0.407,1.631-0.815,2.854-1.223
			c117.466-53.431,270.823-5.303,289.177,0.407l200.262,98.704l-110.123,259.81c-54.246-33.444-120.32-42.418-181.501-24.063
			l-449.467,135.003c-53.431,16.314-112.571,10.196-161.923-16.723L92.006,1425.2c-25.287-13.867-17.13-37.932-15.091-42.826
			c2.447-6.525,13.052-26.919,38.747-19.985l546.947,182.316c19.17,6.525,40.379-4.079,46.904-23.249
			c6.526-19.577-4.078-40.378-23.248-46.904L138.095,1291.42c-0.815-0.407-1.223-0.407-2.039-0.407
			c-54.246-14.684-106.861,11.42-127.662,63.627c-21.209,52.614-1.223,108.084,48.536,135.411l704.384,382.578
			c66.481,36.3,146.016,44.457,218.208,22.432l449.467-135.003c41.195-12.236,85.652-6.526,121.952,16.723l229.22,144.384
			c1.225,0.816,2.04,1.224,3.264,1.632c0.407,0,0.407,0.408,0.815,0.408h0.408c0.407,0.407,0.815,0.407,1.631,0.407
			c0.816,0.408,2.04,0.816,2.855,1.224c0.407,0,1.224,0.408,1.632,0.408c0.815,0.407,2.039,0.407,2.854,0.815
			c0.408,0,1.224,0,1.632,0.408c1.631,0,2.855,0.408,4.486,0.408l0,0l0,0l0,0l0,0c1.631,0,3.263,0,4.895-0.408
			c0.408,0,1.224,0,1.631-0.408c1.224,0,2.04-0.408,3.264-0.815c0.407,0,1.223-0.408,1.631-0.408
			c0.816-0.407,2.039-0.815,2.855-1.224c0.408-0.407,1.224-0.407,1.631-0.815c0.816-0.408,1.632-0.815,2.855-1.632
			c0.408-0.407,1.224-0.815,1.632-0.815c0.815-0.408,1.631-1.224,2.446-1.632c0.408-0.407,1.225-0.815,1.632-1.223
			c0.815-0.816,1.224-1.225,2.04-2.04c0.407-0.407,0.815-0.815,1.631-1.631c0.816-0.816,1.224-1.632,1.632-2.447
			c0.407-0.408,0.815-1.224,1.224-1.632c0,0,0-0.408,0.407-0.408c0-0.407,0.408-0.815,0.408-0.815
			c0.407-0.815,1.224-2.039,1.632-3.263l163.146-347.502c0.408-1.223,0.815-2.039,1.224-3.263s0.816-2.447,1.224-3.263
			c0.408-1.224,0.408-2.447,0.408-3.671s0.407-2.447,0.407-3.671C2000,1542.665,2000,1541.441,2000,1540.218z M1914.349,1558.979
			l-130.109,276.94l-131.74-83.204l112.979-266.744L1914.349,1558.979z"/>
		<path class="cls-2" d="M679.74,110.242c-308.828,0-559.184,250.355-559.184,559.183c0,308.829,250.355,559.184,559.184,559.184
			s559.184-250.354,559.184-559.184C1238.924,360.597,988.568,110.242,679.74,110.242z M731.539,934.13h-15.091v73.008
			c0,20.394-16.723,37.116-37.116,37.116c-20.393,0-37.115-16.723-37.115-37.116V934.13h-97.48
			c-20.393,0-37.115-16.723-37.115-37.116c0-20.393,16.723-37.115,37.115-37.115h186.395c42.418,0,76.679-34.261,76.679-76.679
			s-34.261-76.679-76.679-76.679H627.533c-82.797,0-150.502-67.706-150.91-150.502c0-83.205,67.706-150.91,150.91-150.91h15.091
			v-71.785c0-20.393,16.723-37.116,37.116-37.116c20.393,0,37.115,16.723,37.115,37.116v71.376h94.217
			c20.394,0,37.116,16.723,37.116,37.115c0,20.394-16.723,37.116-37.116,37.116H627.941c-42.418,0-76.679,34.261-76.679,76.679
			s34.261,76.679,76.679,76.679h103.598c83.204,0,150.91,67.706,150.91,150.91S814.743,934.13,731.539,934.13z"/>
		<path class="cls-1" d="M679.74,1265.316c328.739,0,595.891-267.56,595.891-595.892c0-328.331-267.56-596.299-595.891-596.299
			c-328.332,0-596.299,267.56-596.299,596.299C83.441,998.165,351.001,1265.316,679.74,1265.316z M679.74,147.357
			c287.953,0,522.067,234.115,522.067,522.067c0,287.953-234.114,522.068-522.067,522.068S157.673,957.378,157.673,669.425
			C157.673,381.472,391.787,147.357,679.74,147.357z"/>
</svg>
