<svg id="Layer_1" data-name="Layer 1" xmlns="http://www.w3.org/2000/svg" viewBox="0 0 2000 2000">
    <defs>
        <style>
            .cls-1 {
                fill: #e74a3e;
            }
            
            .cls-2 {
                fill: #181818;
            }
        </style>
    </defs>	
    <title>Business-Collection</title>
		<path id="XMLID_7028_" class="cls-2" d="M999.849,448.713L999.849,448.713c197.794,0,359.216,161.83,359.216,359.215v384.145
			c0,197.793-161.831,359.215-359.216,359.215l0,0c-197.793,0-359.215-161.831-359.215-359.215V807.928
			C640.634,610.543,802.056,448.713,999.849,448.713z"/>
		<path class="cls-1" d="M999.849,1925.623c-164.691,0-328.974-42.092-488.353-125.46
			c-134.042-70.29-242.338-178.177-312.219-313.036C-19.767,1067.021,52.975,604.413,383.992,308.95
			c15.121-13.486,16.756-37.188,2.861-52.309c-13.486-15.12-37.188-16.755-52.31-2.86C171.079,399.673,58.696,597.875,17.83,812.015
			c-44.544,233.756-4.495,478.954,115.652,709.44c77.237,147.936,196.159,267.266,343.686,344.503
			C647.581,1955.047,823.306,2000,999.849,2000c551.287,0,1000-448.713,1000-1000S1551.136,0,999.849,0
			c-20.433,0-37.188,16.755-37.188,37.188v376.379c-201.063,18.799-359.215,188.395-359.215,394.36v384.145
			c0,218.635,177.769,396.403,396.403,396.403c218.636,0,396.403-177.769,396.403-396.403V807.928
			c0-205.966-158.152-375.562-359.215-394.36V75.194c493.257,19.207,888.435,426.645,888.435,924.806
			C1925.472,1510.421,1510.27,1925.623,999.849,1925.623z M1321.872,807.928v384.145c0,177.769-144.667,322.026-322.027,322.026
			s-322.027-144.667-322.027-322.026V807.928c0-177.769,144.667-322.026,322.027-322.026S1321.872,630.568,1321.872,807.928z"/>
		<path class="cls-1" d="M962.66,712.709v137.312c0,20.433,16.756,37.188,37.188,37.188c20.434,0,37.188-16.756,37.188-37.188
			V712.709c0-20.433-16.755-37.188-37.188-37.188C979.416,675.521,962.66,692.276,962.66,712.709z"/>
</svg>
