<svg id="Layer_1" data-name="Layer 1" xmlns="http://www.w3.org/2000/svg" viewBox="0 0 2000 2000">
    <defs>
        <style>
            .cls-1 {
                fill: #e74a3e;
            }
            
            .cls-2 {
                fill: #181818;
            }
        </style>
    </defs>	
    <title>Business-Collection</title>
		<path class="cls-2" d="M999.853,1962.781L999.853,1962.781c-206.135,0-373.006-166.871-373.006-373.006v-373.007
			c0-206.135,166.871-373.006,373.006-373.006l0,0c206.136,0,373.007,166.871,373.007,373.006v373.007
			C1372.859,1795.91,1205.988,1962.781,999.853,1962.781z"/>
		<path class="cls-1" d="M1269.791,429.856c11.452,0,22.904-5.316,30.267-15.542c11.86-16.769,7.771-39.672-8.589-51.533
			c-85.072-60.532-186.095-92.434-291.207-92.434s-206.135,31.902-291.207,92.434c-16.769,11.861-20.449,35.174-8.589,51.533
			c11.861,16.77,35.174,20.45,51.534,8.59c71.983-51.534,157.873-78.528,247.853-78.528s175.869,27.403,248.262,78.937
			C1254.658,427.812,1262.43,429.856,1269.791,429.856z"/>
		<path class="cls-1" d="M999.853,538.65c-46.217,0-89.979,13.906-127.198,40.49c-16.769,11.861-20.449,35.174-8.589,51.534
			c11.86,16.769,35.174,20.45,51.534,8.589c24.539-17.587,53.578-26.585,84.253-26.585s59.714,9.407,84.254,26.585
			c6.544,4.499,13.905,6.953,21.268,6.953c11.452,0,22.904-5.317,30.267-15.542c11.86-16.769,7.771-39.673-8.59-51.534
			C1089.832,552.557,1046.069,538.65,999.853,538.65z"/>
		<path class="cls-1" d="M1460.793,220.45c11.452,0,22.904-5.317,30.267-15.542c11.86-16.769,7.771-39.673-8.589-51.534
			C1340.957,52.761,1174.495,0,999.853,0C825.211,0,658.748,52.761,517.645,152.965c-16.77,11.861-20.45,35.174-8.59,51.534
			c11.861,16.769,35.174,20.45,51.534,8.589c128.426-90.797,280.164-139.06,439.264-139.06
			c159.101,0,310.839,48.262,439.265,139.469C1445.66,217.996,1453.432,220.45,1460.793,220.45z"/>
		<path class="cls-1" d="M999.853,1301.432c20.45,0,37.219-16.77,37.219-37.219v-190.594c0-20.449-16.769-37.219-37.219-37.219
			s-37.219,16.77-37.219,37.219v190.594C962.634,1284.662,979.402,1301.432,999.853,1301.432z"/>
		<path class="cls-1" d="M589.628,1589.775c0,226.176,184.049,410.225,410.225,410.225s410.226-184.049,410.226-410.225v-373.007
			c0-226.176-184.05-410.225-410.226-410.225s-410.225,184.049-410.225,410.225V1589.775L589.628,1589.775z M663.656,1216.769
			c0-185.275,150.92-336.196,336.196-336.196s336.196,150.921,336.196,336.196v373.007c0,185.275-150.92,336.196-336.196,336.196
			s-336.196-150.921-336.196-336.196V1216.769z"/>
</svg>
