<svg id="Layer_1" data-name="Layer 1" xmlns="http://www.w3.org/2000/svg" viewBox="0 0 2000 2000">
    <defs>
        <style>
            .cls-1 {
                fill: #e74a3e;
            }
            
            .cls-2 {
                fill: #181818;
            }
        </style>
    </defs>	
    <title>Business-Collection</title>
		<path class="cls-2" d="M1069.635,1963.243H930.773c-144.17,0-261.793-118.032-261.793-261.793v-465.183
			c0-144.17,118.032-261.793,261.793-261.793h138.861c144.17,0,261.793,118.031,261.793,261.793v465.183
			C1331.428,1845.211,1213.805,1963.243,1069.635,1963.243z"/>
		<path class="cls-1" d="M916.888,937.309c-157.239,0-285.072,127.833-285.072,285.072v492.547
			c0,157.239,127.833,285.072,285.072,285.072h166.225c157.239,0,285.072-127.833,285.072-285.072v-492.547
			c0-157.239-127.833-285.072-285.072-285.072h-41.658V755.973c0-66.979-54.319-121.299-121.299-121.299H659.996
			c-35.124,0-63.713-28.589-63.713-63.712c0-35.124,28.589-63.713,63.713-63.713h684.501c73.515,0,133.551-60.036,133.551-133.551
			s-60.036-133.551-133.551-133.551h-251.583c-28.589,0-51.46-23.28-51.46-51.46V37.166c0-20.42-16.745-37.166-37.166-37.166
			s-37.165,16.745-37.165,37.166V187.87c0,69.022,56.36,125.383,125.383,125.383h251.582c32.674,0,59.629,26.547,59.629,59.628
			s-26.547,59.628-59.629,59.628H659.996c-75.965,0-138.044,62.079-138.044,138.044s61.671,138.043,138.044,138.043h260.159
			c26.139,0,47.376,21.238,47.376,47.376v181.336H916.888z M1294.67,1222.381v492.547c0,116.397-94.752,211.149-211.149,211.149
			H917.296c-116.397,0-211.149-94.752-211.149-211.149v-492.547c0-116.397,94.752-211.149,211.149-211.149h166.225
			C1199.918,1011.231,1294.67,1105.983,1294.67,1222.381z"/>
		<path class="cls-1" d="M963.039,1191.342v134.368c0,20.421,16.744,37.165,37.165,37.165s37.166-16.744,37.166-37.165v-134.368
			c0-20.421-16.745-37.166-37.166-37.166C979.783,1154.584,963.039,1170.921,963.039,1191.342z"/>
</svg>
