<svg id="Layer_1" data-name="Layer 1" xmlns="http://www.w3.org/2000/svg" viewBox="0 0 2000 2000">
    <defs>
        <style>
            .cls-1 {
                fill: #e74a3e;
            }
            
            .cls-2 {
                fill: #181818;
            }
        </style>
    </defs>	
    <title>Business-Collection</title>
		<path id="XMLID_1284_" class="cls-2" d="M69.839,1459.873H509.7c17.97,0,33.081,14.703,33.081,33.082v268.736
			c0,17.97-14.703,33.081-33.081,33.081H69.839c-17.97,0-33.082-14.703-33.082-33.081v-268.736
			C36.757,1474.576,51.869,1459.873,69.839,1459.873z"/>
		<path id="XMLID_1282_" class="cls-2" d="M1490.709,1459.873h439.861c17.97,0,33.081,14.703,33.081,33.082v268.736
			c0,17.97-14.703,33.081-33.081,33.081h-439.861c-17.971,0-33.082-14.703-33.082-33.081v-268.736
			C1458.035,1474.576,1472.738,1459.873,1490.709,1459.873z"/>
		<path class="cls-1" d="M476.21,1831.529c57.178,0,103.328-46.559,103.328-103.328v-201.756
			c0-57.179-46.559-103.329-103.328-103.329H326.73v-276.904h636.309v276.904H813.56c-57.178,0-103.329,46.56-103.329,103.329
			v201.756c0,57.178,46.56,103.328,103.329,103.328h372.881c57.178,0,103.329-46.559,103.329-103.328v-201.756
			c0-57.179-46.56-103.329-103.329-103.329h-149.479v-276.904h636.309v276.904H1523.79c-57.178,0-103.329,46.56-103.329,103.329
			v201.756c0,57.178,46.56,103.328,103.329,103.328h372.882c57.178,0,103.328-46.559,103.328-103.328v-201.756
			c0-57.179-46.559-103.329-103.328-103.329h-149.071v-313.661c0-20.421-16.745-37.166-37.165-37.166H1037.37v-193.18h302.226
			c74.739,0,135.594-60.854,135.594-135.593V304.063c0-74.739-60.854-135.593-135.594-135.593H660.813
			c-74.739,0-135.593,60.854-135.593,135.593v439.045c0,74.739,60.854,135.593,135.593,135.593h302.227v193.18H289.565
			c-20.42,0-37.166,16.745-37.166,37.165v313.662H103.329C46.151,1422.708,0,1469.267,0,1526.036v201.756
			c0,57.179,46.559,103.329,103.329,103.329H476.21V1831.529z M1215.847,1526.445v201.756c0,16.336-13.069,29.405-29.406,29.405
			H813.56c-16.337,0-29.406-13.069-29.406-29.405v-201.756c0-16.337,13.069-29.406,29.406-29.406h372.881
			C1202.777,1496.631,1215.847,1510.108,1215.847,1526.445z M1926.485,1526.445v201.756c0,16.336-13.069,29.405-29.405,29.405
			h-372.882c-16.336,0-29.405-13.069-29.405-29.405v-201.756c0-16.337,13.069-29.406,29.405-29.406h372.882
			C1913.416,1496.631,1926.485,1510.108,1926.485,1526.445z M599.143,743.108V304.063c0-33.898,27.771-61.67,61.67-61.67h678.783
			c33.898,0,61.67,27.772,61.67,61.67v439.045c0,33.897-27.771,61.67-61.67,61.67H660.813
			C626.914,804.778,599.143,777.006,599.143,743.108z M73.923,1728.201v-201.756c0-16.337,13.069-29.406,29.406-29.406H476.21
			c16.337,0,29.405,13.069,29.405,29.406v201.756c0,16.336-13.068,29.405-29.405,29.405H103.329
			C86.992,1757.606,73.923,1744.537,73.923,1728.201z"/>
</svg>
