<svg id="Layer_1" data-name="Layer 1" xmlns="http://www.w3.org/2000/svg" viewBox="0 0 2000 2000">
    <defs>
        <style>
            .cls-1 {
                fill: #e74a3e;
            }
            
            .cls-2 {
                fill: #181818;
            }
        </style>
    </defs>	
    <title>Business-Collection</title>
		<path id="XMLID_1979_" class="cls-2" d="M866.122,364.694h267.348c6.53,0,11.837,5.306,11.837,11.837V545.51
			c0,6.531-5.307,11.837-11.837,11.837H866.123c-6.531,0-11.837-5.306-11.837-11.837V376.531
			C854.693,370,860,364.694,866.122,364.694z"/>
		<path class="cls-1" d="M1939.184,1405.51h-84.898v-137.959c0-20.408-16.734-37.143-37.143-37.143h-371.836v-96.734h85.306
			c33.47,0,60.816-27.348,60.816-60.816V927.551c0-33.469-27.347-60.816-60.816-60.816h-84.897V728.775
			c0-20.408-16.735-37.143-37.144-37.143h-371.837v-97.959h84.898c33.469,0,60.816-27.348,60.816-60.408V387.959
			c0-33.469-27.348-60.816-60.816-60.816H877.959c-33.469,0-60.816,27.347-60.816,60.816v145.307
			c0,33.469,27.348,60.408,60.816,60.408h84.898v97.959H591.021c-20.408,0-37.144,16.734-37.144,37.143v137.959h-84.489
			c-33.47,0-60.816,27.348-60.816,60.816v145.715c0,33.469,27.347,60.816,60.816,60.816h84.897v96.734H182.857
			c-20.408,0-37.143,16.734-37.143,37.143v137.959H60.816c-33.47,0-60.816,27.348-60.816,60.816v145.307
			c0,33.469,27.347,60.816,60.816,60.816H304.49c33.469,0,60.817-27.348,60.817-60.816v-145.307
			c0-33.469-27.348-60.816-60.817-60.816h-84.898v-101.224h334.693v101.224h-84.897c-33.47,0-60.816,27.348-60.816,60.816v145.307
			c0,33.469,27.347,60.816,60.816,60.816h243.674c33.469,0,60.815-27.348,60.815-60.816v-145.307
			c0-33.469-27.347-60.816-60.815-60.816h-84.898v-271.836h84.898c33.469,0,60.815-27.348,60.815-60.816V927.959
			c0-33.469-27.347-60.816-60.815-60.816h-84.898V765.918h334.694v101.225h-84.898c-33.469,0-60.816,27.348-60.816,60.816v145.307
			c0,33.469,27.348,60.816,60.816,60.816h243.674c33.469,0,60.816-27.348,60.816-60.816V927.959
			c0-33.469-27.348-60.816-60.816-60.816h-84.898V765.918h334.694v101.225h-84.898c-33.469,0-60.815,27.348-60.815,60.816v145.307
			c0,33.469,27.347,60.816,60.815,60.816h84.898v96.734H1000c-20.408,0-37.143,16.734-37.143,37.143v137.959h-84.898
			c-33.469,0-60.816,27.348-60.816,60.816v145.307c0,33.469,27.348,60.816,60.816,60.816h243.674
			c33.469,0,60.816-27.348,60.816-60.816v-145.307c0-33.469-27.348-60.816-60.816-60.816h-84.898v-101.224h334.694v101.224h-84.898
			c-33.469,0-60.815,27.348-60.815,60.816v145.307c0,33.469,27.347,60.816,60.815,60.816h244.082
			c33.47,0,60.816-27.348,60.816-60.816v-145.307c0-33.469-27.347-60.816-60.816-60.816h-84.897v-101.224h334.693v101.224h-84.898
			c-33.469,0-60.816,27.348-60.816,60.816v145.307c0,33.469,27.348,60.816,60.816,60.816h243.674
			c33.47,0,60.816-27.348,60.816-60.816v-145.307C1999.592,1432.857,1972.652,1405.51,1939.184,1405.51z M891.429,401.429h216.734
			v118.367H891.429V401.429z M291.021,1598.163H74.286v-118.367h216.735V1598.163z M699.592,1598.163H482.857v-118.367h216.734
			V1598.163z M699.592,1059.796H482.857V941.429h216.734V1059.796z M1108.571,1059.796H891.837V941.429h216.734V1059.796z
			 M1300.408,941.429h216.734v118.367h-216.734V941.429z M1108.571,1598.163H891.837v-118.367h216.734V1598.163z M1517.143,1598.163
			h-216.734v-118.367h216.734V1598.163z M1925.715,1598.163h-216.735v-118.367h216.735V1598.163z"/>
</svg>
