<svg id="Layer_1" data-name="Layer 1" xmlns="http://www.w3.org/2000/svg" viewBox="0 0 2000 2000">
    <defs>
        <style>
            .cls-1 {
                fill: #e74a3e;
            }
            
            .cls-2 {
                fill: #181818;
            }
        </style>
    </defs>	
    <title>Business-Collection</title>
		<path id="XMLID_1180_" class="cls-2" d="M1187.908,982.026c-250.816,103.758-537.99-15.523-641.748-265.932
				s15.114-537.99,265.932-641.749c250.816-103.758,537.99,15.523,641.748,265.932S1438.726,878.268,1187.908,982.026z"/>
		<circle id="XMLID_1323_" class="cls-2" cx="1000" cy="1778.595" r="183.823"/>
		<path class="cls-1" d="M1723.856,1560.457v-236.928c0-20.425-16.749-37.173-37.174-37.173h-649.51v-220.997
			c0-3.677-0.816-6.944-1.634-10.213c57.189-3.676,113.154-16.748,166.667-38.807c269.199-111.52,397.467-421.16,285.947-689.951
			C1406.046,128.268,1214.461,0,1000,0c-69.444,0-137.255,13.48-201.797,40.441C667.893,94.363,566.177,196.078,512.255,326.389
			s-53.922,274.102,0,404.412c77.614,187.092,252.859,311.683,452.614,325.163c-0.816,3.269-1.634,6.536-1.634,10.213v220.996
			h-649.51c-20.425,0-37.173,16.749-37.173,37.174v236.928c-105.392,16.748-185.866,108.252-185.866,218.138
			c0,121.731,98.856,220.588,220.588,220.588c121.732,0,220.589-98.856,220.589-220.588c0-108.252-78.432-198.529-181.373-217.32
			V1361.52h612.745v200.163c-104.167,17.565-183.823,108.66-183.823,217.729C779.412,1901.144,878.268,2000,1000,2000
			s220.588-98.856,220.588-220.588c0-109.069-79.656-199.756-183.823-217.729V1361.52h612.745v200.572
			c-102.941,18.382-181.372,109.068-181.372,217.32c0,121.731,98.856,220.588,220.588,220.588s220.588-98.856,220.588-220.588
			C1909.723,1668.709,1828.84,1577.206,1723.856,1560.457z M571.487,678.922c-34.723-98.039-34.723-203.432,0-301.471h129.085
			c-9.396,49.02-14.298,99.673-14.298,149.918c0,46.568,6.536,98.856,18.383,151.553H571.487L571.487,678.922z M760.213,527.369
			c0-51.471,5.719-102.124,15.931-149.918h186.684v301.471H779.82C767.565,627.859,760.213,575.98,760.213,527.369z
			 M1428.514,377.451c35.539,100.898,33.088,206.699-0.409,301.471h-127.451c11.847-52.696,18.383-104.984,18.383-151.553
			c0-50.245-4.902-100.898-14.298-149.918H1428.514z M1245.098,527.369c0,48.611-7.353,100.898-19.607,151.553h-188.317V377.451
			h191.994C1239.379,425.245,1245.098,475.898,1245.098,527.369z M1037.173,972.631V752.859h165.441
			C1163.807,859.068,1102.941,948.529,1037.173,972.631z M1037.173,303.513V81.291c69.444,22.059,133.579,108.66,171.569,222.222
			H1037.173z M962.827,83.333v220.18H796.568C833.742,192.811,895.425,107.843,962.827,83.333z M962.827,752.859v217.32
			c-64.134-26.553-122.958-113.971-160.54-217.32H962.827z M1185.866,942.402c40.032-52.696,71.896-119.69,94.771-189.543h113.971
			C1348.039,834.15,1276.961,901.553,1185.866,942.402z M1394.607,303.513h-108.251c-13.89-46.977-31.863-91.503-53.922-130.719
			c-10.621-19.199-22.059-36.765-33.905-53.104C1280.229,158.905,1348.856,222.631,1394.607,303.513z M808.823,116.421
			c-12.663,17.157-24.918,35.948-35.947,56.373c-22.059,39.625-40.033,83.742-53.922,130.719H605.801
			C651.961,221.405,722.223,156.454,808.823,116.421z M605.393,752.859h119.28c23.284,71.487,56.373,140.114,97.631,193.628
			C732.026,908.088,655.229,840.687,605.393,752.859z M457.925,1778.595c0,80.882-65.768,146.65-146.65,146.65
			c-80.882,0-146.65-65.769-146.65-146.65s65.768-146.65,146.65-146.65C392.157,1631.944,457.925,1697.713,457.925,1778.595z
			 M1146.65,1778.595c0,80.882-65.768,146.65-146.65,146.65c-80.882,0-146.65-65.769-146.65-146.65s65.769-146.65,146.65-146.65
			C1080.883,1631.944,1146.65,1697.713,1146.65,1778.595z M1688.726,1925.245c-80.882,0-146.65-65.769-146.65-146.65
			s65.769-146.65,146.65-146.65s146.65,65.769,146.65,146.65C1835.784,1859.477,1769.607,1925.245,1688.726,1925.245z"/>
</svg>
