<svg id="Layer_1" data-name="Layer 1" xmlns="http://www.w3.org/2000/svg" viewBox="0 0 2000 2000">
    <defs>
        <style>
            .cls-1 {
                fill: #e74a3e;
            }
            
            .cls-2 {
                fill: #181818;
            }
        </style>
    </defs>	
    <title>Business-Collection</title>
			<circle class="cls-2" cx="135.648" cy="1018.999" r="98.468"/>
			<circle class="cls-2" cx="135.648" cy="439.224" r="98.468"/>
			<circle class="cls-2" cx="135.648" cy="1598.366" r="98.468"/>
			<circle class="cls-2" cx="1863.943" cy="1018.999" r="98.468"/>
			<circle class="cls-2" cx="1863.943" cy="1598.366" r="98.468"/>
			<circle class="cls-2" cx="1863.943" cy="439.224" r="98.468"/>
			<path class="cls-1" d="M1305.005,706.026h-11.031V559.755c0-162.206-131.972-294.178-294.178-294.178
				S705.618,397.549,705.618,559.755c0,20.429,16.752,37.181,37.181,37.181s37.181-16.752,37.181-37.181
				c0-121.349,98.876-220.225,220.225-220.225s220.225,98.876,220.225,220.225v146.271H694.586
				c-53.115,0-96.425,43.31-96.425,96.425v401.635c0,53.115,43.31,96.425,96.425,96.425h610.011
				c53.115,0,96.425-43.31,96.425-96.425V802.451C1401.021,749.336,1358.121,706.026,1305.005,706.026z M1327.068,1203.677
				c0,12.258-9.806,22.063-22.063,22.063H694.586c-12.257,0-22.063-9.806-22.063-22.063V802.043
				c0-12.258,9.806-22.063,22.063-22.063h610.011c12.257,0,22.063,9.806,22.063,22.063v401.634H1327.068z"/>
			<path class="cls-1" d="M1010.419,898.468c-26.967-5.312-55.158,9.806-66.599,35.547c-11.849,26.558-4.086,56.384,20.021,73.952
				c4.903,3.678,5.72,6.946,5.72,12.258c0,26.558,0,52.707,0,79.265l0,0c0,21.654,22.881,38.406,46.17,26.558
				c9.806-4.903,15.525-15.525,14.709-26.558l0,0c0-26.558,0-52.707,0-79.265c0-5.72,1.226-9.397,6.537-13.074
				c16.752-12.258,24.924-29.01,24.924-49.438C1061.083,928.294,1040.245,904.188,1010.419,898.468z"/>
			<path class="cls-1" d="M471.502,981.818H265.986c-16.343-56.793-68.233-98.468-130.337-98.468
				C60.878,883.351,0,944.229,0,1018.999s60.878,135.648,135.648,135.648c61.696,0,113.994-41.675,130.337-98.468H471.91
				c20.429,0,37.181-16.752,37.181-37.181C508.683,998.57,491.931,981.818,471.502,981.818z M135.648,1080.286
				c-33.912,0-61.287-27.375-61.287-61.287s27.375-61.287,61.287-61.287s61.287,27.375,61.287,61.287
				S169.561,1080.286,135.648,1080.286z"/>
			<path class="cls-1" d="M471.502,764.045H246.374c-40.45,0-73.544-33.095-73.544-73.545V569.561
				c56.792-16.343,98.468-68.232,98.468-130.337c0-74.77-60.878-135.648-135.649-135.648C60.878,303.575,0,364.454,0,439.224
				c0,61.695,41.675,113.994,98.468,130.337V690.5c0,81.308,66.19,147.498,147.498,147.498h225.537
				c20.429,0,37.181-16.752,37.181-37.181C508.683,780.388,491.931,764.045,471.502,764.045z M73.953,439.224
				c0-33.912,27.375-61.287,61.287-61.287s61.287,27.375,61.287,61.287s-27.375,61.287-61.287,61.287S73.953,473.136,73.953,439.224
				z"/>
			<path class="cls-1" d="M471.502,1199.592H246.374c-81.308,0-147.498,66.189-147.498,147.497v120.939
				c-56.792,16.344-98.468,68.233-98.468,130.337c0,74.771,60.878,135.649,135.648,135.649c74.771,0,135.649-60.879,135.649-135.649
				c0-61.695-41.675-113.993-98.468-130.337v-120.939c0-40.449,33.095-73.544,73.544-73.544h225.536
				c20.43,0,37.182-16.752,37.182-37.182C508.683,1216.343,491.931,1199.592,471.502,1199.592z M196.936,1598.365
				c0,33.912-27.375,61.287-61.287,61.287s-61.287-27.375-61.287-61.287s27.375-61.287,61.287-61.287
				S196.936,1564.453,196.936,1598.365z"/>
			<path class="cls-1" d="M1863.943,883.351c-61.696,0-113.994,41.675-130.338,98.468h-205.924
				c-20.43,0-37.182,16.752-37.182,37.181s16.752,37.181,37.182,37.181h205.924c16.344,56.793,68.233,98.468,130.338,98.468
				c74.77,0,135.648-60.878,135.648-135.648S1938.713,883.351,1863.943,883.351z M1863.943,1080.286
				c-33.912,0-61.287-27.375-61.287-61.287s27.375-61.287,61.287-61.287s61.286,27.375,61.286,61.287
				C1925.639,1052.911,1897.855,1080.286,1863.943,1080.286z"/>
			<path class="cls-1" d="M1901.123,1468.028v-120.939c0-81.308-66.189-147.497-147.497-147.497H1528.09
				c-20.429,0-37.181,16.751-37.181,37.181c0,20.429,16.752,37.181,37.181,37.181h225.536c40.45,0,73.545,33.095,73.545,73.544
				v120.94c-56.793,16.343-98.468,68.232-98.468,130.337c0,74.77,60.878,135.648,135.648,135.648
				c74.77,0,135.648-60.879,135.648-135.648C1999.592,1536.67,1957.916,1484.372,1901.123,1468.028z M1863.943,1660.062
				c-33.912,0-61.287-27.375-61.287-61.287s27.375-61.287,61.287-61.287s61.286,27.375,61.286,61.287
				C1925.639,1632.277,1897.855,1660.062,1863.943,1660.062z"/>
			<path class="cls-1" d="M1528.09,837.998h225.536c81.308,0,147.497-66.19,147.497-147.498V569.561
				c56.793-16.343,98.469-68.232,98.469-130.337c0-74.77-60.879-135.648-135.648-135.648c-74.771,0-135.649,60.878-135.649,135.648
				c0,61.695,41.676,113.994,98.468,130.337V690.5c0,40.45-33.095,73.545-73.544,73.545h-225.536
				c-20.43,0-37.182,16.752-37.182,37.181C1490.909,821.246,1507.661,837.998,1528.09,837.998z M1802.656,439.224
				c0-33.912,27.375-61.287,61.287-61.287s61.286,27.375,61.286,61.287s-27.374,61.287-61.286,61.287
				S1802.656,473.136,1802.656,439.224z"/>
</svg>
