<svg id="Layer_1" data-name="Layer 1" xmlns="http://www.w3.org/2000/svg" viewBox="0 0 2000 2000">
    <defs>
        <style>
            .cls-1 {
                fill: #e74a3e;
            }
            
            .cls-2 {
                fill: #181818;
            }
        </style>
    </defs>	
    <title>Business-Collection</title>
		<path class="cls-2" d="M1402.446,652.651c0,38.367-31.021,68.979-68.979,68.979H666.529c-38.367,0-68.979-31.021-68.979-68.979
			V173.877c0-38.367,31.021-68.979,68.979-68.979h666.938c38.367,0,68.979,31.021,68.979,68.979V652.651z"/>
		<path class="cls-1" d="M1333.467,758.773c58.367,0,106.122-47.755,106.122-106.122V173.877
			c0-58.367-47.755-106.122-106.122-106.122H666.529c-58.367,0-106.122,47.755-106.122,106.122v478.774
			c0,58.367,47.755,106.122,106.122,106.122h296.326v98.775h-97.143c-20.408,0-37.144,16.735-37.144,37.144
			c0,20.407,16.735,37.143,37.144,37.143h268.162c20.408,0,37.143-16.735,37.143-37.143c0-20.408-16.734-37.144-37.143-37.144
			h-97.143v-98.775H1333.467z M634.284,652.651V173.877c0-17.551,14.286-32.245,32.245-32.245h666.938
			c17.551,0,32.244,14.286,32.244,32.245v478.774c0,17.552-14.285,32.245-32.244,32.245H666.529
			C648.979,684.896,634.284,670.611,634.284,652.651z"/>
		<path class="cls-2" d="M1963.262,1653.466c0,38.367-31.021,68.979-68.98,68.979h-666.937c-38.367,0-68.979-31.021-68.979-68.979
			v-478.774c0-38.367,31.021-68.979,68.979-68.979h666.528c38.368,0,68.98,31.021,68.98,68.979v478.774H1963.262L1963.262,1653.466z
			"/>
		<path class="cls-1" d="M772.651,1068.161H106.122C47.755,1068.161,0,1115.916,0,1174.283v478.774
			c0,58.367,47.755,106.122,106.122,106.122h296.326v98.775h-97.143c-20.408,0-37.143,16.734-37.143,37.143
			s16.735,37.144,37.143,37.144h268.163c20.407,0,37.143-16.735,37.143-37.144s-16.735-37.143-37.143-37.143h-97.144v-98.775
			h296.326c58.367,0,106.122-47.755,106.122-106.122v-478.366C878.773,1115.916,831.427,1068.161,772.651,1068.161z
			 M804.896,1653.466c0,17.551-14.286,32.245-32.245,32.245H106.122c-17.551,0-32.245-14.286-32.245-32.245v-478.774
			c0-17.551,14.286-32.245,32.245-32.245H773.06c17.551,0,32.245,14.286,32.245,32.245v478.774H804.896L804.896,1653.466z"/>
		<path class="cls-1" d="M1893.873,1068.161h-666.528c-58.367,0-106.122,47.755-106.122,106.122v478.774
			c0,58.367,47.755,106.122,106.122,106.122h296.325v98.775h-97.143c-20.408,0-37.143,16.734-37.143,37.143
			s16.734,37.144,37.143,37.144h268.163c20.408,0,37.143-16.735,37.143-37.144s-16.734-37.143-37.143-37.143h-97.143v-98.775
			h296.325c58.367,0,106.123-47.755,106.123-106.122v-478.366C2000.404,1115.916,1952.648,1068.161,1893.873,1068.161z
			 M1926.118,1653.466c0,17.551-14.285,32.245-32.245,32.245h-666.528c-17.552,0-32.245-14.286-32.245-32.245v-478.774
			c0-17.551,14.285-32.245,32.245-32.245h666.528c17.552,0,32.245,14.286,32.245,32.245V1653.466z"/>
		<path class="cls-1" d="M150.204,931.427c20.408,0,37.143-16.735,37.143-37.143V386.122h222.04
			c20.408,0,37.143-16.735,37.143-37.143c0-20.408-16.734-37.143-37.143-37.143H150.204c-20.408,0-37.143,16.735-37.143,37.143
			v545.713C113.061,915.1,129.796,931.427,150.204,931.427z"/>
		<path class="cls-1" d="M1849.792,931.427c20.408,0,37.143-16.735,37.143-37.143V348.979c0-20.408-16.734-37.143-37.143-37.143
			h-259.183c-20.408,0-37.143,16.735-37.143,37.143c0,20.408,16.734,37.143,37.143,37.143h222.04v508.571
			C1813.058,915.1,1829.384,931.427,1849.792,931.427z"/>
</svg>
