<svg id="Layer_1" data-name="Layer 1" xmlns="http://www.w3.org/2000/svg" viewBox="0 0 2000 2000">
    <defs>
        <style>
            .cls-1 {
                fill: #e74a3e;
            }
            
            .cls-2 {
                fill: #181818;
            }
        </style>
    </defs>	
    <title>Business-Collection</title>
		<path class="cls-2" d="M1388.322,229.073H610.861c-26.949,0-48.999,22.05-48.999,49v538.179c0,26.949,22.05,48.999,48.999,48.999
			h777.461c26.949,0,48.999-22.05,48.999-48.999V278.073C1437.321,251.123,1415.271,229.073,1388.322,229.073z M1194.365,669.661
			H804.818c-20.416,0-37.158-16.741-37.158-37.158c0-20.416,16.742-37.158,37.158-37.158h389.547
			c20.416,0,37.158,16.742,37.158,37.158C1231.523,652.92,1214.781,669.661,1194.365,669.661z M1194.365,498.571H804.818
			c-20.416,0-37.158-16.742-37.158-37.158c0-20.417,16.742-37.158,37.158-37.158h389.547c20.416,0,37.158,16.741,37.158,37.158
			C1231.523,481.829,1214.781,498.571,1194.365,498.571z"/>
		<path class="cls-1" d="M103.308,1807.677h372.396c57.167,0,103.308-46.55,103.308-103.308v-201.715
			c0-57.166-46.55-103.308-103.308-103.308h-149.04V1224.99c0-30.625,24.908-55.941,55.941-55.941h580.236v230.298h-149.04
			c-57.166,0-103.308,46.55-103.308,103.308v201.715c0,57.166,46.55,103.308,103.308,103.308h372.396
			c57.167,0,103.308-46.55,103.308-103.308v-201.715c0-57.166-46.55-103.308-103.308-103.308h-149.04v-230.298h580.236
			c30.625,0,55.941,24.908,55.941,55.941v174.356h-149.04c-57.166,0-103.308,46.55-103.308,103.308v201.715
			c0,57.166,46.55,103.308,103.308,103.308h372.396c57.167,0,103.308-46.55,103.308-103.308v-201.715
			c0-57.166-46.55-103.308-103.308-103.308h-149.04V1224.99c0-71.458-58.392-129.85-129.85-129.85H1036.75v-193.14h302.164
			c74.725,0,135.565-60.841,135.565-135.565V327.889c0-74.724-60.841-135.565-135.565-135.565H660.678
			c-74.725,0-135.565,60.841-135.565,135.565v438.547c0,74.725,60.841,135.565,135.565,135.565h302.164v192.731H382.605
			c-71.458,0-129.849,58.392-129.849,129.85v174.356H103.308C46.141,1398.938,0,1445.488,0,1502.246v201.715
			C0,1761.535,46.55,1807.677,103.308,1807.677z M1215.189,1502.654v201.715c0,16.333-13.066,29.4-29.399,29.4H813.394
			c-16.333,0-29.4-13.067-29.4-29.4v-201.715c0-16.333,13.067-29.399,29.4-29.399h372.396
			C1202.123,1473.255,1215.189,1486.729,1215.189,1502.654z M1925.275,1502.654v201.715c0,16.333-13.066,29.4-29.399,29.4h-372.397
			c-16.333,0-29.399-13.067-29.399-29.4v-201.715c0-16.333,13.066-29.399,29.399-29.399h372.397
			C1911.801,1473.255,1925.275,1486.729,1925.275,1502.654z M599.02,766.436V327.889c0-33.891,27.767-61.657,61.658-61.657h677.828
			c33.891,0,61.657,27.766,61.657,61.657v438.547c0,33.892-27.767,61.658-61.657,61.658H660.678
			C626.378,828.093,599.02,800.327,599.02,766.436z M73.908,1502.654c0-16.333,13.066-29.399,29.4-29.399h372.396
			c16.333,0,29.4,13.066,29.4,29.399v201.715c0,16.333-13.067,29.4-29.4,29.4H103.308c-16.333,0-29.4-13.067-29.4-29.4V1502.654z"/>
</svg>
