<svg id="Layer_1" data-name="Layer 1" xmlns="http://www.w3.org/2000/svg" viewBox="0 0 2000 2000">
    <defs>
        <style>
            .cls-1 {
                fill: #e74a3e;
            }
            
            .cls-2 {
                fill: #181818;
            }
        </style>
    </defs>	
    <title>Business-Collection</title>
		<path id="XMLID_2093_" class="cls-2" d="M779.82,1603.758h439.134c17.974,0,33.089,14.706,33.089,33.089v268.382
			c0,17.975-14.706,33.089-33.089,33.089H779.82c-17.974,0-33.088-14.706-33.088-33.089v-268.382
			C746.732,1618.464,761.847,1603.758,779.82,1603.758z"/>
		<path class="cls-1" d="M103.35,1975.082h372.549c57.189,0,103.35-46.569,103.35-103.35v-201.798
			c0-57.189-46.568-103.35-103.35-103.35H326.798v-230.392h516.748c13.889,58.823,60.457,105.392,119.281,119.28v111.111H813.726
			c-57.189,0-103.35,46.568-103.35,103.35v201.389c0,57.19,46.568,103.35,103.35,103.35h372.549
			c57.189,0,103.35-46.568,103.35-103.35v-201.389c0-57.189-46.568-103.35-103.35-103.35h-149.102v-111.111
			c58.823-13.889,105.393-60.457,119.281-119.28h516.749v230.392h-149.102c-57.189,0-103.35,46.568-103.35,103.35v201.389
			c0,57.189,46.568,103.35,103.35,103.35h372.549c57.189,0,103.35-46.568,103.35-103.35v-201.389
			c0-57.189-46.568-103.35-103.35-103.35h-149.102v-267.157c0-20.424-16.748-37.173-37.173-37.173h-554.33
			c-16.749-70.67-80.474-123.774-156.454-123.774s-139.706,53.104-156.455,123.774H289.624c-20.425,0-37.173,16.749-37.173,37.173
			v267.157H103.35C46.16,1566.585,0,1613.153,0,1669.935v201.389C0,1928.513,46.16,1975.082,103.35,1975.082z M1215.277,1669.935
			v201.389c0,16.34-13.071,29.412-29.411,29.412h-372.55c-16.34,0-29.411-13.072-29.411-29.412v-201.389
			c0-16.34,13.071-29.412,29.411-29.412h372.55C1202.206,1640.522,1215.277,1654.003,1215.277,1669.935z M1925.245,1669.935v201.389
			c0,16.34-13.072,29.412-29.412,29.412h-372.549c-16.34,0-29.412-13.072-29.412-29.412v-201.389
			c0-16.34,13.072-29.412,29.412-29.412h372.549C1912.173,1640.522,1925.245,1654.003,1925.245,1669.935z M999.592,1212.418
			c47.794,0,86.602,38.808,86.602,86.602s-38.808,86.602-86.602,86.602c-47.795,0-86.602-38.808-86.602-86.602
			S951.797,1212.418,999.592,1212.418z M73.938,1669.935c0-16.34,13.072-29.412,29.412-29.412h372.549
			c16.34,0,29.412,13.072,29.412,29.412v201.389c0,16.34-13.072,29.412-29.412,29.412H103.35c-16.34,0-29.412-13.072-29.412-29.412
			V1669.935z"/>
		<path class="cls-1" d="M526.144,1121.323c20.425,0,37.174-16.748,37.174-37.173V950.98c0-17.157,7.761-33.497,20.833-44.118
			c117.647-96.813,245.507-160.947,269.607-173.202c15.932-7.762,25.735-23.284,25.735-40.85v-187.5
			c0-12.255-6.127-24.102-16.34-30.638c-14.297-9.396-22.876-25.326-22.876-42.075V237.336c0-76.389,62.092-138.48,138.48-138.48
			h42.075c76.39,0,138.48,62.091,138.48,138.48v194.445c0,17.156-8.578,32.68-22.876,42.075
			c-10.212,6.944-16.34,18.382-16.34,30.637v187.5c0,17.565,9.805,33.497,25.735,41.259
			c24.511,11.846,151.961,76.389,269.608,173.202c13.072,11.029,20.833,26.961,20.833,44.118v133.578
			c0,20.425,16.749,37.173,37.173,37.173c20.426,0,37.174-16.748,37.174-37.173V950.98c0-39.624-17.565-76.389-47.794-101.308
			c-107.435-88.235-222.631-151.144-268.383-174.428V522.876c24.919-23.284,39.216-55.964,39.216-90.687V237.336
			c0-117.238-95.18-212.418-212.418-212.418h-42.075c-117.239,0-212.419,95.18-212.419,212.418v194.445
			c0,34.722,14.298,67.401,39.216,90.686v152.37c-45.751,23.284-160.947,86.192-268.382,174.428
			c-30.229,24.918-47.794,62.092-47.794,101.308v133.578C489.379,1104.983,505.719,1121.323,526.144,1121.323z"/>
</svg>
