<svg id="Layer_1" data-name="Layer 1" xmlns="http://www.w3.org/2000/svg" viewBox="0 0 2000 2000">
    <defs>
        <style>
            .cls-1 {
                fill: #e74a3e;
            }
            
            .cls-2 {
                fill: #181818;
            }
        </style>
    </defs>	
    <title>Business-Collection</title>
		<circle id="XMLID_496_" class="cls-2" cx="575.398" cy="990.192" r="113.2"/>
		<circle id="XMLID_495_" class="cls-2" cx="1000" cy="990.192" r="113.2"/>
		<circle id="XMLID_491_" class="cls-2" cx="1424.602" cy="990.192" r="113.2"/>
		<path class="cls-1" d="M150.388,1713.526c82.959,0,150.388-67.429,150.388-150.388c0-69.064-46.996-127.503-110.748-144.667
			v-114.018h349.407v112.792c-65.794,15.938-114.834,75.193-114.834,145.893c0,82.959,67.43,150.388,150.389,150.388
			c82.958,0,150.388-67.429,150.388-150.388c0-69.473-47.813-128.32-111.974-145.076v-282.386
			c64.16-17.164,111.974-75.604,111.974-145.076s-47.813-128.32-111.974-145.075v-98.079h349.407v97.262
			c-64.978,16.755-113.2,75.603-113.2,145.484c0,82.958,67.43,150.388,150.389,150.388s150.389-67.43,150.389-150.388
			c0-70.29-48.223-129.138-113.2-145.484v-98.079h349.407v98.079c-64.16,17.164-111.974,75.603-111.974,145.075
			s47.813,128.32,111.974,145.076v94.81H1000c-20.434,0-37.188,16.755-37.188,37.188v150.389
			c-64.978,16.755-113.2,75.603-113.2,145.483c0,82.959,67.43,150.389,150.389,150.389s150.389-67.43,150.389-150.389
			c0-70.29-48.223-129.138-113.2-145.483v-113.2h349.407v113.608c-64.16,17.164-111.974,75.603-111.974,145.075
			c0,82.959,67.43,150.389,150.388,150.389c82.959,0,150.389-67.43,150.389-150.389c0-70.698-49.04-129.955-114.835-145.893
			v-112.791h349.407v114.017c-63.751,17.573-110.747,75.604-110.747,144.667c0,82.959,67.429,150.389,150.388,150.389
			S2000,1645.688,2000,1562.729c0-71.107-49.449-130.772-116.061-146.302v-149.57c0-20.434-16.756-37.188-37.188-37.188h-386.188
			v-94.401c65.795-15.938,114.835-75.194,114.835-145.893c0-70.699-49.04-129.955-114.835-145.894V709.849
			c0-20.433-16.755-37.188-37.188-37.188h-386.187v-90.314c64.978-16.755,113.199-75.603,113.199-145.484
			c0-82.958-67.429-150.388-150.388-150.388s-150.389,67.43-150.389,150.388c0,70.29,48.223,129.138,113.2,145.484v90.314H576.624
			c-20.433,0-37.188,16.756-37.188,37.188v134.45c-65.795,15.938-114.834,75.194-114.834,145.894
			c0,70.698,49.039,129.955,114.834,145.893v94.401H153.249c-20.433,0-37.188,16.755-37.188,37.188v149.162
			C49.857,1432.366,0,1492.031,0,1563.139C0,1646.098,67.43,1713.526,150.388,1713.526z M1076.42,990.192
			c0,42.092-34.328,76.42-76.42,76.42s-76.42-34.328-76.42-76.42c0-42.093,34.328-76.421,76.42-76.421
			S1076.42,948.1,1076.42,990.192z M1076.42,1563.139c0,42.092-34.328,76.42-76.42,76.42s-76.42-34.328-76.42-76.42
			c0-42.093,34.328-76.42,76.42-76.42S1076.42,1521.046,1076.42,1563.139z M1925.623,1563.139c0,42.092-34.328,76.42-76.42,76.42
			s-76.42-34.328-76.42-76.42c0-42.093,34.327-76.42,76.42-76.42C1891.704,1486.719,1925.623,1521.046,1925.623,1563.139z
			 M1501.021,1563.139c0,42.092-34.328,76.42-76.42,76.42c-42.093,0-76.42-34.328-76.42-76.42c0-42.093,34.327-76.42,76.42-76.42
			C1466.693,1486.719,1501.021,1521.046,1501.021,1563.139z M1501.021,990.192c0,42.092-34.328,76.42-76.42,76.42
			c-42.093,0-76.42-34.328-76.42-76.42c0-42.093,34.327-76.421,76.42-76.421C1466.693,913.771,1501.021,948.1,1501.021,990.192z
			 M923.58,436.861c0-42.092,34.328-76.42,76.42-76.42s76.42,34.328,76.42,76.42c0,42.093-34.328,76.42-76.42,76.42
			S923.58,478.954,923.58,436.861z M651.41,1563.139c0,42.092-34.328,76.42-76.42,76.42c-42.093,0-76.421-34.328-76.421-76.42
			c0-42.093,34.328-76.42,76.421-76.42C617.082,1486.719,651.41,1521.046,651.41,1563.139z M498.979,990.192
			c0-42.093,34.328-76.421,76.42-76.421c42.093,0,76.42,34.328,76.42,76.421c0,42.092-34.327,76.42-76.42,76.42
			C533.307,1066.203,498.979,1032.284,498.979,990.192z M150.388,1486.719c42.092,0,76.42,34.327,76.42,76.42
			c0,42.092-34.328,76.42-76.42,76.42s-76.42-34.328-76.42-76.42C74.377,1521.046,108.296,1486.719,150.388,1486.719z"/>
</svg>
