<svg id="Layer_1" data-name="Layer 1" xmlns="http://www.w3.org/2000/svg" viewBox="0 0 2000 2000">
    <defs>
        <style>
            .cls-1 {
                fill: #e74a3e;
            }
            
            .cls-2 {
                fill: #181818;
            }
        </style>
    </defs>	
    <title>Business-Collection</title>
		<path class="cls-2" d="M1352.956,888.364H677.021c-16.356,0-29.441,13.085-29.441,29.442v465.752
			c0,16.356,13.085,29.441,29.441,29.441h675.935c15.947,0,29.441-13.085,29.441-29.441V917.807
			C1382.397,901.449,1369.313,888.364,1352.956,888.364z M1048.725,1155.794c-4.498,3.271-5.726,6.543-5.726,11.858
			c0,24.126,0,48.66,0,72.787c0.818,10.223-4.498,20.036-13.494,24.534c-21.263,10.632-42.526-4.498-42.526-24.534
			c0-24.127,0-48.661,0-72.787c0-4.907-0.818-8.178-5.316-11.449c-22.081-16.356-29.441-44.163-18.4-68.289
			c10.631-23.717,36.802-37.62,61.336-32.713c27.397,5.729,46.617,27.807,47.025,55.203
			C1071.623,1129.215,1063.854,1144.753,1048.725,1155.794z"/>
		<path class="cls-1" d="M93.911,1363.113c4.089,0,8.587-0.818,12.676-2.045c19.219-6.951,29.442-28.215,22.49-47.434
			C8.039,977.099,88.187,609.076,338.032,353.097c172.971-176.65,404.007-275.607,651.399-278.47
			c246.983-2.862,480.883,90.778,657.533,263.749l5.725,5.316l-112.043,1.227c-20.445,0.409-36.802,17.174-36.802,37.62
			c0.409,20.446,16.766,36.802,37.211,36.802h0.409l201.594-2.453c9.814,0,19.22-4.09,26.171-11.041s10.632-16.356,10.632-26.17
			l-2.453-201.594c-0.409-20.446-16.766-37.211-37.62-36.802c-20.446,0.409-36.803,17.174-36.803,37.62l1.227,112.042l-5.725-5.316
			C1510.387,101.615,1262.586,1.022,1000.063,1.022c-4.089,0-7.77,0-11.858,0C721.185,3.885,471.338,111.02,284.874,301.982
			C151.159,438.56,59.971,609.485,21.125,795.95c-37.62,181.558-24.944,369.249,37.62,543.446
			C64.469,1353.708,78.781,1363.113,93.911,1363.113z"/>
		<path class="cls-1" d="M1940.973,661.826c-6.951-19.219-28.215-29.441-47.434-22.49c-19.219,6.952-29.441,28.215-22.49,47.435
			c120.63,336.535,40.482,704.558-209.363,960.129c-181.148,185.237-421.59,278.061-662.031,278.061
			c-233.489,0-466.979-87.507-646.901-263.34l-5.725-5.316l112.042-1.227c20.446-0.409,36.803-17.174,36.803-37.62
			c-0.409-20.445-16.766-36.802-37.211-36.802h-0.409l-201.594,2.453c-20.446,0.409-36.802,17.175-36.802,37.62l2.454,201.595
			c0.409,20.445,16.765,36.802,37.211,36.802h0.409c20.446-0.408,36.802-17.174,36.802-37.62l-1.227-112.042l5.725,5.315
			c194.234,189.736,446.534,284.195,698.833,284.195c259.66,0,519.729-100.593,715.189-300.552
			c133.715-136.577,224.902-307.503,263.749-493.967C2016.622,1023.715,2003.537,836.023,1940.973,661.826z"/>
		<path class="cls-1" d="M1014.784,407.073c-163.565,0-296.462,132.897-296.462,296.462v148.027h-11.858
			c-53.159,0-96.504,43.345-96.504,96.504v406.051c0,53.158,43.345,96.504,96.504,96.504h616.642
			c53.158,0,96.503-43.346,96.503-96.504V948.066c0-53.159-43.345-96.504-96.503-96.504h-11.859V703.536
			C1311.246,539.971,1178.35,407.073,1014.784,407.073z M792.744,703.535c0-122.674,99.775-222.448,222.449-222.448
			s222.449,99.774,222.449,222.448v148.027H792.744V703.535L792.744,703.535z M1345.187,947.657v406.051
			c0,12.268-9.813,22.081-22.081,22.081H706.873c-12.268,0-22.082-9.813-22.082-22.081V947.657c0-12.268,9.814-22.082,22.082-22.082
			h616.232C1335.373,925.576,1345.187,935.39,1345.187,947.657z"/>
</svg>
