<svg id="Layer_1" data-name="Layer 1" xmlns="http://www.w3.org/2000/svg" viewBox="0 0 2000 2000">
    <defs>
        <style>
            .cls-1 {
                fill: #e74a3e;
            }
            
            .cls-2 {
                fill: #181818;
            }
        </style>
    </defs>	
    <title>Business-Collection</title>
		<path class="cls-2" d="M1342.166,910.461H658.242c-16.333,0-29.398,13.066-29.398,29.398v471.193
			c0,16.333,13.065,29.398,29.398,29.398h683.516c16.333,0,29.398-13.065,29.808-29.398V939.859
			C1371.565,923.527,1358.499,910.461,1342.166,910.461z M1037.973,1179.131c-5.308,3.675-6.532,7.758-6.532,13.475
			c0,26.948,0,53.897,0,80.846c0.408,11.434-5.309,22.457-15.108,27.357c-23.682,12.249-46.955-4.491-46.955-26.949
			c0-26.948,0-53.896,0-80.846c0-5.308-1.226-8.982-6.125-12.657c-24.499-17.966-32.665-48.59-20.416-75.538
			c11.842-26.541,40.832-41.648,68.188-36.34c30.215,6.124,51.447,30.623,52.265,60.43
			C1063.289,1149.732,1054.714,1166.882,1037.973,1179.131z"/>
		<path class="cls-1" d="M93.953,1362.872c4.083,0,8.575-0.816,12.658-2.042c19.191-6.941,29.399-28.173,22.458-47.364
			C7.799,976.607,88.236,608.718,338.124,352.705C694.99-12.327,1282.145-19.269,1647.177,337.598l5.716,5.716l-111.877,1.225
			c-20.416,0.408-36.749,17.149-36.749,37.564c0.409,20.416,16.741,36.748,37.157,36.748h0.408l201.298-2.449
			c9.8,0,19.191-4.084,26.132-11.024c6.941-6.941,10.617-16.333,10.617-26.132l-2.45-201.298
			c-0.409-20.416-16.741-37.157-37.565-36.749c-20.415,0.409-36.748,17.149-36.748,37.565l1.225,111.878l-5.716-5.717
			C1304.193-100.522,670.083-93.173,285.043,301.258C151.525,438.043,60.063,608.718,21.273,795.316
			C-16.7,976.607-3.634,1164.432,58.838,1338.781C64.554,1353.48,78.845,1362.872,93.953,1362.872z"/>
		<path class="cls-1" d="M1661.876,1647.059c-180.883,185.374-421.38,278.469-662.284,278.061
			c-233.555,0-467.11-87.379-646.769-263.361l-5.716-5.717l111.878-1.225c20.415-0.408,36.748-17.149,36.748-37.565
			c-0.408-20.415-16.741-36.748-37.157-36.748h-0.408l-201.298,2.858c-20.416,0.408-36.749,17.149-36.749,37.564l2.45,201.299
			c0.408,20.416,16.741,36.748,37.156,36.748h0.408c20.416-0.408,36.749-17.148,36.749-37.564l-1.225-111.878l5.716,5.716
			c194.357,189.866,446.286,284.187,698.624,284.187c259.688,0,519.375-100.445,714.957-300.519
			c133.518-136.785,224.98-307.46,263.77-494.059c37.974-181.292,24.908-369.115-37.564-543.466
			c-6.941-19.19-28.174-29.398-47.364-22.457s-29.398,28.174-22.457,47.364C1992.201,1023.155,1911.764,1391.046,1661.876,1647.059z
			"/>
		<path class="cls-1" d="M1000,424.568c-164.959,0-299.294,134.335-299.294,299.294v149.442h-13.065
			c-53.081,0-96.362,43.281-96.362,96.361v411.58c0,53.081,43.281,96.362,96.362,96.362h624.311
			c53.081,0,96.362-43.281,96.362-96.362v-411.58c0-53.08-43.281-96.361-96.362-96.361h-13.066V723.453
			C1299.293,558.495,1164.959,424.568,1000,424.568z M775.02,723.453c0-124.127,100.854-224.98,224.98-224.98
			s224.98,100.854,224.98,224.98v149.852H775.02V723.453L775.02,723.453z M1334.408,969.666v411.58
			c0,12.25-9.799,22.049-22.049,22.049H688.049c-12.25,0-22.049-9.799-22.049-22.049v-411.58c0-12.249,9.799-22.049,22.049-22.049
			h624.311C1324.201,947.617,1334.408,957.417,1334.408,969.666z"/>
</svg>
