<svg id="Layer_1" data-name="Layer 1" xmlns="http://www.w3.org/2000/svg" viewBox="0 0 2000 2000">
    <defs>
        <style>
            .cls-1 {
                fill: #e74a3e;
            }
            
            .cls-2 {
                fill: #181818;
            }
        </style>
    </defs>	
    <title>Business-Collection</title>
		<path id="XMLID_506_" class="cls-2" d="M1215.117,36.772H783.656c-26.557,0-47.803,21.246-47.803,47.804v252.502h527.477V84.576
			C1263.33,58.427,1241.675,36.772,1215.117,36.772z"/>
		<path class="cls-1" d="M698.672,1616.752c0,0.408,0,0.817,0,0.817c0,1.634,0.409,3.677,0.409,5.312c0,0.408,0,0.816,0.408,1.634
			c0.409,2.043,1.226,4.086,2.043,6.129c0.409,0.408,0.409,0.817,0.817,1.634c0.816,1.635,1.634,2.86,2.451,4.086
			c0.408,0.409,0.817,1.226,1.226,1.635c0.409,0.408,0.409,0.817,0.817,1.226l263.943,346.067
			c6.945,8.988,17.977,14.709,29.417,14.709s22.472-5.312,29.418-14.709l263.942-346.067c0.409-0.409,0.409-0.817,0.817-1.226
			c0.409-0.409,0.817-1.227,1.226-1.635c0.817-1.226,1.635-2.86,2.452-4.086c0.408-0.408,0.408-0.816,0.817-1.634
			c0.816-2.043,1.226-4.086,2.043-6.129c0-0.409,0-0.817,0.408-1.634c0.408-1.635,0.408-3.678,0.408-5.313c0-0.408,0-0.816,0-0.816
			V505.414c0-20.43-16.752-37.182-37.181-37.182s-37.181,16.752-37.181,37.182V1579.57h-189.581V507.457
			c0-20.43-16.752-37.182-37.181-37.182c-20.43,0-37.182,16.752-37.182,37.182V1579.57H773.851V507.457
			c0-20.43-16.751-37.182-37.181-37.182c-20.429,0-37.181,16.752-37.181,37.182v1109.295H698.672z M1188.56,1653.933l-189.173,247.6
			l-189.172-248.009h378.345V1653.933z"/>
		<path class="cls-1" d="M1166.905,0H831.869c-73.544,0-133.605,59.653-133.605,133.605v203.882
			c0,20.429,16.752,37.181,37.181,37.181h527.478c20.429,0,37.181-16.752,37.181-37.181v-204.29
			C1300.103,59.653,1240.449,0,1166.905,0z M1226.149,300.307H772.625V133.197c0-32.687,26.558-59.244,59.244-59.244h335.036
			c32.687,0,59.244,26.558,59.244,59.244V300.307z"/>
</svg>
