<svg id="Layer_1" data-name="Layer 1" xmlns="http://www.w3.org/2000/svg" viewBox="0 0 2000 2000">
    <defs>
        <style>
            .cls-1 {
                fill: #e74a3e;
            }
            
            .cls-2 {
                fill: #181818;
            }
        </style>
    </defs>	
    <title>Business-Collection</title>
		<path id="XMLID_2038_" class="cls-2" d="M999.673,405.229c0.409,0,0.817,0,0.817,0l0,0
			c165.033-1.634,140.932-222.222,140.932-222.222c-6.536-147.467-129.494-146.242-141.749-145.833
			c-12.255-0.409-135.212-1.634-142.156,145.425c0,0-24.102,220.588,141.34,222.222l0,0
			C998.856,405.229,999.265,405.229,999.673,405.229z"/>
		<path id="XMLID_2039_" class="cls-2" d="M999.673,679.33l106.618-147.059c0,0,75.163,30.229,136.438,75.571
			c15.932,11.847,23.285,18.791,37.582,33.089c33.905,33.905,19.607,230.392,0,302.287s-77.206,175.245-77.206,175.245
			c-11.438,26.144-18.791,54.33-21.65,82.517l-73.529,720.997c-2.451,22.876-21.65,40.44-44.526,40.44h-63.725h-63.727
			c-22.875,0-42.483-17.564-44.525-40.44l-73.529-720.997c-2.859-28.595-10.213-56.373-21.65-82.517
			c0,0-57.599-102.941-77.206-175.245c-19.608-71.896-33.905-268.382,0-302.287c14.298-14.298,21.65-21.242,37.582-33.089
			c61.274-44.935,136.438-75.571,136.438-75.571L999.673,679.33z"/>
		<path class="cls-1" d="M170.425,1016.34c18.382,66.993,67.402,157.271,74.755,171.16c8.987,20.833,14.706,42.483,16.749,64.951
			l69.036,676.471c4.085,40.44,37.99,71.078,78.84,71.078h119.281c40.85,0,74.755-30.638,78.84-71.078l69.036-676.471
			c2.451-22.876,8.17-45.344,17.565-66.177c8.17-18.791-0.409-40.441-18.791-48.611c-18.791-8.17-40.441,0.409-48.611,18.791
			c-12.255,28.187-20.425,58.007-23.284,88.644l-69.036,676.471c-0.408,2.451-2.45,4.494-4.901,4.494H410.621
			c-2.451,0-4.902-2.043-4.902-4.494l-69.853-676.879c-3.269-30.637-11.029-60.457-23.284-88.644
			c-0.408-1.226-0.817-2.043-1.634-3.269c-0.409-0.816-51.879-93.545-69.036-156.045c-18.791-69.854-24.102-221.814-8.579-248.775
			c12.255-12.255,17.565-17.156,30.229-26.552c32.271-23.692,69.444-42.893,93.546-54.33l82.516,113.563
			c6.944,9.395,17.974,15.114,29.82,15.114s22.876-5.72,29.82-15.114l100.082-137.664c11.847-16.34,8.17-39.624-8.17-51.879
			c-16.34-11.847-39.624-8.17-51.879,8.17l-70.262,96.405l-69.444-95.997c-9.804-13.889-28.187-18.79-43.709-12.663
			c-2.859,1.226-75.572,30.638-136.03,75.163c-17.157,12.664-25.327,20.425-39.624,34.723
			C127.941,749.183,156.944,966.503,170.425,1016.34z"/>
		<path class="cls-1" d="M466.177,538.807c0.816,0,1.634,0,2.45,0c0.409,0,1.227,0,1.635,0c0.816,0,1.634,0,2.859,0
			c47.386-1.225,87.418-18.382,116.013-50.653C650,419.526,641.422,305.147,639.787,290.85
			c-6.127-126.226-93.954-170.751-167.074-170.751c-1.226,0-2.451,0-3.269,0s-2.042,0-3.268,0
			c-73.121,0-160.54,44.935-167.075,170.751c-1.226,14.297-10.213,128.677,50.653,197.304
			C378.758,520.425,418.791,537.99,466.177,538.807z M373.039,297.386c0-0.817,0-1.634,0-2.451
			c4.085-88.235,60.049-101.307,93.138-101.307h1.634c0.816,0,2.043,0,2.859,0h1.634c33.089,0,89.053,13.072,93.138,101.307
			c0,0.817,0,1.634,0,2.042c2.859,26.144,2.042,102.533-32.68,141.749c-15.114,17.157-35.948,25.735-63.317,25.735
			c-0.408,0-0.408,0-0.817,0l0,0c-27.369-0.408-48.202-8.578-63.316-25.735C370.997,399.918,370.588,323.529,373.039,297.386z"/>
		<path class="cls-1" d="M1324.02,1137.255c-18.791,8.17-27.369,30.229-18.791,48.611c9.396,21.241,15.115,43.301,17.565,66.177
			l69.036,676.47c4.085,40.441,37.99,71.079,78.84,71.079h119.281c40.85,0,74.755-30.638,78.84-71.079l69.035-676.47
			c2.451-22.468,7.762-44.118,16.749-64.951c7.353-13.48,56.78-103.759,74.755-171.16c13.48-49.837,42.892-267.157-9.396-319.444
			c-14.298-14.298-22.468-22.06-39.624-34.723c-60.458-44.526-132.762-73.938-136.029-75.163
			c-15.932-6.536-33.905-1.226-43.709,12.663l-70.262,96.405l-70.67-95.996c-11.847-16.749-35.131-20.017-51.879-8.171
			c-16.34,11.847-20.017,35.131-8.17,51.88l100.081,137.663c6.944,9.396,17.974,15.114,29.82,15.114s22.876-5.719,29.82-15.114
			l82.517-113.563c24.101,11.438,61.274,30.638,93.545,54.33c12.256,8.987,17.565,14.298,30.229,26.553
			c15.522,26.961,10.212,178.922-8.579,248.774c-17.156,62.5-68.627,155.229-69.035,156.046c-0.409,0.817-1.226,2.042-1.635,3.268
			c-12.255,28.187-20.425,58.007-23.284,88.644l-69.036,676.471c-0.408,2.451-2.451,4.494-4.901,4.494h-119.281
			c-2.451,0-4.902-2.043-4.902-4.494l-69.036-676.471c-3.268-30.637-11.029-60.457-23.284-88.644
			C1364.461,1137.255,1342.811,1129.085,1324.02,1137.255z"/>
		<path class="cls-1" d="M1526.226,538.807c0.817,0,1.634,0,2.859,0c0.408,0,1.226,0,1.634,0c0.817,0,1.635,0,2.451,0
			c47.386-0.816,87.418-18.382,116.422-50.653c60.865-68.627,52.287-183.006,50.653-197.304
			c-6.128-126.226-93.546-170.751-167.075-170.751c-1.226,0-2.451,0-3.268,0c-0.817,0-2.043,0-3.269,0
			c-73.12,0-160.539,44.935-167.075,170.751c-1.225,14.297-10.212,128.677,50.654,197.304
			C1438.807,520.425,1478.84,537.582,1526.226,538.807z M1433.088,297.386c0-0.817,0-1.634,0-2.451
			c4.086-88.235,60.049-101.307,93.138-101.307h1.634c0.817,0,2.043,0,2.859,0h1.635c33.088,0,89.052,13.072,93.137,101.307
			c0,0.817,0,1.634,0,2.042c2.859,26.144,2.043,102.533-32.68,141.749c-15.114,17.157-35.947,25.327-63.317,25.735l0,0
			c-0.408,0-0.408,0-0.817,0c-27.369-0.408-48.202-8.578-63.316-25.735C1431.046,399.918,1430.637,323.529,1433.088,297.386z"/>
		<path class="cls-1" d="M692.893,614.787c-55.147,55.147-24.102,285.131-9.396,338.235
			c19.607,71.487,71.896,167.893,79.656,181.781c9.804,22.468,15.932,45.752,18.383,69.853l73.529,720.997
			c4.085,42.075,39.216,73.529,81.699,73.529h127.042c42.076,0,77.206-31.862,81.7-73.529l73.529-720.997
			c2.45-24.101,8.578-47.794,18.382-69.853c7.762-14.297,60.049-110.294,79.657-181.781c14.298-53.104,45.751-283.088-9.396-338.235
			c-15.114-15.114-23.692-23.284-41.667-36.765c-64.134-47.386-141.34-78.431-144.607-80.065
			c-15.932-6.535-33.905-1.225-43.709,12.664l-78.023,105.801l-76.797-105.801c-9.804-13.889-28.187-18.791-43.71-12.664
			c-3.268,1.226-80.064,32.68-144.607,80.065C716.585,591.503,707.598,599.673,692.893,614.787z M745.997,666.258
			c13.48-13.48,19.199-18.791,32.68-28.595c35.13-26.144,75.98-46.977,102.124-59.231l89.053,122.549
			c6.943,9.396,17.974,15.114,29.819,15.114c11.847,0,22.876-5.719,29.82-15.114l89.053-122.549
			c25.735,12.255,66.585,33.088,102.124,59.231c13.48,9.804,19.199,15.114,32.68,28.595c17.157,27.778,11.847,191.585-8.986,267.157
			c-18.383,66.993-73.121,165.85-73.938,166.667c-0.408,0.816-1.226,2.042-1.634,3.268c-13.072,29.82-21.65,61.274-24.918,93.954
			l-73.53,720.997c-0.408,4.085-3.676,6.944-7.761,6.944H935.539c-4.085,0-7.353-2.859-7.762-6.944l-73.529-720.997
			c-3.268-32.271-11.438-64.134-24.918-93.954c-0.408-1.226-0.817-2.043-1.634-3.268c-0.409-0.817-55.556-100.082-73.938-167.075
			C734.15,857.843,728.84,694.036,745.997,666.258z"/>
		<path class="cls-1" d="M995.997,441.993c0.816,0,2.042,0,2.859,0c0.408,0,1.634,0,2.042,0c0.817,0,1.635,0,2.451,0
			c50.654-0.816,91.504-18.791,122.141-53.513c64.543-72.304,54.738-194.036,53.514-208.742C1172.468,46.977,1080.556,0,1003.35,0
			c-1.226,0-2.451,0-3.676,0c-0.817,0-2.043,0-3.677,0c-76.798,0-169.118,46.977-175.653,179.738
			c-1.226,14.706-11.029,136.03,53.513,208.333C904.493,422.794,945.752,440.768,995.997,441.993z M894.281,186.683
			c0-0.817,0-1.634,0-2.451c4.493-99.673,72.712-110.294,101.716-110.294h2.042c0.817,0,2.043,0,2.859,0h2.043
			c29.003,0,97.222,10.621,101.715,110.294c0,0.817,0,1.634,0,2.042c2.86,28.187,2.451,110.703-35.13,152.778
			c-16.749,18.791-39.624,28.186-69.444,28.186c-0.409,0-0.817,0-1.226,0c-29.82-0.408-52.696-9.395-69.444-28.186
			C891.83,297.386,891.422,214.869,894.281,186.683z"/>
</svg>
