<svg id="Layer_1" data-name="Layer 1" xmlns="http://www.w3.org/2000/svg" viewBox="0 0 2000 2000">
    <defs>
        <style>
            .cls-1 {
                fill: #e74a3e;
            }
            
            .cls-2 {
                fill: #181818;
            }
        </style>
    </defs>	
    <title>Business-Collection</title>
		<path id="XMLID_83_" class="cls-2" d="M1376.046,728.015H978.168V330.137c-219.547,0-397.878,177.923-397.878,397.878
			s177.923,397.878,397.878,397.878S1376.046,947.97,1376.046,728.015z"/>
		<path class="cls-1" d="M1962.457,1.224H37.135C16.731,1.224,0,17.956,0,38.359c0,20.404,16.731,37.135,37.135,37.135h71.414
			v1189.553c0,57.947,46.929,104.877,104.876,104.877h1580.902c57.947,0,104.876-46.93,104.876-104.877V75.087h63.661
			c20.403,0,37.135-16.731,37.135-37.136C2000,17.547,1982.86,1.224,1962.457,1.224z M1824.934,1265.048
			c0,17.14-13.875,30.606-30.605,30.606H213.018c-17.139,0-30.606-13.875-30.606-30.606V75.087h1642.522V1265.048z"/>
		<path class="cls-1" d="M696.593,1935.523c-14.283,14.282-14.283,37.951,0,52.234c7.345,7.345,16.731,11.018,26.117,11.018
			s18.771-3.673,26.116-11.018l237.503-237.503v211.386c0,20.403,16.731,37.135,37.136,37.135s37.135-16.731,37.135-37.135v-211.386
			l236.278,236.278c7.346,7.346,16.731,11.018,26.117,11.018s18.771-3.672,26.117-11.018c14.282-14.283,14.282-37.951,0-52.234
			L1060.6,1645.786v-111.813h146.501c20.403,0,37.135-16.731,37.135-37.136c0-20.403-16.731-37.135-37.135-37.135H834.523
			c-20.404,0-37.136,16.731-37.136,37.135c0,20.404,16.731,37.136,37.136,37.136h152.214v111.813L696.593,1935.523z"/>
		<path class="cls-1" d="M978.168,1163.027c239.951,0,435.013-195.062,435.013-435.013c0-20.404-16.731-37.136-37.135-37.136
			h-360.743V330.137c0-20.404-16.731-37.135-37.135-37.135c-239.951,0-435.014,195.062-435.014,435.013
			S738.217,1163.027,978.168,1163.027z M941.032,368.904v359.11c0,20.404,16.731,37.136,37.136,37.136h359.11
			c-18.772,181.595-172.618,324.015-359.11,324.015c-199.144,0-360.743-162.008-360.743-360.742
			C617.425,541.522,759.437,387.676,941.032,368.904z"/>
		<path class="cls-1" d="M1154.458,594.164h312.182c20.403,0,37.135-16.73,37.135-37.135c0-85.289-31.014-167.313-87.329-231.381
			c-66.517-74.679-162.008-117.527-261.987-117.527c-20.403,0-37.135,16.731-37.135,37.135v312.182
			C1117.323,577.841,1133.646,594.164,1154.458,594.164z M1191.186,284.432c64.885,8.978,125.28,40.808,169.354,90.594
			c36.318,40.809,59.171,91.41,66.517,145.276h-235.87V284.432z"/>
</svg>
