<svg id="Layer_1" data-name="Layer 1" xmlns="http://www.w3.org/2000/svg" viewBox="0 0 2000 2000">
    <defs>
        <style>
            .cls-1 {
                fill: #e74a3e;
            }
            
            .cls-2 {
                fill: #181818;
            }
        </style>
    </defs>	
    <title>Business-Collection</title>
		<circle id="XMLID_1732_" class="cls-2" cx="562.316" cy="779.619" r="293.022"/>
		<path class="cls-1" d="M1769.602,1356.66v-177.204c0-60.16-48.701-108.86-108.861-108.86h-26.601
			c-37.241-97.401-100.675-185.799-185.8-257.418c0-0.409,0-0.409-0.408-0.818c-12.688-44.608-3.274-92.49,27.828-142.01
			c16.779-26.601,16.37-59.341-0.409-85.532c-16.778-26.192-46.245-40.106-77.348-36.424
			c-118.273,14.733-188.664,68.754-229.589,118.683c-39.288-11.05-80.213-19.234-121.138-24.146
			c-20.463-2.456-38.879,12.277-41.334,32.33c-2.456,20.463,12.277,38.879,32.33,41.334c45.427,5.32,90.035,15.143,133.006,28.647
			c15.552,4.911,32.74-0.818,42.153-14.732c28.238-42.152,85.123-95.355,193.574-108.451c0.818,0,3.684-0.409,5.729,2.455
			c2.046,3.274,0.409,5.32,0,6.14c-42.152,67.116-54.43,137.098-36.014,201.76c0,0.409,0.409,0.818,0.409,1.637
			c0.409,10.641,5.32,20.872,13.914,27.829c86.762,69.981,149.785,159.197,181.707,257.417
			c4.911,15.143,19.234,25.374,35.195,25.374c0.409,0,0.409,0,0.818,0h51.975c19.235,0,34.787,15.551,34.787,34.786v177.204
			c0,19.235-15.552,34.787-34.787,34.787h-49.519c-16.37,0-30.694,10.64-35.604,26.191
			c-23.328,75.711-124.412,202.987-163.7,248.823l-9.003,7.776c-83.078,75.301-91.672,164.108-92.49,189.481
			c0,0.409,0,0.409,0,0.819v58.522c0,0.818-0.819,1.637-1.638,1.637h-236.955c-0.818,0-1.637-0.818-1.637-1.637v-56.067
			c0-10.641-4.502-20.463-12.277-27.42c-7.776-6.957-18.417-10.231-28.647-9.413c-59.751,6.14-120.319,5.32-178.842-2.455
			c-10.641-1.228-21.281,1.637-29.466,9.004c-8.186,6.957-12.688,17.188-12.688,27.828v58.522c0,0.819-0.818,1.638-1.637,1.638
			H569.683c-0.818,0-1.637-0.819-1.637-1.638v-18.007c0-0.409,0-1.228,0-1.637c-2.046-42.562-15.552-150.604-99.448-236.955
			c-40.516-41.743-76.938-96.583-107.632-163.29c-0.409-0.409-0.409-0.818-0.818-1.229c-18.417-35.604-32.331-73.255-41.743-111.315
			c0-0.409,0-0.818-0.41-0.818l-0.409-1.228c0-0.409-0.409-0.818-0.409-1.228c-14.732-49.52-13.096-111.726-13.096-112.544
			c0-0.409,0-0.818,0-1.228c0-27.42,2.455-54.839,6.957-81.44c3.274-20.054-10.231-39.288-30.284-42.563
			c-20.053-3.273-39.288,10.231-42.562,30.285c-5.32,30.693-7.776,61.797-7.776,93.309c0,7.775-1.228,76.12,16.37,135.052
			l0.409,0.819c10.641,43.789,26.602,86.352,47.473,126.867c34.376,74.073,75.301,135.87,121.547,183.343
			c65.889,67.936,76.938,153.469,78.575,187.846v16.779c0,1.228,0,2.864,0,4.093c0,0.409,0,0.818,0,1.228
			c2.864,39.697,36.014,70.8,75.711,70.8h236.955c41.743,0,76.12-33.968,76.12-76.12v-17.188
			c37.651,3.273,75.712,3.683,113.771,1.637v15.551c0,41.744,33.968,76.121,76.121,76.121h236.955
			c41.743,0,76.12-33.968,76.12-76.121v-58.113c0.409-13.914,5.729-79.394,67.526-135.461l10.641-9.004
			c1.227-1.228,2.455-2.455,3.683-3.683c5.729-6.548,126.049-145.284,170.657-251.279h23.736
			C1720.9,1465.521,1769.602,1416.411,1769.602,1356.66z"/>
		<path class="cls-1" d="M232.461,779.619c0,182.116,148.148,329.855,329.855,329.855c181.706,0,329.854-148.148,329.854-329.855
			c0-181.706-148.148-329.854-329.854-329.854C380.609,449.765,232.461,597.913,232.461,779.619z M818.097,779.619
			c0,141.191-114.59,255.781-255.78,255.781c-141.191,0-255.781-114.59-255.781-255.781c0-141.19,114.59-255.78,255.781-255.78
			C703.507,523.839,818.097,638.838,818.097,779.619z"/>
		<path class="cls-1" d="M714.147,229.18c0,126.458,102.722,229.18,229.18,229.18s229.18-102.722,229.18-229.18
			S1069.785,0,943.327,0S714.147,102.722,714.147,229.18z M1098.023,229.18c0,85.533-69.572,155.105-155.105,155.105
			S787.813,314.712,787.813,229.18c0-85.533,69.572-155.105,155.105-155.105S1098.023,143.646,1098.023,229.18z"/>
</svg>
