<svg id="Layer_1" data-name="Layer 1" xmlns="http://www.w3.org/2000/svg" viewBox="0 0 2000 2000">
    <defs>
        <style>
            .cls-1 {
                fill: #e74a3e;
            }
            
            .cls-2 {
                fill: #181818;
            }
        </style>
    </defs>	
    <title>Business-Collection</title>
		<rect id="XMLID_1475_" x="1354.312" y="1397.144" class="cls-2" width="608.092" height="392.317"/>
		<path class="cls-1" d="M1222.313,1789.461c0-20.434-16.755-37.188-37.188-37.188h-85.411c-4.087,0-7.355-3.27-7.355-7.356
			v-67.021c0-10.625-4.495-20.842-12.669-27.789s-18.799-10.217-29.424-8.991c-67.838,8.991-137.72,10.217-206.784,2.861
			c-10.625-1.227-20.842,2.452-28.606,9.399c-7.764,6.947-12.26,17.163-12.26,27.38v64.16c0,4.087-3.27,7.356-7.355,7.356H523.498
			c-4.087,0-7.355-3.27-7.355-7.356v-67.021c0-0.409,0-0.409,0-0.817c-0.409-25.337-22.068-137.311-116.061-223.947
			c-89.906-80.099-154.475-178.995-187.577-286.064c-4.904-15.529-19.207-26.155-35.554-26.155h-57.213
			c-24.928,0-45.361-20.433-45.361-45.361V892.444c0-24.929,20.433-45.362,45.361-45.362h59.665
			c15.938,0,31.059-9.808,35.962-25.337c37.188-113.608,109.93-216.592,210.461-297.916c8.582-6.947,13.486-16.755,13.895-27.789
			c0-1.226,0-2.043,0.409-3.27c20.842-72.741,6.538-151.205-40.866-226.808c-3.679-5.722-1.635-10.625,0-13.078
			c1.635-2.452,4.903-6.539,11.851-5.313c126.686,15.938,192.89,77.646,225.991,127.094c8.991,13.486,26.154,19.616,42.093,14.712
			c81.732-25.746,167.961-39.231,255.823-39.231c324.07,0,609.727,179.812,710.666,447.078c7.765,21.25,14.712,42.909,20.024,64.568
			c3.27,13.895,6.539,27.789,8.582,42.093c3.27,20.024,22.477,33.919,42.91,30.241c20.024-3.27,33.919-22.477,30.24-42.91
			c-2.86-15.938-6.13-31.876-9.808-47.405c-6.13-24.52-13.895-49.039-22.885-72.741
			c-111.974-296.281-425.419-495.301-780.14-495.301c-86.228,0-171.229,11.852-252.554,34.736
			c-45.771-57.213-125.868-119.738-261.953-136.902c-33.511-4.086-65.387,11.034-83.368,39.232
			c-17.98,28.198-17.98,63.751-0.408,92.358c36.371,58.03,47.405,114.426,32.284,167.144c-0.408,0.817-0.408,1.635-0.817,2.452
			C269.31,557.34,195.75,659.506,153.658,772.297H119.33C53.535,772.297,0,825.832,0,891.627v203.105
			c0,65.795,53.535,119.33,119.33,119.33h30.65c38.823,109.931,107.887,210.87,199.837,293.012
			c72.742,66.612,91.132,155.701,91.54,170.413v66.612c0,44.952,36.78,81.732,81.733,81.732h271.761
			c44.953,0,81.733-36.78,81.733-81.732v-23.703c47.404,2.861,94.4,2.043,141.397-2.043v25.746
			c0,44.952,36.779,81.732,81.732,81.732h85.411C1205.967,1826.648,1222.313,1809.894,1222.313,1789.461z"/>
		<path class="cls-1" d="M1429.097,1246.347v114.017h-74.377c-20.433,0-37.188,16.756-37.188,37.188v392.317
			c0,20.434,16.756,37.188,37.188,37.188h608.092c20.433,0,37.188-16.755,37.188-37.188v-392.317
			c0-20.433-16.756-37.188-37.188-37.188h-74.377v-114.017c0-126.686-102.983-229.669-229.669-229.669
			S1429.097,1119.661,1429.097,1246.347z M1925.215,1752.272H1391.5v-318.35h534.123v318.35H1925.215z M1813.649,1246.347v114.017
			h-310.993v-114.017c0-85.819,69.882-155.292,155.292-155.292C1744.177,1090.646,1813.649,1160.527,1813.649,1246.347z"/>
</svg>
