<svg id="Layer_1" data-name="Layer 1" xmlns="http://www.w3.org/2000/svg" viewBox="0 0 2000 2000">
    <defs>
        <style>
            .cls-1 {
                fill: #e74a3e;
            }
            
            .cls-2 {
                fill: #181818;
            }
        </style>
    </defs>	
    <title>Business-Collection</title>
		<path class="cls-2" d="M1482.016,899.14l-61.682-35.538c-13.07-7.353-20.424-21.649-19.606-36.354
			c1.226-21.65,0.408-42.891-2.042-64.132c-1.635-14.706,4.901-29.003,17.156-37.172l60.455-40.849
			c14.705-10.212,20.016-29.411,12.663-45.75l-20.016-43.299l-20.016-43.3c-7.353-16.339-25.326-24.509-42.891-20.016
			l-68.625,19.199c-14.706,4.085-29.819-0.817-40.031-11.847c-14.297-15.521-29.411-30.228-46.159-43.707
			c-11.438-9.396-17.156-24.101-14.705-38.397l13.889-71.893c3.268-17.565-6.536-35.129-23.283-41.665l-44.934-16.748
			l-44.933-16.748c-17.157-6.536-35.947,0.408-44.934,15.931l-35.538,61.272c-7.353,13.071-22.058,20.424-37.172,19.607
			c-22.467-1.226-44.524-0.409-66.174,2.042c-14.705,1.634-29.411-4.493-37.989-16.748l-40.439-59.638
			c-10.212-14.706-29.411-20.016-45.75-12.663l-43.3,20.016l-43.299,20.016c-16.339,7.353-24.509,25.326-20.016,42.891l18.79,69.851
			c3.677,14.297-0.816,29.41-11.846,39.623c-15.931,14.297-30.228,30.228-43.708,46.976c-9.395,11.846-24.1,17.564-38.806,14.705
			l-71.075-13.889c-17.156-3.268-34.722,6.536-41.666,22.467l-16.748,44.933l-16.747,44.934
			c-6.536,17.156,0.408,35.946,15.931,44.933l62.498,35.947c13.071,7.353,20.424,21.24,19.607,36.354
			c-0.817,21.649-0.409,42.891,2.45,64.132c1.634,14.705-4.493,29.41-16.747,37.58l-60.047,40.439
			c-14.706,10.213-20.017,29.411-12.664,45.75l20.016,43.3l20.016,43.299c7.354,16.34,25.326,24.509,42.892,20.016l70.259-19.606
			c14.297-3.677,29.41,0.816,39.623,11.846c14.297,15.931,30.228,30.228,46.975,43.707c11.847,9.396,17.565,24.101,14.706,38.807
			l-13.889,71.075c-3.268,17.565,6.536,35.13,23.283,41.666l44.934,16.747l44.933,16.748c17.156,6.536,35.947-0.408,44.934-15.931
			l35.946-62.498c7.353-13.071,21.649-20.424,36.354-19.606c20.425,0.816,40.849,0,60.864-2.043
			c14.705-1.634,29.411,4.902,37.581,17.156l40.848,60.456c10.212,14.705,29.411,20.015,45.75,12.663l43.299-20.016l43.3-20.016
			c16.339-7.354,24.509-25.326,20.016-42.892l-18.382-69.033c-4.085-14.297,0.817-29.819,11.846-39.623
			c15.522-14.297,30.228-29.819,43.708-46.566c9.396-11.438,24.101-17.156,38.397-14.706l71.893,13.889
			c17.564,3.268,35.13-6.535,41.666-23.283l16.747-44.934l16.748-44.933C1504.482,926.508,1497.538,908.126,1482.016,899.14z
			 M1168.709,867.278c-25.325,71.075-93.134,118.868-168.295,118.868c-20.424,0-40.439-3.677-60.047-10.212
			c-92.725-33.087-141.743-135.208-108.656-228.342c25.326-71.076,93.135-118.869,168.295-118.869
			c20.424,0,40.439,3.677,59.639,10.213c44.933,15.931,80.879,48.609,101.712,91.5
			C1182.189,773.735,1184.641,822.345,1168.709,867.278z"/>
		<path class="cls-1" d="M1784.701,949.791c9.395-49.426,14.297-100.078,14.297-150.729c0-450.148-374.17-814.106-827.586-798.583
			C572.733,14.366,243.088,324.405,204.69,721.041c-7.353,76.795-3.676,153.59,10.621,229.159
			c0.409,2.859,2.042,11.438,5.311,25.325c12.254,54.328,30.228,107.432,53.511,158.083
			c86.598,203.833,276.951,517.956,694.42,855.362c8.986,7.353,20.016,11.029,31.453,11.029s22.467-4.085,31.453-11.029
			c417.47-337.406,607.822-651.121,694.421-855.362c23.283-50.651,41.257-103.755,53.511-157.674
			C1783.067,960.412,1784.701,951.426,1784.701,949.791z M1711.991,936.72c0,0.817-0.409,1.226-0.409,2.043
			c-0.408,2.042-1.633,9.395-4.492,20.424c-11.029,49.427-27.777,97.627-49.019,143.786c0,0.408-0.408,0.816-0.408,1.225
			c-81.696,194.029-262.246,491.405-657.657,814.923c-395.411-323.109-575.96-620.894-657.656-814.923
			c0-0.408-0.409-0.816-0.409-1.225c-21.241-46.159-37.58-94.359-49.018-144.194c-2.859-12.663-4.085-19.199-4.493-20.425
			c0-0.408,0-1.226-0.409-1.634c-13.072-68.625-16.339-138.476-9.804-208.326c34.721-360.281,333.73-641.317,695.646-653.572
			c411.342-14.297,750.791,316.166,750.791,724.648C1725.063,845.22,1720.569,891.378,1711.991,936.72z"/>
		<path class="cls-1" d="M1072.308,604.215c-23.283-8.169-47.792-12.663-72.302-12.663c-91.092,0-172.788,57.597-203.424,143.378
			c-19.199,54.328-16.34,112.741,8.578,165.026c24.917,51.878,68.217,91.501,122.545,110.699
			c23.283,8.17,47.792,12.663,72.301,12.663c91.092,0,172.788-57.596,203.425-143.378
			C1243.462,767.608,1184.641,643.838,1072.308,604.215z M1133.58,855.023c-20.016,56.371-73.527,94.359-133.574,94.359
			c-15.931,0-32.27-2.859-47.384-8.17c-73.526-26.143-112.333-107.431-86.189-180.957c20.016-56.371,73.526-94.359,133.573-94.359
			c15.931,0,32.271,2.859,47.385,8.169C1121.325,699.8,1159.723,781.088,1133.58,855.023z"/>
		<path class="cls-1" d="M1416.25,493.925c-6.536,0-12.663,0.817-19.607,2.451l-69.033,19.198c-0.817,0-1.634-0.408-2.451-1.226
			c-15.931-17.564-32.679-33.495-50.651-47.384c-0.817-0.408-1.634-1.634-1.226-2.859l13.889-71.893
			c6.535-35.538-13.072-70.259-46.976-82.922l-89.866-33.496c-8.17-3.268-17.156-4.493-25.734-4.493
			c-26.144,0-50.652,14.297-63.724,36.764l-35.538,61.272c-0.408,0.817-1.634,1.225-2.859,1.225
			c-24.101-1.225-48.201-0.817-73.118,2.451c-0.408,0-1.634,0-2.451-0.817l-40.439-60.047
			C892.575,292.135,869.7,279.88,845.6,279.88c-10.62,0-20.832,2.042-30.636,6.536l-87.007,39.623
			c-32.679,15.114-49.835,51.06-40.439,86.19l18.79,69.851c0.408,0.816-0.409,2.042-0.817,2.45
			c-17.156,15.522-33.087,33.088-47.792,51.469c-0.409,0.817-1.226,1.226-2.451,1.226l-71.076-13.888
			c-4.493-0.817-8.986-1.226-13.479-1.226c-29.819,0-57.188,17.973-69.034,45.342c-0.408,0.408-0.408,1.225-0.816,1.634
			l-33.496,89.866c-12.663,33.903,0.817,71.484,32.271,89.866l62.498,35.946c0.816,0.408,1.226,1.634,1.226,2.45
			c-1.226,23.692-0.409,47.385,2.45,70.26c0,0.816,0,2.042-0.816,2.451l-60.047,40.848c-29.819,20.424-40.439,58.821-25.734,91.5
			l39.623,87.007c11.846,26.143,38.396,42.891,66.99,42.891c6.536,0,12.663-0.817,19.199-2.451l70.259-18.79
			c0.817,0,1.634,0.408,2.042,1.226c15.522,17.156,33.088,33.087,51.469,47.793c0.817,0.408,1.227,1.634,1.227,2.45l-13.889,71.076
			c-6.944,35.538,13.071,70.259,46.976,82.922l89.866,33.496c8.169,3.268,17.156,4.493,25.734,4.493
			c26.143,0,50.651-14.297,63.723-37.172l35.947-62.498c0.408-0.817,1.634-1.226,2.859-1.226l0,0
			c22.058,0.817,44.524,0,67.399-2.451c0.408,0,1.634,0,2.45,0.817l41.257,60.455c13.889,20.016,36.764,32.271,60.864,32.271
			c10.62,0,20.833-2.043,30.636-6.536l87.007-39.622c32.679-15.114,49.835-51.061,40.44-86.19l-18.382-69.033
			c-0.409-1.226,0.408-2.043,1.225-2.859c17.565-15.931,33.496-33.087,47.793-50.652c0.817-0.816,1.634-1.226,2.859-1.226
			l71.893,13.48c4.494,0.816,8.987,1.226,13.889,1.226c30.637,0,58.822-19.199,69.442-48.201l33.495-89.866
			c12.663-33.904-0.816-71.484-32.27-89.866l-61.682-35.538c-0.816-0.408-1.225-1.634-1.225-2.451
			c1.225-23.283,0.408-46.566-2.043-69.851c0-1.225,0.408-2.042,0.817-2.45l60.864-41.257c29.818-20.425,40.439-58.821,25.734-91.5
			l-39.623-86.599C1471.395,510.673,1445.252,493.925,1416.25,493.925z M1395.417,694.898
			c-23.692,15.931-36.354,43.707-33.087,71.893c2.043,19.199,2.859,38.806,1.634,58.005c-1.634,29.002,13.071,55.962,37.989,70.667
			l61.681,35.538l-33.495,89.866l-71.894-13.479c-4.493-0.817-9.396-1.226-14.297-1.226c-23.283,0-45.342,10.62-60.047,29.002
			c-11.846,14.705-25.326,29.002-39.623,42.074c-21.649,19.606-30.228,49.018-22.875,76.794l18.79,68.626l-86.189,39.622
			l-40.849-60.455c-15.931-23.283-43.708-36.354-72.301-33.087c-18.382,2.042-36.764,2.859-55.146,2.042
			c-29.002-1.226-55.962,13.48-70.259,38.397l-35.946,62.498l-89.866-33.087l13.888-71.076c5.311-28.186-5.311-56.779-27.776-74.753
			c-15.522-12.254-29.819-25.325-42.891-39.622c-14.706-15.931-35.13-25.326-56.779-25.326c-6.536,0-13.071,0.817-19.607,2.451
			l-69.441,18.79l-39.623-86.19l60.047-40.848c23.692-15.931,36.354-43.708,33.087-72.71c-2.451-19.199-2.859-38.806-2.042-58.413
			c1.226-29.002-13.48-55.554-37.989-69.851l-62.498-35.946l33.088-88.232c0-0.408,0.408-0.408,0.408-0.408l71.076,13.888
			c4.901,0.817,9.803,1.226,14.297,1.226c23.691,0,45.341-10.62,60.047-29.41c12.254-15.522,25.325-29.819,39.622-42.891
			c21.241-19.607,29.819-48.609,22.467-76.387l-18.79-69.442l86.189-39.623l40.44,59.638c15.931,23.692,44.116,36.355,73.118,33.088
			c19.607-2.451,39.623-2.859,59.639-2.043c29.41,1.634,56.779-13.071,71.076-37.988l35.129-61.272l89.866,33.495l-13.889,71.893
			c-5.31,27.777,5.311,56.371,27.777,74.345c14.705,11.846,28.594,24.917,42.073,39.622c14.705,16.34,35.538,25.326,57.188,25.326
			c6.944,0,13.889-0.816,20.424-2.859l67.809-19.198l39.623,86.189L1395.417,694.898z"/>
</svg>
