<svg id="Layer_1" data-name="Layer 1" xmlns="http://www.w3.org/2000/svg" viewBox="0 0 2000 2000">
    <defs>
        <style>
            .cls-1 {
                fill: #e74a3e;
            }
            
            .cls-2 {
                fill: #181818;
            }
        </style>
    </defs>	
    <title>Business-Collection</title>
		<path class="cls-2" d="M442.013,532.624v-427.49c0-37.635,30.272-67.907,67.907-67.907h979.342
			c37.636,0,67.907,30.272,67.907,67.907v427.899"/>
		<path class="cls-2" d="M1489.671,1962.364H510.329c-37.636,0-67.907-30.271-67.907-67.907v-863.571h1115.565v863.98
			C1557.578,1932.093,1527.307,1962.364,1489.671,1962.364z"/>
		<path class="cls-1" d="M198.609,1565.965h206.586v328.901c0,58.089,47.045,105.134,105.134,105.134h979.342
			c58.089,0,105.134-47.045,105.134-105.134v-328.901h206.586c91.226,0,165.27-74.044,165.27-165.27V660.667
			c0-91.226-74.044-165.27-165.27-165.27h-206.995V105.134C1594.396,47.044,1547.352,0,1489.262,0H509.92
			c-58.089,0-105.134,47.044-105.134,105.134v390.673H198.609c-91.226,0-165.269,74.044-165.269,165.27v739.619
			C33.34,1491.921,107.384,1565.965,198.609,1565.965z M1520.761,1894.457c0,17.182-13.909,30.681-30.681,30.681H510.329
			c-17.181,0-30.681-13.908-30.681-30.681v-826.754h1041.112V1894.457z M479.239,105.134c0-17.181,13.909-30.681,30.681-30.681
			h979.342c17.182,0,30.681,13.908,30.681,30.681v390.673H479.239V105.134z M107.793,660.667c0-50.317,40.908-90.816,90.816-90.816
			h1602.781c50.317,0,90.816,40.908,90.816,90.816v740.028c0,50.317-40.908,90.816-90.816,90.816h-206.586v-460.626
			c0-20.454-16.772-37.227-37.227-37.227H442.422c-20.454,0-37.227,16.772-37.227,37.227v461.035H198.609
			c-50.317,0-90.816-40.908-90.816-90.816V660.667z"/>
		<path class="cls-1" d="M318.061,817.754c9.818,0,19.228-4.091,26.182-11.045s10.637-16.363,10.637-26.182
			c0-9.817-4.092-19.227-10.637-26.181c-6.954-6.954-16.363-11.045-26.182-11.045c-9.817,0-19.227,4.091-26.181,11.045
			c-6.955,6.954-11.045,16.363-11.045,26.181c0,9.818,4.091,19.228,11.045,26.182C298.834,813.663,308.243,817.754,318.061,817.754z
			"/>
		<path class="cls-1" d="M1287.176,1459.604H712.824c-20.453,0-37.226,16.771-37.226,37.227c0,20.453,16.772,37.226,37.226,37.226
			h574.76c20.455,0,37.227-16.772,37.227-37.226C1324.811,1476.375,1307.629,1459.604,1287.176,1459.604z"/>
		<path class="cls-1" d="M1287.176,1689.507H712.824c-20.453,0-37.226,16.772-37.226,37.227s16.772,37.227,37.226,37.227h574.76
			c20.455,0,37.227-16.772,37.227-37.227C1324.402,1705.87,1307.629,1689.507,1287.176,1689.507z"/>
		<path class="cls-1" d="M1287.176,1229.699H712.824c-20.453,0-37.226,16.772-37.226,37.227s16.772,37.227,37.226,37.227h574.76
			c20.455,0,37.227-16.772,37.227-37.227S1307.629,1229.699,1287.176,1229.699z"/>
</svg>
