<svg id="Layer_1" data-name="Layer 1" xmlns="http://www.w3.org/2000/svg" viewBox="0 0 2000 2000">
    <defs>
        <style>
            .cls-1 {
                fill: #e74a3e;
            }
            
            .cls-2 {
                fill: #181818;
            }
        </style>
    </defs>	
    <title>Business-Collection</title>
		<polygon id="XMLID_1304_" class="cls-2" points="1759.424,421.41 813.906,36.578 941.911,421.41 813.497,805.833 		"/>
		<path class="cls-1" d="M1796.64,421.41c0-2.454-0.409-4.499-0.817-6.544c0-0.817-0.409-1.227-0.409-2.044
			c-0.409-1.637-0.818-2.863-1.228-4.499c-0.408-0.818-0.408-1.227-0.817-2.045c-0.817-2.045-1.636-3.681-2.862-5.726
			c0,0,0,0-0.409-0.409c-1.228-1.636-2.454-3.271-3.681-4.498c-0.409-0.409-0.818-0.818-1.227-1.227
			c-1.228-1.227-2.454-2.045-3.682-2.863c-0.408-0.409-1.227-0.818-1.635-1.227c-1.228-0.818-2.863-1.636-4.499-2.454
			c-0.409-0.409-0.818-0.409-1.228-0.818l0,0L828.629,2.634c-13.496-5.316-28.627-2.454-39.26,7.361
			c-10.634,9.815-14.314,24.946-9.815,38.851l123.915,372.973L778.735,794.791c-4.498,13.905-0.817,29.037,9.815,38.852
			c6.952,6.544,15.949,10.225,25.355,10.225c4.498,0,9.406-0.818,13.904-2.863l946.336-384.424c0,0,0,0,0.41,0
			c0.408,0,0.817-0.408,1.227-0.817c1.636-0.818,3.271-1.636,4.498-2.454c0.409-0.408,1.227-0.817,1.637-1.227
			c1.227-0.818,2.453-2.045,3.68-2.862c0.409-0.409,0.818-0.818,1.227-1.228c1.637-1.636,2.863-3.271,4.09-4.907l0,0
			c1.227-1.636,2.045-3.681,2.863-5.726c0.408-0.818,0.408-1.227,0.818-2.045c0.408-1.636,0.817-2.862,1.227-4.498
			c0-0.818,0.408-1.228,0.408-2.045C1796.23,425.908,1796.64,423.455,1796.64,421.41L1796.64,421.41L1796.64,421.41L1796.64,421.41z
			 M874.433,101.193l695.643,283.001H968.494L874.433,101.193z M968.494,458.217h601.172L874.023,741.218L968.494,458.217z"/>
		<path class="cls-1" d="M640.105,1937.741c9.439,0,18.485-3.933,25.171-10.619s10.619-15.732,10.619-25.172
			c0-9.438-3.933-18.485-10.619-25.171c-6.686-6.687-15.732-10.619-25.171-10.619c-9.44,0-18.486,3.933-25.172,10.619
			c-6.686,6.686-10.619,15.732-10.619,25.171c0,9.439,3.933,18.485,10.619,25.172
			C621.619,1934.201,630.665,1937.741,640.105,1937.741z"/>
		<path class="cls-1" d="M1616.676,1834.696c9.046,0,17.698-3.146,24.778-9.834c14.159-13.765,14.552-36.183,0.787-50.342
			c-13.766-14.159-36.184-14.553-50.343-1.18c-14.159,13.766-14.553,36.184-1.181,50.343
			C1597.797,1830.763,1607.237,1834.696,1616.676,1834.696z"/>
		<path class="cls-1" d="M1674.885,1730.471c5.113,2.753,10.619,3.933,16.125,3.933c12.979,0,25.565-7.079,31.858-19.665
			c9.046-17.699,1.966-38.938-15.732-47.983s-38.938-1.967-47.983,15.732C1650.106,1700.186,1657.186,1721.424,1674.885,1730.471z"
			/>
		<path class="cls-1" d="M1694.943,1369.025c16.912-10.227,22.024-32.251,11.799-48.771
			c-10.226-16.911-32.251-22.024-49.163-11.799c-16.911,10.227-22.024,32.251-11.799,49.163
			c6.687,11.013,18.485,16.912,30.285,16.912C1682.751,1374.138,1689.044,1372.564,1694.943,1369.025z"/>
		<path class="cls-1" d="M1687.471,1461.845c3.539,16.911,18.484,28.317,34.61,28.317c2.36,0,5.112-0.394,7.473-0.787
			c19.272-3.933,31.464-22.812,27.532-42.083c-3.934-19.271-22.813-31.464-42.085-27.531
			C1695.729,1423.694,1683.537,1442.572,1687.471,1461.845z"/>
		<path class="cls-1" d="M1621.789,1267.16c12.586-15.339,10.227-37.758-5.113-50.344c-15.339-12.585-37.757-10.226-50.343,5.113
			s-10.226,37.757,5.113,50.343c6.686,5.507,14.552,7.866,22.419,7.866C1604.483,1280.139,1614.709,1275.813,1621.789,1267.16z"/>
		<path class="cls-1" d="M203.736,868.813c2.863,18.403,18.812,31.899,36.807,31.899c1.636,0,3.681,0,5.316-0.409
			c20.448-2.863,34.353-21.675,31.49-42.123s-21.675-34.353-42.123-31.49C214.778,829.553,200.874,848.365,203.736,868.813z"/>
		<path class="cls-1" d="M334.115,572.586c-16.912-9.832-38.938-4.327-48.77,12.586c-9.833,16.912-4.326,38.937,12.585,48.77
			c5.506,3.146,11.799,4.719,18.092,4.719c12.192,0,23.991-6.292,30.677-17.699C356.927,604.444,351.42,582.419,334.115,572.586z"/>
		<path class="cls-1" d="M384.458,1098.039c9.439,0,19.272-3.933,25.958-11.405c13.372-14.553,12.585-36.972-1.966-50.343
			c-14.553-13.372-36.971-12.586-50.344,1.966c-13.372,14.553-12.584,36.971,1.967,50.343
			C367.152,1094.893,375.805,1098.039,384.458,1098.039z"/>
		<path class="cls-1" d="M503.235,1098.039c-18.092-7.866-38.937,0.394-46.804,18.485c-7.865,18.092,0.394,38.937,18.486,46.804
			c4.719,1.966,9.44,2.752,14.159,2.752c13.765,0,26.745-7.865,32.644-21.631C529.587,1126.751,521.328,1105.906,503.235,1098.039z"
			/>
		<path class="cls-1" d="M423.788,484.88c-12.586-14.946-35.397-16.912-50.342-3.933c-14.946,12.586-16.913,35.397-3.934,50.342
			c7.08,8.26,17.305,12.586,27.138,12.586c8.26,0,16.125-2.752,23.205-8.652C434.407,522.244,436.374,499.825,423.788,484.88z"/>
		<path class="cls-1" d="M265.287,755.079c2.36,0.394,4.72,0.787,6.686,0.787c16.519,0,31.858-11.8,35.004-29.105
			c3.54-19.272-9.046-38.15-28.318-41.69c-19.271-3.54-38.15,9.046-41.69,28.318l0,0
			C233.43,732.661,246.015,751.539,265.287,755.079z"/>
		<path class="cls-1" d="M281.03,1023.81c5.726,0,11.86-1.227,17.176-4.09c17.994-9.405,24.947-31.898,15.541-49.893
			s-31.899-24.947-49.894-15.541s-24.946,31.899-15.541,49.894C254.856,1016.448,267.534,1023.81,281.03,1023.81z"/>
		<path class="cls-1" d="M1762.984,1583.769c2.36-19.665-11.406-37.364-31.07-39.724c-19.665-2.359-37.364,11.406-39.724,30.678
			c-2.36,19.665,11.405,37.363,30.678,39.724c1.573,0.394,3.146,0.394,4.719,0.394
			C1745.286,1614.84,1760.625,1601.86,1762.984,1583.769z"/>
		<path class="cls-1" d="M861.141,1125.57c-19.665,0-35.791,15.732-35.791,35.791c0,19.665,16.125,35.791,35.791,35.791
			c19.666,0,35.791-16.126,35.791-35.791C896.538,1141.303,880.806,1125.57,861.141,1125.57z"/>
		<path class="cls-1" d="M1231.632,1902.344c0,19.665,15.733,35.791,35.791,35.791c19.665,0,35.791-16.126,35.791-35.791
			c0-19.666-16.126-35.79-35.791-35.79S1231.632,1882.678,1231.632,1902.344z"/>
		<path class="cls-1" d="M855.242,1902.344c0,19.665,15.732,35.791,35.79,35.791c19.666,0,35.791-16.126,35.791-35.791
			c0-19.666-16.125-35.79-35.791-35.79C871.368,1866.554,855.242,1882.678,855.242,1902.344z"/>
		<path class="cls-1" d="M1237.139,1125.57c-19.666,0-35.79,15.732-35.79,35.791c0,19.665,16.124,35.791,35.79,35.791
			c19.665,0,35.791-16.126,35.791-35.791C1272.93,1141.303,1257.197,1125.57,1237.139,1125.57z"/>
		<path class="cls-1" d="M986.605,1125.57c-19.666,0-35.791,15.732-35.791,35.791c0,19.665,15.732,35.791,35.791,35.791
			c19.666,0,35.791-16.126,35.791-35.791C1022.002,1141.303,1006.271,1125.57,986.605,1125.57z"/>
		<path class="cls-1" d="M730.171,1902.344c0,19.665,15.732,35.791,35.791,35.791c19.665,0,35.79-16.126,35.79-35.791
			c0-19.666-16.125-35.79-35.79-35.79C745.903,1866.554,730.171,1882.678,730.171,1902.344z"/>
		<path class="cls-1" d="M980.705,1902.344c0,19.665,16.125,35.791,35.791,35.791c19.665,0,35.79-16.126,35.79-35.791
			c0-19.666-15.732-35.79-35.79-35.79C996.831,1866.554,980.705,1882.678,980.705,1902.344z"/>
		<path class="cls-1" d="M1106.169,1902.344c0,19.665,15.732,35.791,35.791,35.791c19.664,0,35.396-16.126,35.396-35.791
			c0-19.666-15.732-35.79-35.396-35.79C1122.295,1866.554,1106.169,1882.678,1106.169,1902.344z"/>
		<path class="cls-1" d="M1112.068,1125.57c-19.665,0-35.79,15.732-35.79,35.791c0,19.665,15.731,35.791,35.79,35.791
			c19.665,0,35.79-16.126,35.79-35.791C1147.465,1141.303,1131.733,1125.57,1112.068,1125.57z"/>
		<path class="cls-1" d="M699.887,1160.968c0,19.665,16.126,35.791,35.791,35.791c19.665,0,35.79-16.126,35.79-35.791
			s-15.732-35.79-35.79-35.79C716.013,1125.57,699.887,1141.303,699.887,1160.968z"/>
		<path class="cls-1" d="M661.737,419.198c-0.394-19.666-16.913-35.397-36.577-34.61c-19.665,0.393-35.005,16.912-34.611,36.577
			c0.394,19.665,16.912,35.004,36.577,34.61C646.791,454.989,662.523,438.863,661.737,419.198z"/>
		<path class="cls-1" d="M574.816,1157.821c-1.18,19.665,13.372,36.577,33.037,38.15c0.787,0,1.573,0,2.36,0
			c18.485,0,34.218-14.159,35.397-33.037c1.18-19.666-13.372-36.577-33.038-38.15
			C592.909,1123.211,575.996,1138.156,574.816,1157.821z"/>
		<path class="cls-1" d="M537.06,431.391c-7.079-18.485-27.532-27.531-46.017-20.452c-18.485,7.08-27.532,27.531-20.452,46.017
			c5.506,14.159,18.879,22.812,33.431,22.812c4.327,0,8.654-0.787,12.586-2.36C535.093,470.328,544.139,449.876,537.06,431.391z"/>
		<path class="cls-1" d="M1519.137,1195.186c6.687-18.486-2.753-38.938-21.632-45.623l0,0
			c-18.485-6.688-38.937,2.753-45.623,21.238c-6.686,18.484,2.753,38.937,21.632,45.623c3.934,1.573,8.26,1.967,12.192,1.967
			C1500.258,1218.783,1514.024,1209.737,1519.137,1195.186z"/>
		<path class="cls-1" d="M1362.996,1125.57c-19.666,0-35.791,15.732-35.791,35.397s15.732,35.791,35.397,35.791c0,0,0,0,0.394,0
			c19.664,0,35.397-15.732,35.79-35.397C1398.394,1141.695,1382.66,1125.57,1362.996,1125.57z"/>
		<path class="cls-1" d="M1513.237,1904.703c5.112,0,9.833-1.179,14.946-3.146c18.092-8.26,25.957-29.498,17.697-47.196
			c-8.259-18.093-29.104-25.958-47.195-17.699c-18.092,8.26-25.959,29.498-17.699,47.196
			C1486.886,1896.837,1499.865,1904.703,1513.237,1904.703z"/>
		<path class="cls-1" d="M1357.096,1903.917c1.573,18.485,17.306,32.645,35.397,32.645c1.18,0,1.967,0,3.146,0
			c19.665-1.573,34.218-18.879,32.251-38.544c-1.574-19.665-18.879-34.218-38.543-32.251l0,0
			C1370.075,1866.947,1355.523,1884.252,1357.096,1903.917z"/>
		<path class="cls-1" d="M778.547,445.156c6.687-6.687,10.226-15.732,10.226-25.171c0-9.44-3.932-18.486-10.226-25.172
			c-6.686-6.686-15.732-10.619-25.172-10.619c-9.438,0-18.485,3.933-25.171,10.619s-10.619,15.732-10.619,25.172
			c0,9.438,3.933,18.484,10.619,25.171s15.732,10.619,25.171,10.619C762.815,455.383,771.861,451.843,778.547,445.156z"/>
		<path class="cls-1" d="M460.139,2004.307c28.739,0,56.279-11.972,76.635-32.33c20.355-20.355,32.33-47.896,32.33-76.635
			c0-28.735-11.975-56.276-32.33-76.632c-20.355-20.355-47.896-32.33-76.635-32.33s-56.279,11.975-76.634,32.33
			c-20.355,20.355-32.33,47.896-32.33,76.632c0,28.739,11.975,56.279,32.33,76.635C403.86,1993.529,431.4,2004.307,460.139,2004.307
			z"/>
</svg>
