<svg id="Layer_1" data-name="Layer 1" xmlns="http://www.w3.org/2000/svg" viewBox="0 0 2000 2000">
    <defs>
        <style>
            .cls-1 {
                fill: #e74a3e;
            }
            
            .cls-2 {
                fill: #181818;
            }
        </style>
    </defs>	
    <title>Business-Collection</title>
		<path class="cls-2" d="M1843.08,1968.081l124.795-124.794c16.475-16.475,16.475-42.834,0-59.309l-614.498-614.497
			l-184.102,184.102l614.497,614.498C1800.247,1984.555,1826.606,1984.555,1843.08,1968.081z"/>
		<path class="cls-1" d="M672.982,276.153c-219.111,0-397.447,178.336-397.447,397.446c0,20.593,16.887,37.479,37.479,37.479
			s37.479-16.887,37.479-37.479c0-177.924,144.563-322.487,322.488-322.487c20.593,0,37.479-16.887,37.479-37.479
			C710.461,292.628,693.575,276.153,672.982,276.153z"/>
		<path class="cls-1" d="M1379.736,1143.122c-14.415-14.415-38.303-14.415-52.718,0l-65.486,65.485l-86.903-86.902
			c106.673-119.028,171.747-276.359,171.747-448.518c0-371.087-301.895-672.981-672.982-672.981C302.307,0.206,0,302.101,0,673.188
			c0,371.088,301.895,672.982,672.982,672.982c172.157,0,329.077-65.074,448.517-171.747l86.903,86.903l-65.486,65.486
			c-7.002,7.001-11.12,16.474-11.12,26.358s4.118,19.357,11.12,26.359l584.432,584.432c23.064,23.064,53.542,35.832,86.079,35.832
			s63.015-12.768,86.079-35.832l64.662-64.662c23.064-23.064,35.832-53.542,35.832-86.079s-12.768-63.015-35.832-86.079
			L1379.736,1143.122z M74.959,673.188c0-329.901,268.533-598.435,598.435-598.435s598.435,268.534,598.435,598.435
			c0,329.901-268.533,598.436-598.435,598.436S74.959,1003.089,74.959,673.188z M1911.449,1846.993l-64.662,64.663
			c-9.061,9.061-20.593,14.003-33.36,14.003s-24.3-4.942-33.36-14.003l-558.073-558.073l131.384-131.384l558.072,558.072
			c9.062,9.062,14.004,20.594,14.004,33.361S1920.099,1838.345,1911.449,1846.993z"/>
</svg>
