<svg id="Layer_1" data-name="Layer 1" xmlns="http://www.w3.org/2000/svg" viewBox="0 0 2000 2000">
    <defs>
        <style>
            .cls-1 {
                fill: #e74a3e;
            }
            
            .cls-2 {
                fill: #181818;
            }
        </style>
    </defs>	
    <title>Business-Collection</title>
		<circle class="cls-2" cx="1000.408" cy="1853.41" r="109.432"/>
		<circle class="cls-2" cx="1726.419" cy="1853.41" r="109.432"/>
		<circle class="cls-2" cx="273.581" cy="1853.41" r="109.432"/>
		<path class="cls-1" d="M1808.493,124.541C1808.493,55.941,1752.552,0,1683.953,0H316.864c-68.6,0-124.541,55.941-124.541,124.541
			v282.156c0,33.892,13.883,64.925,35.933,87.383c-22.05,22.458-35.933,53.491-35.933,87.383v282.156
			c0,33.892,13.883,64.924,35.933,87.382c-22.05,22.459-35.933,53.492-35.933,87.383v282.156c0,68.6,55.941,124.541,124.541,124.541
			h1367.089c68.599,0,124.54-55.941,124.54-124.541v-282.156c0-33.892-13.883-64.924-35.933-87.383
			c22.05-22.458,35.933-53.491,35.933-87.382V581.462c0-33.892-13.883-64.925-35.933-87.383
			c22.05-22.458,35.933-53.491,35.933-87.383V124.541z M266.231,124.541c0-27.766,22.458-50.225,50.225-50.225h1367.089
			c27.766,0,50.633,22.458,50.633,50.225v282.156c0,27.767-22.459,50.634-50.633,50.634H316.864
			c-27.767,0-50.225-22.459-50.225-50.634V124.541H266.231z M1734.586,581.462v282.156c0,27.767-22.459,50.225-50.633,50.225
			H316.864c-27.767,0-50.225-22.458-50.225-50.225V581.462c0-27.767,22.458-50.225,50.225-50.225h1367.089
			C1711.719,531.237,1734.586,553.695,1734.586,581.462z M1734.586,1320.539c0,27.767-22.459,50.225-50.633,50.225H316.864
			c-27.767,0-50.225-22.458-50.225-50.225v-282.156c0-27.767,22.458-50.225,50.225-50.225h1367.089
			c27.766,0,50.633,22.458,50.633,50.225V1320.539z"/>
		<path class="cls-1" d="M984.075,302.572h461.413c20.416,0,37.158-16.741,37.158-37.158s-16.742-37.158-37.158-37.158H984.075
			c-20.417,0-37.158,16.742-37.158,37.158S963.658,302.572,984.075,302.572z"/>
		<circle class="cls-1" cx="607.595" cy="265.823" r="44.1"/>
		<path class="cls-1" d="M984.075,759.494h461.413c20.416,0,37.158-16.742,37.158-37.158c0-20.417-16.742-37.158-37.158-37.158
			H984.075c-20.417,0-37.158,16.741-37.158,37.158C947.325,743.16,963.658,759.494,984.075,759.494z"/>
		<path class="cls-1" d="M1445.488,1142.507H984.075c-20.417,0-37.158,16.742-37.158,37.158c0,20.417,16.741,37.158,37.158,37.158
			h461.413c20.416,0,37.158-16.741,37.158-37.158C1482.646,1159.249,1465.904,1142.507,1445.488,1142.507z"/>
		<circle class="cls-1" cx="607.595" cy="722.744" r="44.1"/>
		<circle class="cls-1" cx="607.595" cy="1179.665" r="44.1"/>
		<path class="cls-1" d="M1726.419,1706.819c-67.782,0-124.949,46.55-141.69,109.433h-442.63
			c-13.475-51.042-53.491-91.058-104.532-104.533v-115.965c0-20.417-16.741-37.158-37.158-37.158
			c-20.416,0-37.158,16.741-37.158,37.158v115.965c-51.041,13.476-91.058,53.491-104.532,104.533H414.863
			c-16.333-62.883-73.5-109.433-141.69-109.433c-80.85,0-146.591,65.741-146.591,146.591c0,80.849,65.741,146.59,146.591,146.59
			c67.782,0,124.948-46.55,141.69-109.433h443.854C875.051,1953.45,932.217,2000,1000.408,2000s124.949-46.55,141.69-109.433
			h443.038c16.334,62.883,73.5,109.433,141.69,109.433c80.85,0,146.591-65.741,146.591-146.59
			C1873.418,1772.561,1807.269,1706.819,1726.419,1706.819z M273.581,1925.684c-40.017,0-72.683-32.666-72.683-72.682
			c0-40.017,32.666-72.684,72.683-72.684s72.683,32.667,72.683,72.683C346.264,1893.018,313.189,1925.684,273.581,1925.684z
			 M1000.408,1925.684c-40.016,0-72.683-32.666-72.683-72.682c0-40.017,32.667-72.684,72.683-72.684
			c40.017,0,72.683,32.667,72.683,72.684C1073.091,1893.018,1040.425,1925.684,1000.408,1925.684z M1726.419,1925.684
			c-40.017,0-72.683-32.666-72.683-72.682c0-40.017,32.666-72.684,72.683-72.684s72.683,32.667,72.683,72.684
			C1799.102,1893.018,1766.436,1925.684,1726.419,1925.684z"/>
</svg>
