<svg id="Layer_1" data-name="Layer 1" xmlns="http://www.w3.org/2000/svg" viewBox="0 0 2000 2000">
    <defs>
        <style>
            .cls-1 {
                fill: #e74a3e;
            }
            
            .cls-2 {
                fill: #181818;
            }
        </style>
    </defs>	
    <title>Business-Collection</title>
		<path id="XMLID_698_" class="cls-2" d="M904.473,684.809H977.1c11.425,57.938,34.273,111.389,65.691,158.719l-51.41,51.41
			c-18.361,18.361-18.361,48.146,0,66.507l55.898,55.898c18.36,18.36,48.146,18.36,66.507,0l51.41-51.41
			c47.33,31.825,101.188,54.267,158.719,65.69v72.627c0,26.113,21.217,46.923,46.922,46.923h79.155
			c26.113,0,46.922-21.218,46.922-46.923v-72.627c57.939-11.424,111.389-34.273,158.719-65.69l51.41,51.41
			c18.361,18.36,48.146,18.36,66.508,0l55.898-55.898c18.36-18.36,18.36-48.146,0-66.507l-51.41-51.41
			c31.824-47.33,54.266-101.188,65.69-158.719h72.627c26.113,0,46.922-21.217,46.922-46.922v-78.748
			c0-26.113-21.217-46.922-46.922-46.922h-72.627c-11.425-57.938-34.273-111.389-65.69-158.719l51.41-51.41
			c18.36-18.361,18.36-48.146,0-66.507l-56.307-55.898c-18.361-18.361-48.146-18.361-66.507,0l-51.41,51.41
			c-47.33-31.825-101.188-54.266-158.719-65.69V92.775c0-26.113-21.218-46.922-46.923-46.922h-79.154
			c-26.113,0-46.923,21.217-46.923,46.922v72.627c-57.938,11.424-111.389,34.273-158.719,65.69l-51.002-51.41
			c-18.36-18.361-48.146-18.361-66.507,0l-55.898,55.898c-18.361,18.361-18.361,48.146,0,66.507l51.41,51.41
			c-31.825,47.33-54.267,101.188-65.69,158.719h-72.628c-26.112,0-46.922,21.217-46.922,46.922v79.155
			C857.551,664,878.359,684.809,904.473,684.809z M1410.007,398.38c110.573,0,200.337,89.765,200.337,200.337
			c0,110.573-89.764,200.337-200.337,200.337S1209.67,709.29,1209.67,598.717C1209.67,488.145,1299.434,398.38,1410.007,398.38z"/>
		<path class="cls-1" d="M1412.863,1552.662c-5.713,14.28-22.033,20.809-35.906,15.097l-92.212-38.354
			c-16.32-6.936-35.089-1.224-44.882,13.465c-41.617,62.427-94.66,115.469-157.087,157.087c-14.688,9.792-20.4,28.562-13.464,44.882
			l37.945,92.212c5.712,13.873-0.816,30.193-15.097,35.905l-100.372,42.026c-13.873,5.712-30.193-0.816-35.906-15.097
			l-38.354-92.212c-6.937-16.321-24.073-25.705-41.21-22.033c-73.442,14.688-148.11,14.688-221.961,0
			c-17.137-3.264-34.682,5.712-41.21,22.033l-38.354,92.212c-5.713,13.872-22.033,20.809-35.906,15.097l-100.372-41.618
			c-6.937-2.855-12.24-8.16-15.097-15.097c-2.855-6.937-2.855-14.28,0-21.217l38.354-92.212c6.937-16.32,1.225-35.09-13.464-44.882
			c-62.427-41.618-115.47-94.66-157.087-157.087c-9.792-14.688-28.562-20.4-44.882-13.465l-92.212,38.354
			c-14.28,5.713-30.193-0.815-35.905-15.097l-41.618-100.372c-5.712-13.872,0.816-30.193,15.097-35.905l92.212-38.354
			c16.32-6.937,25.705-24.073,22.033-41.21c-14.688-73.443-14.688-148.11,0-221.962c3.264-17.137-5.712-34.681-22.033-41.21
			l-92.212-38.354c-6.937-2.855-12.241-8.16-15.097-15.097c-2.856-6.936-2.856-14.28,0-21.217l41.618-100.372
			c2.856-6.937,8.16-12.24,15.097-15.097c6.936-2.856,14.28-2.856,21.217,0l92.212,38.354c16.321,6.937,35.089,1.225,44.882-13.464
			c41.618-62.427,94.661-115.47,157.086-157.087c14.689-9.793,20.401-28.562,13.465-44.882l-38.354-92.213
			c-2.856-6.936-2.856-14.28,0-21.217c2.856-6.936,8.16-12.24,15.097-15.097l100.372-41.617
			c13.873-5.712,30.193,0.815,35.906,15.097l38.354,92.212c7.752,18.769,29.377,27.745,48.146,19.993
			c18.769-7.753,27.745-29.378,19.993-48.146l-38.354-92.212c-21.625-51.818-80.787-76.3-132.605-55.083l-100.373,41.618
			c-24.889,10.2-44.474,29.785-55.082,55.082c-10.2,24.89-10.2,52.635,0,77.932l26.93,64.875
			c-51.411,37.945-96.701,83.235-135.054,135.054l-64.875-26.929c-24.889-10.201-52.634-10.201-77.931,0
			c-24.889,10.2-44.474,29.785-55.083,55.082L7.65,971.236c-10.201,24.89-10.201,52.635,0,77.932
			c10.2,24.889,29.785,44.474,55.082,55.082l64.875,26.93c-9.792,63.65-9.792,127.301,0,190.952l-64.875,26.929
			c-51.818,21.625-76.299,80.788-55.082,132.605l41.618,99.148c21.217,51.818,80.788,76.3,132.606,55.083l64.875-26.93
			c37.946,51.41,83.236,96.7,135.054,135.054l-26.93,64.875c-10.2,24.889-10.2,52.635,0,77.932
			c10.2,24.889,29.785,44.474,55.082,55.082l100.373,41.618c51.818,21.217,111.389-3.265,132.605-55.083l26.93-64.874
			c63.65,9.792,127.301,9.792,190.951,0l26.93,64.874c16.32,39.17,54.267,62.835,93.844,62.835c13.057,0,26.113-2.448,38.762-7.752
			l100.373-41.618c51.818-21.625,76.299-80.787,55.082-132.605l-26.93-64.875c51.41-37.945,96.701-83.235,135.055-135.054
			l64.874,26.929c51.818,21.625,111.389-3.264,132.606-55.082l41.617-100.372c10.201-24.89,10.201-52.635,0-77.932
			c-10.2-24.889-29.785-44.474-55.082-55.082l-92.212-38.354c-18.769-7.753-40.394,1.224-48.146,19.992
			c-7.752,18.77,1.224,40.394,19.993,48.146l92.212,38.354c6.937,2.856,12.24,8.16,15.097,15.097s2.856,14.28,0,21.217
			L1412.863,1552.662z"/>
		<path class="cls-1" d="M763.299,973.277c20.4,0,36.722-16.729,36.722-37.13c0-20.401-16.729-36.722-37.13-36.722c0,0,0,0-0.408,0
			c-87.315,0.816-168.919,35.09-230.121,97.108c-61.203,62.019-94.66,144.438-93.845,231.346
			c0.816,87.315,35.09,168.919,97.108,230.122c61.61,60.794,142.807,93.844,228.897,93.844c0.816,0,1.632,0,2.448,0
			c87.316-0.816,168.92-35.09,230.122-97.108s94.66-144.438,93.844-231.346c0-20.401-16.729-36.722-37.13-36.722c0,0,0,0-0.407,0
			c-20.401,0-36.722,16.729-36.722,37.13c0.408,67.322-25.297,130.974-72.627,179.119c-47.33,48.146-110.573,74.667-177.896,75.075
			c-0.815,0-1.224,0-2.039,0c-66.508,0-129.75-25.705-177.08-72.627c-48.146-47.33-74.667-110.572-75.075-177.896
			s25.297-130.974,72.627-179.12C632.733,1000.614,695.976,973.685,763.299,973.277z"/>
		<path class="cls-1" d="M1915.948,721.938c46.106,0,84.052-37.538,84.052-84.052v-78.748c0-46.105-37.537-84.051-84.052-84.051
			h-42.842c-11.017-40.802-26.929-79.972-48.146-116.285l30.602-30.602c32.641-32.642,32.641-86.092,0-118.733l-55.898-55.898
			c-15.913-15.912-37.13-24.48-59.163-24.48c-22.44,0-43.658,8.568-59.163,24.48l-30.601,30.602
			c-36.722-21.217-75.483-37.538-116.285-48.146v-43.25c0-46.106-37.538-84.051-84.052-84.051h-79.155
			c-46.106,0-84.052,37.537-84.052,84.051v43.25c-40.802,11.017-79.972,26.929-116.285,48.146l-30.602-30.602
			c-15.912-15.912-37.129-24.48-59.162-24.48c-22.441,0-43.658,8.568-59.162,24.48l-55.898,55.898
			c-32.642,32.642-32.642,86.092,0,118.733l30.601,30.602c-21.217,36.721-37.537,75.483-48.146,116.285h-43.25
			c-46.106,0-84.052,37.537-84.052,84.051v79.156c0,46.105,37.538,84.051,84.052,84.051h43.25
			c11.017,40.802,26.929,79.972,48.146,116.285l-30.601,30.602c-32.642,32.642-32.642,86.092,0,118.733l55.898,55.898
			c15.912,15.912,37.129,24.48,59.162,24.48c22.441,0,43.658-8.568,59.162-24.48l30.602-30.602
			c36.722,21.217,75.483,37.538,116.285,48.146v43.25c0,46.106,37.538,84.052,84.052,84.052h79.155
			c46.105,0,84.052-37.537,84.052-84.052v-43.657c40.802-11.017,79.972-26.93,116.285-48.146l30.601,30.602
			c15.913,15.912,37.13,24.48,59.163,24.48c22.44,0,43.658-8.568,59.163-24.48l55.898-55.898c32.641-32.642,32.641-86.092,0-118.733
			l-30.602-30.602c21.217-36.722,37.537-75.482,48.146-116.285L1915.948,721.938L1915.948,721.938z M1807.416,677.872
			c-10.201,52.227-30.602,101.188-60.387,145.662c-9.793,14.688-7.752,34.273,4.488,46.515l51.41,51.41c4.08,4.08,4.08,10.2,0,14.28
			l-55.898,55.898c-2.448,2.448-5.305,2.856-6.937,2.856c-2.04,0-4.488-0.408-6.937-2.856l-51.41-51.41
			c-12.648-12.648-32.233-14.28-46.514-4.488c-44.474,29.785-93.436,49.778-145.662,60.387
			c-17.137,3.264-29.785,18.769-29.785,36.313v72.627c0,5.305-4.488,9.793-9.793,9.793h-79.155c-5.304,0-9.792-4.488-9.792-9.793
			v-72.627c0-17.545-12.648-32.642-29.785-36.313c-52.227-10.2-101.188-30.602-145.662-60.387c-6.121-4.08-13.465-6.12-20.401-6.12
			c-9.385,0-19.177,3.672-26.113,11.017l-51.41,51.41c-2.448,2.448-5.304,2.855-6.937,2.855c-2.04,0-4.488-0.407-6.936-2.855
			l-55.898-55.898c-4.081-4.08-4.081-10.2,0-14.281l51.41-51.41c12.648-12.648,14.28-32.233,4.488-46.514
			c-29.786-44.474-49.779-93.436-60.387-145.662c-3.265-17.137-18.77-29.785-36.314-29.785h-72.627
			c-5.304,0-9.792-4.488-9.792-9.793v-79.563c0-5.304,4.488-9.792,9.792-9.792H977.1c17.545,0,32.642-12.648,36.314-29.785
			c10.2-52.227,30.601-101.188,60.387-145.663c9.792-14.688,7.752-34.273-4.488-46.514l-51.411-51.411
			c-2.448-2.448-2.855-5.304-2.855-6.936c0-2.04,0.407-4.488,2.855-6.936l55.491-56.307c2.447-2.448,5.304-2.856,6.936-2.856
			c2.041,0,4.488,0.408,6.937,2.856l51.41,51.41c12.649,12.648,32.233,14.281,46.515,4.488
			c44.474-29.785,93.436-49.778,145.662-60.387c17.137-3.264,29.785-18.769,29.785-36.313V92.775c0-5.304,4.488-9.792,9.792-9.792
			h79.155c5.305,0,9.793,4.488,9.793,9.792v72.627c0,17.544,12.648,32.641,29.785,36.313c52.227,10.2,101.188,30.602,145.662,60.387
			c14.688,9.792,34.273,7.752,46.514-4.488l51.41-51.41c2.448-2.448,5.305-2.856,6.937-2.856c2.04,0,4.488,0.408,6.937,2.856
			l55.898,55.898c4.08,4.08,4.08,10.2,0,14.28l-51.41,51.41c-12.648,12.648-14.28,32.233-4.488,46.514
			c29.785,44.474,49.778,93.436,60.387,145.663c3.264,17.137,18.769,29.785,36.313,29.785h72.627c5.304,0,9.792,4.488,9.792,9.792
			v79.155c0,5.305-4.488,9.793-9.792,9.793h-72.627C1825.776,648.087,1810.68,660.327,1807.416,677.872z"/>
		<path class="cls-1" d="M1410.414,361.25c-130.973,0-237.058,106.493-237.058,237.058c0,130.974,106.493,237.059,237.058,237.059
			c130.975,0,237.059-106.493,237.059-237.059S1540.98,361.25,1410.414,361.25z M1410.414,761.516
			c-90.172,0-163.207-73.035-163.207-163.207s73.035-163.207,163.207-163.207s163.207,73.035,163.207,163.207
			S1500.179,761.516,1410.414,761.516z"/>
</svg>
