<svg id="Layer_1" data-name="Layer 1" xmlns="http://www.w3.org/2000/svg" viewBox="0 0 2000 2000">
    <defs>
        <style>
            .cls-1 {
                fill: #e74a3e;
            }
            
            .cls-2 {
                fill: #181818;
            }
        </style>
    </defs>	
    <title>Business-Collection</title>
		<path class="cls-2" d="M1552.859,1103.767l-70.795-40.923c-14.732-8.594-23.326-24.962-22.508-41.74
			c1.228-24.554,0.409-49.106-2.046-73.251c-2.046-16.778,5.319-33.146,19.643-42.968l69.567-47.061
			c17.188-11.459,23.326-33.557,14.732-52.381l-22.917-49.925l-22.916-49.925c-8.594-18.416-29.055-28.236-49.106-22.917
			l-78.571,22.098c-16.778,4.502-34.374-0.818-46.241-13.504c-16.369-18.006-33.966-34.784-53.199-49.925
			c-13.096-10.641-20.053-27.418-16.778-44.196l15.55-82.663c3.684-20.461-7.774-40.513-26.599-47.47l-51.563-19.233l-51.562-19.233
			c-19.643-7.366-40.923,0.409-51.563,18.415l-40.513,70.386c-8.594,15.142-24.963,23.326-42.56,22.508
			c-25.78-1.637-50.743-0.818-75.706,2.455c-17.187,2.046-33.965-5.319-43.377-19.233l-46.651-68.749
			c-11.459-17.188-33.557-23.326-52.381-14.732l-49.925,22.917l-49.925,22.916c-18.416,8.594-28.236,29.055-22.917,49.106
			l21.279,80.208c4.502,16.369-0.818,33.965-13.504,45.424c-18.006,16.369-34.784,34.374-50.335,54.018
			c-10.64,13.504-27.418,20.052-44.195,16.777l-81.436-15.55c-19.643-3.684-39.694,7.365-47.879,25.78l-19.233,51.563
			l-19.233,51.562c-7.366,19.644,0.409,40.923,18.415,51.563l71.614,41.331c14.731,8.594,23.325,24.554,22.507,41.741
			c-1.228,24.962-0.409,49.516,2.455,73.66c2.046,16.777-5.319,33.556-19.233,42.968l-67.931,45.833
			c-17.188,11.458-23.325,33.557-14.731,52.381l22.916,49.925l22.916,49.925c8.594,18.415,29.055,28.236,49.107,22.917
			l80.207-21.279c16.369-4.502,33.966,0.818,45.424,13.504c16.369,18.006,34.375,34.784,54.018,50.334
			c13.504,10.64,20.052,27.418,16.777,44.196l-15.55,81.435c-3.683,20.462,7.775,40.514,26.6,47.471l51.562,19.233l51.563,19.233
			c19.643,7.365,40.922-0.409,51.562-18.415l41.332-71.614c8.593-14.731,24.553-23.325,41.74-22.507
			c23.325,0.818,47.061,0,69.978-2.456c16.777-2.046,33.556,5.32,43.377,19.644l47.061,69.567
			c11.458,17.188,33.557,23.326,52.381,14.732l49.925-22.917l49.925-22.916c18.416-8.594,28.236-29.056,22.917-49.107l-21.28-78.979
			c-4.501-16.778,0.819-33.965,13.914-45.833c18.006-16.369,34.784-33.966,50.334-53.198c10.641-13.096,27.418-20.053,44.196-16.778
			l82.663,15.55c20.461,3.684,40.513-7.775,47.47-26.6l19.233-51.562l19.233-51.563
			C1578.641,1135.686,1570.456,1113.997,1552.859,1103.767z M1188.651,1065.709c-37.239,104.352-151.412,158.778-255.764,121.539
			s-158.778-151.412-121.539-255.764s151.412-158.778,255.764-121.539C1171.055,847.184,1225.481,961.767,1188.651,1065.709z"/>
		<path class="cls-1" d="M988.133,0.913C721.319,4.187,471.285,110.993,284.68,301.691
			C151.273,438.78,60.017,609.426,21.141,795.622C-16.508,976.907-3.822,1164.74,58.789,1338.66
			c5.32,15.141,19.643,24.553,34.784,24.553c4.092,0,8.594-0.818,12.686-2.046c19.233-6.957,29.464-28.236,22.507-47.47
			C8.045,977.316,88.253,609.426,337.879,353.662C510.57,176.878,741.781,78.255,988.951,75.391
			c247.17-2.864,480.427,90.848,657.211,263.54l5.729,5.32l-111.717,1.228c-20.461,0.409-36.83,17.188-36.83,37.648
			c0.409,20.461,16.777,36.83,37.239,36.83h0.409l201.337-2.455c20.462-0.409,36.83-17.188,36.83-37.648l-2.455-201.338
			c-0.409-20.461-16.778-36.83-37.239-36.83h-0.409c-20.461,0.409-36.83,17.187-36.83,37.648l1.228,111.717l-5.729-5.319
			C1507.436,99.126,1254.945-1.952,988.133,0.913z"/>
		<path class="cls-1" d="M220.432,1621.023l2.456,201.337c0.409,20.462,16.778,36.83,37.239,36.83h0.41
			c20.461-0.409,36.83-17.188,36.83-37.648l-1.228-111.718l5.729,5.32c193.971,189.879,446.461,284.409,698.542,284
			c259.856,0,519.303-100.26,714.911-300.369c133.816-136.68,224.663-307.326,263.539-493.932
			c37.648-181.285,24.963-369.118-37.648-543.037c-6.957-19.233-28.236-29.464-47.47-22.508
			c-19.233,6.957-29.464,28.236-22.507,47.47c120.721,336.381,40.513,704.271-209.113,960.036
			c-356.432,365.025-943.666,371.573-1308.283,15.141l-5.729-5.319l111.717-1.228c20.462-0.41,36.83-17.188,36.83-37.648
			c-0.409-20.462-16.777-36.83-37.239-36.83h-0.409l-201.337,2.455C236.392,1583.784,220.022,1600.563,220.432,1621.023z"/>
		<path class="cls-1" d="M610.83,690.861c-2.047,2.455-5.32,3.683-8.185,3.273l-81.436-15.959
			c-4.911-0.818-9.412-1.229-14.323-1.229c-32.328,0-61.383,19.234-74.068,48.698c-0.409,0.409-0.409,1.228-0.818,1.637
			l-38.467,103.124c-13.505,36.421,0.818,76.934,34.783,96.576l71.614,41.331c2.455,1.638,4.092,4.502,4.092,7.775
			c-1.228,26.6-0.409,53.608,2.864,79.799c0.41,3.273-0.818,6.548-3.273,8.185l-69.158,46.651
			c-31.92,21.688-43.378,63.02-27.418,98.213l45.424,99.441c12.686,28.236,40.922,46.241,72.023,46.241
			c6.956,0,13.504-0.818,20.461-2.864l80.207-21.279c2.865-0.818,6.139,0.409,8.185,2.864
			c17.597,19.643,37.648,37.648,58.519,54.427c2.455,2.046,3.684,5.319,3.274,8.185l-15.551,81.435
			c-7.366,38.058,13.913,75.706,50.334,89.211l103.124,38.467c9.003,3.273,18.415,4.911,27.827,4.911
			c28.236,0,54.427-15.142,68.75-39.695l41.331-71.613c1.637-2.456,4.502-4.093,8.185-4.093l0,0c24.962,1.228,50.743,0,75.706-2.455
			c3.273-0.409,6.548,0.818,8.185,3.273l47.061,69.568c14.731,21.688,39.285,34.783,65.476,34.783
			c11.458,0,22.507-2.455,32.737-6.956l99.441-45.424c35.192-15.96,53.608-54.836,43.378-92.484l-21.28-78.98
			c-0.818-2.864,0.409-6.138,2.864-8.594c20.053-18.006,38.059-37.238,54.018-57.7c2.047-2.455,5.32-4.092,8.185-3.273
			l82.663,15.551c4.91,0.818,9.821,1.228,14.732,1.228c33.146,0,63.02-20.871,74.479-51.563l38.467-103.124
			c13.504-36.421-0.818-76.934-34.784-96.576l-70.796-40.923c-2.455-1.637-4.092-4.501-4.092-7.774
			c1.228-26.19,0.409-53.199-2.455-79.39c-0.409-3.273,0.818-6.138,3.273-8.185l69.568-47.061
			c31.919-21.688,43.377-63.02,27.418-98.213l-45.424-99.441c-12.687-28.236-40.923-46.242-72.023-46.242
			c-6.957,0-13.504,0.818-20.87,2.865l-78.571,22.098c-2.864,0.818-6.139-0.409-8.594-2.864
			c-18.006-19.643-37.239-38.058-57.291-54.018c-2.864-2.046-4.092-5.32-3.273-8.185l15.551-82.663
			c7.365-38.058-13.914-75.706-50.335-89.21l-103.124-38.467c-9.003-3.274-18.415-4.911-27.827-4.911
			c-28.236,0-54.427,15.142-68.749,39.694l-40.922,70.387c-1.637,2.455-4.093,4.092-8.185,4.092l0,0
			c-27.418-1.637-55.245-0.818-82.254,2.456c-3.273,0.409-6.548-0.818-8.594-3.274l-46.651-68.749
			c-14.732-21.688-39.285-34.784-65.476-34.784c-11.458,0-22.507,2.456-32.737,6.957l-99.441,45.424
			c-35.193,15.96-53.608,54.836-43.378,92.484l21.28,80.207c0.818,2.864-0.41,6.139-2.865,8.185
			C645.613,649.939,627.198,669.582,610.83,690.861z M668.939,736.694c13.913-18.006,29.464-34.784,46.242-49.517
			c22.916-20.87,32.328-52.38,24.553-82.253l-21.279-80.208c-0.818-2.455,0.409-4.91,2.455-5.729l99.441-45.424
			c0.818-0.409,1.228-0.409,2.046-0.409s2.864,0,4.093,2.046l46.65,68.749c17.188,25.372,47.471,39.285,78.571,35.603
			c22.916-2.864,46.242-3.683,69.158-2.046c31.511,2.046,61.384-14.323,76.524-40.923l40.514-70.386
			c1.228-2.455,3.683-3.274,6.547-2.455l103.125,38.467c2.455,0.818,3.683,3.683,3.273,5.729l-15.551,82.663
			c-5.729,29.873,5.729,60.565,29.873,80.208c17.188,13.504,33.557,29.055,48.697,45.833c15.96,17.596,38.059,27.418,61.384,27.418
			c7.366,0,14.731-0.819,22.098-2.865l78.162-21.688c2.046-0.409,4.501,0,6.138,2.455l45.424,99.441c0.818,2.046,0,4.91-1.637,6.138
			l-69.567,47.061c-25.372,17.188-38.876,47.061-35.603,77.753c2.455,22.507,3.273,45.015,2.046,67.521
			c-1.637,31.101,13.913,60.564,40.923,76.115l70.795,40.922c2.455,1.228,3.273,3.684,2.455,6.548l-38.467,103.124
			c-0.818,2.046-3.683,3.683-5.729,3.273l-82.663-15.55c-4.911-0.818-10.231-1.637-15.142-1.637
			c-25.372,0-48.697,11.458-64.657,31.51c-13.504,17.188-29.055,33.557-46.242,49.106c-23.325,21.28-32.737,52.79-24.553,82.663
			l21.279,78.98c0.818,2.455-0.409,4.91-2.455,5.729l-99.441,45.424c-0.818,0.409-1.228,0.409-2.046,0.409s-2.865,0-4.092-2.046
			l-47.061-69.568c-17.188-24.962-47.061-39.285-78.162-35.602c-21.279,2.455-42.969,3.273-64.248,2.046
			c-31.101-1.228-60.155,14.731-75.706,41.331l-41.331,71.614c-1.228,2.455-3.684,3.273-6.548,2.455l-103.124-38.467
			c-2.455-0.818-3.683-3.683-3.273-5.729l15.551-81.435c5.729-30.282-5.729-60.975-30.283-80.617
			c-18.006-13.913-34.374-29.464-49.516-46.242c-15.551-17.188-38.058-27.009-61.383-27.009c-6.957,0-14.323,0.818-21.28,2.865
			l-80.207,21.279c-2.046,0.409-4.502,0-6.139-2.455l-45.424-99.441c-0.818-2.046,0-4.91,1.637-6.138l68.75-46.651
			c25.371-17.188,39.285-47.47,35.603-78.162c-2.456-22.098-3.274-45.014-2.456-67.521c1.228-31.101-14.322-60.155-40.922-75.297
			l-71.614-41.331c-2.455-1.228-3.273-3.684-2.455-6.548l38.058-101.896c1.228-2.046,3.683-3.683,5.729-3.683
			c0.409,0,0.409,0,0.409,0l81.435,15.55c4.911,0.819,10.23,1.638,15.551,1.638C629.245,768.204,652.979,756.746,668.939,736.694z"
			/>
		<path class="cls-1" d="M920.201,1222.441c25.781,9.002,52.381,13.913,79.39,13.913c100.26,0,190.288-63.43,223.845-157.96
			c43.787-123.176-20.871-259.447-144.047-303.233c-25.78-9.003-52.38-13.914-79.389-13.914c-100.26,0-190.288,63.43-223.845,157.96
			C732.369,1042.792,797.025,1178.654,920.201,1222.441z M846.133,944.17c22.916-65.066,84.709-108.444,153.867-108.444
			c18.415,0,36.83,3.274,54.836,9.412c84.709,30.283,129.314,123.585,99.031,208.294c-22.916,65.066-84.709,108.444-153.867,108.444
			c-18.415,0-36.83-3.273-54.836-9.412C860.455,1122.591,815.85,1028.879,846.133,944.17z"/>
</svg>
