<svg id="Layer_1" data-name="Layer 1" xmlns="http://www.w3.org/2000/svg" viewBox="0 0 2000 2000">
    <defs>
        <style>
            .cls-1 {
                fill: #e74a3e;
            }
            
            .cls-2 {
                fill: #181818;
            }
        </style>
    </defs>	
    <title>Business-Collection</title>
		<path id="XMLID_611_" class="cls-2" d="M1599.734,1136.693l-80.156-33.125c13.905-69.113,13.496-139.045,0-206.114
				l80.564-33.125c28.627-11.86,42.532-44.985,30.672-73.612l-36.396-87.517c-11.859-28.627-44.985-42.531-73.612-30.672
				l-80.564,33.126c-38.032-56.846-87.107-106.738-145.589-145.998l33.126-80.155c11.859-28.627-1.636-61.752-30.263-73.612
				l-87.517-36.396c-28.627-11.86-61.753,1.636-73.612,30.263l-33.125,80.155c-69.114-13.904-139.045-13.496-206.114,0
				l-33.125-80.564c-11.86-28.627-44.985-42.531-73.612-30.672l-87.517,36.397c-28.627,11.859-42.531,44.985-30.672,73.612
				l33.126,80.564c-56.846,38.032-106.738,87.107-145.998,145.588l-80.155-33.125c-28.627-11.86-61.752,1.636-73.612,30.263
				l-36.396,87.517c-11.86,28.627,1.636,61.752,30.263,73.611l80.155,33.126c-13.904,69.113-13.496,139.045,0,206.114
				l-80.564,33.125c-28.627,11.859-42.531,44.985-30.672,73.612l36.397,87.517c11.859,28.627,44.985,42.531,73.612,30.672
				l80.564-33.126c38.032,56.845,87.107,106.737,145.588,145.997l-33.125,80.156c-11.86,28.627,1.635,61.752,30.262,73.611
				l87.518,36.397c28.627,11.859,61.752-1.636,73.611-30.263l33.126-80.155c69.113,13.904,139.045,13.495,206.113,0l33.126,80.564
				c11.859,28.627,44.985,42.531,73.612,30.672l87.517-36.397c28.627-11.859,42.531-44.985,30.672-73.612l-33.126-80.564
				c56.845-38.032,106.737-87.107,145.997-145.588l80.156,33.125c28.627,11.86,61.752-1.636,73.611-30.263l36.397-87.517
				C1642.266,1181.27,1628.361,1148.554,1599.734,1136.693z M903.282,1233.207c-128.821-53.164-189.756-200.797-136.592-329.618
				s200.798-189.756,329.619-136.592s189.755,200.798,136.591,329.619S1032.104,1286.371,903.282,1233.207z"/>
		<path class="cls-1" d="M344.647,344.955c361.108-361.108,948.778-361.108,1310.296,0l5.725,5.725h-112.053
			c-20.448,0-37.216,16.768-37.216,37.215s16.768,37.214,37.216,37.214h201.615c20.447,0,37.215-16.767,37.215-37.214V186.279
			c0-20.448-16.768-37.215-37.215-37.215c-20.448,0-37.216,16.767-37.216,37.215v112.054l-5.726-5.725
			c-390.144-390.145-1024.844-390.145-1414.988,0c-14.313,14.313-14.313,38.033,0,52.346
			C306.615,359.677,330.334,359.677,344.647,344.955z"/>
		<path class="cls-1" d="M249.77,1851.14c20.448,0,37.215-16.767,37.215-37.215v-112.054l5.316,5.726
			C487.373,1902.668,743.38,2000,999.796,2000c256.006,0,512.422-97.74,707.493-292.403c14.314-14.313,14.314-38.033,0-52.347
			c-14.313-14.313-38.032-14.313-52.346,0c-361.108,361.108-948.778,361.108-1310.295,0l-5.726-5.726h112.054
			c20.447,0,37.215-16.767,37.215-37.215s-16.768-37.215-37.215-37.215H249.77c-20.448,0-37.215,16.767-37.215,37.215v201.615
			C212.555,1834.373,229.322,1851.14,249.77,1851.14z"/>
		<path class="cls-1" d="M1664.35,847.562c9.406-22.901,9.406-48.257,0-71.567l-36.397-87.517
			c-14.313-35.17-48.257-57.663-86.29-57.663c-12.269,0-24.128,2.454-35.579,6.953l-53.164,22.083
			c-32.308-43.35-70.341-80.974-113.281-113.28l22.084-53.165c19.63-47.438-2.862-102.239-50.302-121.869l-87.517-36.397
			c-11.45-4.908-23.311-6.952-35.579-6.952c-38.033,0-71.567,22.492-86.29,57.663l-22.083,53.165
			c-53.164-7.771-107.146-7.771-160.311,0l-22.084-53.165c-14.313-35.17-48.257-57.663-86.29-57.663
			c-12.269,0-24.128,2.454-35.579,6.952l-87.517,36.397c-22.901,9.406-40.896,27.4-50.71,50.71c-9.406,22.901-9.406,48.257,0,71.567
			l22.083,53.164c-43.35,32.308-80.974,70.341-113.28,113.281l-53.165-22.084c-11.45-4.907-23.311-6.952-35.579-6.952
			c-38.033,0-71.567,22.493-86.289,57.663l-36.397,87.517c-19.63,47.438,2.862,102.239,50.71,121.869l53.165,22.083
			c-7.771,53.165-7.771,107.146,0,160.312l-53.165,22.083c-47.438,19.63-70.34,74.431-50.71,121.869l36.397,87.517
			c14.313,35.17,48.256,57.663,86.289,57.663c12.269,0,24.129-2.454,35.579-6.953l53.165-22.083
			c32.307,43.35,70.34,80.974,113.28,113.281l-22.083,53.164c-19.631,47.438,2.862,102.239,50.301,121.868l87.517,36.397
			c11.451,4.907,23.311,6.952,35.579,6.952c38.033,0,71.567-22.492,86.29-57.662l22.084-53.165
			c53.164,7.771,107.146,7.771,160.311,0l22.084,53.165c14.313,35.17,48.257,57.662,86.289,57.662
			c12.269,0,24.129-2.453,35.579-6.952l87.518-36.397c47.438-19.629,70.34-74.43,50.71-121.868l-22.083-53.164
			c43.349-32.308,80.973-70.341,113.28-113.281l53.165,22.083c11.45,4.908,23.311,6.953,35.578,6.953l0,0
			c38.033,0,71.568-22.493,86.29-57.663l36.397-87.517c9.406-22.901,9.406-48.257,0-71.567c-9.406-22.901-27.4-40.896-50.711-50.711
			l-53.164-22.083c7.77-53.164,7.77-107.146,0-160.311l53.164-22.084C1636.949,888.457,1654.943,870.463,1664.35,847.562z
			 M1596.054,819.344c-2.045,4.907-5.726,8.588-10.224,10.224l-80.564,33.126c-16.358,6.952-25.765,24.128-22.084,41.305
			c12.678,63.797,12.678,128.003,0,191.8c-3.271,17.177,5.726,34.762,22.084,41.305l80.155,33.126
			c4.907,2.045,8.588,5.725,10.224,10.224c2.045,4.907,2.045,9.814,0,14.723l-36.396,87.517
			c-4.09,9.405-15.541,14.313-24.947,10.224l-80.155-33.126c-16.358-6.952-35.17-1.227-44.985,13.496
			c-35.988,53.982-81.382,99.376-135.364,135.364c-14.723,9.815-20.447,28.627-13.495,44.985l33.125,80.564
			c4.09,9.814-0.817,21.266-10.224,24.946l-87.517,36.397c-9.814,4.089-21.266-0.818-24.946-10.225l-33.126-80.564
			c-5.725-13.904-19.629-22.901-34.352-22.901c-2.454,0-4.908,0.409-7.361,0.818c-62.979,12.678-128.821,12.678-191.801,0
			c-17.176-3.272-34.761,5.726-41.305,22.083l-33.125,80.156c-4.09,9.405-15.541,14.313-24.946,10.224l-87.517-36.397
			c-9.815-4.09-14.313-15.131-10.225-24.946l33.126-80.155c6.952-16.358,1.227-35.17-13.495-44.985
			c-53.982-35.988-99.377-81.382-135.365-135.773c-9.814-14.723-28.627-20.448-44.984-13.495l-80.564,33.125
			c-9.815,4.09-21.266-0.818-24.946-10.224l-36.397-87.517c-4.09-9.815,0.818-21.266,10.224-24.946l80.564-33.126
			c16.358-6.952,25.765-24.128,22.084-41.305c-12.678-63.797-12.678-128.003,0-191.8c3.271-17.177-5.726-34.762-22.084-41.305
			l-80.155-33.126c-9.814-4.089-14.313-15.131-10.224-24.946l36.396-87.517c4.09-9.405,15.541-14.313,24.946-10.224l80.156,33.126
			c16.357,6.952,35.17,1.227,44.984-13.496c35.988-53.982,81.383-99.376,135.365-135.364c14.722-9.815,20.447-28.627,13.495-44.985
			l-33.126-80.564c-2.044-4.907-2.044-9.814,0-14.723c2.045-4.907,5.726-8.588,10.225-10.224l87.517-36.397
			c9.814-4.089,21.266,0.818,24.946,10.225l33.125,80.564c6.953,16.357,24.129,25.764,41.305,22.083
			c62.979-12.678,128.821-12.678,191.801,0c17.176,3.272,34.762-5.726,41.305-22.083l33.125-80.155
			c4.09-9.406,15.541-14.313,24.947-10.225l87.516,36.397c9.815,4.09,14.313,15.131,10.225,24.946l-33.126,80.155
			c-6.952,16.358-1.227,35.17,13.496,44.985c53.981,35.988,99.376,81.382,135.364,135.773c9.814,14.723,28.627,20.447,44.985,13.495
			l80.563-33.125c9.815-4.09,21.267,0.817,24.947,10.224l36.396,87.517C1598.099,809.12,1598.099,814.437,1596.054,819.344z"/>
		<path class="cls-1" d="M1110.623,733.054c-35.58-14.723-72.795-22.083-110.827-22.083c-117.371,0-222.473,69.931-267.458,178.713
			c-29.444,71.567-29.444,150.088,0,221.246c29.445,71.567,85.063,127.186,156.631,156.63
			c35.579,14.723,72.794,22.083,110.827,22.083c117.37,0,222.472-69.931,267.457-178.713c29.445-71.567,29.445-150.087,0-221.246
			C1237.399,818.117,1181.781,762.499,1110.623,733.054z M1198.548,1082.303c-33.534,80.564-111.645,132.91-198.752,132.91
			c-28.218,0-56.027-5.725-82.2-16.358c-53.165-22.083-94.469-63.388-116.553-116.552c-22.084-53.165-22.084-111.646,0-164.81
			c33.534-80.564,111.645-132.911,198.753-132.911c28.218,0,56.026,5.726,82.2,16.358c53.164,22.084,94.469,63.389,116.552,116.553
			C1220.632,971.066,1220.632,1029.547,1198.548,1082.303z"/>
</svg>
