<svg id="Layer_1" data-name="Layer 1" xmlns="http://www.w3.org/2000/svg" viewBox="0 0 2000 2000">
    <defs>
        <style>
            .cls-1 {
                fill: #e74a3e;
            }
            
            .cls-2 {
                fill: #181818;
            }
        </style>
    </defs>	
    <title>Business-Collection</title>
		<path id="XMLID_1866_" class="cls-2" d="M1962.805,1421.238v-101.369c0-21.255-9.402-41.692-26.16-55.181
			c-91.56-75.21-190.067-125.077-210.505-134.887c-2.452-1.227-3.679-3.27-3.679-6.131V981.018
			c17.984-11.854,29.838-32.291,29.838-55.59V777.462c0-73.575-59.677-133.252-133.251-133.252h-15.941h-15.94
			c-73.575,0-133.252,59.678-133.252,133.252v147.967c0,23.298,11.854,43.327,29.838,55.589v142.653
			c0,2.452-1.226,4.905-3.678,6.131c-20.029,9.81-118.946,59.677-210.506,134.887c-16.35,13.488-26.159,33.926-26.159,55.181
			v101.369"/>
		<path class="cls-1" d="M421.827,448.012C569.385,297.184,766.81,212.573,977.724,210.121
			c208.869-2.453,406.703,76.027,556.714,220.723l-83.385,0.818c-20.438,0.408-36.787,17.167-36.787,37.604
			c0.408,20.438,16.758,36.787,37.195,36.787h0.409l172.899-2.044c20.438-0.408,36.788-17.167,36.788-37.604l-2.044-172.9
			c-0.408-20.438-17.168-36.378-37.605-36.787c-20.437,0.409-36.787,17.167-36.787,37.604l0.818,83.793
			c-163.908-158.594-380.135-244.431-609.033-241.979c-230.942,2.453-446.762,94.83-607.808,259.963
			c-14.306,14.715-13.897,38.014,0.409,52.319C383.813,463.135,407.521,462.727,421.827,448.012z"/>
		<path class="cls-1" d="M387.901,1705.727l-0.817-83.793c162.272,156.55,374.412,241.979,599.632,241.979c3.27,0,6.948,0,10.219,0
			c230.942-2.453,446.761-94.83,607.807-259.964c14.306-14.715,13.897-38.013-0.409-52.319
			c-14.715-14.307-38.013-13.897-52.318,0.409c-147.559,150.827-344.983,235.438-555.896,237.891
			c-209.279,2.452-406.704-76.027-556.714-220.724l83.384-0.817c20.438-0.409,36.788-17.167,36.788-37.604
			c-0.409-20.438-16.759-36.787-37.196-36.787h-0.408l-172.9,2.043c-9.811,0-19.211,4.088-26.16,11.036
			c-6.948,6.949-10.627,16.351-10.627,26.16l2.043,172.9c0.409,20.437,16.759,36.787,37.196,36.787h0.409
			C371.96,1742.923,388.31,1726.164,387.901,1705.727z"/>
		<path class="cls-1" d="M313.101,981.018c0-12.262-6.132-24.116-16.35-30.656c-8.175-5.722-13.08-14.715-13.08-24.524V777.87
			c0-53.137,42.918-96.056,96.056-96.056h31.882c53.138,0,96.056,42.919,96.056,96.056v147.967c0,9.81-4.905,19.211-13.08,24.524
			c-10.219,6.949-16.35,18.395-16.35,30.656v142.653c0,16.35,9.401,31.882,24.524,39.239
			c18.394,8.992,114.449,57.634,203.147,130.391c7.767,6.54,12.672,16.35,12.672,26.568v101.369
			c0,20.438,16.758,37.196,37.195,37.196s37.196-16.759,37.196-37.196v-101.369c0-32.699-14.306-63.355-39.648-83.793
			c-78.479-64.582-162.682-111.18-200.694-130.799V998.594c18.802-19.211,29.838-44.962,29.838-72.757V777.87
			c0-94.012-76.436-170.038-170.039-170.038h-31.882c-94.012,0-170.039,76.436-170.039,170.038v147.967
			c0,27.386,11.036,53.546,29.839,72.757v106.684c-37.605,19.619-121.807,66.217-200.695,130.799
			C14.306,1256.922,0,1287.17,0,1319.869v101.369c0,20.438,16.759,37.196,37.196,37.196s37.196-16.759,37.196-37.196v-101.369
			c0-10.627,4.497-20.028,12.671-26.568c88.698-72.757,184.753-121.398,203.147-130.391c14.715-7.357,24.524-22.48,24.524-39.239
			V981.018H313.101L313.101,981.018z"/>
		<path class="cls-1" d="M1962.805,1458.435c20.437,0,37.195-16.759,37.195-37.196v-101.369c0-32.699-14.307-63.355-39.648-83.793
			c-78.479-64.582-162.682-111.18-200.695-130.799V998.594c18.803-19.211,29.839-44.962,29.839-72.757V777.87
			c0-94.012-76.436-170.038-170.039-170.038h-31.882c-94.012,0-170.039,76.436-170.039,170.038v147.967
			c0,27.386,11.036,53.546,29.839,72.757v106.684c-37.604,19.619-121.807,66.217-200.695,130.799
			c-25.343,20.846-39.648,51.094-39.648,83.793v101.369c0,20.438,16.759,37.196,37.196,37.196s37.195-16.759,37.195-37.196v-101.369
			c0-10.627,4.497-20.028,12.672-26.568c88.698-72.757,184.754-121.398,203.147-130.391c14.715-7.357,24.524-22.48,24.524-39.239
			V981.018c0-12.262-6.131-24.116-16.35-30.656c-8.175-5.722-13.08-14.715-13.08-24.524V777.87
			c0-53.137,42.918-96.056,96.056-96.056h31.882c53.138,0,96.056,42.919,96.056,96.056v147.967c0,9.81-4.905,19.211-13.079,24.524
			c-10.219,6.949-16.351,18.395-16.351,30.656v142.653c0,16.35,9.401,31.882,24.524,39.239
			c18.395,8.992,114.449,57.634,203.148,130.391c7.766,6.54,12.671,16.35,12.671,26.568v101.369
			C1926.017,1441.676,1942.367,1458.435,1962.805,1458.435z"/>
</svg>
