<svg id="Layer_1" data-name="Layer 1" xmlns="http://www.w3.org/2000/svg" viewBox="0 0 2000 2000">
    <defs>
        <style>
            .cls-1 {
                fill: #e74a3e;
            }
            
            .cls-2 {
                fill: #181818;
            }
        </style>
    </defs>	
    <title>Business-Collection</title>
		<path id="XMLID_455_" class="cls-2" d="M1894.974,1870.862H1051.9c-37.598,0-67.838-30.241-67.838-67.839V991.418h978.34v811.606
			C1962.812,1840.213,1932.162,1870.862,1894.974,1870.862z"/>
		<path class="cls-1" d="M257.049,1907.642h565.59c20.434,0,37.188-16.755,37.188-37.188c0-20.433-16.755-37.188-37.188-37.188
			h-565.59c-100.94,0-182.672-82.141-182.672-182.672V478.545h252.554v156.519c0,20.433,16.756,37.188,37.188,37.188
			c20.434,0,37.188-16.756,37.188-37.188V478.545h495.301v156.519c0,20.433,16.755,37.188,37.188,37.188
			c20.433,0,37.188-16.756,37.188-37.188V478.545h252.555v83.367c0,20.434,16.755,37.188,37.188,37.188
			c20.433,0,37.188-16.755,37.188-37.188V441.356c0-20.433-16.756-37.188-37.188-37.188H970.984
			C966.081,230.895,823.866,91.949,649.367,91.949c-174.5,0-316.715,139.354-321.619,312.219H37.188
			C16.755,404.168,0,420.924,0,441.356v1209.236C0.409,1792.398,115.652,1907.642,257.049,1907.642z M648.549,166.326
			c133.225,0,242.338,105.844,247.65,238.251H401.308C406.212,272.17,515.325,166.326,648.549,166.326z"/>
		<path class="cls-1" d="M1210.87,904.781v49.857H984.063c-20.434,0-37.188,16.755-37.188,37.188v742.542
			c0,95.628,77.646,173.683,173.682,173.683h705.763c95.627,0,173.682-77.646,173.682-173.683v-742.95
			c0-20.434-16.756-37.188-37.188-37.188h-226.809v-49.856c0-144.667-117.694-262.362-262.362-262.362
			C1328.975,642.011,1210.87,760.114,1210.87,904.781z M1925.623,1028.606v705.762c0,54.761-44.544,99.306-99.305,99.306h-705.763
			c-54.761,0-99.306-44.545-99.306-99.306v-705.762h189.621v104.209c0,20.434,16.755,37.188,37.188,37.188
			c20.434,0,37.188-16.755,37.188-37.188v-104.209h376.788v104.209c0,20.434,16.756,37.188,37.188,37.188
			s37.188-16.755,37.188-37.188v-104.209H1925.623L1925.623,1028.606z M1473.232,716.388c103.801,0,188.395,84.593,188.395,188.394
			v49.857h-376.788v-49.857C1285.247,800.572,1369.432,716.388,1473.232,716.388z"/>
</svg>
