<svg id="Layer_1" data-name="Layer 1" xmlns="http://www.w3.org/2000/svg" viewBox="0 0 2000 2000">
    <defs>
        <style>
            .cls-1 {
                fill: #e74a3e;
            }
            
            .cls-2 {
                fill: #181818;
            }
        </style>
    </defs>	
    <title>Business-Collection</title>
		<path class="cls-2" d="M428.164,1686.203h1132.683v195.359c0,35.409-28.49,63.899-63.899,63.899H492.063
			c-35.409,0-63.899-28.49-63.899-63.899V1686.203z"/>
		<path class="cls-2" d="M1566.138,295.482H433.455V119.251c0-45.584,37.037-82.621,82.621-82.621h967.44
			c45.584,0,82.621,37.037,82.621,82.621V295.482L1566.138,295.482z"/>
		<path class="cls-1" d="M922.263,1860.806h164.021c20.35,0,37.037-16.687,37.037-37.037c0-20.35-16.688-37.037-37.037-37.037
			H922.263c-20.35,0-37.037,16.688-37.037,37.037C885.226,1844.119,901.913,1860.806,922.263,1860.806z"/>
		<path class="cls-1" d="M1610.907,1782.662V210.012C1610.907,94.017,1516.076,0,1399.268,0H603.175
			c-118.03,0-213.676,94.424-213.676,210.012v1322.751c0,20.35,16.688,37.037,37.037,37.037c20.351,0,37.037-16.688,37.037-37.037
			V344.322h1074.074v1295.075H444.037l-9.36-2.441c-10.989-2.85-22.792,0-31.339,6.919c-8.954,6.919-14.245,17.501-14.245,28.896
			v109.483c0,118.03,98.087,217.745,213.675,217.745h796.093C1513.635,2000,1610.907,1900.691,1610.907,1782.662z
			 M1536.834,1782.662c0,76.516-64.307,143.671-137.974,143.671H603.175c-74.481,0-140.009-67.155-140.009-143.671v-69.19H1537.24
			v69.19H1536.834z M463.166,270.248v-60.236c0-74.074,64.307-136.345,140.009-136.345h795.686
			c76.109,0,137.974,61.05,137.974,136.345v60.236H463.166z"/>
		<path class="cls-1" d="M1205.128,1332.112c0-20.351-16.687-37.037-37.036-37.037H840.049c-20.35,0-37.037,16.687-37.037,37.037
			c0,20.35,16.688,37.037,37.037,37.037h328.043C1188.441,1368.742,1205.128,1352.462,1205.128,1332.112z"/>
		<path class="cls-1" d="M897.436,1426.129c-20.35,0-37.037,16.688-37.037,37.037c0,20.351,16.688,37.037,37.037,37.037h221.408
			c20.351,0,37.037-16.687,37.037-37.037c0-20.35-16.687-37.037-37.037-37.037H897.436z"/>
		<path class="cls-1" d="M669.923,1079.771c-23.606,19.536-37.444,48.434-37.444,79.365v93.203
			c0,20.351,16.688,37.037,37.037,37.037s37.037-16.687,37.037-37.037v-93.203c0-8.547,3.663-16.687,10.582-22.385
			c80.993-66.748,169.313-111.111,185.999-119.251c14.652-7.326,24.013-22.385,24.013-38.665V847.782
			c0-12.21-6.104-24.014-16.279-30.525c-6.919-4.478-10.989-12.21-10.989-20.351V660.969c0-47.212,38.258-85.471,85.47-85.471
			h29.305c47.212,0,85.47,38.259,85.47,85.471v135.938c0,8.141-4.069,15.873-10.989,20.351
			c-10.175,6.919-16.279,18.315-16.279,30.525v131.054c0,16.28,9.36,31.339,24.013,38.665
			c16.687,8.14,105.006,52.503,185.999,119.251c6.512,5.291,10.582,13.431,10.582,22.385v93.203
			c0,20.351,16.688,37.037,37.037,37.037s37.037-16.687,37.037-37.037v-93.203c0-30.932-13.431-59.829-37.444-79.365
			c-71.225-58.607-147.741-101.343-183.149-119.657v-95.238c17.5-17.908,27.269-42.328,27.269-67.969V660.969
			c0-87.912-71.226-159.138-159.138-159.138h-29.304c-87.912,0-159.137,71.226-159.137,159.138v135.938
			c0,25.642,9.768,49.654,27.269,67.97v95.238C817.664,978.429,741.555,1021.164,669.923,1079.771z"/>
</svg>
