<svg id="Layer_1" data-name="Layer 1" xmlns="http://www.w3.org/2000/svg" viewBox="0 0 2000 2000">
    <defs>
        <style>
            .cls-1 {
                fill: #e74a3e;
            }
            
            .cls-2 {
                fill: #181818;
            }
        </style>
    </defs>	
    <title>Business-Collection</title>
		<path class="cls-2" d="M1704.56,544.674H927.213c-70.333,0-127.99,57.657-127.99,127.99v474.341
			c0,70.333,57.657,127.99,127.99,127.99h100.185v226.538l236.353-226.538h440.4c70.334,0,127.99-57.657,127.99-127.99V672.664
			C1832.141,602.331,1774.893,544.674,1704.56,544.674z M1204.048,951.135c-6.951,6.951-16.356,11.041-26.17,11.041
			c-9.814,0-19.219-4.09-26.171-11.041c-6.543-6.951-10.632-16.356-10.632-26.171c0-9.813,3.681-19.219,10.632-26.17
			c6.951-6.543,16.356-10.632,26.171-10.632c9.813,0,19.219,4.089,26.17,10.632c6.952,6.951,11.041,16.356,11.041,26.17
			C1215.089,934.778,1211,944.184,1204.048,951.135z M1342.262,951.135c-6.952,6.951-16.357,11.041-26.171,11.041
			s-19.219-4.09-26.171-11.041c-6.951-6.951-11.04-16.356-11.04-26.171c0-9.813,3.68-19.219,10.632-26.17
			c6.951-6.543,16.356-10.632,26.17-10.632c9.814,0,19.219,4.089,26.58,10.632c6.951,6.951,11.04,16.356,11.04,26.17
			C1353.302,934.778,1349.213,944.184,1342.262,951.135z M1479.656,951.135c-6.951,6.951-16.356,11.041-26.17,11.041
			c-9.814,0-19.219-4.09-26.171-11.041c-6.542-6.951-10.632-16.356-10.632-26.171c0-9.813,3.68-19.219,10.632-26.17
			c6.952-6.543,16.356-10.632,26.171-10.632c9.813,0,19.627,4.089,26.17,10.632c6.543,6.951,10.632,16.356,10.632,26.17
			C1490.288,934.778,1486.608,944.184,1479.656,951.135z"/>
		<path class="cls-1" d="M1315.682,408.914c20.446,0,37.211-16.765,37.211-37.211V210.182C1352.893,94.05,1258.434,0,1142.711,0
			h-794.93C231.65,0,137.6,94.459,137.6,210.182v1291.351c0,20.445,16.766,37.211,37.211,37.211s37.211-16.766,37.211-37.211
			V210.182c0-75.24,60.928-136.168,136.168-136.168h794.521c75.24,0,136.169,60.928,136.169,136.168v44.163H344.919
			c-20.445,0-37.211,16.766-37.211,37.211c0,20.446,16.766,37.211,37.211,37.211h933.961v43.345
			C1278.471,392.558,1295.236,408.914,1315.682,408.914z"/>
		<path class="cls-1" d="M1341.443,1780.413v-340.217c0-20.445-16.766-37.211-37.211-37.211c-20.446,0-37.211,16.766-37.211,37.211
			v340.217c0,71.56-46.617,145.982-124.72,145.982H347.781c-74.831,0-143.12-69.516-143.12-145.982v-60.11h906.155
			c20.445,0,37.211-16.766,37.211-37.211c0-20.446-16.766-37.212-37.211-37.212H167.859c-20.446,0-37.211,16.766-37.211,37.212
			v96.912c0,117.358,101.411,219.996,217.133,219.996h794.521C1253.936,2000.409,1341.443,1903.905,1341.443,1780.413z"/>
		<path class="cls-1" d="M1869.352,1147.005V672.664c0-90.779-74.014-164.793-165.201-164.793H927.213
			c-90.778,0-165.201,74.014-165.201,164.793v474.341c0,90.778,74.014,165.201,165.201,165.201h63.382v189.327
			c0,14.721,8.996,28.215,22.49,33.939c4.498,2.045,9.814,2.863,14.722,2.863c9.404,0,18.81-3.681,25.761-10.223l225.721-216.316
			h425.681C1795.338,1311.797,1869.352,1237.783,1869.352,1147.005z M1263.75,1237.783c-9.405,0-18.811,3.681-25.762,10.224
			l-173.789,166.428v-139.849c0-20.445-16.766-37.211-37.211-37.211H926.805c-50.297,0-90.779-40.892-90.779-90.779V672.255
			c0-50.296,40.892-90.778,90.779-90.778h777.346c50.297,0,90.779,40.891,90.779,90.778v474.341
			c0,50.297-40.892,90.779-90.779,90.779h-440.4V1237.783z"/>
</svg>
