<svg id="Layer_1" data-name="Layer 1" xmlns="http://www.w3.org/2000/svg" viewBox="0 0 2000 2000">
    <defs>
        <style>
            .cls-1 {
                fill: #e74a3e;
            }
            
            .cls-2 {
                fill: #181818;
            }
        </style>
    </defs>	
    <title>Business-Collection</title>
		<rect x="175.858" y="1383.17" class="cls-2" width="1658.905" height="271.65"/>
		<path class="cls-1" d="M1000.204,1792.893c-20.425,0-37.173,16.748-37.173,37.173v95.588H643.178
			c-20.425,0-37.173,16.749-37.173,37.173c0,20.426,16.748,37.174,37.173,37.174h714.053c20.425,0,37.173-16.748,37.173-37.174
			c0-20.424-16.748-37.173-37.173-37.173h-319.854v-95.588C1037.377,1809.232,1020.629,1792.893,1000.204,1792.893z"/>
		<path class="cls-1" d="M217.524,1691.585h1564.951c49.428,0,89.461-40.032,89.461-89.461V524.918
			c0-49.428-40.033-89.461-89.461-89.461h-437.908c-20.425,0-37.174,16.749-37.174,37.174s16.749,37.173,37.174,37.173h437.908
			c8.578,0,15.522,6.944,15.522,15.523v1077.614c0,8.578-6.944,15.522-15.522,15.522H217.524c-8.578,0-15.522-6.944-15.522-15.522
			v-179.33h1476.307c20.425,0,37.174-16.749,37.174-37.174s-16.749-37.173-37.174-37.173h-186.683
			c-15.522-107.435-108.252-190.359-219.771-190.359c-20.425,0-37.173,16.748-37.173,37.173s16.748,37.174,37.173,37.174
			c70.67,0,129.902,49.836,144.608,116.013h-169.118c-14.298-113.971-104.983-204.657-218.954-219.363V872.141
			c0-20.425-16.748-37.174-37.174-37.174c-20.424,0-37.173,16.749-37.173,37.174v259.396
			c-109.478,18.382-195.261,107.026-209.559,217.729H574.551c14.706-66.177,73.938-116.013,144.607-116.013
			c20.425,0,37.174-16.749,37.174-37.174s-16.749-37.173-37.174-37.173c-111.52,0-204.248,82.925-219.771,190.359H183.211
			c-5.311-2.859-11.438-4.902-17.974-4.902c-20.425,0-37.173,16.749-37.173,37.174v220.996
			C128.472,1651.552,168.505,1691.585,217.524,1691.585z M996.527,1201.389c87.827,0,161.356,63.726,176.471,147.468H820.466
			C835.172,1265.114,908.293,1201.389,996.527,1201.389z"/>
		<path class="cls-1" d="M165.237,1268.383c20.425,0,37.173-16.749,37.173-37.174V524.51c0-8.578,6.944-15.522,15.523-15.522
			h439.134c20.425,0,37.173-16.749,37.173-37.174s-16.748-37.173-37.173-37.173H217.524c-49.428,0-89.46,40.032-89.46,89.461
			v706.699C128.472,1252.043,144.812,1268.383,165.237,1268.383z"/>
		<circle class="cls-1" cx="996.937" cy="1525.327" r="42.892"/>
		<path class="cls-1" d="M668.913,930.147c0,20.425,16.749,37.173,37.174,37.173h75.98v85.784
			c0,20.425,16.748,37.173,37.173,37.173s37.174-16.748,37.174-37.173V967.32h4.901c20.425,0,37.173-16.748,37.173-37.174
			c0-20.425-16.748-37.173-37.173-37.173H742.852v-41.258c0-13.89,4.085-27.369,12.255-38.808l66.993-95.996
			c15.932-22.876,24.51-49.837,24.51-78.023V317.402c0-30.229,11.029-59.64,30.638-82.516L997.754,93.954l120.914,140.523
			c20.017,23.285,31.046,52.696,31.046,82.925v323.53c0,25.735,7.353,51.062,21.242,73.12l62.5,98.448
			c6.944,11.029,10.621,23.284,10.621,36.356v43.709H1131.74c-20.425,0-37.173,16.748-37.173,37.173
			c0,19.199,14.297,34.313,32.68,36.765v86.193c0,20.425,16.748,37.173,37.173,37.173s37.174-16.748,37.174-37.173v-85.784h79.248
			c20.425,0,37.173-16.749,37.173-37.174v-80.882c0-26.961-7.761-53.104-22.059-75.98l-62.5-98.448
			c-6.536-10.212-9.804-21.65-9.804-33.496V317.811c0-48.203-17.565-94.771-49.02-131.536l-149.51-173.611
			C1018.178,4.494,1007.966,0,996.937,0c-10.621,0-21.242,4.902-28.187,13.072L820.466,186.683
			c-31.046,36.356-48.202,82.925-48.202,130.719v321.895c0,12.664-3.677,25.327-11.029,35.54l-66.994,95.996
			c-16.748,24.102-25.326,51.879-25.326,81.291L668.913,930.147L668.913,930.147z"/>
</svg>
