<svg id="Layer_1" data-name="Layer 1" xmlns="http://www.w3.org/2000/svg" viewBox="0 0 2000 2000">
    <defs>
        <style>
            .cls-1 {
                fill: #e74a3e;
            }
            
            .cls-2 {
                fill: #181818;
            }
        </style>
    </defs>	
    <title>Business-Collection</title>
		<path class="cls-2" d="M1065.258,633.288c10.225,8.179,20.039,15.949,30.263,24.128c50.301,38.032,104.282,53.981,166.442,38.032
			c35.988-8.179,72.385-4.089,104.283,15.949c17.993,11.859,38.031,22.083,58.07,32.308c52.346,28.217,94.468,20.038,134.545-24.129
			c22.083-26.172,44.166-52.346,66.25-78.109c30.262-38.032,26.173-68.295-11.859-98.147
			c-134.545-104.282-267.045-208.565-401.181-312.847c-58.071-44.167-86.288-100.193-74.429-172.577
			c2.045-17.994-8.179-24.128-28.218-17.994c-46.211,13.904-84.243,40.077-106.327,82.199
			c-30.262,60.116-78.109,82.199-138.634,80.154c-90.378-4.089-146.404,44.167-194.66,112.461
			c-52.346,72.384-78.11,156.628-98.148,240.872c-22.083,90.378-32.307,180.756-35.987,272.77
			c-4.09,70.34-2.045,138.634-4.09,208.564c0,4.09,0,6.135,0,8.179v122.276c0,33.125,26.99,60.116,60.115,60.116h222.879
			c2.044,0,2.044,0,4.089,0c112.462,0,224.923,0,336.976,0l0,0l248.641,4.089c30.263,0,53.982-22.083,53.982-52.346v-88.333
			c0-44.167-22.084-84.243-60.116-108.372l0,0c-4.089-2.453-49.483-31.08-105.918-76.474
			c-23.311-18.812-44.575-40.485-63.388-63.796L1065.258,633.288z"/>
		<path class="cls-1" d="M395.807,1735.818c-0.409,0-0.818,0.408-0.818,0.408c-26.581,11.451-62.569,33.125-66.658,89.561
			c-0.818,11.859-2.863,24.128-4.907,37.623c-2.045,13.904-4.09,27.809-5.316,42.122c-2.863,27.399,2.862,49.893,16.767,66.659
			c14.313,16.767,35.987,26.173,64.205,27.809c0.818,0,1.636,0,2.045,0h1161.828c1.635,0,3.68,0,5.316,0c2.453,0,4.498,0,6.543,0
			c14.313,0,33.125-1.636,50.709-15.949c23.311-17.176,33.943-44.575,30.263-76.064c-2.044-16.768-4.498-33.125-7.36-49.483
			c-2.454-15.54-4.908-31.489-6.953-47.029c0-0.817-0.408-1.636-0.408-2.862c-8.997-44.167-37.215-61.752-60.116-68.704
			c-26.173-7.36-45.802-29.853-51.118-58.479c-2.863-14.723-4.908-51.527,32.307-80.563c27.809-18.812,40.486-47.029,37.215-81.381
			c-2.045-27.399-6.135-54.391-10.225-80.154c-6.543-46.212-35.987-71.976-83.017-71.976H487.411
			c-73.202,0-96.103,19.63-106.735,92.014c-0.409,1.636-0.409,3.681-0.409,5.316c0,2.454,0,6.952-0.409,8.997v0.409
			c-16.357,54.391-2.862,99.784,41.304,139.043c18.403,15.949,26.582,39.26,22.492,63.797
			C438.746,1703.92,420.753,1726.003,395.807,1735.818z M469.826,1557.925c-22.492-19.63-26.99-34.761-19.221-61.343
			c3.272-10.224,3.681-20.447,3.681-28.218c2.045-14.722,4.09-21.265,5.316-24.536c3.681-0.818,11.451-1.637,27.809-1.637h1019.514
			c4.089,0,6.543,0.409,7.771,0.818c0.408,1.227,1.227,3.681,2.044,8.179c3.681,24.946,7.771,50.71,9.815,75.656
			c0,0.409,0,0.409,0,0.817c0.817,8.588-0.818,10.225-5.726,13.496c-0.409,0.408-1.228,0.817-1.636,1.227
			c-49.483,37.215-72.385,94.877-61.343,153.766c10.633,56.435,50.301,101.011,103.056,116.142
			c3.681,1.227,6.135,2.045,8.179,10.633c2.045,15.949,4.499,32.307,6.952,47.847c2.454,15.54,4.908,31.489,6.952,47.029
			c0.409,2.454,0.409,6.544-0.817,7.361c-0.409,0.409-0.818,0.818-1.227,1.227c-0.818,0-2.454,0.409-5.316,0.409
			c-1.637,0-3.271,0-5.316,0c-2.454,0-4.499,0-6.953,0H402.35c-5.725-0.409-8.996-1.227-10.632-2.045
			c-0.409-1.636-0.818-4.907,0-11.042c0-0.408,0-0.817,0-1.227c0.817-11.859,2.862-24.128,4.907-37.623
			c2.045-13.904,4.09-28.218,5.316-42.939c0.817-12.678,2.862-18.403,21.266-26.582c49.073-19.63,83.834-62.569,92.831-114.506
			C525.035,1640.124,507.45,1590.641,469.826,1557.925z"/>
		<path class="cls-1" d="M760.182,1721.096h453.525c20.447,0,37.215-16.767,37.215-37.215c0-20.447-16.768-37.214-37.215-37.214
			H760.182c-20.447,0-37.215,16.767-37.215,37.214C723.376,1704.738,739.734,1721.096,760.182,1721.096z"/>
		<path class="cls-1" d="M1174.448,61.576c3.271-27.809-9.815-42.94-17.585-49.892c-10.224-8.588-28.627-16.767-58.071-7.77
			c-59.706,18.403-103.056,51.937-128.819,101.011c-21.674,42.94-53.572,61.343-103.464,59.707
			c-117.369-5.316-182.801,65.841-226.559,128.002c-57.662,79.745-85.062,172.985-104.282,253.549
			c-20.857,84.652-32.717,173.804-37.215,279.722c-2.454,42.94-2.862,85.88-2.862,127.184c0,26.991-0.409,55.209-1.228,82.608
			c0,0.409,0,0.817,0,1.227v130.455c0,54.391,42.531,97.33,97.33,97.33h563.125l249.459,4.09c51.119,0,91.196-39.26,91.196-89.151
			v-88.333c0-56.844-29.035-109.189-77.292-139.861c-0.408,0-0.408-0.408-0.817-0.408c-0.409-0.409-65.023-40.486-138.634-104.283
			c-15.54-13.495-38.851-11.859-52.346,3.681s-11.859,38.851,3.681,52.346c74.429,64.614,140.679,106.736,148.448,111.644l0,0
			c27.4,17.176,42.939,45.394,42.939,76.883v88.333c0,10.633-8.588,15.132-16.357,15.132l-249.46-4.09H591.693
			c-13.495,0-23.31-9.406-23.31-23.311v-130.046c0.817-28.218,0.817-56.436,1.227-83.835c0.409-40.486,0.409-82.199,2.862-123.912
			c4.499-101.42,15.541-185.663,35.17-265.817c18.403-77.292,42.531-158.673,92.423-228.194
			c50.71-71.566,97.739-99.375,163.171-96.512c79.746,2.863,138.226-31.08,172.577-100.193
			c12.678-24.128,33.534-42.939,61.752-55.617c-2.045,69.112,28.626,128.41,91.195,176.258
			c67.068,51.937,133.728,104.282,200.386,156.219c66.659,52.346,133.727,104.691,200.795,156.628
			c10.633,8.588,17.176,16.358,17.994,21.675c0.817,5.316-3.681,13.904-11.451,24.128l-65.432,77.291
			c-29.035,31.489-52.346,35.579-89.151,15.949c-0.409,0-0.817-0.409-1.227-0.409c-19.63-9.814-38.032-18.812-53.981-29.854
			c-0.409,0-0.409-0.408-0.818-0.408c-38.85-24.128-84.243-31.489-132.091-20.856c-0.409,0-0.817,0-1.227,0.408
			c-47.438,12.269-89.969,2.045-134.545-31.489l-29.854-23.719c-15.948-12.678-39.259-10.224-51.937,5.726
			s-10.224,39.259,5.726,51.937l30.263,24.128c0.408,0,0.408,0.409,0.817,0.409c62.161,47.029,128.819,62.16,197.523,44.575
			c28.217-6.134,53.572-2.453,75.655,11.042c19.63,13.086,40.486,23.719,61.343,33.942c66.659,35.579,127.184,24.946,179.12-31.897
			c0.409-0.409,0.409-0.818,0.818-0.818l66.25-78.109c0.408-0.409,0.408-0.818,0.817-0.818
			c21.675-27.399,30.671-53.572,27.399-79.745s-17.993-49.073-45.802-70.748c-67.068-52.346-134.136-104.282-200.795-156.628
			s-133.317-104.282-200.795-156.628c-50.301-38.032-69.112-81.79-60.115-136.999C1174.448,62.803,1174.448,61.984,1174.448,61.576z
			"/>
</svg>
