<svg id="Layer_1" data-name="Layer 1" xmlns="http://www.w3.org/2000/svg" viewBox="0 0 2000 2000">
    <defs>
        <style>
            .cls-1 {
                fill: #e74a3e;
            }
            
            .cls-2 {
                fill: #181818;
            }
        </style>
    </defs>	
    <title>Business-Collection</title>
		<path id="XMLID_1866_" class="cls-2" d="M1968.5,1674.76v-101.369c0-21.255-9.402-41.692-26.16-55.181
			c-91.56-75.21-190.067-125.077-210.505-134.887c-2.452-1.227-3.679-3.27-3.679-6.131v-142.653
			c17.984-11.854,29.838-32.291,29.838-55.59v-147.966c0-73.575-59.677-133.252-133.251-133.252h-15.941h-15.94
			c-73.575,0-133.252,59.678-133.252,133.252v147.967c0,23.298,11.854,43.327,29.838,55.589v142.653
			c0,2.452-1.226,4.905-3.678,6.131c-20.029,9.81-118.946,59.677-210.506,134.887c-16.35,13.488-26.159,33.926-26.159,55.181
			v101.369"/>
		<path class="cls-1" d="M643.659,1288.264c20.421,0,37.166-16.746,37.166-37.166v-100.471c0-10.209,4.492-19.604,12.252-26.139
			c87.81-72.289,182.97-120.072,200.939-129.059c14.703-7.352,24.505-22.463,24.505-39.207V814.912
			c0-12.252-6.126-24.097-16.336-30.631c-8.169-5.31-13.069-14.294-13.069-24.097V613.972c0-52.276,42.475-94.752,94.751-94.752
			h31.448c52.277,0,94.752,42.475,94.752,94.752v146.212c0,9.803-4.901,18.787-13.069,24.097
			c-10.21,6.943-16.336,18.379-16.336,30.631v141.311c0,16.744,9.802,31.855,24.504,39.207
			c18.379,8.986,113.539,56.77,200.939,129.059c7.76,6.535,12.253,15.93,12.253,26.139v100.471c0,20.42,16.745,37.166,37.165,37.166
			c20.421,0,37.166-16.746,37.166-37.166v-100.471c0-32.672-14.295-62.895-39.208-83.316
			c-77.599-64.121-160.914-110.271-198.488-129.875V832.064c18.787-19.195,29.405-44.925,29.405-72.289V613.972
			c0-93.118-75.965-169.083-169.083-169.083h-31.447c-93.118,0-169.083,75.557-169.083,169.083v146.212
			c0,27.364,10.618,53.094,29.405,72.289v105.371c-37.574,19.604-120.481,65.756-198.489,129.875
			c-24.913,20.422-39.207,51.053-39.207,83.316v100.471C606.902,1271.926,623.238,1288.264,643.659,1288.264z"/>
		<path class="cls-1" d="M1451.501,1352.979c-37.574,19.604-120.482,65.755-198.489,129.875
			c-24.913,20.421-39.207,51.052-39.207,83.316v100.47c0,20.421,16.744,37.166,37.165,37.166s37.166-16.745,37.166-37.166v-100.47
			c0-10.21,4.492-19.604,12.252-26.139c87.81-72.289,182.97-120.073,200.939-129.059c15.111-7.351,24.505-22.462,24.505-39.207
			v-141.312c0-12.252-6.126-24.096-16.336-30.631c-8.169-5.31-13.07-14.295-13.07-24.097v-146.212
			c0-52.276,42.476-94.752,94.752-94.752h31.448c52.277,0,94.752,42.476,94.752,94.752v146.212c0,9.802-4.901,18.787-13.069,24.097
			c-10.21,6.943-16.336,18.379-16.336,30.631v141.312c0,16.745,9.393,31.856,24.504,39.207
			c18.379,8.985,113.539,56.77,200.939,129.059c7.76,6.535,12.253,15.929,12.253,26.139v100.47
			c0,20.421,16.745,37.166,37.165,37.166c20.422,0,37.166-16.745,37.166-37.166v-100.47c0-32.673-14.295-62.896-39.207-83.316
			c-78.008-64.12-160.915-110.271-198.489-129.875v-105.371c18.787-19.195,29.405-44.925,29.405-72.289v-146.212
			c0-93.118-75.965-169.083-169.082-169.083h-31.448c-93.118,0-169.083,75.965-169.083,169.083v146.212
			c0,27.364,10.618,53.094,29.405,72.289V1352.979L1451.501,1352.979z"/>
		<path class="cls-1" d="M37.166,1703.398c20.421,0,37.166-16.745,37.166-37.166v-100.47c0-10.21,4.493-19.604,12.252-26.139
			c87.809-72.289,182.969-120.073,200.939-129.059c15.111-7.352,24.504-22.463,24.504-39.208v-141.311
			c0-12.252-6.126-24.097-16.336-30.631c-8.168-5.31-13.069-14.295-13.069-24.097v-146.212c0-52.276,42.475-94.752,94.752-94.752
			h31.448c52.276,0,94.751,42.475,94.751,94.752v146.212c0,9.802-4.9,18.787-13.069,24.097
			c-10.21,6.943-16.336,18.379-16.336,30.631v141.311c0,16.745,9.394,31.856,24.505,39.208
			c18.378,8.985,113.539,56.77,200.939,129.059c7.76,6.535,12.252,15.929,12.252,26.139v100.47
			c0,20.421,16.745,37.166,37.166,37.166s37.165-16.745,37.165-37.166v-100.47c0-32.673-14.294-62.896-39.207-83.316
			c-78.008-64.121-160.915-110.271-198.489-129.875V1247.2c18.787-19.195,29.406-44.925,29.406-72.289v-146.212
			c0-93.118-75.965-169.083-169.083-169.083h-31.448c-93.118,0-169.083,75.965-169.083,169.083v146.212
			c0,27.364,10.619,53.094,29.406,72.289v105.371c-37.574,19.604-120.482,65.754-198.489,129.875
			C14.294,1502.867,0,1533.498,0,1565.763v100.47C0,1687.062,16.745,1703.398,37.166,1703.398z"/>
</svg>
