<svg id="Layer_1" data-name="Layer 1" xmlns="http://www.w3.org/2000/svg" viewBox="0 0 2000 2000">
    <defs>
        <style>
            .cls-1 {
                fill: #e74a3e;
            }
            
            .cls-2 {
                fill: #181818;
            }
        </style>
    </defs>	
    <title>Business-Collection</title>
		<rect x="1070.144" y="1076.074" class="cls-2" width="886.707" height="886.707"/>
		<path class="cls-1" d="M385.48,1846.217h289.162l-89.98,89.979c-14.314,14.315-14.314,38.037,0,52.352
			c7.362,7.362,16.77,11.043,26.176,11.043c9.407,0,18.814-3.681,26.177-11.043l153.374-153.374
			c14.314-14.314,14.314-38.037,0-52.352l-153.374-153.374c-14.315-14.315-38.037-14.315-52.353,0
			c-14.314,14.314-14.314,38.036,0,52.352l89.98,89.979H385.48c-170.552,0-309.202-138.65-309.202-309.203v-181.186
			c0-20.45-16.769-37.219-37.219-37.219c-20.45,0-37.219,16.769-37.219,37.219v181.186
			C1.84,1674.028,173.62,1846.217,385.48,1846.217z"/>
		<path class="cls-1" d="M68.916,11.452C61.963,4.499,52.556,0.409,42.74,0.409s-19.223,4.09-26.176,11.043
			C9.611,18.405,5.931,27.812,5.931,37.628s4.09,19.223,10.634,26.176c6.953,6.953,16.36,11.043,26.176,11.043
			s19.223-4.09,26.176-11.043c6.953-6.953,11.043-16.36,11.043-26.176S75.869,18.405,68.916,11.452z"/>
		<path class="cls-1" d="M802.658,74.438c20.45,0,37.219-16.36,37.219-37.219C839.877,16.769,823.518,0,802.658,0
			c-20.449,0-37.219,16.769-37.219,37.219C765.439,58.078,782.209,74.438,802.658,74.438z"/>
		<path class="cls-1" d="M675.869,0.409c-20.45,0-37.219,16.769-37.219,37.219c0,20.45,16.359,37.219,37.219,37.219
			c20.45,0,37.219-16.36,37.219-37.219C713.088,17.178,696.319,0.409,675.869,0.409z"/>
		<path class="cls-1" d="M295.91,74.438c20.45,0,37.219-16.36,37.219-37.219C333.129,16.769,316.769,0,295.91,0
			c-20.45,0-37.219,16.769-37.219,37.219C259.1,58.078,275.46,74.438,295.91,74.438z"/>
		<path class="cls-1" d="M169.53,0.409c-20.45,0-37.219,16.769-37.219,37.219c0,20.45,16.36,37.219,37.219,37.219
			s37.219-16.36,37.219-37.219C206.339,17.178,189.979,0.409,169.53,0.409z"/>
		<path class="cls-1" d="M549.488,0.409c-20.449,0-37.219,16.769-37.219,37.219c0,20.45,16.77,37.219,37.219,37.219
			c20.45,0,37.22-16.36,37.22-37.219C586.299,17.178,569.938,0.409,549.488,0.409z"/>
		<path class="cls-1" d="M422.699,0.409c-20.449,0-37.219,16.769-37.219,37.219c0,20.45,16.36,37.219,37.219,37.219
			c20.45,0,37.219-16.36,37.219-37.219C459.918,17.178,443.149,0.409,422.699,0.409z"/>
		<path class="cls-1" d="M955.624,63.804c6.952-6.953,10.634-16.36,10.634-26.176s-4.09-19.223-10.634-26.176
			c-6.953-6.953-16.36-11.043-26.176-11.043c-9.816,0-19.224,4.09-26.177,11.043c-6.952,6.953-10.634,16.36-10.634,26.176
			s4.091,19.223,10.634,26.176c6.953,6.953,16.36,11.043,26.177,11.043C939.264,74.438,948.671,70.757,955.624,63.804z"/>
		<path class="cls-1" d="M929.448,253.579c-20.45,0-36.811,16.769-36.811,37.219c0,20.45,16.36,37.219,36.811,37.219
			c20.449,0,37.219-16.769,37.219-37.219C966.258,270.348,949.897,253.579,929.448,253.579z"/>
		<path class="cls-1" d="M929.448,760.327c-20.45,0-36.811,16.36-36.811,37.219c0,20.45,16.36,37.219,36.811,37.219
			c20.449,0,37.219-16.769,37.219-37.219C966.258,777.096,949.897,760.327,929.448,760.327z"/>
		<path class="cls-1" d="M929.448,380.368c-20.45,0-36.811,16.36-36.811,36.81c0,20.45,16.36,37.219,36.811,37.219
			c20.449,0,37.219-16.769,37.219-37.219C966.258,397.137,949.897,380.368,929.448,380.368z"/>
		<path class="cls-1" d="M929.448,633.538c-20.45,0-36.811,16.769-36.811,37.219s16.36,37.219,36.811,37.219
			c20.449,0,37.219-16.36,37.219-37.219C966.258,650.307,949.897,633.538,929.448,633.538z"/>
		<path class="cls-1" d="M929.448,507.157c-20.45,0-36.811,16.36-36.811,37.219c0,20.45,16.36,37.219,36.811,37.219
			c20.449,0,37.219-16.769,37.219-37.219C966.258,523.518,949.897,507.157,929.448,507.157z"/>
		<path class="cls-1" d="M929.448,127.198c-20.45,0-36.811,16.36-36.811,37.219c0,20.45,16.36,37.219,36.811,37.219
			c20.449,0,37.219-16.769,37.219-37.219C966.258,143.558,949.897,127.198,929.448,127.198z"/>
		<path class="cls-1" d="M966.258,923.927c0-9.816-4.09-19.224-10.634-26.176c-6.953-6.953-16.36-11.043-26.176-11.043
			c-9.816,0-19.224,4.09-26.177,11.043c-6.952,6.952-11.042,16.359-11.042,26.176c0,9.815,4.09,19.223,11.042,26.176
			c6.953,6.952,16.36,11.043,26.177,11.043c9.815,0,19.223-4.091,26.176-11.043C962.576,943.559,966.258,933.742,966.258,923.927z"
			/>
		<path class="cls-1" d="M422.699,887.116c-20.449,0-37.219,16.77-37.219,37.219c0,20.45,16.36,37.22,37.219,37.22
			c20.45,0,37.219-16.36,37.219-37.22C459.918,903.477,443.149,887.116,422.699,887.116z"/>
		<path class="cls-1" d="M549.488,887.116c-20.449,0-37.219,16.77-37.219,37.219c0,20.45,16.77,37.22,37.219,37.22
			c20.45,0,37.22-16.36,37.22-37.22C586.299,903.477,569.938,887.116,549.488,887.116z"/>
		<path class="cls-1" d="M675.869,887.116c-20.45,0-37.219,16.77-37.219,37.219c0,20.45,16.359,37.22,37.219,37.22
			c20.45,0,37.219-16.36,37.219-37.22C713.088,903.477,696.319,887.116,675.869,887.116z"/>
		<path class="cls-1" d="M169.53,887.116c-20.45,0-37.219,16.77-37.219,37.219c0,20.45,16.36,37.22,37.219,37.22
			s37.219-16.36,37.219-37.22C206.339,903.477,189.979,887.116,169.53,887.116z"/>
		<path class="cls-1" d="M295.91,961.146c20.45,0,37.219-16.36,37.219-37.219c0-20.45-16.769-37.22-37.219-37.22
			s-37.219,16.77-37.219,37.22C259.1,944.785,275.46,961.146,295.91,961.146z"/>
		<path class="cls-1" d="M802.658,961.146c20.45,0,37.219-16.36,37.219-37.219c0-20.45-16.359-37.22-37.219-37.22
			c-20.449,0-37.219,16.77-37.219,37.22C765.439,944.785,782.209,961.146,802.658,961.146z"/>
		<path class="cls-1" d="M16.564,897.751c-6.953,6.952-10.634,16.359-10.634,26.176c0,9.815,4.09,19.223,10.634,26.176
			c6.953,6.952,16.36,11.043,26.176,11.043s19.223-4.091,26.176-11.043c6.953-6.953,11.043-16.36,11.043-26.176
			c0-9.816-4.09-19.224-11.043-26.176c-6.953-6.953-16.36-11.043-26.176-11.043C32.924,887.116,23.518,890.798,16.564,897.751z"/>
		<path class="cls-1" d="M42.74,127.198c-20.45,0-37.219,16.36-37.219,37.219c0,20.45,16.36,37.219,37.219,37.219
			c20.45,0,37.219-16.769,37.219-37.219C79.959,143.558,63.19,127.198,42.74,127.198z"/>
		<path class="cls-1" d="M42.74,253.579c-20.45,0-37.219,16.769-37.219,37.219c0,20.45,16.36,37.219,37.219,37.219
			c20.45,0,37.219-16.769,37.219-37.219C79.959,270.348,63.19,253.579,42.74,253.579z"/>
		<path class="cls-1" d="M42.74,380.368c-20.45,0-37.219,16.36-37.219,36.81c0,20.45,16.36,37.219,37.219,37.219
			c20.45,0,37.219-16.769,37.219-37.219C79.959,397.137,63.19,380.368,42.74,380.368z"/>
		<path class="cls-1" d="M42.74,633.538c-20.45,0-37.219,16.769-37.219,37.219s16.36,37.219,37.219,37.219
			c20.45,0,37.219-16.36,37.219-37.219C79.959,650.307,63.19,633.538,42.74,633.538z"/>
		<path class="cls-1" d="M42.74,760.327c-20.45,0-37.219,16.36-37.219,37.219c0,20.45,16.36,37.219,37.219,37.219
			c20.45,0,37.219-16.769,37.219-37.219S63.19,760.327,42.74,760.327z"/>
		<path class="cls-1" d="M42.74,507.157c-20.45,0-37.219,16.36-37.219,37.219c0,20.45,16.36,37.219,37.219,37.219
			c20.45,0,37.219-16.769,37.219-37.219C79.959,523.518,63.19,507.157,42.74,507.157z"/>
		<path class="cls-1" d="M1362.986,11.452l-153.375,153.374c-6.953,6.953-11.043,16.36-11.043,26.176s4.09,19.223,11.043,26.176
			l153.375,153.375c7.361,7.362,16.769,11.043,26.176,11.043c9.406,0,18.813-3.681,26.176-11.043
			c14.314-14.315,14.314-38.037,0-52.352l-89.98-89.979h289.162c170.553,0,309.202,138.65,309.202,309.202v181.187
			c0,20.45,16.769,37.219,37.22,37.219c20.449,0,37.219-16.769,37.219-37.219V537.423c0-211.451-172.188-383.64-383.641-383.64
			h-289.162l89.98-89.979c14.314-14.315,14.314-38.037,0-52.352C1401.022-2.863,1377.71-3.272,1362.986,11.452z"/>
		<path class="cls-1" d="M1994.069,1962.372v-886.298c0-20.45-16.769-37.22-37.219-37.22h-886.708
			c-20.449,0-37.219,16.77-37.219,37.22v886.707c0,20.45,16.77,37.219,37.219,37.219h886.708
			C1977.301,1999.591,1994.069,1982.822,1994.069,1962.372z M1919.632,1925.563h-812.27v-812.679h812.27V1925.563z"/>
</svg>
