<svg id="Layer_1" data-name="Layer 1" xmlns="http://www.w3.org/2000/svg" viewBox="0 0 2000 2000">
    <defs>
        <style>
            .cls-1 {
                fill: #e74a3e;
            }
            
            .cls-2 {
                fill: #181818;
            }
        </style>
    </defs>	
    <title>Business-Collection</title>
		<path id="XMLID_798_" class="cls-2" d="M1962.842,1856.881v-100.857c0-21.233-9.391-41.65-25.725-55.125
			c-91.058-74.725-189.057-124.541-209.064-134.341c-2.45-1.225-3.676-3.267-3.676-5.716V1419.15
			c17.967-11.841,29.4-32.258,29.4-55.124v-146.999c0-73.091-59.208-132.299-132.299-132.299h-15.925h-15.925
			c-73.092,0-132.299,59.208-132.299,132.299v146.999c0,22.866,11.842,43.283,29.399,55.124v141.691
			c0,2.449-1.225,4.899-3.675,5.716c-20.008,9.8-118.008,59.208-209.064,134.341c-16.334,13.475-25.726,33.892-25.726,55.125
			v100.857"/>
		<path class="cls-1" d="M395.264,956.921c-20.417,0-37.158,16.742-37.158,37.158v146.999
			c0,175.174,142.507,317.681,317.681,317.681h467.13l-61.25,61.249c-14.291,14.292-14.291,37.975,0,52.267
			c7.35,7.35,16.741,11.025,26.133,11.025s18.783-3.675,26.133-11.025l124.133-124.132c6.941-6.942,11.025-16.334,11.025-26.134
			s-4.084-19.191-11.025-26.133l-124.133-124.132c-14.291-14.292-37.975-14.292-52.266,0c-14.291,14.291-14.291,37.975,0,52.266
			l61.25,61.25h-467.13c-134.341,0-243.773-109.433-243.773-243.773V994.487C432.013,973.255,415.68,956.921,395.264,956.921z"/>
		<path class="cls-1" d="M864.435,600.449c7.35,7.35,16.741,11.025,26.133,11.025s18.783-3.676,26.134-11.025
			c14.291-14.292,14.291-37.975,0-52.267l-61.25-61.249h469.171c134.341,0,243.773,109.433,243.773,243.772v146.999
			c0,20.417,16.741,37.158,37.158,37.158c20.416,0,37.157-16.741,37.157-37.158V730.706c0-175.173-142.507-317.681-317.68-317.681
			H855.859l61.25-61.249c14.291-14.292,14.291-37.975,0-52.267c-14.292-14.291-37.975-14.291-52.267,0L740.711,423.643
			c-6.942,6.941-11.025,16.333-11.025,26.133s4.083,19.191,11.025,26.133L864.435,600.449z"/>
		<path class="cls-1" d="M37.975,952.43c20.417,0,37.158-16.741,37.158-37.158V814.414c0-10.208,4.491-20.008,12.25-26.541
			c88.199-72.274,183.748-120.458,201.715-129.441c14.7-7.35,24.5-22.458,24.5-39.199v-141.69c0-12.25-6.125-24.092-16.333-30.625
			c-8.167-5.309-13.066-14.7-13.066-24.5V275.418c0-52.674,42.875-95.549,95.141-95.549h31.441
			c52.674,0,95.141,42.875,95.141,95.549v146.999c0,9.8-4.9,18.783-13.066,24.5c-10.208,6.941-16.333,18.375-16.333,30.625v141.69
			c0,16.333,9.391,31.85,24.499,39.199c18.375,8.983,113.925,57.167,201.716,129.441c7.758,6.533,12.249,15.925,12.249,26.541
			v100.857c0,20.417,16.742,37.158,37.158,37.158c20.417,0,37.158-16.741,37.158-37.158V814.414
			c0-32.666-14.292-62.883-39.608-83.708c-77.99-64.107-161.698-110.657-199.265-130.257V494.691
			c18.783-19.191,29.399-44.916,29.399-72.274V275.418c0-93.507-75.949-169.457-169.457-169.457H378.93
			c-93.507,0-169.457,75.949-169.457,169.457v146.999c0,27.358,10.617,53.083,29.4,72.274v105.758
			c-37.566,19.6-121.274,66.149-199.265,130.257C14.7,751.123,0,781.748,0,814.414v100.857
			C0.816,936.097,17.558,952.43,37.975,952.43z"/>
		<path class="cls-1" d="M1250.715,1672.315c-24.908,20.416-39.608,51.041-39.608,83.708v100.857
			c0,20.416,16.741,37.158,37.158,37.158s37.158-16.742,37.158-37.158v-100.857c0-10.209,4.491-20.009,12.25-26.542
			c88.199-72.274,183.748-120.457,201.715-129.44c14.7-7.35,24.499-22.458,24.499-39.2v-141.69c0-12.25-6.124-24.091-16.332-30.625
			c-8.167-5.308-13.067-14.699-13.067-24.499v-146.999c0-52.675,42.875-95.549,95.142-95.549h31.441
			c52.674,0,95.549,42.874,95.549,95.549v146.999c0,9.8-4.9,18.783-13.066,24.499c-10.209,6.942-16.334,18.375-16.334,30.625v141.69
			c0,16.333,9.392,31.85,24.5,39.2c18.375,8.983,113.924,57.166,201.715,129.44c7.759,6.533,12.25,15.925,12.25,26.542v100.857
			c0,20.416,16.742,37.158,37.158,37.158s37.158-16.742,37.158-37.158v-100.857c0-32.667-14.291-62.883-39.608-83.708
			c-77.991-64.108-161.698-110.657-199.265-130.257v-105.758c18.783-19.191,29.399-44.916,29.399-72.274v-146.999
			c0-93.508-75.949-169.457-169.456-169.457h-31.441c-93.508,0-169.457,75.949-169.457,169.457v146.999
			c0,27.358,10.616,53.083,29.399,72.274v105.758C1412.413,1561.658,1329.114,1608.208,1250.715,1672.315z"/>
</svg>
