<svg id="Layer_1" data-name="Layer 1" xmlns="http://www.w3.org/2000/svg" viewBox="0 0 2000 2000">
    <defs>
        <style>
            .cls-1 {
                fill: #e74a3e;
            }
            
            .cls-2 {
                fill: #181818;
            }
        </style>
    </defs>	
    <title>Business-Collection</title>
		<path class="cls-2" d="M903.146,634.654c0,41.275-33.51,74.377-74.377,74.377H111.157c-41.275,0-74.377-33.51-74.377-74.377
			V119.33c0-41.275,33.51-74.377,74.377-74.377h717.205c41.275,0,74.377,33.51,74.377,74.377v515.324H903.146z"/>
		<path class="cls-1" d="M0,119.33v515.324c0,61.3,49.857,111.565,111.565,111.565h321.618v111.565H325.705
			c-20.433,0-37.188,16.755-37.188,37.188c0,20.433,16.755,37.188,37.188,37.188h288.517c20.433,0,37.188-16.756,37.188-37.188
			c0-20.434-16.756-37.188-37.188-37.188H506.743V746.22h321.618c61.3,0,111.565-49.856,111.565-111.565V119.33
			c0-61.3-49.857-111.565-111.565-111.565H111.157C49.857,7.765,0,58.03,0,119.33z M865.958,119.33v515.324
			c0,20.434-16.755,37.188-37.188,37.188H111.157c-20.433,0-37.188-16.755-37.188-37.188V119.33
			c0-20.434,16.755-37.188,37.188-37.188h717.205C849.203,82.142,865.958,98.896,865.958,119.33z"/>
		<path class="cls-1" d="M1888.844,1068.247H1171.23c-61.3,0-111.565,49.856-111.565,111.564v514.917
			c0,61.299,49.856,111.564,111.565,111.564h321.618v111.565H1385.37c-20.434,0-37.188,16.755-37.188,37.188
			s16.755,37.188,37.188,37.188h288.925c20.434,0,37.188-16.755,37.188-37.188s-16.755-37.188-37.188-37.188h-107.479v-111.565
			h321.619c61.299,0,111.564-49.856,111.564-111.564v-515.325C2000,1118.104,1950.143,1068.247,1888.844,1068.247z
			 M1926.031,1694.729c0,20.433-16.755,37.188-37.188,37.188H1171.23c-20.434,0-37.188-16.756-37.188-37.188v-515.325
			c0-20.434,16.755-37.188,37.188-37.188h717.204c20.434,0,37.188,16.755,37.188,37.188v515.325H1926.031z"/>
		<path class="cls-1" d="M1137.311,413.977h355.538v389.456c0,4.495,0.817,8.991,2.452,13.077l-68.247-68.246
			c-14.304-14.304-38.006-14.304-52.31,0c-14.303,14.303-14.303,38.005,0,52.309l129.139,129.138
			c7.355,7.355,16.755,11.034,26.154,11.034c9.398,0,18.798-3.679,26.154-11.034l129.138-129.138
			c14.303-14.304,14.303-38.006,0-52.309c-14.304-14.304-38.006-14.304-52.31,0l-68.246,68.246
			c1.635-4.086,2.451-8.582,2.451-13.077V377.196c0-20.433-16.755-37.188-37.188-37.188h-392.727
			c-20.433,0-37.188,16.755-37.188,37.188C1100.531,397.63,1116.878,413.977,1137.311,413.977z"/>
		<path class="cls-1" d="M432.775,1644.463c0,20.433,16.755,37.188,37.188,37.188h392.727c20.433,0,37.188-16.755,37.188-37.188
			c0-20.434-16.755-37.188-37.188-37.188H507.151v-389.457c0-4.495-0.817-8.99-2.452-13.077l68.247,68.247
			c7.356,7.355,16.756,11.034,26.155,11.034c9.398,0,18.798-3.678,26.154-11.034c14.303-14.304,14.303-38.006,0-52.309
			l-129.139-129.138c-14.303-14.304-38.005-14.304-52.309,0l-129.138,129.138c-14.303,14.303-14.303,38.005,0,52.309
			c14.304,14.304,38.006,14.304,52.31,0l68.246-68.247c-1.635,4.087-2.451,8.582-2.451,13.077V1644.463L432.775,1644.463z"/>
</svg>
