<svg id="Layer_1" data-name="Layer 1" xmlns="http://www.w3.org/2000/svg" viewBox="0 0 2000 2000">
    <defs>
        <style>
            .cls-1 {
                fill: #e74a3e;
            }
            
            .cls-2 {
                fill: #181818;
            }
        </style>
    </defs>	
    <title>Business-Collection</title>
		<path id="XMLID_847_" class="cls-2" d="M1840.663,1398.65h-359.992v-359.992c-198.813,0-359.991,161.178-359.991,359.992
			c0,198.813,161.178,359.991,359.991,359.991S1840.663,1597.464,1840.663,1398.65z"/>
		<path class="cls-1" d="M1086.726,738.393c38.044-32.727,60.544-80.181,60.544-130.906V307.629
			C1147.27,138.27,1009.409,0,839.64,0h-64.635C605.646,0,467.376,137.86,467.376,307.629v299.857
			c0,50.726,22.09,98.589,60.544,130.906v256.494c-60.544,30.271-247.495,129.27-420.945,272.039
			c-42.135,34.771-66.271,85.907-66.271,141.133v205.769c0,20.454,16.772,37.227,37.227,37.227s37.226-16.772,37.226-37.227
			v-205.769c0-32.727,14.318-62.998,39.272-83.861c183.269-150.542,382.083-250.768,419.718-269.176
			c17.181-8.591,28.227-26.182,28.227-45.408V720.393c0-12.272-6.137-24.136-16.363-30.681
			c-27.409-18.409-43.772-48.681-43.772-81.816V307.629c0-128.452,104.726-233.176,233.177-233.176h64.635
			c128.452,0,233.177,104.725,233.177,233.176v299.857c0,32.727-16.363,63.407-43.771,81.816
			c-10.228,6.954-16.363,18.408-16.363,30.681v289.221c0,20.454,16.772,37.227,37.226,37.227c20.455,0,37.227-16.772,37.227-37.227
			V738.393H1086.726z"/>
		<path class="cls-1" d="M906.729,1055.84c-20.454,0-37.227,16.772-37.227,37.227c0,17.999-7.772,34.362-20.454,45.816
			c-2.454,1.637-4.909,3.273-6.954,5.728c-9.818,6.954-22.091,10.636-34.772,10.636c-34.362,0-62.18-27.817-62.18-62.18
			c0-20.454-16.772-37.227-37.227-37.227s-37.227,16.772-37.227,37.227c0,32.727,11.454,62.998,31.09,86.316l-29.863,696.256
			c-0.408,11.046,4.092,21.682,12.273,29.045l95.315,85.907c6.954,6.546,15.954,9.409,24.954,9.409s18-3.272,24.954-9.409
			l96.952-87.543c8.182-7.363,12.682-18,12.272-29.045l-31.09-688.484c22.908-24.545,36.817-57.271,36.817-93.271
			C943.956,1072.203,927.184,1055.84,906.729,1055.84z M804.05,1913.274l-57.681-51.953l27.408-636.531
			c10.637,2.864,21.682,4.091,33.137,4.091c9.408,0,18.408-0.818,26.999-2.863l28.636,633.667L804.05,1913.274z"/>
		<path class="cls-1" d="M1840.663,1361.424h-322.766v-322.766c0-20.454-16.772-37.227-37.227-37.227
			c-218.858,0-396.81,177.95-396.81,396.81c0,218.858,177.951,396.809,396.81,396.809s396.81-177.95,396.81-396.809
			C1877.48,1378.196,1861.117,1361.424,1840.663,1361.424z M1480.671,1721.415c-177.95,0-322.766-144.814-322.766-322.765
			c0-165.27,125.18-302.312,285.539-320.721v320.721c0,20.453,16.772,37.227,37.227,37.227h320.72
			C1782.982,1596.236,1645.939,1721.415,1480.671,1721.415z"/>
		<path class="cls-1" d="M1639.804,924.524c-20.454,0-37.227,16.772-37.227,37.227v282.267c0,20.454,16.772,37.227,37.227,37.227
			h282.267c20.454,0,37.227-16.772,37.227-37.227c0-78.135-28.227-152.997-80.181-211.496
			C1818.981,963.796,1731.438,924.524,1639.804,924.524z M1677.03,1207.2v-205.359c56.453,8.591,108.406,36.817,146.86,80.18
			c31.499,35.591,51.544,78.953,58.498,125.18H1677.03z"/>
</svg>
