<svg id="Layer_1" data-name="Layer 1" xmlns="http://www.w3.org/2000/svg" viewBox="0 0 2000 2000">
    <defs>
        <style>
            .cls-1 {
                fill: #e74a3e;
            }
            
            .cls-2 {
                fill: #181818;
            }
        </style>
    </defs>	
    <title>Business-Collection</title>
		<path class="cls-2" d="M1865.632,203.594h-590.974c-53.502,0-97.203,43.7-97.203,97.203v360.629
			c0,53.502,43.7,97.202,97.203,97.202h76.373v172.351l179.701-172.351h334.899c53.503,0,97.202-43.7,97.202-97.202V300.796
			C1962.834,247.294,1919.135,203.594,1865.632,203.594z M1777.006,595.263h-414.131c-20.42,0-37.165-16.745-37.165-37.166
			s16.745-37.165,37.165-37.165h414.131c20.421,0,37.166,16.744,37.166,37.165S1797.427,595.263,1777.006,595.263z
			 M1777.006,447.417h-414.131c-20.42,0-37.165-16.745-37.165-37.166c0-20.42,16.745-37.166,37.165-37.166h414.131
			c20.421,0,37.166,16.745,37.166,37.166C1814.172,430.672,1797.427,447.417,1777.006,447.417z"/>
		<path class="cls-1" d="M969.573,659.383V398.815c0-149.888-121.707-271.595-271.595-271.595h-55.953
			c-149.888,0-271.595,121.707-271.595,271.595v260.567c0,44.926,19.195,86.584,52.277,115.99v217.275
			c-55.136,27.772-215.234,113.131-363.488,235.246C21.646,1258.934,0,1305.085,0,1354.094v178.478
			c0,20.42,16.745,37.165,37.166,37.165c20.421,0,37.166-16.745,37.166-37.165v-178.478c0-26.955,11.844-51.868,32.265-69.021
			c158.464-130.283,330.406-216.867,363.488-233.204c16.744-8.168,27.363-24.913,27.363-43.7V756.994
			c0-12.253-6.126-24.097-16.336-30.631c-22.463-15.111-35.941-40.024-35.941-66.98V398.815
			c0-109.046,88.626-197.672,197.673-197.672h55.952c109.047,0,197.672,88.626,197.672,197.672v260.567
			c0,26.956-13.478,51.869-35.939,66.98c-10.211,6.942-16.337,18.378-16.337,30.631v251.174c0,18.787,10.618,35.532,27.363,43.7
			c33.082,15.929,205.023,102.921,363.488,233.204c20.421,16.745,32.265,42.066,32.265,69.021v178.478
			c0,20.42,16.745,37.165,37.165,37.165c20.421,0,37.166-16.745,37.166-37.165v-178.478c0-49.009-21.646-95.16-59.22-126.199
			c-148.662-122.115-308.353-207.474-363.488-235.246V775.373C950.378,745.967,969.573,703.9,969.573,659.383z"/>
		<path class="cls-1" d="M756.382,1043.292c-20.421,0-37.166,16.745-37.166,37.165c0,14.295-6.126,26.956-15.928,35.94
			c-2.042,1.226-4.085,2.859-6.127,4.901c-7.76,5.31-17.153,8.576-27.363,8.576c-26.955,0-49.418-22.054-49.418-49.418
			c0-20.42-16.745-37.165-37.166-37.165s-37.165,16.745-37.165,37.165c0,28.998,10.21,55.545,26.955,76.782l-26.139,602.409
			c-0.408,11.027,4.084,21.646,12.253,28.998l82.907,74.739c6.943,6.534,15.929,9.394,24.914,9.394
			c8.984,0,17.97-3.268,24.913-9.394l84.133-75.965c8.168-7.352,12.661-17.971,12.253-28.997l-26.956-595.059
			c19.604-22.055,31.856-50.644,31.856-82.5C793.547,1060.037,776.802,1043.292,756.382,1043.292z M667.348,1785.787l-44.926-40.433
			l23.279-544.007c7.76,1.634,15.929,2.451,24.097,2.451c6.534,0,12.661-0.817,18.787-1.634l24.505,541.964L667.348,1785.787z"/>
		<path class="cls-1" d="M1865.632,166.837h-590.974c-73.923,0-134.368,60.037-134.368,134.368v360.629
			c0,73.923,60.037,134.368,134.368,134.368h39.207v135.185c0,14.703,8.985,28.181,22.463,33.898
			c4.493,2.042,9.803,2.858,14.703,2.858c9.394,0,18.787-3.676,25.73-10.21l169.082-161.731h319.788
			c73.923,0,134.368-60.037,134.368-134.368V300.796C1999.592,226.874,1939.555,166.837,1865.632,166.837z M1925.669,661.426
			c0,33.081-26.956,60.036-60.037,60.036h-334.899c-9.393,0-18.786,3.676-25.729,10.211l-117.214,112.313v-85.358
			c0-20.421-16.746-37.166-37.166-37.166h-76.373c-33.082,0-60.037-26.955-60.037-60.036V300.796
			c0-33.082,26.955-60.037,60.037-60.037h591.382c33.081,0,60.037,26.955,60.037,60.037V661.426z"/>
</svg>
