<svg id="Layer_1" data-name="Layer 1" xmlns="http://www.w3.org/2000/svg" viewBox="0 0 2000 2000">
    <defs>
        <style>
            .cls-1 {
                fill: #e74a3e;
            }
            
            .cls-2 {
                fill: #181818;
            }
        </style>
    </defs>	
    <title>Business-Collection</title>
		<path class="cls-2" d="M1840.191,159.156h-745.789c-67.613,0-122.933,55.32-122.933,122.933v454.851
			c0,67.612,55.319,122.932,122.933,122.932h96.297v217.181l227.016-217.181h422.477c67.613,0,122.934-54.909,122.934-122.522
			v-455.26C1963.125,214.476,1907.805,159.156,1840.191,159.156z M1355.428,550.491c-6.966,6.967-16.391,11.064-26.225,11.064
			c-9.835,0-19.26-3.688-26.226-11.064c-6.967-6.966-11.064-16.391-11.064-26.226c0-9.834,4.098-19.259,11.064-26.226
			c6.966-6.556,16.391-10.654,26.226-10.654c9.834,0,19.259,3.688,26.225,10.654c6.967,6.967,11.064,16.392,11.064,26.226
			C1366.492,534.101,1362.395,543.525,1355.428,550.491z M1493.522,550.491c-6.966,6.967-16.391,11.064-26.226,11.064
			c-9.834,0-19.26-3.688-26.226-11.064c-6.966-6.966-11.063-16.391-11.063-26.226c0-9.834,4.098-19.259,11.063-26.226
			c6.966-6.556,16.392-10.654,26.226-10.654c9.835,0,19.26,3.688,26.226,10.654c6.966,6.967,11.063,16.392,11.063,26.226
			C1504.586,534.101,1500.488,543.525,1493.522,550.491z M1632.026,550.491c-6.966,6.967-16.392,11.064-26.226,11.064
			s-19.669-3.688-26.635-11.064c-6.967-6.966-11.064-16.391-11.064-26.226c0-9.834,4.098-19.259,11.064-26.226
			c6.965-6.556,16.391-10.654,26.225-10.654c9.835,0,19.26,3.688,26.227,10.654c6.966,6.967,11.063,16.392,11.063,26.226
			C1642.681,534.101,1638.992,543.525,1632.026,550.491z"/>
		<path class="cls-1" d="M322.387,1715.071c1.639,0,3.688,0,5.326-0.409l146.699-21.719v147.929c0,20.489,16.801,37.29,37.29,37.29
			h776.113c20.489,0,37.29-16.801,37.29-37.29v-526.15c65.563-63.105,117.195-136.865,154.075-220.05
			c8.195-18.85,0-40.567-18.851-49.173c-18.85-8.195-40.566,0-49.172,18.851c-34.831,78.676-84.824,147.928-148.339,206.526
			c-7.786,6.966-11.884,16.801-11.884,27.454v504.843H548.991v-153.665c0-10.654-4.917-20.898-12.702-28.274
			c-8.196-6.967-18.85-10.245-29.504-8.605l-186.857,28.274c-54.5-1.229-98.346-45.895-98.346-100.805v-242.587
			c0-20.488-16.801-37.289-37.29-37.289h-62.695c-21.309,0-37.29-6.146-43.437-16.392c-6.146-10.654-4.507-27.455,5.737-46.305
			l133.586-255.289c2.868-5.327,4.098-11.064,4.098-17.211v-109c0-239.718,140.553-459.767,358.143-560.981
			c74.579-35.241,154.075-54.91,236.85-58.598c20.489-0.82,36.471-18.44,35.65-38.929c-0.819-20.489-18.029-36.47-38.928-35.65
			c-92.609,4.098-181.94,26.226-265.125,65.564C304.356,300.529,147.002,547.213,147.002,815.616v99.984L17.514,1162.695
			c-22.128,42.616-23.357,86.053-3.278,119.244c20.079,33.191,59.008,52.451,107.361,52.451h25.815v205.707
			C147.002,1636.805,225.679,1715.071,322.387,1715.071z"/>
		<path class="cls-1" d="M1175.947,1111.473c4.508,2.049,9.834,2.869,14.752,2.869c9.425,0,18.85-3.688,25.815-10.244
			l216.361-206.937h407.315c88.102,0,159.813-71.711,159.813-159.813v-455.26c0-88.102-71.711-159.812-159.813-159.812h-745.79
			c-88.101,0-159.812,71.71-159.812,159.812v455.26c0,88.102,71.711,159.813,159.812,159.813h59.008v180.301
			C1153.409,1092.214,1162.425,1105.736,1175.947,1111.473z M1094.402,822.991c-47.125,0-85.644-38.519-85.644-85.643v-455.26
			c0-47.124,38.519-85.643,85.644-85.643h745.789c47.125,0,85.644,38.519,85.644,85.643v455.26
			c0,47.124-38.519,85.643-85.644,85.643h-422.477c-9.426,0-18.851,3.688-25.816,10.245L1227.579,990.59V860.281
			c0-20.489-16.801-37.29-37.29-37.29H1094.402L1094.402,822.991z"/>
</svg>
