<svg id="Layer_1" data-name="Layer 1" xmlns="http://www.w3.org/2000/svg" viewBox="0 0 2000 2000">
    <defs>
        <style>
            .cls-1 {
                fill: #e74a3e;
            }
            
            .cls-2 {
                fill: #181818;
            }
        </style>
    </defs>	
    <title>Business-Collection</title>
		<rect id="XMLID_468_" x="1194.547" y="1522.992" class="cls-2" width="681.791" height="439.812"/>
		<path class="cls-1" d="M710.591,75.209C433.869,203.965,254.837,484.365,254.837,789.291v115.675l-148.784,284.08
			c-24.525,47.006-26.16,94.829-4.088,131.208c22.073,36.378,64.991,57.225,118.128,57.225h34.744v240.752
			c0,107.5,87.472,194.973,194.972,194.973c1.636,0,3.679,0,5.314-0.409l174.534-25.751l0.409,175.761
			c0,20.438,16.759,37.196,37.196,37.196l0,0c20.438,0,37.195-16.759,37.195-37.196l-0.408-218.68
			c0-10.627-4.905-20.846-12.671-28.203c-8.175-6.949-18.803-10.219-29.431-8.584l-213.774,31.883
			c-65.399-1.227-118.128-55.182-118.128-120.989v-277.948c0-20.438-16.759-37.196-37.196-37.196h-73.166
			c-26.568,0-46.188-7.766-54.772-21.663c-8.175-13.489-6.131-35.152,6.131-58.451l153.28-292.254
			c2.861-5.314,4.088-11.036,4.088-17.168V788.882c0-276.313,162.272-530.554,413.243-647.047
			c95.647-45.371,198.651-68.261,305.334-68.261c394.032,0,714.49,320.458,714.49,714.49c0,73.574-11.036,146.332-33.108,216.228
			c-6.131,19.62,4.496,40.466,24.116,46.597c19.62,6.132,40.466-4.496,46.597-24.115c24.525-76.845,36.787-156.959,36.787-238.3
			C1835.871,353.566,1482.305,0,1047.398,0C929.68,0,816.456,25.342,710.591,75.209z"/>
		<path class="cls-1" d="M1194.547,1485.796c-20.437,0-37.195,16.759-37.195,37.196v439.812c0,20.438,16.759,37.196,37.195,37.196
			h681.791c20.438,0,37.195-16.759,37.195-37.196v-440.221c0-20.437-16.758-37.195-37.195-37.195h-87.881v-132.435
			c0-139.383-113.632-253.015-253.015-253.015s-253.015,113.632-253.015,253.015c0,20.438,16.759,37.196,37.196,37.196
			s37.196-16.759,37.196-37.196c0-98.508,80.114-178.622,178.623-178.622c98.508,0,178.622,80.114,178.622,178.622v132.435h-519.518
			L1194.547,1485.796L1194.547,1485.796z M1839.551,1925.608h-607.808v-365.829h607.808V1925.608L1839.551,1925.608z"/>
</svg>
