<svg id="Layer_1" data-name="Layer 1" xmlns="http://www.w3.org/2000/svg" viewBox="0 0 2000 2000">
    <defs>
        <style>
            .cls-1 {
                fill: #e74a3e;
            }
            
            .cls-2 {
                fill: #181818;
            }
        </style>
    </defs>	
    <title>Business-Collection</title>
		<path id="XMLID_738_" class="cls-2" d="M1594.043,1962.821v-166.692c0-35.136-15.525-68.638-42.898-91.108
				c-150.758-123.794-313.365-205.914-346.458-222.257c-3.678-1.634-6.129-5.72-6.129-9.805v-234.514
				c29.417-19.61,49.027-53.112,49.027-91.108V903.836c0-120.934-98.055-219.396-219.396-219.396h-26.147h-26.148
				c-120.934,0-219.396,98.054-219.396,219.396v243.093c0,37.995,19.61,71.497,49.026,91.108v234.513
				c0,4.086-2.451,7.763-6.128,9.806c-33.094,16.342-195.7,98.463-346.458,222.256c-27.374,22.471-42.899,55.973-42.899,91.109
				v166.691"/>
		<path class="cls-1" d="M999.998,514.887c20.428,0,37.179-16.751,37.179-37.179V126.347l68.638,68.638
			c7.354,7.354,16.751,11.031,26.148,11.031c9.396,0,18.793-3.677,26.147-11.031c14.3-14.299,14.3-37.996,0-52.295L1026.146,10.725
			c-14.3-14.299-37.996-14.299-52.296,0L841.886,142.689c-14.3,14.299-14.3,37.996,0,52.295c14.299,14.3,37.995,14.3,52.295,0
			l68.639-68.638v351.361C962.819,498.545,979.57,514.887,999.998,514.887z"/>
		<path class="cls-1" d="M285.836,1067.668c14.299-14.3,14.299-37.996,0-52.296l-68.638-68.638H568.56
			c20.428,0,37.179-16.751,37.179-37.18c0-20.428-16.751-37.179-37.179-37.179H217.198l68.638-68.638
			c14.299-14.3,14.299-37.996,0-52.296c-14.3-14.299-37.996-14.299-52.296,0L101.576,883.407
			c-6.946,6.945-11.031,16.343-11.031,26.147c0,9.806,4.085,19.203,11.031,26.148l131.964,131.965
			c7.354,7.354,16.751,11.031,26.148,11.031S278.482,1074.613,285.836,1067.668z"/>
		<path class="cls-1" d="M1431.437,946.325h351.361l-68.638,68.639c-14.3,14.299-14.3,37.996,0,52.295
			c7.354,7.354,16.75,11.031,26.147,11.031c9.396,0,18.794-3.677,26.147-11.031l131.965-131.964
			c6.945-6.946,11.031-16.343,11.031-26.148s-4.086-19.202-11.031-26.147l-131.965-131.965c-14.299-14.3-37.996-14.3-52.295,0
			c-14.3,14.3-14.3,37.996,0,52.296l68.638,68.638h-351.361c-20.428,0-37.179,16.751-37.179,37.179
			S1411.009,946.325,1431.437,946.325z"/>
		<path class="cls-1" d="M346.303,292.631v186.711c0,20.429,16.751,37.18,37.18,37.18c20.428,0,37.179-16.751,37.179-37.18v-97.237
			l248.403,248.404c7.354,7.354,16.752,11.031,26.148,11.031s18.793-3.677,26.147-11.031c14.3-14.299,14.3-37.996,0-52.295
			L472.956,329.81h97.237c20.428,0,37.179-16.751,37.179-37.179c0-20.428-16.751-37.179-37.179-37.179h-187.12
			C362.646,255.452,346.303,272.203,346.303,292.631z"/>
		<path class="cls-1" d="M1305.191,641.132c9.397,0,18.794-3.677,26.148-11.031l248.404-248.404v97.237
			c0,20.428,16.75,37.179,37.178,37.179c20.429,0,37.18-16.751,37.18-37.179V292.631c0-20.428-16.751-37.179-37.18-37.179h-186.711
			c-20.428,0-37.179,16.751-37.179,37.179c0,20.428,16.751,37.179,37.179,37.179h97.236l-248.403,248.404
			c-14.3,14.3-14.3,37.996,0,52.295C1285.989,637.863,1295.391,641.132,1305.191,641.132z"/>
		<path class="cls-1" d="M719.727,1146.928c0,42.082,17.977,81.712,49.027,109.494v200.603
			c-52.705,26.965-201.012,106.226-338.696,219.396c-35.953,29.417-56.381,73.132-56.381,119.708v166.692
			c0,20.428,16.751,37.179,37.179,37.179s37.179-16.751,37.179-37.179v-166.692c0-24.514,10.623-46.984,29.416-62.51
			c147.899-121.75,308.463-202.646,339.104-217.354c16.343-8.171,26.965-24.922,26.965-42.898v-234.514
			c0-12.256-6.128-24.104-16.342-30.642c-20.428-13.482-32.686-36.361-32.686-60.467V904.244
			c0-100.506,81.713-182.218,182.218-182.218h52.296c100.506,0,182.217,81.712,182.217,182.218v242.684
			c0,24.514-12.256,46.984-32.685,60.467c-10.214,6.946-16.342,18.386-16.342,30.643v234.513c0,17.977,10.622,35.136,26.965,42.898
			c30.642,15.117,191.206,96.012,339.104,217.354c18.793,15.524,29.416,37.995,29.416,62.509v166.692
			c0,20.428,16.751,37.179,37.179,37.179c20.429,0,37.179-16.751,37.179-37.179v-166.692c0-46.575-20.428-90.291-56.381-119.708
			c-137.685-113.171-285.991-192.84-338.695-219.396v-200.603c31.051-27.781,49.027-67.412,49.027-109.493V902.609
			c0-141.361-114.806-256.166-256.167-256.166h-52.296c-141.361,0-256.167,114.805-256.167,256.166v244.318H719.727
			L719.727,1146.928z"/>
</svg>
