<svg id="Layer_1" data-name="Layer 1" xmlns="http://www.w3.org/2000/svg" viewBox="0 0 2000 2000">
    <defs>
        <style>
            .cls-1 {
                fill: #e74a3e;
            }
            
            .cls-2 {
                fill: #181818;
            }
        </style>
    </defs>	
    <title>Business-Collection</title>
		<path id="XMLID_7410_" class="cls-2" d="M992.237,976.098L992.237,976.098c0.408,0,1.226,0,1.634,0s1.226,0,1.635,0l0,0
			c304.801-3.269,260.674-410.214,260.674-410.214c-12.666-271.706-239.837-269.663-262.309-268.846
			c-22.472-0.817-249.643-3.269-262.309,268.846C731.972,566.292,687.845,973.238,992.237,976.098z"/>
		<path class="cls-1" d="M1000,0C613.483,0,298.876,314.606,298.876,701.124c0,184.27,71.91,352.604,188.764,477.63
			c2.451,3.269,5.312,6.537,8.58,8.988c127.477,131.972,306.436,214.505,503.779,214.505c386.517,0,701.123-314.606,701.123-701.123
			C1701.123,314.606,1386.517,0,1000,0z M590.603,1175.076c190.398-62.104,257.405-137.691,280.694-186.721
			c35.139,15.935,74.362,24.106,118.488,24.924c0.817,0,2.043,0,2.86,0h1.634h1.635c0.817,0,2.043,0,2.86,0
			c47.396-0.817,89.888-10.623,127.068-29.01c21.654,48.621,87.027,127.068,283.146,190.807
			c-109.908,94.791-252.91,152.81-409.396,152.81C843.514,1327.886,700.511,1270.275,590.603,1175.076z M995.506,939.326
			c-0.409,0-0.817,0-1.227,0l0,0c-0.408,0-0.816,0-1.226,0c-64.964-0.817-114.402-21.246-151.175-62.922
			c-93.156-104.597-72.727-303.983-72.727-306.026c0-0.817,0-1.634,0-2.451c9.806-216.548,169.969-233.3,218.999-233.3
			c2.043,0,4.085,0,4.902,0s2.043,0,2.86,0c1.226,0,2.86,0,4.903,0c48.62,0,208.784,16.752,218.999,233.3c0,0.816,0,1.634,0,2.451
			c0.408,2.043,20.429,201.021-72.728,306.026C1109.908,918.08,1060.47,938.509,995.506,939.326z M1469.05,1116.241
			c-270.479-78.447-279.469-174.464-279.469-175.281c0,1.226,0,2.043,0,2.043h-4.086c5.721-5.312,11.44-11.031,16.752-17.16
			C1313.789,800,1295.403,584.27,1293.36,563.841c-10.623-223.902-164.249-303.575-292.952-303.575c-2.451,0-4.902,0-6.537,0
			c-1.634,0-3.677,0-6.537,0c-128.294,0-281.92,79.265-292.952,303.166c-2.043,20.021-20.837,236.16,91.113,362.003
			c6.946,7.763,14.709,15.117,22.063,22.063c-6.129,20.43-46.17,100.92-277.426,168.335
			c-98.06-110.725-157.712-255.771-157.712-415.117c0-345.659,281.103-627.17,627.171-627.17
			c346.066,0,627.17,281.103,627.17,627.17C1627.171,860.062,1567.109,1005.516,1469.05,1116.241z"/>
		<path class="cls-1" d="M1551.583,1678.039c0-20.43-16.752-37.182-37.181-37.182H485.598c-20.429,0-37.181,16.752-37.181,37.182
			c0,20.429,16.752,37.181,37.181,37.181h1028.805C1534.831,1715.22,1551.583,1698.468,1551.583,1678.039z"/>
		<path class="cls-1" d="M1370.582,1962.819c0-20.43-16.752-37.181-37.181-37.181H666.599c-20.429,0-37.181,16.751-37.181,37.181
			c0,20.429,16.752,37.181,37.181,37.181h667.212C1353.83,1999.592,1370.582,1983.248,1370.582,1962.819z"/>
</svg>
