<svg id="Layer_1" data-name="Layer 1" xmlns="http://www.w3.org/2000/svg" viewBox="0 0 2000 2000">
    <defs>
        <style>
            .cls-1 {
                fill: #e74a3e;
            }
            
            .cls-2 {
                fill: #181818;
            }
        </style>
    </defs>	
    <title>Business-Collection</title>
		<path id="XMLID_1187_" class="cls-2" d="M1594.164,1963.223v-166.727c0-35.144-15.527-68.652-42.906-91.127
				c-150.79-123.819-313.43-205.956-346.529-222.302c-3.678-1.635-6.13-5.722-6.13-9.808v-234.562
				c29.422-19.614,49.037-53.123,49.037-91.127V904.021c0-120.959-98.074-219.441-219.441-219.441h-26.153h-26.152
				c-120.959,0-219.033,98.074-219.033,219.032v243.552c0,38.003,19.615,71.512,49.037,91.127v234.561
				c0,4.087-2.451,7.765-6.129,9.808c-33.101,16.346-195.74,98.483-346.529,222.302c-27.379,22.476-42.908,55.984-42.908,91.127
				v166.727"/>
		<path class="cls-1" d="M410.33,2000c20.433,0,37.187-16.754,37.187-37.187v-166.727c0-24.519,10.625-46.993,29.423-62.521
			c147.929-121.776,308.525-202.688,339.174-217.398c16.346-8.173,26.97-24.927,26.97-42.907v-234.562
			c0-12.259-6.13-24.109-16.346-30.647c-20.432-13.485-32.691-36.369-32.691-60.479V904.021
			c0-100.526,81.729-182.255,182.255-182.255h52.307c100.525,0,182.254,81.729,182.254,182.255v243.142
			c0,24.52-12.259,46.994-32.691,60.479c-10.216,6.947-16.346,18.389-16.346,30.648v234.561c0,17.98,10.625,35.144,26.971,42.907
			c30.648,15.12,191.245,96.031,339.174,217.398c18.797,15.528,29.422,38.004,29.422,62.522v166.727
			c0,20.432,16.755,37.187,37.187,37.187c20.433,0,37.187-16.755,37.187-37.187v-166.727c0-46.585-20.432-90.311-56.393-119.732
			c-137.713-113.194-286.05-192.88-338.765-219.441v-200.644c31.057-27.787,49.037-67.426,49.037-109.516V902.794
			c0-141.391-114.829-256.219-256.219-256.219h-52.307c-141.391,0-256.219,114.828-256.219,256.219v244.368
			c0,42.091,17.979,81.729,49.037,109.517v200.644c-52.715,26.971-201.053,106.247-338.765,219.441
			c-35.961,29.422-56.394,73.146-56.394,119.732v166.726C373.553,1983.654,389.898,2000,410.33,2000z"/>
		<path class="cls-1" d="M1000.002,514.992c20.433,0,37.187-16.754,37.187-37.187V126.373l68.652,68.652
			c7.355,7.355,16.754,11.033,26.153,11.033c9.398,0,18.797-3.678,26.152-11.033c14.303-14.303,14.303-38.004,0-52.306
			L1026.155,10.727c-14.303-14.303-38.004-14.303-52.307,0L841.857,142.719c-14.303,14.302-14.303,38.003,0,52.306
			c14.303,14.302,38.004,14.302,52.307,0l68.651-68.652v351.433C962.815,498.646,979.57,514.992,1000.002,514.992z"/>
		<path class="cls-1" d="M605.662,909.332c0-20.432-16.755-37.187-37.187-37.187H217.042l68.652-68.651
			c14.303-14.303,14.303-38.004,0-52.307c-14.302-14.303-38.004-14.303-52.306,0L101.396,883.18
			c-6.947,6.946-11.033,16.346-11.033,26.152c0,9.808,4.086,19.206,11.033,26.153l131.992,131.991
			c7.355,7.356,16.754,11.034,26.153,11.034c9.399,0,18.798-3.678,26.153-11.034c14.303-14.302,14.303-38.003,0-52.306
			l-68.652-68.652h351.433C588.907,946.519,605.662,929.765,605.662,909.332z"/>
		<path class="cls-1" d="M1394.338,909.332c0,20.433,16.755,37.187,37.188,37.187h351.432l-68.651,68.652
			c-14.302,14.303-14.302,38.004,0,52.307c7.355,7.355,16.755,11.033,26.153,11.033s18.797-3.678,26.152-11.033l131.992-131.992
			c6.947-6.946,11.033-16.346,11.033-26.153c0-9.807-4.086-19.206-11.033-26.152l-131.992-131.992
			c-14.302-14.303-38.003-14.303-52.306,0c-14.302,14.303-14.302,38.004,0,52.307l68.651,68.652h-351.432
			C1411.097,872.555,1394.338,888.9,1394.338,909.332z"/>
		<path class="cls-1" d="M606.888,292.69c0-20.432-16.755-37.187-37.187-37.187h-186.75c-20.432,0-37.187,16.754-37.187,37.187
			v186.75c0,20.432,16.755,37.187,37.187,37.187c20.433,0,37.187-16.755,37.187-37.187v-97.257l248.455,248.455
			c7.355,7.355,16.755,11.034,26.153,11.034s18.797-3.679,26.152-11.034c14.303-14.302,14.303-38.004,0-52.306L472.444,329.877
			h97.257C590.133,329.468,606.888,313.123,606.888,292.69z"/>
		<path class="cls-1" d="M1279.102,630.638c7.355,7.355,16.754,11.034,26.152,11.034s18.798-3.679,26.153-11.034l248.455-248.455
			v97.257c0,20.432,16.754,37.187,37.187,37.187c20.432,0,37.187-16.755,37.187-37.187V292.69c0-20.432-16.755-37.187-37.187-37.187
			h-186.75c-20.432,0-37.187,16.754-37.187,37.187s16.755,37.187,37.187,37.187h97.257l-248.455,248.455
			C1264.394,592.634,1264.394,615.927,1279.102,630.638z"/>
</svg>
