<svg id="Layer_1" data-name="Layer 1" xmlns="http://www.w3.org/2000/svg" viewBox="0 0 2000 2000">
    <defs>
        <style>
            .cls-1 {
                fill: #e74a3e;
            }
            
            .cls-2 {
                fill: #181818;
            }
        </style>
    </defs>	
    <title>Business-Collection</title>
		<path class="cls-1" d="M269.326,1650.593c20.433,0,37.188-16.756,37.188-37.188v-205.558c0-32.693,14.304-63.343,39.232-83.776
			c183.49-150.797,382.101-250.92,420.105-269.31c17.573-8.582,28.198-25.745,28.198-45.361V720.065
			c0-12.26-6.13-24.111-16.347-30.649c-27.381-18.391-43.727-49.04-43.727-81.733V307.315
			c0-128.729,104.617-233.347,233.347-233.347h64.569c128.729,0,233.347,104.618,233.347,233.347v299.959
			c0,32.692-16.347,63.343-43.728,81.732c-10.217,6.947-16.347,18.39-16.347,30.649v289.334c0,19.616,10.626,36.78,28.198,45.362
			c38.006,18.39,236.616,118.921,420.105,269.309c24.93,20.434,39.232,51.083,39.232,83.776v205.558
			c0,20.434,16.755,37.188,37.188,37.188c20.433,0,37.188-16.755,37.188-37.188v-205.558c0-54.761-24.111-106.252-66.612-140.989
			c-173.683-142.623-360.851-241.929-421.332-272.17V738.455c38.005-32.693,60.481-80.098,60.481-130.772V307.315
			C1339.615,137.72,1201.896,0,1032.301,0h-64.569C798.137,0,660.417,137.72,660.417,307.315v299.959
			c0,50.674,22.067,98.487,60.481,130.772v256.641c-60.481,30.241-247.241,129.138-421.332,272.17
			c-42.092,34.736-66.612,86.228-66.612,140.989v205.558C232.137,1634.246,248.893,1650.593,269.326,1650.593z"/>
		<path class="cls-1" d="M1098.5,1055.578c-20.433,0-37.188,16.755-37.188,37.188c0,18.39-7.765,34.736-20.433,46.179
			c-2.452,1.635-4.904,3.27-6.947,5.722c-9.809,6.947-22.068,10.625-35.146,10.625c-34.327,0-62.525-27.789-62.525-62.525
			c0-20.434-16.755-37.188-37.188-37.188s-37.188,16.755-37.188,37.188c0,32.693,11.852,62.935,31.059,86.637l-30.241,696.362
			c-0.408,11.034,4.087,21.66,12.26,29.016l95.219,85.819c6.947,6.539,15.938,9.399,24.929,9.399c8.99,0,17.981-3.27,24.929-9.399
			l97.67-87.454c8.174-7.355,12.669-17.98,12.261-29.015l-31.059-688.189c22.885-24.521,36.779-57.214,36.779-93.176
			C1135.692,1071.925,1118.934,1055.578,1098.5,1055.578z M995.93,1913.363l-57.621-51.9l27.38-636.698
			c10.625,2.861,21.659,4.087,33.102,4.087c9.399,0,18.39-0.817,26.972-2.86l28.607,633.837L995.93,1913.363z"/>
</svg>
