<svg id="Layer_1" data-name="Layer 1" xmlns="http://www.w3.org/2000/svg" viewBox="0 0 2000 2000">
    <defs>
        <style>
            .cls-1 {
                fill: #e74a3e;
            }
            
            .cls-2 {
                fill: #181818;
            }
        </style>
    </defs>	
    <title>Business-Collection</title>
		<polyline id="XMLID_606_" class="cls-2" points="1062.475,1169.865 1094.324,1875.459 997.55,1962.842 902.409,1876.685 
			933.034,1169.865 		"/>
		<path class="cls-1" d="M271.131,1650.47c20.417,0,37.158-16.741,37.158-37.158v-205.798c0-32.667,14.291-63.291,39.199-83.708
			c183.341-150.674,381.789-250.715,419.764-269.498c17.559-8.574,28.175-25.725,28.175-45.324V719.478
			c0-12.25-6.125-24.092-16.333-30.625c-27.358-18.375-44.1-48.999-44.1-81.666V307.473c0-128.624,104.532-233.157,233.156-233.157
			h64.516c128.624,0,233.156,104.533,233.156,233.157v300.122c0,33.075-16.333,63.291-44.1,81.666
			c-10.208,6.941-16.333,18.375-16.333,30.625v289.506c0,19.6,11.025,36.75,28.175,45.325
			c37.975,18.374,236.832,118.823,419.764,269.497c24.908,20.417,39.199,51.042,39.199,83.708v205.798
			c0,20.417,16.742,37.158,37.158,37.158s37.158-16.741,37.158-37.158v-205.798c0-54.717-24.092-106.166-66.558-140.874
			c-173.54-142.507-360.556-241.731-420.988-271.947V738.669c37.975-32.666,60.433-80.032,60.433-131.074V307.473
			C1339.73,138.016,1201.715,0,1032.258,0h-64.516C798.285,0,660.27,138.016,660.27,307.473v300.122
			c0,50.633,22.458,98.408,60.433,131.074V995.1c-60.433,30.217-247.448,129.441-420.988,271.948
			c-42.058,34.708-66.558,86.157-66.558,140.874v205.798C234.381,1633.729,250.714,1650.47,271.131,1650.47z"/>
		<path class="cls-1" d="M1100.041,1055.533c-20.417,0-37.158,16.741-37.158,37.158c0,18.374-7.758,34.708-20.416,46.141
			c-2.45,1.634-4.9,3.267-6.942,5.717c-9.8,6.941-22.05,10.616-35.116,10.616c-34.3,0-62.475-28.175-62.475-62.474
			c0-20.417-16.741-37.158-37.158-37.158c-20.416,0-37.158,16.741-37.158,37.158c0,32.666,11.842,62.883,31.033,86.565
			l-30.216,696.203c-0.408,11.024,4.083,21.642,12.25,28.991l95.141,86.157c6.941,6.533,15.925,9.392,24.908,9.392
			s17.967-3.267,24.908-9.392l96.774-87.382c8.166-7.351,12.658-17.967,12.25-28.992l-31.033-688.036
			c22.866-24.499,37.158-57.166,37.158-93.099C1137.199,1072.274,1120.457,1055.533,1100.041,1055.533z M997.55,1913.025
			l-57.574-51.857l27.358-636.586c10.616,2.857,21.641,4.083,33.074,4.083c9.392,0,18.375-0.817,27.358-2.858l28.583,633.319
			L997.55,1913.025z"/>
</svg>
