<svg id="Layer_1" data-name="Layer 1" xmlns="http://www.w3.org/2000/svg" viewBox="0 0 2000 2000">
    <defs>
        <style>
            .cls-1 {
                fill: #e74a3e;
            }
            
            .cls-2 {
                fill: #181818;
            }
        </style>
    </defs>	
    <title>Business-Collection</title>
		<rect id="XMLID_1301_" x="1194.508" y="1523.09" class="cls-2" width="682.06" height="439.722"/>
		<path class="cls-1" d="M1752.742,1051.083c19.615,6.13,40.457-4.495,46.588-24.111c24.52-76.829,36.779-156.927,36.779-238.659
			C1836.109,353.494,1482.615,0,1047.797,0C930.103,0,816.494,25.337,711.059,75.603
			c-277.482,128.32-456.478,408.664-456.478,713.935V905.19l-148.753,284.021c-24.52,46.997-26.154,94.811-4.086,131.182
			c22.067,36.371,64.978,57.213,118.104,57.213h34.736v240.703c0,107.479,87.454,194.932,194.933,194.932
			c1.635,0,3.678,0,5.313-0.408l174.5-25.746l0.408,175.726c0,20.434,16.756,37.188,37.188,37.188l0,0
			c20.433,0,37.188-16.755,37.188-37.188l-0.408-218.635c0-10.626-4.904-20.842-12.669-28.198
			c-8.174-6.947-18.799-10.217-29.424-8.582l-213.731,31.876c-65.386-1.226-118.512-55.17-118.512-120.964v-277.892
			c0-20.434-16.756-37.188-37.189-37.188h-72.333c-26.563,0-46.179-7.765-54.761-21.659c-8.173-13.895-6.13-35.146,6.13-58.438
			l153.249-292.195c2.86-5.313,4.086-11.033,4.086-17.163V789.13c0-276.666,162.24-530.446,413.159-646.915
			c96.036-45.361,198.61-68.247,305.272-68.247c393.951,0,714.344,320.392,714.344,714.344c0,73.56-11.034,146.302-33.102,216.183
			C1722.092,1024.111,1733.126,1044.953,1752.742,1051.083z"/>
		<path class="cls-1" d="M1913.756,1962.812V1523.09c0-20.434-16.756-37.188-37.188-37.188h-88.271v-132.407
			c0-139.354-113.608-252.963-252.963-252.963s-252.963,113.608-252.963,252.963v132.407h-88.271
			c-20.433,0-37.188,16.755-37.188,37.188v439.722c0,20.434,16.756,37.188,37.188,37.188h682.06
			C1897,2000,1913.756,1983.244,1913.756,1962.812z M1356.747,1353.494c0-98.488,80.099-178.995,178.995-178.995
			s178.994,80.099,178.994,178.995v132.407h-357.581v-132.407H1356.747z M1839.379,1926.031h-607.683v-366.162h607.683V1926.031
			L1839.379,1926.031z"/>
</svg>
