<svg id="Layer_1" data-name="Layer 1" xmlns="http://www.w3.org/2000/svg" viewBox="0 0 2000 2000">
    <defs>
        <style>
            .cls-1 {
                fill: #e74a3e;
            }
            
            .cls-2 {
                fill: #181818;
            }
        </style>
    </defs>	
    <title>Business-Collection</title>
		<path class="cls-2" d="M1865.797,203.753h-590.659c-53.437,0-97.083,43.646-97.083,97.083V661.84
			c0,53.437,43.646,97.083,97.083,97.083h76.28v172.14l179.89-172.14h334.489c53.437,0,97.083-44.055,97.083-97.491V300.836
			C1962.88,247.399,1919.232,203.753,1865.797,203.753z M1459.106,518.254c-6.935,6.935-16.316,11.014-26.106,11.014
			c-9.789,0-19.172-4.079-26.106-11.014s-11.014-16.316-11.014-26.106s4.079-19.172,11.014-26.106s16.317-11.014,26.106-11.014
			c9.383,0,19.172,3.672,26.106,11.014c6.935,6.935,11.014,16.316,11.014,26.106S1466.041,511.319,1459.106,518.254z
			 M1596.981,518.254c-6.935,6.935-16.316,11.014-26.106,11.014s-19.172-4.079-26.106-11.014s-11.014-16.316-11.014-26.106
			s3.671-19.172,10.606-26.106c6.934-6.935,16.316-11.014,26.105-11.014c9.79,0,19.172,3.672,26.515,11.014
			c6.935,6.935,11.014,16.316,11.014,26.106S1603.916,511.319,1596.981,518.254z M1734.448,518.254
			c-6.935,6.935-16.316,11.014-26.106,11.014c-9.789,0-19.172-4.079-26.106-11.014s-11.014-16.316-11.014-26.106
			s3.671-19.172,10.606-26.106c6.934-6.935,16.316-11.014,26.105-11.014c9.791,0,19.172,3.672,26.515,11.014
			c6.935,6.935,11.014,16.316,11.014,26.106S1741.383,511.319,1734.448,518.254z"/>
		<path class="cls-1" d="M1281.257,1228.023c-148.48-121.966-308.383-207.22-363.451-235.366V775.239
			c33.041-28.962,52.213-70.977,52.213-115.847V399.144c0-149.705-121.966-271.671-271.671-271.671h-55.884
			c-149.704,0-271.671,121.966-271.671,271.671v260.249c0,44.87,19.172,86.885,52.213,115.847v217.418
			c-55.067,27.738-214.97,113.4-363.45,235.366C21.62,1259.025,0,1305.119,0,1354.069v178.258c0,20.396,16.725,37.12,37.12,37.12
			s37.12-16.725,37.12-37.12v-178.258c0-26.923,11.83-52.213,32.225-68.938c158.679-130.125,330.41-217.011,363.451-232.919
			c16.725-8.158,27.331-24.883,27.331-43.646V757.291c0-12.237-6.119-24.066-16.317-30.593
			c-22.435-15.093-35.896-39.976-35.896-66.898V399.551c0-108.912,88.518-197.43,197.431-197.43h55.884
			c108.913,0,197.431,88.518,197.431,197.43V659.8c0,26.923-13.461,51.806-35.896,66.898c-10.198,6.935-16.316,18.355-16.316,30.593
			v250.867c0,18.356,10.605,35.488,27.33,43.646c33.041,15.909,204.772,102.795,363.451,232.919
			c20.396,16.725,32.225,42.015,32.225,68.938v178.259c0,20.396,16.725,37.119,37.12,37.119c20.396,0,37.12-16.724,37.12-37.119
			v-178.259C1340.812,1304.712,1319.192,1259.025,1281.257,1228.023z"/>
		<path class="cls-1" d="M756.68,1043.239c-20.396,0-37.12,16.724-37.12,37.12c0,14.276-6.119,26.922-15.909,35.896
			c-2.039,1.224-4.078,2.855-6.118,4.895c-7.751,5.303-17.133,8.566-27.33,8.566c-27.33,0-49.357-22.027-49.357-49.357
			c0-20.396-16.725-37.12-37.12-37.12c-20.396,0-37.121,16.724-37.121,37.12c0,28.962,10.198,55.476,26.923,76.688l-26.106,602.488
			c-0.408,11.014,4.079,21.619,12.237,28.962l82.807,74.647c6.935,6.527,15.908,9.383,24.883,9.383
			c8.974,0,17.948-3.264,24.883-9.383l84.03-75.871c8.158-7.343,12.646-17.948,12.237-28.962l-26.923-595.146
			c19.988-22.027,31.817-50.581,31.817-82.398C793.8,1059.963,777.075,1043.239,756.68,1043.239z M667.754,1785.642l-44.87-40.791
			l23.659-544.157c7.75,1.632,15.908,2.447,24.475,2.447c6.527,0,12.646-0.815,19.172-1.631l24.475,542.117L667.754,1785.642z"/>
		<path class="cls-1" d="M1865.797,167.041h-590.659c-73.832,0-134.203,60.372-134.203,134.204v360.188
			c0,73.833,60.371,134.204,134.203,134.204h39.16v135.02c0,14.685,8.974,28.146,22.435,33.856c4.487,2.039,9.79,2.855,14.686,2.855
			c9.382,0,18.764-3.671,25.698-10.198l168.876-161.941h319.805c73.832,0,134.203-60.371,134.203-134.203V300.836
			C2000,227.004,1939.629,167.041,1865.797,167.041z M1926.168,661.432c0,33.041-26.922,60.371-60.371,60.371h-334.489
			c-9.382,0-18.765,3.672-25.698,10.198l-117.071,112.176v-85.661c0-20.396-16.725-37.12-37.12-37.12h-76.28
			c-33.041,0-60.371-26.923-60.371-60.372V300.836c0-33.041,26.923-60.371,60.371-60.371h590.659
			c33.041,0,60.371,26.922,60.371,60.371V661.432z"/>
</svg>
