<svg id="Layer_1" data-name="Layer 1" xmlns="http://www.w3.org/2000/svg" viewBox="0 0 2000 2000">
    <defs>
        <style>
            .cls-1 {
                fill: #e74a3e;
            }
            
            .cls-2 {
                fill: #181818;
            }
        </style>
    </defs>	
    <title>Business-Collection</title>
		<path id="XMLID_11967_" class="cls-2" d="M1259.396,1702.614l-259.804,259.804l-0.409-0.408l0,0l-259.396-259.804
			c-63.316-63.317-63.316-165.85,0-229.167c63.317-63.317,165.85-62.908,229.167,0l31.454,31.454l31.046-31.046
			c63.317-63.316,165.85-63.316,229.167,0C1323.121,1536.765,1322.713,1639.297,1259.396,1702.614z"/>
		<path class="cls-1" d="M707.925,773.284v271.65c-62.092,31.046-259.804,135.621-443.219,286.356
			c-44.118,35.947-69.036,89.461-69.036,146.65v216.095c0,20.425,16.749,37.173,37.173,37.173s37.173-16.748,37.173-37.173v-216.095
			c0-34.723,15.522-67.402,42.075-89.461c192.811-158.497,401.961-263.889,441.585-283.497
			c17.565-8.578,28.595-26.552,28.595-45.751v-304.33c0-12.256-6.128-24.102-16.34-30.638
			c-29.412-19.608-46.978-52.288-46.978-87.418V321.078c0-136.438,110.703-247.14,247.141-247.14h67.811
			c136.438,0,247.141,110.703,247.141,247.14v315.359c0,35.131-17.565,67.811-46.978,87.419
			c-10.212,6.944-16.34,18.382-16.34,30.637v304.33c0,19.199,11.438,37.582,28.595,45.752
			c40.033,19.607,248.774,125,441.585,283.497c26.553,22.059,42.075,54.738,42.075,89.46v216.504
			c0,20.425,16.749,37.173,37.174,37.173s37.173-16.748,37.173-37.173v-216.095c0-57.189-25.327-110.703-69.036-146.65
			c-183.415-150.735-381.127-254.902-443.219-286.356v-271.65c40.032-33.905,63.317-83.742,63.317-136.847V321.078
			C1355.393,143.791,1211.193,0,1034.313,0h-67.811C789.216,0,645.425,144.199,645.425,321.078v315.359
			C644.607,689.543,667.893,739.379,707.925,773.284z"/>
		<path class="cls-1" d="M1145.425,1388.889c-53.104,0-103.35,20.834-140.932,58.415l-4.901,4.902l-4.902-4.902
			c-37.582-37.581-87.826-58.415-140.932-58.415c-53.104,0-102.94,20.834-140.522,58.415
			c-37.582,37.582-58.415,87.418-58.415,140.932c0,53.104,20.833,102.941,58.415,140.522l259.804,259.805l0.408,0.408
			c6.945,6.944,16.34,11.029,26.145,11.029l0,0c9.804,0,19.199-4.085,26.144-11.029l259.804-259.805
			c37.582-37.581,58.415-87.418,58.415-140.522s-20.425-103.35-58.415-140.932
			C1248.366,1409.723,1198.529,1388.889,1145.425,1388.889z M1233.252,1676.471l-233.66,233.66l-234.068-234.068
			c-23.693-23.693-36.766-55.147-36.766-88.235c0-33.497,13.072-64.543,36.356-88.235c23.692-23.693,54.738-36.356,88.235-36.356
			s64.951,13.072,88.644,36.765l31.454,31.454c6.945,6.944,16.34,11.029,26.145,11.029c9.804,0,19.199-4.085,26.144-11.029
			l31.046-31.046c23.692-23.692,55.146-36.765,88.235-36.765c33.497,0,64.542,13.072,88.235,36.765
			c23.692,23.693,36.765,55.147,36.355,88.235C1270.017,1621.323,1256.944,1652.777,1233.252,1676.471z"/>
</svg>
