<svg id="Layer_1" data-name="Layer 1" xmlns="http://www.w3.org/2000/svg" viewBox="0 0 2000 2000">
    <defs>
        <style>
            .cls-1 {
                fill: #e74a3e;
            }
            
            .cls-2 {
                fill: #181818;
            }
        </style>
    </defs>	
    <title>Business-Collection</title>
		<rect id="XMLID_1120_" x="762.712" y="1656.933" class="cls-2" width="473.76" height="305.493"/>
		<path class="cls-1" d="M272.616,1316.725c-43.7,35.94-68.613,88.626-68.613,145.395v213.601
			c0,20.421,16.745,37.166,37.166,37.166c20.421,0,37.166-16.745,37.166-37.166v-213.601c0-34.307,15.111-66.57,41.659-88.217
			c190.729-156.831,397.386-260.977,436.594-280.172c17.153-8.576,28.589-26.547,28.589-45.742v-301
			c0-12.253-6.126-24.097-16.337-30.632c-28.997-19.195-46.15-51.46-46.15-86.175V318.154
			c0-134.368,109.455-243.823,243.822-243.823h66.98c134.367,0,243.822,109.455,243.822,243.823v312.027
			c0,34.715-17.153,66.979-46.15,86.176c-10.211,6.942-16.337,18.378-16.337,30.631v301c0,19.195,11.027,37.166,28.589,45.742
			c39.616,19.196,246.273,123.342,436.594,280.172c26.547,21.646,41.658,53.911,41.658,88.218v213.6
			c0,20.421,16.745,37.166,37.166,37.166s37.166-16.745,37.166-37.166v-213.601c0-56.769-24.914-109.454-68.613-145.395
			c-181.336-149.071-376.558-251.991-438.229-283.03V765.366c39.616-33.489,62.896-82.907,62.896-135.593V318.154
			C1352.053,142.945,1209.516,0,1033.898,0h-66.979c-175.21,0-318.154,142.536-318.154,318.154v312.027
			c0,52.686,23.279,101.695,62.896,135.594v268.327C649.173,1064.733,453.951,1167.653,272.616,1316.725z"/>
		<path class="cls-1" d="M999.592,1352.257c-102.92,0-187.054,83.725-187.054,187.053v80.866h-49.826
			c-20.421,0-37.166,16.745-37.166,37.165v305.493c0,20.421,16.745,37.166,37.166,37.166h473.76
			c20.42,0,37.165-16.745,37.165-37.166v-305.493c0-20.42-16.745-37.165-37.165-37.165h-49.827v-80.866
			C1186.645,1435.981,1102.512,1352.257,999.592,1352.257z M886.461,1539.31c0-62.079,50.644-113.13,113.131-113.13
			c62.078,0,113.131,50.643,113.131,113.13v80.866H886.869v-80.866H886.461z M1199.306,1925.669H799.469v-231.57h399.837V1925.669z"
			/>
</svg>
