<svg id="Layer_1" data-name="Layer 1" xmlns="http://www.w3.org/2000/svg" viewBox="0 0 2000 2000">
    <defs>
        <style>
            .cls-1 {
                fill: #e74a3e;
            }
            
            .cls-2 {
                fill: #181818;
            }
        </style>
    </defs>	
    <title>Business-Collection</title>
		<circle id="XMLID_1944_" class="cls-2" cx="1000.204" cy="191.954" r="154.38"/>
		<circle id="XMLID_1942_" class="cls-2" cx="1704.309" cy="1402.083" r="154.38"/>
		<path class="cls-1" d="M1895.854,598.325c0-105.778-85.767-191.546-191.546-191.546c-57.586,0-109.046,25.322-144.17,65.755
			L1181.54,253.216c6.534-19.195,10.21-40.024,10.21-61.67C1191.75,85.767,1105.983,0,1000.204,0S808.658,85.767,808.658,191.546
			c0,21.646,3.676,42.066,10.211,61.262l-378.6,219.318c-35.123-40.024-86.584-65.755-144.17-65.755
			c-105.779,0-191.546,85.767-191.546,191.546c0,91.484,64.529,168.267,150.296,187.054l0.408,429.65
			c-86.175,18.787-151.113,95.568-151.113,187.054c0,105.778,85.767,191.546,191.546,191.546
			c56.361,0,107.004-24.505,142.128-63.305l379.824,219.318c-6.126,18.787-9.394,38.391-9.394,59.22
			c0,105.779,85.767,191.546,191.546,191.546s191.546-85.767,191.546-191.546c0-20.829-3.268-40.433-9.394-59.22l379.824-219.318
			c35.124,38.8,85.767,63.305,142.128,63.305c105.779,0,191.546-85.768,191.546-191.546c0-92.71-66.571-170.717-154.38-187.87
			V785.787C1829.283,769.042,1895.854,691.443,1895.854,598.325z M1704.309,480.702c64.938,0,117.623,52.686,117.623,117.623
			c0,64.938-52.686,117.623-117.623,117.623s-117.623-52.685-117.623-117.623C1586.686,533.388,1639.779,480.702,1704.309,480.702z
			 M1000.204,74.331c64.938,0,117.623,52.686,117.623,117.623c0,20.013-4.901,38.799-13.886,55.544
			c-0.817,0.817-1.226,1.633-2.042,2.859c-0.409,0.817-0.817,1.634-1.226,2.45c-20.421,33.898-57.994,56.77-100.47,56.77
			c-64.938,0-117.623-52.685-117.623-117.623C882.581,127.017,935.267,74.331,1000.204,74.331z M178.477,598.325
			c0-64.938,52.686-117.623,117.623-117.623s117.623,52.686,117.623,117.623c0,64.938-52.686,117.623-117.623,117.623
			S178.477,663.264,178.477,598.325z M296.1,1519.706c-64.938,0-117.623-52.686-117.623-117.623S231.162,1284.46,296.1,1284.46
			s117.623,52.686,117.623,117.623C413.314,1467.021,360.629,1519.706,296.1,1519.706z M1000.204,1926.077
			c-64.938,0-117.623-52.686-117.623-117.623s52.686-117.623,117.623-117.623s117.623,52.686,117.623,117.623
			S1065.142,1926.077,1000.204,1926.077z M1146.008,1684.705c-35.123-41.25-87.4-67.797-145.804-67.797
			s-110.68,26.139-145.804,67.797l-378.19-218.093c7.352-20.013,11.436-42.066,11.436-64.529
			c0-94.344-68.205-172.759-158.056-188.687l-0.408-426.792c89.851-15.521,158.464-94.344,158.464-188.688
			c0-21.646-3.676-42.475-10.21-61.67l378.599-219.318c35.124,40.433,86.992,65.754,144.578,65.754
			c57.587,0,109.047-25.321,144.17-65.754l378.6,219.318c-6.534,19.195-10.21,40.024-10.21,61.67
			c0,92.71,66.57,170.717,154.38,187.87v428.018c-87.81,17.153-154.38,94.752-154.38,187.87c0,22.871,4.084,44.517,11.436,64.529
			L1146.008,1684.705z M1821.932,1402.083c0,64.938-52.686,117.623-117.623,117.623s-117.623-52.686-117.623-117.623
			s52.686-117.623,117.623-117.623S1821.932,1337.146,1821.932,1402.083z"/>
		<path class="cls-1" d="M1178.681,1148.05v-133.551c22.463-21.646,35.124-51.46,35.124-83.316v-175.21
			c0-107.412-87.4-194.813-194.813-194.813h-37.574c-107.412,0-194.813,87.4-194.813,194.813v175.21
			c0,31.856,13.069,61.67,35.123,83.316v133.551c-42.475,22.055-144.578,78.007-240.146,156.422
			c-15.929,13.069-17.971,36.35-4.901,52.277s36.349,17.97,52.277,4.901c105.778-86.992,220.135-144.579,242.188-155.197
			c15.521-7.76,24.913-22.871,24.913-40.434V996.937c0-12.252-6.126-24.096-16.336-30.631c-11.844-7.76-18.787-20.829-18.787-35.123
			v-175.21c0-66.571,54.318-120.89,120.891-120.89h37.573c66.571,0,120.891,54.318,120.891,120.89v175.21
			c0,13.886-6.943,26.955-18.787,35.123c-10.21,6.943-16.336,18.379-16.336,30.631v169.083c0,17.154,9.802,32.674,25.321,40.434
			c22.055,10.618,136.41,68.613,242.189,155.197c6.942,5.717,15.111,8.576,23.279,8.576c10.619,0,21.237-4.492,28.589-13.478
			c13.069-15.928,10.618-39.208-4.901-52.276C1323.259,1226.057,1221.156,1169.695,1178.681,1148.05z"/>
</svg>
