<svg id="Layer_1" data-name="Layer 1" xmlns="http://www.w3.org/2000/svg" viewBox="0 0 2000 2000">
    <defs>
        <style>
            .cls-1 {
                fill: #e74a3e;
            }
            
            .cls-2 {
                fill: #181818;
            }
        </style>
    </defs>	
    <title>Business-Collection</title>
		<path id="XMLID_308_" class="cls-2" d="M1216.56,1522.863c-288.95,119.749-620.406-17.574-740.155-306.524
				c-119.748-288.95,17.574-620.406,306.525-740.155c288.95-119.749,620.405,17.574,740.154,306.525
				C1642.833,1071.659,1505.51,1403.114,1216.56,1522.863z"/>
		<path class="cls-1" d="M1769.121,404.662c6.948-6.948,10.627-16.349,10.627-26.157l-2.453-201.489
			c-0.408-20.435-17.165-36.783-37.6-36.783c-20.436,0.409-36.783,17.166-36.783,37.601l1.227,111.983l-5.313-5.313
			C1304.43-100.9,670.129-93.543,284.725,300.852C151.08,437.767,59.94,608.603,21.113,794.97
			c-37.6,181.463-24.931,369.464,37.601,543.161c5.313,15.122,19.618,24.522,34.739,24.522c4.087,0,8.583-0.817,12.67-2.044
			c19.209-6.947,29.426-28.2,22.479-47.408C7.626,976.433,88.14,608.194,337.855,352.757
			C694.65-12.212,1281.951-19.16,1646.92,337.635l5.723,5.722l-111.984,1.227c-20.435,0.408-36.783,17.165-36.783,37.6
			c0.409,20.435,16.757,36.783,37.192,36.783h0.408l201.489-2.452C1752.773,415.696,1762.174,412.019,1769.121,404.662z"/>
		<path class="cls-1" d="M1941.184,660.916c-6.947-19.209-28.199-29.426-47.408-22.479c-19.209,6.948-29.427,28.2-22.479,47.409
			c120.975,336.769,40.461,705.007-209.255,960.444c-172.88,176.967-404.204,275.872-651.467,278.733
			c-247.672,3.27-481.04-90.731-657.598-263.203l-5.722-5.722l111.983-1.226c20.435-0.409,36.783-17.166,36.783-37.601
			c-0.409-20.436-16.757-37.191-37.601-36.783l-201.489,2.452c-20.435,0.409-36.783,17.166-36.783,37.601l2.452,201.489
			c0.409,20.435,16.756,36.782,37.191,36.782h0.409c20.435-0.408,36.783-17.165,36.783-37.6l-1.226-111.984l5.722,5.722
			c188.41,183.915,435.674,284.864,698.468,284.864c4.087,0,7.765,0,11.852,0c266.881-3.27,517.006-109.94,703.781-300.803
			c133.645-136.915,224.785-307.751,263.611-494.118C2016.385,1023.024,2003.715,835.022,1941.184,660.916z"/>
		<path class="cls-1" d="M999.54,396.079c-79.288,0-156.94,15.53-230.507,46.183c-148.766,61.714-264.837,177.784-326.551,326.551
			c-61.713,148.767-61.713,313.064,0,461.831c93.593,226.419,312.655,372.733,557.875,372.733c79.288,0,156.94-15.53,230.507-46.183
			c307.342-127.105,454.065-481.039,326.551-788.381C1463.822,542.394,1244.76,396.079,999.54,396.079z M1464.641,745.926h-122.201
			c-24.113-88.279-60.488-163.479-105.854-220.289C1331.813,573.046,1411.918,649.473,1464.641,745.926z M502.152,1178.738
			c-42.096-116.479-42.096-242.358,0-358.838h168.385c-10.218,55.992-15.53,116.479-15.53,179.419
			c0,62.531,6.13,122.61,16.757,179.419H502.152z M728.981,999.319c0-63.349,6.13-123.836,16.757-179.419h231.732v358.838H747.781
			C735.929,1122.338,728.981,1061.851,728.981,999.319z M1051.854,484.767c93.184,20.844,170.837,120.158,213.342,261.567h-213.342
			V484.767z M977.879,484.767v261.159H764.538C807.043,604.925,884.695,505.61,977.879,484.767z M977.879,1253.122v260.75
			c-87.461-22.887-165.114-123.836-209.662-260.75H977.879z M1051.854,1513.872v-260.75h209.663
			C1216.969,1390.036,1139.315,1490.985,1051.854,1513.872z M1051.854,1178.738V819.9h231.732
			c11.035,55.583,16.758,116.07,16.758,179.419c0,62.531-6.948,123.019-19.209,179.419H1051.854z M1359.195,819.9h138.959
			c43.321,119.749,40.461,246.445-0.409,358.838h-140.185c11.035-56.809,16.758-116.888,16.758-179.419
			C1374.317,936.38,1369.005,876.301,1359.195,819.9z M797.643,510.515c4.087-1.635,8.583-3.27,12.67-4.904
			c-53.54,58.853-96.045,141.818-123.019,240.724H535.258C592.884,640.072,684.433,557.106,797.643,510.515z M535.258,1253.122
			h154.079c28.609,100.131,73.975,184.323,129.967,244.402C699.146,1453.793,597.789,1367.967,535.258,1253.122z M1227.595,1477.498
			c47.817-58.035,86.645-135.279,112.393-224.376h124.244C1412.327,1347.94,1331.404,1428.045,1227.595,1477.498z"/>
</svg>
