<svg id="Layer_1" data-name="Layer 1" xmlns="http://www.w3.org/2000/svg" viewBox="0 0 2000 2000">
    <defs>
        <style>
            .cls-1 {
                fill: #e74a3e;
            }
            
            .cls-2 {
                fill: #181818;
            }
        </style>
    </defs>	
    <title>Business-Collection</title>
		<path id="XMLID_1351_" class="cls-2" d="M1175.166,1423.06c-233.961,96.769-501.812-14.291-598.58-248.252
				c-96.77-233.961,14.29-501.813,248.252-598.581c233.961-96.77,501.812,14.29,598.58,248.252
				C1520.188,1058.439,1409.128,1326.29,1175.166,1423.06z"/>
		<path class="cls-1" d="M999.998,396.162c20.415,0,37.156-16.741,37.156-37.156V126.27l82.479,82.479
			c7.35,7.35,16.74,11.024,26.132,11.024c9.391,0,18.782-3.675,26.132-11.024c14.29-14.291,14.29-37.973,0-52.264L1026.13,10.718
			c-14.291-14.291-37.973-14.291-52.264,0L828.1,156.484c-14.291,14.291-14.291,37.973,0,52.264s37.973,14.291,52.264,0
			l82.479-82.479v233.145C962.842,379.83,979.582,396.162,999.998,396.162z"/>
		<path class="cls-1" d="M999.998,1603.123c-20.416,0-37.156,16.741-37.156,37.156v233.145l-82.479-82.479
			c-14.291-14.29-37.973-14.29-52.264,0c-14.291,14.291-14.291,37.973,0,52.264l145.767,145.767
			c7.35,7.35,16.74,11.024,26.132,11.024c9.391,0,18.782-3.675,26.132-11.024l145.767-145.767c14.29-14.291,14.29-37.973,0-52.264
			c-14.291-14.29-37.973-14.29-52.264,0l-82.479,82.479v-233.145C1037.154,1619.456,1020.413,1603.123,999.998,1603.123z"/>
		<path class="cls-1" d="M396.518,999.643c0-20.415-16.741-37.156-37.156-37.156H126.625l82.479-82.479
			c14.291-14.291,14.291-37.973,0-52.264c-14.291-14.29-37.973-14.29-52.264,0L11.073,973.511
			c-14.291,14.291-14.291,37.973,0,52.264l145.767,145.767c7.35,7.35,16.74,11.024,26.132,11.024
			c9.391,0,18.782-3.675,26.132-11.024c14.291-14.291,14.291-37.973,0-52.264l-82.479-82.479H359.77
			C380.185,1036.799,396.518,1020.059,396.518,999.643z"/>
		<path class="cls-1" d="M1843.16,827.744c-14.291-14.29-37.973-14.29-52.264,0c-14.291,14.291-14.291,37.974,0,52.264
			l82.479,82.479H1640.23c-20.415,0-37.156,16.741-37.156,37.156c0,20.416,16.741,37.156,37.156,37.156h233.145l-82.479,82.479
			c-14.291,14.291-14.291,37.973,0,52.264c7.35,7.35,16.741,11.024,26.132,11.024c9.392,0,18.782-3.675,26.132-11.024
			l145.767-145.767c14.29-14.291,14.29-37.973,0-52.264L1843.16,827.744z"/>
		<path class="cls-1" d="M282.19,318.991v206.196c0,20.416,16.741,37.156,37.156,37.156c20.415,0,37.156-16.74,37.156-37.156
			V408.411L521.46,573.368c7.35,7.35,16.74,11.024,26.132,11.024c9.391,0,18.782-3.675,26.131-11.024
			c14.291-14.291,14.291-37.973,0-52.264L408.767,356.147h116.776c20.415,0,37.156-16.74,37.156-37.156
			c0-20.415-16.741-37.156-37.156-37.156H319.347C298.931,281.835,282.19,298.576,282.19,318.991z"/>
		<path class="cls-1" d="M1437.709,1680.294c0,20.415,16.741,37.156,37.156,37.156h206.196c20.415,0,37.156-16.741,37.156-37.156
			v-206.196c0-20.415-16.741-37.156-37.156-37.156s-37.156,16.741-37.156,37.156v116.776l-164.956-164.957
			c-14.291-14.29-37.973-14.29-52.264,0c-14.291,14.291-14.291,37.974,0,52.264l164.957,164.957h-116.777
			C1454.445,1643.546,1437.709,1659.879,1437.709,1680.294z"/>
		<path class="cls-1" d="M573.314,1426.326c-14.29-14.291-37.973-14.291-52.263,0l-164.957,164.956v-116.776
			c0-20.415-16.741-37.156-37.156-37.156c-20.416,0-37.156,16.741-37.156,37.156v206.196c0,20.415,16.741,37.156,37.156,37.156
			h206.196c20.415,0,37.156-16.741,37.156-37.156s-16.741-37.156-37.156-37.156H408.358l164.956-164.957
			C587.605,1464.299,587.605,1440.616,573.314,1426.326z"/>
		<path class="cls-1" d="M1680.653,561.936c20.415,0,37.156-16.741,37.156-37.156V318.991c0-20.415-16.741-37.156-37.156-37.156
			h-206.196c-20.415,0-37.156,16.741-37.156,37.156c0,20.416,16.741,37.156,37.156,37.156h116.776l-164.956,164.957
			c-14.291,14.291-14.291,37.973,0,52.264c7.349,7.35,16.74,11.024,26.131,11.024c9.392,0,18.783-3.675,26.132-11.024
			l164.957-164.957v116.776C1643.905,545.194,1660.238,561.936,1680.653,561.936z"/>
		<path class="cls-1" d="M999.998,504.363c-64.921,0-128.617,12.658-189.047,37.564
			c-252.336,104.527-372.378,394.835-268.26,646.762c76.763,185.781,256.418,305.824,457.715,305.824
			c64.921,0,128.617-12.658,189.047-37.973c252.335-104.527,372.378-394.835,268.26-646.762
			C1380.546,624.406,1200.891,504.363,999.998,504.363z M602.305,1137.651c-32.256-92.278-29.807-189.456,0.408-276.018h115.144
			c-8.575,44.914-13.065,91.462-13.065,137.192c0,42.872,5.716,90.645,16.332,138.825H602.305z M778.694,998.826
			c0-46.956,5.308-93.503,14.291-137.192h169.856v276.018H796.66C785.228,1091.104,778.694,1043.332,778.694,998.826z
			 M1037.154,586.434c62.063,21.641,119.227,99.628,154.341,201.297h-154.341V586.434L1037.154,586.434z M962.842,588.067v199.255
			H813.4C847.699,688.511,902.82,612.157,962.842,588.067z M962.842,1211.555v196.806
			c-57.163-25.724-109.427-104.119-143.725-196.806H962.842z M1037.154,1410.401v-198.847h148.624
			C1150.668,1307.1,1095.955,1387.128,1037.154,1410.401z M1037.154,1137.651V861.634h174.348
			c9.391,43.689,14.291,90.236,14.291,137.192c0,44.506-6.533,92.277-17.966,138.825H1037.154z M1287.039,861.634h110.652
			c32.256,92.278,29.807,189.456-0.408,276.018h-113.919c10.616-48.181,16.333-95.953,16.333-138.825
			C1300.109,952.688,1295.618,906.548,1287.039,861.634z M1363.806,787.73h-94.728c-13.066-43.281-29.807-84.112-49.814-120.859
			c-8.166-14.699-17.148-28.582-26.132-41.647C1263.361,661.154,1322.975,717.093,1363.806,787.73z M813.809,621.957
			c-9.799,13.882-19.19,28.581-28.173,44.914c-20.415,36.339-37.156,77.578-49.813,120.859h-99.22
			C677.025,717.909,737.455,659.521,813.809,621.957z M636.194,1211.555h105.344c20.824,63.288,49.813,123.718,85.337,172.307
			C748.071,1348.339,680.7,1288.726,636.194,1211.555z M1180.475,1380.187c34.706-47.772,62.472-106.977,82.887-168.632h100.035
			C1322.158,1283.01,1259.687,1342.622,1180.475,1380.187z"/>
</svg>
