<svg id="Layer_1" data-name="Layer 1" xmlns="http://www.w3.org/2000/svg" viewBox="0 0 2000 2000">
    <defs>
        <style>
            .cls-1 {
                fill: #e74a3e;
            }
            
            .cls-2 {
                fill: #181818;
            }
        </style>
    </defs>	
    <title>Business-Collection</title>
		<circle id="XMLID_1215_" class="cls-2" cx="1000.094" cy="1821.633" r="141.225"/>
		<path class="cls-1" d="M1629.89,421.225C1523.768,165.306,1276.42,0,999.686,0c-89.388,0-177.143,17.551-260.408,51.837
			C391.931,195.918,226.216,595.102,369.89,942.449c101.225,244.081,331.021,405.714,592.653,420v284.897
			c-80.408,17.144-141.225,88.571-141.225,174.286c0,98.367,80,178.367,178.367,178.367s178.367-80,178.367-178.367
			c0-85.715-60.816-157.143-141.225-174.286v-284.897c76.735-4.082,151.837-21.225,223.674-51.021
			c168.163-69.796,299.184-200.816,368.979-368.979C1699.277,774.694,1699.277,589.388,1629.89,421.225z M1570.298,891.021h-188.571
			c16.326-70.204,25.307-142.041,25.307-210.612c0-69.796-7.348-140.408-21.633-208.163h184.897
			C1620.502,608.571,1620.502,755.102,1570.298,891.021z M429.481,891.021c-51.429-140-47.755-287.755,0.408-418.775h191.429
			C607.44,540,599.686,610.612,599.686,680.408c0,68.571,8.979,140.408,25.307,210.612H429.481L429.481,891.021z M673.563,680.816
			c0-71.837,8.163-142.041,22.856-208.163h266.531v418.775H701.727C683.768,820.816,673.563,748.571,673.563,680.816z
			 M1036.828,80.408c105.307,22.449,201.225,149.388,253.878,318.367h-253.878V80.408z M962.951,82.041v316.734H716.012
			C767.44,233.062,860.094,108.571,962.951,82.041z M962.951,965.306v313.878c-98.367-28.979-186.939-159.592-239.592-313.878
			H962.951z M1036.828,1280.816V965.306h246.123C1229.481,1122.857,1138.053,1255.918,1036.828,1280.816z M1036.828,891.021V472.653
			h273.47c14.694,65.714,22.857,136.326,22.857,208.163c0,67.755-10.204,140.408-27.755,210.612h-268.572V891.021L1036.828,891.021z
			 M1537.236,398.367H1367.44c-18.367-64.082-42.448-124.082-72.245-177.959c-22.448-40.408-46.938-75.102-73.061-104.898
			C1356.012,168.163,1468.665,267.755,1537.236,398.367z M767.44,120.408c6.531-2.857,13.062-5.306,20-7.755
			c-26.938,30.204-52.652,66.122-75.51,108.163c-29.796,53.469-53.878,113.877-72.245,177.959H462.951
			C526.625,277.143,631.114,176.735,767.44,120.408z M462.543,965.306H645.4c36.326,114.694,91.836,220,160,292.653
			C659.277,1208.571,536.012,1104.898,462.543,965.306z M1104.176,1821.633c0,57.551-46.939,104.081-104.082,104.081
			s-104.082-46.938-104.082-104.081c0-57.551,46.939-104.082,104.082-104.082S1104.176,1764.49,1104.176,1821.633z
			 M1232.339,1243.266c-8.979,3.673-17.959,7.347-27.347,10.612c66.122-72.653,120.408-175.919,155.918-288.571h176.326
			C1471.522,1090.612,1364.992,1188.571,1232.339,1243.266z"/>
		<path class="cls-1" d="M702.135,1821.633c0,20.408,16.326,37.143,37.143,37.143c20.408,0,37.143-16.326,37.143-37.143
			c0-20.408-16.734-37.143-37.143-37.143C718.869,1784.898,702.135,1801.225,702.135,1821.633z"/>
		<path class="cls-1" d="M463.359,1821.633c0,20.408,16.326,37.143,37.143,37.143c20.408,0,37.143-16.326,37.143-37.143
			c0-20.408-16.734-37.143-37.143-37.143C479.686,1784.898,463.359,1801.225,463.359,1821.633z"/>
		<path class="cls-1" d="M582.543,1821.633c0,20.408,16.326,37.143,37.143,37.143c20.408,0,37.143-16.326,37.143-37.143
			c0-20.408-16.326-37.143-37.143-37.143C599.277,1784.898,582.543,1801.225,582.543,1821.633z"/>
		<path class="cls-1" d="M354.38,1795.51c-6.939,6.939-11.021,16.327-11.021,26.123s4.081,19.184,11.021,26.122
			c6.938,6.938,16.326,11.021,26.122,11.021s19.184-4.082,26.123-11.021c6.938-6.938,11.02-16.326,11.02-26.122
			s-4.081-19.184-11.02-26.123c-6.939-6.938-16.327-11.02-26.123-11.02C371.114,1784.898,361.318,1788.571,354.38,1795.51z"/>
		<path class="cls-1" d="M1592.747,1795.51c-6.938,6.939-11.021,16.327-11.021,26.123s4.082,19.184,11.021,26.122
			s16.326,11.021,26.122,11.021s19.184-4.082,26.123-11.021c6.938-6.938,11.02-16.326,11.02-26.122s-4.081-19.184-11.02-26.123
			c-6.939-6.938-16.327-11.02-26.123-11.02C1609.481,1784.898,1599.686,1788.571,1592.747,1795.51z"/>
		<path class="cls-1" d="M1499.686,1784.898c-20.408,0-37.143,16.734-37.143,37.143s16.326,37.143,37.143,37.143
			c20.408,0,37.143-16.326,37.143-37.143C1536.42,1801.225,1520.094,1784.898,1499.686,1784.898z"/>
		<path class="cls-1" d="M1380.094,1784.898c-20.408,0-37.143,16.734-37.143,37.143s16.734,37.143,37.143,37.143
			s37.143-16.326,37.143-37.143S1400.502,1784.898,1380.094,1784.898z"/>
		<path class="cls-1" d="M1223.768,1821.633c0,20.408,16.326,37.143,37.143,37.143c20.408,0,37.143-16.326,37.143-37.143
			c0-20.408-16.326-37.143-37.143-37.143C1240.094,1784.898,1223.768,1801.225,1223.768,1821.633z"/>
</svg>
