<svg id="Layer_1" data-name="Layer 1" xmlns="http://www.w3.org/2000/svg" viewBox="0 0 2000 2000">
    <defs>
        <style>
            .cls-1 {
                fill: #e74a3e;
            }
            
            .cls-2 {
                fill: #181818;
            }
        </style>
    </defs>	
    <title>Business-Collection</title>
		<path id="XMLID_1190_" class="cls-2" d="M1244.882,1962.357v-665.299c0-103.928,49.1-201.309,130.522-266.365
			c136.661-109.246,223.813-277.003,223.813-465.218c0-227.495-127.658-425.121-315.465-525.774
			c-16.366-8.593-36.006,2.864-36.006,21.276V411.63c0,101.882-83.469,184.941-185.76,184.941H906.504
			c-101.881,0-185.76-83.06-185.76-184.941V79.799c0-19.23-20.867-30.687-37.233-20.458
			C514.117,164.905,401.188,351.892,401.188,565.476c0,179.213,79.378,339.604,204.581,448.852
			c74.059,64.238,117.839,156.3,117.839,254.09v693.53"/>
		<path class="cls-1" d="M1300.938,7.377c-19.23-10.229-42.145-9.82-60.966,1.228c-18.821,11.048-29.868,30.688-29.868,52.782
			v350.652c0,81.424-66.693,148.117-148.526,148.117H906.096c-81.833,0-148.526-66.284-148.526-148.117V64.251
			c0-22.504-12.275-42.962-31.915-53.601s-43.78-10.229-62.602,2.046c-181.669,114.975-299.099,332.24-299.099,553.188
			c0,182.486,79.378,356.381,217.266,476.674c67.103,58.511,105.155,140.753,105.155,226.268v693.531
			c0,20.458,16.775,37.233,37.233,37.233s37.233-16.775,37.233-37.233v-693.94c0-106.792-47.463-209.491-130.522-282.322
			C508.389,879.712,438.422,726.276,438.422,565.066c0-187.806,95.744-372.748,245.089-477.493v323.647
			c0,122.34,99.836,222.176,222.585,222.176h155.481c122.749,0,222.585-99.427,222.585-222.176V83.072
			c171.848,100.245,277.412,283.55,277.412,482.403c0,170.212-76.514,329.376-209.9,436.167
			c-91.652,73.24-144.435,180.851-144.435,295.416v665.299c0,20.458,16.775,37.233,37.233,37.233s37.234-16.775,37.234-37.233
			v-665.708c0-91.652,42.553-177.986,116.611-237.314c150.98-121.112,237.724-301.144,237.724-493.859
			C1636.041,331.843,1507.564,117.851,1300.938,7.377z"/>
		<path class="cls-1" d="M987.109,1293.785c-20.458,0-37.234,16.775-37.234,37.233v631.748c0,20.458,16.776,37.233,37.234,37.233
			s37.234-16.775,37.234-37.233v-632.157C1023.934,1310.151,1007.567,1293.785,987.109,1293.785z"/>
</svg>
