<svg id="Layer_1" data-name="Layer 1" xmlns="http://www.w3.org/2000/svg" viewBox="0 0 2000 2000">
    <defs>
        <style>
            .cls-1 {
                fill: #e74a3e;
            }
            
            .cls-2 {
                fill: #181818;
            }
        </style>
    </defs>	
    <title>Business-Collection</title>
		<circle id="XMLID_2136_" class="cls-2" cx="998.722" cy="1000.205" r="436.558"/>
		<path class="cls-1" d="M251.386,1036.55c1.225,24.911-6.125,49.823-21.236,70.65l-194.797,271.98
			c-53.906,75.142-45.33,176.829,20.011,242.17l323.437,323.437c35.529,35.529,82.901,55.131,133.132,55.131
			c39.205,0,77.184-12.251,109.038-35.12L893.768,1770c20.828-14.701,45.331-22.461,70.242-21.235
			c12.251,0.408,24.502,0.816,36.754,0.816l0,0c200.106,0,388.369-78,529.669-219.3
			c149.059-149.059,228.692-355.699,218.483-566.423c-1.226-24.503,6.125-49.414,21.235-70.241l194.798-272.798
			c53.498-75.143,44.922-176.829-20.011-242.17L1621.501,55.213c-35.528-35.529-82.901-55.131-133.132-55.131
			c-39.612,0-77.184,12.251-109.445,35.121L1106.942,230c-20.827,15.11-45.738,22.461-70.649,21.236
			c-12.66-0.817-25.729-0.817-38.388-0.817c-199.29,0-386.736,77.592-528.035,218.892
			C319.994,619.186,240.36,825.826,251.386,1036.55z M325.303,1032.875c-9.801-189.897,61.666-376.118,196.432-510.476
			C649.148,394.985,817.81,325.152,997.496,325.152c11.436,0,23.278,0.408,34.713,0.816c42.063,2.042,82.9-10.209,117.613-34.712
			l271.981-194.797c19.602-13.885,42.472-21.236,66.157-21.236c30.629,0,59.215,11.843,80.451,33.487l323.437,323.437
			c39.613,39.613,44.514,101.278,12.252,146.608l-194.798,272.798c-24.502,34.304-36.754,75.551-34.712,116.797
			c9.393,189.896-62.482,376.118-196.839,510.475c-127.415,127.415-296.893,197.656-477.396,197.656
			c-11.026,0-22.053-0.408-33.079-0.816c-41.654-2.042-82.084,10.209-116.797,34.712l-272.798,194.797
			c-19.602,13.886-42.471,21.236-66.157,21.236c-30.629,0-59.215-11.843-80.451-33.487l-323.437-323.437
			c-39.613-39.613-44.514-101.278-12.251-147.018l194.797-271.98C315.094,1115.775,327.345,1074.121,325.303,1032.875z"/>
		<path class="cls-1" d="M1203.729,656.349c5.717,3.675,12.252,5.309,18.785,5.309c12.66,0,24.912-6.534,31.854-17.969
			c10.618-17.561,4.492-40.43-13.068-50.639c-17.56-10.618-40.021-4.492-50.639,13.067
			C1180.451,623.27,1186.168,646.139,1203.729,656.349z"/>
		<path class="cls-1" d="M1204.545,1344.469L1204.545,1344.469c-17.56,10.209-23.277,33.078-13.068,50.639
			c6.943,11.844,19.194,17.969,31.854,17.969c6.535,0,13.068-1.633,18.786-5.309c17.561-10.618,23.277-33.079,12.659-50.639
			C1244.566,1339.568,1222.105,1333.851,1204.545,1344.469z"/>
		<path class="cls-1" d="M618.929,1217.871c-16.744,11.435-21.236,34.712-9.394,51.455c7.352,10.618,18.786,15.928,30.629,15.928
			c7.351,0,14.293-2.042,20.827-6.534c16.744-11.435,21.236-34.713,9.394-51.456C658.949,1210.52,635.672,1206.437,618.929,1217.871
			z"/>
		<path class="cls-1" d="M571.965,906.686c3.676,1.225,7.351,1.633,11.026,1.633c15.927,0,30.628-10.209,35.528-26.136
			c6.126-19.603-4.9-40.43-24.502-46.147c-19.603-6.125-40.43,4.9-46.147,24.503C541.336,880.141,552.362,900.56,571.965,906.686z"
			/>
		<path class="cls-1" d="M563.389,1037.775c20.419,0,37.162-16.744,37.162-37.163s-16.743-37.162-37.162-36.754
			c-20.419,0-37.162,16.743-36.754,37.163C526.635,1021.44,542.97,1037.775,563.389,1037.775z"/>
		<path class="cls-1" d="M842.721,629.804c4.492,0,8.984-0.816,13.068-2.45c19.193-7.352,28.586-28.587,21.235-47.78
			c-7.351-19.194-28.587-28.587-47.78-21.236s-28.587,28.587-21.236,47.78C813.726,620.819,828.02,629.804,842.721,629.804z"/>
		<path class="cls-1" d="M752.469,1315.065c-15.927-12.66-39.205-9.802-51.864,6.126c-12.66,15.926-9.801,39.204,6.126,51.863
			c6.942,5.31,14.701,8.168,22.869,8.168c11.026,0,21.645-4.9,28.995-14.293C771.254,1351.003,768.396,1327.725,752.469,1315.065z"
			/>
		<path class="cls-1" d="M728.782,694.736c8.168,0,16.336-2.45,22.87-8.168l0,0c15.927-12.66,18.785-35.938,6.125-51.864
			c-12.659-15.927-35.938-18.785-51.864-6.126c-15.927,12.66-18.785,35.938-6.126,51.864
			C707.139,689.836,718.165,694.736,728.782,694.736z"/>
		<path class="cls-1" d="M618.52,783.763c6.535,4.492,13.477,6.534,20.828,6.534c11.843,0,23.277-5.717,30.628-15.927
			c11.435-16.743,7.352-40.021-9.393-51.456c-16.743-11.435-40.021-7.351-51.456,9.801
			C597.284,749.051,601.776,772.328,618.52,783.763z"/>
		<path class="cls-1" d="M1093.466,1389.391c-20.011,4.9-32.262,24.911-27.361,44.514c4.084,17.151,19.194,28.586,35.938,28.586
			c2.858,0,5.717-0.408,8.575-0.816c20.012-4.9,32.263-24.911,27.362-44.514C1133.079,1397.149,1113.068,1384.49,1093.466,1389.391z
			"/>
		<path class="cls-1" d="M1092.649,611.427c2.858,0.816,5.717,1.225,8.575,1.225c16.744,0,31.854-11.435,35.938-28.586
			c4.492-20.011-7.759-39.613-27.361-44.514c-20.01-4.9-40.021,7.759-44.514,27.361S1073.047,606.935,1092.649,611.427z"/>
		<path class="cls-1" d="M618.111,1119.451c-6.125-19.603-26.545-30.629-46.146-24.503c-19.603,6.126-30.629,26.545-24.503,46.147
			c4.9,15.927,19.603,26.136,35.529,26.136c3.675,0,7.351-0.408,11.026-1.634C613.211,1159.881,624.237,1139.054,618.111,1119.451z"
			/>
		<path class="cls-1" d="M856.605,1373.872c-19.193-7.351-40.43,2.45-47.78,21.235c-7.351,19.194,2.45,40.43,21.235,47.781
			c4.492,1.633,8.984,2.45,13.068,2.45c15.11,0,28.995-8.984,34.713-23.687C885.192,1402.867,875.799,1381.223,856.605,1373.872z"/>
		<path class="cls-1" d="M973.811,1399.6L973.811,1399.6c-20.419-1.225-37.979,14.294-39.204,34.713
			c-1.226,20.419,14.293,37.979,34.712,39.204c0.816,0,1.634,0,2.45,0c19.194,0,35.529-15.11,36.755-34.712
			C1009.748,1418.386,994.229,1400.825,973.811,1399.6z"/>
		<path class="cls-1" d="M970.543,601.625c0.817,0,1.634,0,2.451,0c20.419-1.225,35.938-19.193,34.304-39.204
			c-1.226-20.419-19.194-35.938-39.204-34.304c-20.42,1.225-35.938,19.193-34.305,39.204
			C935.015,586.516,951.35,601.625,970.543,601.625z"/>
		<path class="cls-1" d="M1299.697,1320.374c6.943,6.534,15.928,9.393,24.912,9.393c10.209,0,20.01-4.083,27.361-12.251
			c160.493-178.054,160.493-456.569,0-634.623c-13.885-15.109-37.163-16.335-52.272-2.858c-15.11,13.885-16.335,37.163-2.859,52.272
			c135.583,149.876,135.583,385.103,0,535.387C1283.362,1283.212,1284.588,1306.897,1299.697,1320.374z"/>
</svg>
