<svg id="Layer_1" data-name="Layer 1" xmlns="http://www.w3.org/2000/svg" viewBox="0 0 290.658 290.658">
    <defs>
        <style>
            .cls-1 {
                fill: #e74a3e;
            }
            
            .cls-2 {
                fill: #181818;
            }
        </style>
    </defs>
    <title>Icons-Business</title>
		<path class="cls-1" d="M220.313,84.374V42.188H0v178.125c0,15.511,12.614,28.125,28.125,28.125h182.813v-9.375H49.031
			c4.472-4.983,7.219-11.541,7.219-18.75V74.999h58.041l9.375,18.75h134.147v37.5h9.375V84.374H220.313z M210.938,84.374H129.46
			l-9.375-18.75h-73.21v154.688c0,10.341-8.409,18.75-18.75,18.75s-18.75-8.409-18.75-18.75V51.563h201.563L210.938,84.374
			L210.938,84.374z"/>
		<rect x="65.625" y="112.499" class="cls-1" width="131.25" height="9.375"/>
		<rect x="65.625" y="159.374" class="cls-1" width="131.25" height="9.375"/>
		<rect x="65.625" y="182.813" class="cls-1" width="131.25" height="9.375"/>
		<rect x="70.313" y="135.938" class="cls-1" width="9.375" height="9.375"/>
		<rect x="89.063" y="135.938" class="cls-1" width="9.375" height="9.375"/>
		<rect x="107.813" y="135.938" class="cls-1" width="9.375" height="9.375"/>
		<rect x="126.563" y="135.938" class="cls-1" width="9.375" height="9.375"/>
		<rect x="145.313" y="135.938" class="cls-1" width="9.375" height="9.375"/>
		<rect x="164.063" y="135.938" class="cls-1" width="9.375" height="9.375"/>
		<rect x="182.813" y="135.938" class="cls-1" width="9.375" height="9.375"/>
		<path class="cls-2" d="M290.625,248.438H206.25v-37.5h84.375V248.438z"/>
		<path class="cls-2" d="M290.625,206.249H206.25v-37.5h84.375V206.249z"/>
		<path class="cls-2" d="M290.625,164.063H206.25v-37.5h84.375V164.063z"/>
</svg>
