<svg id="Layer_1" data-name="Layer 1" xmlns="http://www.w3.org/2000/svg" viewBox="0 0 290.658 290.658">
    <defs>
        <style>
            .cls-1 {
                fill: #e74a3e;
            }
            
            .cls-2 {
                fill: #181818;
            }
        </style>
    </defs>
    <title>Icons-Business</title>
		<rect x="98.439" y="257.813" class="cls-2" width="93.75" height="9.375"/>
		<path class="cls-1" d="M271.876,42.188c-10.341,0-18.75,8.409-18.75,18.75c0,5.527,2.447,10.448,6.262,13.884
			l-48.956,89.752c-1.35-0.314-2.738-0.511-4.181-0.511c-6.6,0-12.384,3.445-15.727,8.611l-12.398-3.942v-9.356h4.688V150h-4.688
			v-9.375h4.688v-9.375h-4.688v-9.375h4.688c12.923,0,23.438-10.514,23.438-23.438c0-10.472-6.9-19.359-16.392-22.359l7.017-14.034
			V0h-28.126v23.438h-9.375V0h-28.125v23.438h-9.375V0H93.751v62.044l7.017,14.039c-9.492,2.995-16.392,11.883-16.392,22.355
			c0,12.923,10.514,23.438,23.438,23.438h4.688v9.375h-4.688v9.375h4.688v7.223l-14.33-4.561c0.122-0.877,0.267-1.748,0.267-2.663
			c0-10.341-8.409-18.75-18.75-18.75s-18.75,8.409-18.75,18.75c0,4.809,1.87,9.155,4.856,12.478l-41.091,44.831
			c-1.884-0.638-3.863-1.059-5.953-1.059c-10.341,0-18.75,8.409-18.75,18.75s8.409,18.75,18.75,18.75s18.75-8.409,18.75-18.75
			c0-4.809-1.87-9.155-4.856-12.478l41.095-44.831c1.88,0.637,3.858,1.059,5.948,1.059c6.056,0,11.4-2.934,14.827-7.406
			l13.298,4.228v3.178h4.688v14.063c0,40.589-22.491,76.828-22.716,77.189l-0.919,1.458l5.508,38.541h101.878l5.508-38.55
			l-0.923-1.463c-0.22-0.342-20.775-33.347-22.538-71.986l9.328,2.967c-0.028,0.408-0.127,0.802-0.127,1.219
			c0,10.341,8.409,18.75,18.75,18.75s18.75-8.409,18.75-18.75c0-5.527-2.447-10.448-6.262-13.884l48.956-89.752
			c1.35,0.314,2.738,0.511,4.181,0.511c10.341,0,18.75-8.409,18.75-18.75S282.217,42.188,271.876,42.188z M18.751,225
			c-5.17,0-9.375-4.205-9.375-9.375s4.205-9.375,9.375-9.375s9.375,4.205,9.375,9.375C28.126,220.796,23.921,225,18.751,225z
			 M79.689,150c-5.17,0-9.375-4.205-9.375-9.375s4.205-9.375,9.375-9.375s9.375,4.205,9.375,9.375
			C89.064,145.796,84.859,150,79.689,150z M107.814,112.5c-7.753,0-14.063-6.309-14.063-14.063s6.309-14.063,14.063-14.063h7.584
			h43.978V75h-48.665l-7.584-15.169V9.375h9.375v23.437h28.125V9.375h9.374v23.437h28.125V9.375h9.375v50.456l-12.272,24.544h7.584
			c7.753,0,14.063,6.309,14.063,14.063s-6.309,14.063-14.063,14.063h-4.688h-65.624h-4.687V112.5z M121.876,121.875h46.875v9.375
			h-46.875V121.875z M168.751,140.625V150h-46.875v-9.375H168.751z M188.125,281.25h-85.622l-3.347-23.438h64.908v-9.375h-62.278
			c6.891-13.036,20.091-42.239,20.091-75v-14.063h46.875v14.063c0,39.258,18.764,73.153,23.245,80.691L188.125,281.25z
			 M206.251,192.188c-5.17,0-9.375-4.205-9.375-9.375s4.205-9.375,9.375-9.375s9.375,4.205,9.375,9.375
			S211.422,192.188,206.251,192.188z M271.876,70.313c-5.17,0-9.375-4.205-9.375-9.375s4.205-9.375,9.375-9.375
			s9.375,4.205,9.375,9.375S277.047,70.313,271.876,70.313z"/>
		<rect x="121.876" y="140.625" class="cls-2" width="46.875" height="9.375"/>
</svg>
